<svg xmlns="http://www.w3.org/2000/svg" enable-background="new 0 0 3800 3000" viewBox="0 0 3800 3000"><path fill="#f7f0e8" d="M2798.16,798.85C1395.1-22.09,360.89,1298.18,466.89,1943.13c83.1,505.55,404.59,733.44,1010.54,521.45
		c1107.3-387.34,1344.3-100.85,1630.87-50.13C3394.88,2465.13,3593,1263.93,2798.16,798.85z"/><path fill="#edd058" d="M2352.78,310.06c-116.14,0-210.39,94.17-210.39,210.39c0,116.14,94.25,210.39,210.39,210.39
				c116.22,0,210.39-94.25,210.39-210.39C2563.17,404.23,2469.01,310.06,2352.78,310.06z M2352.78,702.58
				c-100.61,0-182.14-81.52-182.14-182.14c0-100.61,81.53-182.14,182.14-182.14c100.61,0,182.14,81.52,182.14,182.14
				C2534.92,621.06,2453.4,702.58,2352.78,702.58z"/><circle cx="2352.78" cy="520.45" r="182.14" fill="#f7f0e8" transform="rotate(-45.001 2352.789 520.477)"/><polygon fill="#042c30" points="2356.31 518.86 2261.23 505.2 2243.1 515.33 2261.23 528.64"/><path fill="#313844" d="M2371.6,520.45c0,10.39-8.42,18.81-18.81,18.81c-10.39,0-18.81-8.42-18.81-18.81
				c0-10.39,8.42-18.81,18.81-18.81C2363.18,501.63,2371.6,510.05,2371.6,520.45z"/><path fill="#422038" d="M2352.78,541.59c-11.66,0-21.14-9.48-21.14-21.14c0-11.66,9.48-21.14,21.14-21.14
				c1.28,0,2.32,1.04,2.32,2.32c0,1.28-1.04,2.32-2.32,2.32c-9.09,0-16.49,7.4-16.49,16.49c0,9.09,7.4,16.49,16.49,16.49
				c1.28,0,2.32,1.04,2.32,2.32S2354.07,541.59,2352.78,541.59z"/><rect width="7.06" height="20.59" x="2349.26" y="333.15" fill="#edd058"/><rect width="7.06" height="20.58" x="2349.26" y="687.16" fill="#edd058"/><rect width="7.06" height="20.59" x="2172.25" y="510.15" fill="#edd058" transform="rotate(-90 2175.775 520.447)"/><rect width="7.06" height="20.59" x="2526.26" y="510.15" fill="#edd058" transform="rotate(-90 2529.791 520.447)"/><g><rect width="7.06" height="20.59" x="2224.09" y="384.99" fill="#edd058" transform="rotate(-44.992 2227.765 395.28)"/><rect width="7.06" height="20.59" x="2474.42" y="635.32" fill="#edd058" transform="rotate(-45.001 2478.106 645.621)"/></g><g><rect width="7.06" height="20.59" x="2224.09" y="635.32" fill="#edd058" transform="rotate(-134.999 2227.666 645.573)"/><rect width="7.06" height="20.59" x="2474.42" y="384.99" fill="#edd058" transform="rotate(-134.999 2477.991 395.236)"/></g><path fill="#313844" d="M2352.78,707.23c-34.03,0-67.34-9.24-96.33-26.71c-2.2-1.33-2.91-4.18-1.58-6.38
				c1.33-2.2,4.19-2.91,6.38-1.58c27.54,16.6,59.19,25.38,91.53,25.38c18.01,0,35.77-2.68,52.79-7.98c2.45-0.76,5.06,0.61,5.82,3.06
				c0.76,2.45-0.61,5.06-3.06,5.82C2390.42,704.41,2371.73,707.23,2352.78,707.23z"/><path fill="#313844" d="M2446.69,681.2c-1.58,0-3.11-0.8-3.99-2.25c-1.33-2.2-0.62-5.05,1.58-6.38
				c53.84-32.45,85.99-89.32,85.99-152.13c0-70.33-41.58-134.11-105.94-162.48c-2.35-1.03-3.41-3.78-2.38-6.13
				c1.04-2.35,3.78-3.4,6.13-2.38c67.72,29.86,111.48,96.98,111.48,170.99c0,66.09-33.82,125.94-90.48,160.09
				C2448.33,680.99,2447.51,681.2,2446.69,681.2z"/><polygon fill="#313844" points="2351.36 523.97 2364.76 380.07 2354.11 361.01 2340.8 379.14"/><g><rect width="922.73" height="193.42" x="1541.05" y="810.6" fill="#3db289"/><path fill="#f1dbcc" d="M1687.1,906.4c0,33.78-27.39,61.17-61.17,61.17c-33.78,0-61.17-27.38-61.17-61.17
				c0-33.78,27.39-61.17,61.17-61.17C1659.71,845.23,1687.1,872.62,1687.1,906.4z"/><path fill="#313844" d="M1644.86,972.22c-36.29,0-65.82-29.52-65.82-65.82c0-36.29,29.53-65.82,65.82-65.82s65.82,29.53,65.82,65.82
				C1710.68,942.7,1681.16,972.22,1644.86,972.22z M1644.86,849.88c-31.17,0-56.53,25.36-56.53,56.52
				c0,31.16,25.36,56.52,56.53,56.52c31.17,0,56.52-25.35,56.52-56.52C1701.39,875.24,1676.03,849.88,1644.86,849.88z"/><path fill="#313844" d="M1658.63,944.79c-0.07,0-0.14,0-0.21,0c-1.29-0.06-2.49-0.65-3.33-1.63l-42.56-50.07
				c-1.66-1.96-1.42-4.89,0.53-6.55c1.95-1.66,4.89-1.42,6.55,0.53l39.33,46.27l111.6-109.17c1.83-1.8,4.78-1.76,6.57,0.07
				c1.8,1.83,1.76,4.78-0.07,6.57l-115.16,112.65C1661.01,944.32,1659.84,944.79,1658.63,944.79z"/><path fill="#f1dbcc" d="M1782.68,935.64c-4.24,0-8.09-0.83-11.54-2.49c-3.45-1.66-6.42-3.86-8.89-6.61
					c-2.47-2.75-4.39-5.88-5.75-9.42c-1.36-3.53-2.04-7.15-2.04-10.85c0-3.86,0.72-7.56,2.16-11.09c1.44-3.53,3.43-6.66,5.95-9.38
					c2.53-2.72,5.53-4.88,9.01-6.48c3.48-1.6,7.26-2.41,11.34-2.41c4.19,0,8.01,0.86,11.46,2.57c3.45,1.71,6.4,3.95,8.85,6.73
					c2.45,2.77,4.35,5.93,5.71,9.46c1.36,3.54,2.04,7.12,2.04,10.76c0,3.86-0.71,7.54-2.12,11.05c-1.41,3.51-3.37,6.61-5.87,9.3
					c-2.5,2.69-5.49,4.84-8.97,6.44C1790.54,934.84,1786.76,935.64,1782.68,935.64z M1765.88,906.28c0,2.5,0.38,4.92,1.14,7.26
					c0.76,2.34,1.86,4.41,3.3,6.2c1.44,1.79,3.21,3.23,5.3,4.32c2.09,1.09,4.47,1.63,7.14,1.63c2.72,0,5.12-0.56,7.22-1.67
					c2.09-1.11,3.86-2.6,5.3-4.45c1.44-1.85,2.53-3.92,3.26-6.24c0.73-2.31,1.1-4.66,1.1-7.05c0-2.5-0.4-4.92-1.18-7.26
					c-0.79-2.34-1.9-4.41-3.34-6.2c-1.44-1.79-3.21-3.22-5.3-4.28c-2.09-1.06-4.44-1.59-7.05-1.59c-2.72,0-5.14,0.56-7.26,1.67
					c-2.12,1.12-3.89,2.58-5.3,4.41c-1.41,1.82-2.49,3.89-3.22,6.2C1766.25,901.54,1765.88,903.89,1765.88,906.28z"/><path fill="#f1dbcc" d="M1830.88,898.12v37.11h-11.25v-57.9h8.73l30.18,38v-37.92h11.25v57.82h-9.13L1830.88,898.12z"/><path fill="#f1dbcc" d="M1881.85,935.23v-57.9h11.25v48.04h29.52v9.87H1881.85z"/><path fill="#f1dbcc" d="M1929.48,935.23v-57.9h11.25v57.9H1929.48z"/><path fill="#f1dbcc" d="M1964.06,898.12v37.11h-11.25v-57.9h8.73l30.18,38v-37.92h11.25v57.82h-9.13L1964.06,898.12z"/><path fill="#f1dbcc" d="M2055.24,925.36v9.87h-40.21v-57.9h39.47v9.87h-28.22v13.94h24.39v9.14h-24.39v15.09H2055.24z"/><path fill="#f1dbcc" d="M2083.62,935.23v-57.9h11.25v48.04h29.52v9.87H2083.62z"/><path fill="#f1dbcc" d="M2171.45,925.36v9.87h-40.21v-57.9h39.47v9.87h-28.22v13.94h24.39v9.14h-24.39v15.09H2171.45z"/><path fill="#f1dbcc" d="M2213.54,892.5c-0.38-0.38-1.07-0.9-2.08-1.55c-1.01-0.65-2.23-1.29-3.67-1.92
					c-1.44-0.63-3.01-1.15-4.69-1.59c-1.69-0.43-3.4-0.65-5.14-0.65c-3.1,0-5.41,0.57-6.93,1.71c-1.52,1.14-2.28,2.74-2.28,4.81
					c0,1.2,0.28,2.19,0.86,2.98c0.57,0.79,1.4,1.48,2.49,2.08c1.09,0.6,2.46,1.14,4.12,1.63c1.66,0.49,3.57,1.01,5.75,1.55
					c2.83,0.76,5.39,1.58,7.71,2.45c2.31,0.87,4.27,1.96,5.87,3.26c1.6,1.3,2.84,2.87,3.71,4.69c0.87,1.82,1.3,4.06,1.3,6.73
					c0,3.1-0.58,5.75-1.75,7.95c-1.17,2.2-2.75,3.98-4.73,5.34c-1.99,1.36-4.27,2.35-6.85,2.98c-2.58,0.62-5.29,0.94-8.12,0.94
					c-4.35,0-8.64-0.65-12.89-1.96c-4.24-1.3-8.05-3.15-11.42-5.55l4.97-9.7c0.49,0.49,1.37,1.13,2.65,1.92
					c1.28,0.79,2.79,1.58,4.53,2.36c1.74,0.79,3.67,1.45,5.79,2c2.12,0.54,4.3,0.81,6.52,0.81c6.2,0,9.3-1.99,9.3-5.95
					c0-1.25-0.35-2.31-1.06-3.18c-0.71-0.87-1.71-1.63-3.02-2.28c-1.3-0.65-2.88-1.25-4.73-1.79c-1.85-0.54-3.91-1.14-6.2-1.79
					c-2.77-0.76-5.18-1.59-7.22-2.49c-2.04-0.9-3.74-1.96-5.1-3.18c-1.36-1.22-2.38-2.64-3.06-4.24c-0.68-1.6-1.02-3.52-1.02-5.75
					c0-2.94,0.54-5.54,1.63-7.83c1.09-2.28,2.59-4.19,4.52-5.71c1.93-1.52,4.17-2.68,6.73-3.47c2.55-0.79,5.3-1.18,8.24-1.18
					c4.08,0,7.83,0.64,11.25,1.92c3.43,1.28,6.41,2.79,8.97,4.53L2213.54,892.5z"/><path fill="#f1dbcc" d="M2263.53,892.5c-0.38-0.38-1.07-0.9-2.08-1.55c-1.01-0.65-2.23-1.29-3.67-1.92
					c-1.44-0.63-3.01-1.15-4.69-1.59c-1.69-0.43-3.4-0.65-5.14-0.65c-3.1,0-5.41,0.57-6.93,1.71c-1.52,1.14-2.28,2.74-2.28,4.81
					c0,1.2,0.28,2.19,0.86,2.98c0.57,0.79,1.4,1.48,2.49,2.08c1.09,0.6,2.46,1.14,4.12,1.63c1.66,0.49,3.57,1.01,5.75,1.55
					c2.83,0.76,5.39,1.58,7.71,2.45c2.31,0.87,4.27,1.96,5.87,3.26c1.6,1.3,2.84,2.87,3.71,4.69c0.87,1.82,1.3,4.06,1.3,6.73
					c0,3.1-0.58,5.75-1.75,7.95c-1.17,2.2-2.75,3.98-4.73,5.34c-1.99,1.36-4.27,2.35-6.85,2.98c-2.58,0.62-5.29,0.94-8.12,0.94
					c-4.35,0-8.64-0.65-12.89-1.96c-4.24-1.3-8.05-3.15-11.42-5.55l4.97-9.7c0.49,0.49,1.37,1.13,2.65,1.92
					c1.28,0.79,2.79,1.58,4.53,2.36c1.74,0.79,3.67,1.45,5.79,2c2.12,0.54,4.3,0.81,6.52,0.81c6.2,0,9.3-1.99,9.3-5.95
					c0-1.25-0.35-2.31-1.06-3.18s-1.71-1.63-3.02-2.28c-1.3-0.65-2.88-1.25-4.73-1.79c-1.85-0.54-3.91-1.14-6.2-1.79
					c-2.77-0.76-5.18-1.59-7.22-2.49c-2.04-0.9-3.74-1.96-5.1-3.18c-1.36-1.22-2.38-2.64-3.06-4.24c-0.68-1.6-1.02-3.52-1.02-5.75
					c0-2.94,0.54-5.54,1.63-7.83c1.09-2.28,2.59-4.19,4.52-5.71c1.93-1.52,4.17-2.68,6.73-3.47c2.55-0.79,5.3-1.18,8.24-1.18
					c4.08,0,7.83,0.64,11.25,1.92c3.43,1.28,6.41,2.79,8.97,4.53L2263.53,892.5z"/><path fill="#f1dbcc" d="M2303.74,935.64c-4.24,0-8.09-0.83-11.54-2.49c-3.45-1.66-6.42-3.86-8.89-6.61
					c-2.47-2.75-4.39-5.88-5.75-9.42c-1.36-3.53-2.04-7.15-2.04-10.85c0-3.86,0.72-7.56,2.16-11.09c1.44-3.53,3.43-6.66,5.95-9.38
					c2.53-2.72,5.53-4.88,9.01-6.48c3.48-1.6,7.26-2.41,11.34-2.41c4.19,0,8.01,0.86,11.46,2.57c3.45,1.71,6.4,3.95,8.85,6.73
					s4.35,5.93,5.71,9.46c1.36,3.54,2.04,7.12,2.04,10.76c0,3.86-0.71,7.54-2.12,11.05c-1.41,3.51-3.37,6.61-5.87,9.3
					c-2.5,2.69-5.49,4.84-8.97,6.44C2311.59,934.84,2307.81,935.64,2303.74,935.64z M2286.94,906.28c0,2.5,0.38,4.92,1.14,7.26
					c0.76,2.34,1.86,4.41,3.3,6.2c1.44,1.79,3.21,3.23,5.3,4.32c2.09,1.09,4.47,1.63,7.14,1.63c2.72,0,5.12-0.56,7.22-1.67
					c2.09-1.11,3.86-2.6,5.3-4.45c1.44-1.85,2.53-3.92,3.26-6.24c0.73-2.31,1.1-4.66,1.1-7.05c0-2.5-0.4-4.92-1.18-7.26
					c-0.79-2.34-1.9-4.41-3.34-6.2c-1.44-1.79-3.21-3.22-5.3-4.28c-2.09-1.06-4.44-1.59-7.06-1.59c-2.72,0-5.14,0.56-7.26,1.67
					c-2.12,1.12-3.89,2.58-5.3,4.41c-1.41,1.82-2.49,3.89-3.22,6.2C2287.3,901.54,2286.94,903.89,2286.94,906.28z"/><path fill="#f1dbcc" d="M2351.93,898.12v37.11h-11.25v-57.9h8.73l30.18,38v-37.92h11.25v57.82h-9.13L2351.93,898.12z"/></g><g><path fill="#313844" d="M2539.28,1322.4h-942.29c-22.66,0-41.03,18.37-41.03,41.03v597.6c0,22.66,18.37,41.03,41.03,41.03h942.29
					c22.66,0,41.03-18.37,41.03-41.03v-597.6C2580.31,1340.77,2561.94,1322.4,2539.28,1322.4z"/><path fill="#fff" d="M2516.6,1345.72h-898.8c-12.03,0-21.78,9.75-21.78,21.78v588.19c0,12.03,9.75,21.78,21.78,21.78h898.8
					c12.03,0,21.78-9.75,21.78-21.78v-588.19C2538.38,1355.48,2528.63,1345.72,2516.6,1345.72z"/><path fill="#f7f0e8" d="M2130.97,1459.26h-435.32c-2.57,0-4.65-2.08-4.65-4.65s2.08-4.65,4.65-4.65h435.32
						c2.57,0,4.65,2.08,4.65,4.65S2133.54,1459.26,2130.97,1459.26z"/><path fill="#f7f0e8" d="M2423.05,1459.26h-203.18c-2.57,0-4.65-2.08-4.65-4.65s2.08-4.65,4.65-4.65h203.18
						c2.57,0,4.65,2.08,4.65,4.65S2425.61,1459.26,2423.05,1459.26z"/><path fill="#f7f0e8" d="M2227.15,1535.88H1961.3c-2.57,0-4.65-2.08-4.65-4.65c0-2.57,2.08-4.65,4.65-4.65h265.86
						c2.57,0,4.65,2.08,4.65,4.65C2231.8,1533.8,2229.72,1535.88,2227.15,1535.88z"/><path fill="#f7f0e8" d="M2423.04,1535.87h-95.17c-2.57,0-4.65-2.08-4.65-4.65s2.08-4.65,4.65-4.65h95.17
						c2.57,0,4.65,2.08,4.65,4.65S2425.6,1535.87,2423.04,1535.87z"/><path fill="#f7f0e8" d="M1898.82,1535.87h-203.17c-2.57,0-4.65-2.08-4.65-4.65s2.08-4.65,4.65-4.65h203.17
						c2.57,0,4.65,2.08,4.65,4.65S1901.39,1535.87,1898.82,1535.87z"/><path fill="#f7f0e8" d="M1898.82,1612.48h-203.17c-2.57,0-4.65-2.08-4.65-4.65c0-2.57,2.08-4.65,4.65-4.65h203.17
						c2.57,0,4.65,2.08,4.65,4.65C1903.47,1610.4,1901.39,1612.48,1898.82,1612.48z"/><path fill="#f7f0e8" d="M2051.62,1612.49h-90.31c-2.57,0-4.65-2.08-4.65-4.65c0-2.57,2.08-4.65,4.65-4.65h90.31
						c2.57,0,4.65,2.08,4.65,4.65C2056.27,1610.41,2054.19,1612.49,2051.62,1612.49z"/><path fill="#f7f0e8" d="M2206.39,1612.49h-90.31c-2.57,0-4.65-2.08-4.65-4.65c0-2.57,2.08-4.65,4.65-4.65h90.31
						c2.57,0,4.65,2.08,4.65,4.65C2211.04,1610.41,2208.96,1612.49,2206.39,1612.49z"/><rect width="1083.73" height="48.61" x="1526.27" y="1982.9" fill="#422038"/><path fill="#f1ad4a" d="M1617.8,1977.49c0,0,165.86-353.96,445.97-348.54c280.1,5.42,452.84,348.54,452.84,348.54H1617.8z"/><g><path fill="#313844" d="M2246.88,1202.42c0.64-3.25,0.99-6.6,0.99-10.03c0-28.6-23.18-51.78-51.78-51.78
							c-2.28,0-4.52,0.2-6.72,0.49c-8.89-15.71-25.72-26.33-45.06-26.33c-11.25,0-21.63,3.63-30.12,9.72
							c-11.19-11.85-27-19.29-44.58-19.29c-14.01,0-26.88,4.75-37.21,12.65c-7.41-3.18-15.57-4.95-24.15-4.95
							c-31.36,0-57.18,23.54-60.86,53.91c-26.19,2.57-46.66,24.65-46.66,51.52c0,1.61,0.1,3.19,0.24,4.76
							c-25.02,14.45-39.32,36.65-27.58,59.19c22.97,44.11,1.02,66.5-0.01,99.11c-1.64,52.02,43.32,62.43,53.7,82.17
							c55.43,105.45,117.69,82.27,137.82,59.27c38.03-43.42,68.94-93.05,91.28-146.26c2.71-6.45,5.29-12.95,7.74-19.51
							c2.23-5.96,3.65-13.09,6.95-18.56c4.79-7.96,18.5-8.06,26.5-11.16c22.12-8.57,47.84-21.17,54.61-43.83
							C2263.18,1246.06,2258.92,1220.35,2246.88,1202.42z"/><path fill="#5e4358" d="M2196.8,1281.21c-2.17,0-4.2-1.36-4.96-3.52c-0.95-2.74,0.49-5.73,3.22-6.69
							c0.28-0.1,27.96-9.96,38.31-28.26c1.43-2.52,4.63-3.42,7.15-1.99c2.53,1.43,3.41,4.63,1.99,7.15
							c-12.32,21.78-42.71,32.56-44,33.01C2197.96,1281.12,2197.38,1281.21,2196.8,1281.21z"/><path fill="#5e4358" d="M2163.98,1275.34c-2.8,0-5.12-2.2-5.24-5.02c-0.02-0.55-0.46-13.8,7.15-53.1c0.55-2.85,3.3-4.7,6.15-4.16
							c2.85,0.55,4.71,3.31,4.16,6.15c-7.29,37.66-6.97,50.57-6.96,50.7c0.09,2.89-2.17,5.32-5.05,5.43
							C2164.11,1275.34,2164.05,1275.34,2163.98,1275.34z"/><path fill="#5e4358" d="M2102.2,1275.35c-0.16,0-0.33-0.01-0.49-0.02c-2.88-0.26-5.01-2.82-4.74-5.71
							c0.02-0.25,2.2-25.83-6.44-67.47c-0.59-2.84,1.23-5.62,4.07-6.21c2.82-0.58,5.62,1.24,6.21,4.07
							c8.99,43.34,6.71,69.48,6.61,70.57C2107.17,1273.31,2104.88,1275.35,2102.2,1275.35z"/><path fill="#5e4358" d="M2063.76,1281.28c-2.36,0-4.51-1.61-5.1-4.01c-0.1-0.4-10.03-40.6-26.22-55.6
							c-2.13-1.97-2.25-5.29-0.28-7.42c1.97-2.13,5.29-2.26,7.42-0.28c18.51,17.15,28.86,59.05,29.29,60.83
							c0.68,2.81-1.04,5.65-3.86,6.34C2064.59,1281.23,2064.17,1281.28,2063.76,1281.28z"/><path fill="#5e4358" d="M2008.25,1296.15c-1.54,0-3.06-0.67-4.09-1.96c-5.43-6.74-22.31-25.06-35.11-28.78
							c-2.78-0.81-4.39-3.72-3.58-6.51c0.81-2.79,3.71-4.38,6.51-3.58c18.61,5.4,39.48,31.19,40.37,32.29
							c1.81,2.26,1.45,5.56-0.81,7.38C2010.57,1295.77,2009.41,1296.15,2008.25,1296.15z"/><path fill="#f6b08e" d="M1935.08,1427.68c6.58-17.74,26.14-29.67,44.92-27.41c0.15-21.67,1.68-43.57,8.11-64.27
							c17-54.67,187.76-49.89,194.92-35.12c1.98,4.08,32.71,109,36.82,147c4.12,37.99-1.79,79.63-27.88,107.56
							c-20.49,21.93-54.75,30.43-86.41,26.86c10.04,32.35,22.83,76.09,30.93,100.37c-19.62,15.31-133.11,0.74-157.9-1.38
							c5.7-38.66,14.1-164.83,19.79-203.49c-13.9,12.83-36.47,8.44-47.11-0.05C1936.48,1465.96,1928.5,1445.42,1935.08,1427.68z"/><path fill="#313844" d="M1958.8,1448.37c-0.71,0-1.41-0.28-1.92-0.84c-4-4.31-5.76-8.93-5.2-13.71c1.02-8.8,9.6-14.68,9.97-14.92
							c1.2-0.81,2.83-0.49,3.64,0.71c0.81,1.2,0.5,2.83-0.7,3.64c-0.07,0.05-6.97,4.81-7.69,11.19c-0.36,3.19,0.93,6.39,3.83,9.52
							c0.99,1.06,0.93,2.72-0.14,3.71C1960.09,1448.14,1959.44,1448.37,1958.8,1448.37z"/><path fill="#313844" d="M2126.54,1585.06c-18.65,0-41.44-5.73-62.55-26.63c-1.03-1.02-1.04-2.68-0.02-3.71
							c1.02-1.03,2.68-1.04,3.71-0.02c43.75,43.32,93.56,18.32,95.66,17.23c1.28-0.66,2.87-0.16,3.54,1.12
							c0.67,1.29,0.17,2.87-1.12,3.54C2165.47,1576.75,2149,1585.06,2126.54,1585.06z"/><path fill="#313844" d="M2153.64,1455.36c-1.55,0-3.18-0.24-4.87-0.81c-1.37-0.46-2.12-1.94-1.66-3.32
							c0.46-1.37,1.93-2.12,3.32-1.66c6.23,2.07,11.01-2.3,12.94-4.51c-4.24-8.73-24.31-51.66-18.87-71.4
							c0.39-1.4,1.85-2.21,3.23-1.83c1.4,0.38,2.22,1.83,1.83,3.23c-5.41,19.63,18.99,68.65,19.24,69.15
							c0.43,0.85,0.36,1.86-0.17,2.65C2166.38,1450.17,2160.8,1455.36,2153.64,1455.36z"/><path fill="#313844" d="M2107.87,1362.32c0.51-4.72-13.77-10.13-25.6-11.42c-11.84-1.28-16.75,2.06-17.26,6.78
									c-0.51,4.72,3.58,9.03,15.41,10.31C2092.25,1369.27,2107.35,1367.04,2107.87,1362.32z"/><path fill="#313844" d="M2149.59,1353.45c-0.51-4.72,13.77-10.13,25.6-11.42c11.84-1.28,16.75,2.06,17.26,6.78
									c0.51,4.72-3.58,9.03-15.41,10.31C2165.21,1360.41,2150.11,1358.17,2149.59,1353.45z"/><path fill="#eda585" d="M2089.28,1428.53c0.69,5.24,8.26,8.55,16.9,7.41c8.64-1.14,15.09-6.31,14.39-11.55
									c-0.69-5.23-8.26-8.55-16.9-7.41C2095.03,1418.13,2088.59,1423.3,2089.28,1428.53z"/><path fill="#eda585" d="M2171.09,1411.67c0.69,5.24,8.26,8.55,16.9,7.41c8.64-1.14,15.09-6.31,14.4-11.55
									c-0.69-5.23-8.26-8.55-16.9-7.41C2176.85,1401.26,2170.4,1406.43,2171.09,1411.67z"/><circle cx="2095.67" cy="1390.64" r="9.25" fill="#313844"/><path fill="#313844" d="M2166.46,1384.54c0,5.11,4.14,9.25,9.25,9.25c5.11,0,9.26-4.14,9.26-9.25c0-5.11-4.14-9.25-9.26-9.25
							C2170.6,1375.29,2166.46,1379.43,2166.46,1384.54z"/><path fill="#f7f0e8" d="M2170.01,1487.69c-7.1,2.53-8.61,8.61-30.15,0c-21.53-8.61-29.43-15.4-33.02-4.11
							c-3.59,11.29,38.76,47.64,63.17,29.7C2194.42,1495.33,2174.79,1485.98,2170.01,1487.69z"/><path fill="#313844" d="M2153.81,1531.23c-7.42,0-13.9-3.03-19.48-5.64l-0.94-0.44c-1.31-0.61-1.88-2.17-1.27-3.49
							c0.61-1.31,2.16-1.88,3.49-1.27l0.95,0.44c8.17,3.82,16.64,7.78,27.03,2.86c1.33-0.63,2.88-0.06,3.5,1.25
							c0.62,1.31,0.06,2.88-1.25,3.5C2161.58,1530.45,2157.57,1531.23,2153.81,1531.23z"/><path fill="#313844" d="M1970.52,1381.39c0,0,1.34,20.02,18.87,28.21c17.53,8.19,8.92-35.36,21.84-61.2
						c12.92-25.84,50.09-31.06,96.66-24.41c33.51,4.78,38.66-22.49,58.58-7.18c19.92,15.31,28.12,22.14,35.98,8.51
						c11.45-19.85-1.6-53.02-67.94-53.02C2068.17,1272.3,1967.62,1297.13,1970.52,1381.39z"/><path fill="#313844" d="M2238.77,1389.9c-2.19-27.7-24.44-50.03-49.9-49.87c-11.64,0.09-22.43,4.92-30.37,13.58
					c-5.6,6.11-9.44,13.81-11.25,22.22c-9.28-17.6-26.73-29.73-45.84-29.73c-0.12,0-0.24,0-0.36,0c-12.36,0.1-23.8,5.22-32.23,14.42
					c-9.48,10.34-14.22,24.97-13.02,40.14c2.32,29.32,25.9,53.03,52.66,53.02c0.12,0,0.25,0,0.36,0c12.36-0.1,23.8-5.22,32.23-14.42
					c6.23-6.8,10.37-15.46,12.16-24.9c8.87,15.98,24.98,26.89,42.59,26.89c0.11,0,0.23,0,0.34,0c11.64-0.09,22.43-4.92,30.38-13.59
					C2235.43,1417.93,2239.9,1404.17,2238.77,1389.9z M2133.31,1432.17c-6.44,7.03-15.17,10.94-24.57,11.01c-0.1,0-0.19,0-0.28,0
					c-21.4,0-40.29-19.38-42.19-43.35c-0.97-12.27,2.78-24.01,10.29-32.21c6.44-7.03,15.17-10.94,24.57-11.01c0.09,0,0.19,0,0.28,0
					c21.4,0,40.29,19.39,42.19,43.36C2144.57,1412.23,2140.82,1423.97,2133.31,1432.17z M2218.77,1420.57
					c-5.95,6.5-14.02,10.11-22.72,10.18c-0.09,0-0.18,0-0.26,0c-19.82,0-37.32-17.97-39.08-40.2c-0.9-11.38,2.57-22.25,9.53-29.85
					c5.95-6.5,14.02-10.11,22.72-10.18c0.09,0,0.18,0,0.26,0c19.82,0,37.33,17.97,39.08,40.2
					C2229.2,1402.1,2225.72,1412.98,2218.77,1420.57z"/></g><g><path fill="#3db289" d="M2277.52,1589.27c5.3,101.81-2.6,201.08-23.41,299.34c1.1,1.95,95.22-73.78,208.58-22.43
							c14.47-102.7,16.43-207.61,5.18-316.58C2467.44,1549.1,2300.31,1533.66,2277.52,1589.27z"/><path fill="#f7f0e8" d="M2332.87,1644.51c0,0-1.94-22.85,1.29-34.33c3.23-11.48,18.37-1.51,55.31-6.15s36.94-4.64,36.94-4.64
						l-5.93,43.11C2420.47,1642.5,2354.34,1631.08,2332.87,1644.51z"/><path fill="#f7f0e8" d="M2300.46,1685.68c0,0,30.1-15.02,37.8-10.72c7.7,4.3,35.47,1.61,35.47,1.61l2.51,8.84
						c0,0-55.9,1.77-69.54,10.82C2293.05,1705.28,2300.46,1685.68,2300.46,1685.68z"/><path fill="#f7f0e8" d="M2393.4,1683.67c0,0,19.28-9.62,24.22-6.87c4.93,2.75,22.72,1.03,22.72,1.03l1.6,5.66
						c0,0-35.81,1.13-44.55,6.93C2388.66,1696.23,2393.4,1683.67,2393.4,1683.67z"/><path fill="#f7f0e8" d="M2437.89,1721.43c0,0-30.62,13.94-38.16,9.37c-7.54-4.57-35.39-2.87-35.39-2.87l-2.19-8.92
						c0,0,55.93,0.22,69.89-8.34S2437.89,1721.43,2437.89,1721.43z"/><path fill="#f7f0e8" d="M2344.93,1720.12c0,0-19.61,8.93-24.45,6c-4.83-2.93-22.67-1.84-22.67-1.84l-1.4-5.71
						c0,0,35.83,0.14,44.77-5.34C2350.12,1707.74,2344.93,1720.12,2344.93,1720.12z"/><g><path fill="#e69f7e" d="M2322.34,1895.01l-0.01-0.03c-8.51,0.97-38.59-0.73-38.36-0.76c-8.99-0.53-19.59,1.58-27.58-3.35
									c-30.78,26.86-73.3,67.3-93.67,63.39c-19.05-11.71-36.53-98.59-36.53-98.59c12.87-14.59,70.16-35.64,90.19-63.92
									c21.16-29.87,46.51-118.58,63.33-96.34c16.85,22.26-2.21,71.22-2.21,71.22c7.96,0.77,64.41-24.11,89.48,10.34
									c10.02,13.77-11.96,20.09-11.96,20.09s12.46,4.62,11.33,18.49c-1.18,14.73-12.15,13.36-12.15,13.36s11.24,8.92,9.88,20.49
									c-1.43,12.21-14.13,10.38-14.13,10.38s8.88,5.16,7.35,19.48C2355.92,1892.12,2322.34,1895.01,2322.34,1895.01z"/><path fill="#5e4358" d="M2355.79,1799.79c-0.29,0.08-0.61,0.12-0.93,0.1l-37.04-2.05c-1.56-0.09-2.76-1.42-2.67-2.99
							c0.08-1.56,1.42-2.76,2.99-2.67l37.04,2.05c1.56,0.09,2.76,1.42,2.67,2.99C2357.78,1798.45,2356.92,1799.46,2355.79,1799.79z"/><path fill="#5e4358" d="M2354.97,1831.63c-0.28,0.08-0.58,0.12-0.88,0.1l-34.94-1.37c-1.57-0.06-2.78-1.38-2.72-2.94
							c0.06-1.56,1.38-2.78,2.94-2.72l34.94,1.37c1.56,0.06,2.78,1.38,2.72,2.94C2356.98,1830.27,2356.12,1831.31,2354.97,1831.63z"/><path fill="#5e4358" d="M2350.72,1862.5c-0.28,0.08-0.58,0.12-0.9,0.1l-29.85-1.28c-1.56-0.07-2.78-1.39-2.71-2.95
							c0.07-1.56,1.39-2.78,2.95-2.71l29.85,1.28c1.56,0.07,2.78,1.39,2.71,2.95C2352.73,1861.15,2351.87,1862.18,2350.72,1862.5z"/><path fill="#5e4358" d="M2265.07,1720.88c-1.68,0.48-3.05,0.19-4-0.21c-3.47-1.47-4.56-5.81-4.74-6.66
							c-0.33-1.53,0.68-3.03,2.18-3.37c1.53-0.33,3.03,0.64,3.36,2.17c0.26,1.14,0.96,2.46,1.42,2.65c0.07,0.03,0.39-0.02,0.94-0.36
							c2.3-1.43,4.56-10.72,5.22-18.51c0.13-1.56,1.51-2.72,3.06-2.59c1.56,0.13,2.72,1.5,2.58,3.06
							c-0.38,4.45-2.06,19.24-7.88,22.85C2266.45,1720.38,2265.74,1720.69,2265.07,1720.88z"/><path fill="#5e4358" d="M2310.52,1882.82c-1.44,0.41-2.96-0.38-3.45-1.8c-2.97-8.62-1.39-11.35,2.83-18.66
						c0.63-1.08,1.32-2.29,2.09-3.66c3.31-5.91,2.09-11.55,0.55-18.67c-0.87-4-1.76-8.14-1.95-12.81c-0.11-2.6-0.23-4.75-0.35-6.66
						c-0.44-7.47-0.69-11.59,1.43-25c2.36-14.95-7.69-27.3-7.79-27.42c-1-1.2-0.83-2.99,0.37-3.99c1.2-1,2.99-0.84,3.99,0.36
						c0.48,0.58,11.81,14.39,9.04,31.93c-2.02,12.8-1.8,16.47-1.37,23.78c0.11,1.94,0.24,4.12,0.35,6.76
						c0.17,4.19,1.01,8.08,1.83,11.84c1.65,7.64,3.22,14.86-1.15,22.65c-0.78,1.39-1.49,2.62-2.13,3.72
						c-4.08,7.07-4.51,7.81-2.38,13.98c0.51,1.48-0.28,3.09-1.76,3.6C2310.62,1882.79,2310.57,1882.81,2310.52,1882.82z"/></g></g><path fill="#f7f0e8" d="M2063.86,1711.82c0,0-46.83,85.73-89.25,39.07c-42.41-46.66,8.78-113.52,8.78-113.52
				s26.08,54.19,82.44,52.22c0,0,55.08-3.77,58.65-45.09c0,0,46.67,58.37,25.12,88.99
				C2128.06,1764.11,2063.86,1711.82,2063.86,1711.82z"/><path fill="#313844" d="M2169.58,1963.63c-1.19-3.94-29.17-96.7-38.48-121.52c-2.61-6.95-12.04-9.64-25.39-9.53
				c0.15-0.88,0.15-1.79-0.18-2.68l-36.85-98.24c-1.02-2.71-4.04-4.08-6.76-3.07c-2.71,1.02-4.09,4.04-3.07,6.76l36.68,97.8
				c-16.09,1.46-35.85,5.7-55.88,11.04c-2.64,0.7-4.29,3.29-3.89,5.99c0.01,0.04,0.01,0.07,0.02,0.11c0.47,3.14,3.6,5.13,6.66,4.32
				c7.43-1.96,14.49-3.69,21.16-5.21l13.47,58.01c0.56,2.43,2.72,4.06,5.11,4.06c0.39,0,0.79-0.04,1.19-0.14
				c2.82-0.66,4.58-3.48,3.93-6.3l-13.44-57.87c27.25-5.59,45.46-6.56,47.41-1.37c7.96,21.23,30.63,95.7,36.73,115.83l-15.75,4.69
				c-2.78,0.83-4.36,3.75-3.54,6.53c0.68,2.28,2.77,3.76,5.03,3.76c0.5,0,1-0.07,1.5-0.22l25.86-7.7L2169.58,1963.63z"/><path fill="#313844" d="M1909.75,1833.47c-0.34,0-0.68-0.03-1.02-0.1c-2.85-0.56-4.69-3.32-4.13-6.17
				c12.08-61.11-10.88-140.8-11.12-141.59c-0.81-2.78,0.78-5.7,3.57-6.51c2.8-0.82,5.7,0.78,6.51,3.56
				c0.98,3.36,23.92,82.92,11.34,146.58C1914.4,1831.74,1912.21,1833.47,1909.75,1833.47z"/><path fill="#313844" d="M2328.97,1982.74c-2.02,0-3.95-1.18-4.81-3.15l-17.46-39.98c-1.16-2.66,0.05-5.75,2.71-6.91
				c2.66-1.15,5.75,0.05,6.91,2.71l17.46,39.98c1.16,2.66-0.05,5.75-2.71,6.91C2330.38,1982.59,2329.67,1982.74,2328.97,1982.74z"/><g><rect width="146" height="382.21" x="491.01" y="2293.9" fill="#f6b08e"/><rect width="146" height="382.21" x="3016.74" y="2293.9" fill="#f6b08e"/><path fill="#313844" d="M3016.74,2665.16c-2.4,0-4.34-2.08-4.34-4.65V2293.9c0-2.57,1.95-4.65,4.34-4.65c2.4,0,4.34,2.08,4.34,4.65
					v366.62C3021.08,2663.08,3019.14,2665.16,3016.74,2665.16z"/><path fill="#eda585" d="M361.03,2091.61v150.38c0,54.16,41.04,98.06,91.66,98.06h2773.96c50.62,0,91.67-43.91,91.67-98.06v-150.38
				H361.03z"/><path fill="#313844" d="M3226.65,2344.7H2753.8c-2.4,0-4.34-2.08-4.34-4.65c0-2.57,1.95-4.65,4.34-4.65h472.85
				c2.4,0,4.34,2.08,4.34,4.65C3231,2342.62,3229.05,2344.7,3226.65,2344.7z"/><path fill="#313844" d="M988.62,2344.7H452.69c-2.4,0-4.34-2.08-4.34-4.65c0-2.57,1.95-4.65,4.34-4.65h535.93
				c2.4,0,4.35,2.08,4.35,4.65C992.96,2342.62,991.02,2344.7,988.62,2344.7z"/><path fill="#f6b08e" d="M3383.02,2020.65H296.32c-31.35,0-56.76,27.19-56.76,60.72c0,33.54,25.41,60.72,56.76,60.72h3086.7
				c31.35,0,56.76-27.19,56.76-60.72C3439.79,2047.84,3414.38,2020.65,3383.02,2020.65z"/><path fill="#313844" d="M3004.46,2025.3H1251.25c-2.4,0-4.34-2.08-4.34-4.65s1.95-4.65,4.34-4.65h1753.21c2.4,0,4.34,2.08,4.34,4.65
				S3006.86,2025.3,3004.46,2025.3z"/><path fill="#313844" d="M3383.03,2146.75H296.32c-2.4,0-4.35-2.08-4.35-4.65c0-2.57,1.95-4.65,4.35-4.65h3086.7
				c2.4,0,4.34,2.08,4.34,4.65C3387.37,2144.67,3385.43,2146.75,3383.03,2146.75z"/></g><g><path fill="#042c30" d="M2854.69,2314.68c0,0-475.35-124.41-533.27,40.71c-51.19,145.91,112.5,292.79,366.76,320.72L2854.69,2314.68
				z"/><path fill="#f6b08e" d="M3436.27,1717.46c14.08,1.16,116.97,241.45,42.41,284.6c-74.56,43.15-100.37-14.65-100.37-14.65
						S3264.89,1703.33,3436.27,1717.46z"/><polygon fill="#ffba97" points="2031.82 1988.51 2028.13 2013.27 2007.38 1999.28 2006.36 1993.19 2025.23 1984.58 2029.42 1985.58"/><path fill="#5e4358" d="M1962.33,1830.82l-6.53,2.88v0l-9.77,4.3l0,0l-8.14,3.59l69.49,157.69c-0.17-2.39,0.75-4.49,2.53-5.27
									c1.78-0.79,3.95-0.05,5.6,1.69l-0.1-0.22l0.1,0.22c-0.17-2.39,0.75-4.49,2.53-5.27c1.78-0.79,3.95-0.05,5.6,1.69l-0.92-2.15
									l0.94,2.14c-0.17-2.39,0.75-4.49,2.53-5.27c1.78-0.79,3.95-0.05,5.6,1.69L1962.33,1830.82z"/><path fill="#5e4358" d="M2028.13,2013.27c0.03-0.18,1.62-10.86,1.62-10.86l-10.79,4.76L2028.13,2013.27z"/><rect width="26.71" height="5.59" x="1935.63" y="1830.86" fill="#edd058" transform="scale(-1) rotate(-23.784 -8707.164 9254.713)"/><path fill="#f7f0e8" d="M1941.91,1817.61L1941.91,1817.61c-6.75,2.97-9.81,10.86-6.83,17.6l0.56,1.27l24.44-10.77l-0.56-1.27
								C1956.54,1817.69,1948.66,1814.63,1941.91,1817.61z"/><path fill="#f6b08e" d="M2723.46,1661.6c-72.67,75.84-197.63,212.69-197.63,212.69s-462.09,71.65-471.37,66.43
								c-23.94-13.45-56.89-68.27-67.31-50.14c-10.45,18.16,23.17,46.56,23.17,46.56s-0.54-0.1-1.55-0.25
								c-6.12-0.9-29.3-3.73-50.42,0.91c-5.97,0.16-13.78,4.14-18.91,7.15c-6.19,3.63-9.96,6.92-9.54,14.55
								c0.7,12.76,10.79,13.82,10.79,13.82s-8.84,4.61-6.69,14.82c2.27,10.85,10.3,8.8,10.3,8.8s-7.52,7.7-5.42,16.18
								c0.5,2.01,3.54,3.52,4.41,3.52h215c13.05-0.49,24.17-1.16,30.75-2.09l401.75-0.28c81.95,11.5,236.24-260.17,236.24-260.17
								L2723.46,1661.6z"/><path fill="#313844" d="M2501.08,1922.9c-20.11,0-37.89-6.29-39.01-6.7c-2.42-0.87-3.66-3.53-2.79-5.95
								c0.87-2.41,3.53-3.67,5.95-2.8c0.38,0.14,38.37,13.54,63.07,0.24c9.81-5.28,16.33-14.3,19.36-26.79
								c0.61-2.49,3.13-4.02,5.61-3.42c2.49,0.6,4.03,3.12,3.42,5.61c-3.68,15.17-11.76,26.21-24.01,32.79
								C2522.88,1921.15,2511.66,1922.9,2501.08,1922.9z"/><path fill="#313844" d="M2054.46,1943.05c-1.14,0-2.14-0.84-2.3-2.01c-0.17-1.27,0.71-2.44,1.99-2.62l420.64-57.8
								c1.26-0.2,2.44,0.71,2.62,1.99c0.17,1.27-0.71,2.44-1.99,2.62l-420.64,57.8C2054.68,1943.05,2054.57,1943.05,2054.46,1943.05
								z"/><path fill="#313844" d="M2024.56,1953.5c-0.04,0-0.07,0-0.11,0c-1.28-0.06-2.27-1.15-2.22-2.43c0.15-3.2-0.65-5.69-2.42-7.61
								c-3.45-3.73-9.5-3.98-9.56-3.98c-1.28-0.04-2.29-1.11-2.25-2.39c0.04-1.28,1.21-2.18,2.38-2.25
								c0.32,0.01,8.01,0.28,12.81,5.44c2.65,2.85,3.88,6.55,3.68,11.01C2026.82,1952.53,2025.8,1953.5,2024.56,1953.5z"/><path fill="#313844" d="M2004.96,1903.16c-0.12,0-0.25-0.01-0.37-0.03c-10.87-1.75-12.92-9.5-12.49-13.35
								c0.14-1.28,1.27-2.18,2.57-2.05c1.27,0.14,2.18,1.28,2.05,2.55c-0.07,0.7-0.36,6.82,8.6,8.26c1.27,0.2,2.13,1.4,1.93,2.66
								C2007.07,1902.35,2006.08,1903.16,2004.96,1903.16z"/><path fill="#313844" d="M1963.8,2017.46c-0.73,0-1.45-0.34-1.9-0.98c-10.57-14.91-9.97-33.9-9.43-50.66
									c0.17-5.18,0.32-10.08,0.14-14.54c-0.05-1.28,0.94-2.36,2.22-2.42c1.3-0.1,2.37,0.94,2.42,2.22
									c0.2,4.64,0.03,9.62-0.13,14.89c-0.51,16.02-1.09,34.19,8.58,47.82c0.74,1.05,0.5,2.5-0.55,3.24
									C1964.74,2017.32,1964.27,2017.46,1963.8,2017.46z"/><path fill="#313844" d="M1944.13,1974.76c-1.16,0-2.16-0.86-2.3-2.04c-0.16-1.27,0.75-2.44,2.02-2.59l11.66-1.44
									c1.27-0.17,2.44,0.75,2.59,2.02c0.16,1.27-0.75,2.44-2.02,2.59l-11.66,1.44
									C1944.32,1974.75,1944.23,1974.76,1944.13,1974.76z"/><path fill="#313844" d="M1946.09,1998.55c-1,0-1.92-0.65-2.23-1.66c-0.37-1.23,0.33-2.53,1.56-2.89l12.49-3.74
									c1.23-0.36,2.52,0.33,2.89,1.56c0.37,1.23-0.33,2.53-1.56,2.89l-12.49,3.74
									C1946.54,1998.52,1946.31,1998.55,1946.09,1998.55z"/><path fill="#313844" d="M3485.79,2440.27c0,0,139.94,169.37-83.79,235.84h-713.82c0,0-167.22-25.77-50.43-210.93L3485.79,2440.27z
						"/><g><path fill="#f6b08e" d="M2882.05,1471.63l3.8-138.62c-13.74,6.5-49.99,12.78-80.22,8.44c-45.55-6.55-33.81-111.97-35.86-124.77
								c-38.13,0.71,6.82-73.88,6.82-73.88s6.22-151.16,93.23-127.43c56.19,15.32,87.39,121.45,87.39,121.45
								s32.15,53.66,148.99,296.53C3110.25,1441.79,2882.05,1471.63,2882.05,1471.63z"/><path fill="#313844" d="M2876.64,1342.2c-11.43,4.5-23.24,3.76-33.41,3.12l-1.71-0.11c-2.39-0.14-4.22-2.21-4.07-4.6
								c0.14-2.39,2.19-4.2,4.6-4.07l1.72,0.11c14.9,0.94,30.33,1.9,43.35-11.98c1.66-1.77,4.4-1.84,6.14-0.19s1.83,4.39,0.19,6.14
								C2888.13,1336.29,2882.43,1339.92,2876.64,1342.2z"/><path fill="#eda585" d="M2814.98,1196.93c-5.12,12.16-3.88,24.28,2.76,27.08c6.64,2.8,16.18-4.79,21.3-16.95
								c5.12-12.16,3.88-24.28-2.76-27.08C2829.64,1177.18,2820.1,1184.77,2814.98,1196.93z"/><circle cx="2794.22" cy="1119.4" r="11.41" fill="#313844"/><path fill="#313844" d="M2802.91,1088.06c2.42,10.1-37.58,14.3-40.18,10.59C2760.14,1094.95,2800.09,1076.31,2802.91,1088.06z"/><path fill="#313844" d="M2776.83,1223.96c-1.16,0-2.44-0.16-3.83-0.53c-2.48-0.67-3.95-3.22-3.28-5.7
								c0.67-2.48,3.23-3.95,5.7-3.28c1.85,0.5,2.54,0,2.83-0.22c1.9-1.37,2.92-5.8,3.04-7.86c0.15-2.56,2.36-4.49,4.91-4.37
								c2.56,0.15,4.52,2.35,4.37,4.91c-0.06,1.06-0.78,10.47-6.88,14.87C2782.18,1222.86,2779.9,1223.96,2776.83,1223.96z"/><path fill="#313844" d="M2835.31,1257.14c-2.28-7.17-11-10.78-11.99-11.17c-2.39-0.94-5.09,0.24-6.03,2.63
								c-0.91,2.39,0.23,5.09,2.63,6.03c0.84,0.33,2.05,0.96,3.2,1.75c-0.08,0.08-0.18,0.14-0.26,0.22
								c-13.02,13.88-28.45,12.91-43.35,11.98l-1.72-0.11c-2.41-0.13-4.45,1.68-4.6,4.07c-0.15,2.39,1.68,4.45,4.07,4.6l1.71,0.11
								c10.17,0.64,21.99,1.38,33.41-3.12c4.36-1.71,8.66-4.19,12.79-7.72c0.28,1.09,0.93,2.09,1.94,2.76
								c2.15,1.41,5.03,0.8,6.44-1.35c0.79-1.2,1.33-2.37,1.7-3.47C2836.21,1261.42,2835.88,1258.92,2835.31,1257.14z"/><path fill="#313844" d="M2901.22,1170.04c-1.65,0-3.34-0.26-5.04-0.79c-2.45-0.76-3.82-3.37-3.06-5.82
							c0.76-2.45,3.37-3.82,5.82-3.06c5.29,1.65,9.17-3.04,11.5-7.25c7.59-13.74,7.73-39.32-2.94-48.47
							c-4.68-4.01-8.82-5.64-12.35-4.82c-4.7,1.09-7.99,6.55-8.86,8.57c-1.01,2.35-3.73,3.45-6.1,2.44
							c-2.35-1.01-3.45-3.71-2.46-6.07c0.2-0.47,4.98-11.55,15.25-13.97c6.56-1.55,13.49,0.74,20.57,6.8
							c14.6,12.51,14.69,42.54,5.03,60.02C2914.1,1165.71,2907.96,1170.04,2901.22,1170.04z"/><path fill="#313844" d="M2903.86,1130.01c-0.19,0-0.38-0.02-0.57-0.07c-1.25-0.31-2-1.58-1.69-2.82
							c2.79-11.11,0.72-13.14,0.27-13.44c-1.44-0.96-5.42,0.91-7.74,2.63c-1.03,0.76-2.48,0.56-3.25-0.47
							c-0.77-1.03-0.56-2.48,0.47-3.25c0.83-0.62,8.26-5.99,13.09-2.78c3.68,2.45,4.21,8.3,1.66,18.44
							C2905.84,1129.3,2904.89,1130.01,2903.86,1130.01z"/></g><path fill="#e15f5f" d="M2556.5,1769.67c15.23-96.48,327.28-342.24,327.28-342.24s-40.16,38.57-41.64,47.29
						c24-39.36,55.45-65,87.21-72.28c119.38-27.38,209.96-2.61,280.8,58.12c0.04,0.02,328.95,194.82,252.79,349.08
						c-17.58,35.61-33.48,57.3-47.53,69.63c45.24,175.61,77.28,376.03,118.62,561c26.43,118.26-43.93,131.1-253.34,126.32
						c-16.12-0.37-30.61-96.57-47.03-97.31c-8.25-0.37,7.38,88.91-52.5,99.55c-252.93,33.84-607.78-56.08-607.78-56.08
						c56.96-197.69,97.43-399.4,135.01-575.85C2647.53,1924.2,2544.66,1844.64,2556.5,1769.67z"/><path fill="#313844" d="M3412.54,2524.52c-2.06,0-3.95-1.39-4.49-3.48c-0.65-2.49,0.84-5.02,3.33-5.67
						c29.49-7.69,50.7-26.15,61.36-53.37c15.72-40.17,7.29-95.14-21.46-140.04c-1.38-2.16-0.76-5.04,1.41-6.42
						c2.17-1.39,5.04-0.75,6.42,1.41c30.31,47.32,39.06,105.59,22.29,148.44c-11.78,30.11-35.18,50.5-67.67,58.98
						C3413.33,2524.47,3412.93,2524.52,3412.54,2524.52z"/><path fill="#313844" d="M2781.14,2045.3c-2.13,0-4.06-1.48-4.53-3.65c-0.55-2.51,1.03-4.99,3.54-5.54
						c148.79-32.85,114.69-233.38,114.33-235.4c-0.45-2.53,1.23-4.94,3.76-5.39c2.52-0.46,4.94,1.23,5.39,3.75
						c0.38,2.11,36.04,211.34-121.48,246.12C2781.81,2045.26,2781.47,2045.3,2781.14,2045.3z"/><g><path fill="#f7f0e8" d="M3106.48,1381.4l8.52,4.09c0.71,0.04-9.71,13.85-14.5,16.05c-63.2-21.6-162.65,5.2-205.66,29.76
							c-15.29-5.18-15.56-7.57-31.16-18.1C2863.68,1413.19,2954.01,1307.57,3106.48,1381.4z"/><path fill="#313844" d="M2891.15,1438.97l-31.09-28.13l2.65-3.41c28.72-36.95,54.75-38.36,55.84-38.4
							c2.67-0.17,4.73,1.9,4.82,4.46c0.1,2.56-1.88,4.71-4.43,4.82c-0.42,0.03-21.64,1.66-46.2,31.45l19.85,17.96
							c105.11-53.75,207.93-30.97,208.96-30.74c2.5,0.58,4.06,3.07,3.49,5.57c-0.58,2.49-3.05,4.06-5.57,3.49
							c-1.02-0.24-102.5-22.61-205.45,31.41L2891.15,1438.97z"/><path fill="#313844" d="M3115,1390.14c-0.89,0-1.79-0.25-2.58-0.79c-0.74-0.5-75.3-49.35-158.68-23.5
							c-2.45,0.76-5.06-0.61-5.81-3.06c-0.76-2.45,0.61-5.05,3.06-5.81c87.73-27.2,163.42,22.53,166.6,24.66
							c2.13,1.43,2.7,4.31,1.28,6.45C3117.97,1389.41,3116.5,1390.14,3115,1390.14z"/></g><path fill="#313844" d="M2843.41,1647.4c-0.46,0-0.93-0.07-1.39-0.21c-2.45-0.77-3.82-3.37-3.05-5.82
					c24.71-79.06,0.18-179.05-0.07-180.05c-0.62-2.49,0.89-5.02,3.38-5.64c2.48-0.6,5.02,0.89,5.64,3.38
					c1.05,4.19,25.41,103.55-0.07,185.08C2847.23,1646.13,2845.39,1647.4,2843.41,1647.4z"/><path fill="#313844" d="M2688.29,2036.53c-0.32,0-0.65-0.03-0.98-0.1c-2.51-0.54-4.11-3.01-3.57-5.52
					c5.1-23.66,8.68-40.72,12.51-58.93c2.32-11.03,4.72-22.47,7.6-36.04l0.61-2.89l2.88-0.67
					c102.9-24.06,114.99-103.98,115.1-104.78c0.35-2.54,2.68-4.32,5.24-3.97c2.54,0.35,4.32,2.69,3.97,5.24
					c-0.12,0.86-12.9,85.55-119.31,111.88c-2.61,12.33-4.84,22.92-6.99,33.16c-3.83,18.22-7.41,35.3-12.51,58.97
					C2692.36,2035.04,2690.43,2036.53,2688.29,2036.53z"/><path fill="#313844" d="M3351.22,1687.36c-1.82,0-3.56-1.08-4.3-2.88c-42.39-102.86-139.37-219.78-140.34-220.95
					c-1.65-1.97-1.38-4.9,0.59-6.55c1.98-1.65,4.91-1.37,6.55,0.59c0.99,1.18,98.86,119.17,141.8,223.36
					c0.98,2.37-0.15,5.09-2.53,6.07C3352.41,1687.25,3351.81,1687.36,3351.22,1687.36z"/><path fill="#313844" d="M3450.82,2036.53c-2.16,0-4.09-1.51-4.55-3.71c-14.45-69.81-48.4-188.72-48.74-189.91
					c-0.7-2.47,0.73-5.04,3.19-5.75c2.45-0.7,5.04,0.72,5.75,3.19c0.34,1.2,34.38,120.44,48.91,190.59c0.52,2.51-1.1,4.97-3.61,5.49
					C3451.45,2036.5,3451.13,2036.53,3450.82,2036.53z"/></g><path fill="#313844" d="M3177.83,1093.04c5.08-8.76,9.97-18.92,9.23-29.33c-0.56-7.87-4.54-14.78-8.85-21.19
			c-3.57-5.3-7.28-10.49-10.8-15.81c-4.94-2.31-10.24-3.97-15.81-4.82c1.41-5.03,2.19-10.32,2.19-15.8
			c0-30.81-23.92-56.01-54.2-58.09c-4.11-28.14-28.34-49.75-57.62-49.75c-7.69,0-15.03,1.51-21.75,4.21
			c-9.99-8.04-22.67-12.86-36.49-12.86c-8.6,0-16.75,1.88-24.09,5.22c-7.65-11.86-20.97-19.71-36.13-19.71
			c-9.72,0-18.69,3.23-25.89,8.68c-8.28-4.53-17.78-7.1-27.89-7.1c-26.72,0-49.22,18-56.08,42.53c-3.13-0.73-6.39-1.12-9.74-1.12
			c-23.74,0-42.98,19.24-42.98,42.98c0,11.35,4.4,21.66,11.59,29.34c-0.04,0.11-0.06,0.18-0.06,0.18s-48.73-17.45-47.78,28.24
			c0.72,34.72,30.28,57.01,90.59,62.9c17.03,25.95,32.36,79.34,44.8,92.22c12.48,12.92,16.3-12.78,17.66-58.75
			c1.02-34.43,32.82-28.81,48.72-23.81c31.36,25.1-16.36,91.87-16.36,91.87s-47.96,95.22,33.64,133.57
			c11.17,5.25,21.85,9.67,32.07,13.39c11.25-1.57,22.98-0.39,34.12,0.94c6.58,0.79,13.13,1.77,19.69,2.65
			c5.07,0.68,10.18,1.39,15.31,1.43c15.02,0.12,31.98,0.05,43.51-11.03c6.56-6.3,10.41-14.47,14.62-22.38
			c2.61-4.9,4.02-10.35,6.28-15.4c1.09-2.43,2.35-4.83,3.98-6.93c1.29-1.66,3.15-2.95,4.9-4.08c7.99-5.19,18.14-7.44,24.55-14.88
			c7.34-8.52,7.4-21.42,8.56-32c0.6-5.51,1.39-11.06,3.19-16.33c1.85-5.42,4.33-10.64,6.36-16c2.83-7.5,5.29-15.16,5.62-23.23
			c0.38-9.35-1.42-18.76-2.94-27.94c-1.52-9.2-2.57-19.05,0.35-28.09C3166.79,1107.96,3173.19,1101.06,3177.83,1093.04z"/><g><path fill="#5e4358" d="M2836.9,1078c-0.06,0-0.12,0-0.18-0.01c-2.68-0.2-65.84-5.17-81.36-26.79
				c-16.05-22.35,4.37-42.64,4.57-42.84c0.91-0.9,2.39-0.88,3.28,0.05c0.9,0.92,0.88,2.39-0.04,3.28
				c-0.73,0.71-17.74,17.73-4.04,36.8c14.26,19.87,77.3,24.82,77.93,24.87c1.28,0.1,2.24,1.21,2.14,2.49
				C2839.13,1077.07,2838.11,1078,2836.9,1078z"/><path fill="#5e4358" d="M2920.55,1204.31c-0.04,0-0.08,0-0.12,0c-1.28-0.07-2.27-1.16-2.2-2.44c0.93-17.39,11.81-26.38,24.42-36.78
				c10.63-8.77,22.68-18.72,31.24-35.95c4.69-9.44,5.47-18.44,2.32-26.74c-6.68-17.62-28.87-26.78-29.09-26.87
				c-1.19-0.48-1.76-1.84-1.28-3.03c0.48-1.19,1.85-1.76,3.02-1.28c0.99,0.4,24.27,9.98,31.69,29.51c3.64,9.57,2.8,19.83-2.49,30.48
				c-9,18.12-21.46,28.4-32.44,37.46c-12.24,10.11-21.92,18.09-22.73,33.44C2922.81,1203.35,2921.78,1204.31,2920.55,1204.31z"/><path fill="#5e4358" d="M3007.71,1284.43c-0.95,0-1.84-0.58-2.18-1.53c-10.31-28.15-1.07-48.22,11.73-76
				c7.21-15.66,15.39-33.4,22.12-56.69c18.2-62.9-27.39-105.38-27.85-105.8c-0.95-0.86-1.02-2.33-0.15-3.28s2.33-1.02,3.28-0.16
				c0.49,0.44,48.21,44.79,29.19,110.53c-6.83,23.62-15.08,41.54-22.37,57.34c-12.79,27.76-21.24,46.11-11.58,72.45
				c0.44,1.21-0.18,2.54-1.38,2.98C3008.25,1284.39,3007.98,1284.43,3007.71,1284.43z"/><path fill="#5e4358" d="M3062.61,1286.65c-0.85,0-1.68-0.48-2.08-1.3c-10.73-21.76-2.17-30.27,10.79-43.16
				c10.23-10.17,24.24-24.1,34.32-51.25c21.89-58.9-44.19-145.97-44.87-146.84c-0.78-1.02-0.59-2.48,0.43-3.26
				c1.01-0.78,2.47-0.59,3.26,0.43c2.8,3.65,68.33,89.98,45.54,151.29c-10.45,28.1-24.87,42.45-35.4,52.92
				c-12.75,12.67-19.14,19.04-9.9,37.8c0.57,1.15,0.1,2.55-1.06,3.11C3063.31,1286.58,3062.95,1286.65,3062.61,1286.65z"/><path fill="#5e4358" d="M2892.75,1016.5c-0.3,0-0.6-0.06-0.89-0.18c-24.86-10.27-35.1-34.3-30.43-71.43
				c0.13-1.07,0.24-1.91,0.28-2.47c0.1-1.28,1.16-2.22,2.5-2.14c1.28,0.1,2.24,1.22,2.14,2.5c-0.05,0.61-0.16,1.52-0.31,2.69
				c-4.38,34.8,4.91,57.19,27.59,66.56c1.19,0.49,1.75,1.85,1.26,3.03C2894.52,1015.96,2893.66,1016.5,2892.75,1016.5z"/><path fill="#5e4358" d="M3120.66,1090.55c-1.24,0-2.27-0.98-2.32-2.23c-0.26-6.44-0.35-13.14-0.45-19.94
				c-0.49-35.4-1-72-24.38-88.02c-11.43-7.84-23.65-12.22-36.6-16.85c-19.13-6.85-38.92-13.93-56.34-33.01
				c-27.13-29.71-110.22,0.31-111.05,0.62c-1.21,0.44-2.54-0.18-2.98-1.38c-0.44-1.21,0.17-2.54,1.38-2.98
				c3.54-1.3,86.88-31.38,116.09,0.62c16.65,18.23,35.88,25.11,54.48,31.77c12.65,4.53,25.73,9.21,37.66,17.39
				c25.36,17.39,25.88,55.21,26.39,91.79c0.1,6.76,0.19,13.42,0.45,19.82c0.05,1.28-0.95,2.36-2.23,2.42
				C3120.73,1090.55,3120.7,1090.55,3120.66,1090.55z"/></g><g><path fill="#042c30" d="M1341.51,2237.82c0,0,297.64-195.13,456.74-105.07c159.1,90.06-95.23,510.34-395.84,543.36L1341.51,2237.82
					z"/><path fill="#042c30" d="M828.62,2169.24c0,0-421.78-57.65-580.88,32.41c-159.11,90.06-146.6,364.95,151.51,474.46L828.62,2169.24z"/><path fill="#fff" d="M1290.52,1159.53c-46.4,203.36-117.35,394.34-213.17,576.14c1.08,4.45,228.62-92.07,423.09,72.28
								c85.81-194.07,148.23-399.49,186.9-620.26C1686.77,1186.48,1366.43,1062.79,1290.52,1159.53z"/><path fill="#313844" d="M1500.44,1812.46c-1.03,0-2.06-0.35-2.9-1.06c-76.49-64.64-209.35-129.94-407.89-73.9
								c-10.87,3.07-12.26,3.46-14.49,2.16c-1.09-0.63-1.88-1.7-2.18-2.91c-0.26-1.07-0.12-2.19,0.39-3.16
								c85.41-162.07,151.81-334.14,197.34-511.44c5.39-20.97,10.57-42.38,15.42-63.61c0.15-0.65,0.44-1.25,0.85-1.78
								c22.65-28.86,67.71-41.67,133.92-38.07c2.48,0.13,4.38,2.26,4.25,4.74c-0.13,2.48-2.27,4.4-4.74,4.25
								c-62.49-3.39-104.78,8-125.73,33.87c-4.8,20.98-9.93,42.12-15.25,62.84c-22.95,89.38-51.27,177.9-84.17,263.08
								c-31.59,81.81-68.39,163.1-109.44,241.76c0.46-0.13,0.92-0.26,1.39-0.39c23.32-6.58,85.26-24.06,161.78-21.56
								c96.15,3.15,181.73,35.87,254.36,97.24c1.9,1.6,2.14,4.44,0.53,6.34C1502.99,1811.92,1501.72,1812.46,1500.44,1812.46z"/><path fill="#313844" d="M1528.49,1205.12c-58.45-11.92-120.61-14.49-187.55-9.27c-1.83,0.14-3.06-0.75-2.74-2
										c0.31-1.25,2.04-2.37,3.88-2.53c66.9-5.26,129.04-2.74,187.5,9.09c1.56,0.31,2.58,1.64,2.28,2.93
										C1531.56,1204.64,1530.05,1205.44,1528.49,1205.12z"/><path fill="#313844" d="M1642.85,1242.54c-25.95-11.99-52.27-21.56-78.98-28.95c-1.53-0.43-2.53-1.83-2.22-3.14
										c0.3-1.31,1.79-2.04,3.32-1.62c26.73,7.34,53.06,16.86,79.03,28.8c1.5,0.69,2.45,2.35,2.13,3.71
										C1645.81,1242.69,1644.34,1243.23,1642.85,1242.54z"/><path fill="#313844" d="M1557.98,1250.91c-34.8-10.29-70.7-16.86-107.84-20.11c-1.64-0.14-2.69-1.34-2.35-2.68
										c0.34-1.34,1.93-2.31,3.57-2.17c37.14,3.22,73.05,9.74,107.85,19.97c1.53,0.44,2.49,1.95,2.15,3.32
										C1561.02,1250.62,1559.5,1251.37,1557.98,1250.91z"/><path fill="#313844" d="M1633.75,1280.14c-12.1-5.83-24.29-11.1-36.55-15.86c-1.5-0.57-2.43-2.18-2.09-3.58
										c0.34-1.39,1.84-2.07,3.34-1.49c12.27,4.74,24.47,9.98,36.58,15.78c1.49,0.71,2.4,2.45,2.05,3.87
										C1636.72,1280.29,1635.23,1280.87,1633.75,1280.14z"/><path fill="#313844" d="M1423.5,1229.03c-29.38-1.34-59.86-0.76-91.59,1.59c-1.84,0.13-3.05-0.82-2.69-2.13
										c0.36-1.33,2.13-2.5,3.96-2.63c31.71-2.36,62.17-2.97,91.54-1.65c1.68,0.07,2.76,1.22,2.42,2.55
										C1426.8,1228.09,1425.17,1229.11,1423.5,1229.03z"/><path fill="#313844" d="M1413.74,1266.09c-29.45-1.54-60.05-1.12-91.93,1.12c-1.85,0.13-3.02-0.88-2.63-2.27
										c0.39-1.39,2.21-2.61,4.06-2.75c31.87-2.25,62.45-2.69,91.88-1.18c1.68,0.09,2.73,1.29,2.35,2.7
										C1417.08,1265.12,1415.42,1266.19,1413.74,1266.09z"/><path fill="#313844" d="M1477.98,1272.88c-12.35-2-24.86-3.6-37.54-4.82c-1.64-0.16-2.66-1.42-2.28-2.83
										c0.38-1.42,2.01-2.43,3.65-2.28c12.68,1.2,25.19,2.79,37.54,4.78c1.59,0.26,2.57,1.63,2.2,3.04
										C1481.16,1272.19,1479.57,1273.13,1477.98,1272.88z"/><path fill="#313844" d="M1540.04,1286.84c-11.84-3.44-23.81-6.46-35.9-9.04c-1.56-0.33-2.52-1.75-2.14-3.19
										c0.38-1.43,1.95-2.33,3.51-1.99c12.1,2.57,24.07,5.56,35.91,8.98c1.53,0.44,2.46,1.98,2.08,3.43
										C1543.11,1286.47,1541.56,1287.27,1540.04,1286.84z"/><path fill="#313844" d="M1486.91,1361.16c-58.14-14.52-120.86-18.84-189.22-14.57c-1.87,0.13-2.98-1.04-2.48-2.59
										c0.5-1.55,2.42-2.89,4.28-3.01c68.3-4.31,130.99-0.03,189.15,14.39c1.56,0.37,2.42,2,1.94,3.59
										C1490.11,1360.57,1488.46,1361.55,1486.91,1361.16z"/><path fill="#313844" d="M1599.28,1404.92c-25.18-13.74-50.96-24.86-77.33-33.6c-1.51-0.51-2.35-2.21-1.86-3.82
										c0.48-1.61,2.1-2.51,3.61-2.02c26.38,8.69,52.18,19.75,77.39,33.44c1.45,0.79,2.22,2.77,1.72,4.43
										C1602.31,1405.01,1600.73,1405.71,1599.28,1404.92z"/><path fill="#313844" d="M1510.78,1417.3c-34.3-12.14-70.07-20.21-107.43-24.66c-1.65-0.19-2.54-1.7-2-3.37
										c0.54-1.67,2.31-2.85,3.96-2.67c37.35,4.41,73.13,12.44,107.44,24.51c1.5,0.53,2.28,2.34,1.73,4.06
										C1513.94,1416.88,1512.28,1417.84,1510.78,1417.3z"/><path fill="#313844" d="M1584.76,1451.15c-11.7-6.67-23.54-12.74-35.52-18.25c-1.46-0.68-2.2-2.6-1.64-4.35
										c0.55-1.72,2.19-2.59,3.66-1.92c11.98,5.48,23.84,11.53,35.56,18.16c1.44,0.81,2.14,2.9,1.57,4.66
										C1587.81,1451.21,1586.19,1451.97,1584.76,1451.15z"/><path fill="#313844" d="M1376.48,1390.08c-29.71-2.15-60.72-2.2-93.21-0.28c-1.89,0.12-2.95-1.13-2.39-2.77
										c0.57-1.65,2.54-3.07,4.43-3.17c32.45-1.92,63.45-1.9,93.15,0.22c1.69,0.12,2.62,1.58,2.08,3.22
										C1379.99,1388.96,1378.17,1390.2,1376.48,1390.08z"/><path fill="#313844" d="M1360.66,1436.4c-29.81-2.36-61.01-2.55-93.74-0.73c-1.9,0.11-2.92-1.23-2.27-2.97
										c0.64-1.74,2.69-3.23,4.59-3.35c32.7-1.82,63.87-1.65,93.67,0.68c1.7,0.14,2.57,1.67,1.95,3.43
										C1364.24,1435.21,1362.36,1436.54,1360.66,1436.4z"/><path fill="#313844" d="M1425.27,1445.34c-12.34-2.5-24.9-4.55-37.67-6.17c-1.65-0.21-2.49-1.81-1.87-3.58
										c0.62-1.77,2.45-3.03,4.1-2.83c12.76,1.61,25.32,3.64,37.66,6.12c1.59,0.33,2.38,2.02,1.77,3.81
										C1428.64,1444.5,1426.86,1445.67,1425.27,1445.34z"/><path fill="#313844" d="M1486.88,1462.15c-11.67-4.06-23.52-7.66-35.54-10.78c-1.55-0.41-2.31-2.18-1.69-3.97
										c0.61-1.77,2.37-2.93,3.92-2.52c12.02,3.11,23.87,6.68,35.55,10.72c1.51,0.51,2.23,2.43,1.6,4.22
										C1490.11,1461.64,1488.38,1462.67,1486.88,1462.15z"/><path fill="#313844" d="M1418.81,1556.7c-57.65-17.34-121.24-23.48-191.82-19.99c-1.93,0.1-2.82-1.44-1.98-3.43
										c0.84-1.99,3.08-3.69,5.01-3.78c70.48-3.51,134.04,2.57,191.71,19.81c1.54,0.45,2.13,2.49,1.32,4.53
										C1422.24,1555.89,1420.35,1557.17,1418.81,1556.7z"/><path fill="#313844" d="M1528.18,1607.5c-24.02-15.71-48.98-28.56-74.82-38.8c-1.49-0.58-2.02-2.73-1.21-4.78
										c0.81-2.05,2.67-3.26,4.15-2.67c25.87,10.18,50.86,22.97,74.93,38.61c1.38,0.91,1.83,3.34,0.99,5.45
										C1531.37,1607.42,1529.56,1608.41,1528.18,1607.5z"/><path fill="#313844" d="M1432.35,1627.64c-33.53-14.18-69.11-23.91-106.83-29.6c-1.67-0.24-2.26-2.2-1.33-4.36
										c0.92-2.14,3.04-3.73,4.69-3.46c37.7,5.64,73.29,15.31,106.85,29.42c1.47,0.6,1.9,2.93,0.97,5.12
										C1435.77,1626.99,1433.81,1628.26,1432.35,1627.64z"/><path fill="#313844" d="M1503.59,1666.71c-11.09-7.63-22.4-14.61-33.93-20.96c-1.41-0.78-1.78-3.2-0.83-5.44
										c0.95-2.23,2.86-3.41,4.27-2.64c11.55,6.32,22.88,13.26,34,20.86c1.36,0.93,1.69,3.52,0.72,5.78
										C1506.83,1666.59,1504.95,1667.65,1503.59,1666.71z"/><path fill="#313844" d="M1298.29,1594.67c-30.22-2.97-62.1-3.59-95.79-2.03c-1.95,0.09-2.76-1.55-1.78-3.7
										c0.96-2.13,3.32-3.94,5.28-4.03c33.64-1.57,65.48-0.98,95.68,1.97c1.72,0.17,2.36,2.04,1.43,4.2
										C1302.17,1593.23,1300.01,1594.84,1298.29,1594.67z"/><path fill="#313844" d="M1270.84,1655.27c-30.4-3.17-62.58-3.93-96.69-2.42c-1.99,0.09-2.67-1.72-1.55-4.02
										c1.12-2.31,3.61-4.23,5.6-4.33c34.05-1.52,66.19-0.78,96.56,2.37c1.73,0.17,2.25,2.21,1.17,4.52
										C1274.86,1653.7,1272.57,1655.45,1270.84,1655.27z"/><path fill="#313844" d="M1336.09,1666.45c-12.34-3.02-24.97-5.55-37.88-7.6c-1.68-0.26-2.14-2.36-1.06-4.69
										c1.07-2.31,3.3-4,4.97-3.73c12.91,2.04,25.53,4.55,37.87,7.55c1.58,0.4,2.01,2.59,0.93,4.94
										C1339.84,1665.27,1337.68,1666.83,1336.09,1666.45z"/><path fill="#313844" d="M1397.01,1686.4c-11.41-4.77-23.07-9.01-34.98-12.72c-1.53-0.48-1.9-2.77-0.83-5.13
										c1.07-2.34,3.19-3.87,4.73-3.38c11.91,3.7,23.58,7.91,35,12.65c1.47,0.61,1.79,3.02,0.71,5.4
										C1400.56,1685.58,1398.48,1687.02,1397.01,1686.4z"/><path fill="#f6b08e" d="M1609.51,1515.47c0,0-15.63-45.66-29.39-25.03c-15.31,22.93,15.26,66.36,15.26,66.36l-36.45,113.18
							c0,0,31.82,340.42,63.21,288.66c50.07-82.55,14.53-393.45,16.51-394.51c46.38-24.89,21.64-119.53,0.67-155.07L1609.51,1515.47
							z"/><path fill="#313844" d="M1591.12,1512.92c-1.14,0-2.14-0.84-2.3-2.01c-0.18-1.27,0.71-2.44,1.98-2.62
							c2.7-0.37,3.14-1.44,3.29-1.79c1.25-3.03-2.71-9.74-4.82-12.51c-0.78-1.02-0.58-2.48,0.44-3.26c1.03-0.78,2.48-0.58,3.26,0.44
							c0.83,1.09,8.02,10.8,5.42,17.1c-0.73,1.77-2.53,4.02-6.95,4.62C1591.33,1512.91,1591.22,1512.92,1591.12,1512.92z"/><path fill="#f6b08e" d="M517.91,1542.67c-16.65,1.37-235.63,320.73-147.47,371.75c88.16,51.02,216.01-52.58,216.01-52.58
							S720.55,1525.97,517.91,1542.67z"/><path fill="#f6b08e" d="M1286.97,1697.46c0,0,207.14,378.25,297.2,312.21c90.06-66.04,83.96-256.45-100.12-448.58
							L1286.97,1697.46z"/><path fill="#313844" d="M459.38,2397.27c0,0-150.28,218.8-60.13,278.84h1003.17c0,0,197.71-30.47,59.62-249.39L459.38,2397.27z"/><g><path fill="#f6b08e" d="M1319.81,859.6l0,0.01c-1.04-51.62-9.03-95.57-14.84-112.02c-21.01-59.54-117.33-35.02-117.33-35.02
									c-68.81,2.64-103.32,143.6-103.32,143.6s-67.54,252.83-120.08,305.24c-7.84,7.82,184.23,18.32,184.23,18.32l20.23-91.59
									c16.24,7.68,72.55,23.59,81.96,20.65c65.69-20.58,52.96-97.12,63.83-165.12c6.56-1.72,16.51-6.65,19.37-20.96
									C1338.25,900.81,1319.81,859.6,1319.81,859.6z"/><path fill="#eda585" d="M1286.2,949.11c6.05,14.37,4.59,28.71-3.26,32.01c-7.86,3.31-19.13-5.66-25.18-20.04
									c-6.05-14.37-4.59-28.71,3.27-32.01C1268.88,925.77,1280.15,934.74,1286.2,949.11z"/><path fill="#313844" d="M1310.23,850.57c0,4.9-3.97,8.87-8.87,8.87c-4.9,0-8.87-3.97-8.87-8.87c0-4.9,3.97-8.87,8.87-8.87
									C1306.26,841.71,1310.23,845.68,1310.23,850.57z"/><path fill="#313844" d="M1274.11,815.61c-2.86,11.94,44.44,16.9,47.5,12.52C1324.68,823.76,1277.44,801.72,1274.11,815.61z"/><path fill="#313844" d="M1311.52,948.73c-3.4,0-5.89-1.24-7.52-2.47c-6.86-5.17-7.25-16.51-7.28-17.79
									c-0.04-2.57,2-4.68,4.57-4.73c2.46-0.08,4.68,2,4.73,4.56c0.06,2.61,1.01,8.61,3.58,10.54c0.36,0.27,1.3,0.98,3.69,0.33
									c2.48-0.67,5.03,0.81,5.7,3.28c0.67,2.48-0.8,5.03-3.28,5.7C1314.18,948.56,1312.78,948.73,1311.52,948.73z"/><path fill="#f7f0e8" d="M1290.57,1018.74c-6.39,2.28-7.75,7.75-27.13,0c-19.38-7.75-26.49-13.86-29.72-3.7
								c-3.23,10.16,34.89,42.88,56.85,26.73C1312.54,1025.62,1294.87,1017.21,1290.57,1018.74z"/><path fill="#313844" d="M1150.55,894.58c-7.66,0-14.68-4.97-19.8-14.25c-11.27-20.39-11.2-55.37,5.76-69.91
								c8.15-6.99,16.08-9.63,23.57-7.86c11.73,2.77,17.22,15.49,17.44,16.03c1,2.36-0.11,5.09-2.48,6.09
								c-2.36,1-5.08-0.11-6.08-2.46c-0.08-0.18-3.97-8.97-11.06-10.62c-4.43-1.03-9.6,0.95-15.35,5.88
								c-13.13,11.25-12.99,41.49-3.67,58.35c2.91,5.26,7.8,11.09,14.59,8.98c2.45-0.76,5.05,0.61,5.82,3.06
								c0.76,2.45-0.61,5.06-3.06,5.82C1154.31,894.28,1152.41,894.58,1150.55,894.58z"/><path fill="#313844" d="M1147.41,834.36c-0.57,0-1.16-0.11-1.72-0.33c-2.39-0.95-3.55-3.66-2.59-6.04
								c2.27-5.67,5.79-7.32,8.33-7.69c6.41-0.97,11.74,5.26,12.75,6.51c1.6,2,1.28,4.93-0.73,6.53c-2,1.59-4.92,1.28-6.52-0.71l0,0
								c-1.25-1.54-3.32-3.1-4.14-3.13c0.02,0.04-0.48,0.48-1.06,1.94C1151,833.25,1149.26,834.36,1147.41,834.36z"/><path fill="#313844" d="M1297.87,784.15c14-32.29,209.85-73.53,117.04-182.1c-92.81-108.57-157.61,7.93-157.61,7.93
								s42.03-121.76-77.05-102.5c-119.08,19.26-161.11,92.81-129.59,148.85c0,0-178.62-38.58-143.6,127.81
								c35.02,166.39,68.3,281.97,134.84,271.46c66.54-10.51,133.97-33.93,105.51-111.53c-28.46-77.6-25.52-121.35-8.54-133.01
								c25.15-17.27,50.7,8.96,48.16,40.52c-2.54,31.56,98.28,16.3,65.01-78.1C1252.05,773.5,1278.9,827.91,1297.87,784.15z"/><g><path fill="#5e4358" d="M1279.68,772.44c-2.05,0-3.97-0.64-5.67-1.9c-7.73-5.74-8.79-22.86-8.89-24.79
									c-0.06-1.28,0.93-2.37,2.21-2.44c1.3,0,2.37,0.92,2.44,2.21c0.23,4.65,1.94,17.53,7.02,21.29c1.29,0.96,2.68,1.21,4.36,0.79
									c4.38-1.1,7.17-6.56,10.4-12.89c4.86-9.52,10.92-21.37,25.85-23.75c1.29-0.21,2.46,0.66,2.66,1.93
									c0.2,1.27-0.66,2.46-1.93,2.66c-12.6,2.01-17.83,12.24-22.44,21.28c-3.59,7.03-6.98,13.67-13.41,15.28
									C1281.39,772.33,1280.53,772.44,1279.68,772.44z"/><path fill="#5e4358" d="M1367.81,712.98c-0.67,0-1.33-0.29-1.79-0.84c-0.82-0.99-0.68-2.45,0.3-3.27
									c9.33-7.73,16.84-9.59,24.11-11.39c10.31-2.55,20.05-4.95,35.27-24.83c4.52-5.91,6.3-12.6,5.27-19.89
									c-1.63-11.6-11.35-31.18-48.37-58.6c-1.18-0.87-1.98-1.47-2.31-1.75c-0.97-0.84-1.08-2.3-0.25-3.28
									c0.84-0.97,2.31-1.08,3.28-0.25c0.29,0.25,1.01,0.77,2.05,1.55c30.76,22.78,47.65,43.53,50.21,61.68
									c1.21,8.57-0.87,16.43-6.18,23.36c-16.21,21.17-27.21,23.89-37.84,26.52c-7.07,1.75-13.75,3.4-22.25,10.45
									C1368.86,712.81,1368.34,712.98,1367.81,712.98z"/><path fill="#5e4358" d="M1179.46,712.98c-0.16,0-0.33-0.02-0.49-0.05c-1.26-0.27-2.05-1.51-1.78-2.76
									c9.46-43.65,30.59-42.17,59.84-40.13c15.96,1.12,34.06,2.38,54.88-3.06c49.95-13.04,43.1-43.5,40.85-53.51
									c-0.45-1.99-0.67-3-0.5-3.89c0.25-1.26,1.45-2.08,2.73-1.83c1.19,0.23,1.99,1.34,1.86,2.53c0.03,0.44,0.22,1.18,0.44,2.17
									c6.69,29.76-8.18,49.62-44.21,59.03c-21.56,5.63-40.87,4.28-56.37,3.2c-28.93-2.02-46.38-3.24-54.98,36.48
									C1181.5,712.24,1180.53,712.98,1179.46,712.98z"/><path fill="#5e4358" d="M1230.58,822.72c-0.94,0-1.82-0.57-2.17-1.5c-0.45-1.2,0.15-2.54,1.35-2.99
									c19.43-7.32,5.6-58.57-1.36-77.7c-0.44-1.21,0.18-2.54,1.39-2.98c1.2-0.44,2.54,0.18,2.98,1.39
									c1.09,2.98,26.3,73.22-1.36,83.64C1231.13,822.67,1230.86,822.72,1230.58,822.72z"/><path fill="#5e4358" d="M1138.56,662.67c-0.09,0-0.17,0-0.27-0.02c-1.28-0.14-2.19-1.3-2.04-2.57
									c4.31-37.93,25.32-38.03,45.65-38.13c11.12-0.06,22.62-0.11,31.11-6.75c3.74-2.93,5.8-6.6,6.28-11.21
									c1.76-16.82-17.9-40.25-25.3-49.08c-3.08-3.67-3.4-4.05-3.4-5.15c0-1.28,1.04-2.32,2.32-2.32c0.97,0,1.8,0.6,2.15,1.44
									c0.33,0.48,1.43,1.78,2.49,3.04c7.75,9.24,28.33,33.77,26.36,52.55c-0.61,5.85-3.32,10.69-8.04,14.39
									c-9.74,7.62-22.05,7.68-33.95,7.74c-19.96,0.1-37.2,0.19-41.05,34.01C1140.74,661.79,1139.73,662.67,1138.56,662.67z
									 M1195.24,549.75h0.05H1195.24z"/><path fill="#5e4358" d="M1000.79,964.3c-0.91,0-1.78-0.54-2.15-1.44c-0.48-1.17-48.11-118.19-55.06-211
									c-1.73-23.08,3.23-39.37,14.72-48.43c21.18-16.69,58.77-4.63,78.96,1.85c4.98,1.6,10.2,3.27,11.58,3.23
									c1-0.42,2.18-0.12,2.82,0.8c0.74,1.05,0.48,2.5-0.57,3.24c-1.92,1.34-4.97,0.45-15.25-2.85
									c-19.37-6.22-55.43-17.79-74.66-2.63c-10.2,8.04-14.57,22.99-12.96,44.43c6.89,92.06,54.25,208.41,54.72,209.58
									c0.49,1.19-0.08,2.55-1.27,3.03C1001.39,964.25,1001.09,964.3,1000.79,964.3z M1048.44,708.75L1048.44,708.75
									L1048.44,708.75z"/><path fill="#5e4358" d="M1064.29,968.61c-0.36,0-0.73-0.08-1.07-0.26c-1.14-0.59-1.58-1.99-0.99-3.13
									c13.63-26.25,0.8-48.95-15.44-77.69c-8.21-14.52-17.51-30.98-23.98-49.64c-19.26-55.57,11.6-73.12,12.93-73.84
									c1.13-0.61,2.53-0.19,3.14,0.93c0.62,1.12,0.2,2.54-0.91,3.15c-1.18,0.65-28.66,16.58-10.76,68.24
									c6.33,18.26,15.12,33.82,23.63,48.87c16.27,28.78,30.32,53.64,15.52,82.12C1065.94,968.15,1065.13,968.61,1064.29,968.61z"/><path fill="#5e4358" d="M1101.43,922.33c-0.25,0-0.5-0.04-0.75-0.12c-1.22-0.41-1.87-1.73-1.45-2.95
									c5.28-15.57,1.33-26.92-4.66-44.1c-5.29-15.19-11.88-34.1-15.36-63.81c-2.56-21.82,0.92-36.14,10.35-42.54
									c13.21-8.98,32.61,1.26,33.42,1.7c1.13,0.61,1.55,2.01,0.95,3.15c-0.6,1.13-2.02,1.55-3.15,0.95
									c-0.17-0.1-17.76-9.35-28.62-1.94c-7.87,5.36-10.67,18.2-8.33,38.15c3.42,29.2,9.92,47.84,15.13,62.82
									c6.08,17.44,10.47,30.04,4.67,47.12C1103.3,921.71,1102.4,922.33,1101.43,922.33z"/></g></g><path fill="#f7f0e8" d="M497.78,1561.09c0,0-72.93,52.33-65.42,76.34c7.5,24.01,33.02,118.57,124.58,115.57
							C648.5,1750,497.78,1561.09,497.78,1561.09z"/><path fill="#f7f0e8" d="M1523.02,1594.68c9.18,10.63,64.52,29.28,65.56,63.78c1.04,34.5-119.62,190.27-207.14,191.19
							l-16.39-71.76L1523.02,1594.68z"/><path fill="#f1ad4a" d="M1558.1,1604.4c-18.01-114.08-386.96-404.64-386.96-404.64s47.48,45.6,49.23,55.91
							c-28.37-46.54-65.57-76.85-103.11-85.46c-141.15-32.37-248.25-3.09-332,68.72c-0.05,0.03-388.93,230.35-298.88,412.73
							c20.79,42.11,39.58,67.75,56.19,82.32c-53.49,207.63-91.37,444.59-140.25,663.29c-31.25,139.82,178.67,174.4,426.27,168.75
							c19.06-0.44,36.19-114.18,55.6-115.06c9.75-0.44,21.69,112.13,31.49,111.59c301.24-16.72,622.44-79.59,622.44-79.59
							c-67.34-233.73-115.2-472.23-159.63-680.84C1450.47,1787.1,1572.1,1693.04,1558.1,1604.4z"/><g><path fill="#f7f0e8" d="M907.83,1145.33l-10.08,4.83c-0.83,0.04,11.48,16.38,17.14,18.97c74.72-25.53,192.31,6.15,243.16,35.18
								c18.07-6.12,18.39-8.95,36.84-21.4C1194.91,1182.92,1088.11,1058.04,907.83,1145.33z"/><path fill="#313844" d="M1162.3,1212.38l-2.87-1.51c-122.01-64.02-242.29-37.48-243.49-37.21c-2.49,0.58-5-0.98-5.57-3.49
								c-0.57-2.5,0.98-5,3.49-5.57c1.22-0.28,122.84-27.21,247.01,36.54l24.51-22.17c-29.68-36.35-55.49-38.11-55.75-38.12
								c-2.55-0.13-4.53-2.3-4.42-4.85c0.12-2.55,2.16-4.66,4.81-4.43c1.28,0.05,31.68,1.7,65.39,45.08l2.65,3.41L1162.3,1212.38z"/><path fill="#313844" d="M897.76,1154.82c-1.5,0-2.97-0.72-3.87-2.07c-1.43-2.13-0.86-5.02,1.28-6.45
								c0.92-0.62,92.94-61.08,196.25-29.04c2.45,0.76,3.82,3.36,3.06,5.81c-0.76,2.46-3.36,3.83-5.81,3.06
								c-99-30.68-187.45,27.3-188.33,27.89C899.55,1154.56,898.65,1154.82,897.76,1154.82z"/></g><path fill="#313844" d="M1622.14,1506.66c-0.7,0-1.39-0.31-1.84-0.91c-0.78-1.02-0.59-2.47,0.42-3.26
							c0.12-0.09,12.04-9.42,13.81-23.26c1.04-8.08-1.57-16.21-7.73-24.16c-0.79-1.01-0.6-2.48,0.41-3.26
							c1.02-0.79,2.47-0.6,3.26,0.41c6.96,8.97,9.87,18.27,8.66,27.64c-2.04,15.77-15.03,25.89-15.58,26.31
							C1623.13,1506.5,1622.64,1506.66,1622.14,1506.66z"/><path fill="#313844" d="M1662.42,1486.74c-1.16,0-2.16-0.86-2.3-2.04c-0.06-0.47-6.15-47.82-22.76-74.41
							c-0.68-1.09-0.35-2.52,0.74-3.2c1.09-0.68,2.52-0.35,3.2,0.74c17.16,27.47,23.18,74.32,23.43,76.3
							c0.16,1.27-0.74,2.44-2.02,2.59C1662.61,1486.74,1662.52,1486.74,1662.42,1486.74z"/><path fill="#313844" d="M1560.93,1998.8c-11.44,0-25-4.55-40.54-13.63c-2.22-1.29-2.96-4.14-1.67-6.36
							c1.29-2.22,4.14-2.97,6.36-1.67c21.36,12.48,37.76,15.55,48.76,9.12c16.88-9.88,16.55-39.64,16.55-39.94
							c-0.04-2.56,2-4.68,4.56-4.73c2.46,0,4.68,1.99,4.73,4.56c0.03,1.44,0.45,35.46-21.11,48.12
							C1573.41,1997.29,1567.52,1998.8,1560.93,1998.8z"/><path fill="#313844" d="M1547.77,1736.99c-1.06,0-2.13-0.36-3.01-1.11c-1.96-1.66-2.19-4.59-0.53-6.55
							c24.18-28.45,39.9-66.22,40.06-66.6c0.98-2.37,3.7-3.51,6.07-2.52c2.37,0.98,3.5,3.69,2.53,6.07
							c-0.66,1.6-16.42,39.49-41.57,69.08C1550.39,1736.44,1549.09,1736.99,1547.77,1736.99z"/><path fill="#313844" d="M1611.96,1800.18c-2.09,0-3.99-1.42-4.51-3.54c-17.3-70.19-41.75-88.73-41.99-88.91
							c-2.06-1.51-2.54-4.41-1.04-6.48c1.5-2.07,4.36-2.56,6.45-1.09c1.11,0.78,27.33,20.06,45.61,94.25
							c0.62,2.49-0.91,5.01-3.4,5.62C1612.71,1800.13,1612.33,1800.18,1611.96,1800.18z"/><path fill="#313844" d="M1613.45,1506.09c-0.34,0-0.69-0.04-1.03-0.12c-2.42-0.57-3.92-2.99-3.35-5.41
							c3.26-13.88,9.54-39.58,16.82-69.33c19.42-79.42,48.49-198.3,56.39-240.81c-13.26-5.27-68.73-25.78-135.94-42.25
							c-2.41-0.59-3.89-3.03-3.3-5.44c0.59-2.41,3.03-3.89,5.44-3.3c40.28,9.87,76.07,21.17,99,28.9
							c13.78,4.65,24.06,8.39,30.25,10.71c12.75,4.77,12.79,4.85,13.68,6.74c0.4,0.84,0.52,1.78,0.36,2.69
							c-6.9,39.38-37.14,163.05-57.15,244.9c-7.27,29.73-13.55,55.4-16.8,69.25C1617.34,1504.69,1615.49,1506.09,1613.45,1506.09z"/><path fill="#313844" d="M1218.88,1465.27c-1.98,0-3.81-1.28-4.43-3.26c-30.06-96.17-0.37-217.15-0.07-218.37
						c0.62-2.49,3.15-3.99,5.64-3.38c2.49,0.62,4,3.15,3.38,5.64c-0.3,1.19-29.34,119.7-0.07,213.33c0.76,2.45-0.6,5.06-3.05,5.82
						C1219.8,1465.2,1219.34,1465.27,1218.88,1465.27z"/><path fill="#313844" d="M1402.28,1919.07c-2.14,0-4.07-1.49-4.54-3.67c-8.65-40.12-18.28-78.28-28.66-113.47
						c-71.32-35.18-92.04-129.87-92.9-133.91c-0.53-2.51,1.08-4.98,3.59-5.51c2.52-0.53,4.98,1.07,5.51,3.58
						c0.2,0.96,21.04,95.91,89.66,128.34l1.88,0.89l0.59,1.99c10.67,35.96,20.57,75.03,29.42,116.13c0.54,2.51-1.06,4.98-3.57,5.52
						C1402.94,1919.04,1402.61,1919.07,1402.28,1919.07z"/><path fill="#313844" d="M618.48,1506.24c-0.59,0-1.19-0.11-1.77-0.35c-2.37-0.98-3.5-3.7-2.53-6.07
						c50.72-123.07,166.36-262.47,167.52-263.87c1.64-1.97,4.58-2.23,6.55-0.59c1.97,1.64,2.24,4.58,0.59,6.55
						c-1.15,1.38-115.89,139.72-166.06,261.45C622.04,1505.15,620.31,1506.24,618.48,1506.24z"/><path fill="#313844" d="M500.72,1919.07c-0.31,0-0.63-0.03-0.95-0.1c-2.51-0.52-4.13-2.98-3.61-5.49
						c17.16-82.91,57.4-223.86,57.81-225.27c0.71-2.46,3.28-3.89,5.75-3.19c2.47,0.71,3.9,3.28,3.19,5.75
						c-0.4,1.41-40.55,142.04-57.64,224.6C504.81,1917.56,502.88,1919.07,500.72,1919.07z"/><path fill="#313844" d="M477.31,1726.81c-1.23,0-2.46-0.49-3.38-1.45c-2.14-2.26-52.22-55.67-46.15-88.76
						c5.98-32.59,41.46-58.96,42.97-60.07c2.07-1.52,4.97-1.08,6.5,0.99c1.52,2.07,1.08,4.98-0.99,6.5
						c-0.34,0.25-34.02,25.32-39.33,54.25c-4.33,23.63,30.12,66.26,43.76,80.7c1.76,1.87,1.68,4.81-0.18,6.57
						C479.61,1726.39,478.46,1726.81,477.31,1726.81z"/><path fill="#313844" d="M1308.63,1830.82c-0.96,0-1.93-0.3-2.76-0.91c-111.59-82.66-115.3-190.22-115.32-191.29
				c-0.06-2.56,1.97-4.69,4.54-4.75c2.68-0.11,4.69,1.97,4.75,4.53c0.03,1.03,3.79,104.21,111.56,184.04
				c2.06,1.53,2.5,4.44,0.97,6.5C1311.46,1830.17,1310.05,1830.82,1308.63,1830.82z"/><path fill="#313844" d="M1342.72,2449.3c-18.77,0-39.64-1.47-62.58-4.42c-2.55-0.33-4.34-2.66-4.02-5.2
				c0.32-2.55,2.64-4.36,5.2-4.02c89.98,11.56,146.11,0.34,166.82-33.36c29.79-48.46-24.24-129.15-24.79-129.97
				c-1.44-2.12-0.89-5.01,1.23-6.45c2.12-1.44,5.01-0.89,6.45,1.23c2.38,3.5,57.95,86.46,25.03,140.04
				C1438.85,2435.2,1400.82,2449.3,1342.72,2449.3z"/><path fill="#313844" d="M477.31,2460.74c-0.7,0-1.42-0.16-2.09-0.5c-21.11-10.66-34.22-26-38.96-45.6
				c-10.69-44.16,24.89-93.84,26.41-95.93c1.51-2.08,4.42-2.54,6.49-1.03c2.08,1.5,2.54,4.41,1.03,6.49
				c-0.35,0.48-34.59,48.35-24.89,88.31c4.08,16.82,15.56,30.1,34.11,39.47c2.29,1.16,3.21,3.95,2.05,6.24
				C480.64,2459.8,479.01,2460.74,477.31,2460.74z"/></g></g><g><path fill="#313844" d="M3463.4,2689.94H174.92c-3.43,0-6.22-3.48-6.22-7.76s2.78-7.76,6.22-7.76H3463.4c3.43,0,6.22,3.48,6.22,7.76
			S3466.84,2689.94,3463.4,2689.94z"/><path fill="#313844" d="M3647.35,2689.94h-127.24c-3.43,0-6.22-3.48-6.22-7.76s2.79-7.76,6.22-7.76h127.24
			c3.43,0,6.22,3.48,6.22,7.76S3650.78,2689.94,3647.35,2689.94z"/></g><g><path fill="#313844" d="M670.62,1150.65c-2.57,0-4.65-2.08-4.65-4.65v-53.21c0-2.57,2.08-4.65,4.65-4.65c2.57,0,4.65,2.08,4.65,4.65
			V1146C675.27,1148.57,673.19,1150.65,670.62,1150.65z"/><path fill="#313844" d="M697.23,1124.05h-53.21c-2.57,0-4.65-2.08-4.65-4.65c0-2.57,2.08-4.65,4.65-4.65h53.21
			c2.57,0,4.65,2.08,4.65,4.65C701.88,1121.96,699.79,1124.05,697.23,1124.05z"/></g><g><path fill="#313844" d="M1807.22,681.44h-53.21c-2.57,0-4.65-2.08-4.65-4.65c0-2.57,2.08-4.65,4.65-4.65h53.21
				c2.57,0,4.65,2.08,4.65,4.65C1811.87,679.36,1809.78,681.44,1807.22,681.44z"/><path fill="#313844" d="M1845.28,648.54h-91.27c-2.57,0-4.65-2.08-4.65-4.65c0-2.57,2.08-4.65,4.65-4.65h91.27
				c2.57,0,4.65,2.08,4.65,4.65C1849.93,646.46,1847.85,648.54,1845.28,648.54z"/></g><g><path fill="#313844" d="M2519.57,1242.83c-1.19,0-2.38-0.45-3.29-1.36c-1.82-1.82-1.82-4.76,0-6.57l37.62-37.62
			c1.82-1.82,4.76-1.82,6.57,0c1.82,1.82,1.82,4.76,0,6.57l-37.62,37.62C2521.95,1242.38,2520.76,1242.83,2519.57,1242.83z"/><path fill="#313844" d="M2557.19,1242.83c-1.19,0-2.38-0.45-3.29-1.36l-37.62-37.62c-1.82-1.82-1.82-4.76,0-6.57
			c1.82-1.82,4.76-1.82,6.57,0l37.62,37.62c1.82,1.82,1.82,4.76,0,6.57C2559.57,1242.38,2558.38,1242.83,2557.19,1242.83z"/></g><path fill="#313844" d="M3355.81,1457.67c-5.74,0-11.37-1.59-16.37-4.68c-7.1-4.39-12.07-11.28-13.99-19.41
		c-1.92-8.12-0.56-16.51,3.83-23.61c4.39-7.1,11.28-12.07,19.41-13.99c8.13-1.91,16.51-0.56,23.61,3.83
		c7.1,4.39,12.07,11.28,13.99,19.41c1.92,8.12,0.56,16.51-3.83,23.61c-4.39,7.1-11.28,12.07-19.41,13.99
		C3360.64,1457.39,3358.21,1457.67,3355.81,1457.67z M3355.91,1404.45c-1.69,0-3.4,0.2-5.09,0.59c-5.71,1.35-10.55,4.84-13.63,9.83
		c-3.08,4.99-4.04,10.88-2.69,16.59c1.34,5.71,4.83,10.55,9.82,13.63c4.98,3.08,10.86,4.03,16.59,2.69
		c11.78-2.78,19.1-14.63,16.32-26.41v0c-1.34-5.71-4.83-10.55-9.82-13.63C3363.89,1405.56,3359.93,1404.45,3355.91,1404.45z"/></svg>