<svg xmlns="http://www.w3.org/2000/svg" viewBox="0 0 4680 3120"><g data-name="4"><rect width="4680" height="3120" fill="#fff" data-name="4" opacity="0"/><path fill="#cacafe" d="M3657.14,1842.18c-336.68-101.65,390-325.64,176.37-988-182.05-564.41-891-605.42-1225.13-323.93-158.63,133.64-505.15,143.83-961.36-17C1042,299.92,572.87,998.91,799,1439.21S822,1805.54,652.51,2087.69c-67.1,111.68-92.68,219-48.77,341.31,39.72,110.59,241.22,222,352.53,222.15L3727,2678.59c140.94.22,234.71-17.32,329.51-128.52C4245.65,2328.2,4053.48,1961.86,3657.14,1842.18Z"/><ellipse cx="2326.65" cy="2676.93" fill="#7e7eef" rx="1482.52" ry="83.07"/><path fill="#e6336b" d="M828.47,2466.76l10.4,24.66,10,3.58,15.87,91,5.65,32.35c2.28,10.89,7.75,19.86,14.64,23.93,57.78,34.1,113.68,9.93,136.23-2.93,6.51-3.71,11.08-12.42,12.23-23.24l19.18-125,8.61-2.52,7.39-29.07-64,1.93Z"/><path fill="#c8336b" d="M958.1,2598.33c-26,11.86-63.94.56-93.37-12.36l5.65,32.35c2.28,10.89,7.75,19.86,14.64,23.93,57.78,34.1,113.68,9.93,136.23-2.93,6.51-3.71,11.08-12.42,12.23-23.24l19.18-125,8.61-2.52,7.39-29.07-64,1.93C1002.52,2503,993.77,2582,958.1,2598.33Z"/><path fill="#82204d" d="M946.93,2438.29c-66.33,2-119.49,13-118.73,24.54s55.13,19.29,121.45,17.29,119.49-13,118.73-24.54S1013.25,2436.29,946.93,2438.29Z"/><path fill="#70d271" d="M701.17,1917c-85.39,13.51-47,109.48,27.38,177.63,69,63.25,141.92,293.91,152,352.27a14.25,14.25,0,0,0,12.27,11.69l38.59,4.84.11-10.16s37.35-317.6-11.65-399.85S786.55,1903.53,701.17,1917Z"/><path fill="#63a5a2" d="M884.39,2174.1a138.14,138.14,0,0,1-13-30.45c-2.64-8.81-3.55-18.22-4.52-28.18-2.47-25.43-5.28-54.26-39.84-78.85-22.66-16.12-38.44-32.08-51.11-44.91-13.55-13.72-24.26-24.55-37.49-30.11a147.51,147.51,0,0,1-39.07-24,4.8,4.8,0,0,0-5.67-.35,2.71,2.71,0,0,0-.46,4.44c.65.61,16.36,15,41.4,25.46,11.72,4.92,22,15.28,34.93,28.41s28.88,29.23,52.06,45.72c32.2,22.9,34.76,49.21,37.23,74.66,1,10.21,1.93,19.86,4.71,29.14A142.91,142.91,0,0,0,877,2176.59c5.08,9.31,10.34,18.94,16.37,40.31,11.12,39.34.4,98.68.29,99.27-.32,1.73,1.2,3.33,3.4,3.57a4,4,0,0,0,.59,0c2,0,3.68-1.14,4-2.71.45-2.48,11-61.07-.39-101.54C895,2193.58,889.62,2183.68,884.39,2174.1Z"/><path fill="#47b971" d="M744.46,2240.36c-64.91-21.72-142.18-19.07-182.15,28.07s25.6,81.23,97.67,83.5c66.89,2.1,214,93.1,246.66,120a10.18,10.18,0,0,0,12.11.61l23.17-15.37-4.68-5.55S809.38,2262.09,744.46,2240.36Z"/><path fill="#498981" d="M850.91,2370.49c-14.41-11.06-22.58-14.81-30.49-18.44a110.63,110.63,0,0,1-22.81-13.26c-5.88-4.37-11-9.94-16.31-15.85-13.7-15.07-29.22-32.15-63-31.39-22.15.5-39.84-2.18-54-4.34-15.2-2.31-27.2-4.13-38.29-1.37a117.59,117.59,0,0,1-36.39,3.29,3.84,3.84,0,0,0-3.79,2.47,2.16,2.16,0,0,0,1.82,3.06,122,122,0,0,0,38.58-3.46c9.83-2.44,21.31-.7,35.85,1.51s32.37,4.92,55,4.41c31.48-.71,45.64,14.88,59.35,30,5.5,6.06,10.69,11.77,16.89,16.38a114,114,0,0,0,23.58,13.71c7.69,3.53,15.63,7.18,29.67,18,25.84,19.83,47.26,62.85,47.48,63.28.61,1.26,2.35,1.55,3.87.66a2.65,2.65,0,0,0,.39-.26,3.06,3.06,0,0,0,1.25-3.62C898.65,2433.38,877.5,2390.9,850.91,2370.49Z"/><path fill="#47b971" d="M1136.26,2029.88c-67.41-13.85-136.94,36.9-178.89,100.52s-23.8,317.52-23.8,317.52l-.29,8.08,30.86-2.44a11.35,11.35,0,0,0,10.18-8.86c10.16-46,76.53-226.79,133.7-274.57C1169.62,2118.64,1203.66,2043.72,1136.26,2029.88Z"/><path fill="#498981" d="M1131.61,2066.3a4.28,4.28,0,0,0-5,.43,131.07,131.07,0,0,1-34.14,22.11c-11.62,5.21-20.88,15-32.61,27.5-11,11.65-24.62,26.15-44.37,40.93-30.14,22.55-32,48.18-33.66,70.79-.64,8.85-1.25,17.22-3.41,25.09a122.35,122.35,0,0,1-10.88,27.28c-4.43,8.61-9,17.51-14,37.11-9.28,36.14,1.37,87.88,1.82,90.07a3.42,3.42,0,0,0,3.58,2.31,3,3,0,0,0,.52,0c2-.26,3.27-1.71,3-3.24-.11-.52-10.89-52.93-1.87-88,4.9-19.09,9.35-27.74,13.66-36.11a126.65,126.65,0,0,0,11.25-28.21c2.27-8.3,2.89-16.87,3.56-25.95,1.65-22.62,3.36-46,31.42-67,20.21-15.12,34.07-29.84,45.2-41.66s20.09-21.33,30.38-25.95a136.4,136.4,0,0,0,36.18-23.46A2.4,2.4,0,0,0,1131.61,2066.3Z"/><path fill="#318971" d="M1062.74,2237.62c-49,40.87-101.62,215.31-101.62,215.31l15.54,0a19.46,19.46,0,0,0,18.81-14.64c4-15.53,11.06-39.18,19.34-49.06,12.84-15.31,33.73-23.4,45-35.49s33.73-21.78,47.37-36.55.74-31.11,19.23-36.78,46.62-13,46.62-13,56.23-30.68,45.7-65.42S1111.72,2196.76,1062.74,2237.62Z"/><rect width="275.79" height="275.79" x="2551.44" y="511.06" fill="#4ca6ff"/><rect width="237.6" height="237.6" x="2570.54" y="530.15" fill="#b9e1ff"/><rect width="404.75" height="603.56" x="2880.73" y="511.06" fill="#4ca6ff"/><rect width="366.46" height="567.58" x="2899.88" y="529.31" fill="#b9e1ff"/><rect width="275.55" height="275.56" x="2551.56" y="843.57" fill="#4ca6ff"/><rect width="237.39" height="237.41" x="2570.64" y="862.64" fill="#b9e1ff"/><path fill="#67bbff" d="M3083.11,590.57c-64.89,0-117.51,15.49-117.51,34.61s52.62,34.59,117.51,34.59,117.51-15.49,117.51-34.59S3148,590.57,3083.11,590.57Z"/><rect width="141.95" height="4.88" x="3102.97" y="728.72" fill="#fff"/><rect width="141.95" height="4.88" x="3102.97" y="743.9" fill="#fff"/><rect width="141.95" height="4.88" x="3102.97" y="759.08" fill="#fff"/><rect width="141.95" height="4.88" x="3102.97" y="774.27" fill="#fff"/><rect width="97.65" height="4.88" x="3102.97" y="789.45" fill="#fff"/><rect width="141.95" height="4.88" x="2927.78" y="728.72" fill="#fff"/><rect width="141.95" height="4.88" x="2927.78" y="743.9" fill="#fff"/><rect width="141.95" height="4.88" x="2927.78" y="759.08" fill="#fff"/><rect width="141.95" height="4.88" x="2927.78" y="774.27" fill="#fff"/><rect width="97.65" height="4.88" x="2927.78" y="789.45" fill="#fff"/><rect width="141.95" height="4.88" x="2927.78" y="843.57" fill="#fff"/><rect width="141.95" height="4.88" x="2927.78" y="858.75" fill="#fff"/><rect width="141.95" height="4.88" x="2927.78" y="873.93" fill="#fff"/><rect width="141.95" height="4.88" x="2927.78" y="889.11" fill="#fff"/><rect width="97.65" height="4.88" x="2927.78" y="904.3" fill="#fff"/><polygon fill="#67bbff" points="3137.75 1064.72 3176.65 1042.19 3215.55 1064.72 3215.55 943.94 3137.75 943.94 3137.75 1064.72"/><path fill="#4c8cff" d="M3176.65,889.87a54.08,54.08,0,1,0,54.07,54.07A54.08,54.08,0,0,0,3176.65,889.87Z"/><path fill="#67bbff" d="M3176.65,905.05a38.9,38.9,0,1,0,38.9,38.89A38.9,38.9,0,0,0,3176.65,905.05Z"/><path fill="#4c8cff" d="M2733.65,592c-20.44-9.07-26.47,2.85-29.78,0-7.73-6.72-1.14-10.79,4.82-21.68,3-5.46,9.58-10.24,7.85-12.68-2.24-3.12-8-7.21-8-7.21L2693.12,569s-22.56,25.23-23.76,61.27-16.31,43.82-35.9,62.06-18.78,41.13-17.69,51.4c.77,7.1,15.11,1.3,15.11,1.3s-8.93-22.93,6.48-34.3,41.76,26.89,79.81,3.65C2759.7,688.37,2780.77,612.9,2733.65,592Z"/><path fill="#4c52e3" d="M2707.7,670.14a14.42,14.42,0,1,0,14.42,14.42A14.41,14.41,0,0,0,2707.7,670.14Z"/><path fill="#4c52e3" d="M2674.86,684.55a7.66,7.66,0,1,0,7.66,7.66A7.66,7.66,0,0,0,2674.86,684.55Z"/><path fill="#4c52e3" d="M2690.8,649a7.66,7.66,0,1,0,8.1,7.19A7.65,7.65,0,0,0,2690.8,649Z"/><path fill="#4c52e3" d="M2713.34,637.53a5.64,5.64,0,1,0,5.63,5.63A5.64,5.64,0,0,0,2713.34,637.53Z"/><path fill="#4c52e3" d="M2702.07,619.54a5.63,5.63,0,1,0,5.63,5.63A5.64,5.64,0,0,0,2702.07,619.54Z"/><path fill="#1b5fa3" d="M2658.26,962.86c-15.27-9.07-4.54,9.08-4.54,9.08s10.73,13.61,10.73,23.1-14,6.2-16.09,4.13-2.47,12-2.47,12,11.55-2.46,18.56-4.12,10.33,57.74,12.38,64.76,11.14,0,11.14,0S2673.53,971.93,2658.26,962.86Z"/><path fill="#4c8cff" d="M2668.6,923.45c-4.68-13.8-38.47-24.34-58.24,3.14s-22.25,82-2.54,105,36.47,23.75,49.91,15.18c18.32-11.64-4.42-30.79-2.46-63.28S2677.05,948.32,2668.6,923.45Z"/><path fill="#1b5fa3" d="M2730.31,999.17c-2.07,2.07-16.09,5.36-16.09-4.13s10.73-23.1,10.73-23.1,10.73-18.15-4.54-9.08-29.7,108.92-29.7,108.92,9.07,7,11.13,0,5.37-66.42,12.38-64.76,18.56,4.12,18.56,4.12S2732.38,997.11,2730.31,999.17Z"/><path fill="#4c8cff" d="M2710.08,923.45c-8.45,24.87,11.36,27.5,13.31,60s-20.77,51.64-2.45,63.28c13.45,8.57,30.21,7.83,49.91-15.18s17.26-77.48-2.53-105S2714.75,909.65,2710.08,923.45Z"/><path fill="#6a6ae2" d="M2221.7,614.21H1480c-45.64,0-82,41.87-79.9,91.94l65.76,1800.24c1.94,45.81,35.64,82.27,77.37,83.71l655.34,8.67c44.69,1.54,81.86-37.44,82.5-86.55l20.6-1808.89C2302.32,654.32,2266.32,614.21,2221.7,614.21Z"/><path fill="#fff" d="M2179.34,667.83h-657c-18,0-35.26,7.65-48.61,21.55-16.28,17-25,41.18-24,66.48L1508,2457.75c1.75,43.58,32.64,78.8,70.33,80.19l580.49,7.22c.77,0,1.54,0,2.31,0,16.84,0,33.15-6.75,46.17-19.14,16.55-15.76,26.21-39,26.52-63.78l18.25-1709.12c.3-24.72-8.75-48.25-24.85-64.55C2214,675.21,2197,667.83,2179.34,667.83ZM2223.86,2457c-.29,23.4-9.38,45.32-25,60.14-12.67,12.07-28.66,18.38-45,17.78l-570.95-7.1c-35.18-1.29-64-34.4-65.66-75.37L1460,769.38c-1-23.89,7.29-46.75,22.62-62.71,12.44-12.95,28.48-20.08,45.17-20.08H2174c16.35,0,32.14,6.88,44.47,19.36,15.15,15.34,23.67,37.53,23.38,60.88Z"/><path fill="#c4d7d4" d="M1564.73,1622.9c-17.19,0-31.12,15.31-31.12,34.19s13.93,34.18,31.12,34.18,31.13-15.31,31.13-34.18S1581.92,1622.9,1564.73,1622.9Z"/><path fill="#cacafe" d="M2072.53,885.5c-1.25-11.62-10.28-20.33-20.94-20.19l-411.38,5.47c-11.41.15-20.59,10.35-20.59,22.87v96.93c0,12.92,9.75,23.29,21.52,22.86l420.78-15.07c12.2-.44,21.45-12.24,20-25.55Z"/><path fill="#fff" d="M1931.14,948.5l-167.85-4.1c-3.69,0-10.86,2.36-9.86,10.6.49,4,6.18,8.25,9.87,8.25h167.84c3.7,0,6.72-3.32,6.72-7.37S1934.84,948.5,1931.14,948.5Z"/><path fill="#fff" d="M1910.17,916.76l-126.7-3.29c-2.79,0-8.2,1.89-7.44,8.52.37,3.23,4.66,6.63,7.45,6.63h126.69c2.79,0,5.07-2.67,5.07-5.93S1913,916.76,1910.17,916.76Z"/><polygon fill="#355c83" points="2693.18 2214.67 2724.69 2667.32 2768.01 2664.53 2736.5 2211.88 2693.18 2214.67"/><path fill="#294b6c" d="M2713.35,2139.66A74.13,74.13,0,0,0,2661.8,2119l-239.69-.52c-30.6-.07-55.59,23.93-56.09,53.65l-3.28,49.24,43.31,2.89,3.32-49.85c0-.47.05-.93.05-1.4,0-6.15,5.67-11.14,12.6-11.12l239.68.52a31,31,0,0,1,21.54,8.54,26.7,26.7,0,0,1,8.42,19.41c0,.48,0,1,.05,1.44l1.47,22.89,43.32-2.79-1.43-22.23A69.77,69.77,0,0,0,2713.35,2139.66Z"/><polygon fill="#355c83" points="2330.8 2663.62 2374.11 2666.5 2406.05 2224.24 2362.74 2221.35 2330.8 2663.62"/><path fill="#355c83" d="M2196.69,2138.53a74.17,74.17,0,0,0-51.55-20.68l-239.69-.52c-30.6-.07-55.59,23.93-56.09,53.65l-35.22,491.51,43.31,2.88,35.27-492.11c0-.47,0-.93,0-1.4,0-6.15,5.67-11.14,12.6-11.12l239.68.52a31,31,0,0,1,21.54,8.54,26.7,26.7,0,0,1,8.42,19.41c0,.48,0,1,.05,1.44l33,475.54,43.32-2.79-32.94-474.88A69.77,69.77,0,0,0,2196.69,2138.53Z"/><path fill="#0079c9" d="M2736.33,1331.15l-81.79-.18a33.62,33.62,0,0,0-8.06,1L2380,1398.38a31.09,31.09,0,0,0-22.95,22.64l-86.5,475.73a29.67,29.67,0,0,0-.79,7.85l6.85,193c.62,17.49,16.46,30.88,34.63,29.28l411.25-36.11c18.19-1.6,31.22-17.54,28.49-34.86l-23.84-150.81a29.15,29.15,0,0,1-.26-6.92l41-534.2C2769.35,1346.29,2754.81,1331.19,2736.33,1331.15Z"/><path fill="#0054ad" d="M2679.2,1331l-334.68-.73c-21.56,0-40.08,14.63-44.1,34.93l-84.06,530.59a41,41,0,0,0-.76,9.45L2222,2084.7c.87,24.48,22.9,43.31,48.37,41.34l37.33-2.89,81.55-6.32,266.32-20.64c25.38-2,43.94-23.8,40.83-48l-5.26-40.92c-2.86-22.31-7.55-58.82-10.42-81.13l-2.57-20a41,41,0,0,1-.14-9.26L2723.69,1378C2726.14,1352.83,2705.54,1331.1,2679.2,1331Z"/><polygon fill="#0054ad" points="1967.13 2129.11 2380.82 2130.02 2706.25 2063.56 1967.28 2061.95 1967.13 2129.11"/><path fill="#0079c9" d="M2749.15,2043.86l-15.41,19.76-261.26-.57s-57.45-6-57.54,38.71c-.06,27.25,31.77,28.4,31.77,28.4l259.68.57c49.91.11,50-42.19,47.2-59.88C2751.47,2057.43,2749.15,2043.86,2749.15,2043.86Z"/><path fill="#0079c9" d="M1908.53,2161.65l-.07,32.7,456,.85,2.28-31.1c1.67-18,21.33-34.69,41.31-39.65l.13-59.29-434.14-3C1917.93,2062.06,1908.65,2107.84,1908.53,2161.65Z"/><path d="M2640.48,1499.56c1.09.94,1.78,1.56,2,1.78A8.39,8.39,0,0,0,2640.48,1499.56Z" style="mix-blend-mode:multiply" fill="#fff" stroke="#000" stroke-miterlimit="10" stroke-width="6.32" opacity=".4"/><path d="M2562.32,1488.37l-3-.11C2560.2,1488.33,2561.19,1488.37,2562.32,1488.37Z" style="mix-blend-mode:multiply" fill="#fff" stroke="#000" stroke-miterlimit="10" stroke-width="6.32" opacity=".4"/><polygon fill="#355c83" points="3618.19 2214.67 3649.7 2667.32 3693.02 2664.53 3661.51 2211.88 3618.19 2214.67"/><path fill="#294b6c" d="M3638.36,2139.66a74.11,74.11,0,0,0-51.55-20.68l-239.69-.52c-30.59-.07-55.59,23.93-56.09,53.65l-3.28,49.24,43.32,2.89,3.32-49.85c0-.47.05-.93.05-1.4,0-6.15,5.66-11.14,12.59-11.12l239.68.52a31,31,0,0,1,21.54,8.54,26.75,26.75,0,0,1,8.43,19.41c0,.48,0,1,0,1.44l1.47,22.89,43.32-2.79-1.43-22.23A69.73,69.73,0,0,0,3638.36,2139.66Z"/><polygon fill="#355c83" points="3255.81 2663.62 3299.13 2666.5 3331.07 2224.24 3287.75 2221.35 3255.81 2663.62"/><path fill="#355c83" d="M3121.7,2138.53a74.15,74.15,0,0,0-51.55-20.68l-239.68-.52c-30.6-.07-55.6,23.93-56.1,53.65l-35.22,491.51,43.32,2.88,35.26-492.11c0-.47.05-.93.05-1.4,0-6.15,5.66-11.14,12.59-11.12l239.69.52a31,31,0,0,1,21.53,8.54,26.75,26.75,0,0,1,8.43,19.41c0,.48,0,1,0,1.44l33,475.54,43.32-2.79-32.94-474.88A69.73,69.73,0,0,0,3121.7,2138.53Z"/><path fill="#0079c9" d="M3661.34,1331.15l-81.79-.18a33.62,33.62,0,0,0-8.06,1l-266.44,66.43a31.08,31.08,0,0,0-22.94,22.64l-86.51,475.73a29.25,29.25,0,0,0-.78,7.85l6.85,193c.62,17.49,16.45,30.88,34.63,29.28l411.24-36.11c18.19-1.6,31.23-17.54,28.49-34.86l-23.83-150.81a29.15,29.15,0,0,1-.27-6.92l41-534.2C3694.36,1346.29,3679.82,1331.19,3661.34,1331.15Z"/><path fill="#0054ad" d="M3604.21,1331l-334.68-.73c-21.55,0-40.08,14.63-44.09,34.93l-84.07,530.59a41.6,41.6,0,0,0-.76,9.45L3147,2084.7c.87,24.48,22.89,43.31,48.36,41.34l37.34-2.89,81.54-6.32,266.32-20.64c25.38-2,43.94-23.8,40.83-48l-5.25-40.92c-2.87-22.31-7.56-58.82-10.43-81.13l-2.57-20a41.56,41.56,0,0,1-.14-9.26L3648.7,1378C3651.16,1352.83,3630.55,1331.1,3604.21,1331Z"/><polygon fill="#0054ad" points="2892.14 2129.11 3305.83 2130.02 3631.26 2063.56 2892.29 2061.95 2892.14 2129.11"/><path fill="#0079c9" d="M3674.17,2043.86l-15.42,19.76-261.26-.57s-57.44-6-57.54,38.71c-.06,27.25,31.77,28.4,31.77,28.4l259.68.57c49.91.11,50-42.19,47.2-59.88C3676.48,2057.43,3674.17,2043.86,3674.17,2043.86Z"/><path fill="#0079c9" d="M2833.55,2161.65l-.08,32.7,456,.85,2.28-31.1c1.67-18,21.34-34.69,41.32-39.65l.13-59.29-434.15-3C2842.94,2062.06,2833.66,2107.84,2833.55,2161.65Z"/><path d="M3565.49,1499.56c1.1.94,1.78,1.56,2,1.78A8.45,8.45,0,0,0,3565.49,1499.56Z" style="mix-blend-mode:multiply" fill="#fff" stroke="#000" stroke-miterlimit="10" stroke-width="6.32" opacity=".4"/><path d="M3487.34,1488.37l-3-.11C3485.21,1488.33,3486.2,1488.37,3487.34,1488.37Z" style="mix-blend-mode:multiply" fill="#fff" stroke="#000" stroke-miterlimit="10" stroke-width="6.32" opacity=".4"/><path fill="#52261f" d="M3556.68,1021.92c3.85-13.87-.24-40.93-23-66.32-25.93-28.93-47.84-36.87-67.94-36.87-12.63,0-24.54,3.14-36.28,6.17a53.83,53.83,0,0,1-16.89,5.23c-15.61,2-83.59,29-91.25,93.46-9.76,82.08,6.3,75.7-26.06,95.57s-34.43,12.24-34.88,58.3-54.19,65.17-54.19,65.17l17.62,15.33,29.12-14L3230,1270s229.06,80.82,316.09,35.62l17.58-88.53a356.8,356.8,0,0,0,3.57-117.89Zm-68.38,288.95-18.88-2s37.29-87.75,40.22-125.77S3521.2,1256.75,3488.3,1310.87Z"/><ellipse cx="3446.06" cy="977.73" fill="#fd3873" rx="45.01" ry="66.82" transform="rotate(-66.42 3446.15 977.706)"/><path fill="#006662" d="M3566.5,1304.92c-2.58,2.65-63.38,68-68.7,337.51a2.35,2.35,0,0,0,2.29,2.38h0a2.34,2.34,0,0,0,2.34-2.29c5.27-267.09,66.76-333.69,67.38-334.34a2.34,2.34,0,0,0-3.35-3.26Z"/><path fill="#c25c4a" d="M2424.21,2332.74c7.59,13.43,214.91,92.85,225.42,81.17s17.31-56.19,17.31-56.19l-101.4-31.4S2416.62,2319.31,2424.21,2332.74Z"/><path fill="#ff6133" d="M3105.21,1638.16l-51.47-91.82-13.49,39.46s13.49,167.23,70.2,167.23c51.66,0,129-120.48,129-120.48l-17.1-323Z"/><path fill="#c25c4a" d="M3042.25,2591.66l-95.1,12.77s-143.4,55.06-124.13,62.07,227.17,5.26,237.1-.58,4.09-40.3,0-52.56S3042.25,2591.66,3042.25,2591.66Z"/><path fill="#414141" d="M3289.12,1798.07l-35.65,8.11L2918.28,1761a94.16,94.16,0,0,0-96.6,58.26l-198,423.11,99.07,73.82,197.89-385.83S3139,2018,3218.43,2043.67s257,35,315.35-17.52,40.88-176.36,40.88-176.36Z"/><path fill="#2b2b2b" d="M3434.31,1824.37c-49.83,4.48-92.86,12-87.72,24.69,11.68,28.81,124.58,106.18,124.58,106.18s-43.6,38.65-116,48.69c-65.7,9.11-369.27-79-424.92-95.44a14.24,14.24,0,0,0-14.82,4.37l-23.57,27.22s6,4.47,16.08,12l12.68-21.67S3139,2018,3218.43,2043.67s257,35,315.35-17.52,40.88-176.36,40.88-176.36Z"/><path fill="#fdefa8" d="M3499.13,1232.32s-71.09-30.47-134-12.88c-9.69,2.71-49.93,11.78-57.21,16.78-54.51,37.37-44.77,305.25-44.77,305.25l-46.5,259.33,36.77,5.38s124.19,75.53,188,94.22,151.83-16.35,151.83-16.35-49.05-277.2-49.05-358.18S3499.13,1232.32,3499.13,1232.32Z"/><path fill="#ff8733" d="M3254.06,1271.06a67.11,67.11,0,0,0-34.9,58.14c-.85,77.12-2.64,244.36-2.64,284.15,0,52.17-38.94,182.61-38.94,182.61l70.9,9.49s54.43-257,58.54-295.54.95-273.69.95-273.69Z"/><path fill="#faedb0" d="M3059.12,1375.17c-20.44-21-89.93-28.61-89.93-28.61l-18.73,10.08,116.84,58.24,191-95.05-13.36-5.39C3191.82,1309.76,3059.12,1375.17,3059.12,1375.17Z"/><path fill="#ff8733" d="M3499.13,1232.32s-156.9,174.81-169.75,253.06-47.88,309.51-47.88,309.51,158.84,67.75,230.09,65.41,87.59-8.18,87.59-8.18-29.2-123.8-29.2-238.26,64.24-319.63,64.24-319.63Z"/><path fill="#ff6133" d="M3572,1575.31l-40.3-188s-83.87,179.65-119.95,198.53-84.77,72.49-84.77,72.49l-36.1,75h0s153.9,83.91,209.27,96.76c32.09,7.45,70.59,12,97.37,14.55-6.19-28.31-27.52-132.92-27.52-230.78C3570,1601.9,3570.72,1588.91,3572,1575.31Z"/><polygon fill="#01267a" points="3061.53 1387.27 3146.75 1638.16 3322.38 1575.71 3262.33 1318.44 3061.53 1387.27"/><polygon fill="#00499f" points="3053.74 1387.27 3134.99 1632.55 3144.84 1632.55 3061.53 1387.27 3053.74 1387.27"/><polygon fill="#01378d" points="2946.84 1355.56 3026.94 1604.1 3134.99 1632.55 3053.74 1387.27 2946.84 1355.56"/><path fill="#ff8733" d="M3612,1284.49c-113.29,0-111.9,358-111.9,358l-246.66,19.28-14,61.9s350.39,67.74,378.42,54.89,51.39-272.13,53.73-379.59S3612,1284.49,3612,1284.49Z"/><path fill="#ff6133" d="M3583.54,1712.13c-28.35,29.32-132.53,40.76-165.8,43.71,91.23,15.36,186.09,29.14,200.13,22.7,28-12.85,51.39-272.13,53.73-379.59.41-19-1.22-34.88-4.14-48.14C3654.12,1433.27,3611.76,1682.93,3583.54,1712.13Z"/><path fill="#f19a6d" d="M3193.59,1621.5l-48.74,11s-85.27-45.55-94.61-46.72,12.85,30.37,12.85,30.37,15.18,26.86,18.69,36.2,37.37,52.56,58.39,58.4,99.28,12.85,99.28,12.85l14-61.9-35-11.68Z"/><path fill="#363636" d="M2920.6,1930.38l-122.11,41.21a61.51,61.51,0,0,0-36.23,84L2926.84,2554l111.44-32.45-90.82-417.14,233.2-73.75Z"/><path fill="#f19a6d" d="M2605.25,2320.48l-39.71,5.84s18.68,37.37,46.71,39.71a307.17,307.17,0,0,0,49.06.34l42.05-64.58-59.57-44.38Z"/><path fill="#f19a6d" d="M2948.85,2547.19l7.91,42.22-22.5,20.06s13.23,16.79,29.5,18.49c27.2,2.84,81.76-28,81.76-28l-30.48-72Z"/><path fill="#2b2b2b" d="M3047.11,1979.15s23,10.86,5.93,29.53c-13.7,15-108.63,51.46-146.07,65.47a17.07,17.07,0,0,0-10.29,21.11l130.15,429.61,11.45-3.33-90.82-417.14,233.2-73.75Z"/><path fill="#c73233" d="M3574.11,1776.05c-37.3-1-112.09-8.72-256.57-40-4.36-.94-7.13-1.53-8-1.7a2.31,2.31,0,0,0-2.72,1.88,2.34,2.34,0,0,0,1.88,2.72c.85.16,3.56.74,7.85,1.67,144.83,31.31,219.93,39.07,257.43,40.06h.06a2.34,2.34,0,0,0,.06-4.67Z"/><path fill="#c73233" d="M3575.09,1672.07c-15.27-7.64-64.59-32-74.61-32a4,4,0,0,0-.83.08c-5.8,1.23-122.05,9.86-182.7,14.25a2.34,2.34,0,0,0-2.17,2.49,2.27,2.27,0,0,0,2.5,2.17c7.18-.52,175.78-12.73,183.32-14.34a1.69,1.69,0,0,1,.33,0c5.75,0,40.75,15.83,72.07,31.52a2.34,2.34,0,1,0,2.09-4.18Z"/><path fill="#ff6133" d="M3347.24,1494a88.75,88.75,0,0,0-8.59,12.61S3341.83,1501.76,3347.24,1494Z"/><path fill="#ff6133" d="M3513.07,1294.78c-2.34,13.23-35,54.5-77.86,92.49-32.43,28.77-71.1,82.35-88,106.69,38.52-49.34,172.57-173.37,177.51-187.41,5.45-15.47-14.79-45.26-14.79-45.26S3515.41,1281.54,3513.07,1294.78Z"/><path fill="#f19a6d" d="M3451,1130.15l-85.56,13.59-.24,65.69-.12,33.85s7.8,10.13,37.67,7.42c46.21-4.18,58.44-29.71,58.44-29.71l-1.59-92.2Z"/><path fill="#ef7c59" d="M3365.18,1209.43c17.77.41,73.24-2.72,84.53-69.68q.84-5,1.27-9.6l-85.56,13.59Z"/><path fill="#52261f" d="M3399.71,1008.08c-15.67-27.19-5-52.89-1.35-60.12l-2.74-1.38c-3.82,7.58-15,34.51,1.43,63,13.85,24.05,42.59,40.21,75,42.18l.18-3.06C3440.85,1046.82,3413.05,1031.25,3399.71,1008.08Z"/><path fill="#f19a6d" d="M3443.17,949.26c-57.74-12.58-95,19.81-106.55,72.76,0,0-3.31,36.94-3.78,39.72-.07.37-24.49,58.39,23.08,113.27,2.69,3.11,6.81,4.23,11,5.09,86.41,17.92,94-67.67,94-67.67,1.61-4.21,39.53-45,40.51-49.56C3512.92,1009.92,3500.91,961.84,3443.17,949.26Z"/><path fill="#52261f" d="M3404,946.1c-41,5-83.61,34.26-85.41,75.22l33.61,2.95s6.28-26.65,16.24-38.14l-1,37.18s71.15,9.51,101.31,19.65c0,0-20.18,53.34-5.06,59.47,0,0,59.95-.52,50.22-76.22S3445.06,941.06,3404,946.1Z"/><path fill="#52261f" d="M3430.06,1045.85c-.79-.53-20.26-10.35-24.47-6.46-1.68,1.55-2.06,4.88-.85,7.19,2.05,3.91,7.4,2.51,19.43,6.31,5.64,1.79,7.88,3.18,8.46,2.39C3433.61,1053.94,3436.06,1049.86,3430.06,1045.85Z"/><path fill="#52261f" d="M3344.54,1036.59c-5.65,1.84-5.74,5.15-5.26,6.43.28.75,2.36.15,7.24,0,10.38-.31,14.3,2,16.8-.64,1.48-1.55,1.93-4.28.94-5.88C3361.8,1032.47,3345.29,1036.35,3344.54,1036.59Z"/><path fill="#38261f" d="M3371.12,1077.83l-2-2.38c-7,5.9-10.09,11.48-9.26,16.59,1.07,6.66,8.43,9.69,8.74,9.82l1.18-2.9c-.06,0-6.05-2.52-6.84-7.44C3362.3,1087.64,3365.14,1082.9,3371.12,1077.83Z"/><path fill="#f19a6d" d="M3484.55,1072.71c-15.41-4-31.52,6.53-36,23.59s4.41,34.16,19.82,38.19,31.52-6.53,36-23.59S3500,1076.74,3484.55,1072.71Z"/><path fill="#38261f" d="M3476.32,1090.67c-5,1.92-8.91,6.62-11.56,14l-.69,1.89,2,.2c3,.31,11.28,2.06,13.13,6.45l2.88-1.21c-2.26-5.36-10-7.38-13.69-8,2.26-5.4,5.29-8.86,9-10.3a12.92,12.92,0,0,1,9.76.53l1.48-2.75A15.85,15.85,0,0,0,3476.32,1090.67Z"/><path fill="#ef7c59" d="M3424.94,1119.15a36.2,36.2,0,0,0,21.51,34.55c13.06-19.31,15-41.15,15-41.15a162,162,0,0,0,1.14-28.13A36.22,36.22,0,0,0,3424.94,1119.15Z"/><path fill="#ef7c59" d="M3329.34,1073.55a113.31,113.31,0,0,0,2.39,59,36.16,36.16,0,0,0-2.39-59Z"/><path fill="#38261f" d="M3416,1065.35c-2.2-.53-4.72,2.11-5.62,5.9s.16,7.27,2.36,7.79,4.72-2.11,5.62-5.89S3418.19,1065.87,3416,1065.35Z"/><path fill="#38261f" d="M3351.64,1058.83c-2-.47-4.31,1.93-5.13,5.38s.15,6.63,2.15,7.11,4.31-1.93,5.13-5.38S3353.64,1059.31,3351.64,1058.83Z"/><path fill="#814530" d="M3462.56,963c-23.19-10.59-49.21-10.34-47.1-9.8,20.39,5.23,33.79,13.38,33.36,15.23-.51,2.12-47.31-7.9-47.92-5.41-.32,1.36,13.73,3.3,30.93,13.21,18.81,10.84,31.26,25.38,34,23.08,1.45-1.21-1.5-5.79,0-6.92,3.33-2.55,22.42,18.12,24.83,16.11,1.33-1.12-3.9-8-2.12-9.84,2.58-2.68,16.46,8.91,18,7.33C3508.36,1003.94,3492.25,976.56,3462.56,963Z"/><path fill="#383939" d="M3396.33,1125.37a22.93,22.93,0,0,0-7.92.54,63.27,63.27,0,0,1-24.3,0,28.48,28.48,0,0,0-4.46-.62,7.9,7.9,0,0,0-2.37.45c-3.22,1.34-3.82,5.14-3.2,8.17,1.06,5.28,4.67,10,9.58,13.33a26.34,26.34,0,0,0,10.45,4,28.4,28.4,0,0,0,23.63-7.62,20.08,20.08,0,0,0,2.34-2.8c2.48-3.71,3.7-8.41,1.52-12.25C3400.55,1126.64,3398.69,1125.71,3396.33,1125.37Z"/><path fill="#fff" d="M3388.41,1125.91a63.27,63.27,0,0,1-24.3,0,28.48,28.48,0,0,0-4.46-.62c-.27,1.87-.24,3.81.88,5.28s3,2.1,4.86,2.55a53.08,53.08,0,0,0,23.26.42c2.12-.39,4.31-1,5.79-2.63a8.43,8.43,0,0,0,1.89-5.53A22.93,22.93,0,0,0,3388.41,1125.91Z"/><path fill="#ff1d38" d="M3376.88,1140.3c-5,.83-10.2,3-13.22,6.93a26.34,26.34,0,0,0,10.45,4,28.4,28.4,0,0,0,23.63-7.62A31.58,31.58,0,0,0,3376.88,1140.3Z"/><path fill="#000745" d="M2007.8,2667.3s.07,0,.11-.05S2007.79,2667.29,2007.8,2667.3Z"/><path fill="#000745" d="M2083.8,2570.32c-57,25.63-74.1,94.77-75.89,96.93,5.41-1,210.28.05,210.28.05,0-51.46-16.8-97-16.8-97Z"/><path fill="#1a2270" d="M2160.59,2647.21a3.08,3.08,0,0,1-3-2.48c-3.49-17.56-11.46-31.89-23.68-42.57-9.15-8-17.39-10.85-17.48-10.88a3.08,3.08,0,0,1,2-5.83c1.47.49,36.2,12.57,45.24,58.08a3.08,3.08,0,0,1-3,3.68Z"/><path fill="#1a2270" d="M2206.19,2647.21H2039a3.08,3.08,0,1,1,0-6.15h167.19a3.08,3.08,0,1,1,0,6.15Z"/><path fill="#000745" d="M1642.35,2667.3s0,0,0,0S1642.34,2667.29,1642.35,2667.3Z"/><path fill="#000745" d="M1779.86,2570.32c-14.21,7-30.54,17.23-46.87,28.46-86.58,5.67-89.81,66.93-90.6,68.49,3.71-1.07,260.17,0,260.17,0,0-51.46-15.34-97-15.34-97Z"/><path fill="#1a2270" d="M1760.16,2647.21a3.09,3.09,0,0,1-3.05-2.65c-2-14.79-10.33-25.27-24.61-31.15a63.09,63.09,0,0,0-21.67-4.54h0a3.08,3.08,0,0,1,0-6.15c.46,0,46.77.19,52.41,41a3.06,3.06,0,0,1-2.62,3.47Z"/><path fill="#1a2270" d="M1891.6,2647.21H1665a3.08,3.08,0,1,1,0-6.15H1891.6a3.08,3.08,0,1,1,0,6.15Z"/><path fill="#018a9c" d="M2189.39,1868.29,2011,1889.06c-70.93,8.26-128.91,61.79-144.33,133.25L1746,2581.8h153.59l153.9-461.05a43.49,43.49,0,0,1,33-29.18l121.73-23.17,245.69-207.61H2248.18Z"/><path fill="#017087" d="M2189.39,1868.29,2011,1889.06c-49.78,5.79-93.11,33.94-119.89,74.88,33.41-41.83,92,111.2,101.24,267.77.79,13.32,18.79,15.89,23,3.26l38.13-114.22a43.49,43.49,0,0,1,33-29.18l121.73-23.17,245.69-207.61H2248.18Z"/><path fill="#018a9c" d="M2387.7,1793.25,2367,1860.09s-112.3,17.06-205.09,49.87-87.68,342.15-92.48,465.17-27.2,206.67-27.2,206.67h174.39l60.79-474,207.08-14.16c74.84-5.11,135.62-63.92,144.94-140.22l2.93-92.6-4.63-67.54Z"/><path fill="#017087" d="M2346.59,2021.27c-23.94-22.23-62.48-6-64.29,27-1.23,22.52-3.53,44.18-4.92,59.49l144.52-9.88S2385.91,2057.77,2346.59,2021.27Z"/><path fill="#017087" d="M2387.7,1793.25,2367,1860.09s-33.29,5.06-78.57,15c64.46-12.56,286.53,15.18,341.06,76.33l2.87-90.59-4.63-67.54Z"/><path fill="#f19a6d" d="M2043,1200.82c-11.26-18.74-30.11-57.57-35.52-56.5-13.4,2.67,3.74,49.33,4.18,50.52-1.09-1.07-59.19-58.94-78.09-67.27-18.7-8.25,9.32,28.28,10.43,29.73-.9-.85-17.75-16.56-23.14-14s12.3,26.12,12.3,26.12-26.14-15.09-23.93-5c2.18,9.9,18.2,30.55,18.7,31.19-.84-.52-28.83-18.11-24.85-2.8,4,15.54,74.86,106.59,74.86,106.59,2.63,1.76,9.63,17.15,19.9,40.21l67.28-43.12-20.72-33.91S2048.27,1209.64,2043,1200.82Z"/><rect width="3" height="50.67" x="1956" y="1143.77" fill="#ee6a4a" transform="rotate(-46.35 1957.392 1169.078)"/><rect width="3" height="38.51" x="1946.18" y="1162.72" fill="#ee6a4a" transform="rotate(-49.08 1947.765 1181.988)"/><rect width="3" height="26.52" x="1932.1" y="1187.33" fill="#ee6a4a" transform="rotate(-54.31 1933.662 1200.594)"/><path fill="#ee6a4a" d="M1940.47,1217l-2.65-1.42c11.82-22.08,44.87-35.17,46.27-35.72l1.09,2.8C1984.85,1182.76,1951.76,1195.87,1940.47,1217Z"/><path fill="#ee6a4a" d="M1992.12,1238.44c-3.27-25.76,8.36-38.75,8.86-39.29l2.21,2a32.47,32.47,0,0,0-5.22,9.22c-2.2,5.61-4.49,15-2.87,27.66Z"/><path fill="#e03344" d="M2328.1,1226.4c-51.86,8.83-97.08,41.45-124.56,87.78l-41.14,68.69-104.08-117.11c-26.6,7.4-78.14,67.73-101.63,98l175.62,199.15a60,60,0,0,0,80.63,1.59l62.11-70,104.47-33.86,58.16-239.19C2411.24,1217.15,2369.25,1219.39,2328.1,1226.4Z"/><path fill="#e03344" d="M2661.61,1475.75l-35.52-164.26-73.8-72.79-181.13-1.47-90.52,125.35-23.73,288.24s-4.18,108.38-26.41,157.31c-40.79,89.56,377.54,107.89,412.31,73.48,0,0,25.07-18.67,6.27-51.09a21.32,21.32,0,0,1-1.68-3.89c-4.51-13.4-5.09-105.35-3.67-142.36C2647.15,1596.7,2661.61,1475.75,2661.61,1475.75Z"/><polygon fill="#6f3428" points="2291.42 1466.31 2297.68 1466.63 2304.64 1321.1 2298.38 1320.78 2291.42 1466.31" opacity=".3"/><polygon fill="#f6f5f5" points="2218.32 1372.45 2220.13 1673.92 2429.87 1704.44 2428.05 1402.96 2218.32 1372.45"/><polygon fill="#d3dfff" points="2246.42 1442.23 2389.38 1463.22 2390.62 1453.66 2247.66 1432.67 2246.42 1442.23"/><polygon fill="#d3dfff" points="2246.6 1483.25 2389.56 1504.25 2390.8 1494.69 2247.84 1473.69 2246.6 1483.25"/><polygon fill="#d3dfff" points="2245.66 1526.69 2388.62 1547.69 2389.86 1538.14 2246.9 1517.13 2245.66 1526.69"/><polygon fill="#d3dfff" points="2245.87 1573.75 2388.83 1594.75 2390.07 1585.19 2247.11 1564.19 2245.87 1573.75"/><polygon fill="#d3dfff" points="2246.06 1617.18 2389.02 1638.18 2390.26 1628.63 2247.3 1607.63 2246.06 1617.18"/><path fill="#6f3428" d="M2493.4,1683.21l34.48-58.4-59.2-69C2438,1633.25,2493.4,1683.21,2493.4,1683.21Z"/><path fill="#6f3428" d="M2587.46,1605.79c4.42,10.74,21.91,6.1,29.78,11.13l-6.78-193.79C2589.46,1471.19,2570,1563.22,2587.46,1605.79Z" opacity=".3"/><path fill="#6f3428" d="M2643.73,1684.27l-150.37-1s29.17,128.26,154,143.39C2642.89,1813.23,2642.31,1721.28,2643.73,1684.27Z" opacity=".3"/><polygon fill="#f19a6d" points="2408.62 1620.62 2525.07 1671.44 2528.81 1582.77 2431.84 1544.18 2408.62 1620.62"/><path fill="#f19a6d" d="M2440.94,1547.55c-37.18-32.46-60.48-46.13-98-52.55-15.09-2.59-13.39,12.39-.93,20.33a85,85,0,0,0,18.55,9,3.92,3.92,0,0,0,.88.79,267.33,267.33,0,0,1,28.24,24c-12-.35-76.33-7.94-82.92,2-2.3,3.46,6.56,12.45,15.23,14.35,3.45.75,7,1.1,10.48,1.64-4.72,6.49-2.43,19,8.05,20.72.79.13,1.59.22,2.38.35-1,3.85-.74,6.95,1.87,10.47,1.76,2.38,16.75,12.78,22.84,15.78,91.56,45.1,107.1-6.65,102.67-24.53C2466.84,1576.08,2452.58,1560.16,2440.94,1547.55Z"/><polygon fill="#ef7c59" points="2332.27 1569.48 2384.82 1574.19 2385.22 1569.4 2332.67 1564.7 2332.27 1569.48"/><polygon fill="#ef7c59" points="2342.56 1590.54 2384.68 1596.98 2385.36 1592.23 2343.24 1585.79 2342.56 1590.54"/><path fill="#e03344" d="M2734.05,1431.65c-1.76-72.62-39.62-139.44-100.6-175.49-38.18-22.57-83.53-39.18-134.13-43.4l-26.46,183L2615,1424.57l3.83,154.89-152.54-24.85c20.57,45.53,32,89,27.16,128.6l147.46,41.4c51.08,12.23,99.58-28.65,98.27-82.86C2737.54,1576.09,2735.53,1493.1,2734.05,1431.65Z"/><path fill="#6f3428" d="M2465.9,1557.83c65.89,7.31,147.3,18.23,192.44,38l2.45-6c-45.91-20.06-127.91-31.08-194.22-38.43Z" opacity=".3"/><path fill="#6f3428" d="M2447.06,1307.17c-19.82-2.49-36.73-12.11-47.62-27.08l-5,3.9c11.92,16.39,30.34,26.91,51.87,29.61a84.48,84.48,0,0,0,64.76-19l-4-5A78.13,78.13,0,0,1,2447.06,1307.17Z" opacity=".3"/><path fill="#f19a6d" d="M2411.54,1206.1a59.75,59.75,0,0,0,.77,9.74c4.29,29.3,27.81,51.65,56.14,51.65,31.41,0,56.82-27.45,56.82-61.39v-92.78l-113.73,15.08Z"/><path fill="#ef7c59" d="M2411.54,1210.25a54,54,0,0,0,.75,9.08c99.58-10.22,103.46-90,103.46-90l-104.21,26.75Z"/><path fill="#141f35" d="M2570.57,955.86s-27.8-37.76-52.46-43.81-35.83,9.31-35.83,9.31-4.65-11.63-11.63-11.17-13,6-13,6-14.89-14.43-32.1-13.49-27.46,10.7-29.32,18.14c0,0-27.45-14.42-31.17,18.62-1.68,14.88,7.91,21.86,7.91,21.86s-2.79,27,11.16,32.58c0,0-4.18,17.68,3.29,17.73l126.88,106.7C2563.28,1131.27,2616.5,965.94,2570.57,955.86Z"/><path fill="#f19a6d" d="M2494.25,938.46c-53.4-8.8-86.9,7.5-103.46,62.42-.84,2.79-1.49,5.61-2.18,8.43-3.27,13.29-5.89,29.57-2.39,37.08,0,0-28.81,69.26,26.38,128.9,6.29,6.79,36.71,3.15,45.22,1.44,71.78-14.35,64.6-93.31,64.6-93.31,1.61-4.77,28.23-6.6,29.76-11.54C2566.82,1024.45,2559.48,949.22,2494.25,938.46Z"/><path fill="#ef7c59" d="M2385.85,1045.44c.12.32.23.66.37,1,0,0-16.67,40.18-.26,85.67,11-10.19,18-25.77,18-43.26S2396.9,1055.64,2385.85,1045.44Z"/><path fill="#ef7c59" d="M2518.83,1061.89c-17.84,0-32.3,18.47-32.3,41.27,0,18.35,9.38,33.88,22.34,39.25,16.43-27,13.55-59,13.55-59,1-3.08,12.46-4.93,20.86-7.19C2537.36,1067.46,2528.61,1061.89,2518.83,1061.89Z"/><path fill="#9e4c23" d="M2492.53,1030.11a100.9,100.9,0,0,0-12.34-6.08c-7-2.55-14-4.66-16.73-2-1.8,1.8-2.08,5.54-.62,8.07,2.46,4.29,8.38,2.48,22,6.19,6.39,1.74,8.95,3.19,9.56,2.29C2495.45,1037.07,2499.42,1034.33,2492.53,1030.11Z"/><path fill="#9e4c23" d="M2405.16,1020.54a58.24,58.24,0,0,0-9,2.51c-5.9,2.79-4.49,6.19-4,7.71.29.88,2.46,0,7.54-.71,10.81-1.4,14.87,1,17.5-2.44,1.55-2,2-5.41,1-7.27C2416.79,1017.79,2410.23,1019.61,2405.16,1020.54Z"/><path fill="#38261f" d="M2474.24,1053.21c-2.25-.59-4.83,1.8-5.75,5.33s.15,6.87,2.41,7.46,4.82-1.8,5.75-5.33S2476.49,1053.8,2474.24,1053.21Z"/><path fill="#38261f" d="M2409.09,1044.93c-2.05-.54-4.46,1.88-5.38,5.41s0,6.81,2.05,7.34,4.46-1.88,5.38-5.4S2411.14,1045.47,2409.09,1044.93Z"/><path fill="#141f35" d="M2510.82,933.64c-47.83-28.11-97.93-9.94-127.62-1s7.59,68.23,7.59,68.23a60.94,60.94,0,0,1,11.7-23.37c23.06,21.51,113.93,16.92,113.93,16.92l2.77,83.22,4.15,22.25-2.13,5.16c4.44,11.09,15.06,13.07,20.88,2.64,18.27-32.67,46-86.91,36.83-100.71C2571.78,996.2,2558.65,961.74,2510.82,933.64Z"/><path fill="#f19a6d" d="M2546.76,1055.2c-14.34-4.57-30.06,4.58-35.13,20.45s2.45,32.44,16.78,37,30.06-4.58,35.13-20.45S2561.09,1059.78,2546.76,1055.2Z"/><path fill="#38261f" d="M2538.07,1071.66c-4.86,1.57-8.78,5.82-11.66,12.63l-.78,1.84,2,.3c2.83.44,10.49,2.5,12,6.7l2.92-1.06c-1.85-5.15-9-7.46-12.47-8.3,2.39-4.91,5.39-8,8.93-9.14a12.12,12.12,0,0,1,9.12,1l1.62-2.66A15,15,0,0,0,2538.07,1071.66Z"/><path fill="#141f35" d="M2518.84,1070.83l.94-79.56-7.49-16S2489.74,1065.6,2518.84,1070.83Z"/><path fill="#38261f" d="M2434.46,1064.52l-.57-3.06c-3.27.61-19.69,3.94-22.23,9.39a3.83,3.83,0,0,0,.17,3.64c3.65,6.43,12.43,11.71,12.8,11.93l1.6-2.68c-.09,0-8.46-5.08-11.7-10.79a.74.74,0,0,1,0-.79C2415.85,1069.21,2427,1065.92,2434.46,1064.52Z"/><path fill="#141f35" d="M2510.16,1057.21c-.43,59.81-15.07,80.28-18.44,84.2-18.44,7.88-44.43,15.74-55.45,3.57,0,0-7,1.49-12.25-.2,0,0-13.54,17-31.13,4.7,0,0,4.69,22.56,17.39,28.87,11.85,5.89,82.62,8.12,99-36.52,17.36-24.1,16.1-84.41,16.1-84.41S2510.42,1021.58,2510.16,1057.21Z"/><path fill="#38261f" d="M2428.9,1128.82c-6.16,0-13.33-1.93-21-7.72l3-4c19.67,14.8,34.66.8,35.29.2l3.47,3.59A32.35,32.35,0,0,1,2428.9,1128.82Z"/><path fill="#52261f" d="M1142.54,411.26c-17.44,83.23-100.26,178.47-93.47,214.47-.26,16.44,39.69,26.67,92.66,31.34,20.83,1.8,43.72,2.74,67,2.92,89,.57,183.42-11.06,190.54-32.89,8.61-26.48-55.14-57.24-60.61-169.17C1335.33,390.44,1156.51,344.56,1142.54,411.26Z"/><path fill="#52261f" d="M1332.66,396.22c-44.66-37-99.65-41.6-116.31-21.5s6,66.4,50.69,103.42,94.36,50.73,111,30.64S1377.31,433.24,1332.66,396.22Z"/><path fill="#f19a6d" d="M1851.41,650.33a2.89,2.89,0,0,0-.72,0c-9.06.09-22.11,6.34-34.26,46.23L1778.13,727l10.4,22.91,2.43,5.38,29-32.44A62.45,62.45,0,0,0,1833.84,697l.17-.51a73.27,73.27,0,0,1,8.11-19.18l12.64-20.83A4.06,4.06,0,0,0,1851.41,650.33Z"/><path fill="#f19a6d" d="M1816.43,696.56,1778.13,727l10.4,22.91,26.92-30.06A63.65,63.65,0,0,0,1829.37,694l.11-.51a70,70,0,0,1,8.17-19.11l12.57-20.84a3.73,3.73,0,0,0,.47-3.18C1841.63,650.42,1828.58,656.67,1816.43,696.56Z" opacity=".43"/><path fill="#f19a6d" d="M1794.92,664.14c-4-2.9-10,.35-10.38,5.25-.42,6,3.48,16.41,20.86,34l4.31,13.42-29,28.28-40.26-22.43-.6-12.29s32.29-29.73,29.19-51.48a4.29,4.29,0,0,0-7-2.55c-2.87,2.46-14.69,15.32-21.86,21.43-3.78,3.22-4.65,4.4-7.25,8.63l-17.26,24.11c-19.72,13.86-35.88,40.16-50.87,70.49,0,0-5.51,27.53,35.82,43.54l8.52-20.49s15.57-13.14,66.71-19.37a15.15,15.15,0,0,0,11-7.05l7.23-11.59a31.17,31.17,0,0,1,3.25-4.33l32.24-36.05a8.39,8.39,0,0,0,2-7C1829.66,707.69,1824.36,685.77,1794.92,664.14Z"/><path fill="#f19a6d" d="M1808.65,698.06c-4.49-4.4-8.08-9.68-12.33-14.32-3.77-4.12-7.49-8.66-9.67-13.87a7.88,7.88,0,0,1-.6-4.1,6.46,6.46,0,0,0-1.51,3.62c-.42,6,3.48,16.41,20.86,34l4.31,13.42-26.37,25.69c-2.59,5.46-6.53,10.13-12.29,12.8-4.5,2.09-9.33,2.53-14.23,2.74-7.11.31-14.24.24-21.36.51-12.62.49-26.87,2.62-38.46,7.85-5.53,2.49-10.78,6.22-13,12.07s-2,13.41-1.33,19.69a45.26,45.26,0,0,0,5.77,18,43,43,0,0,0,3.21,4.29,90.72,90.72,0,0,0,8.94,4.06l8.52-20.49s15.57-13.14,66.71-19.37a15.15,15.15,0,0,0,11-7.05l7.23-11.59a31.17,31.17,0,0,1,3.25-4.33l7.87-8.8a31,31,0,0,1,1.5-3.94c2.57-5.43,6.87-9.51,10.49-14.2,5-6.4,6.9-14.81,3.72-22.44C1818.33,706.37,1813.14,702.46,1808.65,698.06Z" opacity=".43"/><path fill="#f19a6d" d="M1784.64,715.46l-48.48-9s-6.15,7.21,4.1,13.09l35.37,9.09L1786,773s10.8-30.93,8.42-47.51A12.06,12.06,0,0,0,1784.64,715.46Z"/><path fill="#f19a6d" d="M1789.65,721.2c-2.71-.51-5.41-1.09-8-1.54-5.89-1-11.72-2.27-17.55-3.54s-11.53-2.45-17.31-3.59c-2.83-.55-5.65-1.1-8.42-1.91-1.21-.36-2.44-.82-3.68-1.2-.77,2.64-.51,6.61,5.61,10.12l35.37,9.09L1786,773s10.48-30.1,8.46-46.81A5.9,5.9,0,0,0,1789.65,721.2Z" opacity=".43"/><path fill="#f19a6d" d="M1774.52,732.38c-10.74-7.13-38.56-15.33-38.56-15.33l-2.32,2.42c-1.08,10.27,26,22,26,22l3.24,21.84,15.59,6.39a60.47,60.47,0,0,0,0-31.63A10,10,0,0,0,1774.52,732.38Z"/><path fill="#f19a6d" d="M1771.63,736.63c-3.22-1.84-28.33-11.85-31.75-13.28-1.61-.68-4-1.9-6.1-1.87,2.19,9.72,25.9,19.95,25.9,19.95l3.24,21.84,14.83,6.08C1777.79,767.24,1777.22,739.81,1771.63,736.63Z" opacity=".43"/><path fill="#fff" d="M1686,803.59A50.05,50.05,0,0,1,1678.2,793l0,0c-3.48-6.08-5.94-12.6-9-19.3l-4,3.61L1499.27,929.47l-80-179.33a58.37,58.37,0,0,0-103-7c-.53.82-1,1.65-1.47,2.49a56.35,56.35,0,0,0-4.42,9.94,58.46,58.46,0,0,0,7.52,51.67l139.56,221.67c12.77,20.27,37.77,29.91,60.41,22.17.84-.29,1.68-.59,2.46-.9,66.1-26.61,148.93-178.29,183-231.57C1694.35,812.94,1693,810.9,1686,803.59Z"/><path d="M1163,2525l-53-1.8c.06.69.13,1.37.19,2l-50.06,110.48s-36.7-2.61-38.07,31.55h133.46a21.18,21.18,0,0,0,21-18c4.35-29.56,9.26-88.12-13.72-118.8Z"/><path d="M1514.52,2650.32c-55.34-16.15-138.55-69.5-162.28-110.11l-72-2.49v7.15c-7.83,18.5-16.83,66.57-5.89,122.4h32v-44.34c0-5.78,8.07-7.08,10-1.55,10.37,29.93,31.67,46.95,63.28,45.89h129.79C1518.55,2667.27,1522.22,2655.35,1514.52,2650.32Z"/><path fill="#01378d" d="M1345.57,1160.46,1099,1131.59c-117.56,160.9-108,452.66-60.49,783.48,28.07,196.06,18,403.74,54.24,608.12,25.55,22.32,60.51,22.47,104.31,1.79l5.77-623.38,4.6-495.58h45l4.78,543.89,5.16,587.8c40.36,11,76.47,12.53,107.4,2.49,25.65-220.4,18.73-446.89,37.17-651.83C1439,1533.08,1440.9,1242.5,1345.57,1160.46Z"/><path fill="#ff99d7" d="M1345.57,1160.46,1099,1131.59c-117.56,160.9-108,452.66-60.49,783.48,3.25,22.7,5.94,45.57,8.3,68.56,7.65,2.73,15.25,5.73,22.93,8.66,23.88,9.14,48.57,11.62,74,12.24a439.16,439.16,0,0,0,58.16-2.62l.93-100.31,4.6-495.58h45l4.78,543.89.38,42.76c50-11.08,98.81-29,145.12-50.06,1.26-18.22,2.62-36.34,4.23-54.24C1439,1533.08,1440.9,1242.5,1345.57,1160.46Z" opacity=".3"/><path fill="#fff" d="M1345.57,1160.46,1099,1131.59c-112.88,142-117.9,492-81.91,791.74a518.23,518.23,0,0,0,76.62,18.9c75.47,12.89,153.63,11.16,229.29.76a958.23,958.23,0,0,0,108.54-21.32C1458.51,1587.75,1436.81,1239,1345.57,1160.46Z"/><path fill="#a6c8e8" d="M1017.12,1923.33c25,8.32,76.62,18.9,76.62,18.9s-132.42-675.66,59.39-804.31l-54.1-6.33C987,1273.62,981.13,1623.63,1017.12,1923.33Z"/><path fill="#fff" d="M1427.12,861.16a70,70,0,0,1,1.36-35.18c13.9-46.1-7.44-95.77-50.74-116.83-78.45-38.15-162.4-32.86-162.4-32.86-130.26,6.58-195.16,110.92-195.16,110.92,25.08,135.87,73.87,219.56,136,352.22l189.47,21L1393,992.07l27.21-36A77.48,77.48,0,0,0,1434,892.79Z"/><path fill="#f19a6d" d="M1297.39,654.17l1.3-65.67-52,1.08-42.27-31-.5,50.33-.86,103.83c1,23.34,89.87,141.87,115.72,139.28,21.18-2.12-19.23-120.39-22.51-145.21Z"/><path fill="#ef7c59" d="M1225.4,569.24s-3.8,17.2-2.8,20.88c15.79,57.9,74.79,64,74.79,64l1.27-58.91-52-5.69Z"/><path fill="#a6c8e8" d="M1365.3,694.19c-10.74-10.67-51-15.34-55.1-15.34l-.35,1.4c1.35,1.36-.85,26.35-.54,28.33,5.07,32.87,9.49,43.31,11.38,76.5,1.1,19.54,1.08,39.25-2.36,58.34,7.44,19.56,2.73,75.84,11,94.68,10.31-10.53,37.34-174.66,37.34-174.66l-20.84-11.09s23.3-5.11,23.19-6.39C1368.1,734.92,1381.12,709.94,1365.3,694.19Z"/><path fill="#fff" d="M1352.25,692.41c-10.74-10.68-51-15.35-55.1-15.34l-.35,1.39c1.35,1.37-.85,26.35-.54,28.33,5.08,32.87,9.5,43.31,11.38,76.51,1.1,19.53,1.08,39.25-2.36,58.33,7.44,19.57,14.65,39.35,22.92,58.18,10.32-10.53,25.42-138.15,25.42-138.15l-20.84-11.1s23.3-5.1,23.2-6.38C1355.05,733.14,1368.07,708.16,1352.25,692.41Z"/><path fill="#a6c8e8" d="M1297.88,847.75c-18.33-18.29-33.36-39.77-47.63-61.55-21.76-33.2-44.67-65.42-57.63-103.33a45.93,45.93,0,0,0-2.69-5.8c-14.64,1.78-27.18,6.84-40.81,12.49a137.71,137.71,0,0,0-38.53,21.7c-1.58,1.27-3.24,2.76-3.53,4.76a8.27,8.27,0,0,0,.86,4.14,161,161,0,0,0,61.86,74.55c2.49,1.59,5.1,3.15,8,3.65,9.37,1.59,17.19-8,26.66-8.8A214.82,214.82,0,0,1,1180.24,815c23.67,30.13,140.45,100.2,150.66,113.48-2.2-16.11-9.16-46.48-13.21-62.22C1315.11,862.54,1300.26,851.57,1297.88,847.75Z"/><path fill="#fff" d="M1311.35,840.69c-18.33-18.29-33.35-39.77-47.62-61.55-21.77-33.2-44.67-65.42-57.63-103.33a45.45,45.45,0,0,0-2.7-5.81c-14.64,1.78-27.18,6.85-40.8,12.5a137.32,137.32,0,0,0-38.53,21.7c-1.58,1.27-3.24,2.76-3.53,4.76a8.06,8.06,0,0,0,.86,4.14,161,161,0,0,0,61.86,74.55c2.49,1.59,5.1,3.15,8,3.64,9.37,1.6,17.19-7.95,26.66-8.79a214.82,214.82,0,0,1-24.22,25.43c23.67,30.13,124.28,78.6,134.48,91.88a419.92,419.92,0,0,0-9.43-47.81C1316.19,848.29,1313.74,844.51,1311.35,840.69Z"/><path fill="#a6c8e8" d="M1147.19,978.71c-11.58-25.87-26.58-50.81-46.61-71.05-16.22-16.39-36.42-29.68-59.39-33.77,27.29,90.23,67.15,163.41,114.94,265.54l18.54,2.06c3.29-25,2-50.62-1.84-75.38A344.24,344.24,0,0,0,1147.19,978.71Z"/><path fill="#e2ecf3" d="M1258.72,1113.72a5.17,5.17,0,0,0-1.49.57,8.33,8.33,0,0,0-2.64,2.51A12.52,12.52,0,0,0,1254,1130a6.79,6.79,0,0,0,2.49,2.61,3.54,3.54,0,0,0,3.48.05,5.16,5.16,0,0,0,1.84-2.58C1263.3,1126.5,1266.77,1112,1258.72,1113.72Z"/><path fill="#e2ecf3" d="M1268.88,1072.76a5.69,5.69,0,0,0-1.5.58,8.52,8.52,0,0,0-2.64,2.5,12.55,12.55,0,0,0-.54,13.19,6.56,6.56,0,0,0,2.48,2.61,3.58,3.58,0,0,0,3.49.06,5.18,5.18,0,0,0,1.83-2.58C1273.46,1085.55,1276.92,1071,1268.88,1072.76Z"/><path fill="#4c303a" d="M1561.62,905.3l-40.6.51-151.46,1.79-38.24.44a16.47,16.47,0,0,0-16.26,15.43L1293.55,1258a16.48,16.48,0,0,0,16.82,17.54l233.56-5.25a16.49,16.49,0,0,0,16.09-15.58l18.27-332A16.49,16.49,0,0,0,1561.62,905.3Z"/><path fill="#4c303a" d="M1369.56,907.6A76.13,76.13,0,1,0,1521,905.81Z"/><path fill="#f19a6d" d="M1266.9,1064.89l-3,.32-188.46,19-.28,0,49.63-207.91-104.6-89.18L1004.51,828,962,1117.66c-5,34,17.83,63.4,48.37,70.14a62.16,62.16,0,0,0,28.85-.52l240.19-54.54,1.54-.38,28.32-6.39-.62-65.25Z"/><path fill="#ef7c59" d="M1267.06,1064.88c-1.61,2.31-3.17,4.66-4.56,7.12a61.17,61.17,0,0,0-7.25,23.16c-1.67,14.22-1.43,28.73,1.73,42.67l22.44-5.09,1.54-.38,28.32-6.39-.62-65.26Z"/><path fill="#f19a6d" d="M1384.72,1078.85c-.35-4.43-4.89-7.74-9.21-7.54,3.84-1,7.56-2.93,8.11-6.66.43-3-1.58-5.82-4.15-7.31s-5.61-1.91-8.57-2.26c-20.49-2.44-41.12-3.5-61.74-4.57-5.52-.28-11.13-.56-16.51.71s-10.6,4.35-13.17,9.24c-2.48,4.71,1.13,8.71,4,13.1-2.74,2.12-7.08,7.65-6.33,11.06a9.43,9.43,0,0,0,9.09,7.17,10.62,10.62,0,0,0-.64,20.83c-5,4-4.36,12.3-.11,17s10.86,6.56,17.19,7.29c20.37,2.34,41-4.4,58.54-15,3.78-2.27,7.7-5,9-9.23a7.92,7.92,0,0,0-3.09-8.75,17.6,17.6,0,0,0,10.17-.74c4.08-1.75,7.24-6.12,6.52-10.5a7.5,7.5,0,0,0-4.91-5.56C1382.35,1085.86,1385,1082.51,1384.72,1078.85Z"/><path fill="#f19a6d" d="M1377.43,1069.84q-32.82-.48-65.6-2.12c-2.43-.12-2.14,3.64.25,3.76q32.78,1.63,65.6,2.12C1380.12,1073.64,1379.84,1069.88,1377.43,1069.84Z" opacity=".5"/><path fill="#f19a6d" d="M1379.2,1086a378.18,378.18,0,0,1-69.61-.22c-2.39-.23-3.12,3.46-.7,3.7a383.21,383.21,0,0,0,70.56.28C1381.87,1089.53,1381.62,1085.77,1379.2,1086Z" opacity=".5"/><path fill="#f19a6d" d="M1367.2,1102.7a158.55,158.55,0,0,1-55,3.12c-2.4-.28-3.12,3.41-.71,3.7a163.79,163.79,0,0,0,57-3.25C1370.78,1105.71,1369.54,1102.15,1367.2,1102.7Z" opacity=".5"/><path fill="#fff" d="M1020.18,787.21,1004.47,828,962,1117.68c-5,33.94,5.3,67.79,35.8,74.51.91-41.06,49-83.7,77.64-107.92l-.32,0,50.12-185.92a99,99,0,0,0,.5-49.45C1110.54,787.25,1076.3,764.75,1020.18,787.21Z"/><path fill="#fff" d="M1077.09,1070.5c-113.61,77.15-79.29,121.69-79.29,121.69l92.38-10.16c-25.46-30.46,28.26-104.58,28.26-104.58Z"/><path fill="#a6c8e8" d="M1153.13,1413.82s60,198.93,246.89,209.08C1400,1622.9,1241,1588.05,1153.13,1413.82Z"/><path fill="#340000" d="M1165.6,427.16l-17.25,118.51,42.39,19c13.7-88.41,52.27-120.29,90.61-123.08L1188,413A17.49,17.49,0,0,0,1165.6,427.16Z"/><path fill="#52261f" d="M1280.68,385.44c3.13,7.49,12,33.94-5.65,60-15,22.2-43.89,35.77-75.4,35.43l0,3.08c32.53.35,62.41-13.75,78-36.79,18.46-27.33,9.21-55,5.94-62.89Z"/><path fill="#f19a6d" d="M1337.09,463.87c-7.74-53.74-42.68-88.78-101.29-80.34s-74,55.63-66.3,109.38c.66,4.58,35.63,48.11,36.94,52.43,0,0,1.45,86.09,89.09,74.36,4.21-.57,8.41-1.39,11.32-4.3,51.47-51.45,31.21-111.18,31.18-111.55C1337.75,501,1337.09,463.87,1337.09,463.87Z"/><path fill="#52261f" d="M1275.14,383.17c-40.64-8-100.39-2.74-115.54,72.21s44.74,79.77,44.74,79.77c15.55-5-.8-59.8-.8-59.8,30.86-8,102.65-12.39,102.65-12.39l1.62-37.23c9.14,12.19,13.51,39.27,13.51,39.27l33.8-.54C1356.25,423.4,1315.77,391.14,1275.14,383.17Z"/><path fill="#52261f" d="M1242,481c-6.28,3.58-4.13,7.84-3.24,9.25.52.82,2.86-.4,8.63-1.79,12.3-2.94,17.54-1.15,19.87-4.92,1.37-2.22,1.23-5.57-.33-7.24C1263,472.11,1242.82,480.53,1242,481Z"/><path fill="#52261f" d="M1328.12,477.87c-.72-.29-16.95-5.35-19.7-1.5-1.1,1.53-.84,4.28.52,5.95,2.31,2.82,6.4.78,16.75,1.84,4.86.49,6.9,1.24,7.23.51C1333.5,483.42,1333.64,480.11,1328.12,477.87Z"/><path fill="#38261f" d="M1298.61,517.19c5.62,5.49,8.11,10.42,7.22,14.27-1.14,4.85-7.3,6.92-7.37,6.94l1,3c.32-.1,7.89-2.61,9.44-9.19,1.19-5-1.52-10.84-8.07-17.24Z"/><path fill="#f19a6d" d="M1185.62,504c-15.69,2.93-25.79,19.38-22.55,36.75s18.58,29.07,34.27,26.15,25.79-19.38,22.55-36.75S1201.3,501,1185.62,504Z"/><path fill="#38261f" d="M1192.55,522.49a15.87,15.87,0,0,0-12.36-.17l1.28,2.86a13,13,0,0,1,9.79.17c3.62,1.7,6.4,5.38,8.27,10.93-3.76.42-11.62,1.88-14.26,7.07l2.8,1.42c2.16-4.25,10.54-5.42,13.58-5.51l2-.06-.55-1.93C1201,529.74,1197.44,524.77,1192.55,522.49Z"/><path fill="#ef7c59" d="M1206.71,517.23a162.18,162.18,0,0,0-.87,28.19s.39,22,12.06,42.2a36.28,36.28,0,0,0-11.19-70.39Z"/><path fill="#ef7c59" d="M1321.94,546.51a36.21,36.21,0,0,0,12.13,28.19,113.62,113.62,0,0,0,6.61-58.8A36.23,36.23,0,0,0,1321.94,546.51Z"/><path fill="#38261f" d="M1254.67,501.5c-2.24.37-3.55,3.78-2.92,7.62s3,6.67,5.2,6.3,3.54-3.78,2.91-7.62S1256.91,501.13,1254.67,501.5Z"/><path fill="#38261f" d="M1319.45,499.59c-2,.34-3.24,3.45-2.66,7s2.69,6.08,4.73,5.74,3.23-3.44,2.66-6.95S1321.49,499.26,1319.45,499.59Z"/><path fill="#814530" d="M1228.79,402.28c-.31-1.87,13.67-9.06,34.43-12.83,2.15-.39-23.84-2.49-47.78,6.43-30.64,11.42-48.71,37.63-46.93,39.83,1.37,1.68,16.07-8.92,18.47-6,1.64,2-4.08,8.47-2.83,9.68,2.27,2.18,22.82-17.11,26-14.32,1.39,1.23-1.89,5.6-.53,6.92,2.56,2.48,16-11.15,35.62-20.64,17.9-8.67,32.08-9.61,31.85-11C1276.63,397.78,1229.14,404.44,1228.79,402.28Z"/><path fill="#383939" d="M1312.64,562.54a8.66,8.66,0,0,0-2.53-.48,31.21,31.21,0,0,0-4.78.66,67.6,67.6,0,0,1-26,0,24.83,24.83,0,0,0-8.49-.58c-2.52.37-4.51,1.37-5.65,3.39-2.33,4.12-1,9.15,1.63,13.12a21.69,21.69,0,0,0,2.51,3c6.11,6.19,16.07,9.53,25.3,8.15a28.07,28.07,0,0,0,11.2-4.25c5.25-3.51,9.12-8.62,10.27-14.27C1316.74,568.05,1316.09,564,1312.64,562.54Z"/><path fill="#fff" d="M1305.33,562.72a67.6,67.6,0,0,1-26,0,24.83,24.83,0,0,0-8.49-.58,9,9,0,0,0,2,5.93c1.58,1.72,3.92,2.4,6.19,2.81a56.65,56.65,0,0,0,24.92-.45c1.93-.48,4-1.16,5.2-2.73s1.24-3.64.95-5.65A31.21,31.21,0,0,0,1305.33,562.72Z"/><path fill="#ff1d38" d="M1291.65,578.14c-7.59-1.3-15.73-.27-22.34,3.52,6.11,6.19,16.07,9.53,25.3,8.15a28.07,28.07,0,0,0,11.2-4.25C1302.57,581.4,1297,579,1291.65,578.14Z"/><path fill="#e6336b" d="M3561.7,2510.41l10.4,24.66,10,3.58,15.88,91,5.65,32.34c2.27,10.89,7.74,19.86,14.64,23.94,57.77,34.09,113.67,9.93,136.23-2.93,6.5-3.71,11.07-12.43,12.23-23.24l19.17-125,8.61-2.52,7.39-29.07-64,1.93Z"/><path fill="#c8336b" d="M3691.33,2642c-26,11.86-63.94.56-93.37-12.36l5.65,32.34c2.27,10.89,7.74,19.86,14.64,23.94,57.77,34.09,113.67,9.93,136.23-2.93,6.5-3.71,11.07-12.43,12.23-23.24l19.17-125,8.61-2.52,7.39-29.07-64,1.93C3735.74,2546.69,3727,2625.69,3691.33,2642Z"/><ellipse cx="3681.51" cy="2502.85" fill="#82204d" rx="120.15" ry="20.94" transform="rotate(-1.67 3672.238 2496.657)"/><path fill="#70d271" d="M3434.39,1960.69c-85.38,13.5-47,109.48,27.39,177.63,69,63.25,141.92,293.91,152,352.27a14.23,14.23,0,0,0,12.27,11.69l38.59,4.83.1-10.15s37.35-317.6-11.65-399.85S3519.78,1947.18,3434.39,1960.69Z"/><path fill="#63a5a2" d="M3617.62,2217.75a138.14,138.14,0,0,1-13-30.45c-2.64-8.81-3.56-18.22-4.53-28.18-2.47-25.43-5.27-54.26-39.84-78.85-22.66-16.12-38.43-32.08-51.11-44.91-13.55-13.72-24.26-24.55-37.48-30.11a147.68,147.68,0,0,1-39.08-24,4.81,4.81,0,0,0-5.67-.36,2.72,2.72,0,0,0-.46,4.45c.66.61,16.36,14.94,41.41,25.46,11.71,4.92,22,15.28,34.92,28.41s28.88,29.23,52.06,45.72c32.2,22.9,34.76,49.21,37.23,74.66,1,10.21,1.93,19.86,4.72,29.14a142.64,142.64,0,0,0,13.43,31.48c5.08,9.32,10.34,18.95,16.38,40.32,11.12,39.34.39,98.68.28,99.27-.32,1.72,1.21,3.32,3.41,3.57a3.76,3.76,0,0,0,.58,0c2,0,3.68-1.13,4-2.7.46-2.48,11-61.07-.39-101.54C3628.25,2237.23,3622.84,2227.33,3617.62,2217.75Z"/><path fill="#47b971" d="M3477.69,2284c-64.92-21.73-142.18-19.07-182.16,28.07s25.6,81.23,97.68,83.5c66.89,2.1,214,93.1,246.66,120a10.17,10.17,0,0,0,12.1.61l23.17-15.37-4.68-5.55S3542.6,2305.74,3477.69,2284Z"/><path fill="#498981" d="M3584.14,2414.14c-14.42-11.06-22.59-14.81-30.49-18.44a110.37,110.37,0,0,1-22.81-13.26c-5.89-4.37-11-10-16.32-15.85-13.69-15.07-29.22-32.15-63-31.39-22.16.5-39.84-2.18-54.05-4.34-15.19-2.31-27.19-4.13-38.29-1.37a117.94,117.94,0,0,1-36.39,3.29,3.84,3.84,0,0,0-3.79,2.47,2.16,2.16,0,0,0,1.83,3.06,122,122,0,0,0,38.57-3.46c9.83-2.44,21.32-.7,35.85,1.51s32.38,4.91,55,4.41c31.48-.71,45.65,14.88,59.35,29.95,5.5,6.05,10.7,11.77,16.9,16.38a114.45,114.45,0,0,0,23.58,13.71c7.68,3.53,15.63,7.18,29.66,18,25.85,19.83,47.27,62.85,47.48,63.28.62,1.25,2.35,1.55,3.88.66l.39-.26a3.05,3.05,0,0,0,1.24-3.62C3631.87,2477,3610.73,2434.55,3584.14,2414.14Z"/><path fill="#47b971" d="M3715.6,1985c-109.2,139.31-55.5,526.73-55.5,526.73l11.23.84a111.31,111.31,0,0,0,62.7-13.89s46.41-265.24,75.88-305.28,92.06-24.54,114.47-111.49,170-160.34,126.4-221.92S3824.8,1845.67,3715.6,1985Z"/><path fill="#498981" d="M3997,1875.27c-1.14.45-114.33,45.46-175.91,116.6-22,25.37-40,39.16-54.58,50.25-26.39,20.13-42.32,32.28-48.83,87.32-5.08,43-16.06,90.77-25.75,132.93-9,39.05-16.72,72.78-17.05,91.59-.69,38.21,16.9,113.52,17.65,116.71a4,4,0,0,0,7.83-1.84c-.18-.77-18.11-77.52-17.44-114.72.32-18,8-51.33,16.85-89.94,9.74-42.36,20.77-90.37,25.9-133.79,6.1-51.65,20.17-62.39,45.72-81.87,14.82-11.31,33.27-25.38,55.78-51.38,60.3-69.65,171.66-113.93,172.77-114.37a4,4,0,0,0-2.94-7.49Z"/><path fill="#318971" d="M3820,2283.39c-49,40.87-101.62,215.31-101.62,215.31l15.54,0a19.44,19.44,0,0,0,18.8-14.64c4-15.53,11.07-39.18,19.35-49.06,12.84-15.31,33.73-23.4,45-35.49s33.73-21.78,47.37-36.55.74-31.11,19.22-36.78,46.63-13,46.63-13,56.23-30.68,45.7-65.42S3868.93,2242.53,3820,2283.39Z"/><path fill="#ffc800" d="M765.13,1235.67s-70.29,66.89-191.37,126.58c0,0,27.91,227.3,73.86,278.44,55.21,61.41,95.24,52.39,117.51,84.07a0,0,0,0,1,0,0c22.27-31.63,62.3-22.66,117.46-84,46-51.14,73.91-278.44,73.91-278.44-119.2-58.73-189.21-124.48-191.37-126.53Z"/><path fill="#ff8733" d="M573.76,1362.25s27.91,227.3,73.86,278.44c55.21,61.41,95.24,52.39,117.51,84.07a0,0,0,0,1,0,0v-489l0,0S694.84,1302.56,573.76,1362.25Z"/><path fill="#ff8733" d="M765.18,1724.71c22.27-31.63,62.3-22.66,117.46-84,46-51.14,73.91-278.44,73.91-278.44-119.2-58.73-189.21-124.48-191.37-126.53Z"/><path fill="#ffb633" d="M603.45,1380.56s23.57,192,62.39,235.23c46.63,51.91,80.47,44.28,99.29,71,18.82-26.74,52.66-19.11,99.3-71,38.81-43.22,62.42-235.23,62.42-235.23-102.28-50.44-161.72-106.94-161.72-106.94S705.73,1330.12,603.45,1380.56Z"/><polygon fill="#fff" points="748.24 1508.6 718.22 1442.59 690.18 1459.42 744.36 1573.21 874.34 1400.85 847.11 1382.06 748.24 1508.6"/><circle cx="1619.62" cy="555.13" r="120.23" fill="#ff1870"/><rect width="41.71" height="54.55" x="1598.77" y="481.01" fill="#fff"/><rect width="55.51" height="39.15" x="1543.26" y="535.56" fill="#fff"/><rect width="41.71" height="54.55" x="1598.77" y="574.7" fill="#fff"/><rect width="55.51" height="39.15" x="1640.48" y="535.56" fill="#fff"/><rect width="41.71" height="39.15" x="1598.77" y="535.56" fill="#fff"/><path fill="#ad6ad2" d="M3587.34,564.89a155.18,155.18,0,1,0,155.18,155.18A155.17,155.17,0,0,0,3587.34,564.89Z"/><path fill="#ebc3fa" d="M3587.34,588.66a131.41,131.41,0,1,0,131.41,131.41A131.4,131.4,0,0,0,3587.34,588.66Z"/><path fill="#673e77" d="M3587.34,710.16a9.91,9.91,0,1,0,9.91,9.91A9.91,9.91,0,0,0,3587.34,710.16Z"/><path fill="#673e77" d="M3587.34,605.5c-2.73,0-5,2.77-5,6.18v102.2c0,3.42,2.22,6.19,5,6.19s5-2.77,5-6.19V611.68C3592.3,608.27,3590.08,605.5,3587.34,605.5Z"/><path fill="#673e77" d="M3593.6,719.24c-1.55-1.51-4.35-1.14-6.26.83s-2.19,4.77-.63,6.28l46.49,45.09c1.56,1.51,4.36,1.13,6.26-.83s2.19-4.78.64-6.28Z"/></g></svg>