<svg xmlns="http://www.w3.org/2000/svg" enable-background="new 0 0 630 630" viewBox="0 0 630 630"><polygon fill="#ffe7ff" points="615.279 522.631 29.815 522.631 15.279 59 615.279 79.652"/><path fill="#e6e3fc" d="M121.3647308,392.1132813l31.5813751,148.932312        c0.9680939,4.5397949-1.9562378,9.0281982-6.4943085,9.9960327l-89.9917297,19.0587769        c-4.5382729,0.9682617-9.0445938-1.9187622-9.9960556-6.4943237L14.9028778,414.7272339        c-0.9514618-4.5755615,1.9191723-9.0454712,6.4943123-9.9960632l89.9716949-19.1126709        C115.9087143,384.6515198,120.3984146,387.5742798,121.3647308,392.1132813z"/><rect width="4.296" height="136.458" x="81.77" y="409.65" fill="#b4afff" transform="rotate(-11.971 83.918 477.879)"/><path fill="#febb00" d="M44.6112938,422.8555298l5.4511528,25.7091675           c-7.0996208,1.5053406-14.0748787-3.0296326-15.5801697-10.1289978           C32.9769859,431.3363037,37.5116692,424.3608704,44.6112938,422.8555298z"/><path fill="#efac06" d="M60.1914635,432.9845276c1.505291,7.0993958-3.0291519,14.0747986-10.1290169,15.5801697           l-5.4511528-25.7091675C51.7111588,421.3501282,58.6861725,425.8851624,60.1914635,432.9845276z"/><path fill="#febb00" d="M51.3647461,454.7067261l5.4511528,25.7091675           c-7.0996246,1.5053406-14.0748787-3.0296326-15.5801697-10.1289978           C39.7304382,463.1875,44.2651215,456.2120667,51.3647461,454.7067261z"/><path fill="#efac06" d="M66.9449158,464.8357239c1.5052872,7.0993958-3.0291519,14.0747681-10.1290169,15.5801697           l-5.4511528-25.7091675C58.4646111,453.2013245,65.439621,457.7363586,66.9449158,464.8357239z"/><path fill="#febb00" d="M58.1181946,486.5578918l5.4511566,25.709198           c-7.0996246,1.5053101-14.0748787-3.0296326-15.5801697-10.1290283           C46.4838867,495.0386963,51.0185738,488.0632324,58.1181946,486.5578918z"/><path fill="#efac06" d="M73.6983643,496.6869202c1.5052948,7.0993652-3.0291519,14.0747681-10.1290131,15.5801697           l-5.4511566-25.709198C65.2180634,485.0525208,72.1930771,489.5875244,73.6983643,496.6869202z"/><path fill="#febb00" d="M64.8716507,518.4091187l5.451149,25.7091675           c-7.0996208,1.5053101-14.0748749-3.0296631-15.5801697-10.1290283           C53.237339,526.8898926,57.7720261,519.9144287,64.8716507,518.4091187z"/><path fill="#efac06" d="M80.4518204,528.5380859c1.5052872,7.0994263-3.0291519,14.0747681-10.1290207,15.5802002           l-5.451149-25.7091675C71.9715118,516.9036865,78.9465256,521.4387207,80.4518204,528.5380859z"/><path fill="#febb00" d="M97.512886,411.6387329l5.4511566,25.7091675           c-7.0996246,1.5053406-14.0748825-3.0296326-15.5801697-10.1289978           C85.8785782,420.1195068,90.4132614,413.1440735,97.512886,411.6387329z"/><path fill="#efac06" d="M113.0930557,421.7677307c1.5052948,7.0993958-3.0291519,14.0747986-10.1290131,15.5801697           l-5.4511566-25.7091675C104.6127548,410.1333313,111.5877686,414.6683655,113.0930557,421.7677307z"/><path fill="#febb00" d="M104.2663422,443.4899292l5.451149,25.7091675           c-7.0996246,1.5053406-14.0748749-3.0296326-15.5801697-10.1289978           C92.6320343,451.9707031,97.1667175,444.9952698,104.2663422,443.4899292z"/><path fill="#efac06" d="M119.8465118,453.618927c1.5052872,7.0993958-3.0291519,14.0747681-10.1290207,15.5801697           l-5.451149-25.7091675C111.3662033,441.9845276,118.341217,446.5195618,119.8465118,453.618927z"/><path fill="#febb00" d="M111.0197906,475.341095l5.4511566,25.709198           c-7.0996246,1.5053406-14.0748825-3.0296326-15.5801697-10.1290283           C99.3854828,483.8218994,103.920166,476.8464355,111.0197906,475.341095z"/><path fill="#efac06" d="M126.5999603,485.4701233c1.5052948,7.0993652-3.0291519,14.0747681-10.1290131,15.5801697           l-5.4511566-25.709198C118.1196518,473.8356934,125.0946655,478.3707275,126.5999603,485.4701233z"/><g><path fill="#febb00" d="M117.7732391,507.1922913l5.4511566,25.709198           c-7.0996246,1.5053101-14.0748825-3.0296631-15.5801697-10.1290283           C106.1389313,515.6730957,110.6736221,508.6976318,117.7732391,507.1922913z"/><path fill="#efac06" d="M133.3534088,517.3212891c1.5052948,7.0994263-3.0291443,14.0747681-10.1290131,15.5802002           l-5.4511566-25.709198C124.8731079,505.6868896,131.848114,510.2219238,133.3534088,517.3212891z"/></g><g><path fill="#7e5086" d="M187.7379608,83.1764603v463.6365967C187.7379608,560.1728516,198.2164001,571,211.1351776,571           h35.844162V59h-35.844162C198.2164001,59,187.7379608,69.8271408,187.7379608,83.1764603z"/><path fill="#a580aa" d="M199.1290588,77.6294708v474.7305908C199.1290588,562.6539917,207.474823,571,217.7687836,571           h260.1164551c10.2939758,0,18.6398621-8.3460083,18.6398621-18.6399536V77.6294708           C496.5250854,67.3355026,488.1791992,59,477.8852234,59H217.7687836           C207.474823,59,199.1290588,67.3355026,199.1290588,77.6294708z"/><path fill="#fff" d="M212.010437,80.9061661v468.1783142c0,4.7576904,3.8524933,8.6101074,8.5995178,8.6101074h254.430481           c4.7471313,0,8.5996399-3.852417,8.5996399-8.6101074V80.9061661c0-4.7576981-3.8525085-8.5997772-8.5996399-8.5997772           h-254.430481C215.8629303,72.3063889,212.010437,76.1590042,212.010437,80.9061661z"/><rect width="91.867" height="25.721" x="301.893" y="63.452" fill="#a580aa" transform="rotate(-180 347.827 76.312)"/><rect width="232.103" height="382.434" x="231.774" y="128.991" fill="#ffe7ff"/><polygon fill="#48236a" points="417.21 511.425 347.281 511.425 344.672 463.268 338.678 511.425 269.036 511.425 284.379 428.695 287.519 406.996 290.73 373.894 398.613 373.894 401.825 406.996 404.951 428.695"/><polygon fill="#3e195f" points="284.378 428.692 404.957 428.692 401.82 406.997 398.61 373.892 290.737 373.892 287.515 406.997"/><path fill="#ffadbf" d="M504.5122986,189.412323l-17.5458374,72.7940369                   c-1.7503357,8.0882263-8.8535461,13.8966064-17.1282959,14.0059204l-47.1314697-2.1911316l6.3338928-37.7430115                   l23.4193726,2.1251831l29.9490967-67.5458374L504.5122986,189.412323z"/><path fill="#010101" d="M346.9916687,135.0627289c4.6749573,2.5429993,8.4389954,6.7220001,10.4810181,11.6364899                   c2.0420227,4.9144745,2.3478699,10.5303955,0.8516541,15.6375732                   c-0.6506958,2.2210999-1.8620605,4.5633087-4.0594177,5.2901917                   c-2.2616882,0.7481537-4.7928467-0.5758514-6.1889954-2.5061035                   c-1.3961182-1.9302368-1.9138794-4.3400574-2.3984375-6.6724854                   c-0.5039063-2.4255676-1.0104065-4.8813477-0.9043274-7.3564301                   c0.1060791-2.4750671,0.8912964-5.0116425,2.6438293-6.762619"/><path fill="#6a86ff" d="M426.8621521,281.2982788h-31.0458679l16.8353271,142.6897583l-40.2938843-0.0100098                   l-24.5352783-0.0100098l-68.8380737-0.0310364l0.1538086-111.3262634l-6.3978271,12.6419373l-41.2373047-32.76828                   l25.3964844-47.5118561c7.228363-9.8839569,18.7218323-15.7077942,30.9536133-15.7077942l76.2948608,1.3813782                   l67.9329529,2.6376953L426.8621521,281.2982788z"/><polygon fill="#e6e3fc" points="426.862 281.298 395.816 281.298 427.848 495.683 372.718 495.683 365.375 320.208 347.825 229.257 347.302 221.042 361.832 230.495 432.081 233.284"/><path fill="#ffadbf" d="M361.8322144,179.3540039c0,15.9468536-12.0090332,28.8680267-26.8498535,28.8680267                   c-6.0529785,0-11.6180725-2.1484985-16.1105347-5.7939606                   c-2.0166016-1.6272583-3.839325-3.5469208-5.3696594-5.7271881                   c-1.1060181,0.8136292-2.4408875,1.2681122-3.90448,1.2681122                   c-3.6454468,0-6.5741882-2.9287567-6.5741882-6.5726166c0-3.3196716,2.4075317-6.0545654,5.5968933-6.5424194                   c-0.3257751-1.7893524-0.487854-3.6120758-0.487854-5.4999542                   c0-15.9468689,12.0090027-28.8998108,26.849823-28.8998108c6.0212097,0,11.552948,2.1484985,16.0453796,5.7272034                   C357.568573,161.4541016,361.8322144,169.8828125,361.8322144,179.3540039z"/><path fill="#010101" d="M364.9512939,151.450943c-5.2754517,5.063385-21.9089661,8.561203-32.8787842,10.3862152                   c-4.4807129,0.7454376-8.3965149,3.3098145-11.0593567,6.9897308                   c-1.7784119,2.4576569-4.7443237,4.0180511-4.7443237,4.0180511l3.5151672,14.8074646l-4.4591064,2.8318176                   c-2.0499573-4.7514801-6.7044983-5.6302643-6.7044983-5.6302643                   c-3.5435486,0.542038-6.1219482,3.8578491-5.5055847,7.6677094                   c0.5223389,3.228653,3.2426758,5.461319,6.5132751,5.4472656                   c1.4516602-0.0062408,2.7757263-0.4600525,3.8740845-1.2680511                   c1.5303345,2.1802673,3.3530579,4.0999298,5.3696594,5.7271881                   c-0.8136292,0.2939911-13.0336304,4.1849976-21.5771179-8.1680908                   c-12.9727173-18.7572784-3.7424011-23.8877106-3.7424011-23.8877106                   c-9.0150757-23.3680725,35.8527832-48.2663651,54.5011597-46.9315033                   C366.7018433,124.8074112,373.0542297,143.7055511,364.9512939,151.450943z"/><polygon fill="#ffadbf" points="346.584 203.238 347.825 229.257 315.945 229.257 318.872 202.428"/><polygon fill="#010101" points="347.926 186.723 347.295 184.825 353.449 182.78 345.709 168.759 347.46 167.792 356.363 183.92"/><path fill="#ffadbf" d="M352.1542969,229.262558c-2.0888672,9.9149933-9.5881653,17.3602448-20.3627319,17.3602448                c-10.7669067,0-19.7597351-7.4452515-21.8486938-17.3602448H352.1542969z"/><path fill="#e6e3fc" d="M350.131958,320.208313l-3.7035828,175.4749756l-83.0899658-4.4221802l15.7997742-178.6503906                l-6.3978271,12.6419373l-41.2373047-32.76828l25.3964844-47.5118561                c7.228363-9.8839569,18.7218323-15.7077942,30.9536133-15.7077942h22.0847168l6.900177-8.2223511l2.9119263,8.2223511                L350.131958,320.208313z"/><path fill="#ffadbf" d="M482.4090576,170.8574829l22.103241,18.5548401l20.9562683-1.141983              c7.0114136,0.3309479,13.6431274-3.2193298,17.2580566-9.2387848l3.1693726-5.2799835              c1.1712646-1.9372711-0.0790405-4.4455872-2.3348999-4.6731262l-40.7667236-1.7824097l4.4408569-7.7658386              c0.6357422-0.9131622,0.9741211-1.9614258,1.0235596-3.0084686              c0.0845337-1.7910309-0.6667786-3.5903015-2.1617126-4.7867432              c-2.2117004-1.7924652-5.3961487-1.6843262-7.5091858,0.2233429L482.4090576,170.8574829z"/><path fill="#010101" d="M308.4671326,358.4733582c2.8807678-8.0640564,9.2968445-13.6878967,16.76651-13.6878967              h85.4962158v13.6878967H308.4671326z"/><path fill="#b4afff" d="M408.9364014,358.4739075H365.377655l27.3118591-82.8874512               c1.0609741-3.7782898,4.5062256-6.3895569,8.4307861-6.3895569h7.8161011V358.4739075z"/><path fill="#d4c6ff" d="M496.0329285,280.3190002l-23.6044617,70.971283               c-1.4243469,4.2944031-5.4340515,7.1858215-9.9502563,7.1858215h-89.760376l27.3078918-82.8842773               c1.0657349-3.7881775,4.5056152-6.3944397,8.4308472-6.3944397h79.1454773               C493.394989,269.1973877,497.594574,274.7370605,496.0329285,280.3190002z"/><path fill="#b4afff" d="M433.9249573,329.2888184c4.2582092,0,8.5631104-3.4506531,9.6161194-7.7204285               c1.0410461-4.2703247-1.5793762-7.7330017-5.8374329-7.7330017c-4.27005,0-8.5749512,3.462677-9.6278381,7.7330017               C427.0346375,325.8381653,429.6550598,329.2888184,433.9249573,329.2888184z"/><path fill="#ffadbf" d="M323.1296387,351.7716064l-64.3587341-9.4796143l11.0345459-19.367981l-35.7708435-29.1160278             l-24.6402283,57.670105c-4.2250671,10.9516907,3.2808838,22.884552,14.9821014,23.818512l107.0296478,3.0307007             L323.1296387,351.7716064z"/><path fill="#ffadbf" d="M323.1296387,351.7716064l22.0167236-9.9643555            c1.9327393-1.5905151,4.7310181-1.5600281,6.603302,0.100769            c1.2582397,1.1073608,1.8522339,2.7180481,1.7012329,4.2884216            c-0.0805054,0.9156799-0.422821,1.8215332-1.0166931,2.5971069l-4.2076721,6.6334229l31.3557739,0.8382874            c1.9730225,0.2919617,2.9695435,5.6289673,1.8623047,7.2902527l-2.9895935,4.4992676            c-3.4125366,5.1441345-5.1588745,5.2846985-11.163269,6.6786194l-35.8856201,3.5939026"/><polygon fill="#d4c6ff" points="309.938 229.265 299.736 255.957 309.943 264.159 299.736 270.311 350.132 320.208 316.838 221.042"/><polygon fill="#d4c6ff" points="361.832 230.495 381.905 242.799 368.407 257.495 384.665 258.52 365.375 320.208 347.825 229.257 347.302 221.042"/><path fill="#f693f9" d="M548.6807251,421.2062378c-2.9880371,13.4845581-16.8497925,66.3029785-52.7182617,78.5911255        c-0.6541138,0.2180786-1.367218,0.2180786-2.015564,0c-35.8684082-12.288147-49.7301636-65.1065674-52.7240906-78.5911255        c-0.3771973-1.7149658,0.7131042-3.4006042,2.4281616-3.7836304        c29.8569641-6.6184998,43.4475708-22.4369507,48.6221619-30.5170593c1.2553406-1.962616,4.1019287-1.962616,5.3631592,0        c5.1687012,8.0801086,18.7652588,23.8985596,48.6221924,30.5170593        C547.9734497,417.8056335,549.0638428,419.491272,548.6807251,421.2062378z"/><path fill="#ff449c" d="M537.5579834,425.4461365c-3.9834595,15.4649048-15.9232178,52.0061951-41.5997009,62.0649719        c-0.6428223,0.2476196-1.3646851,0.2476196-2.0075073,0c-25.7185669-10.0745239-37.632019-46.6000671-41.6048889-62.0649719        c-0.3847046-1.5121765,0.521637-3.0455017,2.0285339-3.4459534        c20.4125366-5.4640808,32.1100159-15.5860291,38.3908081-23.2631531c1.1328125-1.3857727,3.2457275-1.3857727,4.3838806,0        c6.2755432,7.677124,17.9729614,17.7990723,38.380249,23.2578735        C537.036377,422.4006348,537.947876,423.93396,537.5579834,425.4461365z"/><g><polygon fill="#fff" points="501.079 442.711 508.646 446.895 505.766 452.098 497.928 447.751 497.928 456.703 491.978 456.703 491.978 447.751 484.14 452.098 481.26 446.895 488.826 442.711 481.26 438.513 484.14 433.31 491.978 437.657 491.978 428.692 497.928 428.692 497.928 437.657 505.766 433.31 508.646 438.513"/></g><g><path fill="#6a86ff" d="M127.4872742,167.8467255c0,8.1568909,3.3100128,15.5453491,8.659256,20.8796082         c5.3345337,5.3494263,12.7229919,8.6590881,20.8797913,8.6590881h104.3220673v-29.5386963         c0-16.3282166-13.2253723-29.5538483-29.5390625-29.5538483h-74.7830048         C140.7126312,138.2928772,127.4872742,151.5185089,127.4872742,167.8467255z"/><rect width="14.238" height="3.865" x="225.027" y="177.435" fill="#fff"/><rect width="39.252" height="3.865" x="175.8" y="177.435" fill="#fff"/><rect width="89.693" height="3.865" x="149.571" y="167.643" fill="#fff" transform="rotate(-180 194.418 169.576)"/><rect width="89.693" height="3.865" x="149.571" y="157.851" fill="#fff" transform="rotate(-180 194.418 159.784)"/></g><g><path fill="#6a86ff" d="M222.265152,565.5603638c0,2.6148071-2.1222839,4.7269897-4.7264404,4.7269897h-93.1683731         c-2.6041565,0-4.7264557-2.1121826-4.7264557-4.7269897V457.8847351c0-2.4916382,1.3533249-4.7680054,3.5269394-5.9674988         l26.9754791-14.8156738h41.5857697l26.9753571,14.8156738c2.1737366,1.1994934,3.5270691,3.4758606,3.5270691,5.9570007         L222.265152,565.5603638z"/><rect width="41.548" height="12.987" x="150.133" y="424.098" fill="#3e195f"/><path fill="#ff449c" d="M201.1504517,428.5667114h-60.4878387c-0.6673431,0-1.2083282-0.5409851-1.2083282-1.208313         v-21.0431519c0-0.6673584,0.5409851-1.2083435,1.2083282-1.2083435h60.4878387         c0.6673584,0,1.2083435,0.5409851,1.2083435,1.2083435v21.0431519         C202.3587952,428.0257263,201.8178101,428.5667114,201.1504517,428.5667114z"/><rect width="102.615" height="53.204" x="119.632" y="483.586" fill="#ff449c"/><rect width="39.886" height="8.186" x="150.996" y="498.248" fill="#fff"/><rect width="53.124" height="2.961" x="144.377" y="512.269" fill="#fff"/><rect width="12.454" height="2.961" x="144.377" y="519.585" fill="#fff"/><rect width="11.583" height="2.961" x="162.056" y="519.585" fill="#fff"/><rect width="12.454" height="2.961" x="185.048" y="519.585" fill="#fff"/></g></g><g><path fill="#f693f9" d="M604.6517334,111.512146c0,2.553215-1.6816406,4.7164383-3.9988403,5.4548645v6.459137       c0,8.2023315-6.6643677,14.8667297-14.8666992,14.8667297s-14.8667603-6.6643982-14.8667603-14.8667297v-13.9851151       l-18.3115234-15.7688675c-3.0656128-2.634819-4.4190674-6.5822906-3.6295776-10.5502853       c0.7894897-3.9680023,3.5474854-7.0949402,7.3922729-8.3560257l7.5974731-2.5121689v-3.2295685       c0-0.4821091,0.4101563-0.8305435,0.9638672-0.8305435h2.7784424c0.5537109,0,0.9637451,0.3484344,0.9637451,0.8305435       v7.9355011c0,0.4715881-0.4100342,0.8205338-0.9637451,0.8205338h-2.7784424       c-0.5537109,0-0.9638672-0.3489456-0.9638672-0.8205338v-1.0558319l-6.5105591,2.1427002       c-2.6453247,0.8715973-4.5421143,3.0248108-5.0854492,5.752243c-0.543396,2.7269363,0.3895264,5.4338455,2.5016479,7.2486343       l17.7785645,15.3177948l17.7785034-15.3177948c2.1019287-1.8147888,3.0349731-4.521698,2.4915161-7.2486343       c-0.5331421-2.7274323-2.4401855-4.8806458-5.0855103-5.752243l-6.510498-2.1427002v1.0558319       c0,0.4715881-0.4102173,0.8205338-0.9535522,0.8205338h-2.7888794c-0.5535889,0-0.9637451-0.3489456-0.9637451-0.8205338       v-7.9355011c0-0.4821091,0.4101563-0.8305435,0.9637451-0.8305435h2.7888794       c0.543335,0,0.9535522,0.3484344,0.9535522,0.8305435v3.2295685l7.5973511,2.5121689       c3.8448486,1.2610855,6.6130981,4.3880234,7.392334,8.3560257c0.7894897,3.9679947-0.5638428,7.9154663-3.6294556,10.5502853       l-18.3117065,15.7688675v13.9851151c0,6.2949371,5.1162109,11.411377,11.411377,11.411377       c6.2954102,0,11.4116211-5.1164398,11.4116211-11.411377v-6.459137       c-2.3171387-0.7284164-3.9986572-2.9016495-3.9986572-5.4548645c0-3.1679916,2.5632324-5.7312241,5.7210693-5.7312241       C602.088501,105.7809219,604.6517334,108.3441544,604.6517334,111.512146z"/></g><g><rect width="52.317" height="15.854" x="55.5" y="273.697" fill="#f693f9" transform="rotate(-34.587 81.658 281.624)"/><rect width="22.817" height="15.854" x="82.393" y="265.324" fill="#febb00" transform="rotate(-34.587 93.802 273.251)"/><rect width="8.144" height="6.679" x="52.698" y="295.445" fill="#ff449c" transform="rotate(145.413 56.77 298.785)"/><rect width="5.504" height="15.064" x="48.401" y="295.126" fill="#f693f9" transform="rotate(-34.587 51.152 302.658)"/><rect width="5.18" height="7.77" x="102.736" y="261.42" fill="#f693f9" transform="rotate(-34.587 105.326 265.305)"/><polygon fill="#f693f9" points="132.446 246.623 108.194 264.902 106.717 262.76"/></g><g><path fill="#7e5086" d="M537.3218994,367.5375977c-0.2822266,0-0.5625-0.1186523-0.7602539-0.3500977     c-0.359375-0.4196777-0.3100586-1.0507813,0.1098633-1.4099121c18.262207-15.6208496,29.355957-39.7609863,29.5380859-63.8076172     c-2.0200195,0.052002-4.0991211-0.1276855-6.1791992-0.5488281c-3.8691406-0.7836914-9.105957-2.671875-12.0839844-7.2189941     c-2.6411133-4.0327148-2.6245117-10.4904785,1.6103516-13.6765137     c4.5087891-3.3925781,11.0639648-1.2458496,14.3554688,2.8867188c3.3681641,4.229248,4.0263672,9.9360352,4.2231445,14.4353027     c0.0292969,0.6635742,0.0498047,1.3278809,0.0625,1.9921875c5.1245117-0.5546875,9.6738281-2.7302246,12.550293-6.2116699     c5.4213867-6.5612793,4.6508789-16.0739746,3.3974609-25.2548828l-4.652832-34.0815582     c-0.074707-0.5471191,0.3081055-1.0512695,0.8554688-1.1259766c0.5454102-0.0761719,1.0517578,0.3078613,1.1259766,0.8554688     l4.652832,34.0815582c1.3134766,9.6203613,2.0996094,19.6142578-3.8369141,26.7993164     c-3.2441406,3.9262695-8.3603516,6.3640137-14.0795898,6.942627     c-0.1464844,24.6601563-11.5102539,49.4328613-30.2392578,65.4528809     C537.7828369,367.4587402,537.5518799,367.5375977,537.3218994,367.5375977z M554.7105713,280.8623047     c-1.4116211,0-2.784668,0.3835449-3.9516602,1.2614746c-3.2895508,2.4750977-3.2407227,7.7744141-1.1396484,10.982666     c2.0283203,3.097168,5.8666992,5.3537598,10.8076172,6.354248c1.9467773,0.3942871,3.8876953,0.5603027,5.7729492,0.5119629     c-0.012207-0.6799316-0.0327148-1.3583984-0.0625-2.0375977c-0.1835938-4.1967773-0.7802734-9.498291-3.7895508-13.2766113     C560.5743408,282.4318848,557.5640869,280.8623047,554.7105713,280.8623047z"/></g><g><path fill="#7e5086" d="M578.8809814,223.4279633c-0.4921875,0-0.9208984-0.3632813-0.9892578-0.8647461l-2.0668945-15.1416016     c-0.074707-0.5471191,0.3081055-1.0512695,0.8554688-1.1259766c0.5429688-0.0744629,1.0512695,0.3076172,1.1259766,0.8554688     l2.0668945,15.1416016c0.074707,0.5471191-0.3081055,1.0512695-0.8554688,1.1259766     C578.9718018,223.4250336,578.9263916,223.4279633,578.8809814,223.4279633z"/></g><g><path fill="#7e5086" d="M78.8248367,246.4955902c-0.3383789,0-0.668457-0.171875-0.8564453-0.482666     c-7.6240234-12.6003418-9.4628906-28.4003906-5.3759766-42.4941406     c-6.1831055-3.9091797-11.0747108-10.708252-13.0664101-18.6953125     c-2.1601563-8.6618652-1.3867188-18.6669922,2.3632813-30.5871582     c6.2045937-19.7207031,17.7578163-37.6115646,33.4101601-51.7387619     c0.4101563-0.3701172,1.0429688-0.3371582,1.4121094,0.0725098c0.3701172,0.4099121,0.3378906,1.0422363-0.0722656,1.4123535     c-15.3876953,13.8881836-26.7446289,31.473381-32.8418007,50.8539963     c-3.6367188,11.5585938-4.3989258,21.2092285-2.3310547,29.5031738     c1.8203125,7.2995605,6.1987343,13.5292969,11.741703,17.2033691c0.8754883-2.6247559,1.9614258-5.1794434,3.2597656-7.6335449     c3.0175781-5.7060547,8.9243164-11.8032227,15.6264648-10.2109375c2.8613281,0.6794434,5.2163086,2.8337402,6.4599609,5.9099121     c1.4580078,3.6047363,1.1572266,7.7299805-0.784668,10.765625c-3.309082,5.173584-10.5605469,7.7475586-17.6298828,6.2614746     c-1.9897461-0.4182129-3.9233398-1.1276855-5.7631836-2.0883789     c-3.7612305,13.4445801-1.9501953,28.4428711,5.3027344,40.4306641c0.2861328,0.4724121,0.1347656,1.0871582-0.3378906,1.3730469     C79.1798172,246.4489594,79.0011063,246.4955902,78.8248367,246.4955902z M74.9644852,202.5998383     c1.7788086,0.9650879,3.6542969,1.6723633,5.5864258,2.0786133c5.1357422,1.0788574,12.184082-0.1450195,15.5341797-5.3820801     c1.5742188-2.4611816,1.815918-5.9697266,0.6152344-8.9379883c-0.9980469-2.4680176-2.8452148-4.1860352-5.0678711-4.7141113     c-5.5961914-1.3261719-10.7128906,4.1259766-13.3969727,9.2001953     C76.919075,197.3334808,75.8292313,199.9304047,74.9644852,202.5998383z"/></g><g><path fill="#7e5086" d="M107.6925125,94.9584885c-0.3173828,0-0.6293945-0.1506348-0.8237305-0.4316406     c-0.3139648-0.4543457-0.2001953-1.0771484,0.2543945-1.3911133c3.2504883-2.2458496,6.6381836-4.3352051,10.0698242-6.2099609     c0.4853516-0.2644043,1.0917969-0.0866699,1.3569336,0.3981934s0.0864258,1.0922852-0.3979492,1.3571777     c-3.3706055,1.8413086-6.6987305,3.8935547-9.8920898,6.1000977     C108.0865555,94.9011154,107.8883133,94.9584885,107.6925125,94.9584885z"/></g></svg>