<svg xmlns="http://www.w3.org/2000/svg" data-name="图层 1" viewBox="0 0 4000 3000"><defs><clipPath id="a"><rect width="1360.91" height="918.07" x="2059.61" y="1694.09" fill="#fff" stroke="#020000" stroke-miterlimit="10" stroke-width="3"/></clipPath><clipPath id="b"><path fill="#fff" stroke="#020000" stroke-miterlimit="10" stroke-width="3" d="M985.83,2535.32c139.44,43,226.66-47.82,215.72-55.37,18.69-433.64,22.31-1124.53-49.27-1221.41s-241.1,73.86-241.1,73.86l73.39,542.15Z"/></clipPath><clipPath id="c"><path fill="#fff" stroke="#020000" stroke-miterlimit="10" stroke-width="3" d="M1129.66,1200.93s-246-61.74-338.33,57.61-66.62,754.54-66.62,754.54-89,494.27-62.16,515,119.57,37.26,172.07,5.38S927.27,1973.91,943.84,1891l117.51-436.4"/></clipPath><clipPath id="d"><path fill="#fff" stroke="#020000" stroke-miterlimit="10" stroke-width="3" d="M763.29,1325.9c133.29,34.18,394.52-67.36,394.52-67.36s-19.27-540.07-38.41-556c-18.79-15.61-374.51,19.79-439.32,88.85C645.15,828.64,750.48,1168.62,763.29,1325.9Z"/></clipPath><clipPath id="e"><path fill="#fff" stroke="#020000" stroke-miterlimit="10" stroke-width="3" d="M1102.6,860.12,1134,1040.91l-248.72,98.76c-20.11,72.23-6.43,170,25.87,192.73s351.92-124.56,368.33-146.54c56.83-76.1.4-485.65-169.73-485.93"/></clipPath><clipPath id="f"><polyline fill="#fff" stroke="#020000" stroke-miterlimit="10" stroke-width="3" points="938.54 771.92 853.37 713.51 863.18 588.54 971.7 562.08 980.57 715.92 961.11 764.87"/></clipPath><clipPath id="g"><path fill="#fff" stroke="#020000" stroke-miterlimit="10" stroke-width="3" d="M984.37,448.73c42,4.72,34.87,81.75,52.65,110.29s16,162.81-95.38,91.67S840.52,488.88,840.52,488.88Z"/></clipPath><clipPath id="h"><path fill="#020000" stroke="#020000" stroke-miterlimit="10" stroke-width="3" d="M898.57,538.41c-7.88,14.32-56.47,30.44-56.47,30.44l-1.29-8.42c-46.11-93.19-13.55-137.54,42.72-142s76-42.63,109.69-26,41.78,58.08-4.61,66.87-118.83,11.52-118.83,11.52"/></clipPath><clipPath id="i"><path fill="#fff" d="M1014.66,522.87c4.39,32.87-29,36.64-35.32,6.37C975,496.37,1008.31,492.6,1014.66,522.87Z"/></clipPath><clipPath id="j"><path fill="#fff" stroke="#020000" stroke-miterlimit="10" stroke-width="3" d="M911,1115.45c30.46-8.17,27.19-53.58,27.11-65.16,48.27-89.71,154.77-18,82.85,21.73C992.83,1152,838.56,1321.78,911,1115.45Z"/></clipPath><clipPath id="k"><path fill="#fff" stroke="#020000" stroke-miterlimit="10" stroke-width="3" d="M736.52,955.05l34.22,198.64c75.07-33.79,114.4-50.09,136.26-47,28.11,4,29,141.19,38.14,213.23-67.76,59.28-271.86,145-324.55-46.72-56.07-159.75-52.53-432.74,62.47-484.71"/></clipPath><clipPath id="l"><path fill="#fff" stroke="#020000" stroke-miterlimit="10" stroke-width="3" d="M1062.89,2675.26l161.93-364.19S993,2129.35,1076.49,1709.23s732.17-383.64,732.17-383.64L2089,1605.23,1893.88,2249l.57,429.85Z"/></clipPath><clipPath id="m"><path fill="#fff" stroke="#020000" stroke-miterlimit="10" stroke-width="3" d="M1049.11,1353.35a77.12,77.12,0,0,0-13,59.42c37.85,194.7,85.77,313.39,167.12,291.19,102.36-27.93-13.31-389.13-22.46-397.29C1172.6,1299.44,1099.82,1282,1049.11,1353.35Z"/></clipPath><clipPath id="n"><path fill="#fff" stroke="#020000" stroke-miterlimit="10" stroke-width="3" d="M1149.27,1261.59a55.5,55.5,0,0,0-7.63,40.56c41.16,204.71,93.14,330.2,182.3,307.11,110.63-28.66-14.35-399.11-24.25-407.48C1290.48,1194,1204.07,1174.64,1149.27,1261.59Z"/></clipPath><clipPath id="o"><path fill="#fff" stroke="#020000" stroke-miterlimit="10" stroke-width="3" d="M1281.92,1129.65a43.32,43.32,0,0,0-5.69,31.69c44.62,212.58,100.9,343.27,197.94,319.41,119.55-29.4-15.49-409.34-26.18-417.93C1437.83,1054.66,1340.88,1034.19,1281.92,1129.65Z"/></clipPath><clipPath id="p"><path fill="#fff" stroke="#020000" stroke-miterlimit="10" stroke-width="3" d="M1455.23,1045a46.15,46.15,0,0,0-6.33,34.61c48.26,223.43,109.17,360.74,214.1,335.64,129.42-31,3.76-421.14-28.32-440.1C1622.65,968.05,1519.1,945.09,1455.23,1045Z"/></clipPath><clipPath id="q"><path fill="#fff" stroke="#020000" stroke-miterlimit="10" stroke-width="3" d="M1886,2298.32s183.72-201.78,200.51-337.07c5.4-43.54,20.15-85.29,44.71-121.64,62.93-93.11,168.31-247.61,188-267.36,47.64-47.76-153.66-132.54-310.94,133.16-65.6,110.81-120.42,194.55-160.26,255.75"/></clipPath><clipPath id="r"><path fill="#fff" stroke="#020000" stroke-miterlimit="10" stroke-width="3" d="M2728.91,2367.7c-1.46,9.3-7.29,237.33-7.29,237.33l-93.12-10-27.59-255.53Z"/></clipPath><clipPath id="s"><path fill="#fff" stroke="#020000" stroke-miterlimit="10" stroke-width="3" d="M3035,2372.53c-1,9.34,3.15,237.4,3.15,237.4l-93.49-6.62L2905.81,2349Z"/></clipPath><clipPath id="t"><path fill="#06d1c3" stroke="#020000" stroke-miterlimit="10" stroke-width="3" d="M2808.58,2405.76c31.83-23.06,45-1265.14,45-1265.14L2619,1162.06c-.06-1.48-79.86-821-46.65,1251.24C2694.44,2465.27,2776.75,2428.82,2808.58,2405.76Z"/></clipPath><clipPath id="u"><path fill="#06d1c3" stroke="#020000" stroke-miterlimit="10" stroke-width="3" d="M2726.77,1338.66c32.55,326-4.06,1063,132.66,1093.48,104.66,23.34,246.19-6.08,271-37.47s-147.1-653.21-163.89-851.59c-2.64-219.78,76-469.87-261.54-391.83"/></clipPath><clipPath id="v"><path fill="#fff" stroke="#020000" stroke-miterlimit="10" stroke-width="3" d="M2981.86,904.33c.43-431.52-324.88-345-391.49-221.7-20,67.29-60.35,355.73-26.23,475.26,28.45,20.62,124.18,20.84,206.55,21.19C3011.53,1196.07,3000.7,1164.35,2981.86,904.33Z"/></clipPath><clipPath id="w"><path fill="#fff" stroke="#020000" stroke-miterlimit="10" stroke-width="3" d="M2364.69,867.72c-351.59-15.3-344-139.54-382-117,47.06,67.84-63.73,20.71-105.46,67-73.16,50.15,78.92,16.29,122.69,31,115.9,33.71,370.88,116,376.17,114.57Z"/></clipPath><clipPath id="x"><path fill="#fff" stroke="#020000" stroke-miterlimit="10" stroke-width="3" d="M3023,1066.82c307.6,126.17,104.54-449.52-197.81-475.63,0,0,50.58,141.43-20.85,236.66s-62.29,501.9,179.15,657.71,225.43,342.77,225.43,342.77,83.62-68.56-91.9-332.38S3023,1066.82,3023,1066.82Z"/></clipPath><clipPath id="y"><path fill="#fff" stroke="#020000" stroke-miterlimit="10" stroke-width="3" d="M2728.89,512c-3,38.81-66.07,117.89-33.79,144.95,168.77,32.5,123.9-137.88,129.79-206.3Z"/></clipPath><clipPath id="z"><path fill="#fff" stroke="#020000" stroke-miterlimit="10" stroke-width="3" d="M2331.16,861.89c13.12,16.16-17.19,58.2-38.85,76.88-4.33,31.14-39,142.22,154.66,120.15,118.81-13.54,173.86-368.34,206.48-432.25-83.07,12.68-137.82,83.53-260.21,231.81C2382.06,857.45,2331.44,853.61,2331.16,861.89Z"/></clipPath><clipPath id="A"><path fill="#2660f5" stroke="#020000" stroke-miterlimit="10" stroke-width="3" d="M2976.83,1076.25c-86.37-.07-235.39,67.7-223.39-26.42-11.42-92.72-37.09-212.5-32.13-234.72,16.32-25.31,68.11-14.65,144.78-29.37,72.56-9.69,85.44-15.94,92.79,16.85C2959.54,873.42,3023.79,1069.34,2976.83,1076.25Z"/></clipPath><clipPath id="B"><path fill="#fff" stroke="#020000" stroke-miterlimit="10" stroke-width="3" d="M2732.88,901.23c-1,43.19-34.28,114.56,86.71,71.49,15.06-26.45,220,128.26,285.14,74.93,56.15-71-75-92.5-168.47-112.43C2826,912.47,2859.12,887.64,2732.88,901.23Z"/></clipPath><clipPath id="C"><path fill="#fff" stroke="#020000" stroke-miterlimit="10" stroke-width="3" d="M2675.05,326.07c-7.32,102.51-91.44,171.39,13.66,210.84C2820.05,586.22,2850,352.31,2850,352.31Z"/></clipPath><clipPath id="D"><path fill="#020000" stroke="#020000" stroke-miterlimit="10" stroke-width="3" d="M2669.13,367.92c27.46-69.56,30.78,8.8,63.73,3.92s76.89-11.6,74.45,48.81,18.91,51.87,18.91,51.87,64.68-5,53.09-65.07c23.8-11.21,19.53-46-12.81-61.85,3.66-46.38-20.75-54.92-49.43-42.11-39.05-65.9-80.51-67.73-103.13-21.35-51.86-12.21-84.2,27.45-59.8,49.42-40.27,26.85,5.73,63.5,5.73,63.5Z"/></clipPath><clipPath id="E"><path fill="#fff" d="M2722.37,420.45c-9.5,26.56,16.57,35.91,27.71,10.73C2760.07,403.32,2733,396.21,2722.37,420.45Z"/></clipPath><clipPath id="F"><path fill="#fff" d="M2667.44,403.37c-8.58,24.11,12.79,31.76,22.64,8.95C2699.07,387.14,2676.88,381.34,2667.44,403.37Z"/></clipPath><clipPath id="G"><rect width="945.47" height="239.21" x="2029.18" y="1782.24" fill="#fff" stroke="#020000" stroke-miterlimit="10" stroke-width="3" rx="49.39"/></clipPath></defs><g opacity=".3"><path fill="#06d1c3" d="M2289.2,742.48,2410.48,217.2c10.11-43.8,70.9-49.32,88.45-8l153.9,361.93c13.26,31.19,54.87,37.91,77.72,12.55L3059.21,219c29.49-32.72,83.91-10.48,81.27,33.2L3124,524.72c-2,33.37,31.28,57.58,62.88,45.73L3505.33,451c43.59-16.36,81.53,33.57,53.69,70.64L3317,844a45.85,45.85,0,0,0,2.86,58.71l233.74,253.49c28.24,30.63,4.27,79.92-37.62,77.36l-428.23-26.16a46.8,46.8,0,0,0-49.31,40.08l-47.75,345.89c-5.48,39.67-55.78,54.4-81.84,24L2621.3,1281.51a46.7,46.7,0,0,0-45.88-15l-406.82,92.86c-43,9.82-74.23-39.49-46.64-73.73L2241.74,1137a45.86,45.86,0,0,0-15.79-70.26L1982.64,949.24c-37.58-18.14-33.6-72.47,6.26-85.43l269.18-87.53A46.65,46.65,0,0,0,2289.2,742.48Z"/><path fill="#06d1c3" d="M1104.09,2500.88c11.54,11.09,30.39,8.94,39.48-4.63l253.69-378.32c-78.78,245.05-14.56,516,170.53,693.89,11.54,11.09,30.39,8.94,39.49-4.63l722.16-1077c9.1-13.57,3.93-31.82-10.71-38.29-234.84-103.7-509.89-60.24-706.68,105.67l253.69-378.32c9.09-13.57,3.93-31.82-10.71-38.29-292.9-129.33-648.38-29.8-836.52,250.78S873.24,2279,1104.09,2500.88Z"/><path fill="#06d1c3" d="M649.28,2129.52c11.48,10.7,30,8.15,38.92-5.15l330.31-492.59,330.3-492.59c8.92-13.3,4.25-31.4-10-38C1048.29,967.66,705.22,1048,532.36,1305.79S415.41,1911.47,649.28,2129.52Z"/></g><rect width="1360.91" height="918.07" x="2139.09" y="1694.09" fill="#fff" stroke="#020000" stroke-miterlimit="10" stroke-width="3"/><path fill="#06d1c3" stroke="#020000" stroke-miterlimit="10" stroke-width="3" d="M2139.09,1400.48H3447.74a52.26,52.26,0,0,1,52.26,52.26v241.35a0,0,0,0,1,0,0H2139.09a0,0,0,0,1,0,0V1400.48A0,0,0,0,1,2139.09,1400.48Z"/><path fill="#2660f5" stroke="#020000" stroke-miterlimit="10" stroke-width="3" d="M2094.82,1400.48H3385.3a35.22,35.22,0,0,1,35.22,35.22v258.39a0,0,0,0,1,0,0H2059.61a0,0,0,0,1,0,0V1435.7A35.22,35.22,0,0,1,2094.82,1400.48Z"/><rect width="1360.91" height="918.07" x="2059.61" y="1694.09" fill="#fff"/><g clip-path="url(#a)"><path fill="#eff1f7" d="M2003.5,1821.2c-19.84-154.73,1382.85-75.68,1294.51-127.11S1809.09,1599,1809.09,1599l11.9,218.22"/></g><rect width="1360.91" height="918.07" x="2059.61" y="1694.09" fill="none" stroke="#020000" stroke-miterlimit="10" stroke-width="3"/><path fill="#06d1c3" stroke="#020000" stroke-miterlimit="10" stroke-width="3" d="M3130.9,2396.37c228.14,37.69,289.64-192.44,289.64-192.44S3389.79,2561,3154.7,2612.16C3154.7,2612.16,3226.12,2477.7,3130.9,2396.37Z"/><circle cx="2215.83" cy="1499.67" r="69.43" fill="#0749a8"/><rect width="67.45" height="212.27" x="2182.11" y="1287.4" fill="#fff" stroke="#020000" stroke-miterlimit="10" stroke-width="3" rx="30.2"/><circle cx="2565.32" cy="1499.67" r="69.43" fill="#0749a8"/><rect width="67.45" height="212.27" x="2531.59" y="1287.4" fill="#fff" stroke="#020000" stroke-miterlimit="10" stroke-width="3" rx="30.2"/><circle cx="2914.8" cy="1499.67" r="69.43" fill="#0749a8"/><rect width="67.45" height="212.27" x="2881.08" y="1287.4" fill="#fff" stroke="#020000" stroke-miterlimit="10" stroke-width="3" rx="30.2"/><circle cx="3264.29" cy="1499.67" r="69.43" fill="#0749a8"/><rect width="67.45" height="212.27" x="3230.56" y="1287.4" fill="#fff" stroke="#020000" stroke-miterlimit="10" stroke-width="3" rx="30.2"/><path fill="none" stroke="#020000" stroke-miterlimit="10" stroke-width="3" d="M3109.19,2163.13a158.12,158.12,0,0,1-42.41,76.75"/><path fill="none" stroke="#020000" stroke-miterlimit="10" stroke-width="3" d="M2255,2387.09l-14,7"/><path fill="#fff" stroke="#020000" stroke-miterlimit="10" stroke-width="3" d="M1028.9,2605.44c-12.79,6.23-18.64-15.7-16.85,14.43a18.45,18.45,0,0,0,15.63,17.09l82.22,12.39C1120,2582.71,1058.73,2615.38,1028.9,2605.44Z"/><path fill="#2660f5" stroke="#020000" stroke-miterlimit="10" stroke-width="3" d="M1016.66,2557c-4.65,5.55-6.07,29-6.48,46.08-.22,9.46,6.89,17.79,16.33,18.34,69.79,4,132.48,80.64,316,46.37,4.71-83.84-170.46-7-201.54-159.69C1113.2,2371.67,1016.66,2557,1016.66,2557Z"/><path fill="#fff" d="M985.83,2535.32c139.44,43,226.66-47.82,215.72-55.37,18.69-433.64,22.31-1124.53-49.27-1221.41s-241.1,73.86-241.1,73.86l73.39,542.15Z"/><g clip-path="url(#b)"><g opacity=".29"><rect width="1462.24" height="80.81" x="-179.61" y="1633.64" fill="#fff" stroke="#020000" stroke-miterlimit="10" stroke-width="3" transform="rotate(-64.72 551.43 1673.98)"/><rect width="1462.24" height="80.81" x="-40.25" y="1699.47" fill="#fff" stroke="#020000" stroke-miterlimit="10" stroke-width="3" transform="rotate(-64.72 690.78 1739.806)"/><rect width="1462.24" height="80.81" x="99.11" y="1765.29" fill="#fff" stroke="#020000" stroke-miterlimit="10" stroke-width="3" transform="rotate(-64.72 830.13 1805.631)"/><rect width="1462.24" height="80.81" x="238.47" y="1831.12" fill="#fff" stroke="#020000" stroke-miterlimit="10" stroke-width="3" transform="rotate(-64.72 969.475 1871.465)"/><rect width="1462.24" height="80.81" x="377.82" y="1896.94" fill="#fff" stroke="#020000" stroke-miterlimit="10" stroke-width="3" transform="rotate(-64.72 1108.817 1937.286)"/><rect width="1462.24" height="80.81" x="517.18" y="1962.77" fill="#fff" stroke="#020000" stroke-miterlimit="10" stroke-width="3" transform="rotate(-64.72 1248.167 2003.111)"/><rect width="1462.24" height="80.81" x="656.54" y="2028.6" fill="#fff" stroke="#020000" stroke-miterlimit="10" stroke-width="3" transform="rotate(-64.72 1387.517 2068.937)"/><rect width="1462.24" height="80.81" x="795.9" y="2094.42" fill="#fff" stroke="#020000" stroke-miterlimit="10" stroke-width="3" transform="rotate(-64.72 1526.862 2134.77)"/></g><g opacity=".27"><rect width="80.81" height="1462.24" x="1229.25" y="685.57" fill="#fff" stroke="#020000" stroke-miterlimit="10" stroke-width="3" transform="rotate(-64.72 1269.54 1416.653)"/><rect width="80.81" height="1462.24" x="1163.42" y="824.93" fill="#fff" stroke="#020000" stroke-miterlimit="10" stroke-width="3" transform="rotate(-64.72 1203.714 1556.003)"/><rect width="80.81" height="1462.24" x="1104.6" y="968.95" fill="#fff" stroke="#020000" stroke-miterlimit="10" stroke-width="3" transform="rotate(-64.72 1144.885 1700.019)"/><rect width="80.81" height="1462.24" x="1031.77" y="1103.64" fill="#fff" stroke="#020000" stroke-miterlimit="10" stroke-width="3" transform="rotate(-64.72 1072.062 1834.703)"/><rect width="80.81" height="1462.24" x="965.94" y="1243" fill="#fff" stroke="#020000" stroke-miterlimit="10" stroke-width="3" transform="rotate(-64.72 1006.229 1974.048)"/><rect width="80.81" height="1462.24" x="900.12" y="1382.36" fill="#fff" stroke="#020000" stroke-miterlimit="10" stroke-width="3" transform="rotate(-64.72 940.403 2113.398)"/><rect width="80.81" height="1462.24" x="834.29" y="1521.71" fill="#fff" stroke="#020000" stroke-miterlimit="10" stroke-width="3" transform="rotate(-64.72 874.582 2252.74)"/><rect width="80.81" height="1462.24" x="768.47" y="1661.07" fill="#fff" stroke="#020000" stroke-miterlimit="10" stroke-width="3" transform="rotate(-64.72 808.757 2392.09)"/></g><path fill="none" stroke="#020000" stroke-miterlimit="10" stroke-width="3" d="M957,2472.36c124.84,31.5,233.82-19.76,271.4-50.66"/><path fill="#eff1f7" d="M1066.6,1435.12c47.78-111.84-47.89,497.16-56.57,876.52C972.76,2492,747.42,1755.89,747.42,1755.89L990.93,1470"/></g><path fill="none" stroke="#020000" stroke-miterlimit="10" stroke-width="3" d="M985.83,2535.32c139.44,43,226.66-47.82,215.72-55.37,18.69-433.64,22.31-1124.53-49.27-1221.41s-241.1,73.86-241.1,73.86l73.39,542.15Z"/><path fill="#fff" stroke="#020000" stroke-miterlimit="10" stroke-width="3" d="M697.55,2691.52c14.34-11.29,117.92-30.13,99.68-69.61C731.29,2610.83,721.67,2664.45,697.55,2691.52Z"/><path fill="#2660f5" stroke="#020000" stroke-miterlimit="10" stroke-width="3" d="M677.62,2525.09c83.71,33.3,127.4-12.68,125.57,20.72,8.83,19.53,4.54,63.56-3.82,81.59-17.2,37.12-58.07,44.27-82.29,62.62-55.91,74.24-264.26,77.48-207.32,19.65C543.18,2684.55,637.87,2669.87,677.62,2525.09Z"/><path fill="#fff" d="M1129.66,1200.93s-246-61.74-338.33,57.61-66.62,754.54-66.62,754.54-89,494.27-62.16,515,119.57,37.26,172.07,5.38S927.27,1973.91,943.84,1891l117.51-436.4"/><g clip-path="url(#c)"><g opacity=".29"><rect width="1462.24" height="80.81" x="-322.76" y="1603.34" fill="#fff" stroke="#020000" stroke-miterlimit="10" stroke-width="3" transform="rotate(-64.72 408.278 1643.667)"/><rect width="1462.24" height="80.81" x="-183.41" y="1669.16" fill="#fff" stroke="#020000" stroke-miterlimit="10" stroke-width="3" transform="rotate(-64.72 547.623 1709.501)"/><rect width="1462.24" height="80.81" x="-44.05" y="1734.99" fill="#fff" stroke="#020000" stroke-miterlimit="10" stroke-width="3" transform="rotate(-64.72 686.973 1775.327)"/><rect width="1462.24" height="80.81" x="95.31" y="1800.82" fill="#fff" stroke="#020000" stroke-miterlimit="10" stroke-width="3" transform="rotate(-64.72 826.323 1841.152)"/><rect width="1462.24" height="80.81" x="234.67" y="1866.64" fill="#fff" stroke="#020000" stroke-miterlimit="10" stroke-width="3" transform="rotate(-64.72 965.673 1906.978)"/><rect width="1462.24" height="80.81" x="374.02" y="1932.47" fill="#fff" stroke="#020000" stroke-miterlimit="10" stroke-width="3" transform="rotate(-64.72 1105.018 1972.812)"/><rect width="1462.24" height="80.81" x="513.38" y="1998.29" fill="#fff" stroke="#020000" stroke-miterlimit="10" stroke-width="3" transform="rotate(-64.72 1244.368 2038.637)"/><rect width="1462.24" height="80.81" x="652.74" y="2064.12" fill="#fff" stroke="#020000" stroke-miterlimit="10" stroke-width="3" transform="rotate(-64.72 1383.718 2104.463)"/></g><g opacity=".27"><rect width="80.81" height="1462.24" x="1086.09" y="655.27" fill="#fff" stroke="#020000" stroke-miterlimit="10" stroke-width="3" transform="rotate(-64.72 1126.39 1386.353)"/><rect width="80.81" height="1462.24" x="1020.26" y="794.62" fill="#fff" stroke="#020000" stroke-miterlimit="10" stroke-width="3" transform="rotate(-64.72 1060.565 1525.703)"/><rect width="80.81" height="1462.24" x="954.44" y="933.98" fill="#fff" stroke="#020000" stroke-miterlimit="10" stroke-width="3" transform="rotate(-64.72 994.737 1665.04)"/><rect width="80.81" height="1462.24" x="888.61" y="1073.34" fill="#fff" stroke="#020000" stroke-miterlimit="10" stroke-width="3" transform="rotate(-64.72 928.91 1804.39)"/><rect width="80.81" height="1462.24" x="822.79" y="1212.69" fill="#fff" stroke="#020000" stroke-miterlimit="10" stroke-width="3" transform="rotate(-64.72 863.085 1943.74)"/><rect width="80.81" height="1462.24" x="756.96" y="1352.05" fill="#fff" stroke="#020000" stroke-miterlimit="10" stroke-width="3" transform="rotate(-64.72 797.26 2083.09)"/><rect width="80.81" height="1462.24" x="691.14" y="1491.41" fill="#fff" stroke="#020000" stroke-miterlimit="10" stroke-width="3" transform="rotate(-64.72 731.426 2222.435)"/><rect width="80.81" height="1462.24" x="625.31" y="1630.77" fill="#fff" stroke="#020000" stroke-miterlimit="10" stroke-width="3" transform="rotate(-64.72 665.6 2361.785)"/></g><path fill="none" stroke="#020000" stroke-miterlimit="10" stroke-width="3" d="M633.85,2458c79.58,77.9,229.84,12,229.84,12"/><path fill="#eff1f7" d="M674.46,1909.73c222.1-51.2,19.46-490.72,211.38-537.74s342.73-149.51,213.48-142.9S724.5,1247.7,724.5,1247.7l-23.74,323.7"/></g><path fill="none" stroke="#020000" stroke-miterlimit="10" stroke-width="3" d="M1129.66,1200.93s-246-61.74-338.33,57.61-66.62,754.54-66.62,754.54-89,494.27-62.16,515,119.57,37.26,172.07,5.38S927.27,1973.91,943.84,1891l117.51-436.4"/><path fill="#fff" d="M763.29,1325.9c133.29,34.18,394.52-67.36,394.52-67.36s-19.27-540.07-38.41-556c-18.79-15.61-374.51,19.79-439.32,88.85C645.15,828.64,750.48,1168.62,763.29,1325.9Z"/><g clip-path="url(#d)"><g opacity=".16"><polygon fill="none" stroke="#020000" stroke-miterlimit="10" stroke-width="3" points="966.53 1518.11 926.99 1547.41 336.42 905 375.96 875.69 966.53 1518.11"/><polygon fill="none" stroke="#020000" stroke-miterlimit="10" stroke-width="3" points="1041.94 1462.21 1002.4 1491.52 411.83 849.1 451.37 819.8 1041.94 1462.21"/><polygon fill="none" stroke="#020000" stroke-miterlimit="10" stroke-width="3" points="1117.35 1406.32 1077.81 1435.63 487.24 793.21 526.78 763.91 1117.35 1406.32"/><polygon fill="none" stroke="#020000" stroke-miterlimit="10" stroke-width="3" points="1192.76 1350.43 1153.22 1379.74 562.65 737.32 602.2 708.01 1192.76 1350.43"/><polygon fill="none" stroke="#020000" stroke-miterlimit="10" stroke-width="3" points="1268.17 1294.54 1228.63 1323.85 638.07 681.43 677.61 652.12 1268.17 1294.54"/><polygon fill="none" stroke="#020000" stroke-miterlimit="10" stroke-width="3" points="1343.58 1238.65 1304.04 1267.96 713.48 625.54 753.02 596.23 1343.58 1238.65"/><polygon fill="none" stroke="#020000" stroke-miterlimit="10" stroke-width="3" points="1418.99 1182.76 1379.45 1212.07 788.89 569.65 828.43 540.34 1418.99 1182.76"/><polygon fill="none" stroke="#020000" stroke-miterlimit="10" stroke-width="3" points="1494.4 1126.87 1454.86 1156.17 864.3 513.76 903.84 484.45 1494.4 1126.87"/></g><g opacity=".46"><polygon fill="none" stroke="#020000" stroke-miterlimit="10" stroke-width="3" points="296.94 1020.26 256.74 976.53 997.17 427.76 1037.37 471.49 296.94 1020.26"/><polygon fill="none" stroke="#020000" stroke-miterlimit="10" stroke-width="3" points="373.62 1103.67 333.42 1059.94 1073.84 511.16 1114.04 554.9 373.62 1103.67"/><polygon fill="none" stroke="#020000" stroke-miterlimit="10" stroke-width="3" points="450.29 1187.07 410.09 1143.34 1150.51 594.57 1190.72 638.3 450.29 1187.07"/><polygon fill="none" stroke="#020000" stroke-miterlimit="10" stroke-width="3" points="526.97 1270.48 486.76 1226.75 1227.19 677.98 1267.39 721.71 526.97 1270.48"/><polygon fill="none" stroke="#020000" stroke-miterlimit="10" stroke-width="3" points="603.64 1353.88 563.43 1310.15 1303.86 761.38 1344.06 805.11 603.64 1353.88"/><polygon fill="none" stroke="#020000" stroke-miterlimit="10" stroke-width="3" points="680.31 1437.29 640.11 1393.56 1380.53 844.78 1420.74 888.52 680.31 1437.29"/><polygon fill="none" stroke="#020000" stroke-miterlimit="10" stroke-width="3" points="756.99 1520.69 716.78 1476.96 1457.21 928.19 1497.41 971.92 756.99 1520.69"/><polygon fill="none" stroke="#020000" stroke-miterlimit="10" stroke-width="3" points="833.66 1604.1 793.46 1560.37 1533.88 1011.6 1574.08 1055.33 833.66 1604.1"/></g><path fill="#eff1f7" d="M1106.5,859.44c29.14,249.15-175.08,251.24-175.08,251.24s73.2,73,86,73.72S1226,1044.9,1226,1044.9l-68.17-152.24Z"/><path fill="#eff1f7" d="M715.74,937.93c95.37-82.8,60,263.21,215.68,172.75s235.93,81.71,235.93,81.71-295,136-161.18,116.45-367.36,125-367.36,125L685,907.67"/></g><path fill="none" stroke="#020000" stroke-miterlimit="10" stroke-width="3" d="M763.29,1325.9c133.29,34.18,394.52-67.36,394.52-67.36s-19.27-540.07-38.41-556c-18.79-15.61-374.51,19.79-439.32,88.85C645.15,828.64,750.48,1168.62,763.29,1325.9Z"/><path fill="#fff" d="M1102.6,860.12,1134,1040.91l-248.72,98.76c-20.11,72.23-6.43,170,25.87,192.73s351.92-124.56,368.33-146.54c56.83-76.1.4-485.65-169.73-485.93"/><g clip-path="url(#e)"><path fill="#eff1f7" d="M1014.12,1372.87c-124.7,18-29.9-123-38.43-180.83,0,0,35.09-76.9,38.43-128s-208.79,46.67-208.79,46.67l57.32,150-13.41,48.17,42.6,38.38"/><g opacity=".16"><polygon fill="none" stroke="#020000" stroke-miterlimit="10" stroke-width="3" points="1118.09 1489.64 1078.55 1518.95 487.98 876.53 527.52 847.22 1118.09 1489.64"/><polygon fill="none" stroke="#020000" stroke-miterlimit="10" stroke-width="3" points="1193.5 1433.75 1153.96 1463.06 563.39 820.64 602.93 791.33 1193.5 1433.75"/><polygon fill="none" stroke="#020000" stroke-miterlimit="10" stroke-width="3" points="1268.91 1377.86 1229.37 1407.16 638.8 764.75 678.34 735.44 1268.91 1377.86"/><polygon fill="none" stroke="#020000" stroke-miterlimit="10" stroke-width="3" points="1344.32 1321.97 1304.78 1351.27 714.21 708.86 753.75 679.55 1344.32 1321.97"/><polygon fill="none" stroke="#020000" stroke-miterlimit="10" stroke-width="3" points="1419.73 1266.08 1380.19 1295.38 789.62 652.96 829.16 623.66 1419.73 1266.08"/><polygon fill="none" stroke="#020000" stroke-miterlimit="10" stroke-width="3" points="1495.14 1210.18 1455.6 1239.49 865.03 597.07 904.58 567.77 1495.14 1210.18"/><polygon fill="none" stroke="#020000" stroke-miterlimit="10" stroke-width="3" points="1570.55 1154.29 1531.01 1183.6 940.45 541.18 979.99 511.88 1570.55 1154.29"/><polygon fill="none" stroke="#020000" stroke-miterlimit="10" stroke-width="3" points="1645.96 1098.4 1606.42 1127.71 1015.86 485.29 1055.4 455.98 1645.96 1098.4"/></g><g opacity=".46"><polygon fill="none" stroke="#020000" stroke-miterlimit="10" stroke-width="3" points="448.5 991.8 408.3 948.07 1148.72 399.29 1188.93 443.03 448.5 991.8"/><polygon fill="none" stroke="#020000" stroke-miterlimit="10" stroke-width="3" points="525.18 1075.2 484.97 1031.47 1225.4 482.7 1265.6 526.43 525.18 1075.2"/><polygon fill="none" stroke="#020000" stroke-miterlimit="10" stroke-width="3" points="601.85 1158.61 561.65 1114.88 1302.07 566.1 1342.28 609.84 601.85 1158.61"/><polygon fill="none" stroke="#020000" stroke-miterlimit="10" stroke-width="3" points="678.52 1242.01 638.32 1198.28 1378.74 649.51 1418.95 693.24 678.52 1242.01"/><polygon fill="none" stroke="#020000" stroke-miterlimit="10" stroke-width="3" points="755.2 1325.42 714.99 1281.69 1455.42 732.91 1495.62 776.65 755.2 1325.42"/><polygon fill="none" stroke="#020000" stroke-miterlimit="10" stroke-width="3" points="831.87 1408.83 791.67 1365.09 1532.09 816.32 1572.3 860.05 831.87 1408.83"/><polygon fill="none" stroke="#020000" stroke-miterlimit="10" stroke-width="3" points="908.54 1492.23 868.34 1448.5 1608.77 899.73 1648.97 943.46 908.54 1492.23"/><polygon fill="none" stroke="#020000" stroke-miterlimit="10" stroke-width="3" points="985.22 1575.63 945.01 1531.9 1685.44 983.13 1725.64 1026.86 985.22 1575.63"/></g><path fill="none" stroke="#020000" stroke-miterlimit="10" stroke-width="3" d="M963.08,1285.67c-25.89-15-35.22-89.66-35.22-89.66"/></g><path fill="none" stroke="#020000" stroke-miterlimit="10" stroke-width="3" d="M1102.6,860.12,1134,1040.91l-248.72,98.76c-20.11,72.23-6.43,170,25.87,192.73s351.92-124.56,368.33-146.54c56.83-76.1.4-485.65-169.73-485.93"/><path fill="#fff" stroke="#020000" stroke-miterlimit="10" stroke-width="3" d="M779.74,1167.4c6-92.15,93.79-44.21,131.26-52l-136.74,55.61"/><polyline fill="#fff" points="938.54 771.92 853.37 713.51 863.18 588.54 971.7 562.08 980.57 715.92 961.11 764.87"/><g clip-path="url(#f)"><path fill="#eff1f7" d="M915.41,626.27c-63.56,21.35,73,84,79.57,83.83,61.25-155.68-35.13-124.87-93.8-116.06"/></g><polyline fill="none" stroke="#020000" stroke-miterlimit="10" stroke-width="3" points="938.54 771.92 853.37 713.51 863.18 588.54 971.7 562.08 980.57 715.92 961.11 764.87"/><path fill="#fff" d="M984.37,448.73c42,4.72,34.87,81.75,52.65,110.29s16,162.81-95.38,91.67S840.52,488.88,840.52,488.88Z"/><g clip-path="url(#g)"><path fill="#eff1f7" d="M1017.86,452.91c-29.49,18.18-73.31,15.75-73.31,15.75s-18.5,11.55-2.06,35.11-2.78,54.78-52.35,49.9.44-102.35.44-102.35L999,430.15"/></g><path fill="none" stroke="#020000" stroke-miterlimit="10" stroke-width="3" d="M984.37,448.73c42,4.72,34.87,81.75,52.65,110.29s16,162.81-95.38,91.67S840.52,488.88,840.52,488.88Z"/><path fill="#020000" stroke="#020000" stroke-miterlimit="10" stroke-width="3" d="M1001.94,449.91C955,436.8,913.84,475,939.19,514.63s-75.68,40.89-75.68,40.89l-24.9-79.1,95.57-38.94S1001.93,430,1001.94,449.91Z"/><path fill="#020000" d="M898.57,538.41c-7.88,14.32-56.47,30.44-56.47,30.44l-1.29-8.42c-46.11-93.19-13.55-137.54,42.72-142s76-42.63,109.69-26,41.78,58.08-4.61,66.87-118.83,11.52-118.83,11.52"/><g clip-path="url(#h)"><path fill="#020000" d="M952.92,381.56c22.84,35.6-28,52-77.22,38.79S931,380.57,931,380.57Z"/><path fill="#020000" d="M863.51,555.52c16.1-12.51-32-2.24-32-2.24l-3.77,32.13h30.42"/></g><path fill="none" stroke="#020000" stroke-miterlimit="10" stroke-width="3" d="M898.57,538.41c-7.88,14.32-56.47,30.44-56.47,30.44l-1.29-8.42c-46.11-93.19-13.55-137.54,42.72-142s76-42.63,109.69-26,41.78,58.08-4.61,66.87-118.83,11.52-118.83,11.52"/><path fill="#fff" stroke="#020000" stroke-miterlimit="10" stroke-width="3" d="M894.19,567c-91.1-62.52-76.21,103.81,7.28,47.46"/><path fill="#fff" d="M1014.66,522.87c4.39,32.87-29,36.64-35.32,6.37C975,496.37,1008.31,492.6,1014.66,522.87Z"/><g clip-path="url(#i)"><path fill="#020000" d="M1018.44,524.23c1.33,15.91-15.53,19.21-18.36,1.92C998.75,510.25,1015.6,506.94,1018.44,524.23Z"/></g><path fill="#fff" d="M1021.43,520.21c16.23,15.69,28.64,18,29.47,24.86s-9.9,18.28-26.29,19"/><path fill="none" stroke="#020000" stroke-miterlimit="10" stroke-width="3" d="M1021.43,520.21c16.23,15.69,28.64,18,29.47,24.86s-9.9,18.28-26.29,19"/><path fill="#eff1f7" d="M971.3,585c-6.29,8.95-20.86,10.68-32.93,3.73-12.49-7.2-17.68-21-11.15-30.58s22.2-11,34.45-3.11C973.51,562.63,977.64,576,971.3,585Z" opacity=".5"/><path fill="#020000" d="M1001.69,479.13c-27,2.45-31.49,14.4-14.51,14S1019.34,477.53,1001.69,479.13Z"/><path fill="none" stroke="#020000" stroke-miterlimit="10" stroke-width="3" d="M992.72,581.1c9.84,14.87,23.91,10.09,23.91,10.09"/><path fill="none" stroke="#020000" stroke-miterlimit="10" stroke-width="3" d="M864.09,574.1c-5.35.4-6.8,12.93,4.78,16.46"/><path fill="#06d1c3" stroke="#020000" stroke-miterlimit="10" stroke-width="3" d="M943.27,793.9c-5.27-9.1,7-24.3,7-24.3-59.52-40.27-109.92-111.29-138.47-36.81C822,737.91,945.31,799.61,943.27,793.9Z"/><path fill="#06d1c3" stroke="#020000" stroke-miterlimit="10" stroke-width="3" d="M964.73,788.47s-4.4-17-14.46-18.87c13.68-42.65,22-72.26,28.64-82.38C1001.67,696.09,991.39,738.68,964.73,788.47Z"/><ellipse cx="1014.01" cy="1136.28" fill="#fff" stroke="#020000" stroke-miterlimit="10" stroke-width="3" rx="23.19" ry="7.92"/><rect width="6.67" height="148.66" x="1010.67" y="990.12" fill="#fff" stroke="#020000" stroke-miterlimit="10" stroke-width="3"/><path fill="#fff" stroke="#020000" stroke-miterlimit="10" stroke-width="3" d="M1039.41,840.92h0c0-3.68-11.36-6.67-25.36-6.67s-25.36,3-25.36,6.67h0L985.77,978a15.09,15.09,0,0,0,5.93,12.29c2.57,2.87,11.57,5,22.31,5s19.74-2.13,22.31-5a15.09,15.09,0,0,0,5.93-12.29Z"/><ellipse cx="1014.01" cy="920.16" fill="#fff" stroke="#020000" stroke-miterlimit="10" stroke-width="3" rx="24.08" ry="6.67"/><path fill="#fff" stroke="#020000" stroke-miterlimit="10" stroke-width="3" d="M1038.2,919.72c-2.18,2.77-12.18,4.86-24.19,4.86s-22-2.09-24.19-4.86l-1.17,56a13.53,13.53,0,0,0,5.32,11c2.31,2.58,10.39,4.49,20,4.49s17.73-1.91,20-4.49a13.47,13.47,0,0,0,5.32-11Z"/><ellipse cx="1014.01" cy="840.92" fill="#fff" stroke="#020000" stroke-miterlimit="10" stroke-width="3" rx="25.36" ry="6.67"/><path fill="#fff" d="M911,1115.45c30.46-8.17,27.19-53.58,27.11-65.16,48.27-89.71,154.77-18,82.85,21.73C992.83,1152,838.56,1321.78,911,1115.45Z"/><g clip-path="url(#j)"><path fill="#eff1f7" d="M908,1106.29c49.65,67.54,57.58,51.68,70.84,46.6-17,60.68-70,81.39-87.15,26.32"/></g><path fill="none" stroke="#020000" stroke-miterlimit="10" stroke-width="3" d="M911,1115.45c30.46-8.17,27.19-53.58,27.11-65.16,48.27-89.71,154.77-18,82.85,21.73C992.83,1152,838.56,1321.78,911,1115.45Z"/><path fill="#fff" d="M736.52,955.05l34.22,198.64c75.07-33.79,114.4-50.09,136.26-47,28.11,4,29,141.19,38.14,213.23-67.76,59.28-271.86,145-324.55-46.72-56.07-159.75-52.53-432.74,62.47-484.71"/><g clip-path="url(#k)"><g opacity=".16"><polygon fill="none" stroke="#020000" stroke-miterlimit="10" stroke-width="3" points="840.97 1565.58 801.42 1594.89 210.86 952.47 250.4 923.17 840.97 1565.58"/><polygon fill="none" stroke="#020000" stroke-miterlimit="10" stroke-width="3" points="916.38 1509.69 876.83 1539 286.27 896.58 325.81 867.27 916.38 1509.69"/><polygon fill="none" stroke="#020000" stroke-miterlimit="10" stroke-width="3" points="991.79 1453.8 952.25 1483.11 361.68 840.69 401.22 811.38 991.79 1453.8"/><polygon fill="none" stroke="#020000" stroke-miterlimit="10" stroke-width="3" points="1067.2 1397.91 1027.66 1427.22 437.09 784.8 476.63 755.49 1067.2 1397.91"/><polygon fill="none" stroke="#020000" stroke-miterlimit="10" stroke-width="3" points="1142.61 1342.02 1103.07 1371.33 512.5 728.91 552.04 699.6 1142.61 1342.02"/><polygon fill="none" stroke="#020000" stroke-miterlimit="10" stroke-width="3" points="1218.02 1286.13 1178.48 1315.43 587.91 673.02 627.45 643.71 1218.02 1286.13"/><polygon fill="none" stroke="#020000" stroke-miterlimit="10" stroke-width="3" points="1293.43 1230.24 1253.89 1259.54 663.32 617.13 702.86 587.82 1293.43 1230.24"/><polygon fill="none" stroke="#020000" stroke-miterlimit="10" stroke-width="3" points="1368.84 1174.35 1329.3 1203.65 738.73 561.23 778.27 531.93 1368.84 1174.35"/></g><g opacity=".46"><polygon fill="none" stroke="#020000" stroke-miterlimit="10" stroke-width="3" points="171.38 1067.74 131.18 1024.01 871.6 475.24 911.8 518.97 171.38 1067.74"/><polygon fill="none" stroke="#020000" stroke-miterlimit="10" stroke-width="3" points="248.05 1151.15 207.85 1107.41 948.27 558.64 988.48 602.38 248.05 1151.15"/><polygon fill="none" stroke="#020000" stroke-miterlimit="10" stroke-width="3" points="324.73 1234.55 284.52 1190.82 1024.95 642.05 1065.15 685.78 324.73 1234.55"/><polygon fill="none" stroke="#020000" stroke-miterlimit="10" stroke-width="3" points="401.4 1317.96 361.2 1274.22 1101.62 725.45 1141.83 769.19 401.4 1317.96"/><polygon fill="none" stroke="#020000" stroke-miterlimit="10" stroke-width="3" points="478.07 1401.36 437.87 1357.63 1178.3 808.86 1218.5 852.59 478.07 1401.36"/><polygon fill="none" stroke="#020000" stroke-miterlimit="10" stroke-width="3" points="554.75 1484.77 514.54 1441.03 1254.97 892.26 1295.17 936 554.75 1484.77"/><polygon fill="none" stroke="#020000" stroke-miterlimit="10" stroke-width="3" points="631.42 1568.17 591.22 1524.44 1331.64 975.67 1371.85 1019.4 631.42 1568.17"/><polygon fill="none" stroke="#020000" stroke-miterlimit="10" stroke-width="3" points="708.09 1651.58 667.89 1607.85 1408.32 1059.07 1448.52 1102.81 708.09 1651.58"/></g><path fill="none" stroke="#020000" stroke-miterlimit="10" stroke-width="3" d="M842.63,1094.43C891,1123.6,912,1290,902.88,1361.5"/></g><path fill="none" stroke="#020000" stroke-miterlimit="10" stroke-width="3" d="M736.52,955.05l34.22,198.64c75.07-33.79,114.4-50.09,136.26-47,28.11,4,29,141.19,38.14,213.23-67.76,59.28-271.86,145-324.55-46.72-56.07-159.75-52.53-432.74,62.47-484.71"/><path fill="#fff" stroke="#020000" stroke-miterlimit="10" stroke-width="3" d="M963.08,840.76c-3.11-7-7-7,0,0-13.91-3.84-13.91,0-7-7C963.52,840.48,957,855.62,963.08,840.76Z"/><path fill="#fff" stroke="#020000" stroke-miterlimit="10" stroke-width="3" d="M970,900.75c-3.11-7-6.95-7,0,0-13.9-3.84-13.9,0-6.95-7C970.48,900.47,964,915.6,970,900.75Z"/><path fill="none" stroke="#020000" stroke-miterlimit="10" stroke-width="3" d="M769.88,1151.14l-8.65,21"/><path fill="none" stroke="#020000" stroke-miterlimit="10" stroke-width="3" d="M1111.23,2255.39a64,64,0,0,1-14.29,31.39"/><path fill="none" stroke="#020000" stroke-miterlimit="10" stroke-width="3" d="M860,1408.78c16.55,34.51,19.13,93.31-36.09,111.37"/><path fill="#fff" d="M1062.89,2675.26l161.93-364.19S993,2129.35,1076.49,1709.23s732.17-383.64,732.17-383.64L2089,1605.23,1893.88,2249l.57,429.85Z"/><g clip-path="url(#l)"><path fill="#eff1f7" d="M899.07,2346.05l325.75-35s136.87,77.62,251.5,26.7c0,0-9.79,45.61-213.76,25.2-54.68-13.81-242.76,281.89,26.16,304.1s567.88,10.53,596-76,52.76,87.71,52.76,87.71l-20.6,60.8L950.37,2754l-9.68-216.23Z"/><path fill="#eff1f7" d="M898.47,1898.53c187.66-22.47,481.81,335.24,594.65,343.9s237.07-175.38,237.07-175.38l-454-285.6-186.08-22.32L898.41,1853.4"/><path fill="#eff1f7" d="M1954.32,2281.66l-60.38,10.87s-47.92,40-117.14,37.32c0,0-37.31,0,181.4,195.37-9.48,127.4-64-61.55-64-61.55l46.23-48Z"/></g><path fill="none" stroke="#020000" stroke-miterlimit="10" stroke-width="3" d="M1062.89,2675.26l161.93-364.19S993,2129.35,1076.49,1709.23s732.17-383.64,732.17-383.64L2089,1605.23,1893.88,2249l.57,429.85Z"/><path fill="#06d1c3" stroke="#020000" stroke-miterlimit="10" stroke-width="3" d="M2427.16,1193.54l-72.83-72.64h0L2073,840.27h0l-51.56-51.43a75.16,75.16,0,0,0-106.29.14L986.19,1720.36a75.16,75.16,0,0,0,.14,106.29l405.76,404.69a75.16,75.16,0,0,0,106.29-.14l928.92-931.37A75.17,75.17,0,0,0,2427.16,1193.54Zm-135.43-48.23-105.32-105,105.32,105Z"/><path fill="#06d1c3" stroke="#020000" stroke-miterlimit="10" stroke-width="3" d="M2441.05,1211.08l-72.83-72.64a17.47,17.47,0,0,0-24.7,0l-16.91,17a17.47,17.47,0,0,1-24.7,0L2091.27,945.38a17.47,17.47,0,0,1,0-24.7l16.91-16.95a17.47,17.47,0,0,0,0-24.7l-72.83-72.64a75.15,75.15,0,0,0-106.28.14L1000.08,1737.9a75.16,75.16,0,0,0,.14,106.29L1406,2248.88a75.15,75.15,0,0,0,106.29-.14l928.92-931.37A75.16,75.16,0,0,0,2441.05,1211.08Z"/><rect width="666.43" height="1338.5" x="1379.71" y="866.12" fill="#2660f5" stroke="#020000" stroke-miterlimit="10" stroke-width="3" rx="46.54" transform="rotate(44.92 1713.03 1535.57)"/><path fill="#fff" stroke="#020000" stroke-miterlimit="10" stroke-width="3" d="M1650.64,1221.55l175.58,174.36,174.36-175.57L1825,1046Zm174.67-88.09,87.79,87.18-87.19,87.79-87.78-87.18Zm197.22,108.67-174.36,175.58,175.57,174.36,174.36-175.58Zm.9,262.45-87.78-87.18,87.18-87.78,87.78,87.17Zm-241.56-283.49,43.89,43.59,43.59-43.89-43.89-43.59Zm-327.38,198,175.57,174.36,174.36-175.57L1628.85,1243.5ZM1629.15,1331l87.79,87.18L1629.76,1506,1542,1418.77Zm437.73,86-43.9-43.59-43.59,43.89,43.89,43.59,43.59-43.89ZM1652,1615.23l43.89,43.59,43.59-43.9-43.89-43.59Zm174.66-88.1-87.18,87.79,43.9,43.59,87.18-87.79Zm.61,175-43.89-43.59-43.59,43.9,87.78,87.17,87.18-87.78-43.89-43.59Zm87.18-87.79,43.89,43.59,43.59-43.89-43.89-43.59Zm-88.09-174.66-43.59,43.89,43.89,43.59,43.59-43.89Zm-240.66-21,43.9,43.59,43.59-43.89-43.89-43.59Zm0,0"/><path fill="#fff" d="M1049.11,1353.35a77.12,77.12,0,0,0-13,59.42c37.85,194.7,85.77,313.39,167.12,291.19,102.36-27.93-13.31-389.13-22.46-397.29C1172.6,1299.44,1099.82,1282,1049.11,1353.35Z"/><g clip-path="url(#m)"><path fill="#fff" stroke="#020000" stroke-miterlimit="10" stroke-width="3" d="M1149.8,1720.38s-45.48-114.39-42.75-122.57,72.17-39.34,117.89-34.49L1262.63,1717l-124.29,1"/><path fill="#eff1f7" d="M1057.63,1325.73c75.33-7.62,87.79-4.36,88.95,40.84,2.34,90.69,49.84,195.66,86.34,203.27S1245,1450.55,1245,1450.55l-64.28-143.88-29.22-27.11-102.44,25.52"/></g><path fill="none" stroke="#020000" stroke-miterlimit="10" stroke-width="3" d="M1049.11,1353.35a77.12,77.12,0,0,0-13,59.42c37.85,194.7,85.77,313.39,167.12,291.19,102.36-27.93-13.31-389.13-22.46-397.29C1172.6,1299.44,1099.82,1282,1049.11,1353.35Z"/><path fill="#fff" d="M1149.27,1261.59a55.5,55.5,0,0,0-7.63,40.56c41.16,204.71,93.14,330.2,182.3,307.11,110.63-28.66-14.35-399.11-24.25-407.48C1290.48,1194,1204.07,1174.64,1149.27,1261.59Z"/><g clip-path="url(#n)"><path fill="#fff" stroke="#020000" stroke-miterlimit="10" stroke-width="3" d="M1266.25,1626.1s-49.14-117.32-46.19-125.71,78-40.35,127.41-35.38l40.71,157.58-134.31,1"/><path fill="#eff1f7" d="M1057.56,1274.63c163.43-59.09,231.1-75.06,233.07-5.07s40.44,141.17,78.63,161.91-.24-184.16-.24-184.16l-48.48-110.88-76,5.74-104.13,65.95-22.59,79.82"/></g><path fill="none" stroke="#020000" stroke-miterlimit="10" stroke-width="3" d="M1149.27,1261.59a55.5,55.5,0,0,0-7.63,40.56c41.16,204.71,93.14,330.2,182.3,307.11,110.63-28.66-14.35-399.11-24.25-407.48C1290.48,1194,1204.07,1174.64,1149.27,1261.59Z"/><path fill="#fff" d="M1281.92,1129.65a43.32,43.32,0,0,0-5.69,31.69c44.62,212.58,100.9,343.27,197.94,319.41,119.55-29.4-15.49-409.34-26.18-417.93C1437.83,1054.66,1340.88,1034.19,1281.92,1129.65Z"/><g clip-path="url(#o)"><path fill="#fff" stroke="#020000" stroke-miterlimit="10" stroke-width="3" d="M1411.81,1498s-53.1-120.34-49.91-128.94,84.3-41.39,137.7-36.3l44,161.62-145.16,1"/><path fill="#eff1f7" d="M1196.52,1193.55c137.08-139.87,255.41-161.8,251.42-76.09s36.19,227.72,89.92,228.47-6.79-262.43-6.79-262.43l-56.54-99.58-122.17,38.81-77.09,81.8"/></g><path fill="none" stroke="#020000" stroke-miterlimit="10" stroke-width="3" d="M1281.92,1129.65a43.32,43.32,0,0,0-5.69,31.69c44.62,212.58,100.9,343.27,197.94,319.41,119.55-29.4-15.49-409.34-26.18-417.93C1437.83,1054.66,1340.88,1034.19,1281.92,1129.65Z"/><path fill="#fff" d="M1455.23,1045a46.15,46.15,0,0,0-6.33,34.61c48.26,223.43,109.17,360.74,214.1,335.64,129.42-31,3.76-421.14-28.32-440.1C1622.65,968.05,1519.1,945.09,1455.23,1045Z"/><g clip-path="url(#p)"><path fill="#fff" stroke="#020000" stroke-miterlimit="10" stroke-width="3" d="M1595.5,1433.46s-57.48-126.71-54-135.78,91.26-43.59,149.06-38.23l47.61,170.2L1581,1430.76"/></g><path fill="none" stroke="#020000" stroke-miterlimit="10" stroke-width="3" d="M1455.23,1045a46.15,46.15,0,0,0-6.33,34.61c48.26,223.43,109.17,360.74,214.1,335.64,129.42-31,3.76-421.14-28.32-440.1C1622.65,968.05,1519.1,945.09,1455.23,1045Z"/><path fill="#fff" d="M1886,2298.32s183.72-201.78,200.51-337.07c5.4-43.54,20.15-85.29,44.71-121.64,62.93-93.11,168.31-247.61,188-267.36,47.64-47.76-153.66-132.54-310.94,133.16-65.6,110.81-120.42,194.55-160.26,255.75"/><g clip-path="url(#q)"><path fill="#fff" stroke="#020000" stroke-miterlimit="10" stroke-width="3" d="M2294.24,1504.68c-62.18,33.47-138.28,125.35-136.71,137.79s110.54,73,110.54,73l121.13-157.28Z"/></g><path fill="none" stroke="#020000" stroke-miterlimit="10" stroke-width="3" d="M1886,2298.32s183.72-201.78,200.51-337.07c5.4-43.54,20.15-85.29,44.71-121.64,62.93-93.11,168.31-247.61,188-267.36,47.64-47.76-153.66-132.54-310.94,133.16-65.6,110.81-120.42,194.55-160.26,255.75"/><path fill="none" stroke="#020000" stroke-miterlimit="10" stroke-width="3" d="M1518.48,2510.3a125.77,125.77,0,0,0,84.26,12.42"/><path fill="none" stroke="#020000" stroke-miterlimit="10" stroke-width="3" d="M2069.84,1118.71l37.54,79.23"/><path fill="none" stroke="#020000" stroke-miterlimit="10" stroke-width="3" d="M1439.65,1781.45a290.79,290.79,0,0,0,60.52,60.82"/><path fill="#fff" d="M2728.91,2367.7c-1.46,9.3-7.29,237.33-7.29,237.33l-93.12-10-27.59-255.53Z"/><g clip-path="url(#r)"><path fill="#eff1f7" d="M2600.91,2413.16c-75.79-.6,125.8,47.6,128,79.42s13.21-66,13.21-66-79-4.8-84.85-5.4"/></g><path fill="none" stroke="#020000" stroke-miterlimit="10" stroke-width="3" d="M2728.91,2367.7c-1.46,9.3-7.29,237.33-7.29,237.33l-93.12-10-27.59-255.53Z"/><path fill="#fff" stroke="#020000" stroke-miterlimit="10" stroke-width="3" d="M2396.79,2628.17l-1.24,10.9,333-2-3-120.17s-72.48,24.18-111.51-2.67C2610.22,2635,2419.23,2570.77,2396.79,2628.17Z"/><path fill="#fff" d="M3035,2372.53c-1,9.34,3.15,237.4,3.15,237.4l-93.49-6.62L2905.81,2349Z"/><g clip-path="url(#s)"><path fill="#eff1f7" d="M2914.42,2427.73c-63.9,15.24,112.64,21.81,135.15,78.23,31.64-27.48-6.37-94.34-8.52-93.07l-275.7-126.75"/></g><path fill="none" stroke="#020000" stroke-miterlimit="10" stroke-width="3" d="M3035,2372.53c-1,9.34,3.15,237.4,3.15,237.4l-93.49-6.62L2905.81,2349Z"/><path fill="#fff" stroke="#020000" stroke-miterlimit="10" stroke-width="3" d="M2714.54,2644.73l-2.59,5.6,332.69-13.95-6.4-114.63s-71.36,26.76-111.54,1.33C2928,2643.91,2734.44,2586.54,2714.54,2644.73Z"/><path fill="#fff" stroke="#020000" stroke-miterlimit="10" stroke-width="3" d="M3211.18,1724.46l-2.29,103.87c-224.75-175.49-502.87-87.65-643.8-19.31-.63-4.63-176.28-304.26-157.73-282.49,9.52-33.5,103.77-365,107.22-377.21,35-42,90-95.92,173.18-145.51,20.45-21.11,22.32,14.76,72.17,64.09C2975.66,1297.28,3091.06,1528.35,3211.18,1724.46Z"/><path fill="#06d1c3" d="M2808.58,2405.76c31.83-23.06,45-1265.14,45-1265.14L2619,1162.06c-.06-1.48-79.86-821-46.65,1251.24C2694.44,2465.27,2776.75,2428.82,2808.58,2405.76Z"/><g clip-path="url(#t)"><path fill="none" stroke="#020000" stroke-miterlimit="10" stroke-width="3" d="M2547.63,2364.17c109.64,57,258,12.83,258,12.83"/><line x1="2771.58" x2="2727.87" y1="1412.02" y2="2391.05" fill="none" stroke="#020000" stroke-miterlimit="10" stroke-width="3"/><path fill="none" stroke="#020000" stroke-miterlimit="10" stroke-width="3" d="M2544.84,1298.39c151.29,12.27,108.61-122,108.61-122"/><path fill="#05af9f" d="M2737.12,1456.71c-125.55-11.5,51.88,805.57,28.23,1015.57s206.6,25.9,206.6,25.9L2821.4,1680.41"/></g><path fill="none" stroke="#020000" stroke-miterlimit="10" stroke-width="3" d="M2808.58,2405.76c31.83-23.06,45-1265.14,45-1265.14L2619,1162.06c-.06-1.48-79.86-821-46.65,1251.24C2694.44,2465.27,2776.75,2428.82,2808.58,2405.76Z"/><path fill="#06d1c3" d="M2726.77,1338.66c32.55,326-4.06,1063,132.66,1093.48,104.66,23.34,246.19-6.08,271-37.47s-147.1-653.21-163.89-851.59c-2.64-219.78,76-469.87-261.54-391.83"/><g clip-path="url(#u)"><path fill="#05af9f" d="M2726.77,1130.16c96.32,310.41,213,404.08,249.18,644.27s141-401.11,141-401.11l-21.86-112.89"/><path fill="none" stroke="#020000" stroke-miterlimit="10" stroke-width="3" d="M2824.49,2372.34c117,59.5,313.53-23.37,313.53-23.37"/><line x1="2880.89" x2="3003.9" y1="1343.32" y2="2395.81" fill="none" stroke="#020000" stroke-miterlimit="10" stroke-width="3"/></g><path fill="none" stroke="#020000" stroke-miterlimit="10" stroke-width="3" d="M2726.77,1338.66c32.55,326-4.06,1063,132.66,1093.48,104.66,23.34,246.19-6.08,271-37.47s-147.1-653.21-163.89-851.59c-2.64-219.78,76-469.87-261.54-391.83"/><path fill="#fff" d="M2981.86,904.33c.43-431.52-324.88-345-391.49-221.7-20,67.29-60.35,355.73-26.23,475.26,28.45,20.62,124.18,20.84,206.55,21.19C3011.53,1196.07,3000.7,1164.35,2981.86,904.33Z"/><g clip-path="url(#v)"><path fill="#eff1f7" d="M2705,660.82c-146.09,122.5-1.7,411.38-80.65,476.88S2472.9,884.14,2472.9,884.14l79.18-238.49"/><path fill="#fff" stroke="#020000" stroke-miterlimit="10" stroke-width="3" d="M2663.26,601.32c-67.78,118.25,137.32,112,174.45,29.16,54.55-121.71-202.62-51.81-202.62-51.81"/><path fill="none" stroke="#020000" stroke-miterlimit="10" stroke-width="3" d="M2515.37,1101.33c270.82,78.26,458.88,0,458.88,0"/><path fill="#eff1f7" d="M2837.71,630.48c36.07,141.93-102.28,122.78-98.33,171.64s92.77,61.12,92.77,61.12l69.74-52.46"/></g><path fill="none" stroke="#020000" stroke-miterlimit="10" stroke-width="3" d="M2981.86,904.33c.43-431.52-324.88-345-391.49-221.7-20,67.29-60.35,355.73-26.23,475.26,28.45,20.62,124.18,20.84,206.55,21.19C3011.53,1196.07,3000.7,1164.35,2981.86,904.33Z"/><path fill="#fff" d="M2364.69,867.72c-351.59-15.3-344-139.54-382-117,47.06,67.84-63.73,20.71-105.46,67-73.16,50.15,78.92,16.29,122.69,31,115.9,33.71,370.88,116,376.17,114.57Z"/><g clip-path="url(#w)"><path fill="#eff1f7" d="M2333.42,854.59c-13.78,92.62-224.62,88.95-224.62,88.95,152.08,57.28,220,41.2,303.31,26.81l-36-90.61"/></g><path fill="none" stroke="#020000" stroke-miterlimit="10" stroke-width="3" d="M2364.69,867.72c-351.59-15.3-344-139.54-382-117,47.06,67.84-63.73,20.71-105.46,67-73.16,50.15,78.92,16.29,122.69,31,115.9,33.71,370.88,116,376.17,114.57Z"/><path fill="#fff" d="M3023,1066.82c307.6,126.17,104.54-449.52-197.81-475.63,0,0,50.58,141.43-20.85,236.66s-62.29,501.9,179.15,657.71,225.43,342.77,225.43,342.77,83.62-68.56-91.9-332.38S3023,1066.82,3023,1066.82Z"/><g clip-path="url(#x)"><path fill="#eff1f7" d="M2767.25,1059.25c-112.11,185.3,274.06-1.38,289.49,159.62s-33.77-152-33.77-152-41.79-8.11-51.67-34.2S2705,1048.54,2705,1048.54"/></g><path fill="none" stroke="#020000" stroke-miterlimit="10" stroke-width="3" d="M3023,1066.82c307.6,126.17,104.54-449.52-197.81-475.63,0,0,50.58,141.43-20.85,236.66s-62.29,501.9,179.15,657.71,225.43,342.77,225.43,342.77,83.62-68.56-91.9-332.38S3023,1066.82,3023,1066.82Z"/><path fill="#fff" stroke="#020000" stroke-miterlimit="10" stroke-width="3" d="M2825.16,591.19S2865.07,741,2765.35,912.8l127.82-155.22L2853.61,718l82.26-70.84Z"/><path fill="#fff" d="M2728.89,512c-3,38.81-66.07,117.89-33.79,144.95,168.77,32.5,123.9-137.88,129.79-206.3Z"/><g clip-path="url(#y)"><path fill="#eff1f7" d="M2700.41,587.36c50.22-9.4,92.8-57.75,102.24-87.13-40,11.81-87.82,17.46-97.93,58.65"/></g><path fill="none" stroke="#020000" stroke-miterlimit="10" stroke-width="3" d="M2728.89,512c-3,38.81-66.07,117.89-33.79,144.95,168.77,32.5,123.9-137.88,129.79-206.3Z"/><path fill="#fff" d="M2331.16,861.89c13.12,16.16-17.19,58.2-38.85,76.88-4.33,31.14-39,142.22,154.66,120.15,118.81-13.54,173.86-368.34,206.48-432.25-83.07,12.68-137.82,83.53-260.21,231.81C2382.06,857.45,2331.44,853.61,2331.16,861.89Z"/><g clip-path="url(#z)"><path fill="#eff1f7" d="M2532.05,817.16c-46-10.6,6.14,195.89-173.2,200.66s37.13,83.51,37.13,83.51l193.48-31.25"/></g><path fill="none" stroke="#020000" stroke-miterlimit="10" stroke-width="3" d="M2331.16,861.89c13.12,16.16-17.19,58.2-38.85,76.88-4.33,31.14-39,142.22,154.66,120.15,118.81-13.54,173.86-368.34,206.48-432.25-83.07,12.68-137.82,83.53-260.21,231.81C2382.06,857.45,2331.44,853.61,2331.16,861.89Z"/><path fill="#2660f5" d="M2976.83,1076.25c-86.37-.07-235.39,67.7-223.39-26.42-11.42-92.72-37.09-212.5-32.13-234.72,16.32-25.31,68.11-14.65,144.78-29.37,72.56-9.69,85.44-15.94,92.79,16.85C2959.54,873.42,3023.79,1069.34,2976.83,1076.25Z"/><g clip-path="url(#A)"><path fill="#0749a8" d="M2714,1043.92c94.88-79.33,309,26.69,309,26.69-1.72-.76-58.19-142-57.42-133-68.32-1-173.49-3.55-228.4,3.91"/></g><path fill="none" stroke="#020000" stroke-miterlimit="10" stroke-width="3" d="M2976.83,1076.25c-86.37-.07-235.39,67.7-223.39-26.42-11.42-92.72-37.09-212.5-32.13-234.72,16.32-25.31,68.11-14.65,144.78-29.37,72.56-9.69,85.44-15.94,92.79,16.85C2959.54,873.42,3023.79,1069.34,2976.83,1076.25Z"/><path fill="#fff" stroke="#020000" stroke-miterlimit="10" stroke-width="3" d="M2875.45,801.65l-65.14,9.07a5.94,5.94,0,0,1-6.72-5.07l-2.43-17.44a6,6,0,0,1,5.07-6.72l65.15-9.08a6,6,0,0,1,6.71,5.08l2.43,17.44A6,6,0,0,1,2875.45,801.65Z"/><path fill="#fff" d="M2732.88,901.23c-1,43.19-34.28,114.56,86.71,71.49,15.06-26.45,220,128.26,285.14,74.93,56.15-71-75-92.5-168.47-112.43C2826,912.47,2859.12,887.64,2732.88,901.23Z"/><g clip-path="url(#B)"><path fill="#eff1f7" d="M3033.59,952.09c105.84,58.49,55.83,90.34,53.21,114.29,43.73-15,37.22-61.59,43-85.17.66-.1-66.65-25.77-70-27.31"/></g><path fill="none" stroke="#020000" stroke-miterlimit="10" stroke-width="3" d="M2732.88,901.23c-1,43.19-34.28,114.56,86.71,71.49,15.06-26.45,220,128.26,285.14,74.93,56.15-71-75-92.5-168.47-112.43C2826,912.47,2859.12,887.64,2732.88,901.23Z"/><path fill="#fff" d="M2588.55,649.13c64.9-22.46,102.82-49.68,102.82-49.68s-93.74,42.24-89.17,247.71c3.31,148.75,36.35,283-87.53,511.68-91.89,169.63,50.42,450.18,50.42,450.18-586.41-105.27,52.52-722.13-33-991.86"/><path fill="none" stroke="#020000" stroke-miterlimit="10" stroke-width="3" d="M2588.55,649.13c64.9-22.46,102.82-49.68,102.82-49.68s-93.74,42.24-89.17,247.71c3.31,148.75,36.35,283-87.53,511.68-91.89,169.63,50.42,450.18,50.42,450.18-586.41-105.27,52.52-722.13-33-991.86"/><path fill="#fff" stroke="#020000" stroke-miterlimit="10" stroke-width="3" d="M2604.68,906.38l-16.13-191.73,39.51-15.92-51.54-52.3L2697,592.91S2624.5,662.41,2604.68,906.38Z"/><path fill="none" stroke="#020000" stroke-miterlimit="10" stroke-width="3" d="M2401.61,854.59A96.91,96.91,0,0,1,2447,882.47"/><path fill="none" stroke="#020000" stroke-miterlimit="10" stroke-width="3" d="M2933.65,1306.3l15,14"/><path fill="none" stroke="#020000" stroke-miterlimit="10" stroke-width="3" d="M2650.64,2076.19l30.2,24.5"/><path fill="none" stroke="#020000" stroke-miterlimit="10" stroke-width="3" d="M2881.12,844l15.11,7"/><path fill="#fff" d="M2675.05,326.07c-7.32,102.51-91.44,171.39,13.66,210.84C2820.05,586.22,2850,352.31,2850,352.31Z"/><g clip-path="url(#C)"><path fill="#eff1f7" d="M2643.58,423.08c31.47-97,51.69-73.66,79-52.53s46.1-9.63,59.55,10.23,9.86,75,32.27,66.71-1.34-89.38-1.34-89.38L2692.29,311s-44.23,28.24-44.23,29.59"/><path fill="#eff1f7" d="M2629.91,433.51c-.25,8.31,7.83,16,18.36,17.29,10.9,1.32,20.35-4.68,20.76-13.52s-8.51-16.82-19.58-17.61C2638.77,418.9,2630.16,425.13,2629.91,433.51Z" opacity=".5"/></g><path fill="none" stroke="#020000" stroke-miterlimit="10" stroke-width="3" d="M2675.05,326.07c-7.32,102.51-91.44,171.39,13.66,210.84C2820.05,586.22,2850,352.31,2850,352.31Z"/><path fill="#020000" d="M2669.13,367.92c27.46-69.56,30.78,8.8,63.73,3.92s76.89-11.6,74.45,48.81,18.91,51.87,18.91,51.87,64.68-5,53.09-65.07c23.8-11.21,19.53-46-12.81-61.85,3.66-46.38-20.75-54.92-49.43-42.11-39.05-65.9-80.51-67.73-103.13-21.35-51.86-12.21-84.2,27.45-59.8,49.42-40.27,26.85,5.73,63.5,5.73,63.5Z"/><g clip-path="url(#D)"><path fill="#020000" d="M2680.64,264.22l33.3,17.92h0c22.88,7.33,21.9,6.22,7.6-12.8s-38.81-11.54-38.81-11.54"/><path fill="#020000" d="M2820.05,459.91c-11-6.31,25.84-26.4,45-9.36s-29.89,30.54-29.89,30.54"/><path fill="#020000" d="M2802.86,275.75c7.17,8.64-2.06-12.93,14.21,27.74s19.07-3.56,13.19-23.28-27.4-16.44-27.4-16.44"/><path fill="#020000" d="M2636.27,392.57c22.92,3.42,29.44-54.08,39.89-42.53s-9.07,57-9.07,57l-33,13.19"/></g><path fill="none" stroke="#020000" stroke-miterlimit="10" stroke-width="3" d="M2669.13,367.92c27.46-69.56,30.78,8.8,63.73,3.92s76.89-11.6,74.45,48.81,18.91,51.87,18.91,51.87,64.68-5,53.09-65.07c23.8-11.21,19.53-46-12.81-61.85,3.66-46.38-20.75-54.92-49.43-42.11-39.05-65.9-80.51-67.73-103.13-21.35-51.86-12.21-84.2,27.45-59.8,49.42-40.27,26.85,5.73,63.5,5.73,63.5Z"/><path fill="#fff" stroke="#020000" stroke-miterlimit="10" stroke-width="3" d="M2792.66,465.81c75.67-37.43,70.38,56.14,0,39.86"/><path fill="#fff" d="M2722.37,420.45c-9.5,26.56,16.57,35.91,27.71,10.73C2760.07,403.32,2733,396.21,2722.37,420.45Z"/><g clip-path="url(#E)"><path fill="#020000" d="M2723.5,421.1c-3.3,13.25,9.9,18.06,14.72,3.48C2741.59,411,2728.2,406.83,2723.5,421.1Z"/></g><path fill="#fff" d="M2667.44,403.37c-8.58,24.11,12.79,31.76,22.64,8.95C2699.07,387.14,2676.88,381.34,2667.44,403.37Z"/><g clip-path="url(#F)"><path fill="#020000" d="M2667.09,407.08c-3,12,7.78,16,12.08,2.83C2682.25,397.66,2671.3,394.13,2667.09,407.08Z"/></g><path fill="#020000" d="M2677.57,370.41c24.63-13.7,35.25-3.7,19.57,6C2682.38,385.6,2662.69,378.69,2677.57,370.41Z"/><path fill="#020000" d="M2749.51,381.75c29.33,20.05,25.85,36.42,6,24C2737,394.14,2731.92,369.73,2749.51,381.75Z"/><path fill="#eff1f7" d="M2685.42,443c6.63-6,9.85-22.82,14.9-19.44,6.22.3-3.11,15.33-1.45,24.47s-6,11.33-10.83,9.4c0,0,0,0,0,0h0C2683.21,455.47,2678.88,448.84,2685.42,443Z"/><path fill="#eff1f7" d="M2708.3,461.39c-.25,8.31,7.83,16,18.36,17.29,10.9,1.33,20.34-4.68,20.75-13.51s-8.51-16.83-19.57-17.62C2717.15,446.79,2708.55,453,2708.3,461.39Z" opacity=".5"/><path fill="none" stroke="#020000" stroke-miterlimit="10" stroke-width="3" d="M2674.06,472.93c11.09,12.49,23.76,3.23,23.76,3.23"/><path fill="none" stroke="#020000" stroke-miterlimit="10" stroke-width="3" d="M2818.28,471.42c19.72-3.27,12.66,22.05-3.73,16.49"/><rect width="945.47" height="239.21" x="2029.18" y="1782.24" fill="#fff" rx="49.39"/><g clip-path="url(#G)"><path fill="#eff1f7" d="M2954.41,1764.24c13.71,329.77-720.11,207.66-662,257.21s113,164.78,121.17,178.11S3018.41,2254,3018.41,2254l82.3-260-54.86-188"/></g><rect width="945.47" height="239.21" x="2029.18" y="1782.24" fill="none" stroke="#020000" stroke-miterlimit="10" stroke-width="3" rx="49.39"/><g opacity=".49"><rect width="544.32" height="37.74" x="2314.05" y="1844.78" fill="#fff" stroke="#020000" stroke-miterlimit="10" stroke-width="3" rx="13.46"/><rect width="198.99" height="37.17" x="2314.05" y="1901.85" fill="#fff" stroke="#020000" stroke-miterlimit="10" stroke-width="3" rx="13.46"/><rect width="198.99" height="37.17" x="2534.94" y="1901.85" fill="#fff" stroke="#020000" stroke-miterlimit="10" stroke-width="3" rx="13.46"/></g><path fill="#fff" stroke="#020000" stroke-miterlimit="10" stroke-width="3" d="M2173.87,1949.78a14.6,14.6,0,0,1-9.9-3.85l-49.54-45.41a14.67,14.67,0,0,1,19.82-21.62l39.46,36.17,69.88-66.27a14.66,14.66,0,0,1,20.18,21.28L2184,1945.76A14.6,14.6,0,0,1,2173.87,1949.78Z"/><path fill="none" stroke="#020000" stroke-miterlimit="10" stroke-width="3" d="M2162.13,1827.69l-6.86,6.86"/><path fill="none" stroke="#020000" stroke-miterlimit="10" stroke-width="3" d="M2875.11,1948.59a98.11,98.11,0,0,1-43.45,22.85"/><path fill="#06d1c3" stroke="#020000" stroke-miterlimit="10" stroke-width="3" d="M1835.55,523.85,1396.71,647.38s-1.59-358.55,272.22-365.4c191.13-4.77,217.1,149.07,217.1,149.07Z"/><path fill="#fff" stroke="#020000" stroke-miterlimit="10" stroke-width="3" d="M1862.35,1578.86c-147.74-173.3,313.44-196.18,35.15-374.46C1577,999.1,2704.1,198.22,1646.39,283.4c0,0,375.71,30.37-4.74,541.31-379.51,509.65,240.52,304.82,118,561.62C1687.7,1537.14,1862.35,1578.86,1862.35,1578.86Z"/><polygon fill="#eff1f7" points="1884.16 600.23 1804.13 600.23 1863.85 460.6 1943.88 460.6 1884.16 600.23"/><path fill="#eff1f7" d="M2071.55,486.62H1959.19c-3.73,0-4.74-4.72-2.25-10.56l2.1-4.9c2.49-5.83,7.55-10.56,11.28-10.56h112.36c3.73,0,4.74,4.73,2.25,10.56l-2.1,4.9C2080.33,481.9,2075.28,486.62,2071.55,486.62Z"/><path fill="#eff1f7" d="M2048.64,540.19H1936.28c-3.73,0-4.74-4.73-2.25-10.56l2.1-4.9c2.5-5.83,7.55-10.56,11.28-10.56h112.36c3.74,0,4.74,4.73,2.25,10.56l-2.1,4.9C2057.43,535.46,2052.37,540.19,2048.64,540.19Z"/><path fill="#eff1f7" d="M2025.73,593.76H1913.37c-3.73,0-4.74-4.73-2.24-10.56l2.09-4.9c2.5-5.84,7.55-10.56,11.28-10.56h112.36c3.74,0,4.74,4.72,2.25,10.56l-2.1,4.9C2034.52,589,2029.47,593.76,2025.73,593.76Z"/><path fill="#eff1f7" d="M1970.19,670H1778.36c-2.24,0-2.84-2.82-1.35-6.31l1.26-2.93c1.49-3.48,4.5-6.31,6.74-6.31h191.83c2.23,0,2.83,2.83,1.34,6.31l-1.25,2.93C1975.44,667.13,1972.42,670,1970.19,670Z"/><path fill="#eff1f7" d="M1949.36,718.67H1757.52c-2.23,0-2.83-2.82-1.34-6.31l1.25-2.92c1.49-3.49,4.51-6.31,6.74-6.31H1956c2.23,0,2.83,2.82,1.34,6.31l-1.25,2.92C1954.61,715.85,1951.59,718.67,1949.36,718.67Z"/><path fill="#eff1f7" d="M1928.52,767.4H1736.68c-2.23,0-2.83-2.83-1.34-6.31l1.25-2.93c1.5-3.49,4.51-6.31,6.74-6.31h191.84c2.23,0,2.83,2.82,1.34,6.31l-1.25,2.93C1933.77,764.57,1930.75,767.4,1928.52,767.4Z"/><path fill="#eff1f7" d="M1907.68,816.12H1715.85c-2.23,0-2.83-2.83-1.34-6.31l1.25-2.93c1.49-3.49,4.51-6.31,6.74-6.31h191.83c2.24,0,2.84,2.82,1.35,6.31l-1.26,2.93C1912.93,813.29,1909.92,816.12,1907.68,816.12Z"/><path fill="#eff1f7" d="M1777.8,881.42h-89.88c-2.23,0-2.83-2.82-1.34-6.31l1.25-2.93c1.49-3.48,4.51-6.31,6.74-6.31h89.88c2.23,0,2.83,2.83,1.34,6.31l-1.25,2.93C1783.05,878.6,1780,881.42,1777.8,881.42Z"/><path fill="#160a0a" stroke="#020000" stroke-miterlimit="10" stroke-width="3" d="M1804.57,1081.81a245.49,245.49,0,0,1-65.15,33"/><path fill="none" stroke="#020000" stroke-miterlimit="10" stroke-width="3" d="M1926,345.33A45.64,45.64,0,0,1,1898,366.08"/></svg>