<svg xmlns="http://www.w3.org/2000/svg" enable-background="new 0 0 6000 4000" viewBox="0 0 6000 4000"><path fill="none" d="M3758.4,1334.3L3758.4,1334.3L3758.4,1334.3C3758.4,1334.3,3758.4,1334.3,3758.4,1334.3z"/><path fill="none" d="M5271.7,3939.3h24.1c-0.7-2.7-1.5-6-2.5-9.9C5286.3,3933.2,5279.1,3936.5,5271.7,3939.3z"/><path fill="none" d="M4937.5,3939.3h206.4c-65.4-25.1-112.2-87.6-114.4-161.3h-71.4C4947.5,3861.7,4940,3919.8,4937.5,3939.3z"/><circle cx="3533.9" cy="2941.9" r="50.2" fill="none"/><path fill="#fff" d="M3858.7,1075.6c0-13,1.1-25.3,4-36.1c1.9-7,2.7-13.3,2.7-18.7c0-10.9-3.1-18.5-7.4-23.5
		c-4.3-4.9-9.7-7.3-15.2-7.3c-5.2,0-10.4,2.1-14.8,6.7c-4.4,4.6-7.9,11.8-9,22.2c-1.7,16.7-3.2,29.6-5,39.6
		c-1.8,10-3.9,17.1-7.1,22.5c-2.1,3.5-5.2,6.3-8.8,7.7c-2.1,0.8-4.2,1.1-6.4,1.1c-0.7,0-1.5,0-2.2-0.1l0,0c-1.6-0.2-2.9-0.6-4.2-1.2
		c-1.3-0.6-2.6-1.3-4-2.2c-2.7-1.7-5.8-4-9.3-6.8c-7-5.6-15.5-13.1-25-21.8c-19.1-17.2-42.1-38.5-63.8-55.7
		c-14.4-11.5-28.3-21.1-39.5-26.4c-15.6-7.4-28.5-10.3-38.4-10.3c-9.7,0-16.5,2.7-21.2,6.8c-4.7,4.1-7.4,9.7-8.2,16.5l-0.1,0.4
		l0,0.1l-0.1,0.5c-0.1,0.5-0.2,1.1-0.3,2c-0.3,1.8-0.6,4.4-1,7.8c-0.7,6.7-1.5,16.2-1.5,27.4c0,19.9,2.4,44.9,11.2,68.4
		c8.8,23.5,23.8,45.4,49.4,59.9c52.6,29.9,101.8,70.4,134.9,109c5.4-10.7,13.1-21.8,24-33.1c18.2-18.8,37.9-29.6,55.5-35.5
		c10.5-3.6,20.3-5.4,28.6-6.4c-0.4-1.6-0.8-3.2-1.3-4.8C3867,1151.8,3858.7,1110.7,3858.7,1075.6z"/><path d="M3768.4,1264.2c-33.1-38.6-82.2-79.1-134.9-109c-25.5-14.5-40.6-36.4-49.4-59.9c-8.8-23.5-11.2-48.5-11.2-68.4
		c0-11.2,0.7-20.7,1.5-27.4c0.4-3.3,0.7-6,1-7.8c0.1-0.9,0.3-1.6,0.3-2l0.1-0.5l0-0.1l0.1-0.4c0.8-6.8,3.5-12.4,8.2-16.5
		c4.7-4.1,11.5-6.8,21.2-6.8c9.9,0,22.8,3,38.4,10.3c11.2,5.3,25.1,14.9,39.5,26.4c21.7,17.2,44.7,38.5,63.8,55.7
		c9.5,8.6,18.1,16.2,25,21.8c3.5,2.8,6.6,5.1,9.3,6.8c1.4,0.9,2.7,1.6,4,2.2c1.3,0.6,2.6,1,4.2,1.2l0,0c0.7,0.1,1.4,0.1,2.2,0.1
		c2.2,0,4.3-0.3,6.4-1.1c3.7-1.4,6.7-4.2,8.8-7.7c3.3-5.3,5.3-12.5,7.1-22.5c1.8-10,3.4-22.9,5-39.6c1-10.4,4.6-17.6,9-22.2
		c4.4-4.6,9.6-6.7,14.8-6.7c5.5,0,10.9,2.3,15.2,7.3c4.3,4.9,7.4,12.6,7.4,23.5c0,5.5-0.8,11.7-2.7,18.7c-2.9,10.8-4,23-4,36.1
		c0,35.1,8.3,76.2,16.6,108.7c0.4,1.6,0.8,3.2,1.3,4.8c4-0.4,7.6-0.7,10.8-0.8c-1.1-4.1-2.2-8.4-3.3-12.8
		c-7.6-31-14.8-68.6-14.7-100c0-12.4,1.1-23.8,3.6-33.3c2.1-7.8,3-15,3-21.5c0-12.9-3.8-23.3-10-30.4c-6.2-7.2-14.7-11-23.3-11
		c-8.1,0-16.3,3.4-22.5,10c-6.3,6.6-10.6,16.2-11.9,28.5c-1.3,12.6-2.4,23-3.7,31.5c-1.9,12.6-4,20.9-6.3,25.1
		c-1.1,2.1-2.2,3.2-3.1,3.8c-0.9,0.6-1.9,0.9-3.6,0.9c-0.4,0-0.8,0-1.2-0.1l-0.1,0c-0.4-0.1-1.4-0.6-2.7-1.4
		c-2.5-1.5-6-4.1-10.2-7.5c-14.6-11.9-37.2-33.3-60.8-54c-11.8-10.3-23.9-20.5-35.6-29.3c-11.6-8.8-22.7-16.1-32.8-20.9
		c-16.7-7.9-30.9-11.3-42.9-11.4c-11.7,0-21.3,3.4-28.2,9.4c-6.8,5.9-10.6,14.1-11.7,23h0c0,0.2-3.1,16.6-3.1,39.8
		c0,20.7,2.4,46.9,11.9,72.1c9.4,25.2,26,49.5,54.1,65.4c41.4,23.5,80.9,54,111.4,84.5c8.8,8.7,16.8,17.5,23.9,26
		C3764.9,1271.4,3766.5,1267.8,3768.4,1264.2z"/><path fill="#eff0f1" d="M4657.3,3778.1h-83.5c0,0,0,0,0,0h-321.1c0,0,0,0,0,0h-169.1c-2.2,73.7-49,136.2-114.4,161.3h695
		c0.1-3.4,0.2-8.5,0.2-15.4C4664.2,3899.3,4663.1,3851.8,4657.3,3778.1z"/><path fill="#eff0f1" d="M3336.1,3876.8c0,21.2-1.4,42.1-4.1,62.5h509.2c-65.4-25.1-112.2-87.6-114.4-161.3h-220.9
		c-1.4,0-2.8-0.6-3.8-1.6c-1-1-1.6-2.4-1.6-3.8v-20.8h-7.2c-1.9,0-3.7-1-4.7-2.7l-37-66.7c-0.4-0.8-0.7-1.7-0.7-2.6v-84.1
		c0-1.4,0.6-2.8,1.6-3.8c1-1,2.4-1.6,3.8-1.6h44.2v-53.9v-34.8c0-49.5,27-95.1,70.5-118.9h0l32.4-17.7l0,0l136.2-74.4
		c-103.8-42.1-220.1-65.7-342.8-65.7c-86.5,0-169.8,11.7-247.8,33.4v244.7C3261.5,3582.2,3336.1,3720,3336.1,3876.8z"/><path fill="#fff" d="M4932,3898.3c3.7-28.8,9-69.9,15.4-120.2h-279.4c5.8,73.5,6.9,121,6.9,145.8c0,6.8-0.1,11.9-0.2,15.4h252
		c0.2-1.7,0.5-3.8,0.8-6.3C4928.6,3925.1,4930.1,3913.4,4932,3898.3z"/><path fill="#fff" d="M4974.7,2690.1c-2.1,0-3.9-1.3-4.7-3.1c-8.5-18.9-15.3-44.6-21-76c-5.7-31.4-10.1-68.5-13.5-110
		c-1.2-14.9-2.3-30.5-3.3-46.5c-38.8-2.2-76.2-7.4-110.6-15.3c3.4,54.5,7.4,102.9,12,142.5c3.8,32.5,8.1,59.1,12.8,78.2
		c0.4,1.6,0,3.3-1,4.6c-1,1.3-2.6,2-4.2,2c-1.9,0-3.8,0-5.7,0c-93.7,0-162.2-3-212.2-7.1c-1.7,57.3-3.2,116.8-4.3,176.8h416.3
		c-10.8-52.4-20.5-101.5-28.6-145.7C4996.2,2690.5,4985.6,2690.3,4974.7,2690.1z"/><path d="M4931.2,3951.1c1.3,0,2.4-0.5,3.3-1.2h-265.2L4931.2,3951.1z"/><path d="M4947.4,3778.1c-6.4,50.4-11.7,91.4-15.4,120.2c-1.9,15.1-3.4,26.8-4.5,34.7c-0.3,2.5-0.6,4.6-0.8,6.3h10.7
		c2.5-19.5,10-77.7,20.6-161.3H4947.4z"/><path d="M4619,2836.2c1.1-60,2.6-119.5,4.3-176.8c-3.6-0.3-7.2-0.6-10.6-0.9c-1.7,57.6-3.2,117.4-4.3,177.7H4619z"/><path d="M4667.9,3778.1h-10.7c5.9,73.7,6.9,121.2,6.9,145.8c0,6.9-0.1,12-0.2,15.4h10.6c0.1-3.5,0.2-8.6,0.2-15.4
		C4674.8,3899.1,4673.8,3851.5,4667.9,3778.1z"/><path fill="#fff" d="M5386.1,3778.1c-1.8,61.4-34.6,115-83.3,145.7c0.7,2.6,1.3,5,1.8,7.2c0.9,3.4,1.6,6.2,2.1,8.4h259.5
		c-1.2-19.3-4.9-78.4-10-161.3H5386.1z"/><path fill="#fff" d="M5500.5,2625.1c-75.5,28-223.3,65.6-473.2,65.6c-3.2,0-6.6,0-9.8-0.1c6.3,34.4,13.5,71.7,21.5,111.2
		c2.3,11.3,4.6,22.8,7.1,34.4h459.7c-1.9-53.7-3-98.2-3-129.5C5502.8,2679.9,5502,2652.5,5500.5,2625.1z"/><path d="M5302.9,3951.1h269c1.2,0,2.4-0.4,3.3-1.2h-275.7C5300.5,3950.7,5301.7,3951.1,5302.9,3951.1z"/><path d="M5500.5,2625.1c1.5,27.4,2.3,54.8,2.3,81.7c0,31.2,1.1,75.7,3,129.5h10.6c-1.9-53.8-3-98.4-3-129.5
		c0-28.2-0.9-56.9-2.5-85.7C5507.6,2622.4,5504.2,2623.7,5500.5,2625.1z"/><path d="M5556.2,3778.1c5.1,82.9,8.8,141.9,10,161.3h10.7c-0.1-1.5-0.2-3.2-0.3-5.1c-1.4-22.9-5-79.2-9.7-156.1H5556.2z"/><path d="M5302.8,3923.7c-3.1,2-6.3,3.9-9.5,5.7c1,3.9,1.8,7.3,2.5,9.9h11c-0.5-2.2-1.3-4.9-2.1-8.4
		C5304.1,3928.8,5303.5,3926.4,5302.8,3923.7z"/><path d="M5017.5,2690.6c-3.6,0-7.2,0-10.8-0.1c8.1,44.2,17.7,93.3,28.6,145.7h10.9c-2.4-11.6-4.8-23.1-7.1-34.4
		C5031.1,2762.3,5023.8,2725,5017.5,2690.6z"/><path fill="#61c3da" d="M4925.9,2208.7c0-146.6,5-306.9,11.6-454.7c-2.2-31-3.2-64-3.2-97.8c0-104.2,9.1-215.9,18.2-301.3
		c-3.6,3.9-7.3,7.7-10.9,11.5c-19.7,20.5-37.5,37.6-37.5,37.6c-1.7,1.6-4.2,1.9-6.2,0.8l-88.8-48.2c1,46.5,1.8,101.9,1.8,160.2
		c0,87.4-1.8,181.2-7.6,261c0.8,99.5,2.2,204.2,4.5,305.7c2.8,124.4,7,244.2,13,344.4c34.2,8,71.8,13.3,110.7,15.6
		C4927.6,2373.2,4925.9,2293.3,4925.9,2208.7z"/><path d="M4931.6,2443.8c-39-2.3-76.5-7.6-110.7-15.6c0.2,3.7,0.4,7.4,0.7,11c34.4,7.9,71.8,13.1,110.6,15.3
		C4932,2450.9,4931.8,2447.4,4931.6,2443.8z"/><path fill="#eff0f1" d="M1013.7,3840.2c0-233.6,106.3-440,268.9-564.9v-526.2c-54.3,45.7-94.9,98.8-117.5,156.7
		c-58,11.6-113.3,30.1-165,54.5c21.6,20.1,50.6,32.5,82.5,32.5c1.4,0,2.8,0.6,3.8,1.6c1,1,1.6,2.4,1.6,3.8c0,1.4-0.6,2.8-1.6,3.8
		c-1,1-2.4,1.6-3.8,1.6c-33.5,0-63.7,13.6-85.6,35.5c-21.9,21.9-35.5,52.2-35.5,85.7c0,1.4-0.6,2.8-1.6,3.8c-1,1-2.4,1.6-3.8,1.6
		h-0.1c-1.4,0-2.8-0.6-3.8-1.6c-1-1-1.6-2.4-1.6-3.8c0-33.5-13.5-63.7-35.5-85.7c-6.3-6.3-13.4-12-21-16.8
		c-170.2,120.6-280.5,313.4-280.5,530.8c0,144.2,48.6,277.6,131,386.3h275.5C1016,3906.9,1013.7,3873.9,1013.7,3840.2z"/><path fill="#c1bebc" d="M1282.6,3674.8v-399.6c-162.6,124.9-268.9,331.4-268.9,564.9c0,33.7,2.2,66.7,6.5,99.1H1482
		C1366.9,3906.4,1282.6,3800.5,1282.6,3674.8z"/><path fill="#d0d5d8" d="M3224.5,2337.9c-2-1.3-3.9-2.8-5.5-4.5c-23.1,24.1-46.5,50.1-70,78.2v11.1
		C3174.4,2392,3199.6,2363.8,3224.5,2337.9z"/><path fill="#d0d5d8" d="M3670.1,2056c0.8,0.4,1.5,0.8,2.3,1.2c39.4-9.4,69.6-12.3,88.1-13.2c-0.3-1.2-0.5-2.3-0.6-3.6
		c-0.1-1.2-0.1-2.4,0-3.5c-19.9,0.9-52.6,4.2-95.2,14.8c-0.3,0.4-0.6,0.9-0.9,1.3C3665.9,2054,3668,2054.9,3670.1,2056z"/><path fill="#d0d5d8" d="M3301.3,2264c28.9-25.6,57.2-48.3,84.7-68.3c-0.3-3,0-6.2,1.1-9.6c-27.8,20-56.4,42.6-85.7,68.3
		C3301.5,2257.5,3301.5,2260.7,3301.3,2264z"/><path fill="#d0d5d8" d="M3521.3,2112.9c13.4-6.7,26.5-12.7,39.1-18.1c-1.6-1.9-3.1-3.9-4.3-5.9c-12.3,5.3-25,11.2-38,17.6
		c-12.7,6.3-25.8,13.2-39.1,20.7c-1,3.4-2.3,6.8-3.7,10.3C3491,2128.5,3506.4,2120.3,3521.3,2112.9z"/><path fill="#d0d5d8" d="M3733.9,2388.9C3733.9,2388.9,3733.9,2388.9,3733.9,2388.9c0.9-1.1,1.8-2.1,2.7-3c-3.3-0.9-6.4-2.1-9.3-3.8
		c-90.4,4.2-187.6,16.7-282.9,43.3c-2,3.2-4.1,6.3-6.2,9.2C3537.6,2405.9,3639.5,2392.9,3733.9,2388.9z"/><path fill="#d0d5d8" d="M3335.6,2470.5c0.1-0.7,0.3-1.4,0.5-2.1c0.8-2.7,2.2-5.2,4.1-7.5c-67.5,27.6-132.4,63.8-191.2,111v9.2
		C3206.3,2534.3,3269.5,2498.2,3335.6,2470.5z"/><path fill="#d0d5d8" d="M3951.9,2393.9c-0.7-0.7-1.5-1.5-2.2-2.3c-1.4-1.7-2.5-3.5-3.5-5.3c-43.4-3.6-92-6-143.9-6c-1.8,0-3.7,0-5.5,0
		c4,2,7.9,4.3,11.6,7.1C3860.3,2387.6,3908.8,2390.2,3951.9,2393.9z"/><path fill="#d0d5d8" d="M4034.9,2402.9c3.8,0.5,7.5,1,11.1,1.5c30.6,4.2,55.1,8.5,71.9,11.7c8.4,1.6,14.9,2.9,19.3,3.8
		c2.2,0.5,3.9,0.8,5,1.1c1.1,0.2,1.7,0.4,1.7,0.4c0.2,0,0.3,0,0.5,0c0-2.4,0.2-4.8,0.5-7.1c-5.9-1.3-53.2-11.7-126.3-20.6
		c0,0,0,0,0,0C4024.4,2395.4,4030,2398.5,4034.9,2402.9z"/><path fill="#d0d5d8" d="M3270.8,1967.2c-2.6,0.2-5.2-0.2-7.7-1c-40.2,64.4-79.5,132-114,199.6v15.7
		C3185.4,2109,3227.6,2036.3,3270.8,1967.2z"/><path fill="#d0d5d8" d="M3502.8,1634.5c3.7-4.8,7.3-9.5,10.8-14c13.9-18,25.6-32.8,34.6-44.1c-1.7-1.6-3.3-3.4-4.6-5.6
		c-12.2,15.4-29.9,37.8-51.3,65.9c1.1-0.3,2.1-0.6,3.2-0.8C3497.8,1635.3,3500.3,1634.8,3502.8,1634.5z"/><path fill="#d0d5d8" d="M3315.7,1897.1c23-34.9,45.8-68.4,67.8-99.8c21.5-30.8,42.3-59.6,61.6-85.9c-1.1-1-2.2-2-3.3-3
		c-1.2,1.8-2.4,3.5-3.7,5.1c-2.7,3.2-5.8,5.9-9.2,8.1c-16.3,22.4-33.5,46.4-51.2,71.7c-23.7,33.9-48.4,70.3-73.3,108.2
		c0,0.3,0,0.6,0,0.9C3308,1900.4,3311.7,1898.7,3315.7,1897.1z"/><path fill="#eff0f1" d="M3335.6,2470.5c-2.2,12.1,6.7,26.1,22.8,39.5c17.1,14.2,42.3,27.8,71.7,37.8c29.4,10.1,57.7,14.7,79.9,13.9
		c22.2-0.8,38.4-7.1,43.1-19.3c4.7-12.1-3-27.9-19.7-43.3c-16.7-15.4-42.3-30.4-72.9-40.8c-12.2-4.2-24.3-7.2-35.8-9.3
		c-13.1,11.5-27.5,16.5-40,12.1c-6.7-2.3-12-7.2-16.1-13.8c-13.1,2.3-23.2,6.9-28.7,13.6c-1.9,2.3-3.3,4.7-4.1,7.5
		C3335.9,2469.1,3335.7,2469.8,3335.6,2470.5z"/><path fill="#eff0f1" d="M3385,2461.1c12.4,4.4,26.8-0.6,40-12.1c4.6-4.1,9.1-8.9,13.3-14.5c2.2-2.9,4.2-5.9,6.2-9.2
		c4.9-7.9,9.2-16.8,12.6-26.5c15.2-43.1,7.5-85-17.1-93.7c-24.6-8.7-56.9,19.2-72.1,62.3c-11.1,31.4-9.9,62.2,1,79.9
		C3372.9,2453.9,3378.3,2458.8,3385,2461.1z"/><path fill="#eff0f1" d="M3785.2,2375.9c5.4-3.4,10.7-7.4,15.6-12.2c26.5-25.7,33.2-61.7,15-80.5c-18.2-18.7-54.4-13.1-80.9,12.6
		c-26.5,25.7-33.2,61.7-15,80.5c2.2,2.3,4.7,4.2,7.4,5.8c2.9,1.7,6,2.9,9.3,3.8C3748.2,2374,3766.8,2370.6,3785.2,2375.9z"/><path fill="#eff0f1" d="M3736.6,2385.8c-0.9,1-1.9,1.9-2.7,3c0,0,0,0,0,0c-16.2,20.5-8.3,53.6,17.6,74c25.9,20.4,59.9,20.3,76.1-0.2
		c16.2-20.5,8.3-53.6-17.5-74.1c-0.6-0.4-1.1-0.8-1.7-1.2c-3.7-2.8-7.6-5.2-11.6-7.1c-3.8-1.9-7.7-3.4-11.6-4.5
		C3766.8,2370.6,3748.2,2374,3736.6,2385.8z"/><path fill="#eff0f1" d="M3951.9,2393.9c7.1,7,17,10.5,28.3,10.7c7.2-7.2,16.1-11.7,25.9-12.3c4.1-0.3,8.3,0.2,12.4,1.4c0,0,0,0,0,0
		c4.9-2.8,9.8-6.1,14.4-9.9c29.2-24.4,39.3-60.4,22.6-80.5c-16.7-20-54-16.5-83.2,7.9c-26.8,22.4-37.5,54.5-26.1,75.1
		c1,1.9,2.2,3.7,3.5,5.3C3950.4,2392.5,3951.1,2393.2,3951.9,2393.9z"/><path fill="#eff0f1" d="M4006,2392.3c-9.8,0.6-18.7,5.1-25.9,12.3c-1.7,1.7-3.4,3.6-4.9,5.6c-7.8,10.5-11.8,22.3-13.5,32.1
		c-1.6,10-1.1,18.1,3.3,23.7c4.3,5.6,12.1,8.2,22.1,9.1c10,0.8,22.4-0.1,34.5-5.1c12-4.9,21.3-13.8,25-25.4
		c3.8-11.4,1.7-25.4-6.9-36.5c-1.5-1.9-3.1-3.6-4.9-5.2c-4.9-4.5-10.5-7.6-16.4-9.2C4014.4,2392.5,4010.1,2392,4006,2392.3z"/><path fill="#eff0f1" d="M4144.5,2427.1c1,13,5,24.6,9.1,33.1c4.2,8.5,8.7,14,14,14.7c5.3,0.8,11.1-3.3,17.6-10.3
		c6.3-7,13.3-17,17.9-29.2c4.6-12.2,5.4-24.6,1.4-34.8c-3.9-10.1-12.6-17.8-23.6-19.3c-11-1.6-21.5,3.4-28,12
		c-4.4,5.7-7.1,13-8.1,21c-0.3,2.3-0.5,4.7-0.5,7.1C4144.3,2423.3,4144.4,2425.2,4144.5,2427.1z"/><path fill="#eff0f1" d="M3759.9,2040.5c0.1,1.2,0.3,2.4,0.6,3.6c2.6,11.5,13.5,21.1,28.6,28.5c16.7,8.1,38.6,13.7,63,15.9
		c24.3,2.3,46.9,0.9,64.9-3.9c17.8-4.9,31.1-13.4,34.6-26c3.4-12.5-4.1-27-20.5-39.3c-16.2-12.3-41.3-22.1-70.1-24.8
		c-28.8-2.7-55.3,2.3-73.5,11.4c-16.7,8.2-26.5,19.6-27.4,31.3C3759.8,2038.1,3759.8,2039.3,3759.9,2040.5z"/><path fill="#eff0f1" d="M3586.6,2042.8c2.8-0.6,5.7-1.1,8.7-1.5c3-0.4,6.2-0.5,9.4-0.6c6.5-0.3,13.4,0.3,20.6,1.2
		c12.3,1.8,25.5,5.5,38.4,11.2c0.3-0.4,0.6-0.9,0.9-1.3c10.2-14.5,15.1-30.6,14.7-44.7c-0.4-14.9-6.5-27.4-17.6-34.4
		c-11.1-6.9-24.8-7.2-38.1-2.6c-13.3,4.6-26.2,13.9-36.2,27.2c-10.1,13.3-15.5,28.2-16.3,42.3c-0.2,2.8-0.1,5.6,0.2,8.3
		c0.1-0.1,0.2-0.1,0.4-0.2C3576.1,2045.7,3581.1,2043.9,3586.6,2042.8z"/><path fill="#eff0f1" d="M3575,2108.7c1.8,1.4,3.6,2.8,5.5,4.1c1.9,1.3,3.8,2.8,5.9,4.2c4.1,2.6,8.3,5.5,12.7,8
		c8.8,5.4,18.4,10.5,28.7,15.6c10.2,5.2,20.1,9.8,29.7,13.6c4.7,2.1,9.5,3.7,14,5.4c2.3,0.8,4.6,1.5,6.8,2.2
		c2.2,0.7,4.4,1.4,6.6,1.9c17.3,4.6,33.1,5.6,43.4-2.7c5-4.2,7.9-10.3,8.5-18.2c0.3-4,0-8.4-1.1-13c-1-4.6-2.6-9.8-5-14.8
		c-1.2-2.6-2.5-5.2-4-7.9c-1.5-2.7-3.3-5.2-5.1-7.9c-3.7-5.4-8.3-10.6-13.3-15.8c-9.8-9.7-21.9-18.8-35.8-26.1
		c-0.8-0.4-1.5-0.8-2.3-1.2c-2.1-1-4.2-2-6.3-2.9c-13-5.7-26.1-9.4-38.4-11.2c-7.2-0.9-14.1-1.5-20.6-1.2c-3.3,0.1-6.4,0.2-9.4,0.6
		c-3,0.4-5.9,0.9-8.7,1.5c-5.5,1.1-10.5,2.9-14.9,4.9c-0.1,0.1-0.2,0.1-0.4,0.2c-4.2,1.9-7.8,4.2-10.7,6.8c-6,5.2-9.2,11.2-9.5,17.7
		c-0.2,5.8,1.6,11.3,4.9,16.6c1.2,2,2.7,3.9,4.3,5.9C3564.4,2099.6,3569.4,2104.2,3575,2108.7z"/><path fill="#eff0f1" d="M3408.9,2163.1c10.8-5.7,24.6-9.1,38.3-9.5c6.4-0.3,12.8,0.1,19.1,0.9c2.8-4.2,5.4-8.8,7.7-13.6
		c0.5-1.1,0.9-2.2,1.3-3.3c1.4-3.4,2.7-6.8,3.7-10.3c4.6-15.8,4.9-31.2,1.4-43.5c-4.4-15.9-14.4-26.4-27.1-29.1
		c-12.8-2.7-25.9,2.2-37.2,10.7c-11.3,8.6-21.1,20.8-28,35.7c-6.9,14.9-9.9,30.3-9.1,44.5c0.8,12.4,4.5,24,12.4,32
		C3395.3,2172.3,3401.2,2167.1,3408.9,2163.1z"/><path fill="#eff0f1" d="M3386,2195.7c0.4,3.2,1.4,6.2,3.1,8.8c3.4,5.6,8.7,9.7,13.7,13.6c4.8,3.7,9.8,7.4,14.9,11.3
		c5,3.7,10.3,7.1,17.5,10.5c3.5,1.7,7.5,3.4,11.9,5c4.5,1.7,9.1,3.2,14.9,4.8c22.3,6.2,43.9,7.5,61.2,4.4
		c17.3-3.1,30.5-10.8,35.1-23c4.5-12.2-0.7-26.8-13.5-40.2c-12.8-13.4-33.1-25.5-57.6-32.3c-6-1.7-12.8-3.1-19.5-4
		c-0.5-0.1-0.9-0.1-1.4-0.2c-6.3-0.8-12.7-1.1-19.1-0.9c-13.7,0.4-27.5,3.7-38.3,9.5c-7.6,4.1-13.6,9.2-17.4,14.6
		c-1.6,2.3-3,4.6-3.8,6.9c-0.2,0.5-0.3,1-0.5,1.6C3386,2189.5,3385.7,2192.7,3386,2195.7z"/><path fill="#eff0f1" d="M3226.6,2339.3c11.3,6.3,26.1,4.6,40.1-5.7c7-5.1,13.7-12.3,19.3-21.3c5.6-9,10.1-19.6,12.8-31.3
		c1.3-5.8,2.1-11.5,2.4-17c0.2-3.3,0.2-6.5,0.1-9.6c-0.1-2.4-0.2-4.8-0.5-7.2c-1.2-10.5-4.1-19.9-8.2-27.6
		c-8.2-15.4-20.8-23.4-33.7-22.5c-13.1,0.8-24.3,9.4-33.1,20.7c-4.4,5.7-8.3,12.2-11.5,19.3c-3.3,7.1-5.9,14.7-7.7,22.9
		c-3.8,16.3-4,32.1-1,46.3c2.3,10.6,6.4,20.3,13.2,27.2c1.7,1.7,3.5,3.2,5.5,4.5C3225.2,2338.4,3225.9,2338.9,3226.6,2339.3z"/><path fill="#eff0f1" d="M3270.8,1967.2c0.1,0,0.2,0,0.2,0c4.2-0.3,8.3-2.1,12-5.2c-6.1-5.4-9.9-11.8-10.7-18.9
		c-1.6-15.1,11.1-30,32.1-40.8c0-0.3,0-0.6,0-0.9c1.1-18.8-0.6-40.4-5.8-62.8c-8-34-22.6-62.8-38.1-81.2
		c-15.6-18.4-31.8-26.5-43.8-21.7c-12.2,4.9-18.1,21.5-19.3,43.8c-1.2,22.4,2.1,50.6,9.1,80.7c7,30.1,16.7,56.8,27.7,76.3
		c8.8,15.4,18.6,26.3,28.8,29.6C3265.6,1967,3268.2,1967.4,3270.8,1967.2z"/><path fill="#eff0f1" d="M3272.3,1943.1c0.7,7.1,4.5,13.4,10.7,18.9c16.4,14.6,49.8,22.4,87.2,18.5c51.4-5.3,90.8-30.7,88.1-56.6
		c-2.7-26-46.5-42.7-97.9-37.4c-16.4,1.7-31.7,5.5-44.7,10.6c-4,1.6-7.8,3.3-11.3,5.2C3283.4,1913.1,3270.7,1928,3272.3,1943.1z"/><path fill="#eff0f1" d="M3438.1,1713.4c1.3-1.6,2.5-3.3,3.7-5.1c-1.2-1-2.4-2.1-3.6-3.1c-2.2-2.4-3.9-5.2-5-8.3
		c-0.6-1.6-0.8-3.3-0.8-5.2c0-0.9,0.1-1.9,0.3-2.9c0.1-0.9,0.3-1.8,0.5-2.8c1.9-7.7,6.2-15.2,12-21.9c2.5-2.9,5.3-5.6,8.3-8.1
		c-0.2-5.5-0.8-11.2-1.8-17c-3.6-21.2-11.9-40.1-22.8-53.3c-10.9-13.2-24.4-20-37.1-17.3c-12.8,2.7-22.7,13.3-28.8,28.6
		c-6.1,15.3-8.2,35.7-4.5,57.9c3.8,22.2,13,42,25,55.2c6,6.6,12.7,11.4,19.3,14c6.7,2.6,13.3,2.7,19.5,0.6c2.3-0.8,4.5-2,6.5-3.3
		C3432.3,1719.3,3435.4,1716.6,3438.1,1713.4z"/><path fill="#eff0f1" d="M3445.2,1664.2c-5.8,6.7-10.1,14.2-12,21.9c-0.2,1-0.4,1.9-0.5,2.8c-0.2,1-0.3,2-0.3,2.9
		c-0.1,1.9,0.1,3.6,0.8,5.2c1.1,3.1,2.9,5.9,5,8.3c1.3,1,2.4,2,3.6,3.1c1.1,1,2.2,2,3.3,3c6.9,6.3,13.1,12.4,23.1,15.6
		c12.8,4.4,29.8,5.2,47.8,1.1c18-4,33.5-12.1,43.9-22c5.2-5,9.1-10.4,11.6-16.1c0.7-1.5,1.2-2.9,1.7-4.4c0.5-1.5,1-3,1.4-4.5
		c0.8-3,1.7-6.1,2.1-9.4c0.4-3.2,0.4-6.4-0.8-9.6c-0.6-1.6-1.3-3.1-2.2-4.6c-0.9-1.5-2-3-3.1-4.3c-4.7-5.5-11.4-10.1-19.1-13.4
		c-13.6-5.9-30.7-8-48.8-5.3c-2.5,0.4-4.9,0.8-7.4,1.4c-1.1,0.2-2.1,0.6-3.2,0.8c-15,3.9-28.3,10.6-38.7,19.4
		C3450.5,1658.7,3447.7,1661.4,3445.2,1664.2z"/><path fill="#eff0f1" d="M3548.1,1576.4c2.6,2.3,5.5,4.1,8.7,5.2c6.2,2.1,12.9,2.1,19.3,1.1c6.6-1,13.2-3.1,20-6.5
		c13.4-6.7,27.7-18.3,40.3-33.9c12.7-15.5,21.1-31.9,24.9-46.4c1.9-7.3,2.6-14.2,2.3-20.9c-0.4-6.5-1.7-13.1-5.1-18.7
		c-3.3-5.6-8.5-9.7-15.8-11.6c-7.1-1.9-16-1.7-25.2,0.7c-18.7,4.7-38.6,17.9-54.5,37.3c-15.7,19.5-24.5,41.7-25.3,60.9
		c-0.4,9.5,1.1,18.2,4.5,24.8c0.4,0.8,0.8,1.6,1.3,2.3C3544.8,1572.9,3546.4,1574.8,3548.1,1576.4z"/><path fill="#c1bebc" d="M3149,3503.3v171.5c0,125.7-84.3,231.6-199.4,264.5H3332c2.6-20.4,4.1-41.3,4.1-62.5
		C3336.1,3720,3261.5,3582.2,3149,3503.3z"/><path d="M4937.5,3939.3h-10.7h-252H4664h-695c-13.8,5.3-28.4,8.9-43.5,10.6h743.8h265.2h252.9c-15.2-1.7-29.8-5.4-43.5-10.6H4937.5
		z"/><path d="M5723.8,3939.3h-146.9h-10.7h-259.5h-11h-24.1c-13.8,5.3-28.4,8.9-43.5,10.6h71.5h275.7h148.6c2.9,0,5.3-2.4,5.3-5.3
		C5729.2,3941.7,5726.8,3939.3,5723.8,3939.3z"/><path d="M3841.2,3939.3H3332h-382.4c-24.1,6.9-49.5,10.6-75.7,10.6H1557.8c-26.3,0-51.7-3.8-75.7-10.6h-461.8H744.7h-35.2
		c-2.9,0-5.3,2.4-5.3,5.3c0,2.9,2.4,5.3,5.3,5.3h3175.2C3869.6,3948.2,3855,3944.6,3841.2,3939.3z"/><path fill="#fff" d="M1381.7,895.3c0-140.5,113.9-254.3,254.3-254.3h1159.5c140.5,0,254.3,113.9,254.3,254.3v2722
		c0,140.5-113.9,254.3-254.3,254.3H1636.1c-140.5,0-254.3-113.9-254.3-254.3V1705.9c-28.2,33.3-58,65.3-88.5,95.6v1873.2
		c0,73.1,29.6,139.1,77.5,187c47.9,47.9,114,77.5,187,77.5h1316.1c73.1,0,139.1-29.6,187-77.5c47.9-47.9,77.5-114,77.5-187V837.7
		c0-73.1-29.6-139.1-77.5-187c-47.9-47.9-114-77.5-187-77.5H1557.8c-73.1,0-139.1,29.6-187,77.5c-47.9,47.9-77.5,114-77.5,187v121.6
		c30,2.7,59.8,10,88.5,23.3V895.3z"/><path d="M1282.6,3674.8c0,125.7,84.3,231.6,199.4,264.5c24.1,6.9,49.5,10.6,75.7,10.6h1316.1c26.3,0,51.7-3.8,75.7-10.6
		c115.1-32.9,199.4-138.8,199.4-264.5v-171.5v-244.7v-677.5v-9.2v-149.2v-11.1v-230.1v-15.7v-1328c0-152-123.2-275.1-275.1-275.1
		H1557.8c-152,0-275.1,123.2-275.1,275.1v120.9c3.5,0.2,7.1,0.4,10.6,0.7V837.7c0-73.1,29.6-139.1,77.5-187
		c47.9-47.9,114-77.5,187-77.5h1316.1c73.1,0,139.1,29.6,187,77.5c47.9,47.9,77.5,114,77.5,187v2837.1c0,73.1-29.6,139.1-77.5,187
		c-47.9,47.9-114,77.5-187,77.5H1557.8c-73.1,0-139.1-29.6-187-77.5c-47.9-47.9-77.5-114-77.5-187V1801.6c-3.5,3.5-7.1,7-10.6,10.5
		v937v526.2V3674.8z"/><path fill="#fff" d="M2477,1937.6c31.4,0,63.2-9.2,91-28.4c22.3-15.3,39.5-35.3,51.2-57.7h-286.1l11.3,16.5
		C2375.7,1913.2,2425.9,1937.6,2477,1937.6z"/><path fill="#fff" d="M1392.4,3617.3c0,67.3,27.3,128.2,71.4,172.3c44.1,44.1,105,71.4,172.3,71.4h1159.5
		c67.3,0,128.2-27.3,172.3-71.4c44.1-44.1,71.4-105,71.4-172.3v-2722c0-67.3-27.3-128.2-71.4-172.3c-44.1-44.1-105-71.4-172.3-71.4
		H1636.1c-67.3,0-128.2,27.3-172.3,71.4c-44.1,44.1-71.4,105-71.4,172.3v92.6c7.4,3.8,14.7,8.1,21.8,12.8
		c46.7,30.6,88.9,79.9,122.5,154c21.6,47.6,31.2,96.2,31.2,144.7c0,100-40.7,199.8-101.4,293.3c-22.4,34.5-47.4,68.1-74.2,100.5
		V3617.3z M2739.7,2292.7c20.5,0,37.1,16.6,37.1,37.1c0,20.5-16.6,37.1-37.1,37.1H1692c-20.5,0-37.1-16.6-37.1-37.1
		c0-20.5,16.6-37.1,37.1-37.1H2739.7z M1958.8,2117.8c0-20.5,16.6-37.1,37.1-37.1h439.8c20.5,0,37.1,16.6,37.1,37.1
		c0,20.5-16.6,37.1-37.1,37.1h-439.8C1975.4,2154.8,1958.8,2138.2,1958.8,2117.8z M1803.7,2542.5c-20.5,0-37.1-16.6-37.1-37.1
		c0-20.5,16.6-37.1,37.1-37.1h824.2c20.5,0,37.1,16.6,37.1,37.1c0,20.5-16.6,37.1-37.1,37.1H1803.7z M2432.8,2701.1
		c0,13.9-11.2,25.1-25.1,25.1c-13.9,0-25.1-11.2-25.1-25.1c0-13.9,11.2-25.1,25.1-25.1C2421.5,2676,2432.8,2687.2,2432.8,2701.1z
		 M2240.9,2701.1c0,13.9-11.2,25.1-25.1,25.1c-13.9,0-25.1-11.2-25.1-25.1c0-13.9,11.2-25.1,25.1-25.1
		C2229.7,2676,2240.9,2687.2,2240.9,2701.1z M2049,2701.1c0,13.9-11.2,25.1-25.1,25.1c-13.9,0-25.1-11.2-25.1-25.1
		c0-13.9,11.2-25.1,25.1-25.1C2037.8,2676,2049,2687.2,2049,2701.1z M1801.6,2836.2H2630c67.8,0,122.7,55,122.7,122.7
		c0,67.8-55,122.7-122.7,122.7h-828.4c-67.8,0-122.7-55-122.7-122.7C1678.9,2891.2,1733.8,2836.2,1801.6,2836.2z M1678.9,3286.9
		c0-67.8,55-122.7,122.7-122.7H2630c67.8,0,122.7,55,122.7,122.7c0,67.8-55,122.7-122.7,122.7h-828.4
		C1733.8,3409.7,1678.9,3354.7,1678.9,3286.9z M2215.8,3798.7c-60.6,0-109.8-49.1-109.8-109.8c0-60.6,49.2-109.8,109.8-109.8
		c60.6,0,109.8,49.1,109.8,109.8C2325.6,3749.6,2276.4,3798.7,2215.8,3798.7z M1627.4,963.5h1176.7v888h-173.1
		c-12.5,25.9-31.6,49-57,66.5c-29.7,20.4-63.6,30.2-97.1,30.2c-54.5,0-108.1-25.9-141.3-74.2l-15.5-22.5h-692.8V963.5z"/><path d="M1381.7,3617.3c0,140.5,113.9,254.3,254.3,254.3h1159.5c140.5,0,254.3-113.9,254.3-254.3v-2722
		c0-140.5-113.9-254.3-254.3-254.3H1636.1c-140.5,0-254.3,113.9-254.3,254.3v87.4c3.6,1.7,7.1,3.4,10.6,5.3v-92.6
		c0-67.3,27.3-128.2,71.4-172.3c44.1-44.1,105-71.4,172.3-71.4h1159.5c67.3,0,128.2,27.3,172.3,71.4c44.1,44.1,71.4,105,71.4,172.3
		v2722c0,67.3-27.3,128.2-71.4,172.3c-44.1,44.1-105,71.4-172.3,71.4H1636.1c-67.3,0-128.2-27.3-172.3-71.4
		c-44.1-44.1-71.4-105-71.4-172.3V1693.2c-3.5,4.3-7.1,8.5-10.6,12.7V3617.3z"/><path d="M2145.7,3759c18,17.9,42.7,29,70.1,29c27.4,0,52.1-11.1,70.1-29c17.9-18,29-42.7,29-70.1c0-27.4-11.1-52.1-29-70.1
		c-18-17.9-42.7-29-70.1-29c-27.4,0-52.1,11.1-70.1,29c-17.9,18-29,42.7-29,70.1C2116.7,3716.3,2127.8,3741.1,2145.7,3759z"/><path d="M2215.8,3579.2c-60.6,0-109.8,49.1-109.8,109.8c0,60.6,49.2,109.8,109.8,109.8c60.6,0,109.8-49.1,109.8-109.8
		C2325.6,3628.3,2276.4,3579.2,2215.8,3579.2z M2215.8,3589.8c27.4,0,52.1,11.1,70.1,29c17.9,18,29,42.7,29,70.1
		c0,27.4-11.1,52.1-29,70.1c-18,17.9-42.7,29-70.1,29c-27.4,0-52.1-11.1-70.1-29c-17.9-18-29-42.7-29-70.1c0-27.4,11.1-52.1,29-70.1
		C2163.7,3600.9,2188.4,3589.8,2215.8,3589.8z"/><path fill="#fff" d="M1457.7,1586.9c60-92.4,99.7-190.5,99.6-287.5c0-47.2-9.3-94.1-30.3-140.4c-33-72.7-73.9-120.1-118.7-149.5
		c-44.8-29.4-93.5-40.8-142.6-40.8c-82.5,0-165.7,32.5-229.5,66.2c-63.8,33.7-108.1,68.5-113.1,72.5c-0.3,0.3-0.5,0.4-0.5,0.4
		c-1.9,1.6-4.7,1.6-6.7,0c0,0-0.1-0.1-0.5-0.4c-0.3-0.3-0.8-0.6-1.5-1.1c-1.3-1-3.2-2.5-5.7-4.4c-5-3.8-12.4-9.2-21.8-15.8
		c-18.8-13.1-45.7-30.5-78-47.9c-64.5-34.8-150.5-69.5-235.6-69.5c-49.1,0-97.8,11.4-142.6,40.8c-44.8,29.4-85.7,76.8-118.7,149.5
		c-21,46.2-30.3,93.2-30.3,140.4c0,94,37.2,188.9,94.1,278.8c56.8,89.9,133.2,174.6,210.8,248.2c152.7,144.9,310.2,246.8,333,261.2
		c0.4-0.2,0.8-0.5,1.2-0.8c2.7-1.7,6.6-4.3,11.7-7.6c10.2-6.7,25-16.5,43.3-29.3c36.7-25.4,87.4-62.2,143.9-107.7
		C1232.4,1851.4,1367.8,1725.6,1457.7,1586.9z M1134.6,1551.3c0,1.4-0.6,2.8-1.6,3.8c-1,1-2.4,1.6-3.8,1.6l-135.5,0v135.5
		c0,1.4-0.6,2.8-1.6,3.8c-1,1-2.4,1.6-3.8,1.6H850.4c-1.4,0-2.8-0.6-3.8-1.6c-1-1-1.6-2.4-1.6-3.8v-135.5H709.5
		c-1.4,0-2.8-0.6-3.8-1.6c-1-1-1.6-2.4-1.6-3.8v-138c0-1.4,0.6-2.8,1.6-3.8c1-1,2.4-1.6,3.8-1.6h135.5v-135.5c0-1.4,0.6-2.8,1.6-3.8
		c1-1,2.4-1.6,3.8-1.6h138.1c1.4,0,2.8,0.6,3.8,1.6c1,1,1.6,2.4,1.6,3.8V1408h135.5c1.4,0,2.8,0.6,3.8,1.6s1.6,2.4,1.6,3.8V1551.3z"/><path d="M1293.3,1801.6c30.4-30.4,60.3-62.4,88.5-95.6c3.6-4.2,7.1-8.4,10.6-12.7c26.8-32.5,51.9-66.1,74.2-100.5
		c60.6-93.5,101.3-193.3,101.4-293.3c0-48.6-9.6-97.1-31.2-144.7c-33.6-74.1-75.8-123.4-122.5-154c-7.2-4.7-14.5-8.9-21.8-12.8
		c-3.5-1.8-7.1-3.6-10.6-5.3c-28.7-13.3-58.5-20.6-88.5-23.3c-3.5-0.3-7.1-0.6-10.6-0.7c-5.6-0.3-11.2-0.5-16.9-0.5
		c-88,0-175.2,35.5-240.6,70.8c-54.9,29.6-94.4,59.2-105.7,68c-11.3-8.8-50.8-38.4-105.7-68c-65.4-35.3-152.6-70.7-240.6-70.8
		c-50.7,0-101.7,11.9-148.4,42.5c-46.7,30.6-88.9,79.9-122.5,154c-21.6,47.6-31.2,96.2-31.2,144.7c0,100,40.7,199.8,101.4,293.3
		c91,140.2,227,266.5,340.3,357.9c113.3,91.4,203.9,147.8,204.1,147.9c1.7,1.1,3.9,1.1,5.6,0c0.2-0.1,161.2-100.4,322.4-250.1
		c12.7-11.8,25.4-23.9,38-36.3C1286.2,1808.6,1289.7,1805.1,1293.3,1801.6z M975.7,2050.1c-18.3,12.7-33.1,22.6-43.3,29.3
		c-5.1,3.3-9.1,5.9-11.7,7.6c-0.5,0.3-0.9,0.5-1.2,0.8c-22.8-14.5-180.3-116.3-333-261.2c-77.6-73.6-154-158.4-210.8-248.2
		c-56.9-89.9-94.1-184.8-94.1-278.8c0-47.2,9.3-94.1,30.3-140.4c33-72.7,73.9-120.1,118.7-149.5c44.8-29.4,93.5-40.8,142.6-40.8
		c85.1,0,171.1,34.6,235.6,69.5c32.3,17.4,59.2,34.8,78,47.9c9.4,6.5,16.8,12,21.8,15.8c2.5,1.9,4.4,3.4,5.7,4.4
		c0.6,0.5,1.1,0.9,1.5,1.1c0.3,0.3,0.5,0.4,0.5,0.4c1.9,1.6,4.7,1.6,6.7,0c0,0,0.1-0.1,0.5-0.4c5-4,49.3-38.8,113.1-72.5
		c63.8-33.7,147-66.2,229.5-66.2c49.1,0,97.8,11.4,142.6,40.8c44.8,29.4,85.7,76.8,118.7,149.5c21,46.2,30.3,93.2,30.3,140.4
		c0,97-39.7,195.1-99.6,287.5c-89.9,138.7-225.3,264.4-338.1,355.4C1063.2,1987.8,1012.4,2024.6,975.7,2050.1z"/><path fill="#61c3da" d="M988.4,1418.6c-1.4,0-2.8-0.6-3.8-1.6c-1-1-1.6-2.4-1.6-3.8v-135.5H855.7v135.5c0,1.4-0.6,2.8-1.6,3.8
		c-1,1-2.4,1.6-3.8,1.6l-135.5,0V1546h135.5c1.4,0,2.8,0.6,3.8,1.6c1,1,1.6,2.4,1.6,3.8v135.5h127.4v-135.5c0-1.4,0.6-2.8,1.6-3.8
		c1-1,2.4-1.6,3.8-1.6l135.5,0v-127.4H988.4z"/><path d="M1129.3,1408H993.8v-135.5c0-1.4-0.6-2.8-1.6-3.8c-1-1-2.4-1.6-3.8-1.6H850.4c-1.4,0-2.8,0.6-3.8,1.6c-1,1-1.6,2.4-1.6,3.8
		V1408H709.5c-1.4,0-2.8,0.6-3.8,1.6c-1,1-1.6,2.4-1.6,3.8v138c0,1.4,0.6,2.8,1.6,3.8c1,1,2.4,1.6,3.8,1.6h135.5v135.5
		c0,1.4,0.6,2.8,1.6,3.8c1,1,2.4,1.6,3.8,1.6h138.1c1.4,0,2.8-0.6,3.8-1.6c1-1,1.6-2.4,1.6-3.8v-135.5l135.5,0
		c1.4,0,2.8-0.6,3.8-1.6c1-1,1.6-2.4,1.6-3.8v-138c0-1.4-0.6-2.8-1.6-3.8S1130.7,1408,1129.3,1408z M988.4,1546
		c-1.4,0-2.8,0.6-3.8,1.6c-1,1-1.6,2.4-1.6,3.8v135.5H855.7v-135.5c0-1.4-0.6-2.8-1.6-3.8c-1-1-2.4-1.6-3.8-1.6H714.9v-127.4
		l135.5,0c1.4,0,2.8-0.6,3.8-1.6c1-1,1.6-2.4,1.6-3.8v-135.5h127.4v135.5c0,1.4,0.6,2.8,1.6,3.8c1,1,2.4,1.6,3.8,1.6H1124V1546
		L988.4,1546z"/><path fill="#fff" d="M3483.1,517.6c105.5,49.2,252,79.8,413.8,79.8c114.8,0,221.8-15.4,312-41.9c1.9-0.6,3.9,0,5.3,1.4
		c38.8,39.3,82.4,81,114.3,104.7c10.6,7.9,19.9,13.7,27,16.8c4,1.8,7.3,2.5,9.2,2.5c1.3,0,1.9-0.3,2.2-0.5c0.7-0.5,1.5-1.4,2.2-3.3
		c0.7-1.9,1.1-4.7,1.1-8.3c0-7-1.6-16.6-4.4-27.8c-2.8-11.2-6.9-23.9-11.8-37.4c-9.7-27-22.6-57-34.9-84.1c-1.2-2.6-0.1-5.7,2.5-7
		c49.6-24.4,89.4-52.9,116.6-84.1c27.2-31.2,41.9-64.8,41.9-99.9c0-36.3-15.7-71-44.9-103.2c-29.1-32.1-71.6-61.3-124.4-85.9
		c-105.5-49.2-252-79.8-413.8-79.8c-121.4,0-234.1,17.2-327.4,46.6c-93.3,29.4-167.2,71-210.8,119.2
		c-29.1,32.1-44.9,66.9-44.9,103.2c0,36.3,15.7,71,44.9,103.2C3387.8,463.7,3430.3,493,3483.1,517.6z M4154.2,396.1h-175.2
		c-14.2,0-25.7-11.5-25.7-25.7c0-14.2,11.5-25.7,25.7-25.7h175.2c14.2,0,25.7,11.5,25.7,25.7
		C4179.9,384.6,4168.4,396.1,4154.2,396.1z M3642.7,242.5h511.4c14.2,0,25.7,11.5,25.7,25.7s-11.5,25.7-25.7,25.7h-511.4
		c-14.2,0-25.7-11.5-25.7-25.7S3628.5,242.5,3642.7,242.5z M3639.6,344.7h175.2c14.2,0,25.7,11.5,25.7,25.7
		c0,14.2-11.5,25.7-25.7,25.7h-175.2c-14.2,0-25.7-11.5-25.7-25.7C3613.9,356.2,3625.4,344.7,3639.6,344.7z"/><path d="M3566.3,560.9c94.5,29.8,208.2,47.1,330.6,47.1c114.4,0,221.2-15.2,311.9-41.5c29.1,29.4,60.6,59.9,88.2,83.4
		c14.1,12,27.2,22.2,38.5,29.5c5.7,3.6,10.9,6.6,15.7,8.6c4.8,2.1,9.1,3.3,13.4,3.4c2.8,0,5.6-0.6,8.1-2.3l0,0
		c3.2-2.1,5.2-5.3,6.4-8.8c1.2-3.5,1.6-7.4,1.6-11.7c0-8.5-1.8-18.8-4.7-30.4c-8.6-33.6-27.2-78.8-45.2-118.6
		c48.4-24.3,87.7-52.7,115.4-84.3c28.5-32.6,44.5-68.8,44.5-106.9c0-39.5-17.2-76.8-47.6-110.3c-45.7-50.3-121-92.4-215.5-122.2
		c-94.5-29.8-208.2-47.1-330.6-47.1c-163.2,0-310.9,30.8-418.3,80.8c-53.7,25-97.4,54.9-127.8,88.4c-30.4,33.5-47.6,70.9-47.6,110.3
		c0,39.5,17.2,76.8,47.6,110.3C3396.4,489,3471.8,531.2,3566.3,560.9z M3358.7,225.3c43.7-48.2,117.5-89.8,210.8-119.2
		c93.3-29.4,206-46.6,327.4-46.6c161.8,0,308.3,30.6,413.8,79.8c52.8,24.6,95.3,53.8,124.4,85.9c29.1,32.1,44.9,66.9,44.9,103.2
		c0,35-14.7,68.6-41.9,99.9c-27.2,31.2-67,59.8-116.6,84.1c-2.6,1.3-3.7,4.4-2.5,7c12.3,27.1,25.2,57.1,34.9,84.1
		c4.9,13.5,8.9,26.2,11.8,37.4c2.8,11.2,4.4,20.8,4.4,27.8c0,3.5-0.4,6.4-1.1,8.3c-0.7,1.9-1.4,2.8-2.2,3.3
		c-0.3,0.2-0.9,0.5-2.2,0.5c-1.9,0-5.2-0.7-9.2-2.5c-7-3-16.4-8.9-27-16.8c-31.9-23.7-75.5-65.3-114.3-104.7
		c-1.4-1.4-3.4-1.9-5.3-1.4c-90.2,26.5-197.2,41.9-312,41.9c-161.8,0-308.3-30.6-413.8-79.8c-52.8-24.6-95.3-53.8-124.4-85.9
		c-29.1-32.1-44.9-66.9-44.9-103.2C3313.8,292.2,3329.5,257.4,3358.7,225.3z"/><path fill="#eff0f1" d="M3642.7,293.9h511.4c14.2,0,25.7-11.5,25.7-25.7s-11.5-25.7-25.7-25.7h-511.4c-14.2,0-25.7,11.5-25.7,25.7
		S3628.5,293.9,3642.7,293.9z"/><path fill="#eff0f1" d="M4154.2,344.7h-175.2c-14.2,0-25.7,11.5-25.7,25.7c0,14.2,11.5,25.7,25.7,25.7h175.2
		c14.2,0,25.7-11.5,25.7-25.7C4179.9,356.2,4168.4,344.7,4154.2,344.7z"/><path fill="#eff0f1" d="M3639.6,396.1h175.2c14.2,0,25.7-11.5,25.7-25.7c0-14.2-11.5-25.7-25.7-25.7h-175.2
		c-14.2,0-25.7,11.5-25.7,25.7C3613.9,384.6,3625.4,396.1,3639.6,396.1z"/><path fill="#fff" d="M5601.5,3767.4V3683c-0.5-0.8-0.7-1.7-0.7-2.6v-161.5c0-0.9,0.3-1.8,0.7-2.6v-427.9h-5.3
		c-16.3,0-29.5-13.2-29.5-29.5v-91.6c0-16.3,13.2-29.5,29.5-29.5h5.3v-90.9H4394.7c0,0,0,0,0,0c-1,1-2.4,1.6-3.8,1.6h-188.1
		c-1.4,0-2.8-0.6-3.8-1.6c0,0,0,0,0,0h-119.5c-36.8,0-70.6,20.3-88,52.7l-199.6,373.8c-0.5,0.9-1.2,1.7-2.1,2.2l-178.6,97.5v138.4
		c0,0.9-0.2,1.7-0.6,2.5c-0.3,0.6-8.8,16.1-31.3,27.4c-0.8,0.4-1.5,0.6-2.4,0.6h-65.8v48.6h22.7c1.4,0,2.8,0.6,3.8,1.6
		c1,1,1.6,2.4,1.6,3.8v150.8c0,1.4-0.6,2.8-1.6,3.8c-1,1-2.4,1.6-3.8,1.6h-22.7v15.5h215.6c2.8-96.1,81.6-173.1,178.3-173.1
		c96.8,0,175.5,77,178.3,173.1h163.8v-825.5c0-1.4,0.6-2.8,1.6-3.8c1-1,2.4-1.6,3.8-1.6h321.1c1.4,0,2.8,0.6,3.8,1.6
		c1,1,1.6,2.4,1.6,3.8v825.5h450.4c2.8-96.1,81.6-173.1,178.3-173.1c96.8,0,175.5,77,178.3,173.1H5601.5z M4207,3202.1
		c0,1.4-0.6,2.8-1.6,3.8c-1,1-2.4,1.6-3.8,1.6h-296.5c-1.8,0-3.5-0.9-4.4-2.4c-1-1.5-1.2-3.4-0.5-5l110.9-260.3
		c0.8-2,2.8-3.2,4.9-3.2h185.6c1.4,0,2.8,0.6,3.8,1.6c1,1,1.6,2.4,1.6,3.8V3202.1z M5511.9,3181.8c-1,1-2.4,1.6-3.8,1.6h-856
		c-1.4,0-2.8-0.6-3.8-1.6c-1-1-1.6-2.4-1.6-3.8v-235c0-1.4,0.6-2.8,1.6-3.8c1-1,2.4-1.6,3.8-1.6h856c1.4,0,2.8,0.6,3.8,1.6
		c1,1,1.6,2.4,1.6,3.8v235C5513.4,3179.4,5512.9,3180.8,5511.9,3181.8z"/><path d="M4248.9,3776.5c-1-1-1.6-2.4-1.6-3.8v-5.3h-163.8c0.1,1.8,0.1,3.5,0.1,5.3c0,1.8-0.1,3.5-0.1,5.3h169.1
		C4251.2,3778,4249.8,3777.5,4248.9,3776.5z"/><path d="M3603.5,3365.2c1.7-0.9,3.6-0.9,5.3,0.1c1.6,1,2.6,2.7,2.6,4.6v3.2l178.6-97.5c0.9-0.5,1.7-1.2,2.1-2.2l199.6-373.8
		c17.4-32.5,51.1-52.7,88-52.7h119.5c-1-1-1.5-2.4-1.5-3.8v-6.9h-117.9c-40.8,0-78.1,22.4-97.3,58.4l-198.8,372.4l-43.8,23.9
		L3603.5,3365.2L3603.5,3365.2z"/><path d="M4396.3,2843.1c0,1.4-0.6,2.8-1.5,3.8h1206.8v90.9h10.6v-96.2c0-1.4-0.6-2.8-1.6-3.8c-1-1-2.4-1.6-3.8-1.6h-90.3h-10.6
		h-459.7h-10.9H4619h-10.6h-212.1V2843.1z"/><path d="M5601.5,3088.4v427.9c0.2-0.4,0.5-0.8,0.8-1.1c1-1,2.4-1.6,3.8-1.6h6v-425.2H5601.5z"/><path d="M5606.1,3685.7c-1.4,0-2.8-0.6-3.8-1.6c-0.3-0.3-0.6-0.7-0.8-1.1v84.4h-215.3c0.1,1.8,0.1,3.5,0.1,5.3
		c0,1.8-0.1,3.5-0.1,5.3h170.1h10.7h39.9c1.4,0,2.8-0.6,3.8-1.6c1-1,1.6-2.4,1.6-3.8v-87H5606.1z"/><path d="M3511.2,3590.5v-48.6h-5.3c-1.4,0-2.8-0.6-3.8-1.6c-1-1-1.6-2.4-1.6-3.8v53.9H3511.2z"/><path d="M3511.2,3751.9h-10.6v20.8c0,1.4,0.6,2.8,1.6,3.8c1,1,2.4,1.6,3.8,1.6h220.9c-0.1-1.8-0.1-3.5-0.1-5.3
		c0-1.8,0.1-3.6,0.1-5.3h-215.6V3751.9z"/><path d="M4579.1,3767.4v5.3c0,1.4-0.6,2.8-1.6,3.8c-1,1-2.3,1.5-3.7,1.6h83.5h10.7h279.4h10.7h71.4c-0.1-1.8-0.1-3.5-0.1-5.3
		c0-1.8,0.1-3.6,0.1-5.3H4579.1z"/><polygon fill="#61c3da" points="4196.4 3196.8 4196.4 2947.2 4019.6 2947.2 3913.2 3196.8"/><path d="M4205.4,2938.1c-1-1-2.4-1.6-3.8-1.6h-185.6c-2.1,0-4.1,1.3-4.9,3.2l-110.9,260.3c-0.7,1.6-0.5,3.5,0.5,5
		c1,1.5,2.7,2.4,4.4,2.4h296.5c1.4,0,2.8-0.6,3.8-1.6c1-1,1.6-2.4,1.6-3.8v-260.3C4207,2940.5,4206.4,2939.1,4205.4,2938.1z
		 M4196.4,2947.2v249.6l-283.2,0l106.4-249.6H4196.4z"/><rect width="845.4" height="224.3" x="4657.4" y="2948.4" fill="#61c3da"/><path d="M5513.4,2943.1c0-1.4-0.6-2.8-1.6-3.8c-1-1-2.4-1.6-3.8-1.6h-856c-1.4,0-2.8,0.6-3.8,1.6c-1,1-1.6,2.4-1.6,3.8v235
		c0,1.4,0.6,2.8,1.6,3.8c1,1,2.4,1.6,3.8,1.6h856c1.4,0,2.8-0.6,3.8-1.6c1-1,1.6-2.4,1.6-3.8V2943.1z M4657.4,2948.4h845.4v224.3
		h-845.4V2948.4z"/><path fill="#fff" d="M5621.3,2948.4h-25.2c-5.2,0-9.9,2.1-13.3,5.5c-3.4,3.4-5.5,8.1-5.5,13.3v91.6c0,5.2,2.1,9.9,5.5,13.3
		c3.4,3.4,8.1,5.5,13.3,5.5h25.2c5.2,0,9.9-2.1,13.3-5.5c3.4-3.4,5.5-8.1,5.5-13.3v-91.6c0-5.2-2.1-9.9-5.5-13.3
		C5631.2,2950.5,5626.5,2948.4,5621.3,2948.4z"/><path d="M5601.5,2937.7h-5.3c-16.3,0-29.5,13.2-29.5,29.5v91.6c0,16.3,13.2,29.5,29.5,29.5h5.3h10.6h9.2
		c16.3,0,29.5-13.2,29.5-29.5v-91.6c0-16.3-13.2-29.5-29.5-29.5h-9.2H5601.5z M5640.2,3058.9c0,5.2-2.1,9.9-5.5,13.3
		c-3.4,3.4-8.1,5.5-13.3,5.5h-25.2c-5.2,0-9.9-2.1-13.3-5.5c-3.4-3.4-5.5-8.1-5.5-13.3v-91.6c0-5.2,2.1-9.9,5.5-13.3
		c3.4-3.4,8.1-5.5,13.3-5.5h25.2c5.2,0,9.9,2.1,13.3,5.5c3.4,3.4,5.5,8.1,5.5,13.3V3058.9z"/><rect width="310.5" height="820.2" x="4257.9" y="2947.2" fill="#fff"/><path d="M4247.3,3772.7c0,1.4,0.6,2.8,1.6,3.8c1,1,2.3,1.5,3.7,1.6c0,0,0,0,0,0h321.1c0,0,0,0,0,0c1.4,0,2.7-0.6,3.7-1.6
		c1-1,1.6-2.4,1.6-3.8v-5.3v-825.5c0-1.4-0.6-2.8-1.6-3.8c-1-1-2.4-1.6-3.8-1.6h-321.1c-1.4,0-2.8,0.6-3.8,1.6c-1,1-1.6,2.4-1.6,3.8
		v825.5V3772.7z M4257.9,2947.2h310.5v820.2h-310.5V2947.2z"/><polygon fill="#fff" points="3528.6 3741.3 3528.6 3601.1 3461.6 3601.1 3461.6 3678.5 3496.4 3741.3"/><path d="M3511.2,3751.9h22.7c1.4,0,2.8-0.6,3.8-1.6c1-1,1.6-2.4,1.6-3.8v-150.8c0-1.4-0.6-2.8-1.6-3.8c-1-1-2.4-1.6-3.8-1.6h-22.7
		h-10.6h-44.2c-1.4,0-2.8,0.6-3.8,1.6c-1,1-1.6,2.4-1.6,3.8v84.1c0,0.9,0.2,1.8,0.7,2.6l37,66.7c0.9,1.7,2.7,2.7,4.7,2.7h7.2H3511.2
		z M3461.6,3601.1h67v140.2h-32.2l-34.8-62.8V3601.1z"/><polygon fill="#fff" points="4208.2 2808 4208.2 2837.8 4385.6 2837.8 4385.6 2808 4364 2808 4229.7 2808"/><path d="M4197.5,2843.1c0,1.4,0.6,2.8,1.5,3.8c0,0,0,0,0,0c1,1,2.4,1.6,3.8,1.6h188.1c1.4,0,2.8-0.6,3.8-1.6c0,0,0,0,0,0
		c1-1,1.5-2.4,1.5-3.8v-6.9v-33.5c0-1.4-0.6-2.8-1.6-3.8s-2.4-1.6-3.8-1.6h-23.2l1.3,3.5c0.6,1.6,0.4,3.5-0.6,4.9
		c-1,1.4-2.6,2.3-4.4,2.3h21.6v29.7h-177.5V2808h21.6c-1.7,0-3.4-0.9-4.4-2.3c-1-1.4-1.2-3.3-0.6-4.9l1.3-3.5h-23.2
		c-1.4,0-2.8,0.6-3.8,1.6c-1,1-1.6,2.4-1.6,3.8v33.5V2843.1z"/><path fill="#61c3da" d="M4356.4,2797.4l-26.5-71l-0.1-0.5c-0.4-1.4-1.3-3-3-4.7c-1.7-1.6-4.1-3.2-7-4.6c-5.9-2.8-14-4.6-22.9-4.6
		c-6.6,0-12.9,1-18.1,2.7c-5.2,1.7-9.3,4.1-11.8,6.5c-1.7,1.6-2.6,3.2-3,4.7l-0.1,0.5l-26.5,71H4356.4z"/><path d="M4225.4,2805.8c1,1.4,2.6,2.3,4.4,2.3H4364c1.7,0,3.4-0.9,4.4-2.3c1-1.4,1.2-3.3,0.6-4.9l-1.3-3.5l-27.8-74.7l0,0
		c-1-3.5-3.1-6.5-5.7-9c-4.1-4-9.6-6.9-16-9c-6.4-2.1-13.6-3.2-21.3-3.2c-10.2,0-19.7,2-27.4,5.6c-3.8,1.8-7.2,4-9.9,6.6
		c-2.6,2.5-4.6,5.6-5.7,9l0,0l-27.8,74.7l-1.3,3.5C4224.1,2802.5,4224.4,2804.3,4225.4,2805.8z M4264,2725.9c0.4-1.4,1.3-3,3-4.7
		c2.5-2.5,6.6-4.8,11.8-6.5c5.2-1.7,11.4-2.7,18.1-2.7c8.8,0,17,1.8,22.9,4.6c3,1.4,5.3,3,7,4.6c1.7,1.6,2.6,3.2,3,4.7l0.1,0.5
		l26.5,71h-119l26.5-71L4264,2725.9z"/><path d="M5207.8,3940.5c46.4,0,88.3-18.8,118.7-49.1c30.4-30.4,49.1-72.3,49.2-118.6c0-46.3-18.8-88.3-49.2-118.6
		c-30.4-30.4-72.3-49.1-118.7-49.1c-46.4,0-88.3,18.8-118.7,49.1c-30.4,30.4-49.1,72.3-49.2,118.6c0,46.3,18.8,88.3,49.2,118.6
		C5119.5,3921.7,5161.4,3940.5,5207.8,3940.5z M5107.3,3772.7c0-55.5,45-100.4,100.5-100.4c55.5,0,100.5,45,100.5,100.4
		c0,55.5-45,100.4-100.5,100.4C5152.3,3873.2,5107.3,3828.2,5107.3,3772.7z"/><path d="M5293.3,3929.4c3.3-1.8,6.4-3.7,9.5-5.7c48.7-30.7,81.5-84.3,83.3-145.7c0.1-1.8,0.1-3.5,0.1-5.3c0-1.8-0.1-3.6-0.1-5.3
		c-2.8-96.1-81.6-173.1-178.3-173.1c-96.8,0-175.5,77-178.3,173.1c-0.1,1.8-0.1,3.5-0.1,5.3c0,1.8,0.1,3.5,0.1,5.3
		c2.2,73.7,49,136.2,114.4,161.3c13.8,5.3,28.4,8.9,43.5,10.6c6.7,0.8,13.5,1.2,20.4,1.2s13.7-0.4,20.4-1.2
		c15.2-1.7,29.8-5.4,43.5-10.6C5279.1,3936.5,5286.3,3933.2,5293.3,3929.4z M5040,3772.7c0-46.3,18.8-88.3,49.2-118.6
		c30.4-30.4,72.3-49.1,118.7-49.1c46.4,0,88.3,18.8,118.7,49.1c30.4,30.4,49.1,72.3,49.2,118.6c0,46.3-18.8,88.3-49.2,118.6
		c-30.4,30.4-72.3,49.1-118.7,49.1c-46.4,0-88.3-18.8-118.7-49.1C5058.7,3861,5040,3819.1,5040,3772.7z"/><path fill="#fff" d="M5207.8,3862.5c24.8,0,47.2-10,63.5-26.3c16.3-16.3,26.3-38.7,26.3-63.5c0-24.8-10-47.2-26.3-63.5
		c-16.3-16.3-38.7-26.3-63.5-26.3c-24.8,0-47.2,10-63.5,26.3c-16.3,16.3-26.3,38.7-26.3,63.5c0,24.8,10,47.2,26.3,63.5
		C5160.5,3852.5,5183,3862.5,5207.8,3862.5z"/><path d="M5207.8,3873.2c55.5,0,100.5-45,100.5-100.4c0-55.5-45-100.4-100.5-100.4c-55.5,0-100.5,45-100.5,100.4
		C5107.3,3828.2,5152.3,3873.2,5207.8,3873.2z M5118,3772.7c0-24.8,10-47.2,26.3-63.5c16.3-16.3,38.7-26.3,63.5-26.3
		c24.8,0,47.2,10,63.5,26.3c16.3,16.3,26.3,38.7,26.3,63.5c0,24.8-10,47.2-26.3,63.5c-16.3,16.3-38.7,26.3-63.5,26.3
		c-24.8,0-47.2-10-63.5-26.3C5128,3820,5118,3797.5,5118,3772.7z"/><path d="M3905.1,3940.5c46.4,0,88.3-18.8,118.7-49.1c30.4-30.4,49.1-72.3,49.2-118.6c0-46.3-18.8-88.3-49.2-118.6
		c-30.4-30.4-72.3-49.1-118.7-49.1c-46.4,0-88.3,18.8-118.7,49.1c-30.4,30.4-49.1,72.3-49.2,118.6c0,46.3,18.8,88.3,49.2,118.6
		C3816.9,3921.7,3858.8,3940.5,3905.1,3940.5z M3804.7,3772.7c0-55.5,45-100.4,100.5-100.4c55.5,0,100.5,45,100.5,100.4
		c0,55.5-45,100.4-100.5,100.4C3849.7,3873.2,3804.7,3828.2,3804.7,3772.7z"/><path d="M3969.1,3939.3c65.4-25.1,112.2-87.6,114.4-161.3c0.1-1.8,0.1-3.5,0.1-5.3c0-1.8-0.1-3.6-0.1-5.3
		c-2.8-96.1-81.6-173.1-178.3-173.1c-96.8,0-175.5,77-178.3,173.1c-0.1,1.8-0.1,3.5-0.1,5.3c0,1.8,0.1,3.5,0.1,5.3
		c2.2,73.7,49,136.2,114.4,161.3c13.8,5.3,28.4,8.9,43.5,10.6c6.7,0.8,13.5,1.2,20.4,1.2c6.9,0,13.7-0.4,20.4-1.2
		C3940.7,3948.2,3955.3,3944.6,3969.1,3939.3z M3737.3,3772.7c0-46.3,18.8-88.3,49.2-118.6c30.4-30.4,72.3-49.1,118.7-49.1
		c46.4,0,88.3,18.8,118.7,49.1c30.4,30.4,49.1,72.3,49.2,118.6c0,46.3-18.8,88.3-49.2,118.6c-30.4,30.4-72.3,49.1-118.7,49.1
		c-46.4,0-88.3-18.8-118.7-49.1C3756.1,3861,3737.3,3819.1,3737.3,3772.7z"/><path fill="#fff" d="M3905.1,3862.5c24.8,0,47.2-10,63.5-26.3c16.3-16.3,26.3-38.7,26.3-63.5c0-24.8-10-47.2-26.3-63.5
		c-16.3-16.3-38.7-26.3-63.5-26.3c-24.8,0-47.2,10-63.5,26.3c-16.3,16.3-26.3,38.7-26.3,63.5c0,24.8,10,47.2,26.3,63.5
		C3857.9,3852.5,3880.3,3862.5,3905.1,3862.5z"/><path d="M3905.1,3873.2c55.5,0,100.5-45,100.5-100.4c0-55.5-45-100.4-100.5-100.4c-55.5,0-100.5,45-100.5,100.4
		C3804.7,3828.2,3849.7,3873.2,3905.1,3873.2z M3815.3,3772.7c0-24.8,10-47.2,26.3-63.5c16.3-16.3,38.7-26.3,63.5-26.3
		c24.8,0,47.2,10,63.5,26.3c16.3,16.3,26.3,38.7,26.3,63.5c0,24.8-10,47.2-26.3,63.5c-16.3,16.3-38.7,26.3-63.5,26.3
		c-24.8,0-47.2-10-63.5-26.3C3825.4,3820,3815.3,3797.5,3815.3,3772.7z"/><path fill="#61c3da" d="M3511.2,3501.8v29.5h64.5c15.5-8.1,23-18.1,25-21.3v-131.1l-24.5,13.4h0
		C3536.1,3414.2,3511.2,3456.2,3511.2,3501.8z"/><path d="M3505.9,3541.9h5.3h65.8c0.8,0,1.6-0.2,2.4-0.6c22.5-11.3,31-26.8,31.3-27.4c0.4-0.8,0.6-1.6,0.6-2.5v-138.4v-3.2
		c0-1.9-1-3.6-2.6-4.6c-1.6-1-3.6-1-5.3-0.1l-32.4,17.7h0c-43.5,23.8-70.5,69.3-70.5,118.9v34.8c0,1.4,0.6,2.8,1.6,3.8
		C3503.1,3541.3,3504.5,3541.9,3505.9,3541.9z M3576.2,3392.3l24.5-13.4v131.1c-2.1,3.2-9.5,13.3-25,21.3h-64.5v-29.5
		C3511.2,3456.2,3536.1,3414.2,3576.2,3392.3L3576.2,3392.3z"/><path fill="#61c3da" d="M5639.4,3524.2h-28l0,150.8h28c8.2,0,15.5-3.3,20.9-8.6c5.3-5.4,8.6-12.7,8.6-20.9v-91.9
		c0-8.2-3.3-15.5-8.6-20.9C5654.9,3527.5,5647.6,3524.2,5639.4,3524.2z"/><path d="M5606.1,3513.6c-1.4,0-2.8,0.6-3.8,1.6c-0.3,0.3-0.6,0.7-0.8,1.1c-0.5,0.8-0.7,1.7-0.7,2.6v161.5c0,0.9,0.3,1.8,0.7,2.6
		c0.2,0.4,0.5,0.8,0.8,1.1c1,1,2.4,1.6,3.8,1.6h6h27.3c22.2,0,40.1-18,40.1-40.1v-91.9c0-22.2-18-40.1-40.1-40.1h-27.3H5606.1z
		 M5668.9,3645.6c0,8.2-3.3,15.5-8.6,20.9c-5.4,5.3-12.7,8.6-20.9,8.6h-28l0-150.8h28c8.2,0,15.5,3.3,20.9,8.6
		c5.3,5.4,8.6,12.7,8.6,20.9V3645.6z"/><path fill="#fff" d="M956.2,3087.7c12.5-43,46.4-77,89.4-89.5c-43-12.6-76.9-46.5-89.4-89.5c-12.5,43-46.4,76.9-89.4,89.5
		C909.7,3010.7,943.6,3044.6,956.2,3087.7z"/><path d="M950.8,3124.6c0,1.4,0.6,2.8,1.6,3.8c1,1,2.4,1.6,3.8,1.6h0.1c1.4,0,2.8-0.6,3.8-1.6c1-1,1.6-2.4,1.6-3.8
		c0-33.5,13.5-63.7,35.5-85.7c21.9-21.9,52.2-35.5,85.6-35.5c1.4,0,2.8-0.6,3.8-1.6c1-1,1.6-2.4,1.6-3.8c0-1.4-0.6-2.8-1.6-3.8
		c-1-1-2.4-1.6-3.8-1.6c-31.9,0-60.9-12.3-82.5-32.5c-1.1-1-2.1-2-3.2-3c-21.9-21.9-35.5-52.2-35.5-85.7c0-1.4-0.6-2.8-1.6-3.8
		c-1-1-2.4-1.6-3.8-1.6h-0.1c-1.4,0-2.8,0.6-3.8,1.6c-1,1-1.6,2.4-1.6,3.8c0,33.5-13.5,63.7-35.5,85.7
		c-21.9,21.9-52.2,35.5-85.7,35.5c-1.4,0-2.8,0.6-3.8,1.6c-1,1-1.6,2.4-1.6,3.8c0,1.4,0.6,2.8,1.6,3.8c1,1,2.4,1.6,3.8,1.6
		c23.8,0,45.9,6.9,64.6,18.7c7.6,4.8,14.7,10.4,21,16.8C937.2,3060.9,950.8,3091.1,950.8,3124.6z M956.2,2908.6
		c12.5,43,46.4,77,89.4,89.5c-43,12.6-76.9,46.5-89.4,89.5c-12.5-43-46.4-77-89.4-89.5C909.7,2985.6,943.6,2951.6,956.2,2908.6z"/><path fill="#eff0f1" d="M3458.2,2941.9c0,41.8,33.9,75.7,75.8,75.7c41.8,0,75.8-33.9,75.8-75.7s-33.9-75.7-75.8-75.7
		C3492.1,2866.1,3458.2,2900,3458.2,2941.9z M3584.2,2941.9c0,27.7-22.5,50.2-50.2,50.2c-27.7,0-50.2-22.5-50.2-50.2
		s22.5-50.2,50.2-50.2C3561.7,2891.6,3584.2,2914.1,3584.2,2941.9z"/><path fill="#fff" d="M1722.4,3038.2c20.3,20.3,48.3,32.8,79.3,32.8H2630c31,0,59-12.5,79.3-32.8c20.3-20.3,32.8-48.3,32.8-79.3
		c0-31-12.5-59-32.8-79.3c-20.3-20.3-48.3-32.8-79.3-32.8h-828.4c-31,0-59,12.5-79.3,32.8c-20.3,20.3-32.8,48.3-32.8,79.3
		C1689.5,2989.9,1702.1,3017.9,1722.4,3038.2z"/><path d="M1678.9,2959c0,67.8,55,122.7,122.7,122.7H2630c67.8,0,122.7-55,122.7-122.7c0-67.8-55-122.7-122.7-122.7h-828.4
		C1733.8,2836.2,1678.9,2891.2,1678.9,2959z M1801.6,2846.8H2630c31,0,59,12.5,79.3,32.8c20.3,20.3,32.8,48.3,32.8,79.3
		c0,31-12.5,59-32.8,79.3c-20.3,20.3-48.3,32.8-79.3,32.8h-828.4c-31,0-59-12.5-79.3-32.8c-20.3-20.3-32.8-48.3-32.8-79.3
		c0-31,12.5-59,32.8-79.3C1742.7,2859.4,1770.6,2846.9,1801.6,2846.8z"/><path fill="#61c3da" d="M1689.5,3286.9c0,31,12.5,59,32.8,79.3c20.3,20.3,48.3,32.8,79.3,32.8H2630c31,0,59-12.5,79.3-32.8
		c20.3-20.3,32.8-48.3,32.8-79.3c0-31-12.5-59-32.8-79.3c-20.3-20.3-48.3-32.8-79.3-32.8h-828.4c-31,0-59,12.5-79.3,32.8
		C1702.1,3228,1689.5,3256,1689.5,3286.9z"/><path d="M2630,3409.7c67.8,0,122.7-55,122.7-122.7c0-67.8-55-122.7-122.7-122.7h-828.4c-67.8,0-122.7,55-122.7,122.7
		c0,67.8,55,122.7,122.7,122.7H2630z M2630,3174.8c31,0,59,12.5,79.3,32.8c20.3,20.3,32.8,48.3,32.8,79.3c0,31-12.5,59-32.8,79.3
		c-20.3,20.3-48.3,32.8-79.3,32.8h-828.4c-31,0-59-12.5-79.3-32.8c-20.3-20.3-32.8-48.3-32.8-79.3c0-31,12.5-59,32.8-79.3
		c20.3-20.3,48.3-32.8,79.3-32.8H2630z"/><path fill="#eff0f1" d="M2435.7,2154.8c20.5,0,37.1-16.6,37.1-37.1c0-20.5-16.6-37.1-37.1-37.1h-439.8c-20.5,0-37.1,16.6-37.1,37.1
		c0,20.5,16.6,37.1,37.1,37.1H2435.7z"/><path fill="#eff0f1" d="M1654.9,2329.7c0,20.5,16.6,37.1,37.1,37.1h1047.7c20.5,0,37.1-16.6,37.1-37.1c0-20.5-16.6-37.1-37.1-37.1
		H1692C1671.5,2292.7,1654.9,2309.3,1654.9,2329.7z"/><path fill="#eff0f1" d="M2665,2505.4c0-20.5-16.6-37.1-37.1-37.1h-824.2c-20.5,0-37.1,16.6-37.1,37.1c0,20.5,16.6,37.1,37.1,37.1
		h824.2C2648.4,2542.5,2665,2525.9,2665,2505.4z"/><path fill="#c1bebc" d="M1998.8,2701.1c0,13.9,11.2,25.1,25.1,25.1c13.9,0,25.1-11.2,25.1-25.1c0-13.9-11.2-25.1-25.1-25.1
		C2010.1,2676,1998.8,2687.2,1998.8,2701.1z"/><path fill="#eff0f1" d="M2190.7,2701.1c0,13.9,11.2,25.1,25.1,25.1c13.9,0,25.1-11.2,25.1-25.1c0-13.9-11.2-25.1-25.1-25.1
		C2201.9,2676,2190.7,2687.2,2190.7,2701.1z"/><path fill="#eff0f1" d="M2382.6,2701.1c0,13.9,11.2,25.1,25.1,25.1c13.9,0,25.1-11.2,25.1-25.1c0-13.9-11.2-25.1-25.1-25.1
		C2393.8,2676,2382.6,2687.2,2382.6,2701.1z"/><path fill="#eff0f1" d="M2310.7,1704.4c9.8-23.3,14.4-50.3,14.4-79.5c0-1.9-0.1-3.8-0.1-5.7c-4.9,7.9-11.5,18.2-19.4,29.5
		c-17.6,24.8-41.6,54.2-68.4,72.6c-26.8,18.4-62.8,30.4-92.2,37.9c-13.4,3.4-25.4,5.9-34.6,7.6c27.2,11,54.1,17.2,79.5,17.1
		c27.2,0,52.6-7,75.1-22.4c0,0,0,0,0,0c0,0,0,0,0,0C2285.9,1747.2,2300.9,1727.7,2310.7,1704.4z"/><path fill="#eff0f1" d="M2266.5,1773.4c-23.3,14.7-49.4,21.4-76.7,21.4c-32.4,0-66.4-9.3-100-25.2c-0.2-0.1-0.4-0.2-0.6-0.3
		c-12.7-6-25.3-13-37.8-20.8c-45.7-28.6-89.2-68.3-125.1-112.9c-19.9-24.7-33.7-47-42.7-67.3c-9-20.3-13-38.6-13-55.3
		c0-23.2,7.9-43,20.2-59.7c6.8-9.2,14.9-17.6,23.8-25.3c-0.5-1.3-0.8-2.7-0.8-4c0-2.7,1-5.4,3-7.5l27.1-28.9c2.2-2.3,5.1-3.5,8-3.5
		c3.4,0,6.9,1.6,9,4.7l15.9,23.2l0,0c1.3,1.9,1.9,4.1,1.9,6.2c0,2.1-0.6,4.2-1.8,6c-1.2,1.8-2.9,3.3-5,4.2l-36.6,15l0,0
		c-1.3,0.5-2.7,0.8-4.1,0.8c-3.5,0-6.9-1.7-9-4.7l-1.7-2.4c-8,7-15.1,14.5-21.1,22.6c-11.2,15.3-18.1,32.6-18.1,53.4
		c0,14.9,3.6,31.8,12.1,51c8.5,19.2,21.8,40.7,41.2,64.9c35.1,43.7,77.9,82.6,122.4,110.5c11.8,7.4,23.7,14,35.6,19.7
		c0.6-0.1,1.4-0.2,2.3-0.3c2.5-0.4,6.2-1,10.8-1.8c9.2-1.7,22-4.3,36.4-8c28.8-7.4,64-19.2,88.9-36.4c24.1-16.6,47.1-44,64.1-67.7
		c15.4-21.5,26-40,28.8-45c-5.2-63-29.4-132.9-65.2-194.1c-21.5-36.8-42.5-61.1-62.5-76.1c-20-15-39-20.8-57.5-20.8
		c-13.7,0-27.1,3.2-40.3,8.7c-4,1.6-7.9,3.5-11.8,5.5l1.5,2.2c1.3,1.9,1.9,4.1,1.9,6.2c0,2.7-1,5.4-3,7.5l-27.1,28.9
		c-2.2,2.3-5.1,3.5-8,3.5c-3.4,0-6.9-1.6-9-4.7l-15.9-23.2c-1.3-1.9-1.9-4.1-1.9-6.2c0-2.1,0.6-4.2,1.8-6c1.2-1.8,2.9-3.3,5-4.2
		l36.6-15c1.3-0.5,2.7-0.8,4.1-0.8c2.8,0,5.5,1.1,7.6,3.1c4.6-2.4,9.3-4.6,14.1-6.6c14.2-5.8,29-9.5,44.4-9.5
		c20.7,0,42.3,6.7,63.8,22.9c21.6,16.2,43.3,41.6,65.3,79.2c36.7,62.8,61.5,134.4,66.7,199.7c0.1,0.4,0.1,0.8,0.1,1.2
		c0.6,8,1,15.8,1,23.6c0,30.3-4.7,58.7-15.2,83.6c-9.8,23.3-24.8,43.4-45.3,58.8l58,84.2h286.1c12.1-23.1,18.4-48.9,18.4-74.9
		c0-31.4-9.2-63.2-28.4-91l-54.3-78.8c-11.3,6.6-23.9,9.9-36.3,9.8c-22.9,0-45.4-10.9-59.4-31.2c-8.6-12.5-12.7-26.7-12.7-40.8
		c0-22.9,10.9-45.4,31.2-59.3c12.5-8.6,26.7-12.7,40.8-12.7c22.9,0,45.4,10.9,59.4,31.2c8.6,12.4,12.7,26.7,12.7,40.8
		c0,21.2-9.4,42.1-26.9,56.2l54.3,78.8c20.4,29.7,30.2,63.6,30.2,97.1c0,25.9-5.9,51.5-17.2,74.9h173.1v-888H1627.4v888h692.8
		L2266.5,1773.4z M2564.7,1073.2l18.8-2.7c2.1-0.3,4-1.6,4.9-3.6l8.4-17.1c2.4-4.9,9.3-4.9,11.7,0l8.4,17.1c1,1.9,2.8,3.3,4.9,3.6
		l18.8,2.7c5.4,0.8,7.5,7.4,3.6,11.2l-13.6,13.3c-1.5,1.5-2.2,3.7-1.9,5.8l3.2,18.8c0.9,5.3-4.7,9.4-9.5,6.9l-16.8-8.9
		c-1.9-1-4.2-1-6.1,0l-16.8,8.9c-4.8,2.5-10.4-1.6-9.5-6.9l3.2-18.8c0.4-2.1-0.3-4.3-1.9-5.8l-13.6-13.3
		C2557.2,1080.6,2559.3,1074,2564.7,1073.2z M2371.2,1073.2l18.8-2.7c2.1-0.3,4-1.6,4.9-3.6l8.4-17.1c2.4-4.9,9.3-4.9,11.7,0
		l8.4,17.1c1,1.9,2.8,3.3,4.9,3.6l18.8,2.7c5.4,0.8,7.5,7.4,3.6,11.2l-13.6,13.3c-1.5,1.5-2.2,3.7-1.9,5.8l3.2,18.8
		c0.9,5.3-4.7,9.4-9.5,6.9l-16.8-8.9c-1.9-1-4.2-1-6.1,0l-16.8,8.9c-4.8,2.5-10.4-1.6-9.5-6.9l3.2-18.8c0.4-2.1-0.3-4.3-1.9-5.8
		l-13.6-13.3C2363.7,1080.6,2365.9,1074,2371.2,1073.2z M2177.8,1073.2l18.8-2.7c2.1-0.3,4-1.6,4.9-3.6l8.4-17.1
		c2.4-4.9,9.3-4.9,11.7,0l8.4,17.1c1,1.9,2.8,3.3,4.9,3.6l18.8,2.7c5.4,0.8,7.5,7.4,3.6,11.2l-13.6,13.3c-1.5,1.5-2.2,3.7-1.9,5.8
		l3.2,18.8c0.9,5.3-4.7,9.4-9.5,6.9l-16.8-8.9c-1.9-1-4.2-1-6.1,0l-16.8,8.9c-4.8,2.5-10.4-1.6-9.5-6.9l3.2-18.8
		c0.4-2.1-0.3-4.3-1.9-5.8l-13.6-13.3C2170.2,1080.6,2172.4,1074,2177.8,1073.2z M1984.3,1073.2l18.8-2.7c2.1-0.3,4-1.6,4.9-3.6
		l8.4-17.1c2.4-4.9,9.3-4.9,11.7,0l8.4,17.1c1,1.9,2.8,3.3,4.9,3.6l18.8,2.7c5.4,0.8,7.5,7.4,3.6,11.2l-13.6,13.3
		c-1.5,1.5-2.2,3.7-1.9,5.8l3.2,18.8c0.9,5.3-4.7,9.4-9.5,6.9l-16.8-8.9c-1.9-1-4.2-1-6.1,0l-16.8,8.9c-4.8,2.5-10.4-1.6-9.5-6.9
		l3.2-18.8c0.4-2.1-0.3-4.3-1.9-5.8l-13.6-13.3C1976.8,1080.6,1978.9,1074,1984.3,1073.2z M1855,1103.4l3.2,18.8
		c0.9,5.3-4.7,9.4-9.5,6.9l-16.8-8.9c-1.9-1-4.2-1-6.1,0l-16.8,8.9c-4.8,2.5-10.4-1.6-9.5-6.9l3.2-18.8c0.4-2.1-0.3-4.3-1.9-5.8
		l-13.6-13.3c-3.9-3.8-1.7-10.4,3.6-11.2l18.8-2.7c2.1-0.3,4-1.6,4.9-3.6l8.4-17.1c2.4-4.9,9.3-4.9,11.7,0l8.4,17.1
		c1,1.9,2.8,3.3,4.9,3.6l18.8,2.7c5.4,0.8,7.5,7.4,3.6,11.2l-13.6,13.3C1855.4,1099.2,1854.7,1101.3,1855,1103.4z"/><path fill="#fff" d="M1870.5,1084.4c3.9-3.8,1.7-10.4-3.6-11.2l-18.8-2.7c-2.1-0.3-4-1.6-4.9-3.6l-8.4-17.1
		c-2.4-4.9-9.3-4.9-11.7,0l-8.4,17.1c-1,1.9-2.8,3.3-4.9,3.6l-18.8,2.7c-5.4,0.8-7.5,7.4-3.6,11.2l13.6,13.3
		c1.5,1.5,2.2,3.7,1.9,5.8l-3.2,18.8c-0.9,5.3,4.7,9.4,9.5,6.9l16.8-8.9c1.9-1,4.2-1,6.1,0l16.8,8.9c4.8,2.5,10.4-1.6,9.5-6.9
		l-3.2-18.8c-0.4-2.1,0.3-4.3,1.9-5.8L1870.5,1084.4z"/><path fill="#fff" d="M1994.3,1097.7c1.5,1.5,2.2,3.7,1.9,5.8l-3.2,18.8c-0.9,5.3,4.7,9.4,9.5,6.9l16.8-8.9c1.9-1,4.2-1,6.1,0
		l16.8,8.9c4.8,2.5,10.4-1.6,9.5-6.9l-3.2-18.8c-0.4-2.1,0.3-4.3,1.9-5.8l13.6-13.3c3.9-3.8,1.7-10.4-3.6-11.2l-18.8-2.7
		c-2.1-0.3-4-1.6-4.9-3.6l-8.4-17.1c-2.4-4.9-9.3-4.9-11.7,0l-8.4,17.1c-1,1.9-2.8,3.3-4.9,3.6l-18.8,2.7c-5.4,0.8-7.5,7.4-3.6,11.2
		L1994.3,1097.7z"/><path fill="#fff" d="M2187.8,1097.7c1.5,1.5,2.2,3.7,1.9,5.8l-3.2,18.8c-0.9,5.3,4.7,9.4,9.5,6.9l16.8-8.9c1.9-1,4.2-1,6.1,0
		l16.8,8.9c4.8,2.5,10.4-1.6,9.5-6.9l-3.2-18.8c-0.4-2.1,0.3-4.3,1.9-5.8l13.6-13.3c3.9-3.8,1.7-10.4-3.6-11.2l-18.8-2.7
		c-2.1-0.3-4-1.6-4.9-3.6l-8.4-17.1c-2.4-4.9-9.3-4.9-11.7,0l-8.4,17.1c-1,1.9-2.8,3.3-4.9,3.6l-18.8,2.7c-5.4,0.8-7.5,7.4-3.6,11.2
		L2187.8,1097.7z"/><path fill="#fff" d="M2381.2,1097.7c1.5,1.5,2.2,3.7,1.9,5.8l-3.2,18.8c-0.9,5.3,4.7,9.4,9.5,6.9l16.8-8.9c1.9-1,4.2-1,6.1,0
		l16.8,8.9c4.8,2.5,10.4-1.6,9.5-6.9l-3.2-18.8c-0.4-2.1,0.3-4.3,1.9-5.8l13.6-13.3c3.9-3.8,1.7-10.4-3.6-11.2l-18.8-2.7
		c-2.1-0.3-4-1.6-4.9-3.6l-8.4-17.1c-2.4-4.9-9.3-4.9-11.7,0l-8.4,17.1c-1,1.9-2.8,3.3-4.9,3.6l-18.8,2.7c-5.4,0.8-7.5,7.4-3.6,11.2
		L2381.2,1097.7z"/><path fill="#fff" d="M2574.7,1097.7c1.5,1.5,2.2,3.7,1.9,5.8l-3.2,18.8c-0.9,5.3,4.7,9.4,9.5,6.9l16.8-8.9c1.9-1,4.2-1,6.1,0
		l16.8,8.9c4.8,2.5,10.4-1.6,9.5-6.9l-3.2-18.8c-0.4-2.1,0.3-4.3,1.9-5.8l13.6-13.3c3.9-3.8,1.7-10.4-3.6-11.2l-18.8-2.7
		c-2.1-0.3-4-1.6-4.9-3.6l-8.4-17.1c-2.4-4.9-9.3-4.9-11.7,0l-8.4,17.1c-1,1.9-2.8,3.3-4.9,3.6l-18.8,2.7c-5.4,0.8-7.5,7.4-3.6,11.2
		L2574.7,1097.7z"/><path d="M2263.5,1769.1L2263.5,1769.1L2263.5,1769.1C2263.5,1769.1,2263.5,1769.1,2263.5,1769.1c-0.2-0.2-0.3-0.5-0.4-0.8
		c0-0.1-0.1-0.1-0.1-0.2c-0.1-0.2-0.2-0.5-0.2-0.8c0-0.1-0.1-0.2-0.1-0.2c-0.1-0.6-0.1-1.1,0-1.7c0-0.1,0-0.2,0-0.3
		c0-0.2,0.1-0.3,0.1-0.5c0-0.2,0.1-0.3,0.1-0.5c0-0.1,0.1-0.2,0.2-0.3c0.4-0.8,1-1.6,1.8-2.1c-22.5,15.5-47.9,22.4-75.1,22.4
		c-25.4,0-52.3-6.1-79.5-17.1c-10.9,2-17.8,3-17.8,3v0c-1,0.1-1.9,0-2.7-0.4c33.6,15.9,67.6,25.2,100,25.2
		c27.3,0,53.4-6.6,76.7-21.4L2263.5,1769.1C2263.5,1769.1,2263.5,1769.1,2263.5,1769.1z"/><path d="M2086.5,1765.4c-0.4-2.9,1.7-5.6,4.6-6c0,0,0.3,0,1-0.1c0.2,0,0.4-0.1,0.6-0.1c-11.9-5.7-23.8-12.3-35.6-19.7
		c-44.5-27.9-87.3-66.8-122.4-110.5c-19.4-24.2-32.8-45.7-41.2-64.9c-8.5-19.2-12.1-36-12.1-51c0-20.8,6.9-38,18.1-53.4
		c5.9-8.1,13.1-15.5,21.1-22.6l-4.7-6.8l4.4-3l-4.4,3c-0.5-0.7-0.8-1.4-1.1-2.2c-8.9,7.7-17,16-23.8,25.3
		c-12.3,16.7-20.2,36.5-20.2,59.7c0,16.6,4,35,13,55.3c9,20.3,22.8,42.6,42.7,67.3c35.8,44.6,79.4,84.3,125.1,112.9
		c12.5,7.8,25.1,14.8,37.8,20.8C2087.8,1768.5,2086.7,1767.1,2086.5,1765.4z"/><path d="M2324.7,1598.5c1.4-2.6,4.6-3.5,7.2-2.1c1.5,0.8,2.4,2.2,2.7,3.8c-5.2-65.3-30-136.9-66.7-199.7
		c-22-37.6-43.7-63.1-65.3-79.2c-21.6-16.2-43.1-22.9-63.8-22.9c-15.3,0-30.2,3.6-44.4,9.5c-4.8,2-9.5,4.2-14.1,6.6
		c0.5,0.5,1,1,1.5,1.6l-4.4,3l4.4-3l4.9,7.1c3.9-2,7.9-3.8,11.8-5.5c13.2-5.4,26.7-8.7,40.3-8.7c18.4,0,37.4,5.8,57.5,20.8
		c20,15,41,39.3,62.5,76.1c35.8,61.2,60,131.1,65.2,194.1c0.3-0.5,0.5-1,0.7-1.2L2324.7,1598.5z"/><path d="M2324.9,1619.3c0,1.9,0.1,3.8,0.1,5.7c0,29.2-4.6,56.2-14.4,79.5c-9.8,23.3-24.8,42.8-45.8,57.3c2.4-1.7,5.7-1.1,7.4,1.4
		l2.9,4.2c20.6-15.4,35.5-35.5,45.3-58.8c10.5-24.9,15.2-53.3,15.2-83.6c0-7.7-0.4-15.6-1-23.6c0,0.8-0.2,1.6-0.6,2.3
		C2334.1,1603.7,2330.7,1609.8,2324.9,1619.3z"/><path d="M2262.8,1764.6c0,0.2-0.1,0.3-0.1,0.5C2262.7,1765,2262.7,1764.8,2262.8,1764.6z"/><path d="M2262.7,1767.4c0.1,0.3,0.1,0.5,0.2,0.8C2262.9,1767.9,2262.8,1767.7,2262.7,1767.4z"/><path d="M2263.1,1763.8c-0.1,0.1-0.1,0.2-0.2,0.3C2263,1764,2263,1763.9,2263.1,1763.8z"/><path d="M2262.7,1767.2c-0.1-0.6-0.1-1.1,0-1.7C2262.5,1766,2262.5,1766.6,2262.7,1767.2z"/><polygon points="2263.5 1769.1 2263.5 1769.1 2263.5 1769.1"/><path d="M2263.5,1769.1c-0.2-0.2-0.3-0.5-0.4-0.8C2263.2,1768.6,2263.3,1768.9,2263.5,1769.1
		C2263.5,1769.1,2263.5,1769.1,2263.5,1769.1z"/><polygon points="1930.9 1433.6 1931.1 1433.7 1931.2 1433.7 1967.9 1418.7 1968 1418.6 1968 1418.4 1968 1418.3 1968 1418.3 1952 1395.1 1951.8 1395 1951.6 1395.1 1924.5 1423.9 1924.4 1424.1 1924.5 1424.3 1924.5 1424.3"/><path d="M1920.1,1427.3l-4.4,3l4.7,6.8l1.7,2.4c2.1,3,5.5,4.7,9,4.7c1.4,0,2.8-0.3,4.1-0.8l0,0l36.6-15c2.1-0.9,3.9-2.4,5-4.2
		c1.2-1.8,1.8-3.9,1.8-6c0-2.1-0.6-4.3-1.9-6.2l0,0l-15.9-23.2c-2.1-3.1-5.6-4.8-9-4.7c-2.9,0-5.8,1.2-8,3.5l-27.1,28.9
		c-2,2.1-3,4.8-3,7.5c0,1.4,0.3,2.7,0.8,4c0.3,0.8,0.7,1.5,1.1,2.2L1920.1,1427.3z M1924.4,1424.1l0.1-0.2l27.1-28.9l0.2-0.1
		l0.3,0.1l15.9,23.2l0,0l0.1,0.2l-0.1,0.2l-0.1,0.1l-36.6,15l-0.1,0l-0.3-0.1l-6.4-9.3h0L1924.4,1424.1z"/><polygon points="2072.7 1321.9 2072.6 1322 2036 1336.9 2035.9 1337.1 2035.8 1337.2 2035.9 1337.4 2051.8 1360.6 2052 1360.7 2052.3 1360.6 2079.3 1331.7 2079.4 1331.5 2079.4 1331.3 2073 1322.1 2073 1322.1"/><path d="M2077.4,1319.1l4.4-3c-0.4-0.6-0.9-1.1-1.5-1.6c-2.1-2-4.8-3.1-7.6-3.1c-1.4,0-2.8,0.3-4.1,0.8l-36.6,15
		c-2.1,0.9-3.9,2.4-5,4.2c-1.2,1.8-1.8,3.9-1.8,6c0,2.1,0.6,4.3,1.9,6.2l15.9,23.2c2.1,3.1,5.6,4.7,9,4.7c2.9,0,5.8-1.2,8-3.5
		l27.1-28.9c2-2.1,3-4.8,3-7.5c0-2.2-0.6-4.3-1.9-6.2l-1.5-2.2l-4.9-7.1L2077.4,1319.1z M2079.4,1331.3l0.1,0.2l-0.1,0.2l-27.1,28.9
		l-0.2,0.1l-0.3-0.1l-15.9-23.1l-0.1-0.2l0.1-0.2l0.1-0.1l36.6-15l0.1,0l0.3,0.1l0,0L2079.4,1331.3z"/><path d="M2092.5,1770L2092.5,1770c0.1,0,6.9-0.9,17.8-3c9.2-1.7,21.2-4.2,34.6-7.6c29.4-7.6,65.4-19.5,92.2-37.9
		c26.8-18.5,50.8-47.8,68.4-72.6c8-11.3,14.6-21.6,19.4-29.5c5.8-9.5,9.1-15.6,9.2-15.7c0.4-0.7,0.6-1.5,0.6-2.3
		c0-0.4,0-0.8-0.1-1.2c-0.3-1.5-1.2-3-2.7-3.8c-2.6-1.4-5.8-0.4-7.2,2.1l-0.1,0.2c-0.1,0.2-0.4,0.6-0.7,1.2
		c-2.8,5-13.4,23.5-28.8,45c-17,23.8-39.9,51.1-64.1,67.7c-24.9,17.2-60,29-88.9,36.4c-14.4,3.7-27.2,6.3-36.4,8
		c-4.6,0.8-8.3,1.4-10.8,1.8c-1,0.1-1.7,0.3-2.3,0.3c-0.2,0-0.4,0.1-0.6,0.1c-0.7,0.1-1,0.1-1,0.1c-2.9,0.4-5,3.1-4.6,6
		c0.2,1.7,1.3,3.1,2.7,3.9c0.2,0.1,0.4,0.2,0.6,0.3C2090.6,1769.9,2091.5,1770.1,2092.5,1770z"/><path d="M2618.1,1679.6l-54.3-78.8c-1.4,1.1-2.8,2.2-4.3,3.2c-1.5,1-3,2-4.5,2.8l54.3,78.8c19.2,27.9,28.4,59.6,28.4,91
		c0,26-6.3,51.7-18.4,74.9c-11.7,22.4-28.9,42.4-51.2,57.7c-27.9,19.2-59.6,28.4-91,28.4c-51.1,0-101.4-24.3-132.6-69.6l-11.3-16.5
		l-58-84.2l-2.9-4.2c-1.7-2.4-5-3-7.4-1.4c0,0,0,0,0,0c0,0,0,0,0,0c-0.8,0.6-1.4,1.3-1.8,2.1c-0.1,0.1-0.1,0.2-0.2,0.3
		c-0.1,0.2-0.1,0.3-0.1,0.5c0,0.2-0.1,0.3-0.1,0.5c0,0.1,0,0.2,0,0.3c-0.1,0.6-0.1,1.1,0,1.7c0,0.1,0.1,0.2,0.1,0.2
		c0.1,0.3,0.1,0.5,0.2,0.8c0,0.1,0.1,0.1,0.1,0.2c0.1,0.3,0.2,0.5,0.4,0.8h0l0,0l0,0l0,0l3,4.3l53.8,78.1l15.5,22.5
		c33.2,48.3,86.8,74.2,141.3,74.2c33.5,0,67.4-9.8,97.1-30.2c25.4-17.5,44.5-40.6,57-66.5c11.3-23.4,17.2-49,17.2-74.9
		C2648.3,1743.1,2638.5,1709.3,2618.1,1679.6z"/><path fill="#fff" d="M2553.5,1595.2c17.3-11.9,26.6-31.1,26.6-50.6c0-12-3.5-24.1-10.8-34.7c-11.9-17.3-31.1-26.6-50.6-26.6
		c-12,0-24.1,3.5-34.7,10.8c-17.3,11.9-26.6,31.1-26.6,50.6c0,12,3.5,24.1,10.8,34.7c11.9,17.3,31.1,26.6,50.6,26.6
		C2530.8,1606,2542.9,1602.5,2553.5,1595.2z M2518.7,1587.5c-13.6,0-27-6.5-35.3-18.6c-5.1-7.4-7.6-15.9-7.6-24.3
		c0-13.6,6.5-27,18.6-35.3c7.4-5.1,15.9-7.6,24.3-7.6c13.6,0,27,6.5,35.3,18.6h0c5.1,7.4,7.6,15.9,7.6,24.3c0,13.6-6.5,27-18.6,35.3
		C2535.6,1585.1,2527.1,1587.5,2518.7,1587.5z"/><path d="M2563.8,1600.7c17.5-14.1,26.9-35,26.9-56.2c0-14.1-4.1-28.3-12.7-40.8c-14-20.3-36.5-31.2-59.4-31.2
		c-14.1,0-28.3,4.1-40.8,12.7c-20.3,14-31.2,36.5-31.2,59.3c0,14.1,4.1,28.3,12.7,40.8c14,20.3,36.5,31.2,59.4,31.2
		c12.4,0,24.9-3.2,36.3-9.8c1.5-0.9,3-1.8,4.5-2.8C2561,1602.9,2562.4,1601.9,2563.8,1600.7z M2468.2,1579.4
		c-7.3-10.6-10.8-22.7-10.8-34.7c0-19.5,9.3-38.7,26.6-50.6c10.6-7.3,22.7-10.8,34.7-10.8c19.5,0,38.7,9.3,50.6,26.6
		c7.3,10.6,10.8,22.7,10.8,34.7c0,19.5-9.3,38.7-26.6,50.6c-10.6,7.3-22.7,10.8-34.7,10.8C2499.2,1606,2480.1,1596.7,2468.2,1579.4z
		"/><path fill="#fff" d="M2545.3,1526.4c-6.3-9.1-16.3-13.9-26.6-14c-6.3,0-12.6,1.8-18.2,5.7c-9.1,6.3-13.9,16.3-14,26.6
		c0,6.3,1.8,12.6,5.7,18.2c6.3,9.1,16.3,13.9,26.6,14c6.3,0,12.6-1.8,18.2-5.7c9.1-6.3,13.9-16.3,14-26.6
		C2550.9,1538.3,2549.1,1532,2545.3,1526.4l4.4-3L2545.3,1526.4z"/><path d="M2543,1580c12.1-8.3,18.6-21.7,18.6-35.3c0-8.4-2.5-16.9-7.6-24.3h0c-8.3-12.1-21.7-18.6-35.3-18.6
		c-8.4,0-16.9,2.5-24.3,7.6c-12.1,8.3-18.6,21.7-18.6,35.3c0,8.4,2.5,16.9,7.6,24.3c8.3,12.1,21.7,18.6,35.3,18.6
		C2527.1,1587.5,2535.6,1585.1,2543,1580z M2550.9,1544.6c0,10.3-4.9,20.3-14,26.6c-5.6,3.9-11.9,5.7-18.2,5.7
		c-10.3,0-20.3-4.9-26.6-14c-3.9-5.6-5.7-11.9-5.7-18.2c0-10.3,4.9-20.3,14-26.6c5.6-3.9,11.9-5.7,18.2-5.7c10.3,0,20.3,4.9,26.6,14
		l4.4-3l-4.4,3C2549.1,1532,2550.9,1538.3,2550.9,1544.6z"/><path fill="#fff" d="M4903.4,1390c4.1-4.1,9.9-9.8,16.6-16.5c10.6-10.7,23.3-23.8,34.6-36.3c4.5-40.6,8.8-74,11.9-96.2
		c-3.8-17.9-7.9-38.5-12.1-61.1c-8.5-45.6-17.2-98.8-23-151.2l0-0.1c-0.1-0.3-0.2-0.8-0.5-1.7c-0.6-1.8-2-4.8-4.6-9.6
		c-5.2-9.5-15.5-25.7-35.6-51.7c-3.5-4.5-6.5-7.9-9.2-10.3c-2.6-2.4-4.8-3.8-6.4-4.5c-1.1-0.4-1.8-0.6-2.4-0.6
		c-0.7,0-1.2,0.1-1.9,0.5c-0.7,0.4-1.5,1.2-2.5,2.3c-1.9,2.4-3.9,6.4-5.9,11.3c-3.9,9.9-7.7,23.5-13.1,36.4
		c-3.6,8.6-8,16.9-13.9,23.7c-2.4,2.7-4.6,4.8-7,6.3c-2.4,1.5-4.9,2.5-7.7,2.5c-1.9,0-3.9-0.5-5.5-1.5c-1.6-0.9-2.9-2.2-4-3.5
		c-2.2-2.8-3.6-6.1-4.8-9.9c-2.3-7.6-3.6-17.3-4.5-28c-1.7-21.3-1.5-46.5-2.2-62.5c-0.2-3.9-0.5-7-0.9-9.3c-0.4-2.3-0.9-3.6-1.3-4.2
		c-0.2-0.4-0.3-0.4-0.4-0.5c-0.1-0.1-0.6-0.3-1.7-0.3c-1.9,0-5.5,0.7-10.2,2c-4.8,1.3-10.9,3.1-18.5,5.1c-15.2,4-36.2,8.8-65,11.6
		c-4.2,0.4-8.4,0.6-12.6,0.6c-22.5,0-43.8-5.6-63-14c-14.8-6.4-28.4-14.5-40.6-22.9c0.8,22,2.7,49.8,7.1,79.3
		c6.4,43.4,18.2,90.2,39.1,126.2c13.9,24,31.7,43.2,54.5,53.9c13,6.1,27.7,9.6,44.5,9.6c2.4,0,4.9-0.1,7.4-0.2l64.2-12.3
		c1.6-0.3,3.3,0.1,4.5,1.2c1.2,1.1,1.9,2.6,1.8,4.3l-3.3,69.2c0.1,2.9,2.1,49,3.7,117.2l90.7,49.2
		C4900.6,1392.7,4901.8,1391.5,4903.4,1390z"/><path d="M4802.7,1222.8c1.5,0.9,2.4,2.5,2.5,4.3c0,0,0,0.1,0,0.2l3.3-69.2c0.1-1.6-0.6-3.2-1.8-4.3c-1.2-1.1-2.9-1.5-4.5-1.2
		l-64.2,12.3c-2.5,0.1-5,0.2-7.4,0.2c-16.8,0-31.5-3.4-44.5-9.6c-22.8-10.7-40.6-29.8-54.5-53.9c-20.9-36-32.7-82.8-39.1-126.2
		c-4.4-29.4-6.3-57.3-7.1-79.3c-3.6-2.5-7.1-5.1-10.5-7.6c-0.1-0.1-0.3-0.2-0.4-0.3c1,39.3,5.5,102.2,22.8,159.3
		c10.2,33.8,25,65.6,46.5,89.2c10.8,11.8,23.3,21.6,37.7,28.4c14.4,6.8,30.8,10.6,49.1,10.6c2.7,0,5.5-0.1,8.4-0.3l0.7-0.1l58-11.1
		l-2.7,55.8c0.3,0,0.6,0.1,0.9,0.1C4798.3,1220.7,4800.6,1221.5,4802.7,1222.8z"/><path d="M4934.8,1033c-1.9-0.7-3.2-2.3-3.5-4.2l0,0l0,0c5.8,52.5,14.5,105.6,23,151.2c4.2,22.5,8.4,43.2,12.1,61.1
		c2.6-18.7,4.2-29.4,4.2-29.4c0.1-0.5,0.2-0.9,0.4-1.3c-2.9-14.4-5.8-29.9-8.8-46.2c-7.5-41.5-14.9-88.2-20.1-134.3
		c-1.1,1.2-1.7,1.9-1.8,1.9C4938.9,1033.1,4936.7,1033.6,4934.8,1033z"/><path d="M4904.2,1404.1c0,0,17.8-17.2,37.5-37.6c3.6-3.7,7.3-7.6,10.9-11.5c0.6-6.1,1.3-12,1.9-17.8c-11.3,12.5-24,25.6-34.6,36.3
		c-6.6,6.7-12.4,12.4-16.6,16.5c-1.6,1.5-2.8,2.7-3.8,3.7l-90.7-49.2c0.1,4,0.2,8.1,0.3,12.3l88.8,48.2
		C4900,1406,4902.5,1405.7,4904.2,1404.1z"/><path d="M4846,659.1c-24.6-10.4-51.5-16.3-79.7-16.3c-16.3,0-33,1.9-50,6c-59.2,14.2-104.5,42.7-135,75.2
		c-30.5,32.5-46,69.1-46,98.9c0,5.4,0.5,10.6,1.5,15.5c0.2,0.3,0.5,0.6,0.9,1c1.2,1.3,2.9,3.3,5.2,5.7c4.5,4.9,11.1,11.6,19.5,19.1
		c16.7,15,40.3,33,67.7,44.9c18.3,7.9,38.1,13.1,58.8,13.1c3.8,0,7.7-0.2,11.6-0.6c21.1-2,37.8-5.1,51.1-8.2
		c13.3-3.1,23.1-6.1,30.7-8.2c5.1-1.3,9.1-2.3,13-2.3c2,0,4,0.3,6,1.2c2,0.9,3.7,2.3,4.9,4.1c0.8,1.2,1.4,2.4,1.9,3.7
		c0.6,1.8,1.1,3.6,1.4,5.7c0.4,2.8,0.7,6,0.9,9.7c0.5,10.1,0.6,23.5,1,37.1c0.4,13.6,1.1,27.5,2.7,38.4c1,7.3,2.6,13.3,4.3,16.7
		c0.9,1.9,1.9,2.8,2.2,2.9l0.3,0.1c0.1,0,0.8-0.1,2-0.8c1.2-0.8,2.8-2.2,4.7-4.3c5.5-6.3,9.9-15,13.6-24.4c3.7-9.4,6.7-19.3,9.9-28
		c2.1-5.8,4.3-11.1,7-15.5c1.6-2.5,3.3-4.7,5.5-6.5c2.5-2.1,5.8-3.5,9.3-3.5c2.2,0,4.4,0.5,6.5,1.4c2.1,0.9,4.2,2.2,6.3,3.8
		c4.2,3.2,8.6,7.9,13.6,14.4c20.3,26.3,30.9,42.9,36.5,53.1c1.2,2.1,2.1,3.9,2.8,5.5c0.8-1,1.6-2,2.5-3.2
		c4.9-6.5,11.6-16.1,18.2-28.7c13.3-25.1,26.5-61.8,26.5-108.1c0-14.6-1.3-30.1-4.4-46.6c-8.8-47.3-31.7-90.3-64-123.3
		C4886.6,703.4,4860.7,684.8,4846,659.1z"/><path d="M4585.4,896.1c12.1,8.4,25.7,16.5,40.6,22.9c19.3,8.4,40.6,14,63,14c4.2,0,8.4-0.2,12.6-0.6c28.8-2.8,49.8-7.5,65-11.6
		c7.6-2,13.7-3.9,18.5-5.1c4.8-1.3,8.3-2,10.2-2c1.2,0,1.6,0.2,1.7,0.3c0.1,0.1,0.2,0.1,0.4,0.5c0.4,0.5,0.9,1.9,1.3,4.2
		c0.4,2.3,0.7,5.4,0.9,9.3c0.7,16,0.5,41.1,2.2,62.5c0.9,10.7,2.2,20.4,4.5,28c1.2,3.8,2.6,7.1,4.8,9.9c1.1,1.4,2.4,2.6,4,3.5
		c1.6,0.9,3.6,1.5,5.5,1.5c2.8,0,5.4-1,7.7-2.5c2.4-1.5,4.6-3.6,7-6.3c5.9-6.8,10.3-15.1,13.9-23.7c5.4-12.8,9.2-26.4,13.1-36.4
		c1.9-5,4-9,5.9-11.3c0.9-1.2,1.8-1.9,2.5-2.3c0.7-0.4,1.2-0.5,1.9-0.5c0.6,0,1.3,0.1,2.4,0.6c1.6,0.7,3.8,2.1,6.4,4.5
		c2.6,2.4,5.7,5.8,9.2,10.3c20.1,26,30.4,42.2,35.6,51.7c2.6,4.8,3.9,7.8,4.6,9.6c0.3,0.9,0.5,1.4,0.5,1.7l0,0.1l0,0l0,0
		c0.3,2,1.6,3.6,3.5,4.2c2,0.7,4.1,0.2,5.6-1.3c0.1-0.1,0.7-0.7,1.8-1.9c4.2-4.7,15.2-18,26.3-38.9c13.9-26.3,27.8-64.7,27.7-113
		c0-15.2-1.4-31.4-4.5-48.5c-8.4-45.4-29.3-87.1-58.9-120.3c-0.3,0-0.6,0-0.9,0c-5,0-9.9-0.4-14.7-1.1c32.3,33,55.2,76,64,123.3
		c3.1,16.4,4.4,32,4.4,46.6c0,46.3-13.3,82.9-26.5,108.1c-6.6,12.6-13.2,22.2-18.2,28.7c-0.9,1.2-1.7,2.2-2.5,3.2
		c-0.8-1.6-1.7-3.4-2.8-5.5c-5.6-10.2-16.2-26.8-36.5-53.1c-5-6.4-9.4-11.1-13.6-14.4c-2.1-1.6-4.2-2.9-6.3-3.8
		c-2.1-0.9-4.3-1.4-6.5-1.4c-3.5,0-6.8,1.4-9.3,3.5c-2.2,1.8-4,4-5.5,6.5c-2.7,4.4-4.9,9.7-7,15.5c-3.2,8.7-6.2,18.6-9.9,28
		c-3.7,9.4-8.1,18.1-13.6,24.4c-1.9,2.2-3.5,3.6-4.7,4.3c-1.2,0.8-1.8,0.8-2,0.8l-0.3-0.1c-0.3-0.1-1.2-1-2.2-2.9
		c-1.7-3.4-3.2-9.4-4.3-16.7c-1.6-11-2.3-24.8-2.7-38.4c-0.4-13.6-0.5-26.9-1-37.1c-0.2-3.7-0.4-6.9-0.9-9.7c-0.3-2.1-0.7-4-1.4-5.7
		c-0.5-1.3-1.1-2.6-1.9-3.7c-1.2-1.7-2.9-3.2-4.9-4.1c-2-0.9-4-1.2-6-1.2c-3.9,0-7.9,1-13,2.3c-7.6,2-17.4,5.1-30.7,8.2
		c-13.3,3.1-30,6.2-51.1,8.2c-3.9,0.4-7.7,0.5-11.6,0.6c-20.7,0-40.5-5.2-58.8-13.1c-27.4-11.9-51-29.9-67.7-44.9
		c-8.4-7.5-15-14.3-19.5-19.1c-2.3-2.4-4-4.4-5.2-5.7c-0.4-0.4-0.6-0.7-0.9-1c-1-4.9-1.5-10.1-1.5-15.5c0-29.8,15.5-66.4,46-98.9
		c30.5-32.5,75.8-61.1,135-75.2c17-4.1,33.7-6,50-6c28.2,0,55,5.8,79.7,16.3c-2.5-4.5-4.8-9.2-6.6-14c-22.9-8.3-47.5-12.9-73.1-12.9
		c-17.1,0-34.6,2-52.4,6.3c-61.1,14.7-108.3,44.2-140.3,78.3c-31.9,34.1-48.8,72.8-48.9,106.2c0,6.6,0.7,12.9,2,19
		c0.2,0.8,0.5,1.6,1.1,2.2c0.2,0.2,17.9,22,46.7,44c0.1,0.1,0.3,0.2,0.4,0.3C4578.2,891.1,4581.7,893.6,4585.4,896.1z"/><path d="M4869.5,672.6c16,16,38,25.8,62.3,25.8c24.4,0,46.4-9.9,62.3-25.8c16-16,25.8-38,25.8-62.3c0-24.4-9.9-46.3-25.8-62.3
		c-16-16-38-25.8-62.3-25.8c-24.4,0-46.3,9.9-62.3,25.8c-16,16-25.8,38-25.8,62.3C4843.7,634.6,4853.6,656.6,4869.5,672.6z"/><path d="M4846,659.1c14.7,25.8,40.6,44.3,71.2,48.9c4.8,0.7,9.7,1.1,14.7,1.1c0.3,0,0.6,0,0.9,0c54.2-0.5,97.9-44.5,97.9-98.7
		c0-54.5-44.2-98.8-98.8-98.8c-54.5,0-98.8,44.2-98.8,98.8c0,12.2,2.2,24,6.3,34.8C4841.2,649.9,4843.4,654.6,4846,659.1z
		 M4931.8,522.1c24.4,0,46.4,9.9,62.3,25.8c16,16,25.8,38,25.8,62.3c0,24.3-9.9,46.3-25.8,62.3c-16,16-38,25.8-62.3,25.8
		c-24.4,0-46.3-9.9-62.3-25.8c-16-16-25.8-38-25.8-62.3c0-24.4,9.9-46.3,25.8-62.3C4885.5,532,4907.5,522.1,4931.8,522.1z"/><path fill="#fff" d="M4936.6,2208.7c0,162.2,6.2,307.7,22.9,400.4c5.3,29.2,11.6,53,18.9,70.4c16.7,0.3,33.1,0.5,48.9,0.5
		c363,0,508.1-79.5,528.9-92.1c-0.1-0.6-0.1-1.2-0.2-2c-0.4-3.5-1-8.7-1.9-15.4c-1.6-13.5-4.1-33.1-7.3-57.8
		c-6.3-49.4-15.6-119-27.2-200c-1-7-2-14-3.1-21.2c-5.6,7.9-11.2,15.4-16.8,22.5c-57.1,72-114.3,101.5-114.7,101.7
		c-1.1,0.6-2.3,0.7-3.5,0.5c-0.1,0-13.9-2.7-32.9-7.6c-19-4.8-43-11.7-63.4-20.3c-13.7-5.7-25.8-12-34.1-19.4
		c-4.7-4.3-8.3-9-9.8-14.6c-0.3-1.3-0.1-2.6,0.5-3.8c24.2-44.6,57.4-98.7,84.5-160.6c27.1-61.9,48.1-131.5,48.1-207.2
		c0-39.4-5.7-80.5-19.2-123.1c-65.4-205.7-135.3-261.2-135.8-261.6l0,0c0,0,0,0,0,0c0,0,0,0,0,0v0c-2.3-1.8-2.7-5.1-0.9-7.5
		c0.9-1.1,2.1-1.8,3.3-2l-53.5-318.9c-17.9-8.5-35.4-15.4-52.2-20.8c-17-5.5-33.3-9.5-48.3-12.5l-16.6,173.3c-0.1,1.1-0.6,2.2-1.3,3
		l-42.3,47.3l42.9,73.3c0.8,1.3,0.9,3,0.4,4.5c-0.1,0.2-40.7,115.7-102.9,217.6C4941.5,1903,4936.6,2062.7,4936.6,2208.7z"/><path d="M5516.6,2291.5c1,7.1,2.1,14.2,3.1,21.2c11.6,81,20.9,150.6,27.2,200c3.2,24.7,5.6,44.3,7.3,57.8
		c0.8,6.7,1.4,11.9,1.9,15.4c0.1,0.8,0.2,1.4,0.2,2c-20.8,12.6-165.9,92.1-528.9,92.1c-15.9,0-32.2-0.2-48.9-0.5
		c-7.3-17.4-13.7-41.2-18.9-70.4c-16.8-92.7-22.9-238.2-22.9-400.4c0-146,5-305.7,11.6-453.2c-0.2,0.4-0.5,0.8-0.7,1.2
		c-1.2,2-3.5,2.9-5.8,2.4c-2.2-0.5-3.9-2.5-4-4.8c0-0.1,0-0.2,0-0.4c-6.6,147.9-11.6,308.1-11.6,454.7c0,84.5,1.7,164.5,5.6,235.1
		c0.2,3.6,0.4,7.2,0.6,10.7c1,16,2.1,31.6,3.3,46.5c3.4,41.5,7.9,78.6,13.5,110c5.7,31.4,12.5,57.1,21,76c0.8,1.9,2.7,3.1,4.7,3.1
		c10.9,0.2,21.5,0.3,32,0.4c3.6,0,7.2,0,10.8,0.1c3.3,0,6.6,0.1,9.8,0.1c249.9,0,397.6-37.5,473.2-65.6c3.6-1.4,7.1-2.7,10.4-4
		c37.2-14.7,53.6-25.8,54-26.1c1.6-1.1,2.5-3.1,2.3-5c0,0-15.6-132.6-41.8-311.5C5522.5,2283,5519.5,2287.3,5516.6,2291.5z"/><path d="M5067.9,1236.5c15,3,31.3,7,48.3,12.5c16.8,5.4,34.3,12.2,52.2,20.8l-0.1-0.4c-1.2-0.5-2.1-0.8-2.5-0.9l-0.2-0.1v0
		c-2.8-0.9-4.3-4-3.3-6.7c0.9-2.8,3.9-4.3,6.7-3.4c-16.9-7.9-33.6-14.3-49.5-19.4c-17.9-5.8-34.9-10-50.5-13.1L5067.9,1236.5z"/><path fill="#fff" d="M4723.7,1533.8c-0.1-1.4,0.4-2.8,1.4-3.8l51.3-56.6l-41.7-46.6c-0.6-0.7-1.1-1.6-1.2-2.5l-33.1-163.1
		c-27.9,11.4-58.8,30.3-88.4,61.9c-0.7,1-2.6,3.9-5.7,8.4l-67,507c1.1,0.1,2.2,0.6,3.1,1.4c2.1,2.1,2.1,5.4,0,7.5
		c-0.2,0.2-6.1,6.2-18.2,15.1c-1.8,30.9-3.5,62.1-5.1,93.3c-14.6,295.9-16.3,596.5-16.5,663.1c0,4.5,0,7.9,0,10.2
		c1.7,0.7,4.4,1.6,8.3,2.8c8.8,2.6,23.7,6.1,47.6,9.7c47.9,7.1,131.9,14.2,276,14.3c-4.3-19.1-8.1-43.7-11.5-73
		c-3.8-32.8-7.2-71.4-10.2-114.4c-5.9-86.1-10.3-190-13.4-300.5c-3.6-126.5-5.6-261.7-6.7-388.6c-31.1-51.4-48.3-112.4-57.8-160.7
		C4725.4,1569.9,4723.7,1534,4723.7,1533.8z"/><path d="M4610.7,1315.3c2.4,1.6,3.1,4.9,1.5,7.4c0,0-0.1,0.1-0.3,0.4c29.6-31.6,60.5-50.5,88.4-61.9l-2.2-10.6
		c-29.7,11.8-62.8,31.9-94.2,65.4C4605.8,1314.2,4608.6,1313.8,4610.7,1315.3z"/><path d="M4603.3,1316.7L4603.3,1316.7c0.2-0.3,0.4-0.6,0.7-0.8c0,0-0.1,0.1-0.1,0.1l0,0c-5.5,5.3-10.5,12.6-15.1,21.7
		c7.5-10.6,12.4-17.7,14-20.1C4603.1,1317,4603.3,1316.7,4603.3,1316.7z"/><path d="M4623.3,2659.4c49.9,4.1,118.5,7.1,212.2,7.1c1.9,0,3.8,0,5.7,0c1.6,0,3.2-0.8,4.2-2c1-1.3,1.4-3,1-4.6
		c-4.7-19.1-9-45.7-12.8-78.2c-4.6-39.6-8.6-87.9-12-142.5c-0.2-3.7-0.5-7.3-0.7-11c-6-100.1-10.2-220-13-344.4
		c-2.3-101.6-3.7-206.2-4.5-305.7c0,0.1,0,0.1,0,0.2c-0.2,2.3-1.8,4.2-4,4.8c-2.2,0.5-4.6-0.4-5.8-2.4c-0.3-0.4-0.5-0.9-0.8-1.3
		c1.1,126.9,3.1,262.1,6.7,388.6c3.1,110.5,7.5,214.4,13.4,300.5c3,43.1,6.4,81.6,10.2,114.4c3.4,29.3,7.2,53.9,11.5,73
		c-144.1,0-228.2-7.2-276-14.3c-24-3.6-38.9-7.1-47.6-9.7c-3.9-1.2-6.6-2.1-8.3-2.8c0-2.3,0-5.7,0-10.2
		c0.2-66.6,1.9-367.2,16.5-663.1c1.5-31.3,3.2-62.5,5.1-93.3c-3.3,2.4-7,5.1-11.1,7.8c-21.2,360.4-21.2,762.1-21.2,762.2
		c0,1.9,1,3.6,2.6,4.6c1,0.6,13.7,7.8,62.4,15c15,2.2,33.3,4.4,55.8,6.4C4616.1,2658.8,4619.6,2659.1,4623.3,2659.4z"/><polygon fill="#fff" points="3768.9 1335.2 3768.9 1335.2 3768.9 1335.2"/><path fill="#fff" d="M4551.5,1405.2c-37.3,47.3-88.3,106.7-143.9,155.3c-37,32.4-76.1,60-114.6,76c-22,9.1-43.9,14.4-65.2,14.4
		c-1.7,0-3.4,0-5.1-0.1h0c-21.7-0.9-43-9-63.5-22.1c-20.5-13.2-40.4-31.4-59.6-53c-38.2-43.1-73.4-99.6-103.4-155.8
		c-54.1-101.4-91.4-201.8-98.2-220.7c-1.7-0.1-4-0.2-7-0.2c-9.1,0-23.5,1.1-39.7,6.7c-16.3,5.5-34.4,15.3-51.3,32.8
		c-14.1,14.6-22.3,28.7-27,41.3c-4.7,12.7-6,24-6,33c0,8,1,14.2,1.5,18.1c0.2,1.4,0.3,2.4,0.3,3.7c0,0.1,0,0.3,0,0.5l0.1,0.6
		c0.1,0.6,0.2,1.4,0.4,2.4c0.4,2,0.9,4.9,1.7,8.6c1.5,7.3,3.7,17.7,6.8,30.5c6.1,25.6,15.3,61,28,101.6
		c25.3,81.2,64.1,183.2,118.1,269.1c36,57.3,78.7,107.4,128.2,139.6c28.3,18.4,58.8,31,91.8,35.9c37.4,5.6,72,8,103.8,8
		c97,0,168.1-22.3,215.3-44.9c47.2-22.6,70.5-45.4,71.6-46.5l0,0c1.2-1.2,2.9-1.7,4.5-1.4l67-507
		C4597,1344.7,4577.7,1371.9,4551.5,1405.2z"/><path d="M4524.2,1862.4c12-8.9,18-14.9,18.2-15.1c2.1-2.1,2-5.5,0-7.5c-0.9-0.8-1.9-1.3-3.1-1.4c-1.6-0.2-3.3,0.2-4.5,1.4l0,0
		c-1.1,1.1-24.4,23.9-71.6,46.5c-47.2,22.6-118.4,44.9-215.3,44.9c-31.8,0-66.4-2.4-103.8-8c-32.9-4.9-63.5-17.5-91.8-35.9
		c-49.5-32.2-92.2-82.3-128.2-139.6c-54-85.9-92.9-187.9-118.1-269.1c-12.6-40.6-21.9-76-28-101.6c-3-12.8-5.3-23.2-6.8-30.5
		c-0.7-3.7-1.3-6.6-1.7-8.6c-0.2-1-0.3-1.8-0.4-2.4l-0.1-0.6c0-0.2,0-0.3,0-0.5c0-1.3-0.2-2.3-0.3-3.7c-0.5-4-1.5-10.1-1.5-18.1
		c0-9,1.3-20.3,6-33c4.7-12.7,12.9-26.8,27-41.3c16.9-17.5,35-27.3,51.3-32.8c16.3-5.5,30.6-6.7,39.7-6.7c2.9,0,5.3,0.1,7,0.2
		c6.8,18.8,44.1,119.3,98.2,220.7c30,56.2,65.2,112.7,103.4,155.8c19.1,21.6,39,39.8,59.6,53c20.5,13.1,41.8,21.2,63.5,22.1h0
		c1.7,0.1,3.4,0.1,5.1,0.1c21.3,0,43.2-5.3,65.2-14.4c38.5-16,77.6-43.6,114.6-76c55.6-48.6,106.6-108,143.9-155.3
		c26.2-33.3,45.5-60.5,54.7-73.8c3.1-4.5,5-7.4,5.7-8.4c0.2-0.3,0.3-0.4,0.3-0.4c1.6-2.4,1-5.8-1.5-7.4c-2.1-1.4-4.9-1.1-6.7,0.6
		c0,0,0,0,0,0c-0.2,0.2-0.5,0.5-0.7,0.8v0c0,0-0.2,0.3-0.6,0.9c-1.6,2.4-6.5,9.5-14,20.1c-21.8,30.7-66.3,90.5-120.7,148.9
		c-36.6,39.2-77.6,77.8-119.1,106.5c-20.7,14.3-41.6,26.1-62,34.4c-20.4,8.2-40.3,12.8-59.2,12.8c-1.5,0-3.1,0-4.6-0.1h0
		c-19.3-0.8-38.8-8-58.2-20.4c-34-21.7-67.4-59.3-98.1-103.5c-46.1-66.3-86.1-147.3-114.6-211.7c-14.2-32.2-25.6-60.2-33.3-80.2
		c-3.9-10-6.9-18-8.9-23.4c-1-2.7-1.8-4.8-2.3-6.3c-0.5-1.4-0.8-2.1-0.8-2.1c-0.7-1.9-2.3-3.2-4.2-3.5c-0.2,0-4.5-0.7-11.6-0.7
		c-1.2,0-2.4,0-3.7,0.1c-3.2,0.1-6.8,0.3-10.8,0.8c-8.3,0.9-18,2.8-28.6,6.4c-17.6,6-37.4,16.7-55.5,35.5
		c-10.9,11.3-18.6,22.5-24,33.1c-1.9,3.7-3.5,7.2-4.8,10.8c-0.1,0.4-0.3,0.8-0.5,1.1c-5.2,14-6.7,26.7-6.7,36.7c0,5.9,0.5,11,1,14.8
		c0.2,1.9,0.5,3.5,0.7,4.8c0.2,1.2,0.3,2.1,0.2,2.2c0,0.3,0,0.5,0,0.6c0,0.7,0.1,1,0.1,1.5c0.3,1.9,0.9,5.4,2,10.7
		c8,39.8,40.1,176.3,101.6,307.9c30.8,65.8,68.9,130.4,115.3,181.2c46.4,50.7,101.2,87.7,165.1,97.2c37.9,5.7,73.1,8.1,105.4,8.1
		c100.2,0,173.7-23.5,222.2-47c17.6-8.6,31.9-17.1,43-24.6C4517.2,1867.5,4520.9,1864.9,4524.2,1862.4z M3758.4,1334.3
		C3758.4,1334.3,3758.4,1334.3,3758.4,1334.3L3758.4,1334.3L3758.4,1334.3z M3768.9,1335.2L3768.9,1335.2L3768.9,1335.2
		L3768.9,1335.2z"/><path fill="#fff" d="M5221.9,1588.7c1.4-0.2,2.9,0.1,4.1,1c1,0.8,72.9,57.3,139.4,266.7c13.9,43.6,19.7,85.9,19.7,126.3
		c0,77.7-21.5,148.8-49,211.5c-27.1,61.8-59.9,115.5-83.8,159.4c0.9,2,2.6,4.4,5.2,6.8c3.4,3.2,8.1,6.5,13.8,9.6
		c11.4,6.3,26.4,12.2,41.7,17.3c30,9.9,61,16.5,68.7,18.1c0.2-0.1,0.5-0.3,0.8-0.4c1.6-0.9,4-2.3,7-4.2c6-3.8,14.7-9.5,25.2-17.5
		c20.9-16,48.8-40.7,76.7-76c55.8-70.5,111.8-182.5,111.8-349.9c0-40.5-3.3-84.2-10.7-131.4c-33.6-215-137.6-353.3-234.6-438.5
		c-89.9-79-173.8-112.2-189.6-118.1l0.1,0.4L5221.9,1588.7z"/><path d="M5162.3,1261.7c-0.9,2.8,0.6,5.8,3.3,6.7v0l0.2,0.1c0.4,0.1,1.2,0.4,2.5,0.9c15.8,5.8,99.7,39.1,189.6,118.1
		c97,85.3,201,223.5,234.6,438.5c7.4,47.2,10.7,90.9,10.7,131.4c0,167.4-56,279.5-111.8,349.9c-27.9,35.2-55.9,60-76.7,76
		c-10.4,8-19.1,13.7-25.2,17.5c-3,1.9-5.4,3.3-7,4.2c-0.3,0.2-0.5,0.3-0.8,0.4c-7.7-1.6-38.7-8.2-68.7-18.1
		c-15.3-5-30.3-10.9-41.7-17.3c-5.7-3.2-10.4-6.4-13.8-9.6c-2.6-2.4-4.3-4.8-5.2-6.8c23.9-43.9,56.7-97.6,83.8-159.4
		c27.5-62.7,49-133.8,49-211.5c0-40.5-5.8-82.7-19.7-126.3c-66.5-209.4-138.4-266-139.4-266.7c-1.2-1-2.7-1.3-4.1-1
		c-1.3,0.2-2.5,0.9-3.3,2c-1.8,2.3-1.4,5.7,0.9,7.5v0c0,0,0,0,0,0c0,0,0,0,0,0l0,0c0.5,0.4,70.4,55.8,135.8,261.6
		c13.5,42.6,19.2,83.7,19.2,123.1c0,75.7-21,145.3-48.1,207.2c-27.1,61.9-60.3,116-84.5,160.6c-0.6,1.2-0.8,2.5-0.5,3.8
		c1.4,5.6,5,10.4,9.8,14.6c8.3,7.4,20.4,13.7,34.1,19.4c20.5,8.5,44.5,15.4,63.4,20.3c18.9,4.8,32.8,7.5,32.9,7.6
		c1.2,0.2,2.4,0.1,3.5-0.5c0.5-0.2,57.6-29.7,114.7-101.7c5.6-7.1,11.2-14.6,16.8-22.5c3-4.2,5.9-8.6,8.9-13
		c47.4-72.3,88.5-176.8,88.5-321c0-41.1-3.3-85.4-10.8-133.1c-34.5-221.2-143-362.9-242.8-449c-99.8-86.1-190.9-116.9-191.3-117.1
		c0,0,0,0-0.1,0C5166.2,1257.5,5163.2,1259,5162.3,1261.7z"/><path fill="#fff" d="M4979.5,1223.8c-1,6.9-2.4,16.9-4.1,29.6c-3.4,25.4-7.9,61.5-12.4,104c-9,85-18,195.8-18,298.9
		c0,27.5,0.7,54.4,2.1,80.2c52-88.7,87.4-184,93.1-199.8l-43.6-74.5c-1.2-2-0.9-4.5,0.6-6.2l43.7-48.9l17.2-180.1
		c-0.9-0.3-2-0.6-3.2-0.9c-4.6-1.3-11.1-3-18.4-4.7c-14.5-3.4-32.5-6.8-45.1-6.7c-3.1,0-5.9,0.2-8.1,0.6c-1,0.2-1.9,0.4-2.7,0.7
		C4980.4,1217.8,4980,1220.4,4979.5,1223.8z"/><path d="M4966.4,1241c-3,22.1-7.4,55.6-11.9,96.2c-0.6,5.8-1.3,11.7-1.9,17.8c-9.1,85.4-18.2,197.1-18.2,301.3
		c0,33.7,1,66.7,3.2,97.8c0,0.1,0,0.2,0,0.4c0.2,2.3,1.8,4.2,4,4.8c2.2,0.5,4.6-0.4,5.8-2.4c0.2-0.4,0.5-0.8,0.7-1.2
		c62.2-101.9,102.8-217.4,102.9-217.6c0.5-1.5,0.4-3.1-0.4-4.5l-42.9-73.3l42.3-47.3c0.8-0.8,1.2-1.9,1.3-3l16.6-173.3l1-10.7
		l0.2-2.2c0.2-2.5-1.3-4.9-3.8-5.6c-0.1,0-11.5-3.5-26.4-7c-14.9-3.5-33.2-7-47.5-7c-3.6,0-6.9,0.2-10,0.8c-3.1,0.6-5.9,1.5-8.5,3.1
		c-0.9,0.6-1.6,1.4-2,2.4c-0.2,0.4-0.3,0.8-0.4,1.3C4970.5,1211.6,4968.9,1222.3,4966.4,1241z M4980.6,1216c0.8-0.3,1.7-0.5,2.7-0.7
		c2.2-0.4,5-0.6,8.1-0.6c12.6,0,30.5,3.3,45.1,6.7c7.3,1.7,13.7,3.4,18.4,4.7c1.2,0.3,2.3,0.6,3.2,0.9l-17.2,180.1l-43.7,48.9
		c-1.5,1.7-1.8,4.2-0.6,6.2l43.6,74.5c-5.7,15.7-41.1,111-93.1,199.8c-1.5-25.8-2.1-52.7-2.1-80.2c0-103.1,9-213.9,18-298.9
		c4.5-42.5,9-78.6,12.4-104c1.7-12.7,3.1-22.8,4.1-29.6C4980,1220.4,4980.4,1217.8,4980.6,1216z"/><path fill="#fff" d="M4743.6,1420.7l43.9,49.1c1.8,2,1.8,5.1,0,7.1l-53.1,58.5c0.1,1,0.1,2.3,0.3,4c0.3,4.1,0.8,10,1.6,17.4
		c1.6,14.8,4.4,35.7,9.1,59.7c8.5,43.3,23.3,96.7,48.5,143.4c4.8-75.5,6.4-161.9,6.4-242.9c0-135.4-4.4-255.5-5.5-283.4
		c0-1-0.1-1.9-0.1-2.7c-0.3-0.1-0.6-0.1-0.9-0.2c-1.6-0.3-3.6-0.5-6-0.5c-6,0-13.9,1.1-22.4,2.8c-8.5,1.7-17.5,4-25.9,6.4
		c-13.1,3.7-24.8,7.6-30.8,9.7L4743.6,1420.7z"/><path d="M4700.3,1261.2l33.1,163.1c0.2,0.9,0.6,1.8,1.2,2.5l41.7,46.6l-51.3,56.6c-0.9,1-1.4,2.4-1.4,3.8c0,0.2,1.7,36.1,11.3,84.9
		c9.5,48.3,26.6,109.3,57.8,160.7c0.3,0.4,0.5,0.9,0.8,1.3c1.2,2,3.5,2.9,5.8,2.4c2.2-0.5,3.9-2.5,4-4.8c0-0.1,0-0.1,0-0.2
		c5.8-79.8,7.6-173.6,7.6-261c0-58.3-0.8-113.7-1.8-160.2c-0.1-4.2-0.2-8.2-0.3-12.3c-1.6-68.2-3.5-114.3-3.7-117.2
		c0-0.1,0-0.2,0-0.2c-0.1-1.7-1-3.3-2.5-4.3c-2.1-1.3-4.4-2.1-6.9-2.6c-0.3-0.1-0.6-0.1-0.9-0.1c-2.2-0.4-4.5-0.5-7-0.5
		c-7.6,0-16.7,1.4-26.2,3.3c-28.5,5.9-60.7,17.6-60.8,17.7c-2.5,0.9-3.9,3.5-3.4,6.1l0.8,3.9L4700.3,1261.2z M4708.7,1249.1
		c6-2.1,17.7-6,30.8-9.7c8.4-2.4,17.5-4.7,25.9-6.4c8.5-1.7,16.4-2.8,22.4-2.8c2.3,0,4.4,0.2,6,0.5c0.3,0.1,0.6,0.1,0.9,0.2
		c0,0.8,0.1,1.7,0.1,2.7c1.1,27.9,5.5,148,5.5,283.4c0,81-1.6,167.5-6.4,242.9c-25.2-46.7-40-100.1-48.5-143.4
		c-4.7-24-7.5-44.9-9.1-59.7c-0.8-7.4-1.3-13.3-1.6-17.4c-0.1-1.7-0.2-3-0.3-4l53.1-58.5c1.8-2,1.8-5.1,0-7.1l-43.9-49.1
		L4708.7,1249.1z"/></svg>