<svg xmlns="http://www.w3.org/2000/svg" xmlns:xlink="http://www.w3.org/1999/xlink" data-name="Layer 1" viewBox="0 0 1208.04 1170"><defs><linearGradient id="a" x1="924.28" x2="836.45" y1="659.65" y2="275.72" gradientTransform="matrix(-1 0 0 1 1373.66 0)" gradientUnits="userSpaceOnUse"><stop offset="0" stop-color="#ff7269"/><stop offset="1" stop-color="#f0191f"/></linearGradient><linearGradient id="b" x1="957.24" x2="957.24" y1="310.16" y2="310.16" gradientTransform="matrix(-1 0 0 1 1373.66 0)" gradientUnits="userSpaceOnUse"><stop offset="0" stop-color="#feebef"/><stop offset=".36" stop-color="#fde8ed"/><stop offset=".65" stop-color="#fbdee6"/><stop offset=".91" stop-color="#f7cddb"/><stop offset="1" stop-color="#f5c5d5"/></linearGradient><linearGradient id="c" x1="680.94" x2="607.23" y1="648.75" y2="326.51" gradientTransform="matrix(-.97 -.25 -.25 .97 1445.22 175.65)" xlink:href="#a"/></defs><path fill="#b49ccb" d="M1143.9,439.09c-45,210.2-266.38,361.35-564.8,342S46.29,629.69,59.8,421.45c6.27-96.67,70-211.31,164.82-297.16,147.14-133.2,369-141.71,527-21.7,177.76,135,359.4,329.68,98.4,439.7,114.81,4.14,221.65-83.84,190.21-203.3-13.67-52-47.83-97.78-83-137.37A720.87,720.87,0,0,0,817.11,79.73C1028.19,167.35,1178.22,278.82,1143.9,439.09Z"/><path fill="#b49ccb" d="M1143.9,439.09c-34.41,160.68-171.86,286.85-368,328.74-60.46,12.91-126.5,17.81-196.8,13.25Q546.28,779,514.55,775C247.62,742,47.28,614.4,59.8,421.45c6.26-96.67,70-211.31,164.82-297.16,147.14-133.2,369-141.71,527-21.7,177.76,135,359.4,329.68,98.4,439.7,114.81,4.13,221.65-83.85,190.22-203.31-13.68-52-47.84-97.77-83-137.36A720.24,720.24,0,0,0,817.11,79.73C1028.2,167.34,1178.22,278.82,1143.9,439.09Z"/><polygon fill="#9774b4" points="446.07 332.92 446.07 332.92 446.07 332.92 446.07 332.92"/><path fill="#9774b4" d="M843.64,544.22s-3.11.2-8.66.75c.67-14.63,1.4-27.4,2.11-34.75,2.29-23.48,2.2-40.08-2.42-47.72-6.92-11.43-31-52.9-45-84.76-9.82-22.32-25.5-38.58-41.47-41-11-6-38.59-21.09-57.54-31.3,2.61-9.14,4.75-17.76,6.53-25.06l.78-3.18c.14-.54.25-1.08.38-1.61A17.3,17.3,0,0,0,703.2,273c8.1-6.3,5.58-14.17,4.95-22.36,6.21-10.31,6.29-22.79-1.68-33.25-1.56-2-4.05-5.76-4.86-5.58.31-2.66,1.32-6,1.06-8.33-.77-6.94-4.19-12.74-9.19-17.56a35.5,35.5,0,0,0-4.21-3.46c-10.26-17.29-32-26.31-50.6-13.4-10.72-6.41-25.77-2.77-36.66,2.2-4,1.84-6.76,3.16-8.67,4.15l-1.9.48c-2,.53-4.32.64-6.38,1.17-6.7,1.72-15.56,6.16-19.94,11.67-15,19,2.62,35.1,21.21,34.64.25,2.84.59,5.79,1,8.71h0a2.75,2.75,0,0,0-1.26,3.66c-8.71,1.59-13.74,8.54-14,9l-.08.27v.16c-.41,7,1.7,16.54,7.31,21.87a14.93,14.93,0,0,0,11.59,4.1c.32,0,.65,0,1-.08.62-.07,1.22-.18,1.8-.3.1.9.22,1.82.32,2.74,0,0,0,.67,0,1.9a87.78,87.78,0,0,0,5.69,30.75,28.81,28.81,0,0,0,2.17,4.34c.18,2.68.47,5.29.86,7.85-12.94,1.08-27.41,10.48-37.91,23.94-19.45,19.54-60.15,59.94-80.36,76.3l-33.68-72.43-.13-.28c-1.45-2.94-8.56-2.59-17.84.35-3.7-7.35-5.84-13.5-5.63-17.74a13.92,13.92,0,0,0-.36-4.4l-.51-33.27a14.48,14.48,0,0,0-2.53-7.13c-1.05-1.5-2.39-3.4-3.91-5.48l-.9-7.53a6.52,6.52,0,0,0-2.72-4.55c-5.42-3.79-18.51-12.8-22.77-14.4-5.43-2-10.11,2.8-5.61,7.12.64.63,1.33,1.26,2,1.91a31.4,31.4,0,0,0-6.45-.77v.25a8,8,0,0,0-1,0c-4.46.12-8.33,3.7-10.88,10.05-2.22,5.51-3.32,12.73-3.09,20.3a62.11,62.11,0,0,0,.63,7.29c2,13.69,8,22.38,15.14,22.18a21.31,21.31,0,0,0,3.76-.38,371.56,371.56,0,0,0,6.28,98.87c6.56,31.86,17.41,59.8,32.22,83.06,18.58,29.22,43.49,51,74,64.92Q521,575.74,539.26,576c-8.44,39.65-17.58,123.65-24.71,199.07q31.69,3.91,64.56,6.05c70.3,4.56,136.34-.34,196.8-13.25-1-12.75-2-25.81-3.06-38.9l2.08-.78c3.79,2,12.58,5.8,14.24.61,0,0,9.21.7,13.88-5.5,0,0,3-4.09,5.42-7.56l43.06-16S854.91,587,843.64,544.22ZM394.3,327.13c.36,1.17.73,2.33,1.12,3.5a134.18,134.18,0,0,0,4.76,13.72c1.5,3.69,2.75,6.31,3.24,7.32l.15.3.08.16a63.25,63.25,0,0,1,2.92,6.76c-6.11,4.16-10.43,8.3-11.89,11.45A368.11,368.11,0,0,1,394.3,327.13Zm146,241.93c-11.52,0-23.9-2.93-37.06-8.91C436.89,530,411,465.78,400.94,417.22a342.62,342.62,0,0,1-5.92-42.3c3.4,7.08,20.45,42.68,36.34,78.41,1.19,2.66,2.35,5.33,3.52,8l0,0q1.74,4,3.44,7.92c20.73,47.9,59.56,37.28,76.74,26.62a310.94,310.94,0,0,0,28.15-20.32C541.43,518.52,540.54,559.23,540.34,569.06Zm67.28-250.79c0-.53-.1-1.06-.13-1.61a21,21,0,0,0,4.07,2.31A24.61,24.61,0,0,0,607.62,318.27Zm75.53-16.84-.44-.24c-.58-5.1-.94-10.41-1.18-15.48s-.36-9.84-.39-13.9a17.83,17.83,0,0,0,11.09,4.7l-.61,2.53c-1.7,6.9-3.69,15-6.13,23.65Zm81.64,232.34h0l-3.24.71h-.09l-3.32.74h0l-.4.1c0-1.07,0-2.13,0-3.2,0-.28,0-.55,0-.82,0-1.91.09-3.81.14-5.71l0-1c.05-1.56.11-3.11.17-4.67,0-.48,0-.95,0-1.43.07-1.71.14-3.4.23-5.11,0-.16,0-.31,0-.47.1-1.88.2-3.74.31-5.61,0-.42.05-.85.07-1.26.09-1.48.18-2.94.28-4.41,0-.47.05-.93.09-1.4.17-2.57.36-5.14.56-7.69,4.25,7.35,6.5,10.81,6.5,10.81l.14,30.1Z"/><path fill="#390559" d="M825.19,1127c0,13.7-102.77,24.81-229.55,24.81S366.1,1140.74,366.1,1127s102.77-24.8,229.54-24.8S825.19,1113.34,825.19,1127Z" opacity=".2"/><path fill="#ece5ff" d="M472.2,900.12s90.54-92.38,284-19.84L703.38,697l-101.22-31.3L530.39,706.2Z"/><path fill="#ece5ff" d="M420.85,323c2.14,4.31-8.68,14-24.18,21.73s-29.78,10.43-31.92,6.12,8.69-14,24.18-21.72S418.72,318.73,420.85,323Z"/><path fill="url(#a)" d="M590.55,315.9C605.1,351.06,515.31,477.46,467,474.77s-34.41-75.65-10.72-78.37c7.31-.84,71.31-65.72,88.06-80.94C562.89,298.56,585.15,302.84,590.55,315.9Z"/><path fill="#a22e2e" d="M547.54,410.61S529.81,421.88,497.7,444,438,456.29,438,456.29c5.33,10.2,14.6,17.68,28.95,18.48,22.7,1.26,54.53-25.92,80.41-58.76C547.46,412.53,547.54,410.61,547.54,410.61Z"/><path fill="#fdb997" d="M473.72,427.62c-14.6-25.56-77.42-99.86-76.34-122S368.7,320.28,374,329.37s35.18,104.14,57.46,133.86S492.1,459.81,473.72,427.62Z"/><path fill="#f3825f" d="M373.63,328.54S364.73,308,362,294.09s7.91-18.7,8.48-18.7,13.72-2.88,13.72-2.88,5.56,7.08,5,10.32-.38,11.9.57,12.53,1.55,3.38,3.09,5.16,1,2.93,0,8a22.17,22.17,0,0,1-2.71,7.73C389.52,317.38,373.63,328.54,373.63,328.54Z"/><path fill="#f3825f" d="M433.64,465.88h0c9.2,4.74,23.7,4.55,17.79-27.47-5.11-27.69-38.25-94.85-47.13-112.52,16.56,31.29,57.93,81.61,69.42,101.73C491.52,458.79,456.12,490.83,433.64,465.88Z"/><path fill="#fff" d="M550.62,373.69l-29,72.53s-19,16.27-36.17,26.92-56,21.28-76.73-26.63c-18.92-43.73-43.1-93.88-43.93-95.58,2.22,4.23,16.47,1.5,31.91-6.18S423,327.33,420.85,323l33.81,72.71c27.11-21.94,91.19-87.23,91.19-87.23Z"/><path fill="#ece5ff" d="M521.6,446.22l21.1-52.71c-2.57-16.35-4.87-22.87-4.87-22.87L522.51,355s-1.08,50.6-22.37,79.23-62.74,48.67-95.84,0c-.9-1.32-1.76-2.52-2.6-3.63,2.38,5.34,4.73,10.69,7,15.94,20.73,47.91,59.56,37.28,76.73,26.63S521.6,446.22,521.6,446.22Z"/><polygon fill="url(#b)" points="416.42 310.15 416.42 310.16 416.42 310.15 416.42 310.15"/><path fill="#ffd057" d="M536.05,1012.18s3.23,42.2-5.49,62.87-15.55,26.56,8.82,29,44.73-20.54,45.72-26.65-6.28-33.16-6.14-39.5-.26-26.14-.26-26.14S536.78,1001.35,536.05,1012.18Z"/><path fill="#6d3792" d="M591.45,1113.18c-.54,3.06-1.54,5.63-3.24,7.31-8.81,8.78-32.51,10.16-76,10.86s-56,1.74-64.74-5.92c-.37-.32-.71-.65-1-1l-.7-.83a3,3,0,0,1-.35-.47c-.22-.29-.41-.58-.6-.88a12,12,0,0,1-1.13-2.41,10,10,0,0,1-.36-1.33c-.06-.29-.1-.59-.14-.88s-.05-.31-.06-.46c0-.36-.05-.72-.06-1.08v-.25c.07-7.14,6.23-15.14,19.65-19.43,20.19-6.46,42.24-10.89,56.64-19.67,10.12-6.18.91-9.35,5.25-14.67s12.95,7.5,19.25,18.91,42-12.37,42.8-7.08C587.33,1078.19,593.67,1100.25,591.45,1113.18Z"/><path fill="#390559" d="M591.45,1113.18c-.54,3.06-1.54,5.63-3.24,7.31-8.81,8.78-32.51,10.16-76,10.86s-56,1.74-64.74-5.92c-.37-.32-.71-.65-1-1l-.7-.83a3,3,0,0,1-.35-.47c-.22-.29-.41-.58-.6-.88a12,12,0,0,1-1.13-2.41,13.3,13.3,0,0,1,1.22-10.69,12.55,12.55,0,0,0,3.84,6.27c8.44,7.6,26.47,8.62,69.36,7.18C552.19,1121.49,577.9,1118.67,591.45,1113.18Z"/><path fill="#374592" d="M501.28,626c-7.21,17.47,20.92,396.72,20.92,396.72,1.61,23.31,71.73,32.78,72.63,3.06,0,0,5.65-137.42,5.7-154.73s16.81-162.74,18.77-193.51C623.43,613.07,534.76,544.9,501.28,626Z"/><path fill="#ffd057" d="M723.89,1071.94c-1.81-8-2.92-18.59-3.59-28.8l-1-33.4a3.19,3.19,0,0,0,0-.82L715.36,885.3l-65-13.58,16.11,128.4s6.52,61.15,6.42,67.32,7.28,29.44,28.53,39.88S728.78,1093.39,723.89,1071.94Z"/><path fill="#374592" d="M730.39,647.36c-1.35,29.57-3.68,188.53-2.37,205.1.16,2-2.79,169.79-2.53,174.67-43.77,15.62-67.91,8.33-68.76,8.11-.24-1.62-18.44-142.19-18.68-143.83-15.75-107.82-29.11-228.34-25.24-238.22C643.54,574.72,733.23,585.37,730.39,647.36Z"/><path fill="#6d3792" d="M735.2,1069.82s1.58,11.72,2.89,17.26c3.45,14.54,18,15,20,25.13,2.31,11.76-1.4,15.87-1.4,15.87s-20.76,9.59-56.75,4.56c-20.94-2.93-11.39-14.13-27-22.55-13.38-7.2.8-26.77-1.29-44.3a3.29,3.29,0,0,1,5.15-3.14L690,1072s.88-4.15,9-9.41C713.37,1053.31,730.22,1062.26,735.2,1069.82Z"/><path fill="#390559" d="M670.35,1100.69c16,7.89,6.06,15.27,27.51,18,36.88,4.63,58.2-4.49,58.2-4.49s1.19-.27,1.87-2.35c0,.15.13.25.16.4,2.3,11.76-1.41,15.87-1.41,15.87s-20.76,9.59-56.75,4.56c-20.94-2.93-11.39-14.13-27-22.55-4.78-2.58-6-6.74-5.76-11.81A11,11,0,0,0,670.35,1100.69Z"/><path fill="#6d3792" d="M738.53,331.33c16,29.17-9.33,77.94-11.23,142.79s2,160.3,4.65,173.1c0,0-71.81,6.72-110,6.29-32.31-.35-78.33-20.46-121.83-18.89,0-25.46,5.3-36.82,14.06-116.38,10.07-91.33-11.17-191.51,41.35-214.83C573.23,295.56,716.92,291.91,738.53,331.33Z"/><path fill="#fe951b" d="M616.48,356.91s-26.16,103.63-37.23,187.23l28,67,42.68-64.71s-25.44-133.72-20.73-189.52Z"/><path fill="#db8017" d="M616.48,356.91l7.87,4.56L632.64,532,607.2,611.14l42.9-63.62s-28.89-161-21-190.61Z"/><path fill="#fe951b" d="M610,334.18l-2.53,11a9.6,9.6,0,0,0,9,11.76l9.81.35a9.62,9.62,0,0,0,9.84-11l-2.1-14-12.92-8.74-11.89,3.2Z"/><path fill="#a22e2e" d="M693.32,405.61s13.82,49.31,7.33,122.31c-4.61,51.85-17,102.73-55.91,125.23,38.51-1.37,87.21-5.93,87.21-5.93-2.67-12.8-6.56-108.25-4.65-173.1.06-2.19.16-4.37.27-6.53,0-.72.09-1.43.14-2.15.08-1.42.18-2.85.28-4.26l.21-2.53c.11-1.26.22-2.52.34-3.78l.27-2.64c.13-1.19.26-2.37.4-3.55.1-.9.21-1.79.32-2.67.14-1.15.29-2.28.44-3.41.12-.89.24-1.79.37-2.67.15-1.09.31-2.18.48-3.26.13-.89.26-1.79.4-2.68s.28-1.69.41-2.53c.39-2.36.78-4.7,1.19-7,.08-.44.16-.88.23-1.31.27-1.46.53-2.9.8-4.34.06-.31.11-.61.17-.92,2.67-14.19,5.54-27.23,7.48-39Z"/><path fill="#2a3570" d="M653.34,660.21c-79,0-150.38-18.89-154.61-20l1.12-21c1.35.36,139,35.21,232.24,11.62L732,651.84C706.66,658.24,680.66,660.21,653.34,660.21Z"/><path fill="#fdb997" d="M651.56,237.16s-1.38,47.48,6.58,63.27c0,0-2.38,13.87-15.73,20.56-16.78,8.41-50.55-1.89-51.81-18.77-.86-11.63,14.36-15.39,10-31.18C593.25,244,651.56,237.16,651.56,237.16Z"/><path fill="#f3825f" d="M600.65,271c-6.65-24.34,39.74-32.29,49.23-33.65-2.41,5.61-4.68,10.87-4.86,11-4,20.66,3.07,50.39-22.82,60.82-8.79,3.55-23,1.44-28.47.91C582.53,294.81,604.61,285.52,600.65,271Z"/><path fill="#2a3570" d="M621.16,763.11l48.25,255.1c16.49,12.31,56.08,8.92,56.08,8.92-43.77,15.62-67.91,8.33-68.76,8.11-.24-1.62-18.44-142.19-18.68-143.83C631.71,848,625.76,802.57,621.16,763.11Z"/><path fill="#2a3570" d="M522.2,1022.75s-16.4-229-20.92-344.91l33.31,335.72c14.57,21.7,50.64,26.66,50.64,26.66h0C565.78,1050.55,523.45,1040.8,522.2,1022.75Z"/><path fill="#fe951b" d="M613.73,662c-.23,0-.47,0-.7,0l-16.85-1.4a8.59,8.59,0,0,1-7.83-9.68l1.32-10.3a8.63,8.63,0,0,1,9.63-7.45l16.53,2.1a8.65,8.65,0,0,1,7.48,9.44l-1,9.6A8.67,8.67,0,0,1,613.73,662Zm-20-20.88-1.32,10.3a4.47,4.47,0,0,0,4.07,5l16.85,1.39a4.49,4.49,0,0,0,4.82-4l1-9.6a4.51,4.51,0,0,0-3.89-4.91l-16.53-2.09a4.49,4.49,0,0,0-5,3.87Z"/><path fill="#390559" d="M653.05,278.43s17.06,8.89,20.78,17.76-12.6,39.52-34.64,51l-18.08-23.63S652.32,316.78,653.05,278.43Z"/><path fill="#390559" d="M621.11,323.53,604,347.16s-27.8-11.42-27.46-47.41L589.75,291S597.38,316.73,621.11,323.53Z"/><polygon fill="#1b2036" points="570.8 217.06 543.65 224.58 543.67 222.47 573.8 211.18 570.8 217.06"/><path fill="#fdb997" d="M556.26,194.61c.52,9.85,2.19,22.59,4.71,31.37s2.91,38.15,8.76,47.46,14.45,22.21,41.56,11.28,36.64-26.72,40.29-48.93,1.32-44.88-2.26-50.24-16.05-29-46.79-23.92C574,166.3,555.39,178.06,556.26,194.61Z"/><path fill="#390559" d="M641.4,224.58l-5.38,11a23.71,23.71,0,0,1-16.41,12.78c-17.35,3.66-49,9.17-55.37,2.29a87.12,87.12,0,0,0,5.66,32.65c6.49,16.46,24.62,18.9,41.51,9.16s32.13-14.35,38.47-48.52Z"/><path fill="#390559" d="M535.47,165.93c4.37-5.51,13.24-10,19.94-11.67,2.06-.54,4.42-.64,6.38-1.17l1.9-.48c1.91-1,4.67-2.32,8.67-4.15,10.89-5,25.94-8.61,36.66-2.19,18.58-12.92,40.34-3.9,50.6,13.39a35.32,35.32,0,0,1,4.21,3.46c5,4.83,8.41,10.62,9.18,17.56.27,2.38-.74,5.66-1,8.32.81-.17,3.29,3.54,4.86,5.59,8,10.46,7.89,22.95,1.68,33.25.63,8.18,3.16,16.06-5,22.35-7.84,6.1-18.29,4.06-24.25-3.49-8.92-11.33-7.11-29.25-9.44-42.68-.39-2.24-2.16-10.33-3.78-18.4-5.57,3-11.38,5.42-17.83,5.36-10.32-.11-8.47-1.48-18.38,3.1C589.2,199,580.5,201.15,572,195.9,550.63,209.92,516.27,190.24,535.47,165.93Z"/><path fill="#f3825f" d="M581.18,228.57s-2.52,9.28-6.25,15.25a8.94,8.94,0,0,0,9.18,1.69Z"/><path fill="#390559" d="M612.92,211.05a2.8,2.8,0,0,0,.73-5.3c-.32-.14-7.95-3.56-19,.17a2.8,2.8,0,1,0,1.79,5.3c8.81-3,14.62-.48,14.87-.37A2.75,2.75,0,0,0,612.92,211.05Z"/><path fill="#390559" d="M571,214a2.8,2.8,0,0,0,1.1-5.08c-.25-.16-6.11-3.87-14.44.34a2.8,2.8,0,1,0,2.53,5c5.33-2.71,8.74-.71,8.88-.63A2.89,2.89,0,0,0,571,214Z"/><path fill="#390559" d="M577.84,257.52c1.94,4.05,3.5,11.55,3.5,11.55.91,0,1.81,0,2.71-.05,12.26-.28,17.91-3.56,20.46-7.11a10.32,10.32,0,0,0,1.89-5.65A9.26,9.26,0,0,0,606,253c-6.47,3.17-17.89,4.12-24,4.43C579.45,257.53,577.84,257.52,577.84,257.52Z"/><path fill="#fff" d="M579.62,257.57l3.19,5.23c11.54-.29,20-3.74,23.59-6.54A9.26,9.26,0,0,0,606,253C599.55,256.12,585.74,257.26,579.62,257.57Z"/><path fill="#f3825f" d="M584.05,269c12.26-.28,17.91-3.56,20.46-7.11a49.43,49.43,0,0,0-13.58,2.42A14.65,14.65,0,0,0,584.05,269Z"/><path fill="#5b2a26" d="M608.58,225.2a9.74,9.74,0,0,0-6.08-.84,10.57,10.57,0,0,0-2.15.58,5.45,5.45,0,0,1-1.32-3.08,5.58,5.58,0,0,1,11.12-.94A5.47,5.47,0,0,1,608.58,225.2Z"/><path fill="#5b2a26" d="M571.22,226.9a9.68,9.68,0,0,0-6.08-.84,10.39,10.39,0,0,0-2.15.57,5.42,5.42,0,0,1-1.32-3.08,5.58,5.58,0,0,1,11.12-.93A5.5,5.5,0,0,1,571.22,226.9Z"/><path fill="#fdb997" d="M641.76,212.92c1.28-3,10.82-11,14.46-3.15,3.35,7.24,4.89,18.7-3.82,27.56S639,219.42,641.76,212.92Z"/><path fill="#1b2036" d="M573.53,220.7a1.7,1.7,0,0,0,.64-.17,13.21,13.21,0,0,1,10.18-.68,1.74,1.74,0,0,0,2.26-.9,1.7,1.7,0,0,0-.86-2.25,16.6,16.6,0,0,0-13,.75,1.72,1.72,0,0,0-.84,2.28A1.68,1.68,0,0,0,573.53,220.7Z"/><path fill="#1b2036" d="M590.33,241.8a16,16,0,0,0,12.26,3.94l.56,0c5.9-.51,10.52-3,13.68-7.41,4.6-6.39,5-15.72,3.42-22.25l-.13-.26-.13-.11a26.16,26.16,0,0,0-17.75-5.81,22.44,22.44,0,0,0-2.84.35c-11.83,2.11-16.41,5.64-16.32,12.56C583.15,228.59,585.1,237,590.33,241.8Zm-5.17-19.05c-.09-5.74,3.88-8.58,14.61-10.5a23.87,23.87,0,0,1,2.57-.3,24.38,24.38,0,0,1,16,5.06c1.38,5.9.91,14.36-3.19,20.09A16,16,0,0,1,603,243.64l-.51,0a14,14,0,0,1-10.72-3.41C585.45,234.57,585.16,223.93,585.16,222.75Z"/><path fill="#fff" d="M591.74,240.26a14,14,0,0,0,10.72,3.41l.51,0a16,16,0,0,0,12.19-6.54c4.1-5.73,4.57-14.19,3.19-20.09a24.38,24.38,0,0,0-16-5.06,23.87,23.87,0,0,0-2.57.3c-10.73,1.92-14.7,4.76-14.61,10.5C585.16,223.93,585.45,234.57,591.74,240.26Z" opacity=".5"/><path fill="#1b2036" d="M549.57,244.2a14.9,14.9,0,0,0,11.59,4.11c.31,0,.65,0,1-.09a14.4,14.4,0,0,0,10.2-5.52c5.67-7.35,4.08-19.36,3.88-20.73-1-6.82-5.65-9.46-16.45-9.35-.36,0-.72,0-1.06,0-10.11.62-16,8.79-16.33,9.24l-.08.28,0,.17C541.85,229.37,544,238.88,549.57,244.2Zm-5.25-21.45c.94-1.24,6.12-7.52,14.47-8,.32,0,.63,0,1,0,9.76-.07,13.54,1.92,14.37,7.61.2,1.27,1.67,12.49-3.46,19.16a12.22,12.22,0,0,1-8.75,4.7c-.29,0-.57.06-.84.08A13,13,0,0,1,551,242.68C546,237.89,544,229.26,544.32,222.75Z"/><path fill="#fff" d="M558.79,214.71c.32,0,.63,0,1,0,9.76-.07,13.54,1.92,14.37,7.61.2,1.27,1.67,12.49-3.46,19.16a12.22,12.22,0,0,1-8.75,4.7c-.29,0-.57.06-.84.08A13,13,0,0,1,551,242.68c-5-4.79-7-13.42-6.68-19.93C545.26,221.51,550.44,215.23,558.79,214.71Z" opacity=".5"/><polygon fill="#1b2036" points="643.62 210.8 618.92 217.64 618.94 215.72 646.36 205.45 643.62 210.8"/><path fill="#fff" d="M581.92,296.21s-14.17,46.28-5.36,112.08-.94,225.76-17.83,347.15-8.11,173.7-8.11,173.7-59.87,0-78.42-29c0,0,21-276.73,38.45-351.57,0,0,3.32-180.37,12.86-208.16S561.66,290.81,581.92,296.21Z"/><path fill="#fff" d="M653.05,278.43s13.49,26.93,5.83,65.86-1.53,170.34-1.74,232.49-19.82,195.84,9.93,347c0,0,67.46-3.06,89.08-43.52,0,0-15.15-221.28-25.7-313.81S746.65,355,746.65,355l-23.31-38.35S675.51,290.44,653.05,278.43Z"/><path fill="#ece5ff" d="M739.59,662.4a.2.2,0,0,0,0-.07c-.7-8.31-1.41-16.49-2.12-24.46v-.2q-.42-4.59-.82-9.08c0-.21,0-.41,0-.62-.27-2.92-.53-5.8-.79-8.66,0-.17,0-.35,0-.53l-.39-4.2c0-.14,0-.27,0-.4-.12-1.3-.24-2.6-.37-3.88,0-.16,0-.31,0-.46-.13-1.32-.25-2.64-.37-3.94,0-.25,0-.51-.08-.77-.12-1.22-.23-2.43-.35-3.63l0-.32c-.12-1.27-.25-2.54-.37-3.8,0-.24-.05-.49-.07-.73-.13-1.27-.25-2.52-.38-3.76a.49.49,0,0,0,0-.12c-.12-1.19-.23-2.36-.35-3.53,0-.25,0-.5-.08-.76-.12-1.19-.24-2.37-.36-3.53,0-.15,0-.29-.05-.43-.11-1.08-.22-2.14-.33-3.19l-.06-.58c-.12-1.12-.23-2.22-.35-3.32,0-.23,0-.47-.07-.7-.11-1-.21-1.92-.32-2.86,0-.17,0-.34,0-.51-.11-1-.23-2.07-.34-3.09,0-.25-.06-.49-.08-.74-.12-1-.23-2.06-.35-3.06-.18-1.63-.35-3.27-.52-4.92,0-.4-.08-.79-.11-1.19-.16-1.65-.31-3.31-.45-5v0c-.14-1.69-.26-3.38-.38-5.08l-.06-1c-.23-3.47-.41-7-.56-10.48l0-.73q-.2-5.43-.29-10.91v-.41q0-2.79-.06-5.58h0c-.24-66.08,12.07-133.76,16.82-157.4H688s-7.6,95.63,19.88,155.76c.88,1.91,1.71,3.82,2.52,5.71a407.47,407.47,0,0,0-53.58,17.25c.21,12.75.34,24.41.3,34.3-.07,22.48-2.68,54.31-4.58,92.94,5.46,21.23,10,44,11.7,66v0c0,.07,0,.13,0,.2,0,.26.05.52.07.79l.06,0c.77,4.19,3.28,5,5.63,4l61-22.63c10.92,32.42,10.9,136.35-.58,153.29-13.77,20.33-26,40.94-63.38,52.4,0,0,67.46-3.06,89.08-43.52C756.15,880.28,748.06,762.13,739.59,662.4Z"/><path fill="#d9b04a" d="M628.62,567.24S666.31,652,672,726.39l3.72,2.83,131-49.3s3.38-112.68-7.88-155.5C798.78,524.42,708.63,530.05,628.62,567.24Z"/><path fill="#d7d0e8" d="M634.54,546.25s40,141.92,39.3,181.25l1.62,2.36,6.44-3.07L813.42,673,792,502.31S704.12,508.5,634.54,546.25Z"/><path fill="#ece5ff" d="M650.1,547.52s31.48,103,29.79,170.58l124.52-53.53s3.1-121.27-2.82-154.24C801.59,510.33,743.7,515.83,650.1,547.52Z"/><path fill="#ffd057" d="M814,521.46s-90.15,5.64-170.16,42.82c0,0,27.3,89,33.53,162.72h0c-2.8,2.94-5.51-1.59-5.51-1.59.53,5.09,3.25,6.07,5.79,5.08L821.87,677S825.26,564.28,814,521.46Z"/><path fill="#723508" d="M771.32,644.27c.34-4.93,1.25-11.57,2.54-19.43A96.25,96.25,0,0,0,794,621.47s2-74.38,4.27-110.76c-1.32.16-3,.39-5.12.68L792,502.31s-27.33,1.93-63.58,10.18l.48,103.83a63.21,63.21,0,0,0,9.41,3.88c-.34,14.55-2,25.85-6,30.95-16.28,20.7-6.79,29.82-16.92,38.66s-1.54,13.85,4,11.05,11.51-11,12-14c0,0,1.17,13.64,2.78,22.66l39.57-14.68C774,683,770.61,654.62,771.32,644.27Z" opacity=".2"/><path fill="#f3825f" d="M761.73,480.83S772,451.6,772.31,442.4c-13.6,1.61-27.14,10.9-31,26.71-5.67,23.37,8.52,111,4.52,152.53Z"/><path fill="url(#c)" d="M697.58,322.24C671.66,350.31,713,461.69,759.44,476s59.34-29.15,38-39.93c-6.6-3.33-43-81.78-53.5-101.93C732.27,311.72,707.2,311.82,697.58,322.24Z"/><path fill="#fdb997" d="M741.34,469.11c-6.87,28.33,15.44,151-.84,171.71s-6.8,29.82-16.92,38.66-1.55,13.85,4,11,11.51-11,12-14c0,0,1.77,20.64,3.95,27.92,0,0,13.84,8.21,16,1.56,0,0,9.21.7,13.88-5.5,0,0,5.87-8,7.83-11.12,2.6-4.1-2.57-43-1.71-55.44,1.92-27.88,22-110.2,25.38-158.93C807.94,430.93,750,433.45,741.34,469.11Z"/><path fill="#fff" d="M698.36,319.1c-6.38,4.57-32.88,22.53,2.67,95.44,22.52,46.19,35.5,66,35.5,66L737.11,606s28,15.46,65.08,5.15c0,0,2.66-97.14,5.25-123.69,2.28-23.47,2.2-40.08-2.42-47.72-6.92-11.42-31-52.9-45-84.76S720,303.57,698.36,319.1Z"/><path fill="#ece5ff" d="M662.81,283.68a81.46,81.46,0,0,1,5.16,9.84q1.15,2.53,2.18,5.13c.72,1.72,1.32,3.47,1.94,5.23a166.47,166.47,0,0,1,5.9,21.54c.66,3.67,1.4,7.33,1.82,11,.24,1.85.52,3.7.72,5.55l.5,5.58.24,2.79.11,2.8.21,5.6c.08,3.73,0,7.47,0,11.2v.51l-.28.59c-1.9,3.92-3.87,7.8-5.82,11.69l-5.86,11.67.25-1.86c1.26,5.78,2.43,11.58,3.62,17.37L677,427.34l.11.54-.09.48-4.18,22.28-4.39,22.25c-1.52,7.4-3,14.81-4.63,22.2s-3.23,14.77-5,22.14q1.27-11.28,2.77-22.52c1-7.5,2.06-15,3.11-22.47l3.36-22.42,3.56-22.39,0,1L668,411.11c-1.23-5.79-2.5-11.57-3.66-17.37l-.2-1,.44-.87,6-11.62c2-3.87,4-7.75,6-11.6l-.29,1.1c.1-3.65.29-7.29.32-10.94l-.06-5.48,0-2.73-.13-2.74-.25-5.47c-.11-1.82-.31-3.64-.46-5.46-.24-3.65-.84-7.25-1.23-10.89A203.17,203.17,0,0,0,670,304.52,130.33,130.33,0,0,0,662.81,283.68Z"/><path fill="#ece5ff" d="M577.84,295.5c-3.17,6-6,12.09-8.72,18.24-1.36,3.07-2.64,6.19-3.9,9.3l-1.87,4.67-1.77,4.72c-2.28,6.3-4.51,12.62-6.38,19.05s-3.6,12.88-5.13,19.38l-.21-1.79c2,3.86,4.08,7.7,6.06,11.58l6,11.61.45.87-.2,1-1.67,8.31-1.74,8.3-3.5,16.59v-1.14l9.47,45.55c1.52,7.61,3.17,15.18,4.74,22.78s3.2,15.18,5.05,22.73c-2.76-7.27-5.11-14.7-7.31-22.16s-4.26-14.95-6.29-22.45-3.9-15-5.73-22.59-3.62-15.11-5.32-22.7l-.12-.55.12-.58,3.35-16.63,1.7-8.3,1.75-8.3.24,1.85L551,383.15c-2-3.88-3.86-7.81-5.79-11.71l-.45-.91.24-.88c1.76-6.59,3.56-13.17,5.87-19.57s4.69-12.77,7.45-19l2.09-4.64,2.18-4.6c1.52-3,3.06-6.05,4.68-9A175.75,175.75,0,0,1,577.84,295.5Z"/><path fill="#240338" d="M614.91,355a16.27,16.27,0,0,1-9.87-3.31c-11.46-8.71-31-32-33-64l5.77,6.24c1.83,29.76,20,45.09,30.67,53.21a10.62,10.62,0,0,0,13.47-.54c22.85-20.39,33.58-64.15,40-90.3l.79-3.18c2.7-11,2.57-18.66-.37-22.9-2.75-4-7.85-4.55-12.35-5.07l-.48-.06.66-5.69.48.06c5.14.59,12.17,1.41,16.4,7.5,4,5.72,4.37,14.73,1.22,27.53l-.78,3.18c-6.57,26.79-17.57,71.63-41.74,93.2A16.32,16.32,0,0,1,614.91,355Z"/><path fill="#1b2036" d="M656.47,222.22a5.62,5.62,0,1,1-5.62-5.62A5.61,5.61,0,0,1,656.47,222.22Z"/><path fill="#fdb997" d="M365.76,307.87s1.72,1.56,4-.67,12.83,8.75,13.48,10.56,2.64,7.64,2.64,7.64l-5.06,3.14-6.83.83A133.75,133.75,0,0,1,365.76,307.87Z"/><path fill="#240338" d="M510.53,553.21c-12.43,0-25.71-3.19-39.75-9.57-30.53-13.86-55.45-35.7-74-64.91-14.81-23.26-25.65-51.21-32.22-83.06-11.14-54.07-6-101.49-6-102l6.83.77c-.06.46-5,46.95,5.92,100,10,48.57,35.95,112.79,102.33,142.93,26.13,11.86,49.18,11.88,68.52.06,61.76-37.77,69.27-183.12,69.34-184.58l6.86.32a502.88,502.88,0,0,1-11.55,79.6c-13.14,56.59-33.68,93.77-61.06,110.51A66.23,66.23,0,0,1,510.53,553.21Z"/><path fill="#ece5ff" d="M605.9,343.51c-1.4.45-3.72,3.58-3.65,7.3a13.8,13.8,0,0,0,6.66,4.65s1.21,5.58,0,9.74a13.9,13.9,0,0,0,9.09.64,35.75,35.75,0,0,0,.79-10.45,14.94,14.94,0,0,0,9.09-5.51s-1.72-4.73-4.73-5.73c0,0-4.72,4.22-9.09,3A34.48,34.48,0,0,1,605.9,343.51Z"/><path fill="#ece5ff" d="M354.48,297.17s15.82.5,26.24-16.8l.64-.1a3,3,0,0,0,2.58-3l-.15-18.39a3,3,0,0,0-2.71-3l-.47,0s-6.58-18.36-26.94-18.68Z"/><path fill="#fff" d="M367.82,259.52a62.09,62.09,0,0,1,.64,7.3c.51,17.05-5.5,30.1-14,30.35-7.17.21-13.11-8.49-15.13-22.17a62.1,62.1,0,0,1-.64-7.29c-.23-7.58.87-14.79,3.1-20.3,2.56-6.35,6.42-9.92,10.88-10.06C359.86,237.14,365.8,245.84,367.82,259.52Z"/><path fill="#f3825f" d="M392.38,274.77l-3.21-26.93a6.5,6.5,0,0,0-2.72-4.55c-5.42-3.79-18.51-12.81-22.77-14.4-5.43-2-10.11,2.79-5.61,7.12a119,119,0,0,0,20.53,15.57s4.6,25.54,5.24,25.48S392.38,274.77,392.38,274.77Z"/><path fill="#fdb997" d="M378,327.56c-5.1-11.89-17.43-41.14-15.89-54.27.85-7.19,5.5-15,11.52-6.46,3.63,5.19,5.22,13.05,6.11,19.18.81,5.57,3.12,11.44,3.51,16.94S378.66,329.14,378,327.56Z"/><path fill="#fdb997" d="M379,330l5.38-60S372.62,252.59,370,248.39s-4.26-12.85,2.23-11.75c5.06.85,16.85,17.1,21.79,24.2a14.43,14.43,0,0,1,2.54,7.14l.65,42.17Z"/><path fill="#fff" d="M298.2,533l22.61,28.6a37.85,37.85,0,0,0,17.34,12.29l34.46,11.88a14.33,14.33,0,0,1,4.23,24.79l-28.6,22.62A37.77,37.77,0,0,0,336,650.55L324.07,685a14.33,14.33,0,0,1-24.79,4.23l-22.62-28.6a37.77,37.77,0,0,0-17.33-12.29l-34.47-11.88a14.33,14.33,0,0,1-4.22-24.79l28.6-22.62a37.77,37.77,0,0,0,12.29-17.33l11.87-34.46A14.34,14.34,0,0,1,298.2,533Z"/><path fill="#ffd057" d="M1029.43,590.34l-4.2-42.15-37.11-20.44a6.24,6.24,0,0,1,.51-11.18l38.78-17,8-41.6a6.24,6.24,0,0,1,10.8-3l28.17,31.63,42-5.28a6.24,6.24,0,0,1,6.16,9.35l-21.37,36.56,18,38.34a6.24,6.24,0,0,1-7,8.76l-41.38-9-30.9,29A6.24,6.24,0,0,1,1029.43,590.34Z"/><path fill="#9774b4" d="M767.05,143.12l-19.47-18.05-25.91,5.82a3.92,3.92,0,0,1-4.41-5.46l11.15-24.1L714.87,78.49a3.92,3.92,0,0,1,3.84-5.88l26.35,3.15L762.6,55.83a3.92,3.92,0,0,1,6.78,1.83l5.15,26L798.9,94.23a3.91,3.91,0,0,1,.36,7l-23.18,13-2.48,26.43A3.91,3.91,0,0,1,767.05,143.12Z"/><path fill="#9774b4" d="M123.83,410.44l4.44-15.79L117.78,382a2.42,2.42,0,0,1,1.76-4l16.39-.66,8.76-13.88A2.42,2.42,0,0,1,149,364l5.69,15.39,15.9,4a2.41,2.41,0,0,1,.9,4.24l-12.87,10.16,1.07,16.37a2.41,2.41,0,0,1-3.75,2.17l-13.65-9.1-15.23,6.08A2.42,2.42,0,0,1,123.83,410.44Z"/><path fill="#ffd057" d="M215.76,60.72l20.32,16.19a26.89,26.89,0,0,0,14,5.72l25.84,2.67a10.21,10.21,0,0,1,6.93,16.53l-16.18,20.31a26.94,26.94,0,0,0-5.73,14L258.28,162a10.21,10.21,0,0,1-16.52,6.94l-20.32-16.19a26.94,26.94,0,0,0-14-5.73l-25.84-2.67a10.21,10.21,0,0,1-6.94-16.52l16.19-20.31a26.94,26.94,0,0,0,5.73-14l2.67-25.84A10.21,10.21,0,0,1,215.76,60.72Z"/><path fill="#fff" d="M848.07,340.08l8.51,6.78a11.35,11.35,0,0,0,5.86,2.4l10.82,1.11a4.28,4.28,0,0,1,2.91,6.92l-6.78,8.51a11.3,11.3,0,0,0-2.4,5.87l-1.12,10.82a4.27,4.27,0,0,1-6.92,2.9l-8.5-6.77a11.25,11.25,0,0,0-5.87-2.4l-10.82-1.12a4.28,4.28,0,0,1-2.91-6.92l6.78-8.51a11.18,11.18,0,0,0,2.4-5.87L841.15,343A4.28,4.28,0,0,1,848.07,340.08Z"/><path fill="#fff" d="M466.76,59.42l8.5,6.78a11.32,11.32,0,0,0,5.87,2.39L492,69.71a4.28,4.28,0,0,1,2.91,6.92l-6.78,8.51a11.22,11.22,0,0,0-2.4,5.87l-1.12,10.82a4.27,4.27,0,0,1-6.92,2.9L469.14,98a11.32,11.32,0,0,0-5.87-2.39l-10.82-1.12a4.28,4.28,0,0,1-2.91-6.92L456.32,79a11.3,11.3,0,0,0,2.4-5.87l1.12-10.82A4.28,4.28,0,0,1,466.76,59.42Z"/><path fill="#ffd057" d="M1068.66,87.57l6.79,5.41a9,9,0,0,0,4.69,1.92l8.65.89a3.42,3.42,0,0,1,2.32,5.53l-5.42,6.8a9,9,0,0,0-1.91,4.69l-.9,8.64a3.41,3.41,0,0,1-5.53,2.32l-6.79-5.41a9,9,0,0,0-4.69-1.92l-8.65-.89a3.42,3.42,0,0,1-2.32-5.53l5.42-6.8a9,9,0,0,0,1.91-4.69l.9-8.64A3.41,3.41,0,0,1,1068.66,87.57Z"/></svg>