<svg xmlns="http://www.w3.org/2000/svg" enable-background="new 0 0 2000 2000" viewBox="0 0 2000 2000"><rect width="2000" height="1291.5" y="124.4" fill="#ffe7ff"/><path fill="#48236a" d="M1920.9,1175.1H924c-18,0-32.6-14.6-32.6-32.6V573.6c0-18,14.6-32.6,32.6-32.6h996.9
														c18,0,32.6,14.6,32.6,32.6v568.9C1953.6,1160.5,1939,1175.1,1920.9,1175.1z"/><path fill="#fff" d="M1869.8,1122.6H975.1c-15.8,0-28.6-12.8-28.6-28.6V607.9c0-15.8,12.8-28.6,28.6-28.6h894.7
														c15.8,0,28.6,12.8,28.6,28.6V1094C1898.4,1109.8,1885.6,1122.6,1869.8,1122.6z"/><circle cx="1079.5" cy="732.2" r="106.6" fill="#f9439a" transform="rotate(-45.001 1079.528 732.228)"/><circle cx="1079.2" cy="697.7" r="28.9" fill="#fff"/><path fill="#fff" d="M1013.5,795.7c0-36.5,29.6-66,66-66c36.5,0,66,29.6,66,66"/><rect width="630.2" height="24.3" x="1241.8" y="676.6" fill="#e1def7"/><rect width="252.4" height="30.6" x="1241.8" y="742.4" fill="#e1def7"/><rect width="252.4" height="30.6" x="1622" y="742.4" fill="#e1def7"/><rect width="876.4" height="39.2" x="998" y="892.9" fill="#e1def7"/><rect width="874" height="7.8" x="998" y="961.9" fill="#e1def7"/><rect width="874" height="7.8" x="998" y="988.5" fill="#e1def7"/><rect width="874" height="7.8" x="998" y="1015.2" fill="#e1def7"/><rect width="874" height="7.8" x="998" y="1041.8" fill="#e1def7"/><rect width="374.7" height="7.8" x="998" y="1068.5" fill="#e1def7"/><rect width="374.7" height="7.8" x="1499.7" y="1068.5" fill="#e1def7"/><path fill="#a580aa" d="M1826.2,995.4h-348.8c-21.1,0-38.3-17.1-38.3-38.3V507.8c0-21.1,17.1-38.3,38.3-38.3h348.8
													c21.1,0,38.3,17.1,38.3,38.3v449.3C1864.5,978.3,1847.3,995.4,1826.2,995.4z"/><path fill="#fff" d="M1804.7,963H1499c-18.5,0-33.5-15-33.5-33.5V535.6c0-18.5,15-33.5,33.5-33.5h305.7
													c18.5,0,33.5,15,33.5,33.5v393.8C1838.2,947.9,1823.2,963,1804.7,963z"/><rect width="189.6" height="5.6" x="1559.8" y="522.9" fill="#4c4c4c"/><polygon fill="#5a5b5b" points="1759.7 632.7 1741.4 572.2 1733.8 598.6 1710.8 577.6 1695.7 599 1677.2 560 1654.9 631.7 1633.9 583.3 1586.7 583.3 1586.7 578.5 1637.1 578.5 1654.2 617.9 1676.3 546.8 1696.5 589.5 1710 570.4 1731.3 589.9 1741.2 555.2 1760 616.9 1768.8 590.8 1812.6 590.8 1812.6 595.6 1772.2 595.6"/><polygon fill="#df4b67" points="1549.2 575.8 1522.3 575.8 1522.3 548.9 1507.2 548.9 1507.2 575.8 1480.4 575.8 1480.4 590.9 1507.2 590.9 1507.2 617.7 1522.3 617.7 1522.3 590.9 1549.2 590.9"/><rect width="73.4" height="3.9" x="1537" y="676.9" fill="#5a5b5b"/><path fill="#5a5b5b" d="M1527.5,803h-42.7v-42.7h42.7V803z M1488.7,799.1h34.8v-34.8h-34.8V799.1z"/><rect width="73.4" height="3.9" x="1537" y="779.7" fill="#5a5b5b"/><path fill="#5a5b5b" d="M1729.7,700.2H1687v-42.7h42.7V700.2z M1690.9,696.2h34.8v-34.8h-34.8V696.2z"/><rect width="73.4" height="3.9" x="1739.3" y="676.9" fill="#5a5b5b"/><rect width="73.4" height="3.9" x="1739.3" y="779.7" fill="#5a5b5b"/><g><path fill="#5a5b5b" d="M1527.5,700.2h-42.7v-42.7h42.7V700.2z M1488.7,696.2h34.8v-34.8h-34.8V696.2z"/><path fill="#df4b67" d="M1500,685.3c-0.3,0-0.6-0.1-0.9-0.2c-0.9-0.3-1.6-1.2-1.8-2.1l-2.6-16.8
															c-0.2-1.5,0.8-2.9,2.3-3.1c1.5-0.2,2.9,0.8,3.1,2.3l1.9,11.9l28-24.4c1.1-1,2.9-0.9,3.9,0.3c1,1.1,0.9,2.9-0.3,3.9
															l-31.7,27.7C1501.3,685.1,1500.7,685.3,1500,685.3z"/></g><g><path fill="#5a5b5b" d="M1729.7,803H1687v-42.7h42.7V803z M1690.9,799.1h34.8v-34.8h-34.8V799.1z"/><path fill="#df4b67" d="M1702.8,788.1c-0.3,0-0.6-0.1-0.9-0.2c-0.9-0.3-1.6-1.2-1.8-2.1l-2.6-16.8
															c-0.2-1.5,0.8-2.9,2.3-3.1c1.5-0.2,2.9,0.8,3.1,2.3l1.9,11.9l28-24.4c1.1-1,2.9-0.9,3.9,0.3c1,1.1,0.9,2.9-0.3,3.9
															l-31.7,27.7C1704.1,787.9,1703.5,788.1,1702.8,788.1z"/></g><g><path fill="#5a5b5b" d="M1678.2,830h-191.4c-1.1,0-2-0.9-2-2c0-1.1,0.9-2,2-2h191.4c1.1,0,2,0.9,2,2
													C1680.1,829.1,1679.2,830,1678.2,830z"/></g><g><path fill="#5a5b5b" d="M1678.2,844h-191.4c-1.1,0-2-0.9-2-2c0-1.1,0.9-2,2-2h191.4c1.1,0,2,0.9,2,2
													C1680.1,843.1,1679.2,844,1678.2,844z"/></g><g><path fill="#5a5b5b" d="M1678.2,858.1h-191.4c-1.1,0-2-0.9-2-2s0.9-2,2-2h191.4c1.1,0,2,0.9,2,2
													S1679.2,858.1,1678.2,858.1z"/></g><g><path fill="#5a5b5b" d="M1678.2,872.1h-191.4c-1.1,0-2-0.9-2-2c0-1.1,0.9-2,2-2h191.4c1.1,0,2,0.9,2,2
													C1680.1,871.2,1679.2,872.1,1678.2,872.1z"/></g><g><path fill="#5a5b5b" d="M1678.2,886.2h-191.4c-1.1,0-2-0.9-2-2c0-1.1,0.9-2,2-2h191.4c1.1,0,2,0.9,2,2
													C1680.1,885.3,1679.2,886.2,1678.2,886.2z"/></g><g><path fill="#5a5b5b" d="M1575.8,900.2h-89c-1.1,0-2-0.9-2-2c0-1.1,0.9-2,2-2h89c1.1,0,2,0.9,2,2
													C1577.7,899.3,1576.9,900.2,1575.8,900.2z"/></g><g><path fill="#1d154a" d="M540.2,612.9L245,767.1c-17.9,9.4-38.4,12.7-58.3,9.4c-46.5-7.7-128.1-29.5-145.1-88.3
															c-7.7-26.7,4.4-55.1,28.4-69c25.7-14.8,55-39.4,77.7-142.4c4.4-19.8,18.3-36.2,37.2-43.6c37-14.5,85.9-25.6,127-67.9
															c16.2-16.8,31.3-38.4,43.8-67.1c10.3-23.6,32.2-40,57.7-43.9c31-4.7,70.9-4.9,106.8,8.1c9.2,3.3,18.1,7.4,26.6,12.7
															c34.8,21.4,61.5,59.9,64.8,125.8c2.1,40.2-4.5,90.5-23.2,153.3C580.9,579.6,563.5,600.7,540.2,612.9z"/><rect width="94.5" height="207.9" x="424.1" y="481.2" fill="#f4b88d"/><path fill="#e8ab82" d="M520.5,485.3c0,0-53.2,44-96.3,39.5c0.1-13.8,0-46.7,0-46.7S474.3,465.8,520.5,485.3z"/><path fill="#f4b88d" d="M398.9,399.2c0,0-5.8-1.9-12.8-2.4c-19.5-1.3-27.6,23.7-11.1,34.3c13.9,8.9,30.3,12.2,30.3,12.2
															"/><ellipse cx="474.5" cy="386.6" fill="#f4b88d" rx="88.2" ry="119.7"/><path fill="#1e0e49" d="M546.7,275.1c-5.2,7-10.5,13.6-15.6,19.8c-13.7,16.8-26.8,31-39.4,43
															c-41.4,39.6-76.4,54.8-105.2,56.8c-33.1,2.3-57.9-13.1-74.7-29.4c17.3-17.8,33.2-41.2,46.2-72.7
															c7.8-18.9,24.7-32.5,44.7-36.5c32.1-6.3,77.2-8.2,117.4,6.3C529.3,265.7,538.3,269.9,546.7,275.1z"/><path fill="#1e0e49" d="M611.6,401c-18.6-4-34.8-8.8-48.8-14.2c-35.5-13.5-57.7-30.6-70.9-48.8
															c-0.3-0.4-0.6-0.8-0.9-1.2c-16.7-23.5-18.8-48.6-15.7-69.8c0.4-3.2,1-6.3,1.7-9.3c13.2,2.9,27.5,4.7,43.2,4.8
															c9.2,3.3,18.1,7.4,26.6,12.7C581.6,296.5,608.2,335,611.6,401z"/><polygon fill="#6a86ff" points="396.2 550.6 396.2 834.5 565.8 834.5 565.6 552.1 501.2 550.6 496.7 553 494.6 554 492.3 553.4 483.2 550.6"/><rect width="86.8" height="140.3" x="311" y="1760.1" fill="#ffadbf"/><path fill="#48236a" d="M299.2,1877.2l-6.5,48.6c-2.7,20.4,12.8,38.7,33.4,39.2c68,2,203.7,10.5,208.9-1.2
																	c9.7-21.5-110.4-83.2-133.3-97.8c-2.5-1.6-5.4-2.4-8.4-2.4h-78.7C306.8,1863.7,300.2,1869.5,299.2,1877.2z"/><rect width="86.8" height="140.3" x="645" y="1770.2" fill="#ffadbf"/><path fill="#48236a" d="M633.2,1887.2l-6.5,48.6c-2.7,20.4,12.8,38.7,33.4,39.2c68,2,203.7,10.5,208.9-1.2
																	c9.7-21.5-110.4-83.2-133.3-97.8c-2.5-1.6-5.4-2.4-8.4-2.4h-78.7C640.8,1873.7,634.2,1879.5,633.2,1887.2z"/><path fill="#48236a" d="M317.7,1015.4l-113.2,782.9c-1.9,13.4,8.4,25.3,21.9,25.3h210.8c11.6,0,21.2-8.9,22.1-20.4
																l63.2-787.8H317.7z"/><path fill="#48236a" d="M574.9,1813l-80.6-790.8c-1.4-13.5,9.2-25.2,22.8-25.2h79.2c10.7,0,19.9,7.4,22.3,17.8
																l180.6,790.8c3.3,14.3-7.6,28-22.3,28H597.6C585.9,1833.6,576.1,1824.7,574.9,1813z"/><path fill="#f9b5a0" d="M774.1,741.8c0,0,33.6-9.8,46.3-17.8c2.3-1.5,5.2,0.7,4.5,3.3c-3.6,12.9-20.2,26.7-20.2,26.7
															s94,10.2,94,40.9c0,22.5,4.1,83.7-140.9,26.6C765.9,788.8,774.1,741.8,774.1,741.8z"/><path fill="#e6e3fc" d="M298.7,640.1c0.3,13,0.6,29.9,1.1,49.6v0.2c0,1.9,0.1,3.7,0.1,5.6c0.1,3.8,0.1,7.7,0.2,11.7
															c0,0.4,0,0.8,0,1.2c2.4,116.4,6.1,305.6,6.4,384c0.1,13.8,0,24.1-0.2,30.1c27,5.1,50.9,8,72,9.2
															c3.1,0.2,6.2,0.3,9.1,0.4c57.8,2,93.6-9.4,115.6-23.6c4.9-3.2,9.2-6.5,12.8-9.8c20.1-18.4,22.3-37.5,22.3-37.5
															c26.8,68.3,86.6,61.9,104.3,58.4c3.2-0.6,5-1.2,5-1.2L641.7,908l-2.3-84.7l29.1,4l1.3,0.2l80.7,11
															c8.6,1.2,16.4-4.6,18.1-12.9c0.1-0.6,0.2-1.3,0.3-1.9l4.5-56.1l1.6-20.2c0.2-2,0-3.9-0.5-5.6
															c-1.7-6.3-7.3-11.2-14.2-11.8l-51.4-4.7c-65.2-126.7-113.3-163.7-143-173.8c-0.9-0.3-1.8-0.6-2.7-0.8
															c-13.7-4.1-23.2-2.5-28.4-2c-1.6,0.1-2.8,0.2-3.6-0.1l-0.2,2.1l-1.5,20.6l-5.2,69.5l-2.8,36.9
															c-0.4-1.8-4.3-9.7-31.2-44.2c-13.9-17.9-34-42.9-63-77.9c-0.6-0.8-1.3-1.6-1.9-2.3c-0.2-0.2-0.3-0.4-0.5-0.6
															c-2.9-0.8-5.7-1.5-8.5-2c-10.8-2.3-20.7-3.2-29.7-3.1c-37.3,0.7-68.6,24.3-81.5,57l-0.8,2.1c-1.8,5-3.3,10.2-4.2,15.6
															C299,628.1,298.5,634.1,298.7,640.1z"/><polygon fill="#e85657" points="483.8 577.8 490.4 584.3 490.2 651.7 529 684.4 518.1 584.3 519.3 579.6 520.6 574.7 496.7 553 494.6 554 492.3 553.4 475.9 570"/><polygon fill="#c1d8e5" points="494.6 554.1 519.3 579.6 528.7 586.1 534.3 550.6 534.8 548.6 522.9 539.4 501.2 550.6 496.7 553"/><polygon fill="#c1d8e5" points="414.9 552.1 461.5 599 466.4 591.9 494.5 554.1 492.3 553.4 483.2 550.6 439.1 537.4 417.7 550.1"/><path fill="#48236a" d="M653.1,944.8h128.4c4.6,0,8.7-3.2,9.7-7.7l36.3-156c1.4-6.2-3.1-12.1-9.5-12.3l-124.8-3.5
															c-4.7-0.1-8.8,3-10,7.6l-39.9,159.5C641.9,938.7,646.6,944.8,653.1,944.8z"/><path fill="#f9b5a0" d="M644.9,815.6c11-3.6,26.7-9.2,34.6-14.2c2.3-1.5,5.2,0.7,4.5,3.3c-3.6,12.9-20.2,26.8-20.2,26.8
															s94,10.2,94,40.9c0,21.5,3.7,78.6-123.4,33.2c-9.9-3.5-15.7-13.9-13.4-24.2c4.1-18.3,7.8-37.6,10-49.8
															C632.3,824.1,637.7,817.9,644.9,815.6z"/><g><path fill="#c9c7dd" d="M620.5,816.3c-0.4,0-0.7-0.1-1.1-0.2l-163.8-62.6c-0.9-0.3-1.6-1.1-1.8-1.9l-41.5-132.9
															c-0.5-1.6,0.4-3.3,2-3.8c1.6-0.5,3.3,0.4,3.8,2l41.1,131.5l162.5,62c1.6,0.6,2.4,2.4,1.8,4
															C622.9,815.6,621.7,816.3,620.5,816.3z"/></g><g><path fill="#c9c7dd" d="M534.8,780.9c-1.6,0-3-1.3-3.1-2.9l-5.8-93.4c-0.1-1.7,1.2-3.1,2.9-3.2c1.7-0.1,3.1,1.2,3.2,2.9
															l5.8,93.4c0.1,1.7-1.2,3.1-2.9,3.2C534.9,780.9,534.8,780.9,534.8,780.9z"/></g><g><path fill="#c9c7dd" d="M538.2,1064.3c-1.7,0-3-1.3-3.1-3l-3.4-171.7c0-1.7,1.3-3.1,3-3.1c1.7,0,3.1,1.3,3.1,3
															l3.4,171.7C541.3,1062.9,540,1064.3,538.2,1064.3C538.2,1064.3,538.2,1064.3,538.2,1064.3z"/></g><g><path fill="#c9c7dd" d="M298.7,640.1c0.3,13,0.6,29.9,1.1,49.6v0.2c0,1.9,0.1,3.7,0.1,5.6c0.1,3.8,0.1,7.7,0.2,11.7
															c0,0.4,0,0.8,0,1.2c2.5,136.1,3.4,371.6,2.2,413.4c0,0.2,0,0.5,0,0.7c27.1,5.1,54.1,8,76.1,9.2
															c3.1,0.2,6.2,0.3,9.1,0.4c-0.4-9.3-2.5-64.9,3.7-116.8c5.1-42.9,15.8-83.2,37.8-92.8l32.1-16.2
															c10.9-5.5,22.8-9.2,34.9-10.7c19.2-2.5,31.2-4.5,38.8-6.1c12.6-2.6,12.6-3.9,12.6-3.9S472,871,406.6,834.5
															c-3.5-1.9-6.9-3.9-10.4-6c-46-27.9-84.5-67.2-83.7-120.6c0.5-34-3.8-75.1-7.4-103.3l-0.8,2.1
															c-1.8,5-3.3,10.2-4.2,15.6C299,628.1,298.5,634.1,298.7,640.1z"/></g><g><path fill="#c9c7dd" d="M630.3,810.1c-1.7,0-3.1-1.4-3.1-3.1v-83.5c0-1.7,1.4-3.1,3.1-3.1c1.7,0,3.1,1.4,3.1,3.1V807
															C633.3,808.7,632,810.1,630.3,810.1z"/></g></g><g><circle cx="1732.9" cy="1710.6" r="205.8" fill="#6a86ff"/><rect width="242.8" height="7.2" x="1611.5" y="1650.5" fill="#ffe7ff"/><path fill="#ffe7ff" d="M1857.9,1830.7h-250v-221.8h250V1830.7z M1615.1,1823.5h235.6v-207.4h-235.6V1823.5z"/><rect width="29.4" height="27.6" x="1640.9" y="1683.5" fill="#ffe7ff"/><rect width="29.4" height="27.6" x="1692.5" y="1683.5" fill="#ffe7ff"/><rect width="29.4" height="27.6" x="1744" y="1683.5" fill="#ffe7ff"/><rect width="29.4" height="27.6" x="1795.6" y="1683.5" fill="#ffe7ff"/><rect width="29.4" height="27.6" x="1640.9" y="1729" fill="#ffe7ff"/><rect width="29.4" height="27.6" x="1692.5" y="1729" fill="#ffe7ff"/><rect width="29.4" height="27.6" x="1744" y="1729" fill="#ffe7ff"/><rect width="29.4" height="27.6" x="1795.6" y="1729" fill="#ffe7ff"/><rect width="29.4" height="27.6" x="1640.9" y="1774.6" fill="#ffe7ff"/><rect width="29.4" height="27.6" x="1692.5" y="1774.6" fill="#ffe7ff"/><rect width="29.4" height="27.6" x="1744" y="1774.6" fill="#ffe7ff"/><rect width="29.4" height="27.6" x="1795.6" y="1774.6" fill="#ffe7ff"/><g><rect width="6" height="40.2" x="1818.7" y="1590.6" fill="#ffe7ff"/></g><g><rect width="6" height="40.2" x="1764.1" y="1590.6" fill="#ffe7ff"/></g><g><rect width="6" height="40.2" x="1709.6" y="1590.6" fill="#ffe7ff"/></g><g><rect width="6" height="40.2" x="1655" y="1590.6" fill="#ffe7ff"/></g></g><g><rect width="41.1" height="21.1" x="1405.5" y="260.3" fill="#d83f9a" transform="rotate(-48.079 1426 270.826)"/><circle cx="1519.2" cy="152.1" r="132" fill="#ff449c" transform="rotate(-45.001 1519.222 152.094)"/><circle cx="1519.2" cy="152.1" r="107.9" fill="#fff" transform="rotate(-45.001 1519.222 152.094)"/><path fill="#6a86ff" d="M1609.1,195.8c-0.6,0-1.2-0.1-1.8-0.3l-51.6-15.5c-3.4-1-5.9-3.8-6.6-7.2l-4.7-22.1l-10.3,13
														c-2.1,2.7-5.6,4-9,3.5c-3.4-0.5-6.3-2.9-7.5-6.1l-12.6-34l-13.3,25.7c-2.1,4-6.8,6.1-11.1,4.8l-41.6-11.8
														c-3.3-0.9-5.2-4.4-4.3-7.7c0.9-3.3,4.4-5.2,7.7-4.3l39.3,11.2l15.2-29.4c1.7-3.4,5.3-5.4,9.1-5.2
														c3.8,0.2,7.1,2.7,8.4,6.2l13.1,35.3l11-13.8c2.3-2.9,6.1-4.2,9.7-3.4c3.7,0.9,6.4,3.7,7.2,7.4l5.6,26.4l50,15
														c3.3,1,5.2,4.5,4.2,7.7C1614.2,194,1611.8,195.8,1609.1,195.8z"/><path fill="#ff449c" d="M1329,380.2l-1.7-1.5c-6.4-5.8-7-15.7-1.2-22.1l74.9-83.4c5.8-6.4,15.7-7,22.1-1.2l1.7,1.5
														c6.4,5.8,7,15.7,1.2,22.1l-74.9,83.4C1345.3,385.4,1335.4,385.9,1329,380.2z"/></g><g><path fill="#48236a" d="M1502.2,1807.5c-0.7,0-1.4-0.1-2.1-0.4c-16-6.5-31.7-13.8-46.7-21.6c-2.7-1.4-3.7-4.7-2.3-7.4
														c1.4-2.7,4.7-3.7,7.4-2.3c14.7,7.7,30.1,14.8,45.8,21.2c2.8,1.1,4.1,4.3,3,7.1
														C1506.4,1806.3,1504.3,1807.5,1502.2,1807.5z"/><path fill="#48236a" d="M1436.8,1775.6c-0.9,0-1.7-0.2-2.5-0.6c-6.1-3.2-11.8-6.8-18-10.6c-2.1-1.3-4.2-2.6-6.4-4
														c0,0-0.1,0-0.1-0.1c-28.9-18.6-54.6-40.3-81-68.3c-29.4-31.6-51.7-68.1-66.2-108.7c-7.6-20.6-11-43.3-11.1-73.7
														c0-0.1,0-0.2,0-0.2c1.1-26.7,10.3-51.5,19.6-74.5c0.8-2,2.3-3.3,3.2-4.1c0.2-0.1,0.4-0.3,0.5-0.5
														c9.8-21,22.4-38.5,35.7-54c-0.1-0.3-0.3-0.5-0.4-0.8c0,0,0-0.1-0.1-0.1c-22.6-47.5-31.8-103.1-27.3-165.3
														c0.2-3,2.8-5.3,5.8-5.1c3,0.2,5.3,2.8,5.1,5.8c-4.2,58.9,4.1,111.5,24.8,156.6c4.2-4.5,8.3-8.9,12.5-13.2
														c1.9-2.2,3.5-3.2,5.2-4c1.1-1.7,2.6-3.4,4.3-4.4l8.2-7.2c0.1-0.1,0.2-0.1,0.2-0.2c11-8.7,22.7-16.3,33.9-23.7
														c0.1-0.1,0.3-0.2,0.5-0.3c14.9-7.8,28.6-13.2,41.9-16.4c0.1,0,0.2,0,0.2-0.1c20.8-4,40.5,4.1,50.3,20.6
														c0,0.1,0.1,0.1,0.1,0.2c14.2,26.6,17.2,54.2,8.7,79.8c-5.7,16.7-19.1,29.9-35.7,35.6c-15,6.3-30.7,8.9-47.9,7.8
														c-0.6,0-1.2-0.2-1.7-0.4l-4-1.6c-30.8-2.7-59.6-22.4-78.9-53.6c-11.8,14.1-22.9,30-31.5,48.6c-0.8,1.9-2.2,3.1-3.1,3.9
														c-0.2,0.1-0.3,0.3-0.5,0.4c-9.2,22.9-17.6,45.5-18.6,70.4c0.1,28.9,3.3,50.5,10.4,69.9c14,39.2,35.6,74.5,63.9,104.9
														c25.8,27.3,50.9,48.5,78.9,66.6c2.2,1.4,4.4,2.7,6.4,4c6.2,3.9,11.6,7.2,17.3,10.2c2.7,1.4,3.7,4.7,2.3,7.4
														C1440.6,1774.5,1438.7,1775.6,1436.8,1775.6z M1402.3,1431.2c15.2,0.8,29-1.5,42.2-7.1c0.1-0.1,0.3-0.1,0.4-0.1
														c13.5-4.6,24.4-15.3,29-28.8c7.7-23,5-46.9-7.9-71.1c-8.9-15-25.8-17.8-38.6-15.3c-12.3,3-25.1,8-39,15.3
														c-10.9,7.2-22.2,14.6-32.8,22.9l-8.5,7.5c-0.3,0.3-0.7,0.5-1.1,0.7c-0.3,0.3-0.9,1-1,1.4c-0.6,1.3-1.6,2.4-2.9,3
														c-2,0.8-2.2,0.9-3.1,2c-0.1,0.1-0.2,0.2-0.3,0.3c-5,5.1-10.1,10.4-15.1,16c17.7,30.2,44.5,49.2,73.1,51.4
														c0.6,0,1.1,0.2,1.6,0.4L1402.3,1431.2z M1274.5,1430.8C1274.5,1430.8,1274.5,1430.8,1274.5,1430.8
														C1274.5,1430.8,1274.5,1430.8,1274.5,1430.8z"/></g><g><path fill="#48236a" d="M1064,520.9c-2.3,0-4.4-1.2-5.6-3.3c-1.6-3.1-0.5-6.9,2.6-8.5c10.4-5.5,19.7-11.9,27.9-19.1
														c2.6-2.3,6.6-2.1,8.9,0.6c2.3,2.6,2.1,6.6-0.6,8.9c-8.9,7.8-19.1,14.8-30.3,20.8C1066,520.6,1065,520.9,1064,520.9z"/><path fill="#48236a" d="M1110.2,482.5c-1.4,0-2.7-0.4-3.9-1.4c-2.7-2.2-3.2-6.1-1-8.8c24.9-31.5,23.2-72,17.3-100.5
														c-0.6-2.6-1.3-5.1-2.1-7.7c-25.7,15.2-53,26.6-83.8,27.5c-0.5,0-1.1,0-1.6-0.2c-30-6.9-51.7-38.8-46.5-68.5
														c3.5-28.5,27.4-52.1,55.6-54.8c0.1,0,0.2,0,0.3,0c18.4-0.9,36,7.5,50.8,24.5c0.1,0.1,0.1,0.1,0.2,0.2
														c9.4,11.8,16.5,21.8,24.3,34.8c0.1,0.2,0.3,0.5,0.4,0.7c2.6,6,4.9,11.5,7,16.8c10.2-6.5,20.1-13.5,30-20.4l4-2.8
														c2.6-1.8,5.6-3.6,8.4-5.2c2.7-1.6,5.2-3.1,7.4-4.6c27.7-21.8,53.5-45.6,78.5-68.7c12-11,24.3-22.5,36.6-33.4
														c2.6-2.3,6.6-2.1,8.9,0.5c2.3,2.6,2.1,6.6-0.5,8.9c-12.2,10.9-24.6,22.3-36.5,33.3c-25.2,23.3-51.2,47.3-79.4,69.5
														c-0.1,0.1-0.2,0.1-0.3,0.2c-2.6,1.8-5.6,3.6-8.4,5.2c-2.8,1.6-5.3,3.2-7.6,4.7l-4,2.8c-10.8,7.6-21.7,15.2-32.9,22.3
														c1.2,3.8,2.3,7.6,3.3,11.5c0,0.1,0,0.2,0.1,0.2c6.5,31.1,8.3,75.6-19.7,111C1113.9,481.7,1112.1,482.5,1110.2,482.5z
														 M1045.2,280.8c-22.5,2.2-41.4,21.1-44.2,43.9c0,0.1,0,0.2-0.1,0.3c-4.1,23.1,12.7,48.2,36.1,54
														c28.5-1,54.4-12.3,79.1-27.1c-2.2-5.7-4.6-11.6-7.5-18.1c-7.5-12.4-14-21.6-23-32.9
														C1073.4,286.8,1059.7,280.1,1045.2,280.8z"/></g><g><path fill="#5a5b5b" d="M1797.1,910c-2,0.6-4.1,1-6.1,1.3l-0.3,0l-0.2,0l-0.2,0l-0.6,0c-0.7,0.1-1.6,0.1-2.3-0.1
														c-2.2-0.3-3.6-2.1-4.4-4.1c-0.4-0.8-0.6-1.6-1-2.4c-0.2-0.4-0.6-1-1-1.4c-1.1-0.8-2.6-0.3-3.2,0.8
														c-0.6,1-0.7,2.3-1,3.4c-1.2,5.3-3.6,12.1-8.6,14.7c-1.5,0.8-3.3,1.5-4.9,1.4c-1.9-0.1-2.6-1.8-3-3.4
														c-0.6-2.3-0.6-4.8-0.8-7.2c-0.1-1.1-0.2-2.2-0.7-3.3c-0.5-1.3-1.8-2.2-3.2-2.1c-1.3,0.1-2.4,1-3,2
														c-0.6,0.9-1,1.6-1.4,2.5c-1.2,2.3-2.3,4.5-3.5,6.7c-0.8,1.4-1.7,2.8-2.6,4.2c-1.4,2.1-2.9,4.3-4.5,6.2
														c0-0.2,0.1-0.4,0.1-0.6c1.5-8.5,2.8-17.1,3.2-25.7c0.1-1.8,0.2-3.6,0.2-5.3c4-0.9,8-1.5,12.1-1.8
														c-4-0.1-8.1,0.2-12.1,0.8c0.1-3.1,0-6.3-0.2-9.4c-0.2-1.5-0.4-3.1-1-4.5c-0.9-2-3-3.2-5.1-2.1
														c-0.7,0.3-1.4,1.1-1.9,1.7c-0.9,1.3-1.5,2.6-2.1,3.9c-2.1,4.9-4,9.9-5.8,15c-0.7,0.3-1.3,0.6-2,0.9
														c-6.6,2.7-12.9,6.4-17.1,12.3c-3.1,4.3-5.4,9.7-6.1,15c-0.4,3.4,0,7.1,2,10c1.2,1.7,2.6,3.3,4.6,4.3
														c2.5,1.2,5.2,0.8,7.3-1.1c1.9-1.7,3-3.9,4.1-6.1c1.5-3.2,2.7-6.4,3.9-9.7c2.4-6.4,4.6-12.9,7-19.3
														c0.8-2.2,1.6-4.4,2.5-6.6c1.4-0.5,2.7-1,4.1-1.5c-0.2,6.2-0.7,12.4-1.6,18.5c-0.5,3.4-1,6.7-1.5,10.1
														c-0.3,2.1-0.9,5.2,0,7.2c0.6,1.7,2.4,2.6,4.1,2.3c2.9-0.5,5.8-4.7,7.5-7c2-2.9,3.9-5.8,5.6-8.9
														c0.9-1.7,1.8-3.5,2.7-5.3c0.1,0.8,0.2,1.7,0.3,2.5c0.6,4.5,2.6,9.1,7.8,9.4c2.9,0.1,5.5-1.1,7.9-2.5
														c4.7-3,7-8.3,8.4-13.4c0.4-1.4,0.6-2.8,0.9-4.2c0.1,0.2,0.1,0.3,0.2,0.4c0.9,2,2.4,3.9,4.5,4.8
														c1.8,0.8,3.9,0.7,5.8,0.4c2.4-0.4,4.7-1.1,7-1.9c8.1-2.8,15.9-6.5,23.3-10.9C1813.2,904.6,1805.3,907.7,1797.1,910z
														 M1719.8,925.1c-1.1,3.2-2.2,6.4-3.5,9.4c-0.6,1.4-1.3,2.8-2.2,4c-0.5,0.6-1.1,1.3-1.9,1.3c-1.2,0-2.3-1.1-3.2-2
														c-4.5-4.9-1.4-14.2,1.4-19.4c1.9-3.6,4.6-6.7,7.9-9.1c2.7-2,5.6-3.6,8.6-5.1C1724.5,911.1,1722.2,918.1,1719.8,925.1z
														 M1734.9,898.8c1.1-2.8,2.2-5.6,3.4-8.4c0.1,2.5,0,4.9,0,7.4c0,0,0,0.1,0,0.1C1737.1,898.2,1736,898.5,1734.9,898.8z
														 M1737.9,932.1C1737.9,932.1,1737.9,932.1,1737.9,932.1C1737.9,932.1,1737.9,932.1,1737.9,932.1
														C1737.9,932.1,1737.9,932.1,1737.9,932.1z"/><path fill="#5a5b5b" d="M1821,946.4h-130.1c-1.1,0-2-0.9-2-2s0.9-2,2-2H1821c1.1,0,2,0.9,2,2S1822.1,946.4,1821,946.4z"/></g></svg>