<svg xmlns="http://www.w3.org/2000/svg" data-name="1" viewBox="0 0 990.58 753.85"><g data-name="18"><path fill="#d8e5f3" d="M795.06 617.11c75.43-26.85 140.84-98.86 133.62-178.6-4.85-53.63-48.48-84.35-49.73-141-.78-35.24 7-70.08 9.73-105.22 5.57-70.78-21.11-134-101.74-132.62-48.79.85-93.54 25.58-136.13 49.39s-87.79 48-136.59 47.68c-68.08-.48-125.89-48-190.7-68.82-63.77-20.52-135.78-14-194.82 17.66-29.57 15.86-57.49 40.26-64.53 73.07-5.59 26 2.93 53.18 15.32 76.75 18.51 35.13 45.3 65.11 66.51 98.65s37.11 73.39 29.71 112.39c-5.81 30.6-25.31 57.29-31.08 87.9-11.07 58.76 34 117.48 90 138.23s119 11 175.68-8.14C467.65 665.1 525 625.55 587 629.42c70.68 4.42 139.57 12.07 208.06-12.31Z"/><path fill="#8abae7" d="M646.57 500.29a1.78 1.78 0 0 1-.05-3.56c4.73-.14 9.47-.45 14.1-.91a1.78 1.78 0 1 1 .35 3.55c-4.71.46-9.53.78-14.34.92Zm-14.25 0h-.06c-4.73-.16-9.55-.47-14.33-.93a1.78 1.78 0 1 1 .34-3.55c4.71.45 9.45.76 14.11.92a1.78 1.78 0 0 1-.06 3.56ZM604 497.56a1.23 1.23 0 0 1-.27 0c-4.69-.73-9.44-1.61-14.12-2.62a1.79 1.79 0 0 1 .76-3.49c4.6 1 9.28 1.87 13.91 2.59a1.78 1.78 0 0 1-.28 3.54Zm71-.09a1.78 1.78 0 0 1-.29-3.54c4.65-.8 9.3-1.77 13.81-2.9a1.78 1.78 0 0 1 .87 3.46c-4.6 1.15-9.34 2.14-14.08 3Zm-98.82-5.91a2 2 0 0 1-.48-.07c-4.58-1.27-9.2-2.68-13.72-4.2a1.78 1.78 0 1 1 1.14-3.38c4.45 1.5 9 2.9 13.53 4.14a1.79 1.79 0 0 1-.47 3.51Zm126.45-1a1.78 1.78 0 0 1-.56-3.47c4.46-1.5 8.9-3.2 13.17-5a1.78 1.78 0 0 1 1.41 3.27c-4.36 1.88-8.89 3.61-13.45 5.15a1.88 1.88 0 0 1-.65.03Zm26.15-11.29a1.78 1.78 0 0 1-.85-3.35c4.09-2.2 8.15-4.65 12.06-7.27a1.78 1.78 0 1 1 2 3c-4 2.69-8.16 5.19-12.35 7.45a1.83 1.83 0 0 1-.94.15Zm23.64-15.85a1.78 1.78 0 0 1-1.13-3.16c3.62-2.95 7.15-6.12 10.49-9.41a1.78 1.78 0 1 1 2.5 2.54c-3.42 3.37-7 6.61-10.73 9.63a1.78 1.78 0 0 1-1.21.38Zm20.3-20a1.78 1.78 0 0 1-1.36-2.93c3-3.59 5.92-7.35 8.58-11.18a1.79 1.79 0 0 1 2.93 2c-2.73 3.92-5.69 7.76-8.79 11.44a1.8 1.8 0 0 1-1.44.68ZM789 420.05a1.75 1.75 0 0 1-.88-.23 1.79 1.79 0 0 1-.67-2.43c2.32-4.1 4.44-8.33 6.32-12.58a1.78 1.78 0 1 1 3.26 1.44c-1.92 4.35-4.1 8.69-6.48 12.9a1.78 1.78 0 0 1-1.63.91ZM800.4 394a1.76 1.76 0 0 1-.55-.09 1.79 1.79 0 0 1-1.15-2.24 128.48 128.48 0 0 0 3.59-13.59 1.79 1.79 0 1 1 3.5.72 133.08 133.08 0 0 1-3.69 14 1.79 1.79 0 0 1-1.7 1.2Zm5.71-27.87H806a1.78 1.78 0 0 1-1.62-1.93c.29-3.39.45-6.82.45-10.19 0-1.28 0-2.56-.07-3.84a1.79 1.79 0 0 1 1.72-1.84 1.76 1.76 0 0 1 1.84 1.72c.05 1.32.07 2.64.07 4 0 3.47-.16 7-.46 10.5a1.78 1.78 0 0 1-1.82 1.59Zm-553-5.64a135 135 0 0 1-14.42-.93 1.78 1.78 0 0 1 .43-3.54 130.34 130.34 0 0 0 14 .91 1.78 1.78 0 0 1 0 3.56Zm14.24-.5a1.78 1.78 0 0 1-.14-3.56c4.46-.36 9.18-.92 14-1.66a1.79 1.79 0 1 1 .54 3.53c-4.92.75-9.73 1.32-14.28 1.68Zm-42.45-3.1a1.89 1.89 0 0 1-.47-.06 100.45 100.45 0 0 1-13.7-4.76 1.78 1.78 0 1 1 1.41-3.27 97.47 97.47 0 0 0 13.22 4.59 1.78 1.78 0 0 1 1.26 2.18 1.8 1.8 0 0 1-1.71 1.33Zm70.62-1.13a1.78 1.78 0 0 1-.36-3.53c4.32-.9 8.84-1.94 13.83-3.18a1.78 1.78 0 0 1 .86 3.46c-5 1.25-9.6 2.3-14 3.21a2.33 2.33 0 0 1-.32.05Zm27.7-6.79a1.78 1.78 0 0 1-.47-3.5q4.46-1.2 8.87-2.42a1.78 1.78 0 0 1 .95 3.44l-8.89 2.42a1.82 1.82 0 0 1-.45.09Zm-124.42-3.34a1.78 1.78 0 0 1-.94-.26 89 89 0 0 1-11.68-8.65 1.78 1.78 0 0 1 2.35-2.68 83.41 83.41 0 0 0 11.21 8.3 1.77 1.77 0 0 1 .57 2.45 1.75 1.75 0 0 1-1.5.85Zm606.32-7.93a1.78 1.78 0 0 1-1.76-1.5 132.31 132.31 0 0 0-3-13.74 1.78 1.78 0 0 1 3.44-.93 136.85 136.85 0 0 1 3 14.11 1.77 1.77 0 0 1-1.48 2 1.32 1.32 0 0 1-.19.07ZM177.6 326.82a1.76 1.76 0 0 1-1.41-.69 65.94 65.94 0 0 1-7.64-12.45 1.78 1.78 0 1 1 3.22-1.51A63 63 0 0 0 179 324a1.78 1.78 0 0 1-1.41 2.87Zm620.25-16.63a1.78 1.78 0 0 1-1.68-1.19 282.1 282.1 0 0 0-5.09-13.22 1.78 1.78 0 0 1 3.3-1.35c2 4.89 3.69 9.26 5.15 13.38a1.77 1.77 0 0 1-1.68 2.38Zm-632.14-9a1.78 1.78 0 0 1-1.75-1.44l-.06-.31a77.46 77.46 0 0 1-1.45-14.18 1.78 1.78 0 0 1 1.77-1.79 1.79 1.79 0 0 1 1.79 1.77 73.76 73.76 0 0 0 1.38 13.52l.06.3a1.77 1.77 0 0 1-1.41 2.09 1.32 1.32 0 0 1-.33.06Zm507-17.41a1.78 1.78 0 0 1 0-3.56c4.75-.05 9.51-.21 14.17-.46a1.78 1.78 0 1 1 .19 3.56c-4.7.25-9.52.41-14.32.46Zm114.45 0a1.78 1.78 0 0 1-1.63-1.07l-2-4.5q-1.89-4.29-3.75-8.57a1.79 1.79 0 0 1 3.28-1.42q1.84 4.29 3.73 8.56l2 4.5a1.79 1.79 0 0 1-1.63 2.5Zm-128.71-.11c-4.72-.14-9.53-.38-14.31-.71a1.78 1.78 0 0 1 .25-3.56c4.73.33 9.5.57 14.17.71a1.78 1.78 0 0 1-.06 3.56Zm42.72-1.42a1.78 1.78 0 0 1-.18-3.55c4.72-.47 9.45-1.06 14.06-1.74a1.78 1.78 0 1 1 .52 3.53c-4.67.69-9.45 1.28-14.23 1.75ZM630 281.7h-.2c-4.71-.51-9.49-1.12-14.2-1.8a1.78 1.78 0 0 1 .51-3.53c4.67.68 9.41 1.28 14.08 1.79a1.78 1.78 0 0 1-.19 3.55Zm99.34-3.63a1.78 1.78 0 0 1-.35-3.53c4.65-.92 9.29-2 13.81-3.12a1.78 1.78 0 0 1 .88 3.45c-4.58 1.17-9.29 2.23-14 3.17Zm-127.55-.47h-.33c-4.62-.84-9.34-1.78-14-2.78a1.78 1.78 0 0 1 .74-3.49c4.66 1 9.35 1.93 13.93 2.76a1.78 1.78 0 0 1-.31 3.54Zm-436-4.67a1.41 1.41 0 0 1-.4-.05 1.78 1.78 0 0 1-1.34-2.13 58.55 58.55 0 0 1 5-13.74 1.78 1.78 0 1 1 3.16 1.63 55.52 55.52 0 0 0-4.72 12.91 1.78 1.78 0 0 1-1.74 1.38Zm408.15-1.28a2 2 0 0 1-.42 0 577.95 577.95 0 0 1-13.85-3.58 1.78 1.78 0 1 1 .94-3.44c4.6 1.25 9.22 2.45 13.76 3.55a1.79 1.79 0 0 1-.43 3.52ZM757 271a1.79 1.79 0 0 1-.54-3.49c4.52-1.42 9-3 13.37-4.63a1.8 1.8 0 0 1 2.3 1 1.77 1.77 0 0 1-1 2.29c-4.42 1.68-9 3.26-13.57 4.7a1.69 1.69 0 0 1-.56.13Zm-210.56-6.87a1.79 1.79 0 0 1-.51-.07c-4.47-1.34-9.06-2.76-13.65-4.24a1.78 1.78 0 1 1 1.09-3.39c4.57 1.47 9.13 2.89 13.58 4.21a1.78 1.78 0 0 1-.51 3.49Zm-323.57-.33h-1.27a1.78 1.78 0 0 1 0-3.56h1.25c4.25 0 8.57-.19 12.82-.58a1.78 1.78 0 0 1 .33 3.55c-4.4.42-8.82.63-13.18.63Zm-15.52-.8h-.2c-4.77-.53-9.56-1.3-14.25-2.3a1.78 1.78 0 1 1 .75-3.49 138.49 138.49 0 0 0 13.89 2.24 1.79 1.79 0 0 1-.19 3.56Zm42.56-1.72a1.78 1.78 0 0 1-.33-3.53c4.58-.87 9.18-2 13.69-3.29a1.79 1.79 0 0 1 1 3.43c-4.62 1.34-9.34 2.47-14 3.36a2 2 0 0 1-.36.02Zm533.67-.36a1.78 1.78 0 0 1-.73-3.4c4.3-1.94 8.58-4 12.7-6.22a1.78 1.78 0 1 1 1.67 3.15c-4.19 2.22-8.53 4.34-12.91 6.32a1.83 1.83 0 0 1-.73.14Zm-7.58-3.37a1.79 1.79 0 0 1-1.66-1.13l-.6-1.53c-1.58-4.06-3-8.09-4.28-12a1.78 1.78 0 1 1 3.39-1.1c1.24 3.83 2.65 7.79 4.21 11.78l.6 1.52a1.79 1.79 0 0 1-1 2.32 1.82 1.82 0 0 1-.66.14ZM179.51 257a1.76 1.76 0 0 1-.55-.09 143.68 143.68 0 0 1-13.49-5.12 1.78 1.78 0 1 1 1.43-3.26 139.4 139.4 0 0 0 13.16 5 1.79 1.79 0 0 1-.55 3.48Zm339.74-1.58a2 2 0 0 1-.58-.1c-4.39-1.51-8.93-3.12-13.47-4.76a1.78 1.78 0 0 1 1.22-3.35c4.52 1.64 9 3.23 13.41 4.74a1.78 1.78 0 0 1 1.11 2.26 1.8 1.8 0 0 1-1.69 1.24Zm-242-2.1a1.78 1.78 0 0 1-.65-3.44c3-1.17 5.94-2.44 8.86-3.8 1.55-.72 2.81-1.34 4-2a1.78 1.78 0 1 1 1.66 3.15c-1.21.64-2.52 1.28-4.12 2-3 1.39-6 2.7-9.06 3.89a1.87 1.87 0 0 1-.68.23Zm-98.67-5.51a1.78 1.78 0 0 1-1.35-2.94 76.6 76.6 0 0 1 10.53-10.07 1.79 1.79 0 0 1 2.22 2.8 71.77 71.77 0 0 0-10 9.59 1.78 1.78 0 0 1-1.39.65Zm630.16-.28a1.78 1.78 0 0 1-.93-3.3c1.92-1.19 3.84-2.42 5.71-3.66 2.1-1.38 4.13-2.79 6-4.18a1.78 1.78 0 1 1 2.09 2.89c-1.95 1.41-4 2.85-6.16 4.27-1.9 1.26-3.85 2.51-5.81 3.72a1.78 1.78 0 0 1-.89.29Zm-316.3-1.83a1.81 1.81 0 0 1-.64-.12c-4.29-1.63-8.77-3.37-13.31-5.16a1.78 1.78 0 1 1 1.31-3.31c4.52 1.78 9 3.51 13.27 5.14a1.78 1.78 0 0 1-.63 3.45Zm-339-.11a1.8 1.8 0 0 1-.87-.23c-3.42-1.91-6.82-4-10.11-6.2-.71-.48-1.42-1-2.13-1.48a1.78 1.78 0 1 1 2.07-2.9c.68.48 1.36 1 2.05 1.41 3.21 2.15 6.53 4.19 9.86 6.06a1.78 1.78 0 0 1-.87 3.34Zm148-6.78A1.78 1.78 0 0 1 300 236a16.59 16.59 0 0 0 3.69-9.93 12 12 0 0 0-.17-2 1.78 1.78 0 0 1 3.52-.59 15.88 15.88 0 0 1 .21 2.59 20.11 20.11 0 0 1-4.43 12.1 1.77 1.77 0 0 1-1.39.67Zm164.49-3.56a1.79 1.79 0 0 1-.67-.14q-6.62-2.69-13.2-5.43a1.78 1.78 0 0 1 1.37-3.29q6.57 2.75 13.17 5.42a1.79 1.79 0 0 1-.67 3.44Zm365.8-4.57a1.78 1.78 0 0 1-1.2-3.1 98.25 98.25 0 0 0 9.74-10.05 1.79 1.79 0 0 1 2.74 2.29 103.24 103.24 0 0 1-10.09 10.41 1.8 1.8 0 0 1-1.2.48Zm-64.44-.3a1.77 1.77 0 0 1-1.73-1.38 135.39 135.39 0 0 1-2.56-14.18 1.78 1.78 0 0 1 3.54-.44 134.16 134.16 0 0 0 2.46 13.85 1.79 1.79 0 0 1-1.33 2.14 1.9 1.9 0 0 1-.39.04Zm-566.58-.35a1.78 1.78 0 0 1-.89-3.32 118.68 118.68 0 0 1 13-6.39 1.78 1.78 0 1 1 1.39 3.28 117.18 117.18 0 0 0-12.6 6.2 1.75 1.75 0 0 1-.91.26Zm-70.23-1.21a1.78 1.78 0 0 1-1.25-.52 81.71 81.71 0 0 1-9.38-11.14 1.79 1.79 0 0 1 2.93-2 77.24 77.24 0 0 0 9 10.65 1.78 1.78 0 0 1-1.26 3Zm309.12-4.52a1.67 1.67 0 0 1-.69-.14q-6.57-2.77-13.13-5.58a1.78 1.78 0 0 1 1.4-3.28l13.11 5.58a1.77 1.77 0 0 1 1 2.33 1.79 1.79 0 0 1-1.7 1.12Zm-212.72-5.4a1.78 1.78 0 0 1-.52-3.48c4.48-1.39 9.17-2.63 13.94-3.67a1.78 1.78 0 0 1 .77 3.48c-4.68 1-9.27 2.23-13.66 3.59a1.89 1.89 0 0 1-.53.08Zm70-4.23a1.74 1.74 0 0 1-.85-.22 30.26 30.26 0 0 0-12.91-3.34 1.78 1.78 0 1 1 .15-3.56 33.79 33.79 0 0 1 14.47 3.78 1.78 1.78 0 0 1-.86 3.34Zm116.51-1.54a1.76 1.76 0 0 1-.71-.14l-13.09-5.62a1.78 1.78 0 0 1 1.4-3.28l13.1 5.62a1.78 1.78 0 0 1-.7 3.42Zm-158.65-.35a1.78 1.78 0 0 1-.24-3.55c4.76-.66 9.59-1.14 14.33-1.42a1.78 1.78 0 0 1 .21 3.56c-4.65.27-9.38.74-14.06 1.39Zm595-4a1.79 1.79 0 0 1-1.55-2.65 63.47 63.47 0 0 0 3.25-6.7 51 51 0 0 0 2.07-6 1.78 1.78 0 0 1 3.44 1 56.36 56.36 0 0 1-2.22 6.45 65.5 65.5 0 0 1-3.43 7.06 1.77 1.77 0 0 1-1.57.85Zm-735.25-3.32a1.78 1.78 0 0 1-1.65-1.11 49.58 49.58 0 0 1-3.51-14.31 1.78 1.78 0 0 1 1.62-1.93 1.8 1.8 0 0 1 1.93 1.63 45.86 45.86 0 0 0 3.26 13.26 1.79 1.79 0 0 1-1 2.32 1.74 1.74 0 0 1-.66.15Zm649.51-3.3a1.77 1.77 0 0 1-1.76-1.8 86.85 86.85 0 0 1 1.36-14.48 1.78 1.78 0 1 1 3.5.64 83.91 83.91 0 0 0-1.3 13.88 1.78 1.78 0 0 1-1.8 1.76Zm-376.8-.25a1.7 1.7 0 0 1-.69-.14q-6.56-2.78-13.13-5.53a1.78 1.78 0 0 1 1.38-3.29q6.59 2.75 13.14 5.54a1.78 1.78 0 0 1-.7 3.42Zm-26.3-11a1.79 1.79 0 0 1-.68-.13q-6.59-2.7-13.2-5.33a1.79 1.79 0 0 1 1.32-3.32q6.63 2.64 13.23 5.35a1.78 1.78 0 0 1-.67 3.43Zm496.37-9.33a1.79 1.79 0 0 1-1.76-1.81v-.63a48.51 48.51 0 0 0-1.72-13 1.78 1.78 0 0 1 3.44-1 52.31 52.31 0 0 1 1.77 14.01v.68a1.79 1.79 0 0 1-1.78 1.76Zm-522.87-1.2a1.81 1.81 0 0 1-.64-.12c-4.51-1.73-9-3.42-13.32-5a1.78 1.78 0 0 1 1.23-3.35c4.35 1.6 8.84 3.29 13.37 5a1.79 1.79 0 0 1-.64 3.45Zm-222-2.83a2 2 0 0 1-.48-.06 1.79 1.79 0 0 1-1.24-2.2c.09-.3.17-.6.27-.91a41.73 41.73 0 0 1 6.21-12.38 1.78 1.78 0 1 1 2.88 2.09 38.39 38.39 0 0 0-5.7 11.34c-.09.28-.17.55-.24.83a1.78 1.78 0 0 1-1.72 1.3Zm656.8-3.26a1.72 1.72 0 0 1-.66-.13 1.77 1.77 0 0 1-1-2.31 67.35 67.35 0 0 1 1.82-4.17 51.36 51.36 0 0 1 5.28-8.68 1.78 1.78 0 0 1 2.85 2.14 48.1 48.1 0 0 0-4.92 8.08c-.61 1.29-1.19 2.62-1.72 4a1.78 1.78 0 0 1-1.67 1.08Zm-461.59-3.75a1.7 1.7 0 0 1-.59-.1c-4.55-1.59-9.08-3.13-13.47-4.57a1.78 1.78 0 1 1 1.11-3.39c4.42 1.45 9 3 13.54 4.59a1.79 1.79 0 0 1-.59 3.47Zm-27.09-8.89a1.88 1.88 0 0 1-.52-.08c-4.59-1.4-9.18-2.75-13.64-4a1.78 1.78 0 1 1 1-3.43c4.49 1.26 9.11 2.61 13.72 4a1.78 1.78 0 0 1-.52 3.49ZM128.6 154.7a1.78 1.78 0 0 1-1.08-3.2 61 61 0 0 1 12.66-7.38 1.78 1.78 0 1 1 1.42 3.27 56.9 56.9 0 0 0-11.92 6.95 1.8 1.8 0 0 1-1.1.37Zm720.88-.07a1.8 1.8 0 0 1-1.46-.76 35 35 0 0 0-5.23-5.89 33.43 33.43 0 0 0-4.51-3.39 1.78 1.78 0 1 1 1.89-3 36.72 36.72 0 0 1 5 3.76 38 38 0 0 1 5.76 6.49 1.79 1.79 0 0 1-1.45 2.81ZM253 154a1.59 1.59 0 0 1-.43-.06c-4.63-1.17-9.28-2.27-13.82-3.29a1.78 1.78 0 0 1 .77-3.48c4.58 1 9.26 2.14 13.92 3.32A1.78 1.78 0 0 1 253 154Zm533-2.27a1.78 1.78 0 0 1-1.11-3.17 61.21 61.21 0 0 1 12.5-7.66 1.79 1.79 0 0 1 1.48 3.25 57.05 57.05 0 0 0-11.77 7.2 1.77 1.77 0 0 1-1.1.36Zm-560.8-3.93h-.34c-4.68-.9-9.38-1.72-14-2.45a1.78 1.78 0 1 1 .56-3.52c4.63.73 9.37 1.56 14.09 2.47a1.78 1.78 0 0 1-.33 3.53Zm-70.74-4.39a1.78 1.78 0 0 1-.35-3.53 93 93 0 0 1 14.42-1.67 1.78 1.78 0 1 1 .15 3.56 89.62 89.62 0 0 0-13.87 1.6 1.45 1.45 0 0 1-.33.02Zm42.58 0h-.21l-.55-.06c-5.08-.62-9.51-1-13.54-1.3a1.78 1.78 0 1 1 .23-3.55c4.09.25 8.59.68 13.74 1.31l.55.07a1.78 1.78 0 0 1-.22 3.55Zm614.67-3.26a1.78 1.78 0 0 1-.29-3.54 46.11 46.11 0 0 1 14.77-.13 1.78 1.78 0 0 1-.57 3.52 42.14 42.14 0 0 0-13.62.13Z"/><path d="M517.67 132a1.55 1.55 0 0 1-1.1-.45l-20-20a1.56 1.56 0 0 1 2.2-2.2l20 19.95a1.56 1.56 0 0 1-1.1 2.66Z"/><path d="M497.71 132a1.56 1.56 0 0 1-1.1-2.66l20-19.95a1.56 1.56 0 1 1 2.2 2.2l-20 20a1.55 1.55 0 0 1-1.1.41ZM186.53 583.58A11.58 11.58 0 1 1 198.11 572a11.59 11.59 0 0 1-11.58 11.58Zm0-20A8.46 8.46 0 1 0 195 572a8.47 8.47 0 0 0-8.47-8.46Z"/><rect width="28.99" height="28.99" x="816.35" y="535.5" fill="#8abae7" rx=".6" transform="rotate(45 830.852 550)"/><path d="M810.61 564.59a1.56 1.56 0 0 1-1.1-.45l-13-13A1.57 1.57 0 0 1 796 550a1.55 1.55 0 0 1 .46-1.1l13-13a1.55 1.55 0 0 1 2.2 0l13 13a1.55 1.55 0 0 1 0 2.2l-13 13a1.56 1.56 0 0 1-1.05.49ZM799.77 550l10.84 10.83L821.45 550l-10.84-10.84ZM251 644.83a1.56 1.56 0 0 1-1.56-1.56v-9.54a1.56 1.56 0 1 1 3.12 0v9.54a1.56 1.56 0 0 1-1.56 1.56ZM251 669.93a1.56 1.56 0 0 1-1.56-1.56v-9.54a1.56 1.56 0 1 1 3.12 0v9.54a1.56 1.56 0 0 1-1.56 1.56ZM268.3 652.61h-9.54a1.56 1.56 0 1 1 0-3.12h9.54a1.56 1.56 0 1 1 0 3.12ZM243.2 652.61h-9.54a1.56 1.56 0 1 1 0-3.12h9.54a1.56 1.56 0 1 1 0 3.12Z"/><path fill="#8abae7" d="M79.49 257a1.56 1.56 0 0 1-1.29-.68c-.28-.41-27.73-41.68-12-86.57 13.3-37.88 52.54-67.12 116.62-86.89a1.55 1.55 0 1 1 .92 3c-63.06 19.47-101.62 48-114.59 84.92-15.26 43.39 11.33 83.42 11.6 83.82a1.56 1.56 0 0 1-1.26 2.4Z"/><path fill="#8abae7" d="M83.21 122.07a1.56 1.56 0 0 1-1-2.72c.22-.2 22.19-19.75 59.18-35.82 34.14-14.83 88.46-29.69 153.37-16.25a1.56 1.56 0 0 1-.63 3C230 57.07 176.41 71.72 142.7 86.34c-36.56 15.87-58.23 35.13-58.45 35.33a1.6 1.6 0 0 1-1.04.4ZM900 366.12a1.55 1.55 0 0 1-1.28-.66c-35.1-50.17-17.38-124.55-17.2-125.3a1.56 1.56 0 0 1 3 .74c-.18.74-17.56 73.78 16.72 122.77a1.55 1.55 0 0 1-1.27 2.45Z"/><circle cx="848.94" cy="152.14" r="14.37" fill="#8abae7" transform="rotate(-59.46 848.95 152.14)"/><circle cx="113.43" cy="200.83" r="17.41" fill="#fff" transform="rotate(-12.5 113.383 200.784)"/><circle cx="267.76" cy="159.18" r="12.31" fill="#8abae7" transform="rotate(-13.2 267.805 159.21)"/><path fill="#8abae7" d="M483.68 259a18.41 18.41 0 1 1 18.41-18.41A18.43 18.43 0 0 1 483.68 259Zm0-33.26a14.85 14.85 0 1 0 14.85 14.85 14.86 14.86 0 0 0-14.85-14.87Z"/><path fill="#fff" d="M294.74 201.7s46.15 5.81 49.06 9.08 30.16 41.8 34.89 49.43-13.08 7.27-22.17-5.45c3.27 9.81-15.6 6.13-27.62-8-.65 8-7.1 8.6-18.21-.09-8-6.23-17.33-17.57-17.33-17.57s-40.12-.2-54.12-12.58 3.9-19.18 55.5-14.82Z"/><path d="M374.83 266.57a19.58 19.58 0 0 1-6.64-1.32 27.61 27.61 0 0 1-10.28-6.79 4.28 4.28 0 0 1-2 2.27c-5.84 3.3-18.44-3.17-26.26-11.18a6.27 6.27 0 0 1-3.44 4.19c-3.67 1.61-9.18-.43-16.37-6.06s-15.28-15.07-17.14-17.29a199.74 199.74 0 0 1-21.38-1.65c-15.89-2.16-27-5.94-33-11.25-4.34-3.84-5.89-7.33-4.59-10.36 4.05-9.48 35.44-8.89 61.06-6.72 10.94 1.38 46.87 6.14 49.87 9.51s30.55 42.38 35 49.61c2.25 3.63 0 5.5-.69 6a7.74 7.74 0 0 1-4.14 1.04Zm-18.31-13.11a1.28 1.28 0 0 1 1.05.54c6.62 9.27 17.47 11.11 20.09 9.37.29-.19 1-.69-.07-2.48-4.95-8-32.1-46.25-34.76-49.25-2-1.86-26.08-5.87-48.23-8.66-50.35-4.25-57.45 2.88-58.43 5.17s1.58 5.32 3.92 7.4c13.49 11.92 52.88 12.25 53.27 12.26a1.29 1.29 0 0 1 1 .47c.09.11 9.37 11.3 17.12 17.37 6.12 4.78 11.12 6.87 13.74 5.72 1.38-.6 2.19-2.19 2.39-4.71a1.3 1.3 0 0 1 2.28-.74c8.7 10.24 21.05 14.67 24.8 12.56.36-.2 1.44-.81.6-3.31a1.31 1.31 0 0 1 .64-1.57 1.38 1.38 0 0 1 .59-.14Z"/><path fill="#fff" d="M314.88 211.33s19.67 3.81 41.64 43.43Z"/><path d="M356.52 256.05a1.3 1.3 0 0 1-1.13-.67c-21.43-38.64-40.57-42.74-40.76-42.78a1.29 1.29 0 1 1 .5-2.54c.82.16 20.51 4.38 42.52 44.07a1.3 1.3 0 0 1-.5 1.76 1.31 1.31 0 0 1-.63.16Z"/><path fill="#fff" d="M295.67 216.52s15.6 3.51 33.23 30.24Z"/><path d="M328.9 248.06a1.29 1.29 0 0 1-1.08-.59c-8.92-13.53-17.28-20.88-22.71-24.67-5.87-4.09-9.69-5-9.73-5a1.29 1.29 0 0 1 .57-2.52c.66.15 16.32 3.94 34 30.79a1.29 1.29 0 0 1-.37 1.79 1.24 1.24 0 0 1-.68.2Z"/><path fill="#fff" d="M193 99.64s12.54 35.92 43.07 61 43.06 26.43 51.24 29 60.48 6.43 67 9.69c9.12 4.52 21.62 21.77 41.18 40 7.27 6.77-3 14-17.1 5-13.53-8.6-31.71-25.4-31.71-25.4s-122.9 36.65-136.91-3.87c-9-26.07-24.45-63.18-91.5-115.45Z"/><path d="M229.09 234.61a1.39 1.39 0 0 1-.35 0c-.52-.14-12.89-3.68-20.11-18.92-1.15-2.44-2.31-5-3.53-7.7-7.2-15.92-16.1-35.68-37.1-60.12a1.29 1.29 0 0 1 2-1.68c21.16 24.72 30.2 44.67 37.46 60.69 1.22 2.7 2.38 5.24 3.52 7.66 6.68 14.12 18.34 17.5 18.46 17.53a1.29 1.29 0 0 1-.34 2.54ZM390.54 249.7c-4.05 0-8.78-1.69-12.81-4.25-12.4-7.88-28.34-24.11-31.44-27.32l-52.64 12.23a1.29 1.29 0 0 1-.58-2.52l53.35-12.4a1.29 1.29 0 0 1 1.22.37c.19.19 18.24 19 31.48 27.46 8.34 5.3 14.75 4.22 16.63 1.76 1.05-1.38.64-3.16-1.11-4.75-8-7.36-15-14.82-21.12-21.41-8.11-8.69-14.51-15.56-19.79-18.4-3.4-1.82-22.5-3.93-37.84-5.62-13.57-1.49-25.28-2.78-29-4-.94-.3-1.95-.58-3-.89-8.55-2.41-21.48-6.05-48.64-28.37a139.27 139.27 0 0 1-26.43-29.32 1.29 1.29 0 0 1 2.14-1.45 136.65 136.65 0 0 0 25.93 28.77c26.75 22 39.36 25.53 47.7 27.88 1.11.31 2.14.6 3.11.91 3.47 1.1 15.62 2.44 28.49 3.86 17.18 1.89 34.94 3.85 38.78 5.92 5.66 3 12.19 10 20.46 18.91 6.1 6.55 13 14 21 21.26 2.76 2.52 3.31 5.75 1.42 8.23-1.71 2.22-4.32 3.14-7.31 3.14Z"/><path fill="#fff" d="M212.59 221c-14-28 29.69-43.81 42.66-17 9.13 18.83 32 33 47.11 40.15 19.34 9.17 24.71 32.58 8.22 23.95-17.89-9.36-83.58-18.18-97.99-47.1Z"/><path d="M316.59 271.27a15 15 0 0 1-6.61-2c-4.75-2.49-13.34-4.73-23.29-7.34-27.85-7.28-66-17.26-77.52-44.88a1.29 1.29 0 1 1 2.38-1c11 26.44 48.47 36.23 75.8 43.38 10.1 2.64 18.82 4.92 23.83 7.55 3.18 1.66 5.71 2.15 6.94 1.35.91-.6 1-1.94.95-3-.33-4.94-6.05-14.72-17.27-20-14.67-6.95-36.58-20.58-36.77-29.66a1.3 1.3 0 1 1 2.59-.06c.14 6.66 18.43 19.4 35.29 27.39 11.15 5.27 18.28 15.42 18.75 22.19.16 2.41-.59 4.29-2.13 5.3a5.3 5.3 0 0 1-2.94.78Z"/><path fill="#d8e5f3" d="M712.51 580.09H252.32c-11.87 0-23.19-9.62-25.28-21.49l-52.79-299.39c-2.1-11.87 5.83-21.49 17.7-21.49h460.19c11.87 0 23.18 9.62 25.28 21.49l52.79 299.39c2.09 11.87-5.83 21.49-17.7 21.49Z"/><path d="M712.51 581.79H252.32c-12.64 0-24.73-10.27-27-22.89l-52.75-299.4a20.08 20.08 0 0 1 4.08-16.7A19.56 19.56 0 0 1 192 236h460.14c12.63 0 24.72 10.27 27 22.89l52.79 299.4A20.1 20.1 0 0 1 727.8 575a19.52 19.52 0 0 1-15.29 6.79ZM192 239.42a16.14 16.14 0 0 0-12.74 5.58 16.72 16.72 0 0 0-3.34 13.92l52.79 299.4c1.95 11.07 12.54 20.08 23.61 20.08h460.19a16.17 16.17 0 0 0 12.68-5.57 16.7 16.7 0 0 0 3.34-13.92L675.74 259.5c-2-11.07-12.54-20.08-23.6-20.08Z"/><path fill="#fff" d="M645 539.47H293.94c-9.06 0-17.69-7.34-19.29-16.39l-40.28-228.42c-1.59-9.06 4.45-16.4 13.51-16.4H599c9 0 17.69 7.34 19.28 16.4l40.28 228.42c1.58 9.05-4.47 16.39-13.56 16.39Z"/><path fill="#8abae7" d="M598.76 580.09h-189l58-206H624a24.81 24.81 0 0 1 23.89 31.54Z"/><circle cx="304.63" cy="456.83" r="23.9" fill="#fff" transform="rotate(-20.91 304.54 456.727)"/><path d="M304.63 482.43a25.61 25.61 0 1 1 25.6-25.6 25.64 25.64 0 0 1-25.6 25.6Zm0-47.8a22.2 22.2 0 1 0 22.2 22.2 22.22 22.22 0 0 0-22.2-22.2Z"/><path fill="#fff" d="M487.14 435.2s54.94 7.47 65.8 25.79 30.54 92.29 29.86 101.12-11.54 17.64-11.54 17.64h-247s-19.91-126 67.37-139.92c75.8-12.09 95.51-4.63 95.51-4.63Z"/><path d="M571.26 581.45h-247a1.71 1.71 0 0 1-1.68-1.43c-.05-.32-4.95-32.17 1-65.31 7.9-44.27 31.35-70.75 67.82-76.56 72.31-11.53 93.83-5.4 96.2-4.61 4 .56 55.91 8.11 66.86 26.59 10.77 18.17 30.85 92.27 30.09 102.11-.72 9.44-11.69 18.45-12.16 18.83a1.67 1.67 0 0 1-1.13.38Zm0-1.7Zm-245.54-1.7h244.91c2-1.73 9.93-9.06 10.47-16.07.62-8.09-18.7-81.68-29.62-100.12-10.32-17.41-64-24.9-64.57-25a2.22 2.22 0 0 1-.37-.09c-.3-.11-20.79-7.07-94.66 4.71-35.39 5.64-57.25 30.44-65 73.72-5.12 28.66-2.02 56.33-1.16 62.85Z"/><path fill="#fff" d="M496.61 501.71 512.9 556l-74.11-19.68 57.82-34.61z"/><path d="M512.9 557.7a1.67 1.67 0 0 1-.44-.06L438.35 538a1.7 1.7 0 1 1 .88-3.28l71.17 18.89L495 502.2a1.7 1.7 0 1 1 3.26-1l16.29 54.29a1.71 1.71 0 0 1-1.63 2.19Z"/><path fill="#4666c9" d="M390.74 478.98H289.97l27.15 100.77h100.77l-27.15-100.77z"/><path fill="#fff" d="m443 579.75-56.94-.34s-6.11-24.77 18.66-35.29l-3.79-6.44c29.92-16.97 55.24 10.18 42.07 42.07Z"/><path fill="#8abae7" d="M380.34 479c5.38-33.26-19.41-17.2-22.13 0Z"/><path d="M380.34 480.68h-22.13a1.7 1.7 0 0 1-1.29-.6 1.75 1.75 0 0 1-.39-1.37c1.34-8.47 8-17.49 14.82-20.11 3-1.14 5.75-.87 7.77.78 3.59 2.92 4.56 9.6 2.9 19.87a1.7 1.7 0 0 1-1.68 1.43Zm-20-3.41h18.57c1.56-11.06-.79-14.34-1.9-15.25s-2.56-.95-4.42-.24c-4.7 1.79-10.4 8.22-12.28 15.49Z"/><path fill="#fff" d="M376.16 459.63s-41.45-9.5-89.92 6.45c-25.35 8.34-4 47.39-47.84 75 0 0 19.85 24 91.33 14.93 23.42-13.58 16.74-89.59 46.43-96.38Z"/><path d="M299.29 559.75c-47 0-61.5-16.75-62.2-17.6a1.69 1.69 0 0 1-.37-1.35 1.72 1.72 0 0 1 .77-1.17c23.9-15 27.95-33.64 31.2-48.58 2.64-12.13 4.92-22.6 17-26.58 48.36-15.92 90.41-6.59 90.83-6.49a1.7 1.7 0 0 1 0 3.31c-15 3.43-20.33 26.91-25.48 49.61-4.67 20.55-9.07 40-20.47 46.57a1.87 1.87 0 0 1-.64.22 245.57 245.57 0 0 1-30.64 2.06Zm-58.17-18.42c5.61 4.81 28.88 20.44 88.05 13 9.91-6.07 14.31-25.46 18.57-44.21 4.72-20.83 9.6-42.29 22.28-49.86a188.27 188.27 0 0 0-83.25 7.41c-10.25 3.37-12.14 12.05-14.76 24.07-3.3 15.26-7.39 34.01-30.89 49.59Z"/><path fill="#fff" d="M456.28 406.7c23.59 0 30.86 28.5 30.86 28.5L443 480l-20.36-20.36L397.53 480s-37.17-73.3 58.75-73.3Z"/><path d="M397.53 481.69h-.35a1.71 1.71 0 0 1-1.16-.9 76.3 76.3 0 0 1-5.91-17.79c-2.77-13.51-1.26-25.51 4.38-34.69C404 412.85 424.79 405 456.28 405c24.63 0 32.43 29.49 32.5 29.78a1.7 1.7 0 0 1-.43 1.62l-44.14 44.79a1.7 1.7 0 0 1-1.2.5 1.58 1.58 0 0 1-1.21-.49l-19.28-19.28-23.92 19.39a1.67 1.67 0 0 1-1.07.38Zm25.11-23.76a1.71 1.71 0 0 1 1.21.5L443 477.58l42.23-42.86c-1.48-4.72-9.23-26.32-28.95-26.32-30.23 0-50 7.31-58.89 21.72-10.68 17.39-2.14 40.42.78 47.17l23.4-19a1.73 1.73 0 0 1 1.07-.36Z"/><path d="M427.18 444.62a31.87 31.87 0 0 1-6-.54c-6.27-1.2-10.54-4.27-12-8.66s.07-9.41 4.34-14.16c4-4.48 10.11-8.24 17.1-10.58s14.08-3 20-1.88c6.28 1.19 10.54 4.27 12 8.66 1.48 4.38-.06 9.41-4.34 14.15-4 4.48-10.11 8.24-17.09 10.59a44.7 44.7 0 0 1-14.01 2.42Zm17.5-33a41.34 41.34 0 0 0-13 2.24c-6.44 2.17-12 5.59-15.65 9.64-3.42 3.79-4.71 7.63-3.65 10.8s4.42 5.44 9.43 6.4c5.35 1 11.86.4 18.3-1.76s12-5.59 15.64-9.64c3.42-3.79 4.72-7.63 3.65-10.8-1.06-3.17-4.41-5.45-9.43-6.4a28.56 28.56 0 0 0-5.29-.44Z"/><ellipse cx="426.85" cy="367.2" fill="#fff" rx="48.38" ry="68"/><path d="M426.85 436.9c-27.61 0-50.08-31.26-50.08-69.7s22.47-69.7 50.08-69.7 50.09 31.27 50.09 69.7-22.47 69.7-50.09 69.7Zm0-136c-25.74 0-46.68 29.75-46.68 66.3s20.94 66.3 46.68 66.3 46.69-29.74 46.69-66.3-20.95-66.3-46.69-66.3Z"/><ellipse cx="461.39" cy="355.35" fill="#8abae7" rx="14.93" ry="31.44"/><path fill="#f57a3e" d="M384 401.62c-10.29 0-18.66-12.33-18.66-27.49s8.37-27.49 18.66-27.49 18.67 12.33 18.67 27.49-8.42 27.49-18.67 27.49Zm0-51.62c-8.42 0-15.26 10.81-15.26 24.09s6.84 24.09 15.26 24.09 15.27-10.81 15.27-24.09S392.38 350 384 350Z"/><path fill="#f57a3e" d="M417.89 401.62c-10.29 0-18.66-12.33-18.66-27.49s8.37-27.49 18.66-27.49 18.67 12.33 18.67 27.49-8.37 27.49-18.67 27.49Zm0-51.58c-8.41 0-15.26 10.81-15.26 24.09s6.85 24.09 15.26 24.09 15.27-10.81 15.27-24.09S426.31 350 417.89 350Z"/><path fill="#fff" d="M389.28 324.37s47.84-3.63 86 28.95L484.4 295s-24-33.93-75.56-23.08Z"/><path d="M475.24 355a1.69 1.69 0 0 1-1.11-.41c-37.13-31.7-84.25-28.59-84.72-28.53a1.71 1.71 0 0 1-1.49-.67 1.69 1.69 0 0 1-.23-1.62l19.56-52.48a1.7 1.7 0 0 1 1.24-1.07c52.07-11 77.05 23.41 77.3 23.75a1.74 1.74 0 0 1 .29 1.25l-9.16 58.36a1.71 1.71 0 0 1-1.09 1.33 1.8 1.8 0 0 1-.59.09Zm-82-32.46c12.26 0 49.49 2.26 80.74 27.54l8.58-54.69c-3.3-4.17-26.81-31.24-72.49-22.05l-18.35 49.22Z"/><path fill="#fff" d="M485.82 382.11c-3.51 10.29-13 16.37-21.12 13.59s-11.93-13.38-8.42-23.67 13-16.37 21.13-13.59 11.92 13.38 8.41 23.67Z"/><path fill="#fff" d="M456.28 372c3.51-10.29 13-16.37 21.13-13.59s11.92 13.38 8.41 23.67-13 16.37-21.12 13.59Z"/><path d="M468.81 398.08a14.55 14.55 0 0 1-4.66-.77 1.7 1.7 0 1 1 1.1-3.22 12.43 12.43 0 0 0 10.83-1.72 21.78 21.78 0 0 0 8.31-24.37 12.45 12.45 0 0 0-7.53-8c-7.26-2.47-15.77 3.15-19 12.53a1.7 1.7 0 1 1-3.22-1.1c3.81-11.16 14.26-17.73 23.28-14.65a15.77 15.77 0 0 1 9.64 10.06 25.15 25.15 0 0 1-9.67 28.34 16.78 16.78 0 0 1-9.08 2.9Z"/><path fill="#8abae7" d="M433.17 307.71a1.51 1.51 0 0 1-.42 0 1.7 1.7 0 0 1-1.24-2.06L434.9 292a1.7 1.7 0 0 1 3.3.83l-3.38 13.61a1.7 1.7 0 0 1-1.65 1.27Z"/><path fill="#8abae7" d="M441.67 302.6a1.84 1.84 0 0 1-.41-.05l-13.62-3.39a1.7 1.7 0 0 1 .82-3.3l13.62 3.39a1.7 1.7 0 0 1-.41 3.35Z"/><path d="M443 581.45a1.7 1.7 0 0 1-1.55-2.39c6-13.36 3.76-29.38-5.27-38.09-8.28-8-20.53-8.62-34.5-1.77a1.7 1.7 0 1 1-1.5-3.05c20.71-10.16 32.92-2.88 38.36 2.37 10 9.68 12.55 27.31 6 41.93a1.69 1.69 0 0 1-1.54 1Z"/><path d="M385.77 581.45a1.69 1.69 0 0 1-1.67-1.39c-1.78-9.71 0-18.7 5.1-26 5.4-7.71 14-12.92 24.34-14.67a1.7 1.7 0 0 1 .57 3.36c-9.4 1.59-17.25 6.3-22.12 13.26-4.58 6.54-6.15 14.64-4.55 23.43a1.7 1.7 0 0 1-1.36 2Z"/><path d="M395.16 581.17a1.7 1.7 0 0 1-1.67-1.4c0-.24-4-23.86 16.7-28.93a1.7 1.7 0 1 1 .81 3.3c-7.34 1.8-11.95 6.48-13.72 13.91a31 31 0 0 0-.44 11.13 1.71 1.71 0 0 1-1.38 2Z"/><path d="M405.06 581.79a1.71 1.71 0 0 1-1.63-1.21c-1.49-5-1.36-15.53 9.79-19.73a1.7 1.7 0 0 1 1.2 3.19c-10.95 4.12-7.87 15.1-7.73 15.57a1.7 1.7 0 0 1-1.15 2.11 1.59 1.59 0 0 1-.48.07ZM416 581.44a1.67 1.67 0 0 1-1.3-.62 6.1 6.1 0 0 1-1.12-4.57c.37-2.34 2-4.5 4.92-6.4a1.7 1.7 0 1 1 1.86 2.84c-2 1.31-3.18 2.71-3.41 4a2.72 2.72 0 0 0 .41 2 1.72 1.72 0 0 1-.3 2.38 1.76 1.76 0 0 1-1.06.37ZM419.39 534.5a1.7 1.7 0 0 1-1.7-1.7c0-38.11 3.23-73 3.26-73.32a1.7 1.7 0 0 1 3.39.31c0 .35-3.25 35.07-3.25 73a1.7 1.7 0 0 1-1.7 1.71Z"/><path fill="#4666c9" d="m308.36 439.49 34.93-36.05a5 5 0 0 1 7-.17 5 5 0 0 1 .2 7.07L316 446.74a5 5 0 0 1-6.81.4l-.43-.35a5 5 0 0 1-.4-7.3Z"/><path fill="#8abae7" d="M312.84 543.5c-30.7 0-45.08-8.83-45.77-9.26a1.7 1.7 0 1 1 1.82-2.88c.18.12 19.13 11.64 59.49 8a1.7 1.7 0 1 1 .3 3.38c-5.68.53-10.97.76-15.84.76ZM309.05 527a220.09 220.09 0 0 1-25-1.32 1.7 1.7 0 0 1 .43-3.38 227.48 227.48 0 0 0 48.45 0 1.7 1.7 0 1 1 .39 3.38 214.57 214.57 0 0 1-24.27 1.32ZM284.27 481.69a1.7 1.7 0 0 1-.53-3.31c.36-.12 36.05-11.53 67.19-8.64a1.7 1.7 0 0 1-.31 3.39c-30.43-2.83-65.48 8.37-65.83 8.48a1.57 1.57 0 0 1-.52.08ZM280.72 497.92a1.7 1.7 0 0 1-.46-3.34c.36-.1 36-10.18 63.13-8.82a1.7 1.7 0 0 1-.17 3.4c-26.54-1.33-61.68 8.59-62 8.69a1.49 1.49 0 0 1-.5.07ZM286.64 510.87a1.7 1.7 0 0 1-.26-3.38c1.39-.22 34.39-5.34 52.74-2.84a1.7 1.7 0 1 1-.45 3.37c-17.87-2.43-51.43 2.78-51.76 2.83a1.23 1.23 0 0 1-.27.02Z"/><path fill="#4666c9" d="M225.93 261.4a14.07 14.07 0 0 0-13.3-11.31c-6.25 0-10.42 5.06-9.32 11.31a14.08 14.08 0 0 0 13.31 11.31c6.24 0 10.38-5.06 9.31-11.31Z"/><ellipse cx="256.34" cy="261.4" fill="#f57a3e" rx="10.36" ry="12.35" transform="rotate(-47.52 256.338 261.398)"/><ellipse cx="298.05" cy="261.4" fill="#8abae7" rx="10.36" ry="12.35" transform="rotate(-47.52 298.045 261.4)"/><path d="M712.51 581.79H252.32c-12.64 0-24.73-10.27-27-22.89l-52.75-299.4a20.08 20.08 0 0 1 4.08-16.7A19.56 19.56 0 0 1 192 236h460.14c12.63 0 24.72 10.27 27 22.89l52.79 299.4A20.1 20.1 0 0 1 727.8 575a19.52 19.52 0 0 1-15.29 6.79ZM192 239.42a16.14 16.14 0 0 0-12.74 5.58 16.72 16.72 0 0 0-3.34 13.92l52.79 299.4c1.95 11.07 12.54 20.08 23.61 20.08h460.19a16.17 16.17 0 0 0 12.68-5.57 16.7 16.7 0 0 0 3.34-13.92L675.74 259.5c-2-11.07-12.54-20.08-23.6-20.08Z"/><path fill="#fff" d="M764.78 460.68c-22.07 34.34-52.49 36.83-64.69 40.26-26.46 7.43-36 34.73-66 50.95-11.64 6.3-3.27 13.09 10.87 11 12.77-1.87 48-24.82 48-24.82s-28.53 45.7-46 51.83-45.07 16.31-51.24 26.85 3.63 10.91 10.17 7.27 24-7.27 24-7.27 29.43 6.18 34.16 4 13.81-8 13.81-8 14.53-.37 20.35-2.91 61-44.7 67.23-53.79 12.46-20.22 35.53-43Z"/><path d="M598.57 627.4a6.51 6.51 0 0 1-4.77-1.65c-1.37-1.4-2.33-4.21.85-9.64 6-10.16 29.59-19.56 51.93-27.42 13.42-4.69 34.16-34.39 42.08-46.33-10.27 6.43-33.4 20.34-43.49 21.82-8.85 1.3-16.26-.75-17.63-4.87-.56-1.69-.53-5 6-8.55 13.72-7.42 23-17 31.91-26.37 10.18-10.6 19.8-20.61 34.34-24.7 1.63-.45 3.52-.88 5.72-1.38 14.71-3.33 39.33-8.92 58.23-38.33a1.3 1.3 0 0 1 2.18 1.4c-19.48 30.3-45.73 36.26-59.84 39.45-2.16.49-4 .92-5.59 1.36-13.86 3.89-22.81 13.21-33.17 24-8.66 9-18.48 19.23-32.55 26.84-3.47 1.88-5.24 3.92-4.73 5.46.81 2.43 6.7 4.32 14.8 3.13 12.34-1.81 47.13-24.39 47.48-24.62a1.3 1.3 0 0 1 1.81 1.77c-1.18 1.88-29 46.15-46.64 52.36-13.25 4.66-44.28 15.58-50.56 26.29-1.81 3.09-2.26 5.47-1.23 6.52 1.46 1.5 6 1 9.66-1 6.64-3.69 23.63-7.25 24.35-7.4a1.19 1.19 0 0 1 .53 0c11.22 2.35 30.2 5.55 33.36 4.09 4.59-2.12 13.56-7.86 13.65-7.91a1.32 1.32 0 0 1 .67-.21c.14 0 14.35-.39 19.86-2.8 6-2.62 60.91-44.83 66.68-53.33.75-1.1 1.5-2.23 2.28-3.4 5.82-8.77 13-19.69 33.41-39.78a1.29 1.29 0 1 1 1.82 1.84c-20.17 19.91-27.32 30.7-33.07 39.37-.79 1.18-1.54 2.32-2.3 3.43-6.17 9.07-61.44 51.47-67.78 54.24-5.53 2.42-18.13 2.93-20.48 3-1.64 1-9.34 5.89-13.66 7.89-4.79 2.2-29.15-2.7-34.7-3.85-2.19.46-17.49 3.81-23.36 7.07a17.4 17.4 0 0 1-8.05 2.21Z"/><path fill="#fff" d="M629.93 616.76s35-11.4 40-15.09 27.78-30.6 27.78-30.6Z"/><path d="M629.93 618.06a1.3 1.3 0 0 1-.4-2.53c9.67-3.15 35.65-12 39.6-14.9 4.81-3.57 27.33-30.12 27.56-30.39a1.29 1.29 0 0 1 2 1.67c-.93 1.1-22.94 27.05-28 30.79s-38.9 14.82-40.34 15.29a1.12 1.12 0 0 1-.42.07Z"/><path fill="#fff" d="m677.9 612.77 35.44-30Z"/><path d="M677.9 614.06a1.29 1.29 0 0 1-.84-2.28l35.45-30a1.3 1.3 0 0 1 1.67 2l-35.45 30a1.26 1.26 0 0 1-.83.28Z"/><circle cx="728.54" cy="243.4" r="166.89" fill="#79a2e4" transform="rotate(-45 728.53 243.403)"/><path fill="#292739" d="M734 49.73C840.44 52.3 925 141 922.4 247.48s-91.28 191-197.75 188.43a3.85 3.85 0 0 1 .18-7.69c102.23 2.47 187.41-78.7 189.88-180.93S836 59.89 733.78 57.42 546.37 136.11 543.9 238.35a3.84 3.84 0 1 1-7.68-.19c2.57-106.47 91.28-191 197.78-188.43Z"/><circle cx="728.54" cy="243.4" r="138.05" fill="#fff" transform="rotate(-45 728.53 243.403)"/><path fill="#fff" stroke="#292739" stroke-linecap="round" stroke-linejoin="round" stroke-width="8.68" d="m818.53 275.79-59.32-1.43-1.44 59.32-54.76-1.32 1.43-59.32-59.32-1.43 1.32-54.76 59.32 1.43 1.44-59.32 54.76 1.32-1.43 59.32 59.32 1.43-1.32 54.76z"/><path fill="#8abae7" d="m742.98 178.36-1.43 59.32 59.32 1.43-.42 17.71-59.32-1.43-1.44 59.32-17.7-.43 1.43-59.32-59.32-1.43.42-17.71 59.33 1.43 1.43-59.32 17.7.43z"/></g></svg>