<svg xmlns="http://www.w3.org/2000/svg" enable-background="new 0 0 3000 3000" viewBox="0 0 3000 3000"><path fill="#eee" d="M508.6,531.8c0,0-181.5,243.6-483.6,311.8c0,0,340.7,214.9,816.7-148.2L643.9,526.7L508.6,531.8z"/><path fill="#eee" d="M1456.6,810.4c20.8,22.5,13.8,58.8-13.9,71.9C1109.4,1040,873,1092.5,710,1064.9c-2.4-0.2-3.5-0.5-3.5-0.5
					C837.6,1053.6,954.7,961,954.7,961c-310.6,79.8-492.9-7.3-504-12.9c-0.3-0.1-0.4-0.3-0.6-0.2c201.4-19.4,374-125.3,374-125.3
					c-69.7,1.7-127.5-0.9-175.3-5.9c-186.4-19.5-219.6-77.4-219.6-77.4C635,716,687.7,688.6,687.7,688.6
					c-127.8,3.5-230.2-7.3-310.7-24.1c-172.5-35.8-244.6-97.9-248.9-101.8c-0.3-0.1-0.3-0.1-0.3-0.1
					C626,295.8,1067.3,388.6,1456.6,810.4z"/><path fill="#e0e0e0" d="M1012.5,927.6c-137.8,152.2-278.5,140.7-302.5,137.3c-2.4-0.2-3.5-0.5-3.5-0.5
				C837.6,1053.6,954.7,961,954.7,961c-310.6,79.8-492.9-7.3-504-12.9C743.6,1003.3,1012.5,927.6,1012.5,927.6z"/><path fill="#e0e0e0" d="M743.9,653.9c0,0-92.2,142.6-314.6,85.3C635,716,687.7,688.6,687.7,688.6c-127.8,3.5-230.2-7.3-310.7-24.1
				c-172.5-35.8-244.6-97.9-248.9-101.8C141.2,567.9,486.8,701.5,743.9,653.9z"/><path fill="#eee" d="M2452.1,428.6c0,0,214.3,215.4,522.9,240.1c0,0-306.8,261.1-829.4-30.8l171.8-195.1L2452.1,428.6z"/><path fill="#eee" d="M1553.2,838.9c-17.4,25.2-5.3,60.2,24,69.2c352.2,108.8,593.7,127.2,751.1,76.8c2.3-0.5,3.4-0.9,3.4-0.9
					c-131.3,7.9-260.3-67.2-260.3-67.2c318.7,34.9,486.9-77.1,497.1-84.3c0.3-0.2,0.3-0.4,0.6-0.3c-202.2,9.4-388-70.9-388-70.9
					c69.2-8.2,126.1-18.9,172.7-30.7c181.7-45.8,206.4-107.8,206.4-107.8c-207,6.1-263-13.5-263-13.5
					c127-14.6,226.9-39.8,304.2-67.9c165.7-59.9,228.2-131.7,231.9-136.1c0.3-0.2,0.3-0.2,0.3-0.2
					C2302.4,211.6,1878.7,366.2,1553.2,838.9z"/><path fill="#e0e0e0" d="M2009.4,891.9c158,131.1,295.7,99.7,318.9,93c2.3-0.5,3.4-0.9,3.4-0.9c-131.3,7.9-260.3-67.2-260.3-67.2
				c318.7,34.9,486.9-77.1,497.1-84.3C2286.3,928.7,2009.4,891.9,2009.4,891.9z"/><path fill="#e0e0e0" d="M2236.5,582.9c0,0,111.5,128.1,323.5,39.8c-207,6.1-263-13.5-263-13.5c127-14.6,226.9-39.8,304.2-67.9
				c165.7-59.9,228.2-131.7,231.9-136.1C2820.8,412.2,2497.7,593.4,2236.5,582.9z"/><ellipse cx="1583.8" cy="2760" fill="#eee" rx="656.5" ry="66.7"/><g><path fill="#f7c19b" d="M1014.1,770.3L969.4,730c-3.4-3.1-5.7-7.3-6.3-11.8l-5.8-38.7c-0.6-4.2-4.1-7.3-8.3-7.6l0,0
				c-4.6-0.3-8.7,2.9-9.4,7.5l-4.8,29.4c0,0-30.1-24-32.8-61.5c-0.5-7.4-9.2-10.9-14.5-5.8c-7.1,6.8-15.4,15.8-22.3,26
				c-18.4,27.1-10.9,64.1,16,82.7c11,7.6,25.2,16.1,39.6,21.2c16.2,5.7,31,15,43.6,26.8l14.6,13.7L1014.1,770.3z"/><path fill="#f7c19b" d="M2106.7,882.2l48.4-35.8c3.7-2.7,6.4-6.7,7.5-11.2l9.5-37.9c1-4.1,4.8-6.9,9-6.8l0,0
				c4.6,0.1,8.4,3.8,8.7,8.4l1.9,29.7c0,0,32.3-21,38.7-58c1.3-7.3,10.2-10,15-4.4c6.4,7.5,13.8,17.2,19.6,28
				c15.6,28.8,4.6,64.8-24,80.7c-11.7,6.5-26.7,13.6-41.5,17.2c-16.7,4.1-32.3,11.9-46,22.4l-15.9,12.2L2106.7,882.2z"/><path fill="#f7c19b" d="M1583.8,735.6c-35.9,55.9-65.6,48.8-89.5-18l1.3-66.2l86.2,10L1583.8,735.6z"/><path fill="#f7c19b" d="M1635.8,535c0,0,27.7,90-2.3,139.9c-15.6,25.8-48.1,35.2-75,22.4c-20.6-9.8-50.7-28.3-73.8-59.9
				c-2-2.7,6.7-83,6.7-83l19.7-26.8l72.2-7.6L1635.8,535z"/><path fill="#333" d="M1557.5,605.9l-9.9-31.6c0,0,9.3,4,20.7,6.2c16.6,3.1,32.5-8.2,35.6-25.1l0.8-4.2c0,0,73.6-1.5,48.4-69.2
				c-3.2-8.6-10.1-15.2-18.6-18.1c-14.8-5-41.2-7.8-77.2,12.1c-10.5,5.8-23.4,3.6-34.4-1c-11.9-5-30.3-4.9-43.9,31
				c-2.4,6.3-5.7,12.1-10,17.2c-12.1,14.9-48.4,70.6,23.5,140.6c2,2,5.4,0.5,5.3-2.3c-0.3-14.4,0.3-45.6,9.9-61.8
				c5.9-9.9,19.9-10.5,26.6-1l10,14.1c2.3,3.3,6.8,4.2,10.2,1.9l0,0C1557.3,612.7,1558.6,609.2,1557.5,605.9z"/><polygon fill="#f7c19b" points="1376.3 2396.6 1454.8 2387.8 1441.3 2266 1362.9 2274.8"/><path fill="#333" d="M1453.8,2406.7l13.7,14.2l3.8,4.7c2.2,2.7,3.6,6.1,3.9,9.6l1.5,13.6c0.4,3.4-2,6.4-5.3,6.8l-14.8,1.7
						l-0.4-3.9l-8,0.9l0.4,3.8l-17.8,2.4l-0.3-3.1l-8.4,0.9l0.4,3.4l-20,2.1l-11.7-12.1c-15.4,6.5-29.1,13.8-40.5,22.4
						c-0.5,0.5-20.7,2.9-20.8,2.3l-0.3-3.1l-7.9,0.9l0.3,3.1c-6.5,1.2-12.9,1.9-19.3,2.2l-0.4-3.2l-7.7,0.9l0.3,2.6
						c-6.8,0.7-12.8,0.7-18.1-0.2l-0.3-2.5l-7.8-0.1l0.2,2.2c-4.6-0.1-8.9-0.9-13.1-2.1l0.1-2.6l-7.2-2.1l-1.1,2.7
						c-7.8-2.2-14.9-4.7-21.2-7.6c0,0-2.4-10.3,3.9-11.5l80.2-18.2l102.7-26.3L1453.8,2406.7z"/><path fill="#58595b" d="M1468.2,2397.5c0.6,5.1,0.6,10.2,0.1,15.3l-0.8,8c-31.3,2.9-60.2,8.6-85.4,18.2c-5.2,2-10.3,4.2-15.3,6.5
						c-42.2,20.4-88,23-136.8,10.2l-0.8-7.4c-0.6-5.5,2.7-10.7,7.9-12.4l34-11.1c6-2,12.2-3.8,18.2-5.6
						c17.1-5.2,32.4-14.1,46.3-26.1c0.8-0.7,1.5-1.3,2.3-2c0.4-0.4,0.9-0.8,1.3-1.2c1.8,7.6,10.2,16.3,10.6,16.8
						c0.3,0.3,0.6,0.4,0.9,0.3c0.2,0,0.3-0.1,0.5-0.3c0.4-0.4,0.4-1,0-1.4c-3-3.1-9.5-11.1-10.3-17c0.3-0.3,0.6-0.6,0.9-0.9
						c5.9-2.4,16.5-1.1,20.8-0.2c0.5,0.1,1-0.2,1.2-0.8c0.1-0.5-0.2-1.1-0.8-1.2c-0.6-0.1-10.6-2.1-18.3-0.7
						c1.1-1.1,2.2-2.3,3.3-3.4c0.7-0.7,1.4-1.5,2-2.2c1.5-1.6,2.9-3.3,4.3-5c0.6-0.7,1.2-1.4,1.7-2.1c2.1-2.5,4.1-5.2,6.1-7.9
						c5-0.2,11.6,2.6,14.4,4.1c0.5,0.3,1.1,0.1,1.3-0.4c0.3-0.5,0.1-1.1-0.4-1.3c-0.4-0.2-7.6-3.9-13.9-4.3c0.8-1.1,1.6-2.2,2.4-3.3
						c1.3-1.8,3.2-3.1,5.4-3.4l80.6-12.1c3-0.4,5.7,1.8,5.9,4.8l0.8,9.8c0.6,7.2,2.2,14.3,4.9,21.1
						C1465.9,2384.8,1467.5,2391.1,1468.2,2397.5z"/><path fill="#231f20" d="M1351.2,2406.7c-0.1,0.1-0.3,0.2-0.5,0.3c-0.3,0.1-0.7,0-0.9-0.3c-0.4-0.5-8.8-9.2-10.6-16.8
						c0.6-0.5,1.1-1,1.7-1.6c0.8,5.9,7.3,13.9,10.3,17C1351.6,2405.6,1351.6,2406.3,1351.2,2406.7z"/><path fill="#231f20" d="M1363.8,2386.4c-0.1,0.5-0.6,0.9-1.2,0.8c-4.4-0.9-14.9-2.2-20.8,0.2c1-0.9,1.9-1.9,2.9-2.9
						c7.8-1.4,17.7,0.6,18.3,0.7C1363.6,2385.3,1363.9,2385.9,1363.8,2386.4z"/><path fill="#303030" d="M1377.8,2367.6c-0.2,0.5-0.8,0.7-1.3,0.4c-2.8-1.5-9.4-4.2-14.4-4.1c0.5-0.7,1-1.3,1.4-2
						c6.3,0.4,13.4,4,13.9,4.3C1377.9,2366.5,1378.1,2367.1,1377.8,2367.6z"/><path fill="#414042" d="M1468.2,2397.5c0.6,5.1,0.6,10.2,0.1,15.3l-0.8,8c-31.3,2.9-60.2,8.6-85.4,18.2l-43.2-23.7
						c-2.5-1.4-3.3-4.6-1.8-7l34.2-53.1l80.6-12.1c3-0.4,5.7,1.8,5.9,4.8l0.8,9.8c0.6,7.2,2.2,14.3,4.9,21.1
						C1465.9,2384.8,1467.5,2391.1,1468.2,2397.5z"/><polygon fill="#58595b" points="1373.3 2358.8 1372.5 2358.3 1373 2357.7 1373.7 2357.6 1373.9 2358.4 1373.5 2358.5"/><path fill="#58595b" d="M1464.8,2416.6l-0.9-0.1l0.1-1.2l0.9,0.1L1464.8,2416.6z M1465,2414.2l-0.9-0.1l0.1-1.2l0.9,0.1
									L1465,2414.2z M1465.3,2411.9l-0.9-0.1c0-0.4,0.1-0.8,0.1-1.2l0.9,0.1C1465.3,2411.1,1465.3,2411.5,1465.3,2411.9z
									 M1465.5,2409.5l-0.9-0.1c0-0.4,0-0.8,0.1-1.2l0.9,0C1465.5,2408.7,1465.5,2409.1,1465.5,2409.5z M1465.5,2407l-0.9,0
									c0-0.4,0-0.8,0-1.2l0.9,0C1465.6,2406.2,1465.6,2406.6,1465.5,2407z M1465.6,2404.6l-0.9,0c0-0.4,0-0.8,0-1.2l0.9,0
									C1465.5,2403.8,1465.6,2404.2,1465.6,2404.6z M1465.5,2402.2l-0.9,0c0-0.4,0-0.8-0.1-1.2l0.9-0.1
									C1465.5,2401.4,1465.5,2401.8,1465.5,2402.2z M1465.3,2399.8l-0.9,0.1c0-0.4-0.1-0.8-0.1-1.2l0.9-0.1
									C1465.3,2399,1465.3,2399.4,1465.3,2399.8z M1464.2,2397.5c0-0.4-0.1-0.8-0.1-1.2l0.9-0.1c0.1,0.4,0.1,0.8,0.1,1.2
									L1464.2,2397.5z M1463.9,2395.2c-0.1-0.4-0.1-0.8-0.2-1.2l0.9-0.1c0.1,0.4,0.1,0.8,0.2,1.2L1463.9,2395.2z M1463.5,2392.8
									c-0.1-0.4-0.1-0.8-0.2-1.2l0.9-0.2c0.1,0.4,0.2,0.8,0.2,1.2L1463.5,2392.8z M1463.1,2390.5c-0.1-0.4-0.2-0.8-0.3-1.2
									l0.9-0.2c0.1,0.4,0.2,0.8,0.3,1.2L1463.1,2390.5z M1462.5,2388.2c-0.1-0.4-0.2-0.8-0.3-1.2l0.8-0.2c0.1,0.4,0.2,0.8,0.3,1.2
									L1462.5,2388.2z M1461.9,2385.9c-0.1-0.4-0.2-0.8-0.3-1.1l0.8-0.3c0.1,0.4,0.2,0.8,0.3,1.2L1461.9,2385.9z M1461.2,2383.6
									c-0.1-0.4-0.3-0.7-0.4-1.1l0.8-0.3c0.1,0.4,0.3,0.8,0.4,1.1L1461.2,2383.6z M1460.4,2381.3c-0.1-0.4-0.3-0.7-0.4-1.1
									l0.8-0.3c0.1,0.4,0.3,0.8,0.4,1.1L1460.4,2381.3z M1459.5,2379.1c-0.1-0.4-0.3-0.8-0.4-1.1l0.8-0.3c0.1,0.4,0.3,0.7,0.4,1.1
									L1459.5,2379.1z M1458.7,2376.8c-0.1-0.4-0.3-0.8-0.4-1.1l0.8-0.3c0.1,0.4,0.2,0.8,0.4,1.1L1458.7,2376.8z M1458,2374.6
									c-0.1-0.4-0.2-0.8-0.3-1.2l0.8-0.2c0.1,0.4,0.2,0.8,0.3,1.1L1458,2374.6z M1457.3,2372.2c-0.1-0.4-0.2-0.8-0.3-1.2l0.9-0.2
									c0.1,0.4,0.2,0.8,0.3,1.2L1457.3,2372.2z M1456.7,2369.9c-0.1-0.4-0.2-0.8-0.3-1.2l0.9-0.2c0.1,0.4,0.2,0.8,0.3,1.2
									L1456.7,2369.9z M1456.2,2367.6c-0.1-0.4-0.2-0.8-0.2-1.2l0.9-0.2c0.1,0.4,0.1,0.8,0.2,1.2L1456.2,2367.6z M1455.8,2365.2
									c-0.1-0.4-0.1-0.8-0.2-1.2l0.9-0.1c0.1,0.4,0.1,0.8,0.2,1.2L1455.8,2365.2z M1455.4,2362.8c-0.1-0.4-0.1-0.8-0.2-1.2
									l0.9-0.1c0,0.4,0.1,0.8,0.2,1.2L1455.4,2362.8z M1456,2360.3l-0.9,0.1c0-0.4-0.1-0.8-0.1-1.2l0.9-0.1
									C1455.9,2359.5,1455.9,2359.9,1456,2360.3z M1455.8,2357.9l-0.9,0.1l-0.1-1.2l0.9-0.1L1455.8,2357.9z M1455.6,2355.5
									l-0.9,0.1l-0.1-1.2l0.9-0.1L1455.6,2355.5z M1455.4,2353.2l-0.9,0.1l-0.1-1.2l0.9-0.1L1455.4,2353.2z M1455.2,2350.8
									l-0.9,0.1l-0.1-1.2l0.9-0.1L1455.2,2350.8z M1375,2358.3l-0.1-0.9l1.2-0.2l0.1,0.9L1375,2358.3z M1377.4,2357.9l-0.1-0.9
									l1.2-0.2l0.1,0.9L1377.4,2357.9z M1379.7,2357.6l-0.1-0.9l1.2-0.2l0.1,0.9L1379.7,2357.6z M1382,2357.2l-0.1-0.9l1.2-0.2
									l0.1,0.9L1382,2357.2z M1384.4,2356.9l-0.1-0.9l1.2-0.2l0.1,0.9L1384.4,2356.9z M1386.7,2356.5l-0.1-0.9l1.2-0.2l0.1,0.9
									L1386.7,2356.5z M1389,2356.2l-0.1-0.9l1.2-0.2l0.1,0.9L1389,2356.2z M1391.4,2355.8l-0.1-0.9l1.2-0.2l0.1,0.9
									L1391.4,2355.8z M1393.7,2355.5l-0.1-0.9l1.2-0.2l0.1,0.9L1393.7,2355.5z M1396.1,2355.1l-0.2-0.9l1.2-0.2l0.1,0.9
									L1396.1,2355.1z M1454.1,2348.5c-0.1-0.3-0.2-0.6-0.4-0.9l0.7-0.6c0.3,0.4,0.5,0.8,0.6,1.2L1454.1,2348.5z M1398.4,2354.8
									l-0.1-0.9l1.2-0.2l0.1,0.9L1398.4,2354.8z M1400.7,2354.4l-0.1-0.9l1.2-0.2l0.1,0.9L1400.7,2354.4z M1403.1,2354l-0.2-0.9
									l1.2-0.2l0.1,0.9L1403.1,2354z M1405.4,2353.7l-0.2-0.9l1.2-0.2l0.1,0.9L1405.4,2353.7z M1407.8,2353.3l-0.2-0.9l1.2-0.2
									l0.1,0.9L1407.8,2353.3z M1410,2353l-0.1-0.9l1.2-0.2l0.1,0.9L1410,2353z M1412.4,2352.6l-0.1-0.9l1.2-0.2l0.1,0.9
									L1412.4,2352.6z M1414.7,2352.3l-0.1-0.9l1.2-0.2l0.1,0.9L1414.7,2352.3z M1417,2351.9l-0.1-0.9l1.2-0.2l0.1,0.9
									L1417,2351.9z M1419.4,2351.6l-0.1-0.9l1.2-0.2l0.1,0.9L1419.4,2351.6z M1421.7,2351.2l-0.1-0.9l1.2-0.2l0.1,0.9
									L1421.7,2351.2z M1424,2350.9l-0.1-0.9l1.2-0.2l0.1,0.9L1424,2350.9z M1426.3,2350.5l-0.1-0.9l1.2-0.2l0.1,0.9
									L1426.3,2350.5z M1428.7,2350.2l-0.1-0.9l1.2-0.2l0.1,0.9L1428.7,2350.2z M1431,2349.8l-0.1-0.9l1.2-0.2l0.1,0.9
									L1431,2349.8z M1433.3,2349.5l-0.1-0.9l1.2-0.2l0.1,0.9L1433.3,2349.5z M1435.7,2349.1l-0.1-0.9l1.2-0.2l0.1,0.9
									L1435.7,2349.1z M1438,2348.8l-0.1-0.9l1.2-0.2l0.1,0.9L1438,2348.8z M1440.3,2348.4l-0.1-0.9l1.2-0.2l0.1,0.9
									L1440.3,2348.4z M1452.9,2347c-0.3-0.2-0.6-0.2-1-0.3l0-0.9c0.5,0,0.9,0.1,1.3,0.4L1452.9,2347z M1442.7,2348.1l-0.1-0.9
									l1.2-0.2l0.1,0.9L1442.7,2348.1z M1445,2347.7l-0.1-0.9l1.2-0.2l0.1,0.9L1445,2347.7z M1447.3,2347.4l-0.1-0.9l1.2-0.2
									l0.1,0.9L1447.3,2347.4z M1449.7,2347l-0.1-0.9l1.2-0.2l0.1,0.9L1449.7,2347z"/><polygon fill="#58595b" points="1464.6 2418.7 1463.7 2418.7 1463.6 2417.9 1463.8 2417.8 1463.8 2417.6 1464.7 2417.7"/><path fill="#58595b" d="M1384.4,2435.5l-0.3-0.8l1.1-0.4l0.3,0.8L1384.4,2435.5z M1386.6,2434.7l-0.3-0.8l1.1-0.4l0.3,0.8
									L1386.6,2434.7z M1388.8,2434l-0.3-0.8l1.1-0.4l0.3,0.8L1388.8,2434z M1391,2433.2l-0.3-0.8l1.1-0.4l0.3,0.9L1391,2433.2z
									 M1393.2,2432.5l-0.3-0.9l1.1-0.4l0.3,0.9L1393.2,2432.5z M1395.4,2431.8l-0.3-0.9l1.1-0.3l0.3,0.9L1395.4,2431.8z
									 M1397.6,2431.1l-0.3-0.9l1.1-0.3l0.2,0.9L1397.6,2431.1z M1399.8,2430.4l-0.2-0.9l1.1-0.3l0.2,0.9L1399.8,2430.4z
									 M1402.1,2429.8l-0.2-0.9l1.1-0.3l0.2,0.9L1402.1,2429.8z M1404.3,2429.2l-0.2-0.9l1.1-0.3l0.2,0.9L1404.3,2429.2z
									 M1406.5,2428.6l-0.2-0.9l1.1-0.3l0.2,0.9L1406.5,2428.6z M1408.8,2428l-0.2-0.9l1.1-0.3l0.2,0.9L1408.8,2428z M1411,2427.4
									l-0.2-0.9l1.1-0.3l0.2,0.9L1411,2427.4z M1413.3,2426.9l-0.2-0.9l1.1-0.3l0.2,0.9L1413.3,2426.9z M1415.5,2426.4l-0.2-0.9
									l1.1-0.3l0.2,0.9L1415.5,2426.4z M1417.8,2425.9l-0.2-0.9l1.1-0.2l0.2,0.9L1417.8,2425.9z M1420.1,2425.4l-0.2-0.9l1.1-0.2
									l0.2,0.9L1420.1,2425.4z M1422.3,2424.9l-0.2-0.9l1.1-0.2l0.2,0.9L1422.3,2424.9z M1424.6,2424.4l-0.2-0.9l1.1-0.2l0.2,0.9
									L1424.6,2424.4z M1426.9,2424l-0.2-0.9l1.1-0.2l0.2,0.9L1426.9,2424z M1429.2,2423.5l-0.2-0.9l1.1-0.2l0.2,0.9
									L1429.2,2423.5z M1431.5,2423.1l-0.2-0.9l1.1-0.2l0.1,0.9L1431.5,2423.1z M1433.8,2422.7l-0.1-0.9l1.1-0.2l0.1,0.9
									L1433.8,2422.7z M1436,2422.3l-0.1-0.9l1.2-0.2l0.1,0.9L1436,2422.3z M1438.3,2422l-0.1-0.9l1.2-0.2l0.1,0.9L1438.3,2422z
									 M1440.6,2421.6l-0.1-0.9l1.1-0.2l0.1,0.9L1440.6,2421.6z M1442.9,2421.3l-0.1-0.9l1.2-0.2l0.1,0.9L1442.9,2421.3z
									 M1445.2,2420.9l-0.1-0.9l1.2-0.2l0.1,0.9L1445.2,2420.9z M1447.5,2420.6l-0.1-0.9l1.2-0.2l0.1,0.9L1447.5,2420.6z
									 M1449.8,2420.3l-0.1-0.9l1.2-0.1l0.1,0.9L1449.8,2420.3z M1452.1,2420l-0.1-0.9l1.2-0.1l0.1,0.9L1452.1,2420z
									 M1462.5,2418.9l-1.2,0.1l-0.1-0.9l1.2-0.1L1462.5,2418.9z M1454.4,2419.8l-0.1-0.9l1.2-0.1l0.1,0.9L1454.4,2419.8z
									 M1460.2,2419.1l-1.2,0.1l-0.1-0.9l1.2-0.1L1460.2,2419.1z M1456.7,2419.5l-0.1-0.9l1.2-0.1l0.1,0.9L1456.7,2419.5z"/><polygon fill="#58595b" points="1382.6 2436.2 1381.9 2435.8 1382.3 2435 1382.6 2435.2 1383 2435.1 1383.3 2435.9"/><path fill="#58595b" d="M1380.8,2435.2l-1-0.6l0.4-0.8l1,0.6L1380.8,2435.2z M1378.8,2434.1l-1-0.6l0.4-0.8l1,0.6
									L1378.8,2434.1z M1376.7,2433l-1-0.6l0.4-0.8l1,0.6L1376.7,2433z M1374.7,2431.9l-1-0.6l0.4-0.8l1,0.6L1374.7,2431.9z
									 M1372.7,2430.8l-1-0.6l0.4-0.8l1,0.6L1372.7,2430.8z M1370.6,2429.6l-1-0.6l0.4-0.8l1,0.6L1370.6,2429.6z M1368.6,2428.5
									l-1-0.6l0.4-0.8l1,0.6L1368.6,2428.5z M1366.5,2427.4l-1-0.6l0.4-0.8l1,0.6L1366.5,2427.4z M1364.5,2426.3l-1-0.6l0.4-0.8
									l1,0.6L1364.5,2426.3z M1362.4,2425.1l-1-0.6l0.4-0.8l1,0.6L1362.4,2425.1z M1360.4,2424l-1-0.6l0.4-0.8l1,0.6L1360.4,2424z
									 M1358.3,2422.9l-1-0.6l0.4-0.8l1,0.6L1358.3,2422.9z M1356.3,2421.8l-1-0.6l0.4-0.8l1,0.6L1356.3,2421.8z M1354.2,2420.7
									l-1-0.6l0.4-0.8l1,0.6L1354.2,2420.7z M1352.2,2419.5l-1-0.6l0.4-0.8l1,0.6L1352.2,2419.5z M1350.1,2418.4l-1-0.6l0.4-0.8
									l1,0.6L1350.1,2418.4z M1348.1,2417.3l-1-0.6l0.4-0.8l1,0.6L1348.1,2417.3z M1346.1,2416.2l-1-0.6l0.4-0.8l1,0.6
									L1346.1,2416.2z M1344,2415.1l-1-0.6l0.4-0.8l1,0.6L1344,2415.1z M1342,2413.9l-1-0.6l0.4-0.8l1,0.6L1342,2413.9z
									 M1339.9,2412.5c-0.2-0.3-0.4-0.6-0.5-1c0-0.1,0-0.2-0.1-0.3l0.9-0.1c0,0.1,0,0.1,0,0.2c0.1,0.3,0.2,0.5,0.3,0.7
									L1339.9,2412.5z M1340.4,2410.1l-0.8-0.3c0.1-0.2,0.2-0.5,0.3-0.7l0.3-0.5l0.7,0.5l-0.3,0.5
									C1340.5,2409.8,1340.4,2410,1340.4,2410.1z M1341.5,2408.2l-0.7-0.5l0.6-1l0.7,0.5L1341.5,2408.2z M1342.8,2406.2l-0.7-0.5
									l0.6-1l0.7,0.5L1342.8,2406.2z M1344.1,2404.3l-0.7-0.5l0.6-1l0.7,0.5L1344.1,2404.3z M1345.3,2402.3l-0.7-0.5l0.6-1
									l0.7,0.5L1345.3,2402.3z M1346.6,2400.3l-0.7-0.5l0.6-1l0.7,0.5L1346.6,2400.3z M1347.9,2398.3l-0.7-0.5l0.6-1l0.7,0.5
									L1347.9,2398.3z M1349.1,2396.4l-0.7-0.5l0.6-1l0.7,0.5L1349.1,2396.4z M1350.4,2394.4l-0.7-0.5l0.6-1l0.7,0.5
									L1350.4,2394.4z M1351.7,2392.4l-0.7-0.5l0.6-1l0.7,0.5L1351.7,2392.4z M1352.9,2390.4l-0.7-0.5l0.6-1l0.7,0.5
									L1352.9,2390.4z M1354.2,2388.5l-0.7-0.5l0.6-1l0.7,0.5L1354.2,2388.5z M1355.5,2386.5l-0.7-0.5l0.6-1l0.7,0.5
									L1355.5,2386.5z M1356.8,2384.5l-0.7-0.5l0.6-1l0.7,0.5L1356.8,2384.5z M1358,2382.5l-0.7-0.5l0.6-1l0.7,0.5L1358,2382.5z
									 M1359.3,2380.6l-0.7-0.5l0.6-1l0.7,0.5L1359.3,2380.6z M1360.6,2378.6l-0.7-0.5l0.6-1l0.7,0.5L1360.6,2378.6z
									 M1361.8,2376.6l-0.7-0.5l0.6-1l0.7,0.5L1361.8,2376.6z M1363.1,2374.6l-0.7-0.5l0.6-1l0.7,0.5L1363.1,2374.6z
									 M1364.4,2372.7l-0.7-0.5l0.6-1l0.7,0.5L1364.4,2372.7z M1365.7,2370.7l-0.7-0.5l0.6-1l0.7,0.5L1365.7,2370.7z
									 M1366.9,2368.7l-0.7-0.5l0.6-1l0.7,0.5L1366.9,2368.7z M1368.2,2366.7l-0.7-0.5l0.6-1l0.7,0.5L1368.2,2366.7z
									 M1369.5,2364.8l-0.7-0.5l0.6-1l0.7,0.5L1369.5,2364.8z M1370.7,2362.8l-0.7-0.5l0.6-1l0.7,0.5L1370.7,2362.8z M1372,2360.8
									l-0.7-0.5l0.6-1l0.7,0.5L1372,2360.8z"/><path fill="#e6e7e8" d="M1351.8,2410.3c-2.4,0.6-4.9-0.9-5.4-3.4c-0.6-2.5,0.9-4.9,3.3-5.5c2.4-0.6,4.9,0.9,5.4,3.4
									C1355.8,2407.3,1354.3,2409.8,1351.8,2410.3z M1350.1,2402.8c-1.7,0.4-2.7,2.1-2.3,3.8c0.4,1.7,2.1,2.8,3.7,2.4
									c1.7-0.4,2.7-2.1,2.3-3.8C1353.4,2403.4,1351.7,2402.4,1350.1,2402.8z"/><path fill="#e6e7e8" d="M1365,2391.4c-2.4,0.6-4.9-0.9-5.4-3.4c-0.6-2.5,0.9-4.9,3.3-5.5c2.4-0.6,4.9,0.9,5.4,3.4
									C1368.9,2388.3,1367.4,2390.8,1365,2391.4z M1363.2,2383.8c-1.7,0.4-2.7,2.1-2.3,3.8c0.4,1.7,2.1,2.8,3.7,2.3
									c1.7-0.4,2.7-2.1,2.3-3.8C1366.6,2384.5,1364.9,2383.4,1363.2,2383.8z"/><path fill="#231f20" d="M1351.2,2405.2c0.4,0.4,0.4,1,0,1.4c-0.1,0.1-0.3,0.2-0.5,0.3c-0.3,0.1-0.7,0-0.9-0.3
									c-0.4-0.5-8.8-9.2-10.6-16.8c-0.1-0.2-0.1-0.5-0.1-0.7c-0.2-0.8-0.2-1.6-0.2-2.4c0-0.9,0.2-1.7,0.5-2.5
									c1.3-3.2,4.9-5,10.6-5.4c-0.7,0.8-1.4,1.5-2,2.2c-3.7,0.6-5.9,1.9-6.8,3.9c-0.1,0.2-0.1,0.4-0.2,0.5
									c-0.2,0.7-0.3,1.5-0.2,2.3c0,0.1,0,0.3,0,0.4C1341.6,2394.2,1348.2,2402.2,1351.2,2405.2z"/><path fill="#231f20" d="M1363.8,2386.4c-0.1,0.5-0.6,0.9-1.2,0.8c-4.4-0.9-14.9-2.2-20.8,0.2c-0.3,0.1-0.7,0.3-1,0.4
									c-0.7,0.4-1.3,0.8-1.8,1.3c-0.2,0.2-0.4,0.5-0.6,0.7c-0.2,0.4-0.5,0.8-0.6,1.2c-0.7,0.7-1.5,1.4-2.3,2
									c0-1.7,0.4-3.1,1.2-4.4c0.5-0.8,1.2-1.4,2-2c0.6-0.5,1.4-0.8,2.2-1.2c1.1-0.5,2.4-0.8,3.7-1c7.8-1.4,17.7,0.6,18.3,0.7
									C1363.6,2385.3,1363.9,2385.9,1363.8,2386.4z"/><path fill="#e6e7e8" d="M1377.5,2371.7c-2.5,0.3-4.7-1.5-5-4c-0.3-2.5,1.5-4.8,4-5.1c2.5-0.3,4.7,1.5,5,4
								C1381.7,2369.2,1380,2371.4,1377.5,2371.7z M1376.6,2364c-1.7,0.2-2.9,1.8-2.7,3.5c0.2,1.7,1.7,3,3.4,2.8
								c1.7-0.2,2.9-1.8,2.7-3.5C1379.9,2365.1,1378.3,2363.8,1376.6,2364z"/><path fill="#231f20" d="M1377.8,2367.6c-0.2,0.5-0.8,0.7-1.3,0.4c-2.8-1.5-9.4-4.2-14.4-4.1c-1.7,0-3.1,0.4-4.2,1.3
								c-1.5,1.2-2.2,3.4-1.9,6.6c-0.6,0.7-1.1,1.4-1.7,2.1c-0.8-4.8,0-8.3,2.4-10.2c1.8-1.4,4.2-1.9,6.8-1.7
								c6.3,0.4,13.4,4,13.9,4.3C1377.9,2366.5,1378.1,2367.1,1377.8,2367.6z"/><polygon fill="#f7c19b" points="2129.4 2191.7 2062 2231.3 2000 2125.6 2067.5 2086"/><path fill="#333" d="M2069,2245.1l-4.2,19.2l-0.7,6c-0.4,3.5,0.2,7,1.7,10.2l5.9,12.3c1.5,3.1,5.1,4.4,8.1,3l13.5-6.4l-1.7-3.5
						l7.3-3.5l1.7,3.5l16.4-7.3l-1.4-2.9l7.6-3.6l1.5,3.1l18.1-8.7l3.6-16.5c16.5-2.6,32-3.6,46.2-2.3c0.7,0.2,19.1-8.5,18.9-9
						l-1.3-2.8l7.1-3.4l1.3,2.8c6.1-2.4,12-5.1,17.5-8.3l-1.4-2.9l7-3.3l1.1,2.4c6.1-2.9,11.2-6.2,15.2-9.7l-1.1-2.3l6.6-4.2l1,2
						c3.9-2.5,7.1-5.5,10-8.7l-1.5-2.2l5-5.6l2.4,1.7c5.4-6,10.2-11.9,14-17.6c0,0-3.4-10-9.4-7.7l-77.7,26.8l-101.1,31.8
						L2069,2245.1z"/><path fill="#58595b" d="M2052,2244.9c2.2,4.6,4.9,9,8,13.1l4.9,6.4c28.2-14,55.7-24.4,82.2-29.6c5.5-1.1,11-1.9,16.4-2.5
						c46.6-4.9,86.9-26.8,121.7-63.4l-3.2-6.8c-2.4-5-7.9-7.7-13.2-6.4l-34.8,8.5c-6.2,1.5-12.3,3.2-18.5,4.8
						c-17.3,4.5-35,5.1-53.1,2.2c-1-0.2-2-0.3-3-0.5c-0.6-0.1-1.2-0.2-1.8-0.3c2.5,7.4,0,19.2-0.2,19.9c-0.1,0.4-0.3,0.6-0.7,0.7
						c-0.2,0-0.3,0.1-0.5,0c-0.5-0.1-0.9-0.7-0.8-1.2c0.9-4.2,2.3-14.4-0.2-19.9c-0.4-0.1-0.8-0.2-1.3-0.3
						c-6.3,1.1-14.6,7.7-17.8,10.8c-0.4,0.4-1,0.3-1.4-0.1c-0.4-0.4-0.4-1,0-1.4c0.4-0.4,7.9-7.4,15.2-10.3c-1.5-0.4-3-0.8-4.6-1.2
						c-1-0.3-1.9-0.5-2.9-0.8c-2.1-0.6-4.2-1.3-6.3-1.9c-0.8-0.3-1.7-0.6-2.5-0.8c-3.1-1.1-6.2-2.2-9.3-3.5
						c-4.3,2.5-8.5,8.3-10.1,11.1c-0.3,0.5-0.9,0.6-1.3,0.3c-0.5-0.3-0.6-0.9-0.4-1.4c0.2-0.4,4.4-7.3,9.5-10.9
						c-1.3-0.5-2.5-1-3.7-1.6c-2.1-0.9-4.4-0.9-6.4,0l-74.9,32.2c-2.7,1.2-3.9,4.5-2.5,7.2l4.5,8.7c3.3,6.5,5.7,13.4,7,20.5
						C2047.2,2232.9,2049.2,2239.1,2052,2244.9z"/><path fill="#231f20" d="M2156.2,2191c0.2,0,0.4,0,0.5,0c0.3-0.1,0.6-0.4,0.7-0.7c0.1-0.6,2.7-12.4,0.2-19.9
						c-0.8-0.1-1.5-0.3-2.3-0.5c2.5,5.4,1.1,15.7,0.2,19.9C2155.3,2190.3,2155.7,2190.9,2156.2,2191z"/><path fill="#231f20" d="M2134.8,2180.4c0.4,0.4,1,0.4,1.4,0.1c3.2-3.1,11.5-9.7,17.8-10.8c-1.3-0.3-2.6-0.6-4-0.9
						c-7.4,2.9-14.8,9.8-15.2,10.3C2134.5,2179.4,2134.4,2180,2134.8,2180.4z"/><path fill="#303030" d="M2113,2171.9c0.5,0.3,1.1,0.2,1.3-0.3c1.6-2.7,5.8-8.6,10.1-11.1c-0.8-0.3-1.5-0.6-2.3-0.9
						c-5.2,3.6-9.3,10.5-9.5,10.9C2112.3,2171,2112.5,2171.6,2113,2171.9z"/><path fill="#414042" d="M2052,2244.9c2.2,4.6,4.9,9,8,13.1l4.9,6.4c28.2-14,55.7-24.4,82.2-29.6l24.2-42.9
						c1.4-2.5,0.4-5.7-2.2-6.9l-57.1-27.1l-74.9,32.2c-2.7,1.2-3.9,4.5-2.5,7.2l4.5,8.7c3.3,6.5,5.7,13.4,7,20.5
						C2047.2,2232.9,2049.2,2239.1,2052,2244.9z"/><polygon fill="#58595b" points="2112.2 2162 2112.6 2161.2 2111.9 2160.8 2111.1 2161.1 2111.5 2162 2111.9 2161.8"/><path fill="#58595b" d="M2064.2,2258.4l0.7-0.5l0.7,1l-0.7,0.5L2064.2,2258.4z M2062.7,2256.5l0.7-0.5l0.7,1l-0.7,0.5
									L2062.7,2256.5z M2061.3,2254.6l0.7-0.5c0.2,0.3,0.5,0.6,0.7,1l-0.7,0.5C2061.7,2255.2,2061.5,2254.9,2061.3,2254.6z
									 M2059.9,2252.6l0.7-0.5c0.2,0.3,0.4,0.7,0.7,1l-0.7,0.5C2060.3,2253.3,2060.1,2252.9,2059.9,2252.6z M2058.6,2250.6
									l0.7-0.5c0.2,0.3,0.4,0.7,0.6,1l-0.7,0.5C2059,2251.2,2058.8,2250.9,2058.6,2250.6z M2057.3,2248.5l0.8-0.4
									c0.2,0.3,0.4,0.7,0.6,1l-0.8,0.5C2057.7,2249.2,2057.5,2248.9,2057.3,2248.5z M2056.1,2246.4l0.8-0.4c0.2,0.3,0.4,0.7,0.6,1
									l-0.8,0.4C2056.5,2247.1,2056.3,2246.8,2056.1,2246.4z M2055,2244.3l0.8-0.4c0.2,0.4,0.4,0.7,0.5,1.1l-0.8,0.4
									C2055.4,2245,2055.2,2244.6,2055,2244.3z M2054.5,2243.2c-0.2-0.4-0.3-0.7-0.5-1.1l0.8-0.4c0.2,0.4,0.3,0.7,0.5,1.1
									L2054.5,2243.2z M2053.5,2241c-0.2-0.4-0.3-0.7-0.5-1.1l0.8-0.3c0.2,0.4,0.3,0.7,0.5,1.1L2053.5,2241z M2052.6,2238.7
									c-0.1-0.4-0.3-0.7-0.4-1.1l0.8-0.3c0.1,0.4,0.3,0.7,0.4,1.1L2052.6,2238.7z M2051.8,2236.5c-0.1-0.4-0.3-0.8-0.4-1.1
									l0.8-0.3c0.1,0.4,0.3,0.8,0.4,1.1L2051.8,2236.5z M2051,2234.2c-0.1-0.4-0.2-0.8-0.4-1.2l0.8-0.2c0.1,0.4,0.2,0.8,0.3,1.1
									L2051,2234.2z M2050.3,2231.9c-0.1-0.4-0.2-0.8-0.3-1.2l0.9-0.2c0.1,0.4,0.2,0.8,0.3,1.1L2050.3,2231.9z M2049.7,2229.6
									c-0.1-0.4-0.2-0.8-0.3-1.2l0.9-0.2c0.1,0.4,0.2,0.8,0.3,1.2L2049.7,2229.6z M2049.2,2227.2c-0.1-0.4-0.2-0.8-0.2-1.2
									l0.9-0.2c0.1,0.4,0.2,0.8,0.2,1.2L2049.2,2227.2z M2048.7,2224.8c-0.1-0.4-0.2-0.8-0.2-1.2l0.9-0.2c0.1,0.4,0.2,0.8,0.2,1.2
									L2048.7,2224.8z M2048.2,2222.5c-0.1-0.4-0.2-0.8-0.3-1.2l0.9-0.2c0.1,0.4,0.2,0.8,0.3,1.2L2048.2,2222.5z M2047.7,2220.2
									c-0.1-0.4-0.2-0.8-0.3-1.1l0.8-0.2c0.1,0.4,0.2,0.8,0.3,1.2L2047.7,2220.2z M2047,2217.9c-0.1-0.4-0.2-0.8-0.4-1.1l0.8-0.3
									c0.1,0.4,0.2,0.8,0.4,1.2L2047,2217.9z M2046.3,2215.6c-0.1-0.4-0.3-0.8-0.4-1.1l0.8-0.3c0.1,0.4,0.3,0.8,0.4,1.1
									L2046.3,2215.6z M2045.5,2213.4c-0.1-0.4-0.3-0.7-0.4-1.1l0.8-0.3c0.1,0.4,0.3,0.7,0.4,1.1L2045.5,2213.4z M2044.6,2211.2
									c-0.2-0.4-0.3-0.7-0.5-1.1l0.8-0.3c0.2,0.4,0.3,0.7,0.5,1.1L2044.6,2211.2z M2043.7,2209c-0.2-0.4-0.3-0.7-0.5-1.1l0.8-0.4
									c0.2,0.4,0.3,0.7,0.5,1.1L2043.7,2209z M2042.2,2205.8l0.8-0.4c0.2,0.4,0.4,0.7,0.5,1.1l-0.8,0.4
									C2042.5,2206.5,2042.4,2206.1,2042.2,2205.8z M2041.1,2203.6l0.8-0.4l0.5,1.1l-0.8,0.4L2041.1,2203.6z M2040,2201.5l0.8-0.4
									l0.6,1.1l-0.8,0.4L2040,2201.5z M2038.9,2199.4l0.8-0.4l0.6,1.1l-0.8,0.4L2038.9,2199.4z M2037.8,2197.2l0.8-0.4l0.6,1.1
									l-0.8,0.4L2037.8,2197.2z M2109.3,2162.9l-0.4-0.8l1.1-0.5l0.4,0.8L2109.3,2162.9z M2107.2,2163.8l-0.4-0.8l1.1-0.5l0.4,0.8
									L2107.2,2163.8z M2105,2164.8l-0.4-0.8l1.1-0.5l0.4,0.8L2105,2164.8z M2102.8,2165.7l-0.4-0.8l1.1-0.5l0.4,0.8
									L2102.8,2165.7z M2100.7,2166.6l-0.4-0.8l1.1-0.5l0.4,0.8L2100.7,2166.6z M2098.5,2167.6l-0.4-0.8l1.1-0.5l0.4,0.8
									L2098.5,2167.6z M2096.3,2168.5l-0.4-0.8l1.1-0.5l0.4,0.8L2096.3,2168.5z M2094.2,2169.4l-0.4-0.8l1.1-0.5l0.4,0.8
									L2094.2,2169.4z M2092,2170.3l-0.4-0.8l1.1-0.5l0.4,0.8L2092,2170.3z M2089.8,2171.3l-0.4-0.8l1.1-0.5l0.3,0.9
									L2089.8,2171.3z M2037.3,2196.1c-0.1-0.4-0.2-0.9-0.1-1.4l0.9,0.1c0,0.3,0,0.7,0.1,1L2037.3,2196.1z M2087.7,2172.2
									l-0.4-0.8l1.1-0.5l0.4,0.8L2087.7,2172.2z M2085.5,2173.1l-0.4-0.8l1.1-0.5l0.4,0.8L2085.5,2173.1z M2083.3,2174.1l-0.4-0.8
									l1.1-0.5l0.3,0.9L2083.3,2174.1z M2081.2,2175l-0.4-0.8l1.1-0.5l0.3,0.9L2081.2,2175z M2079,2175.9l-0.4-0.8l1.1-0.5
									l0.3,0.8L2079,2175.9z M2076.8,2176.9l-0.4-0.8l1.1-0.5l0.3,0.8L2076.8,2176.9z M2074.7,2177.8l-0.4-0.8l1.1-0.5l0.4,0.8
									L2074.7,2177.8z M2072.5,2178.7l-0.4-0.8l1.1-0.5l0.4,0.8L2072.5,2178.7z M2070.3,2179.7l-0.4-0.8l1.1-0.5l0.4,0.8
									L2070.3,2179.7z M2068.2,2180.6l-0.4-0.8l1.1-0.5l0.4,0.8L2068.2,2180.6z M2066,2181.5l-0.4-0.8l1.1-0.5l0.4,0.8
									L2066,2181.5z M2063.8,2182.4l-0.4-0.8l1.1-0.5l0.4,0.8L2063.8,2182.4z M2061.7,2183.4l-0.4-0.8l1.1-0.5l0.4,0.8
									L2061.7,2183.4z M2059.5,2184.3l-0.4-0.8l1.1-0.5l0.4,0.8L2059.5,2184.3z M2057.3,2185.2l-0.4-0.8l1.1-0.5l0.4,0.8
									L2057.3,2185.2z M2055.2,2186.2l-0.4-0.8l1.1-0.5l0.4,0.8L2055.2,2186.2z M2053,2187.1l-0.4-0.8l1.1-0.5l0.4,0.8
									L2053,2187.1z M2050.8,2188l-0.4-0.8l1.1-0.5l0.4,0.8L2050.8,2188z M2048.7,2189l-0.4-0.8l1.1-0.5l0.4,0.8L2048.7,2189z
									 M2037.5,2193.4c0.2-0.4,0.5-0.7,0.9-1l0.5,0.7c-0.3,0.2-0.5,0.4-0.7,0.7L2037.5,2193.4z M2046.5,2189.9l-0.4-0.8l1.1-0.5
									l0.4,0.8L2046.5,2189.9z M2044.3,2190.8l-0.4-0.8l1.1-0.5l0.4,0.8L2044.3,2190.8z M2042.2,2191.8l-0.4-0.8l1.1-0.5l0.4,0.8
									L2042.2,2191.8z M2040,2192.7l-0.4-0.8l1.1-0.5l0.4,0.8L2040,2192.7z"/><polygon fill="#58595b" points="2066.1 2261 2067 2260.5 2066.6 2259.7 2066.4 2259.8 2066.2 2259.7 2065.5 2260.2"/><path fill="#58595b" d="M2142.1,2233.2l-0.2-0.9l1.1-0.2l0.2,0.9L2142.1,2233.2z M2139.8,2233.7l-0.2-0.9l1.1-0.3l0.2,0.9
									L2139.8,2233.7z M2137.5,2234.2l-0.2-0.9l1.1-0.3l0.2,0.9L2137.5,2234.2z M2135.3,2234.8l-0.2-0.9l1.1-0.3l0.2,0.9
									L2135.3,2234.8z M2133,2235.3l-0.2-0.9l1.1-0.3l0.2,0.9L2133,2235.3z M2130.8,2235.9l-0.2-0.9l1.1-0.3l0.2,0.9
									L2130.8,2235.9z M2128.5,2236.5l-0.2-0.9l1.1-0.3l0.2,0.9L2128.5,2236.5z M2126.3,2237.2l-0.3-0.9l1.1-0.3l0.2,0.9
									L2126.3,2237.2z M2124.1,2237.8l-0.3-0.9l1.1-0.3l0.3,0.9L2124.1,2237.8z M2121.8,2238.5l-0.3-0.9l1.1-0.3l0.3,0.9
									L2121.8,2238.5z M2119.6,2239.1l-0.3-0.8l1.1-0.3l0.3,0.9L2119.6,2239.1z M2117.4,2239.8l-0.3-0.8l1.1-0.4l0.3,0.9
									L2117.4,2239.8z M2115.2,2240.5l-0.3-0.8l1.1-0.4l0.3,0.8L2115.2,2240.5z M2113,2241.3l-0.3-0.8l1.1-0.4l0.3,0.8
									L2113,2241.3z M2110.8,2242l-0.3-0.8l1.1-0.4l0.3,0.8L2110.8,2242z M2108.6,2242.8l-0.3-0.8l1.1-0.4l0.3,0.8L2108.6,2242.8z
									 M2106.4,2243.6l-0.3-0.8l1.1-0.4l0.3,0.8L2106.4,2243.6z M2104.2,2244.4l-0.3-0.8l1.1-0.4l0.3,0.8L2104.2,2244.4z
									 M2102.1,2245.2l-0.3-0.8l1.1-0.4l0.3,0.8L2102.1,2245.2z M2099.9,2246l-0.3-0.8l1.1-0.4l0.3,0.8L2099.9,2246z
									 M2097.7,2246.9l-0.3-0.8l1.1-0.4l0.3,0.8L2097.7,2246.9z M2095.6,2247.7l-0.3-0.8l1.1-0.4l0.3,0.8L2095.6,2247.7z
									 M2093.4,2248.6l-0.3-0.8l1.1-0.4l0.3,0.8L2093.4,2248.6z M2091.3,2249.5l-0.3-0.8l1.1-0.4l0.3,0.8L2091.3,2249.5z
									 M2089.1,2250.4l-0.4-0.8l1.1-0.5l0.3,0.8L2089.1,2250.4z M2087,2251.3l-0.4-0.8l1.1-0.5l0.4,0.8L2087,2251.3z
									 M2084.9,2252.2l-0.4-0.8l1.1-0.5l0.4,0.8L2084.9,2252.2z M2082.7,2253.2l-0.4-0.8l1.1-0.5l0.4,0.8L2082.7,2253.2z
									 M2080.6,2254.1l-0.4-0.8l1.1-0.5l0.4,0.8L2080.6,2254.1z M2078.5,2255.1l-0.4-0.8l1.1-0.5l0.4,0.8L2078.5,2255.1z
									 M2076.4,2256l-0.4-0.8l1.1-0.5l0.4,0.8L2076.4,2256z M2067.6,2259.2l1-0.5l0.4,0.8l-1,0.5L2067.6,2259.2z M2074.3,2257
									l-0.4-0.8l1.1-0.5l0.4,0.8L2074.3,2257z M2069.7,2258.2l1-0.5l0.4,0.8l-1,0.5L2069.7,2258.2z M2072.2,2258l-0.4-0.8l1.1-0.5
									l0.4,0.8L2072.2,2258z"/><polygon fill="#58595b" points="2145.1 2232.6 2145.5 2231.9 2144.7 2231.5 2144.5 2231.8 2144.1 2231.9 2144.3 2232.8"/><path fill="#58595b" d="M2145.3,2230.5l0.6-1l0.8,0.4l-0.6,1L2145.3,2230.5z M2146.4,2228.4l0.6-1l0.8,0.4l-0.6,1
									L2146.4,2228.4z M2147.6,2226.4l0.6-1l0.8,0.4l-0.6,1L2147.6,2226.4z M2148.7,2224.4l0.6-1l0.8,0.5l-0.6,1L2148.7,2224.4z
									 M2149.9,2222.3l0.6-1l0.8,0.4l-0.6,1L2149.9,2222.3z M2151,2220.3l0.6-1l0.8,0.4l-0.6,1L2151,2220.3z M2152.2,2218.3l0.6-1
									l0.8,0.5l-0.6,1L2152.2,2218.3z M2153.3,2216.2l0.6-1l0.8,0.4l-0.6,1L2153.3,2216.2z M2154.5,2214.2l0.6-1l0.8,0.5l-0.6,1
									L2154.5,2214.2z M2155.6,2212.2l0.6-1l0.8,0.4l-0.6,1L2155.6,2212.2z M2156.8,2210.1l0.6-1l0.8,0.4l-0.6,1L2156.8,2210.1z
									 M2157.9,2208.1l0.6-1l0.8,0.4l-0.6,1L2157.9,2208.1z M2159.1,2206.1l0.6-1l0.8,0.4l-0.6,1L2159.1,2206.1z M2160.2,2204.1
									l0.6-1l0.8,0.5l-0.6,1L2160.2,2204.1z M2161.4,2202l0.6-1l0.8,0.4l-0.6,1L2161.4,2202z M2162.5,2200l0.6-1l0.8,0.5l-0.6,1
									L2162.5,2200z M2163.7,2198l0.6-1l0.8,0.4l-0.6,1L2163.7,2198z M2164.8,2195.9l0.6-1l0.8,0.4l-0.6,1L2164.8,2195.9z
									 M2166,2193.9l0.6-1l0.8,0.4l-0.6,1L2166,2193.9z M2167.1,2191.9l0.6-1l0.8,0.4l-0.6,1L2167.1,2191.9z M2168,2189.9
									c0-0.3,0-0.5-0.1-0.8c0-0.1,0-0.1-0.1-0.2l0.8-0.3c0,0.1,0.1,0.2,0.1,0.3c0.1,0.4,0.2,0.7,0.1,1.1L2168,2189.9z
									 M2166.8,2187.9l-0.5-0.2l0.4-0.8l0.5,0.2c0.2,0.1,0.4,0.2,0.6,0.4l-0.6,0.7C2167.1,2188.1,2166.9,2188,2166.8,2187.9z
									 M2164.2,2186.7l0.4-0.8l1.1,0.5l-0.4,0.8L2164.2,2186.7z M2162.1,2185.7l0.4-0.8l1.1,0.5l-0.4,0.8L2162.1,2185.7z
									 M2159.9,2184.7l0.4-0.8l1.1,0.5l-0.4,0.8L2159.9,2184.7z M2157.8,2183.7l0.4-0.8l1.1,0.5l-0.4,0.8L2157.8,2183.7z
									 M2155.7,2182.7l0.4-0.8l1.1,0.5l-0.4,0.8L2155.7,2182.7z M2153.6,2181.7l0.4-0.8l1.1,0.5l-0.4,0.8L2153.6,2181.7z
									 M2151.4,2180.6l0.4-0.8l1.1,0.5l-0.4,0.8L2151.4,2180.6z M2149.3,2179.6l0.4-0.8l1.1,0.5l-0.4,0.8L2149.3,2179.6z
									 M2147.2,2178.6l0.4-0.8l1.1,0.5l-0.4,0.8L2147.2,2178.6z M2145.1,2177.6l0.4-0.8l1.1,0.5l-0.4,0.8L2145.1,2177.6z
									 M2143,2176.6l0.4-0.8l1.1,0.5l-0.4,0.8L2143,2176.6z M2140.8,2175.6l0.4-0.8l1.1,0.5l-0.4,0.8L2140.8,2175.6z
									 M2138.7,2174.6l0.4-0.8l1.1,0.5l-0.4,0.8L2138.7,2174.6z M2136.6,2173.6l0.4-0.8l1.1,0.5l-0.4,0.8L2136.6,2173.6z
									 M2134.5,2172.6l0.4-0.8l1.1,0.5l-0.4,0.8L2134.5,2172.6z M2132.4,2171.6l0.4-0.8l1.1,0.5l-0.4,0.8L2132.4,2171.6z
									 M2130.2,2170.6l0.4-0.8l1.1,0.5l-0.4,0.8L2130.2,2170.6z M2128.1,2169.6l0.4-0.8l1.1,0.5l-0.4,0.8L2128.1,2169.6z
									 M2126,2168.5l0.4-0.8l1.1,0.5l-0.4,0.8L2126,2168.5z M2123.9,2167.5l0.4-0.8l1.1,0.5l-0.4,0.8L2123.9,2167.5z
									 M2121.8,2166.5l0.4-0.8l1.1,0.5l-0.4,0.8L2121.8,2166.5z M2119.6,2165.5l0.4-0.8l1.1,0.5l-0.4,0.8L2119.6,2165.5z
									 M2117.5,2164.5l0.4-0.8l1.1,0.5l-0.4,0.8L2117.5,2164.5z M2115.4,2163.5l0.4-0.8l1.1,0.5l-0.4,0.8L2115.4,2163.5z
									 M2113.3,2162.5l0.4-0.8l1.1,0.5l-0.4,0.8L2113.3,2162.5z"/><path fill="#e6e7e8" d="M2151.8,2191.5c-0.8-2.4,0.5-5,2.8-5.8c2.4-0.8,4.9,0.5,5.8,2.9c0.8,2.4-0.5,5-2.8,5.8
									C2155.2,2195.2,2152.6,2193.9,2151.8,2191.5z M2153.2,2191.1c0.6,1.7,2.3,2.6,4,2c1.6-0.5,2.5-2.3,1.9-4
									c-0.6-1.7-2.3-2.6-4-2C2153.5,2187.7,2152.6,2189.4,2153.2,2191.1z"/><path fill="#e6e7e8" d="M2130.7,2182.3c-0.8-2.4,0.5-5,2.8-5.8c2.4-0.8,4.9,0.5,5.8,2.9c0.8,2.4-0.5,5-2.8,5.8
									C2134.1,2186,2131.5,2184.7,2130.7,2182.3z M2132,2181.9c0.6,1.7,2.3,2.6,4,2c1.6-0.5,2.5-2.3,1.9-4c-0.6-1.7-2.3-2.6-4-2
									C2132.3,2178.5,2131.4,2180.2,2132,2181.9z"/><path fill="#231f20" d="M2155.5,2189.8c-0.1,0.5,0.2,1.1,0.8,1.2c0.2,0,0.4,0,0.5,0c0.3-0.1,0.6-0.4,0.7-0.7
									c0.1-0.6,2.7-12.4,0.2-19.9c-0.1-0.2-0.2-0.5-0.2-0.7c-0.3-0.8-0.7-1.5-1.1-2.2c-0.5-0.7-1.1-1.3-1.8-1.8
									c-2.8-2-6.8-1.6-11.9,1c1,0.3,1.9,0.6,2.9,0.8c3.4-1.5,6-1.5,7.8-0.2c0.2,0.1,0.3,0.2,0.4,0.4c0.5,0.5,1,1.1,1.3,1.8
									c0.1,0.1,0.1,0.3,0.2,0.4C2157.7,2175.3,2156.4,2185.6,2155.5,2189.8z"/><path fill="#231f20" d="M2134.8,2180.4c0.4,0.4,1,0.4,1.4,0.1c3.2-3.1,11.5-9.7,17.8-10.8c0.4-0.1,0.7-0.1,1.1-0.1
									c0.8,0,1.5,0,2.2,0.2c0.3,0.1,0.6,0.2,0.9,0.3c0.4,0.2,0.8,0.4,1.1,0.7c1,0.2,2,0.4,3,0.5c-0.9-1.4-2-2.4-3.4-3.1
									c-0.9-0.4-1.8-0.6-2.8-0.6c-0.8,0-1.6,0-2.5,0.1c-1.2,0.2-2.4,0.6-3.7,1.1c-7.4,2.9-14.8,9.8-15.2,10.3
									C2134.5,2179.4,2134.4,2180,2134.8,2180.4z"/><g><path fill="#e6e7e8" d="M2109.4,2172.9c-1.1-2.3-0.1-5,2.1-6.1c2.2-1.1,5-0.1,6,2.2c1.1,2.3,0.1,5-2.1,6.1
								C2113.2,2176.2,2110.5,2175.2,2109.4,2172.9z M2110.7,2172.3c0.7,1.6,2.6,2.3,4.2,1.5c1.6-0.7,2.2-2.6,1.5-4.2
								c-0.7-1.6-2.6-2.3-4.2-1.5C2110.6,2168.9,2109.9,2170.8,2110.7,2172.3z"/><path fill="#231f20" d="M2113,2171.9c0.5,0.3,1.1,0.2,1.3-0.3c1.6-2.7,5.8-8.6,10.1-11.1c1.4-0.8,2.9-1.3,4.2-1.1
								c2,0.2,3.6,1.8,5.1,4.6c0.8,0.3,1.7,0.6,2.5,0.8c-1.9-4.5-4.4-7-7.4-7.4c-2.3-0.3-4.6,0.7-6.7,2.2
								c-5.2,3.6-9.3,10.5-9.5,10.9C2112.3,2171,2112.5,2171.6,2113,2171.9z"/></g><path fill="#333" d="M1328.2,1388.8l-20.6,433.2c-1.7,36.3-0.6,72.8,3.4,108.9l44.3,399.4l107.5-16.1l6.3-415.8
				c0.3-17.3,2.5-34.4,6.5-51.2l71.3-292.6l213.8,197c22.2,20.5,41.1,44.4,55.9,70.7l199.8,355.4l100.6-44l-152.7-388.1
				c-16.5-42-37.3-82.2-61.9-120l-237.9-364.8l-196.2,5.9L1328.2,1388.8z"/><path fill="#f1f2f2" d="M1473.9,753l20.5-35.4c23.7,37.4,53.2,45,89.5,18l87.1,156.2l-35.2,67.6l-18.3,248.1l-35.6,116.1
				c-22.2,29.6-55.4,32-94.9,18.8l-43.2-33.7l-48.9-251.1l5-104.5c0,0,24.2-72.2,27.7-75.7C1431,873.9,1473.9,753,1473.9,753z"/><path fill="#1e88e5" d="M2146.4,833.9c0,0-272.3,128.3-280,124c-29.6-16.6-181.9-163.8-201-177.8c-12.1-8.8-24.7-16.9-37.7-24.2
				c-6.9-3.8-13.9-7.4-21.1-10.8c-2.6-1.2-21.1-8.3-22.8-9.6c3.3,21.6,6.5,43.3,9.8,64.9c6.1,40.7,7.7,79.9,2,121
				c-4.6,32.9-11.1,65.6-12.9,98.8c-2.2,38.8,4.6,76.5,7.4,115c5.2,71.7-5,144.1-10.1,215.6c-0.7,10.2,7.6,18.7,17.6,17.9
				c39.9-3.1,88.7-20.9,117.1-46.7c3.1-2.8,4.7-7,4.4-11.2c-3-47.6-21.5-91.6-25.9-139.1c-4.9-51.9-14.8-206.3-6-207.8
				c5.6-1,84.1,56.9,129.9,90.7c25.7,19,59,24,89.2,13.7c108.1-37,293-158.6,293-158.6L2146.4,833.9z"/><path fill="#1e88e5" d="M975.8,716.7l-62.5,67.9l183.2,202.2c52.7,58.1,124.5,49.4,190.7,7.3c24.9-15.8,51-32.2,51-32.2l-18.8,418.6
				c-0.2,4.5,3.3,8.2,7.7,8.2c27,0.3,131.3,7.5,159.8-46.2c2.6-5,0.4-12.3-0.4-17.5c-1.3-8.7-2.2-17.4-2.9-26.2
				c-8.4-104.4,21.8-206.5,24.7-310.5c2.4-83.1-8.5-166.9-12.7-249.8c-0.1-1.1-1.3-21-1.3-21c-89.1,5.9-153.2,58.9-292.4,189.8
				C1173.3,934.3,975.8,716.7,975.8,716.7z"/><path fill="#eab896" d="M1582.9,702.9c0,0-39.4,2.7-70.2-28.2c0,0,21.2,42,70.8,50.2L1582.9,702.9z"/></g><path fill="#ffa726" d="M1532.8,173.3c-148.9,0-269.8,39.7-269.8,88.7c0,49.1,120.8,88.8,269.8,88.8c149,0,269.8-39.7,269.8-88.8
		C1802.6,213,1681.8,173.3,1532.8,173.3z M1532.8,315.9c-119,0-215.5-26.9-215.5-59.9c0-33.1,96.5-59.9,215.5-59.9
		c119.1,0,215.6,26.8,215.6,59.9C1748.4,289.1,1651.9,315.9,1532.8,315.9z"/></svg>