<svg xmlns="http://www.w3.org/2000/svg" enable-background="new 0 0 2800 2000" viewBox="122.905 -21.105 2554.09 2070.31"><path fill="#d5f0ff" fill-rule="evenodd" d="M2351,988c132,61.1,209.9,136,209.9,217.1c0,205-494.8,370.9-1104.9,370.9c-609.9,0-1104.6-166-1104.6-370.9    c0-99.8,118.2-190.6,310.4-257.4c-20.6-43.4-31.8-90.8-31.8-140.4c0-204.6,193.1-370.6,431.7-370.6c38.1,0,75.2,4.4,110.4,12.2    c56.5-78.3,148.5-129.1,252.4-129.1c17.8,0,34.9,1.6,51.8,4.4C1572.7,172.5,1734.9,73,1919,73c296,0,535.9,257.4,535.9,574.9    C2454.9,775.2,2416.2,892.8,2351,988L2351,988z" clip-rule="evenodd"/><path fill="#dfe6ff" fill-rule="evenodd" d="M1445.1,1779.7c613.3,0,1110.5,27.8,1110.5,61.5c0,20.6-181.6,38.7-460.4,49.9c0.3,0.9,0.6,1.6,0.6,2.5    c0,33.7-348.1,61.5-777.4,61.5c-429.6,0-777.7-27.8-777.7-61.5c0-5.3,8.1-10.3,22.8-15c-143.5-10.3-229-23.4-229-37.4    C334.6,1807.4,831.8,1779.7,1445.1,1779.7L1445.1,1779.7z" clip-rule="evenodd"/><path fill="#ffc328" fill-rule="evenodd" d="M1445.5,889.3c9.1,61-77.2,99.1-142.8,108.8c-65.5,9.7-128.1-16.2-168.2-62.9     c24.9-56.4,77.4-99.1,142.8-108.8C1342.9,816.7,1436.6,828.3,1445.5,889.3L1445.5,889.3z" clip-rule="evenodd"/><path fill="#6686f9" fill-rule="evenodd" d="M1552.8,605.2c20.5,58.1-56.9,112.2-119.3,134.2c-62.3,22.1-128.6,8.8-177-29.4     c13.6-60.1,56.8-112.1,119.2-134.3C1438,553.7,1532.2,547.1,1552.8,605.2L1552.8,605.2z" clip-rule="evenodd"/><path fill="#be96f8" fill-rule="evenodd" d="M1111.8,432c55.2-27.3,118,43.2,147.4,102.6c29.3,59.3,23.9,126.8-8.2,179.3     c-61.3-6.4-118.1-43.1-147.5-102.5C1074.2,552,1056.5,459.4,1111.8,432L1111.8,432z" clip-rule="evenodd"/><path fill="#f993bc" fill-rule="evenodd" d="M1198.5,120.9c62.7-22.7,121.6,60.5,146,127.8c24.3,67.3,10.5,139.1-30.4,191.7     c-65.1-14.2-121.6-60.5-146-127.8C1143.9,245.3,1136,143.6,1198.5,120.9L1198.5,120.9z" clip-rule="evenodd"/><path fill="#61ea75" fill-rule="evenodd" d="M987.7,658.7c56-25.6,116.8,46.5,144.3,106.7c27.6,60.3,20.4,127.4-13.3,179.1     c-61.2-8.1-116.8-46.5-144.5-106.7C946.7,777.7,931.6,684.5,987.7,658.7L987.7,658.7z" clip-rule="evenodd"/><path fill="#fff" d="M1031.1,1043.5c-0.1-0.1-0.2-0.2-0.3-0.3c-1.9-2-1.8-5.1,0.2-7c194.9-186.1,342.2-505.6,246.6-756       c-1-2.5,0.3-5.4,2.8-6.4c2.5-1,5.4,0.3,6.4,2.8c46.3,121.2,40.5,265-16.7,416c-48.5,128.1-133.2,255.9-232.3,350.6       C1035.9,1045.1,1033,1045.1,1031.1,1043.5z"/><path fill="#fff" d="M1248.5,723l-2.3-7.1c-2.4-7.6-4.8-15.2-7.1-22.6c-21.7-69.4-42.3-134.9-96.6-198.6       c-1.8-2.1-1.5-5.2,0.6-7c2.1-1.8,5.2-1.5,7,0.6c55.6,65.2,76.5,131.7,98.5,202c1.6,5.2,3.2,10.3,4.9,15.5       c59.5-50,113.3-77.6,184.2-94.9c2.6-0.6,5.3,1,6,3.6c0.6,2.6-1,5.3-3.6,6c-72.4,17.7-124.5,45.1-185.8,97.7L1248.5,723z"/><path fill="#fff" d="M1119.3,951.5l-0.2-9c-1.6-60.5-7.1-130.3-53.4-191.8c-1.6-2.2-1.2-5.3,1-6.9c2.2-1.6,5.3-1.2,6.9,1       c45.8,60.8,53.2,128.7,55.2,188.6c53.4-33.7,125.3-54.8,194.3-56.8c2.7-0.1,5,2.1,5.1,4.8c0.1,2.7-2.1,5-4.8,5.1       c-70.5,2-144,24.4-196.5,59.9L1119.3,951.5z"/><path fill="#38c551" fill-rule="evenodd" d="M768,161c127.7,67.2,232.7,205.5,271.7,380.3c38.9,174.7,2.6,344.5-84.5,459.6       c-127.7-67.3-232.7-205.5-271.7-380.3C644.6,445.9,680.9,276,768,161L768,161z" clip-rule="evenodd"/><path fill="#38c551" d="M955.9,1004l-1.9-1c-133.2-70.1-235.3-212.9-272.9-381.9C643.4,452,675.2,279.4,766,159.5l1.3-1.7l1.9,1       c133.2,70.1,235.2,212.8,272.9,381.9c37.7,169,5.9,341.6-84.9,461.7L955.9,1004z M768.7,164.2c-89,118.8-119.9,289-82.7,455.9       c37.2,166.8,137.5,307.8,268.5,377.6c89-118.9,119.9-289.1,82.7-455.9C1000.1,374.9,899.8,233.9,768.7,164.2z"/><path fill="#fff" d="M955.8,1003.3c-1.3,0.3-2.7-0.5-3-1.9L765.6,161.5c-0.3-1.3,0.5-2.7,1.9-3c1.3-0.3,2.7,0.5,3,1.9        l187.2,839.9C958,1001.6,957.1,1003,955.8,1003.3z"/><path fill="#fff" d="M801.1,309.5c-0.4,0.1-0.9,0.1-1.4-0.1c-1.3-0.5-2-1.9-1.5-3.2l35.7-101.8c0.5-1.3,1.9-2,3.2-1.5        c1.3,0.5,2,1.9,1.5,3.2L803,307.9C802.7,308.7,802,309.3,801.1,309.5z"/><path fill="#fff" d="M824.9,416c-0.7,0.2-1.4,0-2-0.4L690,317.1c-1.1-0.8-1.3-2.4-0.5-3.5c0.8-1.1,2.4-1.3,3.5-0.5l132.9,98.5        c1.1,0.8,1.3,2.4,0.5,3.5C826,415.6,825.4,415.9,824.9,416z"/><path fill="#fff" d="M850,528.6c-0.6,0.1-1.3,0-1.9-0.3c-1.2-0.7-1.5-2.3-0.8-3.4L960,346.7c0.7-1.2,2.3-1.5,3.4-0.8        c1.2,0.7,1.5,2.3,0.8,3.4L851.5,527.5C851.2,528.1,850.6,528.4,850,528.6z"/><path fill="#fff" d="M889,703.5c-0.7,0.2-1.5,0-2.1-0.5L668.4,531.8c-1.1-0.9-1.3-2.4-0.4-3.5c0.8-1.1,2.4-1.3,3.5-0.4        L890,699.1c1.1,0.9,1.3,2.4,0.4,3.5C890,703.1,889.5,703.4,889,703.5z"/><path fill="#fff" d="M916.7,828c-0.6,0.1-1.3,0-1.9-0.3c-1.2-0.7-1.5-2.3-0.8-3.4l135.3-213c0.7-1.2,2.3-1.5,3.4-0.8        c1.2,0.7,1.5,2.3,0.8,3.4l-135.3,213C917.9,827.5,917.3,827.9,916.7,828z"/><path fill="#fff" d="M936.9,918.5c-0.6,0.1-1.3,0-1.8-0.3L757.2,811.6c-1.2-0.7-1.6-2.2-0.9-3.4c0.7-1.2,2.2-1.6,3.4-0.9        l177.8,106.6c1.2,0.7,1.6,2.2,0.9,3.4C938.1,917.9,937.5,918.3,936.9,918.5z"/><g><path fill="#61ea75" fill-rule="evenodd" d="M241.9,594.7c133.9-53.7,307.3-44,465.6,39.6s264,221.3,295.3,362.2c-134,53.7-307.3,44-465.6-39.6       S273.1,735.6,241.9,594.7L241.9,594.7z" clip-rule="evenodd"/><path fill="#61ea75" d="M1005.7,998.1l-2,0.8c-139.8,56-314.6,41.2-467.7-39.7c-153.2-80.9-264-216.9-296.5-363.9l-0.5-2.1l2-0.8       c139.7-56,314.5-41.2,467.7,39.7C861.9,713,972.7,849,1005.3,996L1005.7,998.1z M244.8,596.3       C277.6,741,387.2,874.9,538.4,954.7c151.1,79.8,323.5,94.8,461.6,40.3c-32.8-144.8-142.4-278.7-293.5-358.5       C555.2,556.7,382.9,541.7,244.8,596.3z"/><path fill="#fff" d="M1005.1,997.7c-0.6,1.2-2.2,1.7-3.4,1L240.8,596.9c-1.2-0.6-1.7-2.2-1-3.4c0.6-1.2,2.2-1.7,3.4-1        L1004,994.3C1005.2,995,1005.7,996.5,1005.1,997.7z"/><path fill="#fff" d="M376.5,665.8c-0.2,0.4-0.5,0.7-0.9,1c-1.2,0.7-2.7,0.3-3.4-0.9l-54.4-93.1c-0.7-1.2-0.3-2.7,0.9-3.4        c1.2-0.7,2.7-0.3,3.4,0.9l54.4,93.1C376.9,664.1,376.9,665.1,376.5,665.8z"/><path fill="#fff" d="M473,716.8c-0.3,0.6-0.9,1.1-1.6,1.3l-161.1,37.3c-1.3,0.3-2.7-0.5-3-1.9c-0.3-1.3,0.5-2.7,1.9-3        l161.1-37.3c1.3-0.3,2.7,0.5,3,1.9C473.4,715.6,473.3,716.2,473,716.8z"/><path fill="#fff" d="M575,770.6c-0.3,0.6-0.8,1-1.5,1.2c-1.3,0.4-2.7-0.3-3.1-1.6l-62.6-201.3c-0.4-1.3,0.3-2.7,1.6-3.1        c1.3-0.4,2.7,0.3,3.1,1.6l62.6,201.3C575.4,769.4,575.3,770,575,770.6z"/><path fill="#fff" d="M733.5,854.3c-0.3,0.6-0.9,1.1-1.7,1.3l-272,55.4c-1.4,0.3-2.7-0.6-2.9-2c-0.3-1.4,0.6-2.7,1.9-2.9        l272-55.4c1.4-0.3,2.7,0.6,2.9,2C733.8,853.2,733.7,853.8,733.5,854.3z"/><path fill="#fff" d="M846.3,913.9c-0.3,0.6-0.8,1-1.5,1.2c-1.3,0.4-2.7-0.3-3.1-1.6l-74.5-241.1c-0.4-1.3,0.3-2.7,1.6-3.1        c1.3-0.4,2.7,0.3,3.1,1.6L846.5,912C846.7,912.6,846.6,913.3,846.3,913.9z"/><path fill="#fff" d="M928.2,957.2c-0.3,0.5-0.8,1-1.4,1.2l-196.4,66.3c-1.3,0.4-2.7-0.3-3.2-1.6c-0.4-1.3,0.3-2.7,1.6-3.2        l196.4-66.3c1.3-0.4,2.7,0.3,3.2,1.6C928.6,955.9,928.6,956.6,928.2,957.2z"/></g><g><path fill="#84b2fe" fill-rule="evenodd" d="M1687.8,386l52.4-47.3c8.8-8,22.6-7.3,30.7,1.6l55.1,61.3c33.6-20.1,70.3-32.8,107.8-38.2l4.3-82.3     c0.7-11.9,10.9-21.2,22.8-20.5l70.5,3.7c11.9,0.6,21.1,10.8,20.5,22.8l-4.3,82.3c36.7,9.3,71.9,25.7,103.2,49.2l61.2-55.1     c8.9-8,22.7-7.3,30.7,1.6l47.3,52.4c8,8.8,7.3,22.6-1.7,30.6l-61.2,55.2c20.1,33.6,32.8,70.2,38.2,107.8l82.3,4.3     c11.9,0.7,21.2,10.9,20.5,22.8l-3.7,70.5c-0.6,11.9-10.8,21.1-22.8,20.5l-82.3-4.3c-9.3,36.7-25.7,71.9-49.2,103.2l55.1,61.2     c8,8.9,7.3,22.7-1.6,30.7l-52.4,47.3c-8.8,8-22.6,7.3-30.6-1.7l-55.2-61.2c-33.6,20.1-70.2,32.8-107.8,38.2l-4.3,82.3     c-0.7,11.9-10.9,21.2-22.8,20.5l-70.5-3.7c-11.9-0.6-21.1-10.8-20.5-22.8l4.3-82.3c-36.7-9.3-71.9-25.7-103.2-49.2l-61.2,55.1     c-8.9,8-22.7,7.3-30.7-1.6l-47.3-52.4c-8-8.8-7.3-22.6,1.7-30.6l61.2-55.2c-20.1-33.6-32.8-70.3-38.2-107.8l-82.3-4.3     c-11.9-0.7-21.2-10.9-20.5-22.8l3.7-70.5c0.7-11.9,10.9-21.2,22.8-20.5l82.3,4.3c9.3-36.7,25.7-71.9,49.2-103.2l-55.1-61.2     C1678.2,407.7,1678.9,394,1687.8,386L1687.8,386z M1874.9,541c61.8-55.7,157-50.7,212.6,11.2c55.7,61.8,50.7,157-11.2,212.6     c-61.8,55.7-157,50.7-212.6-11.2S1813.1,596.7,1874.9,541L1874.9,541z" clip-rule="evenodd"/><path fill="#dfe6ff" fill-rule="evenodd" d="M1819.9,480c95.5-86.1,242.8-78.4,328.8,17.2c86.1,95.5,78.4,242.8-17.2,328.8      c-95.5,86.1-242.8,78.4-328.8-17.2C1716.6,713.2,1724.3,566,1819.9,480L1819.9,480z M1874.9,541c61.8-55.7,157-50.7,212.6,11.2      c55.7,61.8,50.7,157-11.2,212.6c-61.8,55.7-157,50.7-212.6-11.2S1813.1,596.7,1874.9,541L1874.9,541z" clip-rule="evenodd"/><path fill="#fff" d="M2058.2,874.6c-29.9,11.1-62,16.1-94.9,14.4c-63.1-3.3-121.1-30.9-163.3-77.9      c-42.3-46.9-63.7-107.5-60.4-170.5c3.3-63.1,30.9-121.1,77.9-163.3c46.9-42.3,107.5-63.7,170.5-60.4      c63.1,3.3,121.1,30.9,163.3,77.9c42.3,46.9,63.7,107.5,60.4,170.5c-3.3,63.1-30.9,121.1-77.9,163.3      C2111.4,848.8,2085.8,864.3,2058.2,874.6z M1895.6,438c-26.7,10-51.6,25-73.4,44.6l0,0c-45.5,41-72.3,97.2-75.5,158.4      c-3.2,61.2,17.6,119.9,58.6,165.4c41,45.5,97.2,72.3,158.4,75.5c61.2,3.2,119.9-17.6,165.4-58.6c45.5-41,72.3-97.2,75.5-158.4      c3.2-61.2-17.6-119.9-58.6-165.4c-41-45.5-97.2-72.3-158.4-75.5C1955.8,422.3,1924.6,427.2,1895.6,438z M2029.5,797.5      c-19.5,7.3-40.5,10.5-61.9,9.4c-41.1-2.2-78.9-20.2-106.5-50.8c-27.6-30.6-41.5-70.1-39.4-111.2c2.2-41.1,20.2-78.9,50.8-106.5      c30.6-27.6,70.1-41.5,111.2-39.4c41.1,2.2,78.9,20.2,106.5,50.8c27.6,30.6,41.5,70.1,39.4,111.2c-2.2,41.1-20.2,78.9-50.8,106.5      C2064.1,780.7,2047.4,790.8,2029.5,797.5z M1924.2,515.2c-16.8,6.3-32.7,15.7-46.8,28.4c-29.2,26.3-46.4,62.4-48.5,101.6      c-2.1,39.2,11.3,76.9,37.6,106.1c41.5,46.1,105.9,59.8,160.8,39.3c16.8-6.3,32.7-15.7,46.8-28.4      c60.2-54.3,65.1-147.4,10.9-207.6C2043.4,508.4,1979.1,494.8,1924.2,515.2z"/></g><g><path fill="#2c7efe" fill-rule="evenodd" d="M811.5,900.3h1278.1c24.6,0,44.9,20.3,44.9,44.9v743.7c0,25-20.3,45.2-44.9,45.2H811.5      c-24.6,0-44.9-20.3-44.9-45.2V945.2C766.6,920.6,786.9,900.3,811.5,900.3L811.5,900.3z" clip-rule="evenodd"/><path fill="#0643a3" fill-rule="evenodd" d="M719.8,1702.6h589.6c1.6,9,12.5,15.9,25.6,15.9h231.2c13.1,0,24-6.9,25.6-15.9h589.6      c14.3,0,25.9,8.1,25.9,18.1v70.2c0,9.7-11.5,18.1-25.9,18.1H719.8c-14,0-25.6-8.4-25.6-18.1v-70.2      C694.2,1710.7,705.8,1702.6,719.8,1702.6L719.8,1702.6z" clip-rule="evenodd"/><path fill="#62cbec" fill-rule="evenodd" d="M865.8,973.6h1169.5c21.5,0,39.3,17.5,39.3,39v645.7c0,21.5-17.8,39-39.3,39H865.8      c-21.5,0-39.3-17.5-39.3-39v-645.7C826.5,991.1,844.3,973.6,865.8,973.6L865.8,973.6z" clip-rule="evenodd"/><path fill="#dfcffd" fill-rule="evenodd" d="M1690.9,1256.9c72.4,0,130.7,53,130.7,118.2c0,37.1-18.7,70.2-48.4,91.7c-7.8,7.2-17.5,12.8-28.1,15.9      c-2.8,1.2-5.3,2.2-8.1,3.1H1724h-79.2h-124.2h-122.3H1300h-92.6h-12.5c-67.1-20-115.4-77.1-115.4-144.4      c0-83.6,75.2-151.6,167.8-151.6c5.3,0,10.6,0.3,15.9,0.6c38.4-62.1,112-103.9,196.2-103.9c112,0,204.6,73.9,222.1,170.6      C1684.7,1256.9,1687.8,1256.9,1690.9,1256.9L1690.9,1256.9z" clip-rule="evenodd"/><path fill="#fff" fill-rule="evenodd" d="M1632.3,1256.9c65.2,0,118.2,53,118.2,118.2c0,37.1-17.2,70.2-44,91.7c-6.9,7.2-15.6,12.8-25.3,15.9      c-2.5,1.2-5,2.2-7.5,3.1h-11.9h-71.4h-112.3h-110.4h-88.9h-83.6h-11.5c-60.5-20-104.2-77.1-104.2-144.4      c0-83.6,68-151.6,151.6-151.6c5,0,9.7,0.3,14.3,0.6c34.9-62.1,101.4-103.9,177.5-103.9c101.1,0,185,73.9,200.9,170.6      C1626.3,1256.9,1629.2,1256.9,1632.3,1256.9L1632.3,1256.9z" clip-rule="evenodd"/><path fill="#be96f8" fill-rule="evenodd" d="M1494.7,1349.8v224.3c0,5.6-4.7,10.3-10.3,10.3h-94.2c-5.6,0-10.3-4.7-10.3-10.3v-224.3h-49l53-64.6      l53.3-64.6l53.3,64.6l53.3,64.6H1494.7z" clip-rule="evenodd"/></g><g><path fill="#0643a3" fill-rule="evenodd" d="M2269,1795.6l-8.4,16.2c-23.4,11.5-76.7,11.9-52.1,32.8l84.2-0.6c4.1-5.9,3.4-20.9-4.4-32.1L2269,1795.6z" clip-rule="evenodd"/><path fill="#ffaa81" fill-rule="evenodd" d="M2258,1750l34.3,1.9l-4.1,59.9c-11.9,11.5-15.3,0.6-27.8,0L2258,1750z" clip-rule="evenodd"/><path fill="#2c7efe" fill-rule="evenodd" d="M2342.3,1796.5l-8.4,16.2c-23.4,11.5-76.4,11.9-52.1,32.4l84.2-0.3c4.1-5.9,3.4-20.9-4.4-32.1     L2342.3,1796.5z" clip-rule="evenodd"/><path fill="#ffaa81" fill-rule="evenodd" d="M2331.7,1750.7l34,1.9l-3.7,59.9c-12.2,11.9-15.3,0.6-28.1,0L2331.7,1750.7z" clip-rule="evenodd"/><path fill="#feb542" fill-rule="evenodd" d="M2285.8,1423.4l68,40.6l60.5,320.1c-92.6,29-156.9,10-219.6-2.5l40.2-318.2L2285.8,1423.4z" clip-rule="evenodd"/><path fill="#ff9866" fill-rule="evenodd" d="M2377.5,1464.3c-0.3,7.5-17.5,15.9-13.1,19.7c4.7,3.4,12.8-7.5,14.3-5.9c8.1,3.7,0.3,26.8,7.2,29     c16.8,5.9,25.9-22.8,9-48.7l-13.7-1.2C2379.7,1457.4,2378.5,1455.6,2377.5,1464.3L2377.5,1464.3z" clip-rule="evenodd"/><path fill="#060352" fill-rule="evenodd" d="M2259.9,1166.7c-8.7-24.3-18.7-53.7,8.7-53.7c11.9,0,17.2-22.8,42.4-19.7c5.6,0.6,15.9,6.6,21.5,15.9     c3.4,5.3,19.7,1.2,22.5,19.7c1.2,7.2,5.6,5.9-1.6,31.2c-5.3,18.7,11.9,47.1,12.8,59.9c1.6,20.6,10.3,19.3,10.3,37.1     c-3.4,8.7-25.3,12.2-48.7,4.4c-8.4-2.8-18.7-4.7-27.1-1.6c-4.7,1.9-21.2,1.6-21.2-10.3c0-9.7-23.4,12.8-19-26.2     c1.2-10.6,9.7,5.3,9.7-27.1C2270.2,1185.4,2267.7,1191.7,2259.9,1166.7L2259.9,1166.7z" clip-rule="evenodd"/><path fill="#ff9866" fill-rule="evenodd" d="M2130.1,1180.1c-1.6-7.5,12.8-20,7.5-22.5c-5.3-2.2-10.3,10.3-12.2,9.7c-8.7-1.9-7.5-25.9-14.7-26.5     c-17.8-0.9-19,29,4.1,49.6l13.4-2.5C2129.8,1187.3,2131.7,1188.5,2130.1,1180.1L2130.1,1180.1z" clip-rule="evenodd"/><path fill="#62cbec" fill-rule="evenodd" d="M2284.3,1229.4l30.6-5.9c20.3,8.1,54.6,17.8,58.3,26.5l26.8,101.4c0,37.1,0,73.9,0,111.1     c-8.1,4.1-17.5,3.1-25.6,0l-13.4-103.6l-14.3-48.4l7.2,159.1l-118.9-0.9l14-164.4l-70.8-6.9c-13.4-1.6-15.3-5.9-20-14l-46.5-93     c4.4-5.9,10.3-12.2,21.5-11.2l55.8,77.4l43.7-11.9L2284.3,1229.4z" clip-rule="evenodd"/><path fill="#ff9866" fill-rule="evenodd" d="M2286.1,1200.4l28.4-1.2l0.3,24.3c-12.2,11.2-23.4,11.9-30.6,5.9L2286.1,1200.4z" clip-rule="evenodd"/><path fill="#ffaa81" fill-rule="evenodd" d="M2328.9,1148.9c-19.3-3.4-38.4-6.9-57.7-10.6c-7.2,11.2-10.9,59.6-1.6,72.4c11.5,15.9,36.2,8.1,43.7-5.3     C2321.4,1192.9,2331.7,1161.4,2328.9,1148.9L2328.9,1148.9z" clip-rule="evenodd"/><path fill="#060352" fill-rule="evenodd" d="M2270.8,1130.8c1.6,4.7-9.4,15.9,9,15.9c10.9,0,2.5-5.3,15.6,4.4c8.4,6.2,20.3-6.9,24,11.2     c1.2,6.2,0.9,13.4,3.7,19c1.6,3.1,7.8,20,12.2,6.6c5-14.7,8.7-12.2,5.9-32.4c-0.6-4.1-8.4-16.5-12.8-19.7     c-8.7-5.6-15.9-6.9-26.8-7.2c-4.4-0.3-29.9-2.8-30.9,0.6C2270.8,1129.9,2270.8,1130.8,2270.8,1130.8L2270.8,1130.8z" clip-rule="evenodd"/><path fill="#ffaa81" fill-rule="evenodd" d="M2320.8,1187c-11.2-5.6-10-10.9-1.2-17.5c2.8-3.1,8.4-5.6,10.9-0.3     C2331.7,1173.9,2324.8,1182.9,2320.8,1187L2320.8,1187z" clip-rule="evenodd"/></g><g><path fill="#ff9866" fill-rule="evenodd" d="M574.8,1391.6l-15.6,18.4l10.6,11.9c7.5,16.8,11.2,63,22.1,51.2l6.2-62.1l-14.3-6.9L574.8,1391.6z" clip-rule="evenodd"/><polygon fill="#8183f1" fill-rule="evenodd" points="644 1374.5 587.9 1425.9 589.7 1614.3 555.7 1793.1 597.8 1797.8 652.8 1619.7 659.9 1528.3 689.2 1628.1 710.1 1808.1 745.7 1807.4 747.3 1631.5 709.5 1422.5 687.4 1395.7 651.5 1411" clip-rule="evenodd"/><path fill="#ffaa81" fill-rule="evenodd" d="M934.8,1150.8l-14.7-16.8c4.7-3.4,9-7.2,13.7-10.6c1.9-6.9,2.5-6.9,11.9-16.5c7.2-4.1,10.9-12.2,19.7-10.9     c14.7,0,40.9-11.5,46.2-8.1c5.6,6.6-37.4,13.1-31.5,26.8c2.8,5.9-4.7,15.6-8.1,18.4c-8.4,4.4-15.3,3.4-22.8,5L934.8,1150.8z" clip-rule="evenodd"/><path fill="#ea718b" fill-rule="evenodd" d="M588.5,1203.2c-40.6,25-82,60.2-116.7,91.1c-5,5.9-4.4,10.9-1.2,15.3l92,109.2l19.3-21.2l-55.5-82.4     l50.8-20.9l10.6,131.6c42.7,33.1,80.2-5.6,121.7-3.4l7.8-156l80.2-6.9c8.4-0.6,15.9-2.8,22.1-7.2l120.7-103.9l-16.8-20.6     l-121.7,75.2l-100.1-2.2C665.5,1192.3,619.4,1186.7,588.5,1203.2L588.5,1203.2z" clip-rule="evenodd"/><path fill="#ff9866" fill-rule="evenodd" d="M678,1172.6l-40.9-9.4l-10,36.8c15,15.6,33.7,12.2,45.5,7.5L678,1172.6z" clip-rule="evenodd"/><path fill="#ffaa81" fill-rule="evenodd" d="M625,1078.4c27.5,0.6,54.9,1.2,82.4,1.9c6.9,17.2-2.2,84.9-18.7,99.8c-20.3,18.7-51.8,0.6-58.6-20.3     C622.8,1140.8,617.8,1094.3,625,1078.4L625,1078.4z" clip-rule="evenodd"/><path fill="#060352" fill-rule="evenodd" d="M680.2,1091.2c10-5,19.7,8.7,29.3,3.1c15.9-19,20.9-39-9.7-53.3c0.3,5-2.8,7.2-4.7,7.8     c-4.4-2.8-8.1-8.1-16.5-7.8c5,5.6,5.3,9,2.2,13.1c-11.5,2.8-27.1-8.7-43.4-4.4c-15,6.2-20.9,14.3-25.9,25.3     c-11.5,29,4.7,49.9,11.5,61.1c3.1,2.8,4.4,4.1,15-5.3c-8.7-9-12.5-20.3-3.1-26.2c13.7-8.7,8.1,10.9,17.5,14     C653.7,1110.2,672.7,1094,680.2,1091.2L680.2,1091.2z" clip-rule="evenodd"/><path fill="#8183f1" fill-rule="evenodd" d="M726.1,1810.6l15.3,5.9c19,11.5,65.2,7.2,56.8,34.6l-89.5-2.2c0.3-11.2-0.3-23.1,5.6-33.4L726.1,1810.6z" clip-rule="evenodd"/><path fill="#ff9866" fill-rule="evenodd" d="M714.2,1800.6l27.1,0.6v15.3c-9,2.5-18.7,1.9-27.1-0.9V1800.6z" clip-rule="evenodd"/><path fill="#8183f1" fill-rule="evenodd" d="M573.8,1804l15,6.9c17.8,13.4,64.3,13.7,53.3,40.2l-88.9-10.9c1.2-10.9,1.6-22.8,8.7-32.8L573.8,1804z" clip-rule="evenodd"/><path fill="#ff9866" fill-rule="evenodd" d="M563.2,1792.5l27.1,3.4l-1.6,15c-9.4,1.9-18.7,0.3-26.8-3.4L563.2,1792.5z" clip-rule="evenodd"/></g></svg>