<svg xmlns="http://www.w3.org/2000/svg" data-name="&amp;lt;Layer&amp;gt;" viewBox="0 0 4000 4000"><path fill="#e8e8f1" d="m352.9,2338.22c-159.33-280.31-265.69-614.75-164.35-913.75,96.17-283.76,375.15-428.85,649.43-497.11,286.8-71.38,587.9-79.52,877.77-140.19,304.1-63.64,603.02-152.4,892.06-266.42,131.09-51.71,260.72-108.78,397.3-143.5,246.23-62.59,548.36-23.08,709.21,193.27,167.95,225.91,175.57,552.9,54.29,801.69-138.56,284.23-387.09,507.08-478.35,815.77-55.31,187.12-42.28,390.43-107.58,574.02-63.95,179.8-160.67,349.54-293.32,487.6-151.39,157.58-351.06,272.09-567.07,305.09-298.25,45.56-598.62-63.96-866.24-203.26-357.83-186.25-691.39-435.12-935.61-759.2-57.9-76.83-115.53-162.54-167.53-254.01Z" opacity=".51"/><path fill="#393b50" d="m3801.71,3639.56H198.29c-7.65,0-13.85-6.2-13.85-13.85h0c0-7.65,6.2-13.85,13.85-13.85h3603.43c7.65,0,13.85,6.2,13.85,13.85h0c0,7.65-6.2,13.85-13.85,13.85Z"/><path fill="#39b54a" d="m3488.3,3316.22c-.3,5.36,2.35,10.47,7.39,12.59.11.04.21.08.32.11,1.25,1.55,3.37,1.87,5.29,1.24,10.25-3.39,20.17-7.71,29.63-12.92,17.14-9.43,32.7-21.53,45.96-35.91,12.99-14.08,24.27-31.12,25.72-50.74.17-2.25-1.35-4.17-3.49-4.67-1.96-.46-4.59.69-5.11,2.81-1.27,5.18-4.09,8.87-8.17,12.24-4.29,3.55-9.15,6.15-14.12,8.65-18.47,9.29-36.74,19.05-53.2,31.67-8.23,6.31-15.87,13.3-22.81,21-3.51,3.9-7.11,8.44-7.41,13.91Z"/><path fill="#39b54a" d="m3492.23,3238.38c-2.58,3.82-5.05,7.72-7.41,11.68-1.07,1.79-2.23,3.64-2.84,5.65-.75,2.47-.67,4.63.1,7.07.54,1.72,2.46,2.59,4.22,2.54.67,1.95,2.89,3.66,4.98,3.03,9.75-2.94,19.08-6.93,27.79-12.22,15.9-9.66,30.07-22.91,39.41-39.11,8.77-15.21,12.79-32.25,16.2-49.3.75-1.81,1.18-3.79,1.17-5.95,0-.02,0-.04.01-.05,0,0,0,0-.01,0,0-.37-.01-.75-.04-1.13-.17-2.23-2.54-3.69-4.57-3.63-2.36.07-3.8,1.86-4.22,4.03-.28,1.45-.57,2.9-.85,4.35-.11.16-.27.37-.5.7-.27.38-.57.75-.86,1.12-.1.13-.17.22-.22.28-.06.06-.15.14-.28.26-.83.81-1.68,1.57-2.58,2.3-3.69,2.97-7.77,5.45-11.6,8.25-15.06,11.01-28.76,23.81-40.94,37.94-6.08,7.06-11.76,14.48-16.98,22.2Z"/><path fill="#39b54a" d="m3448.25,3211.74c-13.13-13.25-27.68-25.08-43.47-35.02-4.01-2.52-8.25-4.72-12.14-7.43-.95-.66-1.85-1.37-2.73-2.11-.13-.11-.23-.19-.29-.24-.05-.06-.13-.15-.24-.27-.32-.35-.64-.69-.93-1.05-.25-.31-.42-.51-.54-.66-.39-1.43-.77-2.85-1.15-4.28-.57-2.14-2.12-3.82-4.49-3.73-2.02.08-4.29,1.69-4.31,3.93,0,.39.01.76.04,1.13,0,0,0,0-.01,0,0,.02,0,.03.01.05.14,2.16.7,4.1,1.58,5.86,4.58,16.78,9.77,33.5,19.57,48.06,10.44,15.52,25.49,27.75,42.02,36.29,9.05,4.68,18.64,8.02,28.57,10.27,2.13.48,4.23-1.38,4.76-3.37,1.76-.08,3.62-1.08,4.03-2.83.59-2.49.53-4.65-.39-7.06-.75-1.96-2.04-3.73-3.23-5.44-2.62-3.79-5.36-7.51-8.2-11.14-5.74-7.34-11.91-14.35-18.47-20.97Z"/><path fill="#39b54a" d="m3466.18,3148.4c-6.6-5.68-14.19-10.03-21.6-14.53-3.78-2.3-7.54-4.64-11.13-7.23-1.52-1.1-3-2.24-4.43-3.45-1.66-1.4-2.67-2.32-4.03-3.73-5.92-6.12-10.06-12.77-10.81-21.13-.24-2.38-2.77-4.06-5.06-3.71-2.5.38-3.93,2.66-3.71,5.06,1.78,17.37,3.93,35.05,12.64,50.51,7.76,13.77,19.23,25.45,33.04,33.18,7.98,4.47,16.45,7.63,25.43,9.4,1.54.3,3.05-.53,3.98-1.77,1.37-.63,2.31-2,2.64-3.6,3.11-15.04-5.98-29.57-16.96-39Z"/><path fill="#39b54a" d="m3470.95,2978.91c2.18-1,4.88,0,5.88,2.18,8.1,17.73,14.73,36.23,18.87,55.3,4.11,18.91,5.71,38.56,3.52,57.83-1.22,10.71-2.95,22.54-9.64,31.27,2.55,7.6,2.7,15.86,2.84,23.81.14,7.78-.12,15.55-.59,23.31,2.72-7.36,7.54-14.11,12.98-19.49,6.2-6.12,13.46-10.99,20.54-15.99,3.61-2.55,7.2-5.15,10.6-7.98,1.44-1.2,2.83-2.45,4.18-3.75,1.56-1.51,2.5-2.5,3.76-4,5.48-6.51,9.15-13.44,9.33-21.83.08-2.39,2.48-4.24,4.79-4.05,2.52.21,4.1,2.39,4.05,4.79-.57,17.45-1.49,35.23-9.11,51.26-6.79,14.28-17.42,26.72-30.66,35.39-7.65,5.01-15.88,8.75-24.72,11.14-1.52.41-3.08-.32-4.09-1.49-1.41-.54-2.45-1.84-2.89-3.41-.09-.33-.17-.67-.26-1-1.12,12.94-2.38,25.87-3.07,38.84-1.85,35.03-.73,70.11,3.37,104.94,1,8.5,2.18,16.98,3.53,25.43,0,0,0,0,0,0,14.7-13.52,32.18-23.58,51.09-29.9,9.5-3.18,18.98-6.2,28.14-10.31,8.62-3.87,17.13-8.46,24.92-13.54,9.1-5.94,17.66-12.66,25.61-20.07,2.66-2.48,7.92.05,7.24,3.79-2.13,11.88-8.44,22.22-15.72,31.65-7.13,9.24-15.32,17.76-24.44,25.04-16.97,13.55-37.4,22.93-59.07,25.43-11.74,1.35-23.51.7-35-2.05-.45-.11-.84-.3-1.19-.57,1.38,7.89,6.11,63.02,7.79,70.84.5,2.34-1.3,4.73-3.6,5.13-2.44.43-4.63-1.25-5.13-3.6-2.19-10.22-7.33-67.76-9-78.07-.27.2-.58.35-.91.46-11.28,3.54-22.97,5-34.78,4.47-21.79-.99-42.82-8.93-60.69-21.28-9.61-6.64-18.36-14.57-26.12-23.29-7.92-8.9-14.93-18.78-17.88-30.48-.93-3.68,4.13-6.57,6.97-4.28,8.44,6.84,17.45,12.96,26.94,18.25,8.13,4.54,16.93,8.52,25.8,11.79,9.42,3.47,19.09,5.82,28.78,8.34,18.08,4.69,35.14,12.72,50.05,23.97-1.73-12.11-3.11-24.26-4.13-36.45-.97,2.95-2.97,5.48-5.93,6.98-.1.05-.21.09-.31.13-1.15,1.63-3.23,2.1-5.19,1.6-10.46-2.68-20.65-6.3-30.45-10.83-17.75-8.23-34.11-19.21-48.34-32.64-13.93-13.15-26.37-29.36-29.17-48.83-.32-2.23,1.06-4.25,3.16-4.9,1.92-.59,4.63.37,5.29,2.45,1.63,5.08,4.7,8.57,9,11.65,4.53,3.24,9.55,5.5,14.69,7.65,19.07,7.99,37.97,16.46,55.26,27.91,8.64,5.72,16.75,12.17,24.21,19.38,2.66,2.57,5.38,5.45,6.99,8.84-.35-5.12-.64-10.23-.86-15.36-.77-17.51-.8-35.04-.1-52.55.72-17.93,2.53-35.75,4.01-53.62.84-10.22,1.51-20.47,1.55-30.73.03-8.05.28-17.1-2.2-24.82-.36-.23-.68-.51-.95-.83-.56-.68-.87-1.44-.96-2.21-4.6-2.42-7.35-6.72-8.97-11.63-1.57-4.73-2.63-9.66-3.55-14.55-1.81-9.7-2.66-19.54-2.88-29.4-.42-19.29,2.22-38.2,5.29-57.18.79-4.91,1.47-9.86,1.54-14.84.04-2.54-.05-4.26-.45-6.88-.38-2.51-.93-4.61-1.73-6.66-.87-2.23-.09-4.84,2.18-5.88Z"/><rect width="373.68" height="89.44" x="3301.43" y="3324.9" fill="#9ed7d7" rx="4.06" ry="4.06"/><path fill="#393b50" d="m3565.29,3623.81h-154.04c-11.01,0-20.64-7.39-23.49-18.02l-51.3-191.44h303.63l-51.3,191.44c-2.85,10.63-12.48,18.02-23.49,18.02Z"/><polygon fill="#232533" points="3357.29 3492.07 3640.09 3414.34 3336.46 3414.34 3357.29 3492.07"/><g><rect width="175.52" height="228.26" x="2696.6" y="3384.44" fill="#9ed7d7"/><polygon fill="#fff" points="2739.74 3338.49 2696.6 3384.44 2872.12 3384.44 2833.65 3338.49 2739.74 3338.49"/><rect width="92.19" height="57.32" x="2740.53" y="3281.17" fill="#fff"/><rect width="175.52" height="53.82" x="2696.6" y="3459.02" fill="#fff"/><g><rect width="175.52" height="228.26" x="2401.02" y="3384.44" fill="#393b50"/><polygon fill="#393b50" points="2444.16 3338.49 2401.02 3384.44 2576.54 3384.44 2538.07 3338.49 2444.16 3338.49"/><rect width="92.19" height="57.32" x="2444.78" y="3281.17" fill="#393b50"/><rect width="175.52" height="53.82" x="2401.02" y="3459.02" fill="#9ed7d7"/></g><g><rect width="113.72" height="187.17" x="2815.2" y="3425.53" fill="#e8e8f1" rx="19.5" ry="19.5"/><circle cx="2848.58" cy="3464.62" r="13.96" fill="#fff"/><line x1="2836.52" x2="2859.25" y1="3464.62" y2="3464.62" fill="none" stroke="#e8e8f1" stroke-linecap="round" stroke-miterlimit="10" stroke-width="6"/><circle cx="2895.65" cy="3464.62" r="13.96" fill="#fff"/><line x1="2883.59" x2="2906.33" y1="3464.62" y2="3464.62" fill="none" stroke="#e8e8f1" stroke-linecap="round" stroke-miterlimit="10" stroke-width="6"/><circle cx="2848.58" cy="3499.89" r="13.96" fill="#fff"/><line x1="2836.52" x2="2859.25" y1="3499.89" y2="3499.89" fill="none" stroke="#e8e8f1" stroke-linecap="round" stroke-miterlimit="10" stroke-width="6"/><circle cx="2895.65" cy="3499.89" r="13.96" fill="#fff"/><line x1="2883.59" x2="2906.33" y1="3499.89" y2="3499.89" fill="none" stroke="#e8e8f1" stroke-linecap="round" stroke-miterlimit="10" stroke-width="6"/><circle cx="2848.58" cy="3536.63" r="13.96" fill="#fff"/><line x1="2836.52" x2="2859.25" y1="3536.63" y2="3536.63" fill="none" stroke="#e8e8f1" stroke-linecap="round" stroke-miterlimit="10" stroke-width="6"/><g><circle cx="2895.65" cy="3536.63" r="13.96" fill="#fff"/><line x1="2883.59" x2="2906.33" y1="3536.63" y2="3536.63" fill="none" stroke="#e8e8f1" stroke-linecap="round" stroke-miterlimit="10" stroke-width="6"/></g><g><circle cx="2848.58" cy="3573.36" r="13.96" fill="#fff"/><line x1="2836.52" x2="2859.25" y1="3573.36" y2="3573.36" fill="none" stroke="#e8e8f1" stroke-linecap="round" stroke-miterlimit="10" stroke-width="6"/></g><g><circle cx="2895.65" cy="3573.36" r="13.96" fill="#fff"/><line x1="2883.59" x2="2906.33" y1="3573.36" y2="3573.36" fill="none" stroke="#e8e8f1" stroke-linecap="round" stroke-miterlimit="10" stroke-width="6"/></g><path fill="#fff" d="m2872.12,3605.44h0c.44,0,.79-.36.79-.79v-163.96c0-.44-.36-.79-.79-.79h0c-.44,0-.79.36-.79.79v163.96c0,.44.36.79.79.79Z"/></g></g><g><rect width="526.87" height="867.16" x="1447.89" y="780.58" fill="#393b50" rx="19.5" ry="19.5" transform="rotate(-17.94 1711.336 1214.157)"/><circle cx="1530.1" cy="1007.47" r="64.69" fill="#fff"/><line x1="1476.91" x2="1577.13" y1="1024.7" y2="992.25" fill="none" stroke="#e8e8f1" stroke-linecap="round" stroke-miterlimit="10" stroke-width="6"/><circle cx="1737.58" cy="940.3" r="64.69" fill="#fff" transform="rotate(-45 1737.576 940.302)"/><line x1="1684.39" x2="1784.61" y1="957.52" y2="925.07" fill="none" stroke="#e8e8f1" stroke-linecap="round" stroke-miterlimit="10" stroke-width="6"/><circle cx="1580.43" cy="1162.94" r="64.69" fill="#fff"/><line x1="1527.24" x2="1627.47" y1="1180.17" y2="1147.72" fill="none" stroke="#e8e8f1" stroke-linecap="round" stroke-miterlimit="10" stroke-width="6"/><circle cx="1787.92" cy="1095.77" r="64.69" fill="#fff" transform="rotate(-45 1787.914 1095.772)"/><line x1="1734.72" x2="1834.95" y1="1112.99" y2="1080.54" fill="none" stroke="#e8e8f1" stroke-linecap="round" stroke-miterlimit="10" stroke-width="6"/><circle cx="1632.86" cy="1324.86" r="64.69" fill="#fff" transform="rotate(-45 1632.863 1324.856)"/><line x1="1579.67" x2="1679.89" y1="1342.08" y2="1309.63" fill="none" stroke="#e8e8f1" stroke-linecap="round" stroke-miterlimit="10" stroke-width="6"/><g><circle cx="1840.34" cy="1257.68" r="64.69" fill="#fff" transform="rotate(-45 1840.337 1257.677)"/><line x1="1787.15" x2="1887.37" y1="1274.9" y2="1242.45" fill="none" stroke="#e8e8f1" stroke-linecap="round" stroke-miterlimit="10" stroke-width="6"/></g><g><circle cx="1685.28" cy="1486.77" r="64.69" fill="#fff" transform="rotate(-45 1685.282 1486.773)"/><line x1="1632.09" x2="1732.31" y1="1503.99" y2="1471.54" fill="none" stroke="#e8e8f1" stroke-linecap="round" stroke-miterlimit="10" stroke-width="6"/></g><g><circle cx="1892.76" cy="1419.59" r="64.69" fill="#fff" transform="rotate(-45 1892.756 1419.595)"/><line x1="1839.57" x2="1939.79" y1="1436.82" y2="1404.37" fill="none" stroke="#e8e8f1" stroke-linecap="round" stroke-miterlimit="10" stroke-width="6"/></g><path fill="#fff" d="m1834.8,1594.58h0c1.92-.62,2.98-2.7,2.36-4.62l-233.99-722.72c-.62-1.92-2.7-2.98-4.62-2.36h0c-1.92.62-2.98,2.7-2.36,4.62l233.99,722.72c.62,1.92,2.7,2.98,4.62,2.36Z"/></g><g><path fill="#21242d" d="m1937.36,559.23h1260.8c34.91,0,63.26,28.35,63.26,63.26v2557.71c0,34.91-28.35,63.26-63.26,63.26h-1260.8c-34.91,0-63.26-28.35-63.26-63.26V622.49c0-34.91,28.35-63.26,63.26-63.26Z"/><path fill="#414558" d="m1857.27,559.22h1260.8c34.91,0,63.26,28.35,63.26,63.26v2557.71c0,34.91-28.35,63.26-63.26,63.26h-1260.8c-34.91,0-63.26-28.35-63.26-63.26V622.48c0-34.91,28.35-63.26,63.26-63.26Z"/><path fill="#9ed7d7" d="m1892.09,601.35h1191.13c30.89,0,55.97,25.08,55.97,55.97v2488.04c0,30.89-25.08,55.97-55.97,55.97h-1191.13c-30.89,0-55.97-25.08-55.97-55.97V657.32c0-30.89,25.08-55.97,55.97-55.97Z"/><path fill="#414558" d="m2717.9,643.23h-431.76c-21.06,0-38.12,17.07-38.12,38.12h0c0,21.06,17.07,38.12,38.12,38.12h431.76c21.06,0,38.12-17.07,38.12-38.12h0c0-21.06-17.07-38.12-38.12-38.12Z"/></g><g><g data-name="Artwork 5"><path fill="#8e5b59" d="m2072.17,1930.8h0c-23.35-52.65.9-114.55,54.44-138.13,53.49-23.53,115.82,0,139.21,52.69,23.44,52.82-.93,114.69-54.34,138.22-53.56,23.63-115.87.14-139.29-52.77l-.02-.02Z"/><path fill="#fff" d="m2134.7,2396.56h0c83.75-169.34,135.9-416.11,139.46-498.8l-209.22-26.74c-26.08,148.33-38.37,246.41-57.3,505.57l127.05,19.99v-.02Z"/><path fill="#fff" d="m2136.89,1276.65c-48.12,159.19-75.45,606.68-75.45,606.68l209.08,25.63c24.23-88.61,82.77-447.1,100.95-591.75,15.37-122.14-204.66-139.71-234.6-40.56h.02Z"/><path fill="#8e5b59" d="m2259.51,1938.57h0c28.17-50.28,9.57-114.11-41.54-142.54-51.11-28.37-115.33-10.62-143.43,39.66-28.21,50.47-9.58,114.35,41.37,142.7,51.15,28.4,115.39,10.76,143.6-39.8v-.02Z"/><path fill="#8e5b59" d="m1895.44,2532.12h0c-28.06-11.34-2.63-42.3,8.68-61.43,11.8-20.03,23.8-46.24,49.85-78.43,7.36-9.05,38.7-44.25,82.28-48.09,13.19-1.15-22.49,80.41-27.28,91.17,0,0-47.51,39.63-61.03,55.04-13.81,15.8-29.83,50.9-52.51,41.73l.02.02Z"/><path fill="#8e5b59" d="m2007.6,2504.47h0c4.46-12.05-31.62-64.61-36.13-52.48l-52.8,168.91c-4.51,12.04-2.26,25.4,9.83,29.86,12.21,4.56,24-2.29,28.51-14.37l50.59-131.94v.02Z"/><path fill="#8e5b59" d="m2110.29,2473.77h0c-12.91.2-19.22,10.78-19.05,23.67l.2,141.63c.16,12.8,8.12,22.8,21.06,22.72,12.92-.12,23.62-15.85,23.5-28.76l7.5-153.07c-.16-12.92-20.31-6.35-33.21-6.22v.03Z"/><path fill="#8e5b59" d="m2036.49,2483.95h0c-13.8-3.86-28.26,4.59-32.23,18.96l-39.57,156.42c-3.97,14.37-.4,29.36,13.44,33.3,13.76,3.86,25.12-5.29,29.13-19.58l47.03-156.14c4.01-14.34-3.89-29.08-17.78-32.97l-.03.02Z"/><path fill="#8e5b59" d="m2068.97,2474.26h0c-14.26-1.96-27.45,8.31-29.58,23.02l-17.82,161.08c-2.05,14.7,2.58,28.38,16.75,30.39,14.29,2.08,23.84-11.37,25.93-26.13l34.53-164.16c2.05-14.7-15.69-22.16-29.82-24.2h.02Z"/><path fill="#8e5b59" d="m1963.69,2488.23h0s155.3,94.81,180.37,8.63c32.51-120.49-39.29-159.68-107.24-155.06-67.92,4.63-57.56,103.23-73.16,146.43h.03Z"/><polygon fill="#232533" points="2513.68 3201.33 2564.75 2414.56 2222.07 2413.11 2233.89 3201.33 2513.68 3201.33"/><path fill="#842a2b" d="m2500.96,3201.33c-20.09-51.26-70.03-87.56-128.41-87.59-58.38,0-108.35,36.3-128.45,87.59h256.86Z"/><path fill="#232533" d="m2500.9,3201.33c-18.78-47.82-63.66-83.19-118.29-87.2-61.78-4.53-117.05,32.39-138.51,87.2h256.8Z"/><g><polygon fill="#3a3c50" points="2906.95 3201.33 2878.38 2413.11 2532.65 2414.43 2625.9 3201.33 2906.95 3201.33"/><path fill="#a73e39" d="m2896.28,3201.33c-24.5-51.31-79.42-84.07-139.14-77.7-49.35,5.29-89.8,36-109.76,77.7h248.89Z"/></g><path fill="#3a3c50" d="m2266.06,2109.69h0c87.5-97.58,454.04-96.89,556.3-18.15,67.08,51.64,55.21,358.61,55.21,358.61l-332.87,91.05-321.98-86.99s-6.94-288.52,43.33-344.51h0Z"/><path fill="#030303" d="m2286.53,1582.28c-.73,0-.73-1.21,0-1.21.78,0,.78,1.21,0,1.21Z"/><path fill="#fff" d="m2225,2185.46h0c.17-54.08,1.8-199,2.3-296.63,1.23-239.38-8.85-583.44-8.85-583.44,0-91.31,28.59-184.35,329.33-184.35,284.46,0,363.3,67.31,363.3,158.63,0,0-67.02,531.79-62.96,701.6,1.18,50.13,20.64,112.39,25.1,195.77,4.34,80.69-221.46,136.1-393.04,134.02-154.11-1.88-255.41-53.67-255.21-125.57l.02-.02Z"/><path fill="#3a3c50" d="m2893.89,3201.33c-22.63-48.61-72.73-81.54-129.72-79.64-53.65,1.82-99.12,34.09-120.37,79.64h250.09Z"/><g><path fill="#fff" d="m2910.03,1834.04c32.21-47.78,97.53-60.05,145.96-27.2,48.34,32.8,61.47,98.17,29.26,145.96-32.33,47.89-97.72,60.08-146.01,27.31-48.46-32.85-61.61-98.17-29.21-146.06v-.02Z"/><path fill="#fff" d="m2548.55,2134.21h0c187.93-18.87,424.74-105.68,496.72-146.59l-88.37-191.47c-170.76,84.73-229.22,98.29-458.95,219.83l50.61,118.25v-.02Z"/></g><g><path fill="#fff" d="m2985.49,1264.65h0c69.54,194.57,113.85,525.85,112.79,600.84l-207.09,38.54c-29.66-87-110.32-441.16-137.38-584.42-22.89-120.94,196.81-152.51,231.66-54.96h.02Z"/><path fill="#fff" d="m2904.06,1932.9h0c-31.25-48.45-16.67-113.33,32.6-144.84,49.27-31.49,114.49-17.75,145.65,30.7,31.26,48.62,16.6,113.54-32.52,145-49.3,31.48-114.49,17.82-145.73-30.86h0Z"/></g><g><path fill="#8e5b59" d="m2299.73,2030.01h0c-9.13-28.85,30.98-29.04,52.93-32.47,22.91-3.65,50.77-11.15,92.18-11.52,11.7-.14,58.77,1.62,89.49,32.72,9.29,9.39-76.26,33.87-87.7,37.06,0,0-60.73-11.35-81.3-11.93-20.92-.61-58.15,9.41-65.59-13.89l-.02.03Z"/><path fill="#8e5b59" d="m2390.95,2093.11h0c12.43-3.33,36.57-59.32,24.12-56.04l-168.63,53.38c-12.46,3.24-22.35,12.35-19.52,23.89,2.77,11.62,14.85,16.72,27.22,13.47l136.8-34.68v-.02Z"/><path fill="#8e5b59" d="m2465.57,2158.09h0c-5.96-10.4-18.17-10.65-29.58-4.74l-125.79,63.8c-11.37,5.85-16.67,16.84-10.81,27.22,5.89,10.39,24.62,11.98,36.1,6.08l139.4-62.71c11.4-5.89-3.45-19.24-9.33-29.64h.02Z"/><path fill="#8e5b59" d="m2422.77,2096.47h0c-4.2-12.5-18.97-18.71-33.1-13.76l-151.16,56.44c-14.06,4.88-24.6,15.83-20.39,28.38,4.25,12.49,17.93,15.99,31.95,11.12l154.92-50.7c14.04-4.93,22.04-18.97,17.76-31.49l.02.02Z"/><path fill="#8e5b59" d="m2448.76,2126.5h0c-5.24-12.15-20.61-17.45-34.34-11.8l-148,65.68c-13.7,5.65-23.3,16.05-18.1,28.17,5.18,12.22,21.46,13.11,35.24,7.47l158.76-54.09c13.76-5.65,11.52-23.3,6.42-35.4l.02-.02Z"/><path fill="#8e5b59" d="m2380.76,2051.19s5.01,168.84,89.97,140.21c117.58-41.98,111.38-117.46,70.92-165.93-40.42-48.43-116.68,13.67-160.91,25.72h.02Z"/></g><g><path fill="#3a3c50" d="m2000.85,1794.91c0-29.01,23.52-52.51,52.51-52.51h285.06c4.95,0,9.72.68,14.28,1.96,22.04,6.24,38.21,26.5,38.21,50.55l17.5,193.31,5.6,61.85,13.75,152c0,29.01-23.52,52.51-52.51,52.51h-285.04c-29.02,0-52.52-23.52-52.52-52.51l-1.2-13.19-35.65-393.97h.02Z"/><path fill="#8e5b59" d="m2408.38,1988.23c10.92-1.26,22.99-2.15,36.47-2.26,11.7-.12,58.76,1.63,89.48,32.74,9.29,9.39-76.26,33.89-87.7,37.06,0,0-15.01-2.81-32.65-5.71l-5.6-61.85v.02Z"/><path fill="#8e5b59" d="m2390.95,2093.11h0c12.43-3.33,36.57-59.32,24.12-56.04l-168.63,53.38c-12.46,3.24-22.35,12.35-19.52,23.89,2.77,11.62,14.85,16.72,27.22,13.47l136.8-34.68v-.02Z"/><path fill="#8e5b59" d="m2465.57,2158.09h0c-5.96-10.4-18.17-10.65-29.58-4.74l-125.79,63.8c-11.37,5.85-16.67,16.84-10.81,27.22,5.89,10.39,24.62,11.98,36.1,6.08l139.4-62.71c11.4-5.89-3.45-19.24-9.33-29.64h.02Z"/><path fill="#8e5b59" d="m2422.77,2096.47h0c-4.2-12.5-18.97-18.71-33.1-13.76l-151.16,56.44c-14.06,4.88-24.6,15.83-20.39,28.38,4.25,12.49,17.93,15.99,31.95,11.12l154.92-50.7c14.04-4.93,22.04-18.97,17.76-31.49l.02.02Z"/><path fill="#8e5b59" d="m2448.76,2126.5h0c-5.24-12.15-20.61-17.45-34.34-11.8l-148,65.68c-13.7,5.65-23.3,16.05-18.1,28.17,5.18,12.22,21.46,13.11,35.24,7.47l158.76-54.09c13.76-5.65,11.52-23.3,6.42-35.4l.02-.02Z"/><path fill="#8e5b59" d="m2380.76,2051.19s5.01,168.84,89.97,140.21c117.58-41.98,111.38-117.46,70.92-165.93-40.42-48.43-116.68,13.67-160.91,25.72h.02Z"/></g><path fill="#232533" d="m2000.83,1794.89h0c0-29.01,23.52-52.51,52.51-52.51h285.04c4.95,0,9.74.68,14.28,1.98.05,2.16.05,4.31.05,6.47,0,204.1-132.51,377.24-316.22,438.05l-35.65-393.97v-.02Z"/></g><path fill="none" stroke="#343538" stroke-miterlimit="10" stroke-width="6" d="m2667.15,1101.73c44.25,3.83,71.14,19.63,86.4,31.68,73.69,58.23,86.75,195.3,23.03,336.94"/><circle cx="2742.32" cy="1524.12" r="67.19" fill="#9ed7d7"/><circle cx="2742.32" cy="1524.12" r="26.88" fill="#fff"/><path fill="none" stroke="#343538" stroke-miterlimit="10" stroke-width="6" d="m2473.57,1714.52c-39.78,24.46-78.29,39.33-101.11,24.32-50.59-33.28-37.87-222.53,61.43-263.67,100.61-41.68,244.35,87.67,231.66,149.74-4.77,23.36-32.09,39.07-64,49.91"/><circle cx="2565.72" cy="1687.62" r="28.15" fill="#9ed7d7" transform="rotate(-45 2565.717 1687.625)"/><circle cx="2482.52" cy="1715.78" r="28.15" fill="#9ed7d7" transform="rotate(-22.5 2482.532 1715.782)"/><path fill="none" stroke="#343538" stroke-miterlimit="10" stroke-width="6" d="m2424.45,1479.63c-72.83-84.73-94.11-193.71-53.28-277.11,24.2-49.44,64.2-77.58,88.99-91.65"/><g><path fill="#8e5b59" d="m2462.44,1166.57h-.03c-7.53-21.74-8.59-44.36-8.87-67.02-.16-8.9-.19-17.84-.44-26.74-.68-22.89-1.4-45.8-2.08-68.7-.08-2.86-.11-5.88,1.37-8.31,1.59-2.55,4.43-3.92,7.17-5.13,69.57-31.43,136.82-68.01,201.02-109.29,4.37-2.83,15.01-12.58,20.44-9.58,5.88,3.27.31,16.83-.59,21.84-1.32,7.15-2.54,14.34-3.65,21.54-1.63,10.7-3.08,21.45-4.29,32.19-1.49,13.33-2.54,26.69-3.19,40.06-1.09,21.77-1.1,43.63-.3,65.42,1.17,32.8,9.75,69.1.42,101.25-13.56,46.61-68.98,58.09-111.11,59.86-38.17,1.62-81.72-6.64-95.84-47.36l-.03-.05Z"/><path fill="#895251" d="m2453.55,1099.57h0c-.16-8.9-.19-17.84-.44-26.74-.68-22.89-1.4-45.8-2.08-68.7-.08-2.86-.11-5.88,1.37-8.31,1.59-2.55,4.43-3.92,7.17-5.13,69.57-31.43,136.82-68.01,201.02-109.29,4.37-2.83,15.01-12.58,20.44-9.58,5.88,3.27.31,16.83-.59,21.84-1.32,7.15-2.54,14.34-3.65,21.54-1.63,10.7-3.08,21.45-4.29,32.19-1.49,13.33-2.54,26.69-3.19,40.06-14.64,11-29.72,21.35-44.36,31.14-52.65,35.27-110.68,62.23-171.35,81l-.05-.03Z"/><path fill="#895251" d="m2362.22,773.73c-30.81-8.77-62.91,9.08-71.7,39.91-8.77,30.81,9.08,62.91,39.91,71.7,30.81,8.77,62.91-9.1,71.7-39.91,8.77-30.81-9.1-62.91-39.91-71.7Z"/><path fill="#895251" d="m2453,1003.53l108.11-61.08c2.08,117.1-97.74,122.5-97.74,122.5l-10.37-61.42Z"/><path fill="#8e5b59" d="m2342.89,646.83c119.15-140.79,357.44-67.89,317.65,193.49-26.42,173.63-142.98,181.32-142.98,181.32-100.38,21.32-163.31-26.41-189.93-103.32-26.63-76.93,15.26-271.49,15.26-271.49h0Z"/><path fill="#8e5b59" d="m2679.47,793.81c-25.55-7.28-52.18,7.54-59.46,33.1-7.28,25.55,7.54,52.18,33.1,59.46,25.55,7.28,52.18-7.54,59.46-33.1,7.28-25.55-7.54-52.18-33.1-59.46Z"/><path fill="none" stroke="#ed8b62" stroke-linecap="round" stroke-linejoin="round" stroke-width="1.54" d="m2643.61,855.12c8.74-38.99,44.17-29.44,44.17-29.44"/><g><path fill="#161616" d="m2388.09,783.37h0c2.12-8.66-3.19-17.4-11.85-19.53-8.65-2.12-17.39,3.19-19.52,11.85-2.12,8.66,3.19,17.4,11.85,19.53,8.66,2.12,17.4-3.19,19.53-11.85h-.02Z"/><path fill="#161616" d="m2512.74,764.29c-8.66-2.12-17.4,3.19-19.53,11.85-2.12,8.66,3.19,17.4,11.85,19.53,8.66,2.12,17.4-3.19,19.53-11.85,2.12-8.66-3.19-17.4-11.85-19.53Z"/><polyline fill="none" stroke="#ed8b62" stroke-linecap="round" stroke-linejoin="round" stroke-width="2.74" points="2420.13 855.77 2394.62 840.58 2423.31 798.52"/></g><path fill="#11163b" d="m2381.45,682.37v-.06c8.69,4.42,7.19,12.8,13.39,15.3,11.57,4.67,22.54-22.3,43.98-24.87,19.44-2.32,22.85,18.35,49.72,22.96,26.33,4.53,34.73-13.28,59.29-5.72,2.91.9,23.27,7.48,30.59,24.87,6.41,15.24-2.74,25.52,3.83,32.52,11.12,11.82,43.78-10.7,53.55,0,3.5,3.83,3.87,11.73-7.65,38.24-8.18,18.83-16.72,34.09-23.17,44.68-4.04,6.64-6.36,10.45-9.33,14.6,0,0-17.51,24.57-45.54,40.42-42.06,23.76-84.47-10.03-155.27-.26-32.02,4.43-56.64,15.94-70.94,23.76,13.66,57.7,56.21,103.74,111.36,119.18,71.5,20.03,146.06-16.42,179.22-74.61,24.34-42.71,20.05-86.07,17.5-102.77,7.14-27.08,11.6-48.63,28.68-55.46,15.37-6.14,36.58,1.45,45.9,15.3,16.63,24.76-10.02,61.43-16.28,69.57-.42.56-.67.9-.93,1.21-8.8,10.33-26.63,8.54-39.63,5.61-4.57,11.76-9.13,23.5-13.7,35.24-9.86,25.37.86,65.52,18.27,71.12,4.49,1.45,13.5,1.9,80-62.12,15.3-14.76,22.97-22.12,27.26-26.78,56.04-60.84,55.94-164.55,55.91-195.19-.05-50.1-.14-136.2-55.46-174.04-.33-.23-.16-.09-1.18-.79-61.78-41.64-93.68-79.88-109.51-94.45-53.24-48.96-160.24-46.85-234.24-13-17.31,7.93-80.63,38.04-114.05,110.18-30.31,65.43-18.06,126.65-12.85,150.83,8.04,37.37,22.86,65.73,33.94,83.52,7.9-76.46,19.49-85.23,24.79-86.13,1.07-.17,2.86-.2,9.6-.96,17.23-1.94,19.33-3.75,22.96-1.91h0Z"/><path fill="#fff" d="m2405.96,926.48h0s-2.58,23.42,35.41,25.93c38,2.49,39.1-20.56,39.1-20.56l-74.48-5.38-.03.02Z"/></g><circle cx="2509.45" cy="779.53" r="57.89" fill="none" stroke="#fff" stroke-miterlimit="10" stroke-width="3"/><circle cx="2365.97" cy="779.53" r="57.89" fill="none" stroke="#fff" stroke-miterlimit="10" stroke-width="3"/><line x1="2423.84" x2="2451.56" y1="779.53" y2="779.53" fill="none" stroke="#fff" stroke-miterlimit="10" stroke-width="3"/><line x1="2627.6" x2="2567.91" y1="787.68" y2="784.37" fill="none" stroke="#fff" stroke-miterlimit="10" stroke-width="3"/></g><g data-name="Artwork 11"><path fill="#cc7f72" d="m1030.59,1606.37l-3.16-88.47c-27.67,41.62-78.89-14.9-127.93-11.6.01,2.35,1.26,131.51,1.08,153.56,8.96-1.26,17.93-1.8,26.88-1.79,24.99-31.59,62.56-51.62,103.13-51.71Z"/><path fill="#cc7f72" d="m1030.59,1606.37c-40.57.09-78.14,20.12-103.13,51.71,36.04.06,71.8,9.49,105.71,20.37l-2.58-72.08Z"/><path fill="#f79f8c" d="m1115.31,1320.04c-.71,1.15-2.36,3.99-5.71,5.8-6.23,3.37-13.96.81-19.53-1.09-20.77-7.07-51.02-17.91-88.89-11.64-31.11,5.15-70.54,25.72-79.75,34.07-18.23,16.54-15.09,125.3-15.8,130.54,0,0-.31,19.46,6.75,36.6.07.17.15.33.22.5l43.95-5.23c.44,5.28,5.35,53.83,47.95,79.62,37.35,22.61,83.97,15.78,111.59-5.93,8.22-6.46,25.72-22.85,37.59-125.98,10.04-87.22,7.88-165.4-5.32-167.36-7.26-1.08-26.56,19.63-33.04,30.1Zm-110.68,185.59c.09-.6.2-1.19.31-1.79-.12.59-.21,1.2-.31,1.79Z"/><path fill="#151921" d="m1156.91,1238.08c-5.78-17.36-23.45-30.06-41.82-30.06-11.94,0-23.51,4.81-35.45,4.63-13.53-.2-26.03-6.72-38.24-12.52-7.45-3.54-15.09-6.85-22.87-9.83-52.22-.38-68.78,12.37-88.06,35.46-21.63,25.91-35.12,74.23-16.87,102.61,5.39,8.37,18.04,20.05,21.08,29.52,4.94,15.36-5.78,34.28-9.84,49.9-7.3,28.1,3.7,72.26,18.98,96.99,11.13,18.02,30.82,16.83,43.57,33.73,17.84-25.92,44.03-73.8,41.95-85.81-3.57-20.62-8.1-30.09,6.19-45.43,8.89-9.54,13.45-.41,25.53-5.39,3.89-1.6,10.59,2.55,13.15-.77,6.62-8.56,10.55-44.66,11.91-57.38,8.02-1.94,15.77-5.24,22.74-9.63,14.74-9.26,26.36-22.81,35.59-37.53,10.95-17.47,18.95-38.93,12.44-58.48Z"/><path fill="#151921" d="m939.68,1398.76c4.05-15.62,11.65-31.78,6.71-47.14-3.04-9.47-10.41-16.82-15.8-25.19-18.26-28.37-11.56-68.03,10.07-93.94,19.28-23.09,48.09-36.38,77.87-42.19-27.82-10.67-57.4-16.87-86.54-12.04-25.79,4.28-50.96,19.01-65.34,41.04-4.27,6.54-9.02,15.34-12.18,24.6-18.15,16.57-32.89,38.5-34.4,56.48-12.9,154.08,71.07,248.35,81.02,252.35,31,12.48,63.24,9.11,75.86-1.97,4.15-3.64,9.58-10.44,15.36-18.85-12.75-16.91-28.86-31.32-39.99-49.34-15.27-24.73-19.95-55.71-12.65-83.81Z"/><g><polygon fill="#fbc9be" points="1166.77 3496.75 1029.52 3496.17 1048.33 3278.14 1185.59 3278.73 1166.77 3496.75"/><path fill="#0c0e0e" d="m1036.64,3468.09c32.3,8.62,105.4,36.81,139.69-12.89l231.8,125.6-409.19-2.69,19.07-97.74c1.31-8.85,9.99-14.59,18.63-12.29Z"/><rect width="409.2" height="35.47" x="998.81" y="3579.45" fill="#383a50" transform="rotate(.38 1192.42 3563.488)"/><path fill="#232533" d="m410.63,2499.74s-103.04,157.12,87.84,235.89c0,0,171.43,84.33,531.04,64.63l-8.58,555.83,229.11,25.17,32.72-639.45c.4-1.07.78-2.13,1.15-3.2,33.98-97.49-38.89-199.42-142.12-200.85h0l-731.16-38.03Z"/><polygon fill="#fbc9be" points="1616.8 3496.75 1479.54 3496.17 1498.36 3278.14 1635.62 3278.73 1616.8 3496.75"/><path fill="#0c0e0e" d="m1486.67,3468.09c32.3,8.62,105.4,36.81,139.69-12.89l231.8,125.6-409.19-2.69,19.07-97.74c1.31-8.85,9.99-14.59,18.63-12.29Z"/><rect width="409.2" height="35.47" x="1448.84" y="3579.45" fill="#383a50" transform="rotate(.38 1638.728 3563.516)"/><path fill="#3a3c50" d="m860.66,2499.74s-103.04,157.12,87.84,235.89c0,0,171.43,84.33,531.04,64.63l-8.58,555.83,229.11,25.17,32.72-639.45c.4-1.07.78-2.13,1.15-3.2,33.98-97.49-38.89-199.42-142.12-200.85h0l-731.16-38.03Z"/><g><path fill="#010101" d="m1225.45,1970.2c.54,0,.54.88,0,.88-.57,0-.57-.88,0-.88Z"/><path fill="#fff" d="m1270.65,2533.13c.15,52.79-74.22,90.82-187.38,92.2-125.97,1.53-291.76-39.16-288.58-98.4,3.28-61.23,17.56-226.09,18.43-262.89,2.98-124.68-46.22-515.13-46.22-515.13,0-67.05,57.89-116.46,266.74-116.46,220.82,0,241.81,68.32,241.81,135.35,0,0-7.4,252.63-6.5,428.38.36,71.68,1.56,297.24,1.68,336.95Z"/><path fill="#f79f8c" d="m712.27,1737.87c25.59-71.62,186.9-48.45,170.09,40.37-19.88,105.19-79.09,365.22-100.86,429.09l-152.05-28.3c-.78-55.07,31.76-298.3,82.82-441.16Z"/><path fill="#f79f8c" d="m772.05,2228.52c-22.95,35.75-70.79,45.77-107,22.65-36.06-23.1-46.82-70.76-23.88-106.46,22.88-35.57,70.76-45.66,106.94-22.54,36.18,23.13,46.88,70.78,23.94,106.35Z"/><path fill="#fff" d="m824.98,1671.23c-62.85-14.73-129.91,36.04-144.62,98.89l-71.36,279.19c-3.61,15.4,44.42,39.82,107.3,54.55,62.85,14.74,116.74,14.2,120.32-1.18l71.36-279.17c14.73-62.87-20.12-137.54-83-152.27Z"/></g><g><path fill="#d7d7dd" d="m1396.43,2840.86c0,11.53-4.67,21.97-12.22,29.53-7.56,7.55-18,12.22-29.53,12.22h-787.94c-115.81,0-211.16-91.06-216.5-206.74l-25.19-545.92c-3.82-82.68,62.19-151.8,144.95-151.8h238.87c65.09,0,122.21,43.34,139.75,106.02l162,579.3c22.43,80.19,95.51,135.64,178.78,135.64h165.28c23.06,0,41.75,18.69,41.75,41.74Z"/><path fill="#9ed7d7" d="m989.35,2882.61c-2.48,30.89-70.81,55.66-154.73,55.66s-152.24-24.77-154.72-55.66h309.45Z"/><rect width="119.7" height="691.73" x="775.79" y="2933.98" fill="#161c22"/></g><path fill="#f79f8c" d="m1342.37,2225.92c-17.2,38.85-62.94,56.09-102.28,38.75-39.22-17.28-57.11-62.7-39.91-101.48,17.17-38.69,62.94-55.96,102.22-38.69,39.31,17.31,57.11,62.77,39.97,101.42Z"/><g><path fill="#f79f8c" d="m1294.89,1745.61c-21.98-72.79-183.53-59.9-172.26,29.78,13.35,106.2,56.33,369.42,74.13,434.48l153.52-18.83s-20.06-328.56-55.39-445.44Z"/><path fill="#f79f8c" d="m1204.85,2231.62c20.72,37.12,67.87,50.08,105.44,29.23,37.41-20.82,51.09-67.72,30.37-104.77-20.63-36.92-67.78-49.96-105.31-29.12-37.53,20.87-51.18,67.74-30.49,104.66Z"/><path fill="#fff" d="m1186.51,1672.13c63.63-10.82,127.45,44.02,138.24,107.65l53.95,283.06c2.68,15.58-46.82,36.99-110.46,47.81-63.66,10.83-117.37,6.95-120.05-8.62l-53.92-283.04c-10.83-63.69,28.57-136.05,92.23-146.86Z"/></g><g><path fill="#f79f8c" d="m1595.5,2214.57l71.45-19.17,50.49-21.56,39.57-96.89c-16.33-16.12-41.41-19.52-61.47-8.32l-73.97,41.3-32.9,9.06,6.82,95.58Z"/><path fill="#f79f8c" d="m1739.06,2128.41l11.61-38.44,8.84,1.53,96.47,29.94c5.23,1.63,7.56,7.69,4.75,12.38l-2.88,4.8c-4.24,7.09-14.94,12.14-23.05,10.45l-95.74-20.65Z"/><path fill="#f79f8c" d="m1740.62,2124.8l73.6,34.76c3.32,1.57,4.6,5.63,2.76,8.8-4.19,7.25-13.65,11.43-21.71,9.07l-66.57-20.44,11.92-32.18Z"/><polygon fill="#f79f8c" points="1754.38 2097.79 1752.97 2103.35 1752.93 2103.34 1754.38 2097.79"/><path fill="#f79f8c" d="m1850.3,2083.35c7.13,1.66,10.39,9.9,6.31,15.95l-.38.57c-5.44,8.08-15.1,12.29-24.76,10.78l-78.5-7.3,1.41-5.55-1.45,5.55h.04s-20.61,81.27-20.61,81.27c0,0-10.28-4.36-21.03-9.76l16.85-111.82,122.12,20.31Z"/><path fill="#f79f8c" d="m1729.58,2155.85l40.66,20.53c5.32,2.83,5.68,10.75,1.38,14.97-4.13,4.05-10.29,5.26-15.65,3.06l-48.45-19.91.72-6.21,21.33-12.43Z"/><g><path fill="#f79f8c" d="m1299.2,2157.71c37.23,16.58,53.7,60.57,36.95,98.28-16.68,37.6-60.35,54.67-97.55,38.07-37.09-16.59-53.58-60.6-36.89-98.24,16.74-37.71,60.4-54.71,97.49-38.11Z"/><path fill="#f79f8c" d="m1627.36,2202.63l-13.78-89.62c-182.76,12.89-222.79,26.56-356.55,39.48l18.47,147.51c58.31-2.35,232.36-38.64,351.85-97.38h0Z"/></g></g></g></g></svg>