<svg xmlns="http://www.w3.org/2000/svg" viewBox="0 0 2200 1375"><defs><clipPath id="a"><ellipse cx="1202.23" cy="633.56" fill="#d94c31" rx="139.7" ry="139.64"/></clipPath></defs><g style="isolation:isolate"><path fill="none" stroke="#d94c31" stroke-linecap="round" stroke-linejoin="round" stroke-width="7.08" d="M492.46,1153.34H787a20.24,20.24,0,0,1,20.24,20.24v134.92a0,0,0,0,1,0,0h-335a0,0,0,0,1,0,0V1173.57A20.24,20.24,0,0,1,492.46,1153.34Z"/><path fill="#fff" stroke="#1d1d1b" stroke-miterlimit="10" stroke-width="4.72" d="M1078.22,64.65c62.09-3.87,161,52.37,238.65,104.74s180.43,133.82,232.82,178.43,170.74,124.12,221.19,166.79,182.38,143.52,221.18,188.13,83.43,110.55,36.86,159-186.26,48.49-289.09,48.49-318.19,0-421-1.94-205.67,13.57-261.93,27.15-77.61,9.7-176.56,7.76-218.6-3.88-298.15-1.94-256.75,0-338.24-7.76-104.77-42.67-87.31-89.21S275,710.49,329.3,650.37,509.74,470,585.4,406c68.2-57.68,157.16-129.94,238.65-195.89S1012.35,68.77,1078.22,64.65Z"/><path fill="none" stroke="#4895c2" stroke-linecap="round" stroke-linejoin="round" stroke-width="4.72" d="M571.83,603.7c-.72,2.81-5.75,6-4.75,9.1.86,2.67,7.3,3.25,8.85,6.08,1.41,2.57-1.84,8-.25,10.62s8,2.51,9.39,5.13c1.48,2.82-2.44,7.69-1.65,10.43.89,3.08,6.61,5.9,6,8.79s-6.95,3-9,5.34c-1.86,2.11-.43,8.14-2.95,10-2.35,1.71-8.05-1.26-10.57.38s-1.82,7.88-4.13,9.63c-2.49,1.88-8.6-.11-10.38,2.1-1.9,2.37,1.68,7.2,1.18,10.19s-5.45,6.37-4.4,9.3c1,2.67,7.39,2.86,9.1,5.49,1.6,2.45-1.15,8.1.68,10.5s8.22,1.51,9.9,3.88c1.85,2.6-1.36,7.92-.25,10.45,1.32,3,7.24,5.29,6.68,8.13"/><path fill="none" stroke="#4895c2" stroke-linecap="round" stroke-linejoin="round" stroke-width="4.72" d="M594.89,621.34c-.39,1.9-6.89,1.35-9.71,3.7-1.91,1.59-.77,7.69-3.23,9.46-2.18,1.58-7.8-1.27-10.07.44s-.92,7.77-2.94,9.58c-2.2,2-8.29.27-9.83,2.36-1.8,2.46,2,6.94,1.75,9.54-.3,2.77-5.15,6.36-4.06,9.42.94,2.64,7.36,3.07,8.87,5.84,1.4,2.55-1.89,7.92-.33,10.52s8,2.44,9.34,5c1.48,2.77-2.35,7.71-1.46,10.38,1,3,6.93,5.46,6.59,8.26s-6.53,3.12-8.33,5.4c-1.61,2,.25,7.86-2,9.66-2.12,1.67-7.72-1.25-10,.32s-1.49,7.7-3.67,9.26c-2.42,1.72-8.26-.75-10,1.07-2.15,2.21,1.15,6.89.79,9.45"/><path fill="#9acce9" d="M1071.1,129.3c6.53-.93,38.81,170.68,38.81,170.68s47.86-29.74,81.49-50.43,69.85-36.2,71.14-32.32-38.81,50.42-66,76.28-64.67,60.77-67.26,68.53,9.06,156.45,9.06,156.45,55.62-45.26,112.53-85.34,117.7-77.58,122.88-75-66,87.92-102.19,126.71c-32.66,35-103.47,108.61-103.47,108.61l9.05,67.23,138.4-78.87c56.91-32.32,195.32-102.14,201.78-97S1390.59,610.29,1329.8,655.54s-146.16,98.27-146.16,98.27-1.3,151.28,12.93,155.16,142.28-67.24,214.72-107.32S1549.11,725.52,1604,694.33C1660.93,662,1747.5,618,1756.65,618.05c15.94.15-172.57,146.46-269.05,222.39-64.15,50.49-275.51,164.2-284.56,182.31s18.11,285.74,18.11,285.74H936.58s32.34-222.39,22-245.66S751.62,962,692.12,927.07s-296.21-165.5-293.62-181,133.23,37.5,179.79,54.31S890,911.55,914.59,920.6s46.57,23.28,54.33,16.81,9.05-75,1.29-85.34S815,722.78,751.62,669.77,592.52,508.14,599,501.68,762,606.41,799.47,631s188.85,139.64,194,137,14.22-184.89,6.46-203S899.07,500.39,830.52,451.25c-34.71-24.87-88-75-84.08-80.16s119,42.67,159.1,63.35,113.83,54.31,113.83,54.31,10.34-117.66,2.58-131.88-122.88-93.1-117.7-102.15,120.29,51.72,128,45.26,10.79-41.47,15.52-84.05C1053,169.39,1062.05,130.6,1071.1,129.3Z"/><path fill="#000200" d="M1891,1287c3.3,9.29,8.4,22.19,2.4,22.19h-94.5s-1.5-3.9,9.3-6.9,27.6-10.79,31.2-15.29S1891,1287,1891,1287Z"/><path fill="#121412" d="M1750.58,1287c3.3,9.29,8.4,22.19,2.4,22.19h-94.5s-1.5-3.9,9.3-6.9,27.6-10.79,31.2-15.29S1750.58,1287,1750.58,1287Z"/><path fill="#dc593f" d="M1839.84,1271c1.6,6.8,1.69,12.6-.46,16,0,0,12.46,3.4,18.26,8s11,3.4,16.8.21S1891,1287,1891,1287s-3.34-10-4.94-15.2a107.94,107.94,0,0,1-2.6-10.59Z"/><path fill="#dc593f" d="M1699,1287c4.26-5.4,5.86-16.4,5.86-16.4l42.4.8s2.29,11.4,3.34,15.6a133.9,133.9,0,0,0-20.34,7.6c-8,4-17.8.39-22-2.2S1699,1287,1699,1287Z"/><path fill="#f8d2d1" d="M1835,718.66c-1.88,1.2-5.78,1.73-6.23,2.78s5.18,2.92,5.18,2.92Z"/><path fill="#f8d2d1" d="M1836.24,714.16c-2,4.5-8.5,20.79,1.7,27.29,0,0-4.6,19.3-6.4,22.79l29.3-1.1s.4-16.39,1.2-23.69-.3-16.89-.3-16.89Z"/><path fill="none" stroke="#d65a73" stroke-linecap="round" stroke-linejoin="round" stroke-width="2.36" d="M1832.34,714.76a24.51,24.51,0,0,0-1,11.17"/><path fill="none" stroke="#d65a73" stroke-linecap="round" stroke-linejoin="round" stroke-width="2.36" d="M1831.74,716.36c3.3.1,10.2.9,10.2.9"/><path fill="#f44c44" d="M1841.86,729.11c-.82,2.68-2.26,3.73-4.24,3.12s-2.58-2.29-1.76-5,2.26-3.73,4.25-3.12S1842.69,726.42,1841.86,729.11Z" opacity=".25"/><path fill="#e98022" d="M1850.44,680.78c-7.12,2.46-7,12.39-7,12.39s-6.9-.75-9.6,5.85c-3.3,8.06,2.62,12.22,2.62,12.22s-2.62,7.12,1.18,13.32,13.6,3.8,13.6,3.8-4,8,2.2,13.39,14-1,14-1A12.44,12.44,0,0,0,1881,746c9.2-2.2,7.2-10.2,7.2-10.2s11.4-.8,13.6-11.39-6.6-13-6.6-13,7.6-5.59,3.8-13.59-10.8-5.2-10.8-5.2,2.4-10-8.4-13.59-15,6.19-15,6.19S1860.84,677.18,1850.44,680.78Z"/><path fill="#f8d2d1" d="M1673.34,829.32s-11.1-9.9-18.3-15.89-22.6-13.3-26.4-14.7-6.8,4.8-2.8,9.4,12.2,9.19,11.8,11.79-11,3.6-16.2,3.4-13-1.6-17.4-4.2-9-2.6-11.41.4.2,6.8.2,6.8a7.11,7.11,0,0,0-5,4.8c-1.2,4,4.2,6.2,4.2,6.2a5.52,5.52,0,0,0-1.6,5.79,7.6,7.6,0,0,0,4.6,5s-2,5,5.8,8,22.61,1.4,26.21,4.4,17.8,15.59,17.8,15.59Z"/><path fill="#a4d1eb" d="M1890.45,1263s-9.6,5.59-25.61,8.8-40,4-40,4-12-65.56-13.6-127.13,0-124.76,0-124.76L1778.43,1115l-24,159.94s-17.6.79-29.59.79-31.22-2.39-31.22-2.39,4-76,15.21-159.93c7.22-54.13,23.06-112.89,38.14-157.26,24.81,3.81,63.46,5.31,63.46,5.31s-.88-6-2.22-14.58l71.81,89-.79,80.76Z"/><path fill="#2f182d" d="M1810.44,961.47s-38.65-1.5-63.46-5.31c8.3-24.47,16.39-44.56,22.65-57.06l38.59,47.79C1809.56,955.48,1810.44,961.47,1810.44,961.47Z"/><path fill="#fff" stroke="#1d1d1b" stroke-miterlimit="10" stroke-width="2.36" d="M1832.64,762.94c-3.4,1.4-9.6,9.4-9.6,9.4s-36.2,7.2-64.4,31a417.05,417.05,0,0,0-47.8,47.58s-31.6-19.59-37.2-23a72.28,72.28,0,0,0-21.6,25.39c-8,16.19-9.4,25.19-9.4,25.19s25,26.19,64,24.59S1767,879.5,1767,879.5s-1,72.77.8,119.56a729.76,729.76,0,0,0,7.8,82.76s52.2,7.2,95.4,2.4,65.4-21,65.4-21-28.8-79.77-36.6-106.16-7.8-36.58-7.8-36.58,27,1.79,33.6-32.39-6.6-67.78-27-91.17-34.2-25.49-34.2-25.49l-2.4-10.19a52.36,52.36,0,0,0-16.8-1.5C1835.34,760.35,1832.64,762.94,1832.64,762.94Z"/><path fill="none" stroke="#000" stroke-linecap="round" stroke-linejoin="round" stroke-width="2.36" d="M1864.44,771.44c-9.9-2.7-16.5-3.6-41.4.9"/><path fill="none" stroke="#000" stroke-linecap="round" stroke-linejoin="round" stroke-width="2.36" d="M1883.64,826c3,12,3.6,30,3.9,51s4.5,43.49,4.5,43.49"/><path fill="none" stroke="#000" stroke-linecap="round" stroke-linejoin="round" stroke-width="2.36" d="M1893.54,830.82c-1.2,5.1-6.3,11.69-6.3,11.69"/><path fill="none" stroke="#000" stroke-linecap="round" stroke-linejoin="round" stroke-width="2.36" d="M1887.84,881.2c6,1.8,18.6,13.8,18.6,13.8"/><path fill="none" stroke="#000" stroke-linecap="round" stroke-linejoin="round" stroke-width="2.36" d="M1888.74,903.69c-8.4,3.3-25.5,5.1-35.4,5.7s-20.4-2.1-23.7,5.4,1.2,14.09,12,14.69,29.7-.6,37.5-2.4a105.9,105.9,0,0,0,13.2-3.9"/><circle cx="1839.24" cy="918.99" r="3.9" fill="none" stroke="#000" stroke-linecap="round" stroke-linejoin="round" stroke-width="2.36"/><path fill="none" stroke="#000" stroke-linecap="round" stroke-linejoin="round" stroke-width="2.36" d="M1767,879.5c11-9.7,16.1-16,16.1-16"/><path fill="none" stroke="#000" stroke-linecap="round" stroke-linejoin="round" stroke-width="2.36" d="M1780.74,877.9c-5.1,4.5-13.5,6.3-13.5,6.3"/><path fill="none" stroke="#000" stroke-linecap="round" stroke-linejoin="round" stroke-width="2.36" d="M1710.84,850.91a122.83,122.83,0,0,0-12.6,19.49"/><path fill="none" stroke="#000" stroke-linecap="round" stroke-linejoin="round" stroke-width="2.36" d="M1704.84,847.91c-5.1,3.3-13.2,13.5-13.2,13.5"/><path fill="none" stroke="#1d1d1b" stroke-linecap="round" stroke-linejoin="round" stroke-width="7.08" d="M1134.43,827.76c-8.92,13-107.5,51.44-107.5,87.1s106.29,69,107.5,98.91c1.45,36.11-111.84,56.38-111.84,96.37s108.46,69.39,108.46,101.68c0,8.19-12,17.83-12,17.83"/><line x1="1028.37" x2="1078.44" y1="918.12" y2="918.84" fill="none" stroke="#1d1d1b" stroke-linecap="round" stroke-linejoin="round" stroke-width="7.08"/><line x1="1043.8" x2="1078.44" y1="940.76" y2="941.73" fill="none" stroke="#1d1d1b" stroke-linecap="round" stroke-linejoin="round" stroke-width="7.08"/><line x1="1035.84" x2="1078.27" y1="894.99" y2="895.71" fill="none" stroke="#1d1d1b" stroke-linecap="round" stroke-linejoin="round" stroke-width="7.08"/><line x1="1078.44" x2="1105.26" y1="980.28" y2="982.45" fill="none" stroke="#1d1d1b" stroke-linecap="round" stroke-linejoin="round" stroke-width="7.08"/><line x1="1078.44" x2="1126.96" y1="996.42" y2="999.79" fill="none" stroke="#1d1d1b" stroke-linecap="round" stroke-linejoin="round" stroke-width="7.08"/><line x1="1078.44" x2="1134.19" y1="1016.9" y2="1019.07" fill="none" stroke="#1d1d1b" stroke-linecap="round" stroke-linejoin="round" stroke-width="7.08"/><line x1="1078.44" x2="1116.11" y1="1039.79" y2="1039.07" fill="none" stroke="#1d1d1b" stroke-linecap="round" stroke-linejoin="round" stroke-width="7.08"/><line x1="1029.1" x2="1078.44" y1="1092.8" y2="1094.59" fill="none" stroke="#1d1d1b" stroke-linecap="round" stroke-linejoin="round" stroke-width="7.08"/><line x1="1023.31" x2="1078.44" y1="1116.41" y2="1117.96" fill="none" stroke="#1d1d1b" stroke-linecap="round" stroke-linejoin="round" stroke-width="7.08"/><line x1="1040.18" x2="1078.44" y1="1137.91" y2="1137.91" fill="none" stroke="#1d1d1b" stroke-linecap="round" stroke-linejoin="round" stroke-width="7.08"/><line x1="1068.38" x2="1080.76" y1="1157.13" y2="1156.97" fill="none" stroke="#1d1d1b" stroke-linecap="round" stroke-linejoin="round" stroke-width="7.08"/><line x1="1078.44" x2="1120.45" y1="1191.1" y2="1193.99" fill="none" stroke="#1d1d1b" stroke-linecap="round" stroke-linejoin="round" stroke-width="7.08"/><line x1="1078.44" x2="1129.37" y1="1215.19" y2="1216.88" fill="none" stroke="#1d1d1b" stroke-linecap="round" stroke-linejoin="round" stroke-width="7.08"/><line x1="1078.44" x2="1120.21" y1="837.88" y2="837.88" fill="none" stroke="#1d1d1b" stroke-linecap="round" stroke-linejoin="round" stroke-width="7.08"/><path fill="#000200" d="M846,746.23l-.41-.34a22.81,22.81,0,0,0,1.86-16.41C845.8,723,839.28,716.88,831,716c-7-.75-13.69,1.32-16.16,4.77,0,0,12.35,28.55,19.14,36.18C837.48,752.81,840.89,747.87,846,746.23Z"/><path fill="#f8d2d1" d="M815,720.62c-5.82,3.88-9.7,11.85-11,19.61s1.62,16.7,10.78,20.26c0,0-1.08,12.5-2.69,18.64,7.54-5.28,17-10.13,26.4-10.88,0,0-1.94-12.07-1.94-16.81a71.1,71.1,0,0,1-5.17-7.54s6.36,0,6.79-7.22c.22-3.74-4.26-6.31-7-5.26-3.8,1.46-4.32,3.75-4.32,3.75a71.57,71.57,0,0,1-6.44-7.3C817.34,723.88,815,720.62,815,720.62Z"/><path fill="#f8d2d1" d="M751,1235.43s-.26,11.55-2,26.36c-8,2.39-20,11.47-20,11.47s-15.42-8-28.24-11c4.47-10.52,7.8-22,8.83-27.8Z"/><path fill="#f8d2d1" d="M902.93,1255.61c-8.73,4.35-18.09,17.32-18.09,17.32s-14.55-6.08-29.23-7.1a18.72,18.72,0,0,0,.78-1.94c2.92-8.42,2.92-29.1,1.94-40.09l41.39-10.34A402.28,402.28,0,0,1,902.93,1255.61Z"/><path fill="#000200" d="M749,1261.79c-.27,2.35-.58,4.78-.93,7.27-2.59,18.1-5.17,40.73-5.17,40.73H729l.33-29.1s-31.06,28.77-41.41,28.77-37.94,1.62-37.61-1,6.8-4,13.59-7.54,20.15-11.53,28.56-23.18a82.14,82.14,0,0,0,8.3-15.51c12.82,3,28.24,11,28.24,11S741,1264.18,749,1261.79Z"/><path fill="#000200" d="M903,1258.39c0,21-2,51-2,51H887.76l-2.59-29.64s-25.86,28.77-34.6,28.77-39.77,3.56-40.74,0,13.24-6.15,21.33-12.6c7.59-6.07,20.08-20.16,24.45-30.06,14.68,1,29.23,7.1,29.23,7.1s9.36-13,18.09-17.32C903,1256.54,903,1257.48,903,1258.39Z"/><path fill="#2f182d" d="M630.74,839.75l1.45,70.51,120.59-24.14V818.58A14,14,0,0,0,736,805l-92.24,18.55A16.2,16.2,0,0,0,630.74,839.75Z"/><path fill="#fff" d="M634.63,839.67a12.29,12.29,0,0,1,9.88-12.31l92.24-18.56a10.46,10.46,0,0,1,2-.2,10.14,10.14,0,0,1,10.12,10v64.35L636,905.53Z"/><polygon fill="#442f42" points="632.18 910.26 679.18 922.86 795.76 898.3 752.78 886.12 632.18 910.26"/><path fill="#f6b122" d="M729,1069.94c-13.06,50-21,107-25.87,168.09,16.24,3.55,33.79,4.92,52.39,4.52l23.71-122.4,13.15-37.93Z"/><path fill="#f6b122" d="M830.52,1084.16c4.61,43.58,13.45,91.68,24.57,142.23,18.31-.71,37.6-5.7,57.56-13.58l-25.22-144.16Z"/><path fill="#4895c2" d="M733.4,833.86c2.19-.38,4.79,1,7.56,3.24a33.2,33.2,0,0,1,2.87-3.78c-3.78-3.05-7.54-4.78-11.25-4.13-8.42,1.48-13.71,13.6-18.83,25.32-3.85,8.82-8.21,18.82-12.51,19.52-4.47.71-12.18-9-18.37-16.83-7.91-10-15.4-19.41-22.4-18.27a2.37,2.37,0,0,0,.76,4.68c4.27-.7,11.84,8.86,17.92,16.54,7.59,9.58,14.78,18.66,21.63,18.66a8.25,8.25,0,0,0,1.22-.1c6.85-1.12,11.14-10.93,16.1-22.31C722.5,846.32,727.49,834.9,733.4,833.86Z"/><path fill="#4895c2" d="M725.51,857.34q1.47-2,3-3.92l-1-1.35C720,842,712.27,831.59,703.46,833c-9,1.46-14,14-18.81,26-3.5,8.73-7.46,18.62-11.68,19.31-1.07.17-3.61-1.31-5.21-2.74a2.37,2.37,0,1,0-3.18,3.52c.78.7,4.6,4,8.25,4a5.46,5.46,0,0,0,.9-.07c6.87-1.11,10.78-10.9,15.32-22.22,4.15-10.35,8.85-22.08,15.17-23.11,6-1,13.14,8.69,19.47,17.2Z"/><path fill="#fff" stroke="#1d1d1b" stroke-miterlimit="10" stroke-width="2.36" d="M820.06,773.74c-10.44,5-18.32,17.24-18.32,17.24s-30,10.24-56.16,41.27-65.75,90.45-65.75,90.45l-17.46-4.52S673,949.05,707,951.63c27.18,2.07,40.42-15.51,40.42-15.51s-23.82,67.23-33.3,97.4c-8.57,27.24-14.23,41.38-14.23,41.38s49.8,14.43,100.24,14.43,113.5-18.74,124.82-27.15l-50.12-213s41.93-29,63.06-60.45c20.67-30.78,24.14-62.93,28.45-83.61s5.18-44.4,5.18-44.4a102.77,102.77,0,0,0-49.59-3l-21.55,78L848,773.2s-2.91.54-8-5.06C833.11,767.71,825.88,770.94,820.06,773.74Z"/><path fill="#000200" d="M865.66,740.55c-12.61,3.61-21,2.77-23.09,2.47-3.51,4-3.91,10-4.79,15.34a11.92,11.92,0,0,0,1.45.37c8.37,1.41,22.42,13.93,29.13,23.29s25.91,19.23,40.74,12.84,20.93-27.78,8.4-43.64C903,732.8,880.29,736.35,865.66,740.55Z"/><path fill="#f8d2d1" d="M806.51,733.61c-2.22,1.13-6,.64-6.51,2.1s4.57,4.36,4.57,4.36Z"/><path d="M812.17,736.24c-.31.8-.77,1.09-1.36.86s-.74-.75-.43-1.55.78-1.09,1.37-.86S812.48,735.45,812.17,736.24Z"/><path fill="#303145" d="M819,731.76A39.48,39.48,0,0,0,808.88,729a6.25,6.25,0,0,1,4.64-.75A9.49,9.49,0,0,1,819,731.76Z"/><path fill="#f44c44" d="M819.49,744.72c-1,3.22-2.69,4.49-5.08,3.77s-3.1-2.73-2.13-6,2.69-4.5,5.08-3.78S820.47,741.49,819.49,744.72Z" opacity=".25"/><path fill="none" stroke="#e19b89" stroke-linecap="round" stroke-linejoin="round" stroke-width="2.36" d="M804.2,742.82a27.57,27.57,0,0,0,3.81,0"/><path fill="none" stroke="#e19b89" stroke-linecap="round" stroke-linejoin="round" stroke-width="2.36" d="M814.89,760.7a15.62,15.62,0,0,0,5.39.44"/><path fill="#f8d2d1" d="M921.92,657.7a82.77,82.77,0,0,0-.54-17.35c-1.29-10-1.61-28.12-2.58-32.32s4.2-5.5,7.76-2.27,6.14,16.17,6.14,16.17a55.78,55.78,0,0,0,4.85-20c.33-10.66-3.88-17.45-1.94-21.33s6.15-1.94,7.76,1.62A59.76,59.76,0,0,1,946,589s-2.26-9.69.32-12.93,5.5-2.9,7.44,1.62a68.05,68.05,0,0,1,3.24,12s-2.27-9.05,1.29-9.7,5.82,1,7.11,8.08c0,0,1.94-5.81,6.47-1.29s3.56,20.69,2.91,35.56-3.23,38.46-3.23,38.46-8.73-3.23-25.23-4.2S921.92,657.7,921.92,657.7Z"/><path fill="none" stroke="#000" stroke-linecap="round" stroke-linejoin="round" stroke-width="2.36" d="M848,773.2c-17.89,2.16-35.35,12.29-46.24,17.78"/><path fill="none" stroke="#000" stroke-linecap="round" stroke-linejoin="round" stroke-width="2.36" d="M874.82,849.17a382.61,382.61,0,0,0-6.36-44.5"/><path fill="none" stroke="#000" stroke-linecap="round" stroke-linejoin="round" stroke-width="2.36" d="M884.84,812c.44,9.48-3.44,31.46-3.44,31.46"/><path fill="none" stroke="#000" stroke-linecap="round" stroke-linejoin="round" stroke-width="2.36" d="M679.83,922.7c-5,8.25-5.82,10.83-5.82,10.83"/><path fill="none" stroke="#000" stroke-linecap="round" stroke-linejoin="round" stroke-width="2.36" d="M747.41,936.12c12.4-12.93,30.08-35.77,39.13-54.74"/><path fill="none" stroke="#000" stroke-linecap="round" stroke-linejoin="round" stroke-width="2.36" d="M789.13,891.73c-5.61,7.75-16.82,13.36-16.82,13.36"/><path fill="none" stroke="#000" stroke-linecap="round" stroke-linejoin="round" stroke-width="2.36" d="M885.06,894.1c-8.62,5.17-27.38,12.28-43.33,16.59s-21.43,10.58-19,19.82c2.8,10.56,15.09,9.92,27.81,6.47,12.41-3.37,35.14-12.07,41.17-17.24"/><path fill="none" stroke="#000" stroke-linecap="round" stroke-linejoin="round" stroke-width="2.36" d="M841.3,926.42a4.53,4.53,0,1,1-4.53-4.53A4.53,4.53,0,0,1,841.3,926.42Z"/><path fill="#2f182d" d="M312.16,1285.22c-3.56,10-9.06,23.92-2.59,23.92H411.43s1.62-4.2-10-7.43-29.75-11.64-33.63-16.49S312.16,1285.22,312.16,1285.22Z"/><path fill="#3e283c" d="M357.43,1285.22c-3.56,10-9.05,23.92-2.59,23.92H456.7s1.62-4.2-10-7.43-29.75-11.64-33.63-16.49S357.43,1285.22,357.43,1285.22Z"/><path fill="#4895c2" d="M372.63,1064.55c1.72,29.31,6,108.61,7.76,139.64s6,81,6,81-22.43,3.45-40.53,3.45-38.59-4.74-38.59-4.74S289.2,1101.62,292.43,1057Z"/><path fill="#60a3ca" d="M412.73,1067.14c1.72,29.31,6,108.61,7.76,139.64s6,81,6,81-22.42,3.44-40.53,3.44a205.58,205.58,0,0,1-35.35-3.44s-21.56-193.09-22.42-226.71Z"/><path fill="#c1712d" d="M574.63,754.45c6.68,2.16,9.91,36.21-5.39,56.25l-11.43-27.8Z"/><path fill="#c1712d" d="M448.51,754.89c8.63-9.92,23.28-20.48,30.61-18.11L471.36,767Z"/><path fill="#2f182d" d="M562.58,807.29l-93.79-45.43,14.85-50.61A8.17,8.17,0,0,1,495,706.16l75.21,35.3a11.93,11.93,0,0,1,6.46,13.92Z"/><path fill="#c1712d" d="M508.87,814.58s11.86-9.91,13.8-13.58,4.53-11.2,10.78-18.32,12.25-11.34,14.66-16.16c2.16-4.31,7.76-3.88,9.27,1.3s-6.25,18.1-6.25,18.1,21.12-5,23.71-6.25c0,0,1.94,17-5.6,31S536,843.24,536,843.24Z"/><path fill="#c1712d" d="M466.62,758.55a29.85,29.85,0,0,0,14.44-3.66c4.1-2.16,9.09-7.44,12.94-3,4.31,5-4.53,11-11.43,17.45S467.05,787.64,462.09,790s-12.72,14.87-12.72,14.87l-18.1-29.52s11.64-14.66,17.24-20.47Z"/><path fill="#2f182d" d="M403.6,690.35c.44-7.85,3-13.62,8.49-18a30.15,30.15,0,0,1,10.34-5.77c2.55-.9,4.74.22,3.71,2.53a40.51,40.51,0,0,1,7.32-5.87c4.51-2.6,7.45.19,6.17,3a19.86,19.86,0,0,1,5.12-2.13c3.41-.95,5.28,3.28,3.38,7.26a32.46,32.46,0,0,1-8.93,12c-4.94,4.19-21.79,16.63-21.79,16.63Z"/><path fill="#c1712d" d="M414.9,695.77s-1.39-8-9-7.64c-6.52.29-9.21,8.22-6.76,13.36s4.34,5.92,4.34,5.92-10.81,18.91-13.05,23.07L415.7,756l9.53-30s6,.08,10-3.42c3.24-2.88,4.22-8.36,6.46-16.83,4.8-18.1.4-23.63-5.07-25.09,0,0-4.26,5.43-7.41,5.65-6.84.46-9.41,11-9.41,11Z"/><path fill="#c8674c" d="M442.69,697.75c1.62,2.72,5.84,4.67,5.81,6.69s-8.44,1.84-8.44,1.84Z"/><path d="M437.68,700.39c-.28,1-.81,1.44-1.57,1.23s-1-.83-.72-1.85.81-1.44,1.57-1.23S438,699.37,437.68,700.39Z"/><path fill="#303145" d="M432.5,692.61c2,.3,7.76,1.63,10.31,2.24,0,0,.46-2.64-4.66-3.6C434,690.48,432.5,692.61,432.5,692.61Z"/><path fill="#f44c44" d="M430.27,708.05c-1,3.9-3,5.5-5.91,4.74s-3.84-3.13-2.82-7,3-5.5,5.91-4.74S431.29,704.15,430.27,708.05Z" opacity=".25"/><line x1="405.73" x2="408.13" y1="695.47" y2="699.95" fill="none" stroke="#ac4221" stroke-linecap="round" stroke-linejoin="round" stroke-width="2.36"/><path fill="none" stroke="#ac4221" stroke-linecap="round" stroke-linejoin="round" stroke-width="2.36" d="M435.85,708.35c1.25.73,3.34,1.74,3.34,1.74"/><path fill="#fff" stroke="#1d1d1b" stroke-miterlimit="10" stroke-width="2.36" d="M404.1,736.35c-9.91-5.6-15.3-6.46-15.3-6.46s-38.16,57.1-56.7,89.43S224.31,1008.52,223.45,1015s42.68,44,96.58,55.17,105.2,9.91,109.08,8.18S437.3,937,437.3,914.57c0,0,25,6.46,53-12.07s55.19-53.87,55.19-53.87C533.64,833.24,521.15,820,507.15,812l-45.27,34.27s-5.18-33.62-15.85-59.8c-9.31-22.85-27.81-37.18-27.81-37.18S414,742,404.1,736.35Z"/><path fill="none" stroke="#000" stroke-linecap="round" stroke-linejoin="round" stroke-width="2.36" d="M387.18,833.33c-.65,18.1,8.73,70.68,50.12,81.24"/><path fill="none" stroke="#000" stroke-linecap="round" stroke-linejoin="round" stroke-width="2.36" d="M461.88,846.26a217.31,217.31,0,0,1,.64,27.15"/><path fill="none" stroke="#000" stroke-linecap="round" stroke-linejoin="round" stroke-width="2.36" d="M464.79,843.67c3.56,5.82,4.53,21,4.53,21"/><path fill="none" stroke="#000" stroke-linecap="round" stroke-linejoin="round" stroke-width="2.36" d="M389.44,738.29c12,1.3,20.38,5.17,28.78,11"/><path fill="none" stroke="#000" stroke-linecap="round" stroke-linejoin="round" stroke-width="2.36" d="M295.67,882.46c6.14,3.88,28.13,12.28,31,18.42s-.32,16.17-8.73,18.75c-7.33,2.26-34.93-14.87-34.93-14.87"/><path fill="none" stroke="#000" stroke-linecap="round" stroke-linejoin="round" stroke-width="2.36" d="M320.57,906.86a6,6,0,1,1-6-6A6,6,0,0,1,320.57,906.86Z"/><ellipse cx="1465.51" cy="583.35" fill="#f6b122" rx="42.36" ry="93.09"/><path fill="none" stroke="#1d1d1b" stroke-linecap="round" stroke-linejoin="round" stroke-width="4.72" d="M1464.67,509.91c9.92,2.3,20.93,6.92,20.37,15.4-.7,10.8-41.7,25-42,33.82-.36,11.33,43.39,21.42,43.39,34.88s-41.36,25.7-42,33.28a9.91,9.91,0,0,0,4.79,9.39"/><path fill="none" stroke="#1d1d1b" stroke-linecap="round" stroke-linejoin="round" stroke-width="4.72" d="M1442.53,535.22c-.35,11.16,43.75,23.73,43.75,36.66s-41.8,24.07-41.8,34.52,42.34,17.71,42.34,32.93S1464,660.58,1464,660.58"/><path fill="#e98022" d="M1466.33,936.45l-23.76-144.71a45.91,45.91,0,1,0-58.2-70.69L1334,702.33l-10,21.07,46.31,27.2c-.1,1.2-.16,2.41-.16,3.64,0,18,9.86,33.63,25,41.15V939.5c-20.21,12.8-34.23,35.34-34.23,61a72.18,72.18,0,1,0,105.42-64Zm-50.24-214.53A32.27,32.27,0,0,1,1440,776l-4.38-26.72a17,17,0,0,0-10.87-13.18l-25.38-9.44A32.2,32.2,0,0,1,1416.09,721.92Zm-32,36.78,11.78,7v13.75A32.27,32.27,0,0,1,1384.1,758.7Zm49,292.54a51,51,0,0,1-39-83.58V1030l84.28-6.56A50.76,50.76,0,0,1,1433.09,1051.24Zm46.93-31.35-8.66-52.78a50.73,50.73,0,0,1,8.66,52.78Z"/><ellipse cx="1202.24" cy="633.56" fill="#e98022" rx="146.78" ry="146.72"/><path fill="#f6b122" d="M1202.23,493.92c84.87,0,139.7,54.81,139.7,139.64S1287.1,773.2,1202.23,773.2s-139.69-54.8-139.69-139.64,54.83-139.64,139.69-139.64m0-14.16c-45.47,0-84.09,14.58-111.68,42.15s-42.17,66.19-42.17,111.65,14.58,84.07,42.17,111.65,66.21,42.15,111.68,42.15,84.1-14.57,111.69-42.15,42.17-66.19,42.17-111.65-14.58-84.07-42.17-111.65-66.21-42.15-111.69-42.15Z"/><ellipse cx="1202.23" cy="633.56" fill="#d94c31" rx="139.7" ry="139.64"/><g clip-path="url(#a)"><path fill="none" stroke="#000200" stroke-linecap="round" stroke-linejoin="round" stroke-width="7.08" d="M1164.9,467.62c-3.64,17.77,10.1,27.07,33.13,40.8s50.11,27.06,50.11,42c0,22.22-92.94,48.88-92.54,79.17.43,31.91,89.51,60.19,89.51,87s-93.95,52.72-93.95,79"/><path fill="none" stroke="#000200" stroke-linecap="round" stroke-linejoin="round" stroke-width="7.08" d="M1247.33,460c-7.47,10.9-90.11,43.12-90.11,73s89.1,57.86,90.11,82.91c1.22,30.27-93.75,47.26-93.75,80.79s90.92,58.16,90.92,85.23c0,6.87-10.1,14.94-10.1,14.94"/><line x1="1158.43" x2="1243.9" y1="535.69" y2="540.73" fill="none" stroke="#000200" stroke-linecap="round" stroke-linejoin="round" stroke-width="7.08"/><line x1="1171.36" x2="1246.52" y1="554.67" y2="555.48" fill="none" stroke="#000200" stroke-linecap="round" stroke-linejoin="round" stroke-width="7.08"/><line x1="1194.6" x2="1231.17" y1="571.03" y2="569.41" fill="none" stroke="#000200" stroke-linecap="round" stroke-linejoin="round" stroke-width="7.08"/><line x1="1164.69" x2="1217.83" y1="516.3" y2="520.34" fill="none" stroke="#000200" stroke-linecap="round" stroke-linejoin="round" stroke-width="7.08"/><line x1="1197.02" x2="1222.88" y1="589.71" y2="589.71" fill="none" stroke="#000200" stroke-linecap="round" stroke-linejoin="round" stroke-width="7.08"/><line x1="1177.62" x2="1241.07" y1="601.33" y2="604.15" fill="none" stroke="#000200" stroke-linecap="round" stroke-linejoin="round" stroke-width="7.08"/><line x1="1159.64" x2="1247.13" y1="618.49" y2="620.31" fill="none" stroke="#000200" stroke-linecap="round" stroke-linejoin="round" stroke-width="7.08"/><line x1="1157.82" x2="1231.98" y1="637.38" y2="637.38" fill="none" stroke="#000200" stroke-linecap="round" stroke-linejoin="round" stroke-width="7.08"/><line x1="1172.98" x2="1200.66" y1="654.85" y2="654.24" fill="none" stroke="#000200" stroke-linecap="round" stroke-linejoin="round" stroke-width="7.08"/><line x1="1159.04" x2="1216.82" y1="682.11" y2="686.36" fill="none" stroke="#000200" stroke-linecap="round" stroke-linejoin="round" stroke-width="7.08"/><line x1="1154.19" x2="1239.25" y1="701.91" y2="705.95" fill="none" stroke="#000200" stroke-linecap="round" stroke-linejoin="round" stroke-width="7.08"/><line x1="1168.33" x2="1242.89" y1="719.88" y2="722.71" fill="none" stroke="#000200" stroke-linecap="round" stroke-linejoin="round" stroke-width="7.08"/><line x1="1191.97" x2="1227.13" y1="736.04" y2="737.86" fill="none" stroke="#000200" stroke-linecap="round" stroke-linejoin="round" stroke-width="7.08"/><line x1="1183.69" x2="1235.61" y1="764.52" y2="766.94" fill="none" stroke="#000200" stroke-linecap="round" stroke-linejoin="round" stroke-width="7.08"/><line x1="1156.81" x2="1243.09" y1="784.72" y2="786.13" fill="none" stroke="#000200" stroke-linecap="round" stroke-linejoin="round" stroke-width="7.08"/><line x1="1171.56" x2="1200.05" y1="489.84" y2="488.63" fill="none" stroke="#000200" stroke-linecap="round" stroke-linejoin="round" stroke-width="7.08"/><line x1="1164.09" x2="1235.41" y1="472.87" y2="468.43" fill="none" stroke="#000200" stroke-linecap="round" stroke-linejoin="round" stroke-width="7.08"/></g><line x1="1070.3" x2="1330.72" y1="640.68" y2="640.68" fill="none" stroke="#fff" stroke-linecap="round" stroke-linejoin="round" stroke-width="7.08"/><line x1="1101.34" x2="1306.58" y1="584.43" y2="584.43" fill="none" stroke="#fff" stroke-linecap="round" stroke-linejoin="round" stroke-width="2.36"/><line x1="1101.34" x2="1306.58" y1="694.76" y2="694.76" fill="none" stroke="#fff" stroke-linecap="round" stroke-linejoin="round" stroke-width="2.36"/><ellipse cx="1416.09" cy="754.24" fill="#fff" rx="32.32" ry="32.34" transform="rotate(-89.77 1416.149 754.22)"/><ellipse cx="1433.09" cy="1000.47" fill="#fff" rx="50.77" ry="50.79" transform="rotate(-89.93 1433.052 1000.482)"/><path fill="#e98022" d="M1317.34,998.18h222.79a54.17,54.17,0,0,1,54.17,54.17v256.14a0,0,0,0,1,0,0H1263.17a0,0,0,0,1,0,0V1052.35A54.17,54.17,0,0,1,1317.34,998.18Z"/><rect width="123.53" height="68.02" x="1295.46" y="1194.8" fill="none" stroke="#000" stroke-linecap="round" stroke-linejoin="round" stroke-width="2.36" rx="16.88"/><rect width="123.53" height="68.02" x="1435.22" y="1194.8" fill="none" stroke="#000" stroke-linecap="round" stroke-linejoin="round" stroke-width="2.36" rx="16.88"/><rect width="266.54" height="112.49" x="1295.46" y="1028.56" fill="#fff" rx="21.54"/><path fill="#d94c31" d="M1326.35,1053.78a6,6,0,1,1-6-6A6,6,0,0,1,1326.35,1053.78Z"/><path fill="#df6952" d="M1352.49,1053.78a6,6,0,1,1-6-6A6,6,0,0,1,1352.49,1053.78Z"/><path fill="#e27762" d="M1378.62,1053.78a6,6,0,1,1-6-6A6,6,0,0,1,1378.62,1053.78Z"/><path fill="#eca79a" d="M1404.76,1053.78a6,6,0,1,1-6-6A6,6,0,0,1,1404.76,1053.78Z"/><path fill="#f1bfb5" d="M1430.9,1053.78a6,6,0,1,1-6-6A6,6,0,0,1,1430.9,1053.78Z"/><path fill="#a0c8df" d="M1457,1053.78a6,6,0,1,1-6-6A6,6,0,0,1,1457,1053.78Z"/><path fill="#8cbcd9" d="M1483.17,1053.78a6,6,0,1,1-6-6A6,6,0,0,1,1483.17,1053.78Z"/><path fill="#74aed1" d="M1509.31,1053.78a6,6,0,1,1-6-6A6,6,0,0,1,1509.31,1053.78Z"/><path fill="#4895c2" d="M1535.45,1053.78a6,6,0,1,1-6-6A6,6,0,0,1,1535.45,1053.78Z"/><line x1="1318.81" x2="1318.81" y1="1084.16" y2="1118.43" fill="none" stroke="#000" stroke-linecap="round" stroke-linejoin="round" stroke-width="2.36"/><line x1="1340.15" x2="1340.15" y1="1089.77" y2="1112.82" fill="none" stroke="#000" stroke-linecap="round" stroke-linejoin="round" stroke-width="2.36"/><line x1="1361.49" x2="1361.49" y1="1084.16" y2="1118.43" fill="none" stroke="#000" stroke-linecap="round" stroke-linejoin="round" stroke-width="2.36"/><line x1="1382.83" x2="1382.83" y1="1086.1" y2="1116.49" fill="none" stroke="#000" stroke-linecap="round" stroke-linejoin="round" stroke-width="2.36"/><line x1="1404.17" x2="1404.17" y1="1090.18" y2="1112.41" fill="none" stroke="#000" stroke-linecap="round" stroke-linejoin="round" stroke-width="2.36"/><line x1="1425.52" x2="1425.52" y1="1094.82" y2="1107.77" fill="none" stroke="#000" stroke-linecap="round" stroke-linejoin="round" stroke-width="2.36"/><line x1="1446.86" x2="1446.86" y1="1090.18" y2="1112.41" fill="none" stroke="#000" stroke-linecap="round" stroke-linejoin="round" stroke-width="2.36"/><line x1="1468.2" x2="1468.2" y1="1086.1" y2="1116.49" fill="none" stroke="#000" stroke-linecap="round" stroke-linejoin="round" stroke-width="2.36"/><line x1="1489.54" x2="1489.54" y1="1084.16" y2="1118.43" fill="none" stroke="#000" stroke-linecap="round" stroke-linejoin="round" stroke-width="2.36"/><line x1="1510.89" x2="1510.89" y1="1089.77" y2="1112.82" fill="none" stroke="#000" stroke-linecap="round" stroke-linejoin="round" stroke-width="2.36"/><line x1="1532.23" x2="1532.23" y1="1084.16" y2="1118.43" fill="none" stroke="#000" stroke-linecap="round" stroke-linejoin="round" stroke-width="2.36"/><circle cx="1466.26" cy="1228.33" r="9.05" fill="none" stroke="#000" stroke-linecap="round" stroke-linejoin="round" stroke-width="2.36" transform="rotate(-.2 1490.379 1248.787)"/><path fill="none" stroke="#000" stroke-linecap="round" stroke-linejoin="round" stroke-width="2.36" d="M1534.49,1237.38h-36.86a9.38,9.38,0,1,1,0-18.75h36.86a9.38,9.38,0,1,1,0,18.75Z"/><circle cx="1323.55" cy="1228.33" r="9.05" fill="none" stroke="#000" stroke-linecap="round" stroke-linejoin="round" stroke-width="2.36" transform="rotate(-.2 1355.719 1257.146)"/><path fill="none" stroke="#000" stroke-linecap="round" stroke-linejoin="round" stroke-width="2.36" d="M1391.78,1237.38h-36.87a9.38,9.38,0,0,1,0-18.75h36.87a9.38,9.38,0,1,1,0,18.75Z"/><polygon fill="#000200" points="543.55 1036.22 522.56 1036.22 522.56 1023.47 521.86 1015.42 544.25 1015.42 543.55 1023.49 543.55 1036.22"/><path fill="#e98022" d="M519.34,1110.1v19c0,4.5,6.14,11.32,13.72,11.32s13.71-6.82,13.71-11.32v-19Z"/><path fill="none" stroke="#9acce9" stroke-linecap="round" stroke-linejoin="round" stroke-width="2.36" d="M548.08,1021.87H518c-1,0-1.89.5-1.89,1.12s.84,1.12,1.89,1.12h1.3v105c0,4.5,6.14,11.32,13.72,11.32s13.71-6.82,13.71-11.32v-105h1.31c1,0,1.89-.5,1.89-1.12S549.12,1021.87,548.08,1021.87Z"/><rect width="22.4" height="31.09" x="522.47" y="1047.29" fill="#d6eaf6"/><polygon fill="#000200" points="585.45 1036.22 564.46 1036.22 564.46 1023.47 563.76 1015.42 586.15 1015.42 585.45 1023.49 585.45 1036.22"/><path fill="#f6b122" d="M561.24,1094.7v34.37c0,4.5,6.14,11.32,13.72,11.32s13.72-6.82,13.72-11.32V1094.7Z"/><rect width="22.4" height="31.09" x="560.96" y="1047.29" fill="#d6eaf6"/><path fill="none" stroke="#9acce9" stroke-linecap="round" stroke-linejoin="round" stroke-width="2.36" d="M590,1021.87h-30c-1.05,0-1.89.5-1.89,1.12s.84,1.12,1.89,1.12h1.3v105c0,4.5,6.14,11.32,13.72,11.32s13.72-6.82,13.72-11.32v-105H590c1,0,1.89-.5,1.89-1.12S591,1021.87,590,1021.87Z"/><polygon fill="#000200" points="630.53 1036.22 609.54 1036.22 609.54 1023.47 608.84 1015.42 631.23 1015.42 630.53 1023.49 630.53 1036.22"/><path fill="#9acce9" d="M606.32,1102.4v26.67c0,4.5,6.14,11.32,13.71,11.32s13.72-6.82,13.72-11.32V1102.4Z"/><rect width="14.27" height="31.09" x="618.87" y="1047.29" fill="#d6eaf6"/><path fill="none" stroke="#9acce9" stroke-linecap="round" stroke-linejoin="round" stroke-width="2.36" d="M635.05,1021.87H605c-1,0-1.89.5-1.89,1.12s.85,1.12,1.89,1.12h1.31v105c0,4.5,6.14,11.32,13.71,11.32s13.72-6.82,13.72-11.32v-105h1.3c1.05,0,1.89-.5,1.89-1.12S636.1,1021.87,635.05,1021.87Z"/><path fill="none" stroke="#4895c2" stroke-linecap="round" stroke-linejoin="round" stroke-width="7.08" d="M504.7,1077H647.93a0,0,0,0,1,0,0v60.23a13.7,13.7,0,0,1-13.7,13.7H518.4a13.7,13.7,0,0,1-13.7-13.7V1077A0,0,0,0,1,504.7,1077Z"/><line x1="271.31" x2="1981.28" y1="1309.36" y2="1309.36" fill="none" stroke="#1d1d1b" stroke-linecap="round" stroke-linejoin="round" stroke-width="7.08"/><path fill="none" stroke="#4895c2" stroke-linecap="round" stroke-linejoin="round" stroke-width="4.72" d="M946.79,463.75c6.88,7.5,13.35,17.53,8.1,24.21-6.69,8.52-48.52-2.94-53.75,4.2-6.7,9.15,23.7,42.19,16.09,53.29s-48.65-2.15-53.45,3.76a9.87,9.87,0,0,0-1.35,10.44"/><path fill="none" stroke="#4895c2" stroke-linecap="round" stroke-linejoin="round" stroke-width="4.72" d="M914.21,472.14c-6.6,9,22.69,44.28,15.39,55s-48.1-3.74-54,4.88,24.93,38.52,16.32,51.08-30.86,4.63-30.86,4.63"/><path fill="none" stroke="#1d1d1b" stroke-linecap="round" stroke-linejoin="round" stroke-width="4.72" d="M912.92,215.8c10,1.75,21.28,5.75,21.2,14.25-.11,10.82-40.25,27.25-40,36.1.28,11.33,44.52,19,45.27,32.41s-39.86,28-40.06,35.57a9.92,9.92,0,0,0,5.3,9.11"/><path fill="none" stroke="#1d1d1b" stroke-linecap="round" stroke-linejoin="round" stroke-width="4.72" d="M892.22,242.32c.27,11.15,45,21.25,45.73,34.16s-40.4,26.36-39.82,36.79,43.25,15.33,44.1,30.53-21.63,22.48-21.63,22.48"/><path fill="none" stroke="#4895c2" stroke-linecap="round" stroke-linejoin="round" stroke-width="4.72" d="M1289.88,270.76c-1,2.73-6.26,5.42-5.55,8.64.6,2.74,7,3.89,8.25,6.85,1.17,2.69-2.55,7.78-1.21,10.55s7.76,3.23,8.89,6c1.21,2.94-3.13,7.43-2.59,10.24.6,3.15,6,6.47,5.17,9.29s-7.19,2.38-9.44,4.51c-2,1.93-1.16,8.07-3.85,9.67-2.49,1.49-7.9-2-10.56-.57s-2.52,7.68-5,9.21c-2.65,1.65-8.56-.88-10.52,1.15-2.12,2.19,1,7.33.24,10.26s-6,5.86-5.22,8.87c.71,2.75,7.1,3.51,8.57,6.29,1.36,2.58-1.89,8-.28,10.53s8,2.24,9.51,4.75c1.6,2.76-2.08,7.77-1.2,10.38,1,3.09,6.72,5.93,5.92,8.71"/><path fill="none" stroke="#4895c2" stroke-linecap="round" stroke-linejoin="round" stroke-width="4.72" d="M1311.24,290.41c-.56,1.86-7,.72-10,2.81-2,1.41-1.47,7.59-4.07,9.14-2.32,1.37-7.66-2-10.08-.48s-1.62,7.65-3.8,9.28c-2.36,1.76-8.27-.48-10,1.47-2,2.28,1.39,7.09.88,9.65-.55,2.74-5.71,5.87-4.9,9,.69,2.71,7,3.72,8.3,6.61,1.16,2.67-2.6,7.73-1.29,10.45s7.71,3.15,8.85,5.84c1.23,2.89-3,7.47-2.4,10.2.74,3.13,6.41,6.07,5.82,8.83s-6.78,2.51-8.79,4.62c-1.78,1.89-.46,7.85-2.9,9.45-2.26,1.47-7.58-1.95-10-.6s-2.18,7.54-4.49,8.9c-2.56,1.5-8.16-1.5-10.08.15-2.33,2,.53,7-.07,9.49"/><path fill="none" stroke="#4895c2" stroke-linecap="round" stroke-linejoin="round" stroke-width="4.72" d="M1702.59,591.48c.47,2.86-2.86,7.77-.68,10.24,1.86,2.1,8,0,10.54,2,2.33,1.8,1.53,8,4,9.83s8.35-.92,10.66.92c2.49,2,.87,8,2.69,10.22,2.05,2.46,8.43,2.74,9,5.63s-5.14,5.56-6.08,8.51c-.85,2.68,2.88,7.62,1.31,10.32-1.46,2.5-7.88,2.08-9.52,4.6s1.5,7.94.09,10.47c-1.52,2.73-7.92,3.37-8.65,6.09-.8,2.94,4.43,5.93,5.17,8.86s-2.42,8-.28,10.29c1.95,2.06,7.91-.36,10.54,1.36,2.45,1.6,2.2,7.88,4.85,9.35s8.13-1.93,10.62-.44c2.75,1.65,1.94,7.81,4,9.67,2.41,2.2,8.75,1.94,9.39,4.76"/><path fill="none" stroke="#4895c2" stroke-linecap="round" stroke-linejoin="round" stroke-width="4.72" d="M1730.8,598.35c.42,1.9-5.76,4-7.4,7.3-1.1,2.22,2.39,7.35.86,10-1.36,2.32-7.66,2-9,4.45s2.28,7.48,1.16,10c-1.22,2.69-7.48,3.59-8,6.12-.66,3,4.65,5.53,5.44,8s-2.16,7.89.07,10.25c1.92,2,8-.14,10.47,1.78,2.31,1.77,1.46,8,3.93,9.77s8.27-1,10.57.83c2.47,1.94,1,8,2.83,10.09,2.16,2.38,8.55,2.21,9.37,4.91s-4.73,5.48-5.46,8.3c-.65,2.51,3.39,7.09,2,9.66-1.26,2.38-7.57,2-9.06,4.33s1.73,7.65.36,9.95c-1.51,2.55-7.86,2.63-8.74,5-1.07,2.89,3.83,5.84,4.53,8.33"/><ellipse cx="1592.61" cy="602.55" fill="none" stroke="#000200" stroke-linecap="round" stroke-linejoin="round" stroke-width="4.72" rx="40.71" ry="40.7" transform="rotate(-.14 1546.27 587.125)"/><path fill="none" stroke="#000200" stroke-linecap="round" stroke-linejoin="round" stroke-width="4.72" d="M1609,602.55a16.39,16.39,0,1,1-16.39-16.38A16.39,16.39,0,0,1,1609,602.55Z"/><polygon fill="none" stroke="#000200" stroke-linecap="round" stroke-linejoin="round" stroke-width="4.72" points="1592.38 585.28 1605.01 563.45 1602.39 588.54 1625.45 578.29 1608.58 597.05 1633.26 602.31 1608.58 607.57 1625.45 626.33 1602.39 616.09 1605.01 641.18 1592.38 619.34 1579.74 641.18 1582.36 616.09 1559.3 626.33 1576.17 607.57 1551.49 602.31 1576.17 597.05 1559.3 578.29 1582.36 588.54 1579.74 563.45 1592.38 585.28"/><polygon fill="none" stroke="#000200" stroke-linecap="round" stroke-linejoin="round" stroke-width="4.72" points="1161.22 158.14 1178.32 154.81 1182.27 171.27 1195.41 184.4 1182.27 197.53 1178.32 214 1161.22 210.66 1144.13 214 1140.18 197.53 1127.04 184.4 1140.18 171.27 1144.13 154.81 1161.22 158.14"/><polygon fill="none" stroke="#000200" stroke-linecap="round" stroke-linejoin="round" stroke-width="4.72" points="1169.68 184.4 1170.76 189.9 1165.45 191.17 1161.22 195.4 1157 191.17 1151.69 189.9 1152.77 184.4 1151.69 178.9 1157 177.63 1161.22 173.4 1165.45 177.63 1170.76 178.9 1169.68 184.4"/><polygon fill="none" stroke="#8fddef" stroke-linecap="round" stroke-linejoin="round" stroke-width="4.72" points="661.12 432.45 681.52 428.47 686.24 448.13 701.93 463.8 686.24 479.48 681.52 499.14 661.12 495.15 640.71 499.14 635.99 479.48 620.3 463.8 635.99 448.13 640.71 428.47 661.12 432.45"/><polygon fill="none" stroke="#8fddef" stroke-linecap="round" stroke-linejoin="round" stroke-width="4.72" points="671.21 463.8 672.5 470.37 666.16 471.89 661.12 476.94 656.07 471.89 649.74 470.37 651.02 463.8 649.74 457.23 656.07 455.72 661.12 450.67 666.16 455.72 672.5 457.23 671.21 463.8"/><polygon fill="none" stroke="#a6e4f2" stroke-linecap="round" stroke-linejoin="round" stroke-width="4.72" points="693.76 690.36 710.85 687.02 714.8 703.49 727.94 716.62 714.8 729.75 710.85 746.21 693.76 742.88 676.66 746.21 672.72 729.75 659.57 716.62 672.72 703.49 676.66 687.02 693.76 690.36"/><polygon fill="none" stroke="#a6e4f2" stroke-linecap="round" stroke-linejoin="round" stroke-width="4.72" points="702.22 716.62 703.29 722.12 697.99 723.39 693.76 727.62 689.53 723.39 684.23 722.12 685.3 716.62 684.23 711.12 689.53 709.85 693.76 705.62 697.99 709.85 703.29 711.12 702.22 716.62"/><polygon fill="none" stroke="#4895c2" stroke-linecap="round" stroke-linejoin="round" stroke-width="4.72" points="1455.81 392.66 1465.35 390.8 1467.56 399.99 1474.89 407.32 1467.56 414.65 1465.35 423.84 1455.81 421.98 1446.27 423.84 1444.07 414.65 1436.73 407.32 1444.07 399.99 1446.27 390.8 1455.81 392.66"/><ellipse cx="1455.01" cy="406.52" fill="none" stroke="#4895c2" stroke-linecap="round" stroke-linejoin="round" stroke-width="4.72" rx="31.18" ry="31.19" transform="rotate(-89.88 1455.036 406.509)"/><ellipse cx="780.69" cy="461.52" fill="#f6b122" rx="42.36" ry="93.09" transform="rotate(-3.09 781.354 461.854)"/><path fill="none" stroke="#1d1d1b" stroke-linecap="round" stroke-linejoin="round" stroke-width="4.72" d="M764.76,389.56c-1.59,7.8,4.43,11.87,14.53,17.89s22,11.86,22,18.41c0,9.74-40.74,21.42-40.56,34.7.19,14,39.23,26.39,39.23,38.16s-41.18,23.1-41.18,34.61"/><path fill="none" stroke="#1d1d1b" stroke-linecap="round" stroke-linejoin="round" stroke-width="4.72" d="M800.9,386.2c-3.28,4.78-39.5,18.9-39.5,32s39.05,25.37,39.5,36.34c.53,13.27-41.1,20.72-41.1,35.42s39.86,25.49,39.86,37.35c0,3-4.43,6.55-4.43,6.55"/></g></svg>