<svg xmlns="http://www.w3.org/2000/svg" data-name="Layer 1" viewBox="0 0 2800 1900"><path fill="#d9d9d9" d="M893.5022,1560.238c-191.0633,25.6191-313.7574,65.3999-313.7574,110.0733,0,77.2824,367.2423,139.9314,820.2542,139.9314,453.0139,0,820.2562-62.649,820.2562-139.9314,0-39.5553-96.2312-75.2818-250.909-100.7322-.3029,3.9891-.7719,8.0723-1.404,12.1892q-1.13265,7.3638-2.9934,14.9961c-23.8944,97.75-126.6431,125.5421-237.1452,125.5421-131.4078,0-273.7686-39.3287-307.3501-47.0767-26.4992-6.1156-54.7379-7.8616-78.3648-7.8616a459.64741,459.64741,0,0,0-54.7854,3.1053c-41.017,8.3827-79.4574,12.163-115.2044,12.163-137.8058,0-234.8631-56.3134-278.5967-122.3985"/><path fill="#2a81b7" d="M1188.5261,834.4466,958.3195,875.5353a15.29137,15.29137,0,0,1-17.6679-12.3429l-10.7367-60.2782-6.3421-35.6726-4.4804-25.029a15.35656,15.35656,0,0,1,2.959-12.0026,15.03435,15.03435,0,0,1,9.3849-5.6644l230.1198-41.086a15.25268,15.25268,0,0,1,17.6717,12.3402l4.6482,26.0405,6.5938,36.6047,4.9866,27.9852,5.4135,30.3484a15.24948,15.24948,0,0,1-12.3438,17.668"/><polyline fill="#262e35" points="1190.47 758.445 929.915 802.914 923.573 767.242 1183.876 721.84 1190.47 758.445"/><path fill="#3c91c1" d="M1169.7021,761.9903l-63.1952,10.7852,67.4966,15.576c-.0056-.2722-.0122-.5472-.0214-.8231l.0494-.0075a87.09392,87.09392,0,0,0-3.2591-20.5374,45.874,45.874,0,0,1-1.0703-4.9932M1164.2,683.2312a15.4932,15.4932,0,0,0-2.6439.2284l-230.1198,41.086a15.03435,15.03435,0,0,0-9.3849,5.6644l92.051,21.2422,169.7736-29.6119-4.6482-26.0405A15.23039,15.23039,0,0,0,1164.2,683.2312"/><path fill="#384148" d="M1183.876,721.8403h0l-169.7736,29.6119,92.4045,21.3233,63.1952-10.7852c-2.5329-16.3488,5.9328-26.2129,15.6273-32.0805l-1.4534-8.0695"/><path fill="#ccc0ae" d="M1438.2856,1343.5388s-438.6871-43.9881-540.9285,63.0078c-102.2398,106.9988,64.1982,330.5043,389.9462,263.9269,0,0,71.3291-9.5098,133.1502,4.7563,61.8202,14.2634,492.1851,135.5293,544.4953-78.4654s-337.6322-263.9268-370.9218-266.3051c-33.2879-2.3753-155.7414,13.0795-155.7414,13.0795"/><path fill="#b2b2b2" d="M1766.4108,1367.5367l-.0131.0037c102.6638,33.7736,211.0097,95.1909,202.9467,202.0387h.0018c8.1004-106.8608-100.2623-168.2614-202.9354-202.0424"/><path fill="#979797" d="M1969.3444,1569.5791q-.453,6.0018-1.4022,12.1892c.6321-4.1169,1.1011-8.2001,1.404-12.1892h-.0018"/><path fill="#c0b29d" d="M1195.0639,1628.1942c-95.3344,0-212.3288-30.0352-276.3099-158.6723,0,0,176.1659,136.0457,404.2647,136.0457q11.17155,0,22.4988-.4447s-66.9111,23.0713-150.4536,23.0713m189.0664-128.9029c24.1005,0,190.5739-2.0304,276.4741-57.0759,37.4036-23.9718,71.137-31.1241,98.0743-31.1241,39.8527,0,64.8323,15.6516,64.8323,15.6516s-9.7084-1.0031-24.314-1.0031c-30.2636-.001-81.5792,4.3032-111.2899,30.7604a224.749,224.749,0,0,1,44.995-4.4664c43.9442,0,105.1939,13.3805,112.0002,86.4726,0,0,24.9395-11.9207,8.2831-82.0062,0,0,49.9647,53.5158,11.9216,139.0737-21.2282,47.7833-138.3363,61.8528-258.7772,61.8528-95.4091,0-192.9026-8.8246-246.5274-16.7106,0,0,213.7216-4.7348,333.8548-49.7951-4.4431.8084-77.1361,14.0966-171.5858,14.0966-123.0773,0-283.1098-22.5539-377.3405-124.6761,4.2324,1.7041,140.4926,57.7593,301.9048,57.7593,86.9517,0,181.188-16.2593,266.045-66.0423-5.6448,2.2308-98.1248,37.687-220.1056,37.687a583.34826,583.34826,0,0,1-111.3813-10.4663s1.017.0121,2.9365.0121m382.2674-131.7509c-39.7762,11.366-97.0861,18.741-151.5844,23.5001q-8.0379,3.1926-17.1925,6.028c-32.5392,10.0319-59.9613,13.7684-82.7352,13.7684-25.2406,0-44.7853-4.5848-59.3133-10.2613-14.0817,9.1472-27.8836,12.2758-40.1716,12.2758a81.29947,81.29947,0,0,1-31.6115-6.7047l-82.9953,59.8242L883.6884,1423.962c-61.5284,97.0264,54.8945,258.6634,288.4189,258.6634,35.7284,0,74.1678-3.7784,115.1624-12.1519a458.85766,458.85766,0,0,1,54.917-3.1277c23.6045,0,51.7901,1.7489,78.2352,7.8626,33.6158,7.7619,175.9599,47.0823,307.3658,47.0823,110.4985,0,213.2573-27.7969,237.1611-125.5365,1.2455-5.0939,2.2375-10.0777,2.9934-14.9859q.9525-6.19485,1.4022-12.1892c8.063-106.8478-100.2829-168.2651-202.9467-202.0387"/><path fill="#e2dbd3" d="M1821.0611,1134.3152c-13.2734-16.9939-33.0567-24.01-53.1783-25.9546-34.661-3.3831-70.2542,10.2314-75.5773,12.0894l-1.777.9322-7.3535,141.3521s41.5951,95.1071-85.5542,134.3342c-127.2352,39.2271-176.0159-17.8358-176.0159-17.8358-9.6385-20.5449-18.769-62.2267-26.461-106.6081-7.7805-44.2996-14.0368-91.3912-17.9253-122.7547-2.7901-22.4029-4.3088-36.9422-4.3088-36.9422l-41.595,52.245c-4.0562-40.0736-19.7843-75.9186-35.2558-102.4643-17.076-29.2512-33.7278-47.2557-33.7278-47.2557s49.9611-88.0117,79.6354-111.7635c10.4822-8.3697,30.4352-18.5181,51.9085-28.0709,6.1706-2.7874,12.426-5.4919,18.686-8.0285,33.9833-14.3706,66.1076-25.7851,66.1076-25.7851l-4.7349-48.6987,120.1313-40.4074,16.5736,79.6355s44.6369,21.3903,91.474,45.0602c44.2128,22.3198,90.2034,46.8361,102.3785,57.1495,24.9395,21.3915,16.5699,199.7714,16.5699,199.7714"/><path fill="#b7765a" d="M1702.1127,877.3943c-162.406,113.7929-265.2069,43.5397-308.2376-1.776,39.7334-17.8357,84.7936-33.8136,84.7936-33.8136l-4.7349-48.6987,120.1313-40.4074,16.5736,79.6355s44.6369,21.3903,91.474,45.0602"/><path fill="#ccbfb4" d="M1372.8995,1112.8988c-5.7398-25.5883-8.5981-51.5105-10.4001-77.5081-.7701-13.0077-1.2688-26.0469-1.0683-39.1125a237.86539,237.86539,0,0,1,3.1463-39.1199l3.4474,38.8869c1.1401,12.9247,1.995,25.8643,2.9095,38.8113,1.5206,25.9109,2.8471,51.8442,1.9652,78.0423"/><path fill="#ccbfb4" d="M1689.532,1123.6c-2.1386-20.6026-1.6967-41.0534-.6498-61.4733,1.3098-20.4005,3.2471-40.7654,7.7815-60.9803,2.1591,20.6055,1.7181,41.0563.6517,61.4725-1.3304,20.4013-3.2667,40.7663-7.7834,60.9811"/><path fill="#b7765a" d="M1720.422,673.9461c2.5012.1146,5.1079.0754,7.9064-.0718,90.7889-4.9615,68.3776-115.6836,31.4494-129.4987-8.9635-3.2106-16.6686-3.5164-23.2307-1.8123-20.9289,5.2523-30.5674,28.7385-30.5674,28.7385a207.68155,207.68155,0,0,0-13.0441,24.7633l-.1072.1576c-13.3917,30.0155-25.6601,76.7156,27.5936,77.7234"/><path fill="#a76348" d="M1736.5471,542.5633c-12.4538,3.1259-20.9103,12.7094-25.7179,19.9567q-.14955,1.3062-.3011,2.6075c-2.8079,24.2683-5.8573,47.6295-8.6271,67.5647h0l.0066.028h0c-1.9437,14.0452-3.7328,26.3742-5.1777,36.1348,5.8284,3.0606,13.5773,4.8999,23.6921,5.0911,47.3713-5.9338,57.1319-65.8886,45.5479-88.1115-3.9761-7.692-8.6709-10.2109-13.115-10.2109-8.4434,0-15.9815,9.0875-15.9815,9.0875-3.9033-15.8053-2.6867-30.808-.3263-42.1479"/><path fill="#995942" d="M1723.491,654.0481a82.45283,82.45283,0,0,1-3.6236-25.3459,96.92153,96.92153,0,0,1,3.4185-25.691c2.6802-8.3454,6.6152-16.9669,13.8392-23.308,7.0283-6.6385,17.9188-8.421,25.8046-4.9055-8.7258,1.5177-15.0996,5.3651-19.303,11.1628-4.1961,5.7864-7.0591,12.866-9.2573,20.3229C1730.0093,621.371,1727.6051,637.3963,1723.491,654.0481Z"/><path fill="#ccc0ae" d="M1357.0047,857.0684a136.913,136.913,0,0,1-50.1372,16.6454c-27.1881,3.5835-47.7898-1.4926-49.8669-1.9736l-.1006-.0821-1.3695,33.3875c-15.1472,5.3381-26.9811,7.8813-36.1144,8.7846-22.3991,2.339-29.4198-4.8822-29.4198-4.8822l35.7665-342.8948,2.7716-27.0986.6936-6.7765,75.5027-13.4308,52.274,338.3211"/><path fill="#c2b4a0" d="M1271.2184,530.9401c-1.3267,5.269-3.7654,8.9487-7.7247,10.0413a91.69473,91.69473,0,0,1-23.8171,3.4231,63.5361,63.5361,0,0,1-11.5953-1.0226l-2.3185,22.6713c4.1355-1.4058,9.0718-2.9198,14.7752-4.2762l-21.1219,352.0532c9.1333-.9033,20.9672-3.4465,36.1144-8.7846l1.3695-33.3875-3.2965-312.3628a166.44565,166.44565,0,0,1,20.8963-2.0416l32.3677,316.4601a136.913,136.913,0,0,0,50.1372-16.6454l-27.6645-179.0428c-5.7137-13.2184-11.6334-27.4668-17.5644-42.0584-14.6018-36.078-29.1692-74.3981-40.5574-105.0271"/><path fill="#ccc0ae" d="M1263.4937,540.9814c-13.5707,3.7168-34.6926,6.6152-51.6074-3.6405-9.0363-5.2952-16.8597-14.3678-21.685-28.9751-7.6416-23.0741.2117-36.7204,8.8498-44.3714a43.9392,43.9392,0,0,1,14.8153-8.5384s41.6594-5.3595,45.544-.9938c3.8782,4.2799,24.796,80.8054,4.0833,86.5192"/><path fill="#c2b4a0" d="M1239.0688,453.0657c-12.1677.7131-25.2024,2.3903-25.2024,2.3903a43.9392,43.9392,0,0,0-14.8153,8.5384,127.37731,127.37731,0,0,1,21.5694,37.7309c6.0671,16.7711-1.1401,28.4764-8.7342,35.6156,8.6858,5.2663,18.4781,7.0636,27.7903,7.0636a91.69473,91.69473,0,0,0,23.8171-3.4231c3.9593-1.0926,6.398-4.7723,7.7247-10.0413-6.3683-17.1244-11.7418-31.8455-15.5715-42.4285q-.9816-2.70855-1.8252-5.0453h.0027c-2.4676-6.8426-3.9881-11.1646-4.4114-12.301l-.0895-.2303q-5.58225-9.1845-10.2547-17.8693"/><path fill="#262e35" d="M1710.5747,219.8331c23.8925,17.9942,18.74,91.5524,4.5233,98.5768-92.4417,45.6876-455.3174,46.1072-449.4201,51.586,4.1617,3.8166-31.0084-19.7879-36.0518-25.7357-2.8135-3.4372-28.401,1.1868-34.9295-44.6808-.4568-3.2069-.5603-7.1745,2.6112-14.241,4.1075-9.1015,11.6978-14.8768,19.3423-15.4548a15.47278,15.47278,0,0,1,12.3943,4.4273,33.2936,33.2936,0,0,1-6.7337-36.7418c5.3055-13.0505,17.0219-17.6996,27.2534-18.2954l.0959-.0037c7.1681-.4735,13.6976,1.252,16.306,3.3972a88.42053,88.42053,0,0,1-11.1571-21.6459c-5.5422-16.2436-6.9425-38.2045,15.8417-53.9781,18.2264-12.6348,36.9534-14.8843,52.6822-11.5478,19.279,3.881,33.9618,16.017,37.6322,27.3103a81.2244,81.2244,0,0,1,2.8945-31.332c4.8869-16.1568,16.6453-33.724,44.2315-39.7222,21.3811-4.6165,37.6926-.7858,49.3587,7.0562,18.701,12.315,25.6527,34.5677,22.7478,48.214a31.80062,31.80062,0,0,1,6.8801-9.302c6.2451-6.066,17.1823-11.7239,34.0895-6.0092,6.6264,2.242,11.3473,4.8178,14.6288,7.5446,11.5953,9.6637,5.4033,20.4974,5.4033,20.4974s26.0909-19.2882,38.1868,9.1659a54.73757,54.73757,0,0,1-.358-23.049,47.71983,47.71983,0,0,1,15.5751-26.9149c17.9979-16.0029,42.5282-4.4524,53.2155,9.8464,3.3066,4.4562,5.2737,9.1445,5.3203,13.3023.1902,16.7273-5.6364,25.8969-6.2936,26.9661.9444-.9937,6.6236-6.4325,13.2986-.0326,7.2575,7.0675,7.017,19.6519-.1148,23.5869,0,0,15.1212-8.3409,21.5527,1.9698,6.3384,10.3135,3.7066,14.4955,3.7066,14.4955s20.8815-14.736,25.2863,10.7442"/><path fill="#424b53" d="M1310.1164,134.1091c-12.508,0-26.1216,3.6843-39.4658,12.9341-14.5962,10.1046-19.2677,22.7486-19.2817,34.8027a59.6964,59.6964,0,0,0,3.44,19.1754,181.53625,181.53625,0,0,0,31.098,3.0018c20.254,0,40.7354-4.6911,49.258-21.5088,9.4493-18.7727.0755-35.2026-11.8321-47.0189h0a63.64976,63.64976,0,0,0-13.2164-1.3863"/><path fill="#424b53" d="M1425.7738,89.7575a83.82761,83.82761,0,0,0-17.6828,1.994c-27.5862,5.9982-39.3446,23.5654-44.2315,39.7222,12.5696,8.7119,34.9995,21.3877,59.3964,21.3877a64.011,64.011,0,0,0,25.469-5.1405c27.616-11.723,20.7742-32.4227,8.7248-48.9132h0c-8.2093-5.5189-18.7176-9.0502-31.6759-9.0502"/><path fill="#fff" d="M1216.6501,269.8836c-7.6445.578-15.2348,6.3533-19.3423,15.4548-3.1715,7.0665-3.6013,11.16-2.6112,14.241-.4568-3.2069-.5603-7.1745,2.6112-14.241,4.1075-9.1015,11.6978-14.8768,19.3423-15.4548h0"/><path fill="#424b53" d="M1216.6501,269.8836h0c-7.6445.578-15.2348,6.3533-19.3423,15.4548-3.1715,7.0665-3.068,11.0341-2.6112,14.241h0c22.0225-7.1568,22.8009-22.7077,21.9535-29.6958"/><path fill="#424b53" d="M1249.66,219.27h0l-.0959.0037c-10.2315.5958-21.9479,5.2449-27.2534,18.2954a36.133,36.133,0,0,0-2.779,13.7133,32.71855,32.71855,0,0,0,.9173,7.6063c4.5615.3468,10.1131.564,16.031.564,22.7859,0,50.938-3.2228,48.3016-14.6764-2.5152-10.6471-22.0496-20.1542-35.1216-25.5063"/><path fill="#424b53" d="M1380.1543,190.1503c-9.0671,0-17.1459,2.4034-20.9616,9.6264-11.4153,21.6068,1.2119,27.5871,1.2119,27.5871s-44.8234,2.6718-38.294,24.3466c3.4522,11.4685,9.8204,14.1693,15.0503,14.1693a18.83735,18.83735,0,0,0,8.4079-2.1377s-5.5934-18.4641,18.6245-18.6534c0,0-1.7759-6.4754-10.1429-6.4754q-.33975,0-.6945.014s1.9111-3.6124,12.0987-3.6124a71.79927,71.79927,0,0,1,14.3436,1.7041s5.4862-13.7031,20.6437-13.7031c4.8896,0,10.7842,1.4245,17.8302,5.1972,0,0-4.2063-20.4283-28.6583-20.4301a52.73616,52.73616,0,0,0-9.2423.8688,45.01,45.01,0,0,1,28.8802-10.2109,49.39978,49.39978,0,0,1,10.9361,1.2464s-21.9759-9.536-40.0335-9.5369"/><path fill="#424b53" d="M1616.3636,194.3352a15.43692,15.43692,0,0,0-6.3812,1.4878c-21.7457,9.8194-9.8539,24.2227-9.8539,24.2227a19.82067,19.82067,0,0,1,7.3638-1.5038c5.5161,0,12.3877,2.7921,14.0639,15.9919,0,0,6.8716-2.9199,5.4844-11.339,0,0,7.2893,2.2029,4.9363,24.6952,0,0,25.9286,5.0509,13.1223,34.9761,0,0,25.7385-9.2087,16.0468-39.1441,0,0,16.7338,12.2646,13.7487,36.1665,0,0,16.7675-50.5343-6.9116-57.7015a44.76084,44.76084,0,0,0-12.8827-2.1638c-12.6534-.0008-15.5872,7.9465-15.5872,7.9465s-6.2395-33.6345-23.1496-33.6345"/><path fill="#424b53" d="M1490.8504,196.0673a17.92637,17.92637,0,0,0-12.3402,4.857c-14.6503,13.2053,1.2165,27.9917,1.2165,27.9917s10.4925-23.7723,28.1065-23.7742a20.30159,20.30159,0,0,1,4.3703.482s-10.1652-9.5546-21.3531-9.5565"/><path fill="#424b53" d="M1457.873,200.5626s-22.812,5.4163-11.8423,23.2493c0,0,2.5217-14.7369,11.8423-23.2493"/><path fill="#424b53" d="M1614.6371,111.2113a29.50809,29.50809,0,0,0-20.034,7.7432,47.71983,47.71983,0,0,0-15.5751,26.9149,67.4017,67.4017,0,0,0,26.9531,5.4901,77.84834,77.84834,0,0,0,14.5235-1.4003c14.8004-2.7799,22.9221-11.9597,27.314-21.1583-7.0161-9.3868-19.9977-17.5896-33.1815-17.5896"/><path fill="#424b53" d="M1507.8322,129.3407a29.07727,29.07727,0,0,0-20.7546,8.379c3.3001,4.2865,11.131,11.1563,26.2512,11.3968.1556.0019.3095.0028.4642.0028,11.1161,0,18.0977-4.8291,22.0029-9.8642-3.2815-2.7268-8.0024-5.3026-14.6288-7.5446a41.59977,41.59977,0,0,0-13.3349-2.3698"/><path fill="#424b53" d="M1551.165,205.291a23.22233,23.22233,0,0,0-11.1236,2.8368c-15.6058,8.3697-10.0058,27.2347,3.0419,30.7614,0,0,4.0403-12.412,14.8554-12.412a17.70554,17.70554,0,0,1,6.5453,1.363,16.12209,16.12209,0,0,0-14.4825-8.9841,22.57218,22.57218,0,0,0-6.4633,1.0134s4.4673-7.8188,19.5241-7.8188a51.24157,51.24157,0,0,1,7.0795.5183s-8.2401-7.2771-18.9768-7.278"/><path fill="#ccc0ae" d="M1222.5587,412.4122l.1035.3841c5.4285,21.5555,17.3342,43.8045,33.6635,69.3565q7.66725,11.8764,16.4662,24.8752l430.336-57.2401,16.8821,3.9425s19.7841-75.2333-4.912-135.3205c-98.5042-49.2217-307.9318-82.5197-485.4719,25.8503l-.3636.1902-.3179.1753c-10.6305,23.8273-11.9794,45.4517-6.3859,67.7865"/><path fill="#c2b4a0" d="M1495.8845,272.205c-85.2784,0-179.5584,19.1333-266.2584,72.0552,9.0857-4.5167,103.2856-49.7083,248.7014-49.7083a731.50074,731.50074,0,0,1,160.9992,18.19c-9.4344,32.885-26.6212,52.4678-26.6212,52.4678s-37.6582-8.9207-101.3046-8.9207c-70.0091,0-171.4628,10.7926-288.8422,56.1232l.1035.3841c131.9299-35.1998,232.8541-39.3772,273.3118-39.3772,12.5844,0,19.3097.4036,19.3097.4036s-73.8556,39.3736-153.3819,72.1132a963.36067,963.36067,0,0,1,158.7236-13.3423c1.9876,0,3.9714.0064,5.9636.0195q28.4751.179,57.529,2.1339h0a973.72111,973.72111,0,0,1,117.3608,15.2609l1.6491-.22,16.8821,3.9425a281.58506,281.58506,0,0,0,7.5-64.3829c.0074-22.456-2.9096-47.8178-12.412-70.9376-50.3992-25.1847-129.865-46.2049-219.2135-46.2049"/><path fill="#b7765a" d="M1720.01,453.7378c-1.9801,53.8532-11.0211,127.6947-18.109,178.9544l.0066.028c-3.4288,24.781-6.3784,44.2146-7.8019,53.6377l-.0215.0402c-.6172,3.9779-.9649,6.1631-.9649,6.1631s-20.846,80.7038-156.9962,110.4713c-49.9209,10.9371-88.6642,12.6815-117.3271,7.5335a127.79229,127.79229,0,0,1-15.9704-3.8883c-37.7028-11.9897-52.2711-39.257-47.4532-73.946-4.3453-7.7488-9.2125-17.5598-14.4601-28.7058q-3.79515-8.21115-7.7853-17.323c-6.8623-15.562-14.0974-32.8925-21.3512-50.7357-24.1574-59.69-48.2215-125.5104-57.9504-152.4972-2.4686-6.8445-3.9891-11.1673-4.4124-12.3047l-.1081-.276c107.1106-29.4096,217.1448-44.1279,334.8131-36.1423a979.53556,979.53556,0,0,1,135.892,18.9908"/><path fill="#ac7c50" d="M1629.966,644.9476a54.40259,54.40259,0,0,1-8.2205,1.6518c-33.5656,4.0796-101.9256,13.1653-150.7846,23.6717,24.0799.7625,45.9943,15.1891,63.4963,36.325q6.38085-3.35325,12.6646-6.893c13.8187-7.7414,27.2058-16.2257,40.5229-24.7847l5.5422,8.9002c-13.9724,7.938-27.9776,15.7699-42.4051,22.8437a476.87348,476.87348,0,0,1-44.1895,19.1456,270.18846,270.18846,0,0,1-46.4306,12.6599,160.71641,160.71641,0,0,1-23.3435,2.0817,65.49517,65.49517,0,0,1-24.1284-4.0869,60.35974,60.35974,0,0,0,17.9933,2.8657,75.95544,75.95544,0,0,1-17.9747-2.8657s.193-2.0482.7897-5.4099h0c1.5102-8.8964,5.5887-27.0846,15.217-41.0282h0a47.19128,47.19128,0,0,1,12.1183-12.4492c-38.6379,10.2612-68.7095,20.7882-82.8219,20.7882a20.11881,20.11881,0,0,1-3.2703-.2386c-8.1226-1.3388-16.319-7.0423-21.6142-11.422q4.0092,9.12015,7.7853,17.323c5.2467,11.145,10.1148,20.956,14.4591,28.704l.001-.0056c-4.3331-7.7489-9.2162-17.5384-14.4499-28.7095,31.069,7.2426,91.1142,27.4574,76.3455,73.1208a117.611,117.611,0,0,1-14.4274,29.5467,127.97109,127.97109,0,0,0,15.9554,3.8837,193.82006,193.82006,0,0,0,34.1407,2.7735q10.79835,0,22.8718-.9471l-.5528-5.6821a508.56672,508.56672,0,0,1-56.456,3.8446,524.38052,524.38052,0,0,0,55.8669-9.9108l-.7328-7.5381,96.8037-32.5607c44.5139-31.2909,60.8963-72.5857,59.2285-115.5977m71.9267-12.2489c-3.4289,24.782-6.3635,44.2259-7.787,53.649l-.0252.0429c-17.1403,34.8623-51.0359,64.368-95.9461,85.8592l2.0761,9.9722c79.0304-35.9494,92.9088-89.6608,92.9088-89.6608s.3477-2.1852.9649-6.1631l.0215-.0402c1.4235-9.4231,4.3731-28.8567,7.8019-53.6377h0l-.0149-.0215"/><path fill="#262e35" d="M1536.2956,708.8615c-24.8426,18.4893-88.0798,38.2548-123.5872,27.6011,0,0,.193-2.0482.7897-5.4099,1.5102-8.8964,5.5887-27.0846,15.217-41.0282,5.4453-7.9316,12.7028-14.5076,22.2556-17.2298,32.7601-9.3346,62.8791,7.8561,85.3249,36.0668"/><path fill="#c1876c" d="M1453.4681,626.2457l-.0363.0103c-6.1277,3.5155-18.2376,10.6797-26.3099,17.3304-11.2168,9.2442-22.4961,22.8587-15.246,27.8668a18.8242,18.8242,0,0,0,5.7575,2.2523c15.1603-8.2467,32.5308-23.6651,38.8981-35.9158,3.8166-7.3154,1.3919-10.4431-3.0634-11.544"/><path fill="#2a323f" d="M1308.4542,560.002c1.3667,4.032,8.297,6.8735,14.4349,4.9615l2.0305-.7608c6.5536-3.2684,50.5091-28.1175,52.2822-30.6038,1.7751-2.4863.3767-6.6329-3.7037-8.7352,0,0-26.2689-13.6965-41.4366-18.3886a11.89431,11.89431,0,0,0-14.3986,6.6945c-2.8518,7.045-5.3818,17.1366-7.0674,26.1803-1.8831,10.0087-2.8014,18.7363-2.1413,20.6521"/><path fill="#181d27" d="M1346.5151,512.0024q1.7856,2.07945,3.4754,4.3452c6.3085,8.4779,8.4098,18.6002,7.5894,29.5234,10.1476-5.9076,18.8519-11.1935,19.6219-12.2721a4.17834,4.17834,0,0,0,.7552-2.4826c-.014-2.23-1.5578-4.7582-4.4589-6.2526,0,0-13.6706-7.1279-26.983-12.8613"/><path fill="#a76348" d="M1371.2932,636.5247c-8.5692,0-17.4535-8.9944-20.804-21.741-3.7485-14.2522.8437-27.8015,10.2501-30.2589a11.89782,11.89782,0,0,1,3.0177-.386c8.5702,0,17.4526,8.9925,20.8012,21.7382,3.7486,14.2523-.8427,27.8015-10.2519,30.2618a11.8771,11.8771,0,0,1-3.0131.3859m-10.4924-76.7418a17.38844,17.38844,0,0,0-4.4067.5631q-.7761.2028-1.5232.4746c-3.1902,11.5663-8.7707,23.569-15.4297,35.1494a62.79673,62.79673,0,0,0,1.8654,10.8001c5.1749,19.6947,18.6738,33.6383,31.5781,33.6383a17.36985,17.36985,0,0,0,4.4057-.5631c14.1049-3.6842,20.86-24.4733,15.0885-46.424-5.174-19.6947-18.6711-33.6393-31.5781-33.6384"/><path fill="#2a323f" d="M1350.4892,614.7837c3.7449,14.2522,14.4107,23.8134,23.8171,21.3551,9.4092-2.4603,14.0005-16.0095,10.2519-30.2618-3.7448-14.2531-14.4097-23.8134-23.8189-21.3522-9.4064,2.4574-13.9986,16.0067-10.2501,30.2589"/><path fill="#fff" d="M1355.0265,603.1641c.9676,3.6778,3.9742,6.0783,6.7168,5.3624,2.7417-.717,4.1821-4.28,3.2144-7.9587-.9677-3.6776-3.9741-6.0782-6.715-5.3613C1355.5001,595.9234,1354.0607,599.4865,1355.0265,603.1641Z"/><path fill="#fff" d="M1364.8599,611.0276a2.93349,2.93349,0,1,0,2.0098-3.8417A3.07912,3.07912,0,0,0,1364.8599,611.0276Z"/><path fill="#a76348" d="M1500.3761,536.3182c-12.8996,7.7219-18.6394,28.7226-12.8818,50.6136,5.8349,22.1969,21.5135,37.8111,36.7501,37.8111a21.68037,21.68037,0,0,0,5.5003-.7038c16.7916-4.3909,25.1008-28.1213,18.5574-53.0067-3.6331-13.8132-11.078-25.0775-19.856-31.6144-8.2374-.798-18.5332-1.9559-28.07-3.0998"/><path fill="#2a323f" d="M1498.2814,595.9169c4.2482,16.1549,16.7729,26.8767,27.9739,23.9476,11.2028-2.9291,16.8392-18.3998,12.5919-34.5548-4.2483-16.1549-16.7731-26.8767-27.974-23.9476C1499.6704,564.2912,1494.034,579.7619,1498.2814,595.9169Z"/><path fill="#fff" d="M1503.831,582.6389c1.0963,4.1689,4.6314,6.8566,7.8971,6.0037,3.2647-.854,5.0229-4.926,3.9266-9.0951-1.0972-4.169-4.6315-6.8566-7.8961-6.0027C1504.4919,574.3987,1502.7356,578.4708,1503.831,582.6389Z"/><path fill="#fff" d="M1515.3918,591.443a3.48117,3.48117,0,1,0,2.4397-4.3974A3.56515,3.56515,0,0,0,1515.3918,591.443Z"/><path fill="#995942" d="M1479.159,663.3576c-8.4629,7.9959-19.8568,12.9181-31.4652,15.162a85.88683,85.88683,0,0,1-17.7919,1.679c-6.0914-.1808-11.8899-.5183-18.6786-3.1771a10.65177,10.65177,0,0,1-6.4996-12.5778,25.82138,25.82138,0,0,1,4.6295-9.5518,71.22177,71.22177,0,0,1,12.907-12.8549c9.5518-7.3507,20.0769-12.1444,30.7698-16.4812l.1818-.0764.0345-.0037-.1725.0727,4.2921-1.474-3.5053,2.8696-.1752.0726-.0308.015.1781-.0746c-8.9645,7.1215-18.1211,14.0881-25.8877,21.603a75.9877,75.9877,0,0,0-10.3311,12.1052,16.58134,16.58134,0,0,0-2.7585,5.7175l-.0271.7495c-.0662-.1529-.1948-.0718.7244.4148,3.7728,1.7546,9.5714,2.3577,14.7854,2.9031a123.42861,123.42861,0,0,0,16.3135.1426C1457.5579,669.8292,1468.5547,667.9936,1479.159,663.3576Z"/><path fill="#995942" d="M1412.6898,736.4626c15.2655,5.0359,31.6545,2.5543,46.9797-.5706a265.87586,265.87586,0,0,0,44.9893-14.9588,471.14979,471.14979,0,0,0,42.463-21.2301c13.8187-7.7414,27.2058-16.2257,40.5229-24.7847l5.5422,8.9002c-13.9724,7.938-27.9776,15.7699-42.4051,22.8437a476.87348,476.87348,0,0,1-44.1895,19.1456,270.18846,270.18846,0,0,1-46.4306,12.6599c-15.6907,2.3213-32.4516,3.8922-47.4719-2.0052"/><path fill="#995942" d="M1579.3496,663.3734a16.17645,16.17645,0,0,1,8.7817,4.4897,22.05424,22.05424,0,0,1,5.3819,8.0276c2.2943,6.0493,1.8561,13.9977-3.5518,18.7484-1.6137-3.2992-2.4462-5.8014-3.5015-8.2019-1.0767-2.353-1.7582-4.6044-2.7558-6.8604A76.387,76.387,0,0,1,1579.3496,663.3734Z"/><path fill="#fff" d="M1355.3714,732.7299c-4.8188,34.6935,9.742,61.9553,47.4682,73.9543l.001-.0019-.0103-.0038c-33.1424-10.5381-48.4079-32.8775-48.3492-61.685a90.52806,90.52806,0,0,1,.8913-12.2618l-.001-.0018"/><path fill="#b78c63" d="M1340.9225,704.0148c5.2337,11.1711,10.1168,20.9606,14.4499,28.7095l-.001.0056.001.0018h0a90.52806,90.52806,0,0,0-.8913,12.2618c-.0587,28.8075,15.2068,51.1469,48.3445,61.6842l.015.0046a117.611,117.611,0,0,0,14.4274-29.5467c14.7687-45.6634-45.2765-65.8782-76.3455-73.1208"/><path fill="#cabead" d="M1253.8244,483.4663h-.0027q.84315,2.33385,1.8252,5.0453-.9786-2.7057-1.8215-5.0416l-.001-.0037"/><path fill="#c1876c" d="M1272.4014,482.2907a148.44719,148.44719,0,0,0-18.577,1.1756l.001.0037q.8418,2.3325,1.8215,5.0416c10.6893,29.5048,33.369,91.2158,56.1457,147.4621a329.88522,329.88522,0,0,0,27.6486-40.0037c-1.3882-16.828,4.6295-31.2303,15.4297-35.1494a78.57364,78.57364,0,0,0,2.709-14.9496c-13.2463,7.7106-28.9491,16.4812-32.6603,18.3317l-2.0305.7608a13.757,13.757,0,0,1-4.0833.6096c-4.8244,0-9.286-2.4229-10.3516-5.5711-.6601-1.9158.2582-10.6434,2.1413-20.6521h0c1.6856-9.0437,4.2156-19.1353,7.0674-26.1803a11.84447,11.84447,0,0,1,10.9568-7.209,11.72407,11.72407,0,0,1,3.4418.5145,152.94421,152.94421,0,0,1,14.4536,5.5273c-21.0092-24.4547-51.6671-29.7126-74.1137-29.7117"/><path fill="#3c4552" d="M1331.7511,522.0763c-.1586,0-.3198.0018-.4783.0075-9.8734.3122-17.0079,10.471-20.6773,17.2661h0c-1.8831,10.0087-2.8014,18.7363-2.1413,20.6521,1.0656,3.1482,5.5272,5.5711,10.3516,5.5711a13.757,13.757,0,0,0,4.0833-.6096l2.0305-.7608c3.7112-1.8505,19.414-10.6211,32.6603-18.3317h0c-13.2463,7.7106-28.9491,16.4812-32.6603,18.3317l-2.0305.7608-1.1877-1.3677c35.5149-19.5791,24.6999-41.5223,10.0497-41.5195"/><path fill="#262d39" d="M1328.6197,505.9606a11.846,11.846,0,0,0-10.9568,7.209c-2.8518,7.045-5.3818,17.1366-7.0674,26.1803,3.6694-6.7951,10.8039-16.9539,20.6773-17.2661.1585-.0057.3197-.0075.4783-.0075,14.6502-.0028,25.4652,21.9404-10.0497,41.5195l1.1877,1.3677,2.0305-.7608c3.7112-1.8505,19.414-10.6211,32.6603-18.3317.8204-10.9232-1.2809-21.0455-7.5894-29.5234q-1.6878-2.268-3.4754-4.3452a152.94421,152.94421,0,0,0-14.4536-5.5273,11.72407,11.72407,0,0,0-3.4418-.5145"/><path fill="#b3755b" d="M1354.8709,560.8206c-10.8002,3.9191-16.8179,18.3214-15.4297,35.1494,6.659-11.5804,12.2395-23.5831,15.4297-35.1494"/><path fill="#c0b29d" d="M1361.9018,445.9359a1117.9147,1117.9147,0,0,0-112.5969,24.9534h0a1118.96883,1118.96883,0,0,1,112.5708-24.9423l.0261-.0111"/><path fill="#b4a48e" d="M1520.6254,432.5936a963.36067,963.36067,0,0,0-158.7236,13.3423l-.0261.0111a963.79617,963.79617,0,0,1,158.8355-13.3525c1.9596,0,3.9145.0055,5.8778.0186-1.9922-.0131-3.976-.0195-5.9636-.0195"/><path fill="#a76348" d="M1701.8825,632.6829l.0102.0158.0009-.0037.0019-.0065-.0093-.0037m-181.175-200.0903a963.79617,963.79617,0,0,0-158.8355,13.3525,1118.96883,1118.96883,0,0,0-112.5708,24.9423l.1184.2835c20.0545-4.5233,84.2995-17.6951,152.4543-17.6922,67.642.0018,139.1352,12.9806,175.0333,60.266,29.7667,39.2431,51.3081,86.1621,53.0551,131.201,20.5915-5.8108,35.0898-22.7246,42.8871-34.208-16.3991-16.6686-30.8573-38.7815-43.1434-61.8799-3.1902-6.0875-6.2704-12.2366-9.22-18.3885-2.27-4.7862-4.4739-9.5575-6.5388-14.3063-8.6391-19.5334-15.6562-38.2446-20.8432-53.3945-4.142-12.0381-7.1578-21.8211-8.9877-28.0169q-29.05965-1.97715-57.531-2.1404c-1.9633-.0131-3.9182-.0186-5.8778-.0186"/><path fill="#9b693f" d="M1672.8531,610.7396c-7.7973,11.4834-22.2956,28.3972-42.8871,34.208,1.6678,43.012-14.7146,84.3068-59.2285,115.5977l23.3276-7.8467,4.0693,19.5512c44.9102-21.4912,78.8058-50.9969,95.9461-85.8592l.0252-.0429c1.4235-9.4231,4.3581-28.867,7.787-53.649l-.0102-.0158c-10.2501-5.1358-19.9362-12.701-29.0294-21.9433"/><path fill="#b2b2b2" d="M1706.1773,450.9196q6.89685,1.35645,13.8327,2.8182h0c-.4168,11.3372-1.1467,23.5543-2.1059,36.2654.9611-12.7103,1.691-24.9348,2.1087-36.2691q-6.93735-1.4613-13.8355-2.8145"/><path fill="#a76348" d="M1713.8553,534.7931q-.0867.80685-.1771,1.6146c-.5594,5.4192-1.1402,10.8439-1.7378,16.2436q.99015-8.90625,1.9149-17.8582m1.6938-17.158c-.1566,1.6063-.3076,3.2116-.4614,4.8271.1557-1.61.3095-3.2228.4614-4.8271m4.4609-63.8973c-.3701,9.8297-.9798,20.3118-1.7583,31.2098-.4875,6.9742-1.0543,14.1255-1.678,21.3709q.72165-8.25885,1.3304-16.3153c.9592-12.7111,1.6891-24.9282,2.1059-36.2654h0"/><path fill="#9b693f" d="M1474.6666,800.6441a524.38052,524.38052,0,0,1-55.8669,9.9108,508.56672,508.56672,0,0,0,56.456-3.8446l-.5891-6.0662"/><path fill="#424b53" d="M1428.7151,690.0245h0c-9.6283,13.9436-13.7068,32.1318-15.217,41.0282a117.37891,117.37891,0,0,0,12.7586.7048c48.2234,0,73.1741-30.9982,41.3807-35.1178-18.0549-2.3427-30.7185-4.7497-38.9223-6.6152"/><path fill="#262e35" d="M1720.01,453.7378c-.3701,9.8297-.9798,20.3118-1.7583,31.2098-.6889,9.8586-1.5353,20.0714-2.4788,30.4025-.2937,2.9385-.563,5.8657-.8502,8.8321-.3943,4.0721-.7896,8.1395-1.2445,12.2255-3.5304,34.2014-7.9242,68.5576-11.7772,96.2845-28.7411-14.393-53.0886-47.9203-72.1913-83.8325-3.1902-6.0875-6.2704-12.2366-9.22-18.3885-2.27-4.7862-4.4739-9.5575-6.5388-14.3063-8.6391-19.5334-15.6562-38.2446-20.8432-53.3945-4.1429-12.0418-7.1596-21.8286-8.9897-28.0234a979.53556,979.53556,0,0,1,135.892,18.9908"/><path fill="#2a323f" d="M1461.245,517.1186c-1.8617,4.8039,2.2597,12.3868,9.3271,14.8843a11.03147,11.03147,0,0,0,2.435.7029c8.4919,1.499,67.6943,8.7464,71.2275,7.623,3.5332-1.1197,5.4592-6.055,3.3608-10.9269,0,0-13.3694-31.5324-23.5719-46.6749-3.9248-5.8004-12.0316-7.4039-18.2786-3.7522-8.0313,4.7069-18.1155,12.5415-26.6212,19.9706-9.4335,8.215-17.0005,15.8845-17.8787,18.1732"/><path fill="#181d27" d="M1512.9428,477.0244a14.25922,14.25922,0,0,0-7.1979,1.9504c-8.0313,4.7069-18.1155,12.5415-26.6212,19.9706,5.448-2.4686,13.2136-5.2495,20.5205-5.2495a19.50474,19.50474,0,0,1,11.6262,3.3486c12.5862,9.04,8.3398,33.7268-27.9032,33.7268a97.05736,97.05736,0,0,1-12.8203-.907l.0252,2.1386a11.03147,11.03147,0,0,0,2.435.7029c7.885,1.3928,59.498,7.7405,69.6586,7.7405a6.50618,6.50618,0,0,0,1.5689-.1175c2.5385-.8045,4.2492-3.5808,4.2296-6.8875a10.3541,10.3541,0,0,0-.8688-4.0394s-13.3694-31.5324-23.5719-46.6749a13.27935,13.27935,0,0,0-11.0807-5.7026"/><path fill="#424b53" d="M1714.9227,524.1822c-19.1521,11.3595-37.2862,15.2097-53.0738,15.2097a102.47114,102.47114,0,0,1-41.3592-8.9207c2.9496,6.1519,6.0298,12.301,9.22,18.3885a108.68148,108.68148,0,0,0,26.7574,3.3589,113.446,113.446,0,0,0,57.2111-15.8109c.4549-4.086.8502-8.1534,1.2445-12.2255"/><path fill="#424b53" d="M1593.1077,462.7704c5.187,15.1499,12.2041,33.8611,20.8432,53.3945a110.31435,110.31435,0,0,0,48.2635,10.954c22.5744,0,41.7852-6.5342,53.5585-11.7688.9435-10.3311,1.7899-20.5439,2.4788-30.4025a132.22869,132.22869,0,0,1-30.5861,3.4559c-42.6167,0-81.0701-18.3793-94.5579-25.6331"/><path fill="#b7765a" d="M1330.1317,1155.7887c-37.3701,50.6387-124.1931,156.4005-166.4631,110.4928-54.696-59.427-74.8996-286.505-74.8996-286.505s-74.9062,8.2831-126.0548-8.3687c-51.0584-16.6565-32.0377-53.5167-32.0377-53.5167-23.8422-13.0216-6.0055-34.4093-6.0055-34.4093s-13.0152-17.8358-19.0207-36.8601c-5.9189-19.0198,6.0055-39.2234,6.0055-39.2234C871.241,776.4542,918.754,738.41,918.754,738.41l13.1056,61.7987,35.6761-20.2073c14.2019,29.761-25.0253,60.6194-25.0253,60.6194l10.7368,25.0252,72.5363-13.1046,70.0855,5.9152,66.6193-38.0432s19.0207-14.2028,8.2841-53.4299c-7.3975-27.2963,13.8252-38.4926,27.4854-42.7865a7.20377,7.20377,0,0,1,9.3737,7.4365c-3.0381,42.1871,22.938,57.1683,11.9207,94.7845-11.9207,40.4083-45.2327,52.246-53.5157,86.7383s46.3272,172.3782,46.3272,172.3782l49.9675-70.0818s56.1344,60.529,67.8005,140.336"/><path fill="#b2b2b2" d="M1207.639,731.5319c-.0028.0336-.0046.0681-.0075.1016-.0745,1.046-.1314,2.0715-.1724,3.0849q.0615-1.5117.1724-3.0699c.0029-.0392.0047-.0783.0075-.1166m-11.697-6.5621q-.6096.2085-1.2454.4223l.0112.0271q.6222-.23355,1.2342-.4494"/><path fill="#b2b2b2" d="M918.7484,738.4157c-.2992.2396-11.1916,9.0381-17.9746,21.5135,6.8137-12.4782,17.6772-21.2739,17.9746-21.5135"/><path fill="#1f6ea7" d="M1174.0035,788.3515a53.81119,53.81119,0,0,1-1.831,15.5937,54.37172,54.37172,0,0,0,1.8766-15.5834l-.0456-.0103"/><path fill="#2e7eb3" d="M1174.0315,787.5209l-.0494.0075c.0092.2759.0158.5509.0214.8231l.0456.0103c-.0045-.2769-.0102-.5603-.0176-.8409"/><path fill="#1f6ea7" d="M942.5104,840.6208h0l10.7368,25.0252,72.5363-13.1046,32.5075,2.7436-.0429-.0391h-.0857l-32.3789-2.7045L953.2472,865.646l-10.7368-25.0252"/><path fill="#b2b2b2" d="M1088.769,979.7765s.4195,4.9866,1.3489,13.6929l.0309-.001c-.9351-8.6959-1.3798-13.6919-1.3798-13.6919M927.986,940.7946l-.0149.0056c1.3136,5.957,4.5531,12.3327,11.2345,18.1564-6.6618-5.8237-9.8939-12.2031-11.2196-18.162m237.1947-18.9125c-.0177,44.4747,47.183,163.6524,47.183,163.6524l8.5487-11.9906-.0084-.0131-8.5403,12.0037s-47.2007-119.1777-47.183-163.6524m-240.1537-7.843q.74835.66135,1.5905,1.3163h.0559q-.87525-.6489-1.6464-1.3163"/><path fill="#b2b2b2" d="M1330.1317,1155.7887c-14.0312,19.0141-35.0329,45.7976-58.0334,69.4077,23.0089-23.6092,44.0133-50.3963,58.0334-69.4077"/><path fill="#a76348" d="M1200.4514,723.8698a7.43532,7.43532,0,0,0-2.2048.3384c-.7318.2247-1.5.4866-2.3046.7616q-.611.2154-1.2342.4494c8.8684,20.5402,18.2245,56.4168-20.6763,62.1017.0074.2806.0131.564.0176.8409a54.37172,54.37172,0,0,1-1.8766,15.5834c-2.7762,9.9537-7.8597,14.9039-9.2637,16.1345,7.1028,12.7633,15.5537,38.7181-13.5278,61.0342-6.6833,5.1134-14.5272,7.3303-22.9734,7.3303-21.9862,0-48.0238-15.0335-68.1166-33.1592l-32.5075-2.7436L953.2472,865.646l-10.7368-25.0252h0s28.1856-22.1726,28.1232-47.0543a31.32274,31.32274,0,0,0-3.0979-13.5651l-35.6761,20.2073-7.0376-33.1852-5.9459-28.0429-.1221-.5706h0l-.0056.0057c-.2974.2396-11.1609,9.0353-17.9746,21.5135-.8074,1.485-1.5569,3.0223-2.2226,4.6043,15.4679,21.2189,34.2369,53.2612,35.6753,80.908,1.0432,19.896,18.2385,24.0939,37.2619,24.0939,6.9453,0,14.1385-.5603,20.8722-1.1206,6.7345-.5593,13.0132-1.1196,18.1406-1.1196,7.5596,0,12.6123,1.2184,12.9134,5.4537.9305,14.3706-75.2398,17.158-103.6436,34.4055a20.03317,20.03317,0,0,0,5.256,6.8847q.7692.66555,1.6464,1.3163h.028c14.4191-3.8036,42.8247-10.5046,63.927-10.5037,10.3228.001,18.9013,1.6054,23.2344,5.9366,13.3564,13.3572-55.1825,19.0225-85.8768,30.0063,1.3257,5.9589,4.5578,12.3383,11.2196,18.162,5.3595,4.6715,12.935,8.9888,23.5086,12.4512,25.6424,8.3482,57.2502,10.429,82.4032,10.429,25.0178,0,43.6516-2.0603,43.6516-2.0603h0s.4447,4.996,1.3798,13.6919c.4642-.0093.9369-.014,1.4206-.014,11.8536,0,29.5178,3.0578,48.3445,17.1768,28.7917,21.7102,101.5089,157.8975,90.0227,233.1282l4.6723,14.6334c12.5696-9.094,25.3078-20.6978,37.4894-33.1964,23.0005-23.6101,44.0022-50.3936,58.0334-69.4077h0q-.73695-5.041-1.7022-9.9769c-6.3253-32.2251-19.4365-60.9122-32.3705-83.1034l.0028-.0037c-17.0602-29.2782-33.7306-47.252-33.7306-47.252h0l-8.5413,12.0027c20.9682,22.7404,59.5176,69.7453,52.5005,102.124-2.0043,9.2787-6.6628,13.1513-12.8901,13.1513-20.035,0-56.2958-40.0998-72.4879-69.1868l-8.5487,11.9906s-47.2007-119.1777-47.183-163.6524a38.1694,38.1694,0,0,1,.8558-8.7258c8.283-34.4923,41.595-46.33,53.5157-86.7383,10.7162-36.6924-13.7077-51.8367-12.0931-91.6996.041-1.0134.0979-2.0389.1724-3.0849.0029-.0335.0047-.068.0075-.1016a7.22622,7.22622,0,0,0-7.1876-7.6621"/><path fill="#995942" d="M1025.7845,852.5405a49.82049,49.82049,0,0,1,21.341,8.4471,22.64613,22.64613,0,0,1,7.8719,9.907,20.197,20.197,0,0,1,.1062,13.4114,68.715,68.715,0,0,1-4.4635,10.9865c-1.8301,3.5304-4.5606,7.6994-9.2974,10.2631-4.7861,2.3483-9.2013,2.3185-12.9386,2.5628l-11.324.4474c-15.3178-.206-29.7788-1.3657-44.3835-.825-14.3874.8101-29.2203,2.0072-42.0201,10.1494,10.2688-11.5245,26.4041-16.2081,41.2939-18.2991,15.1341-2.2672,30.5488-1.5103,45.0285-1.5037,6.8492-.2993,15.9471.3132,19.9688-1.4114,4.0506-1.5243,7.5763-9.0605,10.499-15.2181,2.5684-5.4276,1.3312-11.6484-3.7467-16.6602C1039.0839,859.5752,1032.4817,855.85,1025.7845,852.5405Z"/><path fill="#995942" d="M1035.2644,904.8508c5.5637-.4969,11.9468.8064,16.5288,5.8685,4.5102,5.4118,4.2577,13.0114,2.601,18.7568a20.54713,20.54713,0,0,1-4.4692,9.0978,31.21528,31.21528,0,0,1-7.7694,6.1519,65.45821,65.45821,0,0,1-17.0526,5.8872,136.1068,136.1068,0,0,1-34.1809,1.8253,149.405,149.405,0,0,1-33.3288-5.5813c11.2578-1.1131,22.3115-1.7778,33.27-2.6001,10.9213-.9378,21.8267-1.7666,32.1673-3.9163,10.113-2.1945,20.8655-4.9465,23.6241-13.4206,1.8962-4.5411,2.9571-9.2582.9266-13.2884C1045.5854,909.5158,1040.5802,906.542,1035.2644,904.8508Z"/><path fill="#995942" d="M953.2481,865.6442c-4.0572,5.1246-8.5143,8.1497-13.112,11.0117a67.725,67.725,0,0,1-15.4642,6.8278c1.3928-6.5332,6.1817-11.0033,11.1422-14.0872C940.9742,866.5205,946.7299,864.5665,953.2481,865.6442Z"/><path fill="#995942" d="M931.8586,800.2097a16.44374,16.44374,0,0,1-8.9757,7.0739,19.35239,19.35239,0,0,1-11.2289.1128,10.24012,10.24012,0,0,1,3.6329-5.38,15.65276,15.65276,0,0,1,4.9438-2.7548A14.59412,14.59412,0,0,1,931.8586,800.2097Z"/><polyline fill="#989b9b" points="1476.724 1339.159 1300.794 1465.971 860.084 1421.585 744.429 1099.823 1194.61 1133.131 1254.299 1320.053 1277.125 1321.996 1476.724 1339.159"/><path fill="#a9aaaa" d="M1300.709,1465.7164l-128.3304-308.8295L744.4292,1099.823l450.1807,33.3083,59.689,186.9213,22.8261,1.9438c12.3402,74.1426,22.9091,139.1567,23.584,143.72"/><polyline fill="#818282" points="1476.724 1339.159 1300.794 1465.971 1254.299 1320.053 1476.724 1339.159"/><path fill="#b2b2b2" d="M1691.4236,1120.9124l-.8951.4698-.0027.0625c.2946-.1147.5948-.2322.8875-.345l.0103-.1873"/><path fill="#dad2c8" d="M1691.9735,1111.3074q-.90885,5.1852-2.0183,10.3601c.1874-.0728.3832-.1501.5706-.2228l.0027-.0625.8951-.4698.1202-2.0697.675-.2507c-.097-2.3847-.18-4.8178-.2453-7.2846m7.857-129.5872s-81.7544,259.6227-304.6866,290.9044c3.7309,21.5218,7.7992,42.4107,12.0996,60.5597l49.5192,4.2576,226.4123-74.7076h0l5.9589-140.72.042-.0168.0009-.0224.1846-.0736c-1.9428-20.0275-1.4982-39.9161-.4792-59.7748,1.3098-20.4005,3.2471-40.7654,7.7815-60.9803.5211,4.9801.8913,9.95,1.1383,14.9142,1.2781-19.4094,2.0285-34.3404,2.0285-34.3404"/><path fill="#c0b1a4" d="M1696.6637,1001.1464c-4.5344,20.2149-6.4717,40.5798-7.7815,60.9803-1.019,19.8587-1.4636,39.7473.4792,59.7748.2014-.0793.3934-.1547.5938-.234q1.1145-5.17275,2.0183-10.3601a298.31137,298.31137,0,0,1,1.0918-38.031c1.9119-17.3688,3.5508-39.2178,4.7367-57.2158-.247-4.9642-.6172-9.9341-1.1383-14.9142"/><path fill="#dad2c8" d="M1614.8133,1391.0405c-81.9484,7.155-157.5323,8.3959-157.5323,8.3959q-.8544.5844-1.7087,1.1392c14.528,5.6765,34.0727,10.2613,59.3133,10.2613,22.7739,0,50.196-3.7365,82.7352-13.7684q9.1731-2.83035,17.1925-6.028"/><polyline fill="#858989" points="1407.244 1333.184 1407.245 1333.191 1456.758 1337.443 1456.763 1337.442 1407.244 1333.184"/><path fill="#6e6f6f" d="M1407.2445,1333.1908q1.1187,4.71825,2.256,9.1752c16.3918.5202,28.7851,1.1728,28.7851,1.1728l18.4724-6.096-49.5135-4.252"/><path fill="#9b693f" d="M1570.7375,760.5453l-96.8037,32.5607.7328,7.5381c40.9303-9.7215,72.4645-23.5047,96.0709-40.0988"/><path fill="#dad2c8" d="M1702.1127,877.3943c-54.7957,38.3945-102.8149,55.8369-144.0332,60.3536a395.093,395.093,0,0,0,82.9188,8.5385,468.6063,468.6063,0,0,0,67.1982-4.9773s78.9381,40.8894,60.1329,164.2212c42.4312,2.2654,52.7317,28.7849,52.7317,28.7849h0s1.348-28.7365,1.3498-64.5245c.0028-53.3768-2.9907-122.4414-17.9197-135.2469-12.1751-10.3134-58.1657-34.8297-102.3785-57.1495h0"/><path fill="#a76348" d="M1600.2105,782.222c-17.8451,8.1171-39.008,15.3271-64.0874,20.8105a449.73,449.73,0,0,1-60.3146,9.3599l2.8602,29.4123h0s-32.1243,11.4145-66.1076,25.7851c26.4292,22.6033,74.4307,54.9402,145.5184,70.1581,41.2183-4.5167,89.2375-21.9591,144.0332-60.3536h0c-46.8371-23.6699-91.474-45.0602-91.474-45.0602l-10.4282-50.1121"/><path fill="#9b693f" d="M1598.1344,772.2498c-35.1317,16.813-76.9935,28.7187-122.8787,34.4605l.5528,5.6821a449.73,449.73,0,0,0,60.3146-9.3599c25.0794-5.4834,46.2423-12.6934,64.0874-20.8105l-2.0761-9.9722"/><path fill="#895631" d="M1594.0651,752.6986l-23.3276,7.8467c-23.6064,16.5941-55.1406,30.3773-96.0709,40.0988l.5891,6.0662c45.8852-5.7418,87.747-17.6475,122.8787-34.4605l-4.0693-19.5512"/><path fill="#b7765a" d="M1683.175,1262.7343l-244.8894,80.8045s-90.3535-4.7563-105.8074,1.1867c-15.4539,5.945-35.6659,72.5224-35.6659,80.8446,0,8.3194,72.5223-27.3465,72.5223-27.3465s42.7968,32.1,87.9753,1.1913c0,0,216.3692-3.5658,313.8553-33.2868,0,0,45.1031-104.589,49.8959-231.8129,0,0-21.7615-55.891-131.9272-12.3009l-5.9589,140.72"/><path fill="#b2b2b2" d="M1704.9514,1116.2194c-.1939.0597-.3841.1175-.5743.1753q-6.26595,2.11575-12.9638,4.705l-.0018.0224q7.00155-2.7129,13.5399-4.9027"/><path fill="#dad2c8" d="M1762.446,1105.3755c-15.3067.0009-34.3814,3.0214-58.0689,11.0192.1902-.0578.3804-.1156.5743-.1753,23.4293-7.8607,42.3156-10.8336,57.501-10.8336q3.03735,0,5.8741.1537l.0029-.0092q-2.843-.15255-5.8834-.1548"/><path fill="#7c7c7c" d="M1691.4133,1121.0997c-.2927.1128-.5929.2303-.8875.345l-.0018.0223c.3011-.1174.5882-.2293.8875-.3449l.0018-.0224"/><path fill="#d0c7bb" d="M1689.3614,1121.9015l-.1846.0736-.0009.0224c.0597-.0242.1277-.0503.1874-.0746l-.0019-.0214m1.1644-.4568c-.1874.0727-.3832.15-.5706.2228l-.0046.0242c.1864-.0736.3869-.1511.5734-.2247l.0018-.0223"/><path fill="#b2a092" d="M1689.9552,1121.6675c-.2004.0793-.3924.1547-.5938.234l.0019.0214c.2013-.0792.3859-.1519.5873-.2312l.0046-.0242"/><path fill="#b2b2b2" d="M1794.8163,1296.1517c-12.0576,43.0913-23.6511,69.9764-23.6511,69.9764q-2.33955.7131-4.7647,1.4059l.0103.0027c1.6183-.4624,3.2134-.9332,4.7721-1.4086,0,0,11.5842-26.8861,23.6334-69.9764"/><path fill="#7c7c7c" d="M1766.4005,1367.534l-.0131.0027.0103.0037.0131-.0037-.0103-.0027"/><path fill="#b2a28b" d="M1766.3874,1367.5367c-39.7603,11.3482-97.0311,18.7168-151.4977,23.4731l-.0764.0307c54.4983-4.7591,111.8082-12.1341,151.5844-23.5001l-.0103-.0037"/><path fill="#b2a28b" d="M1455.5694,1400.5747c-14.0825,9.1499-27.877,12.2749-40.1649,12.2749a81.245,81.245,0,0,1-31.6097-6.7076l-.0056.0047a81.29947,81.29947,0,0,0,31.6115,6.7047c12.288,0,26.0899-3.1286,40.1716-12.2758l-.0029-.0009"/><path fill="#6e6f6f" d="M1369.3346,1398.2236s-58.1657,28.6041-70.3139,28.6041a5.84267,5.84267,0,0,1-.7159-.0401,5.70491,5.70491,0,0,0,.7458.0438c12.2059,0,70.3092-28.5789,70.3092-28.5789a75.64624,75.64624,0,0,0,14.4294,7.8942l.0056-.0047a75.68786,75.68786,0,0,1-14.4602-7.9184"/><path fill="#d0c7bb" d="M1614.8897,1391.0098c-81.9632,7.1578-157.5798,8.4051-157.5798,8.4051-.5798.3963-1.1625.7841-1.7405,1.1598l.0029.0009q.8529-.55515,1.7087-1.1392s75.5839-1.2409,157.5323-8.3959l.0764-.0307"/><path fill="#d0c7bb" d="M1768.3294,1105.5303l-.0029.0092c42.408,2.2692,52.7346,28.7757,52.7346,28.7757h0s-10.3005-26.5195-52.7317-28.7849"/><path fill="#a76348" d="M1762.4524,1105.3858c-15.1854,0-34.0717,2.9729-57.501,10.8336q-6.52485,2.18985-13.5399,4.9027c-.2993.1156-.5864.2275-.8875.3449-.1865.0736-.387.1511-.5734.2247-.2014.0793-.386.152-.5873.2312-.0597.0243-.1277.0504-.1874.0746l-.591,14.3482a191.75378,191.75378,0,0,1,35.4598-3.4838c19.1223,0,41.1457,3.3757,57.7892,15.7411l-15.3858,114.1313s-12.1733-7.8905-36.8481-7.8905c-12.3364,0-27.7996,1.9726-46.425,7.8905h0l-28.1529,9.2982c13.2929-1.1271,28.5705-2.0527,42.6866-2.0527,17.6606,0,33.5004,1.4505,41.3462,5.7725,17.7994,9.8379-30.6505,88.6073-151.8902,88.6073-37.1137,0-81.0544-7.3834-131.997-26.3845l-10.9055,3.6377c1.0153,9.6348-1.8617,24.684-27.3923,31.6181a50.86394,50.86394,0,0,1-13.428,1.6836c-26.8003,0-58.5108-17.1617-75.004-27.3866-14.7072,14.0331-31.6182,70.422-31.6182,78.0319,0,.7123.524,1.1056,1.4851,1.2278a5.84267,5.84267,0,0,0,.7159.0401c12.1482,0,70.3139-28.6041,70.3139-28.6041a75.68786,75.68786,0,0,0,14.4602,7.9184h0a81.245,81.245,0,0,0,31.6097,6.7076c12.2879,0,26.0824-3.125,40.1649-12.2749h0c.578-.3757,1.1607-.7635,1.7405-1.1598,0,0,75.6166-1.2473,157.5798-8.4051h0c54.4666-4.7563,111.7374-12.1249,151.4977-23.4731l.0131-.0027q2.4276-.6936,4.7647-1.4059s11.5935-26.8851,23.6511-69.9764c11.7147-41.8971,23.8693-99.1138,26.2448-161.8365,0,0-10.3266-26.5065-52.7346-28.7757q-2.8401-.15225-5.8741-.1537"/><path fill="#ccbfb4" d="M1689.1348,1121.9779a150.77573,150.77573,0,0,1,69.7285-20.543c12.3234-.2526,25.2182,1.0348,36.7054,6.6973a51.1963,51.1963,0,0,1,25.4924,26.184,63.00352,63.00352,0,0,0-28.003-20.0834c-10.7069-3.8958-22.4065-4.7256-33.972-4.3518a213.7167,213.7167,0,0,0-34.9509,4.0414C1712.512,1116.2381,1700.8346,1118.8185,1689.1348,1121.9779Z"/><path fill="#995942" d="M1212.3645,1085.5363c18.8268,14.9542,32.4078,36.3857,39.3045,59.9306a96.91145,96.91145,0,0,1,3.2406,36.5972c-.7841,12.3421-5.7651,23.969-11.5944,34.2666.5594-6.0978,2.6887-11.5477,2.6588-17.4758l.8092-8.5786-.0485-8.5646c-.5258-11.3128-1.7694-22.5743-5.159-33.4266a199.33147,199.33147,0,0,0-12.2069-31.9734A323.72388,323.72388,0,0,0,1212.3645,1085.5363Z"/><polygon fill="#a9aaaa" points="744.43 1099.823 1300.795 1465.971 860.084 1421.587 744.43 1099.823"/><path fill="#dad2c8" d="M1362.0034,979.4222l-65.9416,83.2825c12.9256,22.1819,26.0768,50.855,32.3677,83.1071,1.2398,6.3243,2.2196,12.7867,2.8853,19.3609l41.595-52.245s1.5187,14.5393,4.3088,36.9422l-4.0365-55.2777q.0138,9.1356-.2826,18.3066c-5.7398-25.5883-8.5981-51.5105-10.4001-77.5081-.7701-13.0077-1.2688-26.0469-1.0683-39.1125.0428-5.6102.2125-11.2364.5723-16.856"/><path fill="#c0b1a4" d="M1364.5383,976.2209l-2.5349,3.2013c-.3598,5.6196-.5295,11.2458-.5723,16.856-.2005,13.0656.2982,26.1048,1.0683,39.1125,1.802,25.9976,4.6603,51.9198,10.4001,77.5081q.30915-9.1749.2826-18.3066l-8.6438-118.3713"/><path fill="#955138" d="M1296.0618,1062.7047l-.0028.0037c12.934,22.1912,26.0452,50.8783,32.3705,83.1034-6.2909-32.2521-19.4421-60.9252-32.3677-83.1071"/></svg>