<svg xmlns="http://www.w3.org/2000/svg" viewBox="0 0 4680 3120"><g data-name="1"><rect width="4680" height="3120" fill="#fff" data-name="1" opacity="0"/><path fill="#40947e" d="M3584.89,1478c20.62,75.53,65.7,141.87,94.5,214.67a526.85,526.85,0,0,1,33.12,254.3c-19.56,165.51-117.17,317.33-117.77,484-53.61-117.88-103.86-261.41-114.81-390.46-16.14-190.29-4.25-242.88,105-562.5Z"/><path fill="#275647" d="M3580.65,1496.07c28.27,144.39,77.43,283.27,58.85,432.33-9.59,76.89-26.9,152.64-37.1,229.49a1393.47,1393.47,0,0,0-10.66,244.9c.18,4.24-7,4.58-7.44.34-15.16-153.49,21.84-303.25,44.42-453.88,23.6-157.45-26.58-299.3-50.58-452.74a1.27,1.27,0,0,1,2.51-.44Z"/><path fill="#275647" d="M3587.34,1480.81c-16.19,72.54-7.65,144.28-5.64,217.71,2.15,78.41-8,156.22-15.68,234.08-15.8,160.28-3.06,318.35,24.93,476.57.81,4.53-6.19,5.76-7,1.23-28.92-159.25-41.95-317-25.71-478.44,8.05-80,18.58-160.06,16-240.67-2.3-71.65-9.92-141.58,9.78-211.68.63-2.25,3.84-1,3.35,1.2Z" opacity=".5"/><path fill="#275647" d="M3574.46,1518.46c-27.39,145.57-56.67,292.14-58.23,440.8-1.6,153.23,34.07,300.9,75.26,447.36,1.28,4.54-6.49,7-8,2.48-45.06-140.42-76.17-288.5-75.49-436.46.71-153.7,31.43-305.14,63.71-454.76.33-1.54,3-1,2.71.58Z"/><path fill="#275647" d="M3586.8,1481.6c51.63,155.85,112,299.91,93.91,467.62-17.07,158.47-89.09,306.35-86,467.26.07,3.51-5.91,3.81-6.18.28-11.69-150.78,59.21-292.45,80.57-439.36,12.9-88.68,10.3-174.91-12-261.79-20.3-78.91-50.34-154.92-72.18-233.41-.31-1.1,1.57-1.71,1.93-.6Z"/><path fill="#2e6857" d="M3496.23,2704.38c101-145.72,304.52-357.86,480.44-379.36,50.84-6.22,102.2-6.21,153.42-6.2,33.92,0,105.82,25.63,137.56,37.62-68.23,24-119.16,81.46-183.41,114.65-99.32,51.3-219.08,39.73-326,72.36-98.66,30.11-181.65,96.23-262,160.93Z"/><path fill="#275647" d="M4267.39,2357.26c-76.87-15.35-152.91-20.07-230.41-5.74-63.56,11.75-126.27,36.06-186.17,60.1-140.42,56.36-247.23,175.15-342.65,288-3.27,3.87-8.73-1.89-5.44-5.72,100.49-117.13,211.83-238.23,359.81-293.91,131.28-49.4,266.34-87.62,405.92-46.39,2.4.71,1.32,4.15-1.06,3.67Z"/><path fill="#275647" d="M4268.33,2357.17c-146,21.27-301.66,27.38-437,92-129.94,62.07-234.51,156.38-332,260.37-3.47,3.7-8.94-2-5.44-5.72C3592,2600.58,3699,2506,3828.62,2444.13c135.34-64.57,292.21-73.92,438.89-90.44,2.23-.25,3.13,3.14.82,3.48Z"/><path fill="#275647" d="M4268.86,2357.17c-52.76,31.14-108.66,58.65-166.33,79.44C4037.74,2460,3969,2469.1,3902.39,2486c-151.16,38.5-272.09,112.44-392,210.53-4,3.28-9.58-2.67-5.53-5.81,110.53-85.67,218.16-160,353.92-199.49,66.78-19.44,135.71-29.74,202.56-48.58,72.64-20.48,138-56.67,205.64-89a2,2,0,0,1,1.87,3.48Z" opacity=".5"/><path fill="#275647" d="M4268.74,2356.94c-58.71,30.58-124.05,36.77-188.32,47.83A1040.67,1040.67,0,0,0,3861,2467.9c-135.54,55.77-257.08,139.32-361.34,242-4.09,4-10.25-2.45-6.14-6.46,101.82-99.32,220-181.21,351.08-236.93a1025.72,1025.72,0,0,1,193-60.72c76.55-15.83,158.21-17,229.5-51.91,2-1,3.6,2,1.63,3Z"/><path fill="#6fc183" d="M3977.06,1722.39c-50.95,57.3-48.21,142.4-57.52,218.53-11.45,93.63-45,182.93-79.33,270.79-20,51.23-40.41,102.5-66.87,150.72-28.36,51.69-63.41,99.42-93.08,150.38-32.5,55.85-58.35,115.27-84.12,174.53-54.51-193.23-80.37-359.74,67.94-578.93,32.27-47.69,60.88-99.69,94.31-146.58,22.6-31.7,39.49-68.27,63.85-98.64,46.39-57.86,78.88-98.55,154.82-140.8Z"/><path fill="#275647" d="M3967.7,1733.54c-64.82,56.5-89.87,157.35-114.2,236.87-24.53,80.18-46,161.28-77.35,239.17-60.31,149.69-140.84,292.15-171.14,452.26-1,5.24-8.89,2.86-7.94-2.34,30.85-169.6,118.3-319.12,180.57-477.88,31.64-80.65,53.24-164.36,80.45-246.48,23.06-69.61,48.9-155.61,107.3-204,1.63-1.34,3.93,1,2.31,2.38Z"/><path fill="#275647" d="M3943.16,1758.1c-115.34,123-135.91,294.17-204.36,442.1-34.43,74.41-78.49,143.34-103.81,221.89-26.15,81.14-35.35,165-31.87,250,.22,5.45-8,5.1-8.4-.22a673,673,0,0,1,26.22-239.53c23.79-80.07,67.19-149.73,103.32-224.34,73-150.76,94-329.14,216.94-451.89,1.29-1.28,3.19.7,2,2Z" opacity=".5"/><path fill="#275647" d="M3967.55,1734.13C3912,1775,3865.82,1834.2,3823.77,1888.29c-51.05,65.67-87.84,143.21-124.54,217.53-42.28,85.63-80.2,174.74-98.94,268.81-19.89,99.81-5.37,197.48,4.17,297.46.67,7.06-10.46,6.78-11.08-.29-8.82-101.07-23-199.29-2.85-300,19-94.91,57.92-184.38,101.34-270.39,68.14-135,147-280.63,273.68-370.8,2.15-1.53,4.07,2,2,3.56Z"/><path fill="#275647" d="M3967.85,1733.14c-48.9,64.13-65.47,157.25-78.7,235.33-10.93,64.55-19,127.7-38.9,190.54-27.5,87-66,171-109.36,251.08-46.49,85.85-110,164.68-133.89,260.87-1.42,5.69-9.89,3.09-8.68-2.56,19.22-89.62,77.17-162.64,121.21-241,51.43-91.55,96.7-188.6,126.7-289.43,18.54-62.36,24.73-126,37.1-189.5,14.39-73.86,31.4-159,82.15-217.17,1.13-1.3,3.43.5,2.37,1.88Z" opacity=".5"/><rect width="2040.47" height="1328.69" x="855.68" y="1008.57" fill="#b5cae8" rx="149.57" transform="rotate(-18.2 1882.55 1654.68)"/><path fill="#99b1da" fill-rule="evenodd" d="M957.36,1280.89l-118.45,39.83c-78,26.22-120.31,111.46-94.09,189.44L1073,2486c26.21,78,111.46,120.31,189.43,94.09l271.72-91.37Z" opacity=".5"/><rect width="2040.47" height="177.15" x="908.75" y="1742.17" fill="#99b1da" transform="rotate(-18.59 1928.51 1830.405)"/><path fill="#d1dbed" fill-rule="evenodd" d="M1399.85,1241.87l-113.17,38.05a29,29,0,0,0-18.17,36.58L1306,1427.83a29,29,0,0,0,36.58,18.17l113.17-38a29,29,0,0,0,18.17-36.59L1436.43,1260A29,29,0,0,0,1399.85,1241.87Z"/><path fill="#fff" fill-rule="evenodd" d="M1164.41,1321l-286.54,96.35A29,29,0,0,0,859.69,1454l37.43,111.32a29,29,0,0,0,36.6,18.17l286.54-96.35a29,29,0,0,0,18.17-36.59L1201,1339.21A28.94,28.94,0,0,0,1164.41,1321Z"/><path fill="#d1dbed" fill-rule="evenodd" d="M1002.52,1375.47,877.84,1417.4A29,29,0,0,0,859.69,1454l37.43,111.32a29,29,0,0,0,36.56,18.18l144.89-48.72Z" opacity=".5"/><path fill="#fff" fill-rule="evenodd" d="M2520.47,865l-293.86,98.82a25.09,25.09,0,0,0-15.74,31.69h0a25.1,25.1,0,0,0,31.69,15.74l293.86-98.81a25.1,25.1,0,0,0,15.74-31.69h0A25.1,25.1,0,0,0,2520.47,865Z"/><path fill="#fff" fill-rule="evenodd" d="M2560.37,983.7,2411,1033.92a25.09,25.09,0,0,0-15.74,31.7h0a25.08,25.08,0,0,0,31.68,15.73l149.36-50.23a25.08,25.08,0,0,0,15.75-31.68h0A25.08,25.08,0,0,0,2560.37,983.7Z"/><path fill="#fff" fill-rule="evenodd" d="M1916.4,1200.24,2307,1068.9a25.08,25.08,0,0,1,31.68,15.75h0a25.06,25.06,0,0,1-15.73,31.67l-390.59,131.35a25.09,25.09,0,0,1-31.69-15.74h0A25.08,25.08,0,0,1,1916.4,1200.24Z"/><path fill="#99b1da" fill-rule="evenodd" d="M1686,1584.46l469.09-157.74a25.09,25.09,0,0,1,31.69,15.75h0a25.08,25.08,0,0,1-15.73,31.69L1702,1631.9a25.12,25.12,0,0,1-31.72-15.73h0A25.12,25.12,0,0,1,1686,1584.46Z"/><path fill="#fff" fill-rule="evenodd" d="M1513.28,2161.48l-338.1,113.7a37.4,37.4,0,0,0-23.47,47.23l48.36,143.82a37.42,37.42,0,0,0,47.25,23.49l338.1-113.7a37.41,37.41,0,0,0,23.48-47.26l-48.36-143.82A37.42,37.42,0,0,0,1513.28,2161.48Z"/><path fill="#dfdfdf" fill-rule="evenodd" d="M1396.59,2200.72l-221.41,74.46a37.41,37.41,0,0,0-23.46,47.26l48.35,143.79a37.42,37.42,0,0,0,47.25,23.49l247.53-83.24Z"/><path fill="#fff" fill-rule="evenodd" d="M2837.91,1809.06l-149.36,50.22A25.1,25.1,0,0,0,2672.8,1891h0a25.1,25.1,0,0,0,31.69,15.75l149.36-50.23a25.1,25.1,0,0,0,15.74-31.69h0A25.07,25.07,0,0,0,2837.91,1809.06Z"/><path fill="#fff" fill-rule="evenodd" d="M2068,2067.94l516.5-173.68a25.08,25.08,0,0,1,31.68,15.74h0a25.08,25.08,0,0,1-15.73,31.69L2084,2115.38a25.13,25.13,0,0,1-31.72-15.74h0A25.11,25.11,0,0,1,2068,2067.94Z"/><path fill="#c7c7c7" fill-rule="evenodd" d="M2639.76,1423.23l-258.41,86.89a62.41,62.41,0,0,1-78.82-39.15l-56.2-167.13a62.43,62.43,0,0,1,39.15-78.83l258.4-86.89a62.42,62.42,0,0,1,78.84,39.16l56.2,167.12A62.42,62.42,0,0,1,2639.76,1423.23Z"/><path fill="gray" fill-rule="evenodd" d="M2527.35,1461l-11.66,3.91-22.39-66.58-70,23.53-.16,0-.13,0L2300,1463.37l-3.92-11.68,117.35-39.46L2393,1351.6l-32.15,10.81a6.16,6.16,0,0,1-3.93-11.67l32.15-10.81-18.92-56.25L2299,1307.62A6.16,6.16,0,0,1,2295,1296l71.21-24-22.4-66.62,11.68-3.93,24.32,72.31.05.14,0,.16,22.74,67.64,0,.14.05.16,22.3,66.3,70-23.53.3-.1,75.45-25.37a6.16,6.16,0,0,1,3.93,11.68L2505,1394.44l22.39,66.59Zm-251.69-70,52.32-17.6a6.16,6.16,0,1,0-3.93-11.67l-52.32,17.59,3.93,11.68Zm-22.84-67.93,13.29-4.47a6.16,6.16,0,0,0-3.93-11.68l-13.29,4.47,3.93,11.68Zm209.37-157.55,24.31,72.3.05.15.06.15,22.74,67.64.05.15a6.13,6.13,0,0,0,7.77,3.87l.16,0,134.72-45.3-3.93-11.68-129,43.39L2500.17,1240l16.07-5.4a6.16,6.16,0,1,0-3.93-11.68l-16.06,5.41-22.4-66.62-11.66,3.92Zm163.09,19.31,3.93,11.67-80.1,26.94a6.16,6.16,0,0,1-3.92-11.68l80.09-26.93Zm47.15,140.23,3.93,11.67-68.75,23.12a6.16,6.16,0,1,1-3.92-11.68Z"/><ellipse cx="2367.79" cy="2648.66" fill="#7a8db0" rx="1429.11" ry="111.34"/><path fill="#2e6857" d="M906.82,1687.75c-3.35,78.23-32.6,152.92-44.53,230.3a526.68,526.68,0,0,0,24.11,255.31c55.77,157,184.62,283.4,222.17,445.77,26.13-126.84,43.3-278,25.35-406.21-26.47-189.13-49.72-237.76-227.1-525.17Z"/><path fill="#275647" d="M915,1704.43c4.45,147.06-12.68,293.4,38.5,434.62,26.4,72.84,60.08,142.86,87.07,215.52A1395.1,1395.1,0,0,1,1105.25,2591c.76,4.17,7.86,2.9,7.33-1.32-19.27-153-88.56-290.85-144-432.7-57.93-148.29-40.47-297.74-51.09-452.69a1.27,1.27,0,0,0-2.54.13Z" opacity=".5"/><path fill="#275647" d="M905.05,1691c31.88,67.13,39.46,139,53.79,211,15.3,76.94,42.45,150.55,67.21,224.77,51,152.77,73.59,309.73,81.38,470.22.22,4.59,7.32,4.24,7.12-.36-7.12-161.7-29.4-318.4-81-472.22-25.6-76.25-53.62-151.94-69-231.12-13.65-70.37-21.73-140.26-56.48-204.23-1.12-2-4-.1-3,1.92Z" opacity=".5"/><path fill="#275647" d="M926,1724.89c59,135.86,120.06,272.27,154.54,416.88,35.55,149.05,33.52,301,25.84,452.91-.24,4.71,7.89,5.42,8.31.65,12.79-146.92,10.28-298.22-23.19-442.33-34.78-149.72-98.32-290.56-163-429.29-.66-1.42-3.15-.28-2.52,1.18Z"/><path fill="#275647" d="M905.76,1691.68C890,1855.12,863.1,2009,917.9,2168.49c51.79,150.73,154.81,278.93,187.49,436.52.71,3.44,6.6,2.41,6.09-1.1-22-149.61-122.6-272-176-410.51-32.25-83.61-48.83-168.27-46.31-257.94,2.29-81.45,14.72-162.24,18.61-243.62.06-1.14-1.9-1.31-2-.16Z"/><path fill="#6fc183" d="M1507.36,1819.57c-36.2,116.85-146.93,191.16-227.49,283.18a636,636,0,0,0-145.35,298.15c-12.25,64.29-14.5,130.37-30,193.94,65.75-104,187.73-157.92,269.21-250.06,103.2-116.71,186.3-414.38,133.68-525.21Z"/><path fill="#275647" d="M1506.85,1822.16c17.63,69.31-33.15,141-62.28,200.56-36.25,74-71.23,144.91-121.06,211.09-85.4,113.42-170.11,228.26-221.7,361.81-1.54,4,4.43,7.13,6,3.08,59.84-153.82,167.31-273,258.2-407.74,46.37-68.77,78.8-147.61,113.48-222.66,20.69-44.78,48.78-97,29-146.69a.89.89,0,0,0-1.7.55Z"/><path fill="#275647" d="M1507.44,1825.29c11.89,73.86,3.4,146.76-18.9,217.76-23.6,75.16-56,158.19-98.16,225.28-40,63.71-108.37,109.5-160.05,163.45-48.26,50.37-91.84,104.61-129.65,163.26-3.24,5,5.06,9.22,8.27,4.24,45.3-70.21,99.31-133.55,158.85-192,54.53-53.55,113.37-97.48,148.36-167.12,62-123.34,130.85-275,93.89-415.33-.38-1.45-2.85-1-2.61.48Z"/><path fill="#275647" d="M1506.05,1822c3.9,61.83-46.17,131.7-77.26,181.6-41,65.74-85.38,129.18-128.8,193.28-80.9,119.43-180.4,233.65-194.3,383.65a2.61,2.61,0,0,0,5.11,1.06c12.17-36.55,19.23-74.68,31.29-111.37,16.59-50.48,39.31-88.81,71.55-130.89,44.85-58.56,83.25-122.24,124.79-183.16,45.26-66.37,91.84-132.73,130.52-203.25,19.46-35.5,50.23-89.07,40.33-131.52-.44-1.85-3.35-1.24-3.23.6Z" opacity=".5"/><path fill="#275647" d="M1504.83,1821.29c-12.39,80-74.25,150.89-123.39,211.71-52.15,64.54-106.25,127.29-155.16,194.41-39.3,53.91-62.06,114.48-84.35,176.76-21.59,60.33-39.4,129-40,193.15,0,3.39,4.85,3.42,5.66.42,18.08-67.12,22.71-135.33,47-201.22,11.12-30.12,21.26-61.1,34.73-90.23,20.34-44,50.38-81.62,79.63-119.85,48.1-62.84,100.82-122,148.57-185,40.06-52.9,82.9-111.71,93-178.93.56-3.71-5.16-4.94-5.74-1.19Z" opacity=".5"/><path fill="#40947e" d="M1337.83,2566.55c-173.19,37.83-466.66,54.45-610.06-49.7-41.44-30.09-79-65.1-116.51-100-24.82-23.12-60-90.88-75-121.28,66.27,28.94,142.71,21.57,212.35,41.06,107.63,30.13,187.4,120.21,287.88,169.18,92.72,45.19,198.5,53.35,301.39,60.75Z"/><path fill="#275647" d="M537,2295.13c45.8,63.63,98.24,118.9,164.73,161.22,54.52,34.71,117,59.65,177.19,82.88,141.17,54.43,300.27,40.26,447,22.69,5-.61,5.11,7.33.09,7.89-153.34,17.26-317.32,30-463.56-30-129.74-53.3-254.62-117.36-328.7-242.67-1.27-2.15,1.86-3.93,3.28-2Z"/><path fill="#275647" d="M536.2,2294.56c121.33,83.9,239.44,185.53,382.54,230.44,137.38,43.11,278.16,45.33,420.39,35.68,5.07-.34,5.15,7.59.09,7.9-142.21,8.67-284.9,5.05-421.95-38-143-45-264.22-145-382.83-232.89-1.8-1.33-.15-4.42,1.76-3.1Z"/><path fill="#275647" d="M535.83,2294.2c59.82,13.15,119.48,31.11,175.84,55.19,63.33,27.06,119.9,67.25,180.16,100.21,136.86,74.83,275.74,103.12,430.32,113,5.15.33,5.19,8.48.08,8-139.25-12.6-268.65-31.55-394.93-95.14C865.19,2444.2,807.71,2404.77,746,2373c-67.11-34.51-139.59-52.55-211.13-75a2,2,0,0,1,1-3.82Z" opacity=".5"/><path fill="#275647" d="M535.76,2294.45c63.79,17.63,115.83,57.62,170.41,93.32A1040.46,1040.46,0,0,0,909.78,2491.1c137.2,51.55,283.07,73.2,429.35,69.07,5.73-.16,5.83,8.79.09,8.92-142.19,3.31-284.43-17.25-418.35-65.81a1024.92,1024.92,0,0,1-182.66-87.11c-66.81-40.57-127.38-95.35-203.33-118.4-2.11-.63-1.27-3.91.88-3.32Z"/><path fill="#6fc183" d="M410.14,1827.06c67.63,36.1,94.52,116.89,129.6,185.08,43.14,83.86,105.56,156,168.14,226.54,36.5,41.13,73.39,82.15,114.89,118.22,44.51,38.67,93.91,71.3,139.38,108.83,49.82,41.13,94.64,87.91,139.32,134.57-15.74-200.16-49.12-365.33-264.12-519.56-46.77-33.56-91.61-72.42-139.2-104.82-32.17-21.91-60.68-50.37-94-70.42-63.55-38.2-108.11-65.11-194-78.44Z"/><path fill="#275647" d="M422.78,1834.28c80.36,30.54,138.77,116.47,189.11,182.64,50.77,66.72,98.94,135.37,155.35,197.57,108.39,119.53,233.24,225.26,317.08,365,2.75,4.57,9.33-.4,6.64-4.95-87.64-148.42-221.43-258.38-334.8-385.74-57.59-64.7-106.83-135.74-160.78-203.35-45.72-57.31-99.73-129-171.26-154.17-2-.7-3.35,2.26-1.34,3Z"/><path fill="#275647" d="M454.3,1848.81c150.77,75.42,229.32,228.88,344.73,343.93,58.06,57.88,123.25,107.28,174.19,172.19,52.62,67.06,90.28,142.55,116.42,223.46,1.67,5.19,9.28,2,7.8-3.12a672.92,672.92,0,0,0-107.5-215.62c-50-66.87-114.87-117.18-174.58-174.65-120.67-116.13-202.08-276.21-359.92-348.75-1.65-.76-2.74,1.76-1.14,2.56Z" opacity=".5"/><path fill="#275647" d="M423.13,1834.78c66.24,19.11,130.06,58.62,188.23,94.8,70.63,43.92,132,103.91,192.12,160.91,69.31,65.68,135.73,136.14,185.87,217.9,53.2,86.73,73.38,183.39,99,280.49,1.81,6.85,12.16,2.73,10.29-4.11-26.71-97.87-47.36-194.94-101.17-282.46-50.69-82.45-118.16-152.9-188.66-218.54-110.64-103-235-212.33-385.08-253-2.55-.69-3.12,3.31-.64,4Z"/><path fill="#275647" d="M422.5,1834c68.07,43.22,115.85,124.82,155.28,193.49,32.6,56.77,62.05,113.21,102.44,165.27,55.9,72.06,121.06,137.53,189.5,197.65,73.33,64.43,160.23,116.36,215.9,198.33,3.29,4.85,10.34-.53,7.25-5.4-49-77.43-128.68-125.84-197.13-184.13-79.94-68.07-156-143.42-219-227.62-39-52.07-66.81-109.61-100.4-164.92-39.06-64.29-84.48-138.25-152.23-175.26-1.51-.82-3,1.66-1.57,2.59Z"/><path fill="#5681bf" fill-rule="evenodd" d="M1005.31,863.15V1054a13,13,0,0,0,22.23,9.21l100.64-100.65h410.51a69.41,69.41,0,0,0,69.21-69.21V429.22A69.42,69.42,0,0,0,1538.69,360H1074.52a69.42,69.42,0,0,0-69.21,69.22Z"/><path fill="#99b1da" fill-rule="evenodd" d="M973,863.15V1054a13,13,0,0,0,22.24,9.21L1095.9,962.59h410.49a69.41,69.41,0,0,0,69.22-69.21V429.22A69.42,69.42,0,0,0,1506.39,360H1042.22A69.42,69.42,0,0,0,973,429.22Z"/><path fill="#fff" fill-rule="evenodd" d="M1074.64,433.94H1474a30.27,30.27,0,0,1,30.19,30.18V858.47A30.27,30.27,0,0,1,1474,888.65H1074.64a30.28,30.28,0,0,1-30.2-30.18V464.12A30.28,30.28,0,0,1,1074.64,433.94Z"/><path fill="#243354" fill-rule="evenodd" d="M1078.59,727.63V856.81h129.23V727.63Zm110.78,18.12h0v92.43h-91.86V745.75Z"/><path fill="#b5cae8" fill-rule="evenodd" d="M1079,595.28h128.9V465.68H1079v129.6Zm110.47-111.17h0v91.8H1097v-91.8Z"/><path fill="#b5cae8" fill-rule="evenodd" d="M1470,856.72V727.54H1340.85V856.72Zm-110.81-18.86h0V745.92h92.18v91.94Z"/><path fill="#282828" fill-rule="evenodd" d="M1096.81,688.93v.4h-.41Z"/><path fill="#243354" fill-rule="evenodd" d="M1170.9,688.39v-36h-74.09V670h56.49V706.9h54.56V688.39Z"/><path fill="#243354" fill-rule="evenodd" d="M1097.2,632.23V615.18h111v17.05Z"/><path fill="#282828" fill-rule="evenodd" d="M1096.81,688.93l-.41.4v-.4Z"/><path fill="#243354" fill-rule="evenodd" d="M1078.76,670.7h17.64v36.2h-17.64Z"/><path fill="#243354" fill-rule="evenodd" d="M1207.93,669.36h-17.21v-17h17.21Z"/><path fill="#282828" fill-rule="evenodd" d="M1377,670.25l0,0v.39h.41v-.39h-.41Z"/><path fill="#243354" fill-rule="evenodd" d="M1360.87,651.91h18.32v18.32h-18.32Z"/><path fill="#243354" fill-rule="evenodd" d="M1340.85,615h18.31v36.63h-18.31V615Z"/><path fill="#282828" fill-rule="evenodd" d="M1359.16,596.63h-18.31V578.3h18.31Z"/><path fill="#243354" fill-rule="evenodd" d="M1116,765.07v54.36h54.36V765.07Z"/><path fill="#b5cae8" fill-rule="evenodd" d="M1116.21,502.77v54.36h54.47V502.77Z"/><path fill="#b5cae8" fill-rule="evenodd" d="M1432.3,819.39V765h-54.42v54.36Z"/><path fill="#243354" fill-rule="evenodd" d="M1380.2,670.62h55.56v37h-.06V708h-.39v-.39H1380.2Z"/><rect width="18.17" height="36.82" x="1265.58" y="820.09" fill="#243354"/><rect width="18.18" height="36.82" x="1228.41" y="820.09" fill="#243354"/><path fill="#243354" fill-rule="evenodd" d="M1302.67,856.72V801.5h17.63v55.22Z"/><path fill="#243354" fill-rule="evenodd" d="M1265,726.29h-18.53V708h56.1V690.08h-56.1V671.75h18.77V558.13h.16V540h-36.82v18.18h17.62V632.3h-17.92V765.07h17.3v17.56H1265V801.5h18.17V782.63h37.16v-38.4h-17.76V726.29h-19.4v17.94h19v20.45h-55.69V744.23H1265Z"/><path fill="#243354" fill-rule="evenodd" d="M1265.37,502.79h-36.82V521h36.12V521h.4L1265,521l.08.08V521h.3Z"/><path fill="#243354" fill-rule="evenodd" d="M1228.75,466.24v17.63H1284V466.24Z"/><path fill="#243354" fill-rule="evenodd" d="M1327.58,484.26h13.65v42.38h17.93V484.26h18.74v18.65h18.19V484.26h19v18.65h18.18V484.26h18.9V521.5h17.64V466.28c-49.8,0-99.61-.19-149.4-.19v18.17Z"/><polygon fill="#243354" fill-rule="evenodd" points="1302.84 502.79 1295.66 502.79 1283.95 502.79 1283.95 520.97 1302.84 520.97 1302.84 539.96 1302.84 540.37 1302.84 558.13 1341.23 558.13 1341.23 540.37 1359.16 540.37 1359.16 520.97 1341.23 520.97 1341.23 539.96 1320.77 539.96 1320.77 520.97 1320.77 502.79 1302.84 502.79"/><polygon fill="#243354" fill-rule="evenodd" points="1283.45 651.58 1304.03 651.58 1304.03 632.18 1321.97 632.18 1321.97 651.58 1340.85 651.58 1340.85 669.76 1321.97 669.76 1321.97 689.17 1304.03 689.17 1304.03 669.76 1283.45 669.76 1283.45 651.58"/><path fill="#243354" fill-rule="evenodd" d="M1415.08,521.5v18.87h-19.62V521.63H1377.9v57.13h17.77v18h19.41v-18h-19V558.32h55.69v20.44h-18.52v18h18.52V615h-56.11v17.95h56.11v57.77H1470V557.93h-17.3V540.37h-19.4V521.5Z"/><path fill="#243354" fill-rule="evenodd" d="M1303,580.15h18.3v36.63H1303V580.15Z"/><rect width="1421.44" height="1059.92" x="2076.45" y="1629.23" fill="#2f4171"/><rect width="1421.44" height="37.13" x="2076.45" y="1648.55" fill="#243354" opacity=".5"/><path fill="#3d5891" d="M2099.68,1551.62h1375a96.93,96.93,0,0,1,96.93,96.93v0a0,0,0,0,1,0,0H2002.75a0,0,0,0,1,0,0v0A96.93,96.93,0,0,1,2099.68,1551.62Z"/><path fill="#f3ce90" d="M1121.36,2459.65v.08a4.61,4.61,0,0,0,.13,1.63c.16.63.23,1.33.39,1.95a8,8,0,0,0,.33,1.41,10,10,0,0,0,.6,1.42,1.17,1.17,0,0,0,.17.47,3.1,3.1,0,0,0,.52,1.26c0,.15.08.23.17.39a.58.58,0,0,1,.18.32,24.16,24.16,0,0,0,2.49,3.66,17.64,17.64,0,0,0,2.44,2.88c.27.32.63.65.9,1a7.37,7.37,0,0,0,1.45,1.45,37.75,37.75,0,0,0,4,3.41,24.87,24.87,0,0,0,3.67,2.7c.46.33.82.57,1.19.82a26.81,26.81,0,0,0,3.58,2.38,8.1,8.1,0,0,0,1.48.83c1.1.67,2.21,1.25,3.31,1.91q4,2.37,8.59,4.52c1.66.84,3.51,1.68,5.37,2.45,1.48.68,3,1.36,4.63,2a15.24,15.24,0,0,0,2,.85c3.43,1.37,7,2.75,10.76,4.13l1.49.52c2.6,1,5.29,1.91,8.08,2.87,2,.62,3.9,1.31,6,1.93l2.8.81c2,.7,4.09,1.32,6.23,1.94,1.21.36,2.42.72,3.73,1.08s2.79.8,4.19,1.16c.56.1,1.21.28,1.87.46,1.11.36,2.23.63,3.44,1,3.27.82,6.62,1.72,10.08,2.55.84.19,1.67.46,2.51.64,4.2,1,8.4,2,12.79,3a22.38,22.38,0,0,0,2.24.48l6.45,1.41a.5.5,0,0,1,.37.09c2,.47,4.11.86,6.26,1.33,2.8.57,5.7,1.14,8.69,1.65,1.31.28,2.71.57,4,.77,2.81.5,5.52,1.07,8.42,1.49l1.59.29h.19l.09.08c4.86.88,9.82,1.69,15,2.51l2,.31c3.93.62,7.86,1.23,11.89,1.77,3,.51,6,.93,9.08,1.28,2.72.42,5.53.76,8.35,1.1v.08a23.3,23.3,0,0,0,2.35.24c4.78.65,9.74,1.31,14.81,1.81l5.81.69c4,.46,8.06.93,12.1,1.32,6.84.73,13.7,1.3,20.54,2,4.6.41,9.11.74,13.71,1.07,7.7.69,15.4,1.21,23,1.66s14.94.89,22.37,1.17h.09c3.57.21,7.15.35,10.72.49,4.23.16,8.37.32,12.51.4l.75,0c7.81.22,15.43.36,23.06.5,1.41.05,2.91,0,4.33,0,2.72.11,5.36.05,8.09.08,3.49,0,7,0,10.46,0,5.84,0,11.58,0,17.24-.19,2.16,0,4.33-.07,6.4-.06.76-.05,1.51,0,2.27-.07,3.11-.11,6.22-.23,9.33-.26,3.86-.09,7.73-.25,11.5-.41,4.15-.15,8.3-.3,12.36-.53,4.72-.21,9.34-.49,13.87-.78l6.71-.44,6.61-.45c2.45-.21,4.72-.36,7.08-.5v-.08l1.71-.16,7.27-.65,7.09-.66c2.46-.21,4.82-.43,7.19-.73,1.32-.1,2.64-.21,3.87-.39,2.93-.35,5.77-.71,8.61-1.06a9.85,9.85,0,0,0,1.42-.18c1.42-.1,2.74-.28,4.16-.46l5.49-.72c3.79-.55,7.48-1.1,11.18-1.66,1.61-.25,3.22-.57,4.83-.82l6.83-1.13a.74.74,0,0,0,.38-.06c1.51-.26,3.12-.5,4.64-.83,2.18-.38,4.27-.84,6.36-1.23,1.52-.25,2.94-.58,4.46-.91,2.56-.52,5.13-1,7.6-1.65.09.09.09.09.19,0a9.11,9.11,0,0,0,1.42-.33c.86-.2,1.81-.39,2.57-.6,3.89-.93,7.7-1.87,11.32-2.89s7-2,10.37-3c1.34-.41,2.77-.82,4-1.32,1.53-.48,3-1,4.49-1.53.86-.28,1.62-.63,2.48-1,2-.7,4-1.47,5.93-2.25,1.53-.64,3.06-1.27,4.5-1.92a26,26,0,0,0,3.17-1.58l2.59-1.29c1.54-.8,3-1.67,4.43-2.47a15.18,15.18,0,0,0,2-1.23c1-.66,1.93-1.25,2.8-1.83a29.21,29.21,0,0,0,2.62-1.92,30.05,30.05,0,0,0,2.63-2.22c1.17-1.12,2.25-2.16,3.23-3.28a20.9,20.9,0,0,0,4.21-6.58,14.89,14.89,0,0,0,1.07-3.36,11.17,11.17,0,0,0,.38-2.39v-.23c.5-10.36-9-20.95-26.87-30.93-11.8-6.58-27.19-13-45.79-19-7.17-2.29-14.71-4.44-22.82-6.61-14.07-3.8-29.48-7.33-46.11-10.61q-11.09-2.16-23-4.14c-14.6-2.49-30-4.79-46.26-6.81-7.5-1-15.18-1.9-23-2.67-2.44-.32-4.88-.57-7.41-.83-12.94-1.35-26-2.47-38.95-3.43-4.41-.33-8.92-.65-13.34-.9l-9.67-.61c-15.6-1-31.12-1.58-46.45-1.94-7.81-.22-15.43-.36-23.06-.5-15.81-.15-31.36,0-46.53.37-7.82.17-15.46.42-23.1.74-16.13.7-31.71,1.73-46.64,3.09-7.94.62-15.69,1.41-23.26,2.28-16.74,1.83-32.36,4.09-46.69,6.8q-12.37,2.19-23.35,4.9c-19.2,4.53-35.14,10-47.14,16.08a73.22,73.22,0,0,0-12.83,7.95C1124.87,2446.78,1121.13,2453.22,1121.36,2459.65Z"/><path fill="#f4a07a" d="M1191.06,2462.56a6.58,6.58,0,0,0,.1,1.28c.13.49.18,1,.31,1.54a3.18,3.18,0,0,0,.25,1.1,8.2,8.2,0,0,0,.48,1.12c-.08.12,0,.24.14.37a2.38,2.38,0,0,0,.4,1,2.1,2.1,0,0,1,.28.56,19.06,19.06,0,0,0,2,2.88,13.58,13.58,0,0,0,1.91,2.26,3.36,3.36,0,0,0,.72.76,5.59,5.59,0,0,0,1.14,1.14,30.27,30.27,0,0,0,3.15,2.68,19.12,19.12,0,0,0,2.89,2.13,3.15,3.15,0,0,0,.93.64,22.66,22.66,0,0,0,2.82,1.88,7.14,7.14,0,0,0,1.16.65c.87.52,1.74,1,2.61,1.5q3.15,1.86,6.75,3.55c1.31.66,2.77,1.33,4.23,1.93,1.16.53,2.4,1.07,3.64,1.6a11.8,11.8,0,0,0,1.61.68q7.32,3,16,5.91c1.54.49,3.08,1,4.69,1.52,2.34.76,4.68,1.46,7.1,2.17,1,.28,1.9.56,2.93.84s2.2.63,3.3.92c1.39.42,2.79.78,4.18,1.14,6.3,1.7,13,3.3,20,4.85,2.34.58,4.7,1,7.12,1.55,1.62.37,3.24.67,4.93,1,2.2.46,4.48.91,6.84,1.3l2.2.45c2.5.47,5,.93,7.58,1.33a5.71,5.71,0,0,0,1.4.24l.07.06c9.5,1.65,19.44,3.25,29.83,4.62,2.14.33,4.35.6,6.56.87v.06c.59.08,1.18.16,1.84.19,5.31.69,10.69,1.39,16.23,2,3.17.36,6.34.73,9.52,1,5.83.59,11.66,1.12,17.49,1.65,3.18.31,6.28.55,9.46.73,6,.54,12.11,1,18.1,1.31s11.83.7,17.67.92c2.81.17,5.62.28,8.43.39,3.33.12,6.59.25,9.85.32l.59,0c6.14.17,12.14.28,18.13.39,3.26.07,6.52.07,9.78.07,2.74,0,5.48,0,8.22,0,2.3,0,4.6,0,6.82,0,3.93,0,7.86-.12,11.79-.15.74,0,1.48-.07,2.22,0,2.31-.09,4.6-.19,6.9-.22,3-.07,6.09-.19,9-.32,3.27-.12,6.53-.24,9.73-.42,3.71-.16,7.35-.39,10.91-.62s7.06-.46,10.47-.69c1.94-.17,3.72-.28,5.58-.39v-.07c4.31-.32,8.55-.7,12.64-1.15,1.93-.17,3.79-.35,5.65-.58,1-.08,2.08-.16,3-.31,3.8-.4,7.52-.87,11.17-1.33,4.47-.62,8.86-1.19,13.11-1.88,3.13-.48,6.19-1,9.17-1.53a.55.55,0,0,0,.3,0c1.19-.2,2.46-.39,3.65-.65,5.08-.9,9.86-1.88,14.49-3,.07.07.07.07.15,0a4.93,4.93,0,0,0,1.27-.32c2.17-.46,4.34-1,6.43-1.52,4.42-1.11,8.61-2.29,12.51-3.54,1.05-.32,2.17-.65,3.15-1,1.2-.38,2.4-.76,3.53-1.2,2.33-.82,4.51-1.65,6.62-2.55,1.2-.5,2.41-1,3.54-1.51a20.63,20.63,0,0,0,2.49-1.24l2-1c1.21-.62,2.35-1.31,3.48-1.94.53-.28,1.07-.63,1.6-1,.76-.52,1.52-1,2.2-1.44a24.5,24.5,0,0,0,2.06-1.5c.76-.59,1.45-1.17,2.07-1.75.92-.88,1.77-1.7,2.54-2.59a16.39,16.39,0,0,0,3.31-5.17,12.18,12.18,0,0,0,.85-2.65,8.6,8.6,0,0,0,.29-1.88c.46-8.21-7-16.6-21.14-24.51-9.28-5.18-21.39-10.21-36-14.92-5.64-1.8-11.57-3.49-18-5.2-11.08-3-23.2-5.77-36.28-8.34q-8.71-1.71-18.11-3.26c-11.48-2-23.63-3.77-36.39-5.36-5.9-.78-11.94-1.5-18.07-2.1-1.92-.26-3.84-.45-5.83-.65-10.18-1.06-20.45-2-30.64-2.7-6.06-.48-12.12-.83-18.11-1.19-12.27-.77-24.47-1.25-36.54-1.53-6.14-.17-12.14-.28-18.14-.39-12.44-.11-24.67,0-36.61.3-6.15.12-12.16.32-18.17.58-12.69.54-24.95,1.35-36.7,2.42-6.24.49-12.34,1.11-18.29,1.79-13.17,1.45-25.47,3.23-36.74,5.35q-9.73,1.74-18.37,3.87c-15.1,3.56-27.64,7.83-37.09,12.64a58.06,58.06,0,0,0-10.09,6.26C1193.82,2452.36,1190.89,2457.49,1191.06,2462.56Z"/><path fill="#f19a6d" d="M1116.55,2562.71l0,.85a19.4,19.4,0,0,0,.51,3.9c.09.15,0,.38.08.54s.08.24.08.31a24.57,24.57,0,0,0,1.63,4,.26.26,0,0,1,.09.23,2.46,2.46,0,0,1,.45.56,32.92,32.92,0,0,0,2.13,3.26,2,2,0,0,1,.36.56,2.31,2.31,0,0,0,.45.4,33.28,33.28,0,0,0,3.53,3.85v.08c.19.16.37.25.46.33a41.08,41.08,0,0,0,4,3.48l.55.49.83.49a49.9,49.9,0,0,0,4.76,3.36c.19.17.27.32.55.41,0,.08.1.08.19.09.73.49,1.56,1,2.39,1.48,1.29.83,2.58,1.57,4,2.32a3.48,3.48,0,0,0,.74.42,6.89,6.89,0,0,0,1,.58c2.22,1.17,4.43,2.34,6.83,3.52.28.09.47.25.75.34a.37.37,0,0,0,.28.08c2.86,1.35,5.82,2.71,9,4.07a5.23,5.23,0,0,1,1,.42,10.48,10.48,0,0,1,1,.43c3.43,1.37,7,2.75,10.77,4.13a1.05,1.05,0,0,0,.46.18,8.08,8.08,0,0,0,1,.34q4.32,1.58,8.92,3.14l5,1.58c.18.09.28.09.37.17.84.27,1.77.54,2.61.8q2.93.93,6.14,1.86c1.21.36,2.52.72,3.72,1.08l5,1.35.93.27a13.06,13.06,0,0,0,1.68.45c.56.18,1.21.36,1.86.54,3.26.82,6.62,1.73,10,2.55.93.19,1.77.46,2.61.64,4.2,1,8.4,2,12.79,3l1,.27a6.85,6.85,0,0,1,1.22.2c4.57,1,9.15,2,13.92,2.94,2.62.48,5.23,1,7.85,1.54.84.18,1.68.29,2.53.48,4.11.78,8.32,1.56,12.62,2.27l10.76,1.81,1.4.28c.28,0,.66.11,1,.12,6.74,1.11,13.67,2.15,20.7,3.12,1,.12,2.15.32,3.18.43,3,.43,6.09.86,9.19,1.21,4,.54,8.24,1.09,12.37,1.56a12.08,12.08,0,0,0,1.68.22,21.47,21.47,0,0,0,2.25.24c2.25.24,4.41.48,6.66.8,3.66.37,7.41.83,11.25,1.21,5.91.61,11.92,1.15,17.83,1.69.38,0,.84.11,1.22.13.94.11,2,.15,2.91.26,4.41.33,8.73.73,13.14,1,1.41.13,2.92.19,4.32.32,1,0,2.07.16,3.1.28s1.88.07,2.82.18c4.32.25,8.55.56,12.77.8l.38,0c1.41,0,2.72.18,4.14.24a6.21,6.21,0,0,0,1.21.12c5.27.28,10.53.56,15.7.76.57,0,1.13.12,1.6.14h.19l17.86.68c1.41.06,2.83,0,4.24.09l1.13,0c3.67.07,7.33.21,11,.27l1.6.06c1.51,0,3.11.05,4.71,0,1.88,0,3.86.07,5.74.07,1.69.06,3.3.05,5,.11.75,0,1.6,0,2.45,0,1.41,0,2.82,0,4.14,0,3.49,0,7,0,10.45,0,1.13,0,2.26,0,3.39,0s2.17,0,3.21,0c3.58,0,7.16,0,10.64-.13l4.06-.08c.75,0,1.41,0,2.16,0,.38,0,.66,0,1,0l10.65-.29,4.06-.07a3.13,3.13,0,0,1,.94,0c2.55-.14,5-.2,7.45-.34l9-.35a.65.65,0,0,0,.38-.06,19,19,0,0,0,2.17-.07c4.72-.28,9.34-.49,13.87-.78.57-.06,1.23,0,1.8-.09,1.13-.11,2.17-.15,3.3-.26,4-.23,7.93-.55,11.9-.86,1-.11,2.08-.15,3-.19a8.22,8.22,0,0,1,1.23-.11,3.17,3.17,0,0,1,.85-.12q8.37-.72,16.44-1.46c.1,0,.1-.07.2-.07h.09c1.89-.16,3.78-.39,5.67-.55q6-.7,11.64-1.41a20.23,20.23,0,0,0,2.17-.23c.57,0,1.14-.19,1.71-.24,6.24-.77,12.4-1.62,18.36-2.55a3.93,3.93,0,0,1,1-.12c1.33-.26,2.56-.44,3.89-.7l6.82-1.13c.38-.06.86-.12,1.24-.19,1.23-.18,2.46-.44,3.79-.7,2.18-.38,4.27-.84,6.36-1.23.66-.13,1.23-.18,1.8-.32,1-.19,1.71-.39,2.66-.59,2.56-.52,5.12-1,7.59-1.64.38-.07.76-.13,1-.2,1-.27,2.18-.46,3.13-.73,2.48-.6,5-1.2,7.33-1.88,1.23-.27,2.38-.61,3.52-.88,3.13-.8,6.09-1.7,9-2.6a6.17,6.17,0,0,0,1.14-.34c3.24-1,6.29-2,9.25-3.05.86-.28,1.63-.63,2.49-1,2-.7,4-1.47,5.92-2.25,1-.43,1.92-.85,2.79-1.29s1.72-.7,2.58-1.13l2.3-1.08,2.6-1.29c1.53-.79,3-1.67,4.42-2.47.68-.43,1.35-.8,2-1.23,1.93-1.25,3.77-2.49,5.42-3.75,7.47-5.9,11.19-12,11.52-18.06l4.85-103.91a11.17,11.17,0,0,1-.38,2.39,14.89,14.89,0,0,1-1.07,3.36,25,25,0,0,1-4.21,6.58c-1,1.12-2.06,2.16-3.23,3.28a30.05,30.05,0,0,1-2.63,2.22,29.21,29.21,0,0,1-2.62,1.92c-.87.58-1.83,1.17-2.8,1.83a15.18,15.18,0,0,1-2,1.23c-1.45.8-2.89,1.67-4.43,2.47l-2.59,1.29c-1.06.5-2.11,1-3.17,1.43a16.33,16.33,0,0,1-1.72.78c-.86.44-1.82.86-2.78,1.29-1.91.78-3.92,1.55-5.93,2.25-.86.36-1.62.71-2.48,1-1.44.56-3,1.05-4.49,1.53-1.24.5-2.67.91-4,1.32l-4.28,1.23c-1.91.62-3.91,1.24-6.09,1.78-3.62,1-7.43,2-11.32,2.89-.76.21-1.71.4-2.57.6-.47.06-1,.19-1.42.25v.08c-.1.08-.1.08-.19,0-2.47.61-5,1.13-7.6,1.65-1.52.33-2.94.66-4.46.91-2.09.39-4.18.85-6.36,1.23-1.52.33-3.13.57-4.64.83a.74.74,0,0,1-.38.06l-6.83,1.13c-1.61.25-3.22.57-4.83.82-3.7.56-7.39,1.11-11.18,1.66l-5.49.72c-.94,0-1.79.16-2.74.28l-1.42.18a9.85,9.85,0,0,1-1.42.18c-2.84.35-5.68.71-8.61,1.06-1.23.18-2.55.29-3.87.39-2.37.3-4.73.52-7.19.73l-7.09.66-7.27.65-1.71.16c-1.13,0-2.26.15-3.3.26-1.23.11-2.46.22-3.78.32l-6.61.45-6.71.44c-4.53.29-9.15.57-13.87.78-4.06.23-8.21.38-12.36.53-3.77.16-7.64.32-11.5.41-3.11,0-6.22.15-9.33.26-.76.05-1.51,0-2.27.07-2.07,0-4.24.07-6.4.06-5.66.17-11.4.18-17.24.19-3.49,0-7,0-10.46,0-2.73,0-5.37,0-8.09-.08-1.42,0-2.92,0-4.33,0-7.63-.14-15.25-.28-23.06-.5l-.75,0c-1.5-.06-3,0-4.52-.1l-17.11-.66c-.56,0-1-.11-1.6-.13h-.09c-7.43-.28-14.85-.72-22.37-1.17s-15.31-1-23-1.66c-4.6-.33-9.11-.66-13.71-1.07l-20.54-2c-4-.39-8.07-.86-12.1-1.32l-5.81-.69c-5.07-.5-10-1.16-14.81-1.81l-2.34-.32c-2.82-.34-5.63-.68-8.35-1.1-3.09-.35-6.09-.77-9.08-1.28-4-.54-8-1.15-11.89-1.77l-2-.31-3.37-.59c-3.93-.62-7.76-1.31-11.6-1.92V2529H1281l-1.59-.29c-2.81-.42-5.61-.92-8.42-1.49-1.31-.2-2.71-.49-4-.77l-8.69-1.73c-2.15-.39-4.2-.86-6.26-1.25a.5.5,0,0,0-.37-.09l-6.45-1.41a22.38,22.38,0,0,1-2.24-.48c-4.39-.94-8.59-1.95-12.79-3-.84-.18-1.67-.45-2.51-.64-3.46-.83-6.81-1.73-10.08-2.55-1.21-.36-2.33-.63-3.44-1-.66-.18-1.31-.36-1.87-.46v-.07l-4.19-1.09c-1.31-.36-2.52-.72-3.73-1.08-2.14-.62-4.19-1.24-6.23-1.94l-2.8-.81c-2-.62-4-1.31-6-1.93-2.79-1-5.48-1.91-8.08-2.87l-1.49-.52c-3.71-1.38-7.33-2.76-10.76-4.13a15.24,15.24,0,0,1-2-.85c-1.58-.68-3.15-1.36-4.63-2s-3-1.35-4.35-2a5.23,5.23,0,0,1-1-.42q-4.59-2.16-8.59-4.52c-1.1-.66-2.21-1.24-3.31-1.91a13.49,13.49,0,0,1-1.47-.9c-.56-.33-1.11-.67-1.57-1a5.12,5.12,0,0,1-.73-.5,7.27,7.27,0,0,1-1.29-.82c-.37-.25-.73-.49-1.19-.82-.83-.57-1.56-1.14-2.29-1.72l-1.38-1a37.75,37.75,0,0,1-4-3.41,2.2,2.2,0,0,1-.45-.48,10.32,10.32,0,0,1-1-1c-.27-.31-.63-.64-.9-1a13.77,13.77,0,0,1-1.62-1.92l-.82-1a34.82,34.82,0,0,1-2.13-3.26,1.45,1.45,0,0,0-.36-.4.58.58,0,0,0-.18-.32c-.09-.16-.18-.24-.17-.39a4.68,4.68,0,0,1-.52-1.26,1.17,1.17,0,0,1-.17-.47,10,10,0,0,1-.6-1.42,8,8,0,0,1-.33-1.41c-.16-.62-.23-1.32-.39-1.95a4.61,4.61,0,0,1-.13-1.63Z"/><path fill="#ef7c59" d="M1698.84,2530.45l-4,104c1-.27,2.18-.46,3.13-.73,2.48-.6,5-1.2,7.33-1.88,1.23-.27,2.38-.61,3.52-.88,3.13-.8,6.09-1.7,9-2.6a6.17,6.17,0,0,0,1.14-.34c3.24-1,6.29-2,9.25-3.05.86-.28,1.63-.63,2.49-1,2-.7,4-1.47,5.92-2.25,1-.43,1.92-.85,2.79-1.29s1.72-.7,2.58-1.13l4-103.79a16.33,16.33,0,0,1-1.72.78c-.86.44-1.82.86-2.78,1.29-1.91.78-3.92,1.55-5.93,2.25-.86.36-1.62.71-2.48,1-1.44.56-3,1.05-4.49,1.53-2.58.91-5.43,1.73-8.29,2.55-1.91.62-3.91,1.24-6.09,1.78-3.62,1-7.43,2-11.32,2.89C1701.59,2529.94,1700.17,2530.2,1698.84,2530.45Z"/><path fill="#ef7c59" d="M1628.82,2541.62l-4,104.1q6-.7,11.64-1.41a20.23,20.23,0,0,0,2.17-.23c.57,0,1.14-.19,1.71-.24,6.24-.77,12.4-1.62,18.36-2.55a3.93,3.93,0,0,1,1-.12c1.33-.26,2.56-.44,3.89-.7l6.82-1.13c.38-.06.86-.12,1.24-.19l4-104a.74.74,0,0,1-.38.06l-6.83,1.13c-1.61.25-3.22.57-4.83.82-3.7.56-7.39,1.11-11.18,1.66-2.65.36-5.48.64-8.23,1-1,.12-1.89.32-2.84.36-2.84.35-5.68.71-8.61,1.06C1631.46,2541.41,1630.14,2541.52,1628.82,2541.62Z"/><path fill="#ef7c59" d="M1558.93,2546.6l-4,104.09,9-.35a.65.65,0,0,0,.38-.06,19,19,0,0,0,2.17-.07c4.72-.28,9.34-.49,13.87-.78.57-.06,1.23,0,1.8-.09,1.13-.11,2.17-.15,3.3-.26,4-.23,7.93-.55,11.9-.86,1-.11,2.08-.15,3-.19a8.22,8.22,0,0,1,1.23-.11l4-104.1c-1.13,0-2.26.15-3.3.26l-10.39.77-6.71.44c-4.53.29-9.15.57-13.87.78C1567.23,2546.3,1563.08,2546.45,1558.93,2546.6Z"/><path fill="#ef7c59" d="M1489.31,2547.48l-4,104.1c1.69.06,3.3.05,5,.11.75,0,1.6,0,2.45,0,1.41,0,2.82,0,4.14,0,3.49,0,7,0,10.45,0,1.13,0,2.26,0,3.39,0s2.17,0,3.21,0c3.58,0,7.16,0,10.64-.13l4.06-.08c.75,0,1.41,0,2.16,0,.38,0,.66,0,1,0l4-104.09c-2.07,0-4.24.07-6.4.06-5.66.17-11.4.18-17.24.19-3.49,0-7,0-10.46,0C1497.59,2547.57,1493.45,2547.56,1489.31,2547.48Z"/><path fill="#ef7c59" d="M1419.81,2544.88l-4,104.17.38,0c1.41,0,2.72.18,4.14.24a6.21,6.21,0,0,0,1.21.12c5.27.28,10.53.56,15.7.76.57,0,1.13.12,1.6.14h.19l17.86.68c1.41.06,2.83,0,4.24.09l1.13,0,4-104.17-.47,0c-1.6-.06-3.2,0-4.8-.11l-17.11-.66c-.56,0-1.12-.12-1.69-.14C1434.75,2545.77,1427.33,2545.33,1419.81,2544.88Z"/><path fill="#ef7c59" d="M1350.45,2538.88l-4,104.25c3.66.37,7.41.83,11.25,1.21,5.91.61,11.92,1.15,17.83,1.69.38,0,.84.11,1.22.13.94.11,2,.15,2.91.26,4.41.33,8.73.73,13.14,1l4-104.25c-11.36-.82-22.81-1.88-34.25-3C1358.51,2539.81,1354.48,2539.34,1350.45,2538.88Z"/><path fill="#ef7c59" d="M1281.23,2529.09l-4,104.25,10.76,1.81,1.4.28c.28,0,.66.11,1,.12,6.74,1.11,13.67,2.15,20.7,3.12,1,.12,2.15.32,3.18.43,3,.43,6.09.86,9.19,1.21l4-104.25c-2.82-.34-5.63-.68-8.35-1.1-3.09-.35-6.09-.77-9.08-1.28-4-.54-8-1.15-11.89-1.77l-5.34-.9C1288.9,2530.39,1285.07,2529.7,1281.23,2529.09Z"/><path fill="#ef7c59" d="M1212.22,2513.88l-4,104.33.93.27a13.06,13.06,0,0,0,1.68.45c.56.18,1.21.36,1.86.54,3.26.82,6.62,1.73,10,2.55.93.19,1.77.46,2.61.64,4.2,1,8.4,2,12.79,3l1,.27a6.85,6.85,0,0,1,1.22.2c4.57,1,9.15,2,13.92,2.94l4-104.33c-2.15-.39-4.2-.86-6.26-1.25a.5.5,0,0,0-.37-.09l-6.45-1.41a22.38,22.38,0,0,1-2.24-.48c-4.39-.94-8.59-1.95-12.79-3-.84-.18-1.67-.45-2.51-.64-3.46-.83-6.81-1.73-10.08-2.55-1.21-.36-2.33-.63-3.44-1C1213.43,2514.16,1212.78,2514,1212.22,2513.88Z"/><path fill="#ef7c59" d="M1143.58,2486.77l-4,104.63c1.29.83,2.58,1.57,4,2.32a3.48,3.48,0,0,0,.74.42,6.89,6.89,0,0,0,1,.58c2.22,1.17,4.43,2.34,6.83,3.52.28.09.47.25.75.34a.37.37,0,0,0,.28.08c2.86,1.35,5.82,2.71,9,4.07a5.23,5.23,0,0,1,1,.42,10.48,10.48,0,0,1,1,.43c3.43,1.37,7,2.75,10.77,4.13a1.05,1.05,0,0,0,.46.18,8.08,8.08,0,0,0,1,.34q4.32,1.58,8.92,3.14l4-104.41c-2.79-1-5.48-1.91-8.08-2.87l-1.49-.52c-3.71-1.38-7.33-2.76-10.76-4.13a15.24,15.24,0,0,1-2-.85c-1.58-.68-3.15-1.36-4.63-2s-3-1.35-4.35-2a5.23,5.23,0,0,1-1-.42q-4.59-2.16-8.59-4.52c-1.1-.66-2.21-1.24-3.31-1.91A13.49,13.49,0,0,1,1143.58,2486.77Z"/><path fill="#ce674e" d="M1116.55,2562.71l0,.85a19.4,19.4,0,0,0,.51,3.9c.09.15,0,.38.08.54s.08.24.08.31a24.57,24.57,0,0,0,1.63,4,.26.26,0,0,1,.09.23,2.46,2.46,0,0,1,.45.56,32.92,32.92,0,0,0,2.13,3.26,2,2,0,0,1,.36.56,2.31,2.31,0,0,0,.45.4,33.28,33.28,0,0,0,3.53,3.85v.08c.19.16.37.25.46.33a41.08,41.08,0,0,0,4,3.48l.55.49.83.49a49.9,49.9,0,0,0,4.76,3.36c.19.17.27.32.55.41,0,.08.1.08.19.09.73.49,1.56,1,2.39,1.48,1.29.83,2.58,1.57,4,2.32a3.48,3.48,0,0,0,.74.42,6.89,6.89,0,0,0,1,.58c2.22,1.17,4.43,2.34,6.83,3.52.28.09.47.25.75.34a.37.37,0,0,0,.28.08c2.86,1.35,5.82,2.71,9,4.07a5.23,5.23,0,0,1,1,.42,10.48,10.48,0,0,1,1,.43c3.43,1.37,7,2.75,10.77,4.13a1.05,1.05,0,0,0,.46.18,8.08,8.08,0,0,0,1,.34q4.32,1.58,8.92,3.14l5,1.58c.18.09.28.09.37.17.84.27,1.77.54,2.61.8q2.93.93,6.14,1.86c1.21.36,2.52.72,3.72,1.08l5,1.35.93.27a13.06,13.06,0,0,0,1.68.45c.56.18,1.21.36,1.86.54,3.26.82,6.62,1.73,10,2.55.93.19,1.77.46,2.61.64,4.2,1,8.4,2,12.79,3l1,.27a6.85,6.85,0,0,1,1.22.2c4.57,1,9.15,2,13.92,2.94,2.62.48,5.23,1,7.85,1.54l15.47-5.53,47.17-16.92,23.4-8.4,47.17-16.92,23.4-8.4,47.17-16.92,23.39-8.4,4.4-1.61,47-16.78,138.75-49.8-146.44-58.85-51.38-20.64-9.67-.61c-15.6-1-31.12-1.58-46.45-1.94-7.81-.22-15.43-.36-23.06-.5-15.81-.15-31.36,0-46.53.37-7.82.17-15.46.42-23.1.74-16.13.7-31.71,1.73-46.64,3.09-7.94.62-15.69,1.41-23.26,2.28-16.74,1.83-32.36,4.09-46.69,6.8q-12.37,2.19-23.35,4.9c-19.2,4.53-35.14,10-47.14,16.08a73.22,73.22,0,0,0-12.83,7.95c-8,6.2-11.7,12.64-11.47,19.07v.08Z" opacity=".5"/><path fill="#f3ce90" d="M1042,2331.05v.08a4.61,4.61,0,0,0,.13,1.63c.16.63.23,1.32.4,1.95a7.16,7.16,0,0,0,.32,1.41,10,10,0,0,0,.6,1.42,10.15,10.15,0,0,0,.86,2.12.58.58,0,0,1,.18.32,24.67,24.67,0,0,0,2.5,3.65,16.72,16.72,0,0,0,2.43,2.89,8.79,8.79,0,0,1,.9,1,7.65,7.65,0,0,0,1.45,1.45,40.37,40.37,0,0,0,4,3.41,23.54,23.54,0,0,0,3.66,2.69l1.19.83a27.81,27.81,0,0,0,3.58,2.38,8.1,8.1,0,0,0,1.48.83c1.1.66,2.21,1.25,3.31,1.91q4,2.36,8.59,4.51c1.66.84,3.51,1.69,5.37,2.46,1.48.67,3,1.35,4.63,2a14,14,0,0,0,2,.86c3.43,1.37,7,2.75,10.76,4.13l1.49.52q3.9,1.43,8.08,2.87c2,.61,3.91,1.31,6,1.93l2.8.8c2,.7,4.09,1.32,6.23,1.95,1.21.35,2.42.71,3.73,1.07s2.79.81,4.19,1.17c.56.1,1.21.28,1.87.46,1.11.35,2.23.63,3.44,1,3.27.83,6.62,1.73,10.08,2.56.84.19,1.67.45,2.51.64,4.2,1,8.4,2,12.79,3a22.32,22.32,0,0,0,2.24.47l6.45,1.41c.19,0,.28,0,.37.1,2.06.46,4.11.85,6.26,1.32,2.8.57,5.7,1.15,8.7,1.65,1.3.29,2.7.57,4,.78,2.8.49,5.51,1.06,8.41,1.48l1.59.3h.19l.09.09c4.86.88,9.82,1.69,15,2.51l2,.31c3.93.61,7.86,1.23,11.89,1.77,3,.5,6,.93,9.09,1.28,2.71.41,5.52.75,8.34,1.1v.07a20.66,20.66,0,0,0,2.35.25c4.78.65,9.74,1.3,14.81,1.81l5.81.69c4,.46,8.06.93,12.1,1.31,5.72.53,11.44,1.14,17.17,1.59,1.69.22,3.38.37,5.07.51,4,.39,8,.69,12,.93,7.7.68,15.4,1.21,23,1.66,2.35.16,4.7.26,7,.42,5.17.28,10.34.55,15.42.75h.1c3.57.22,7.14.35,10.71.49,4.23.17,8.37.32,12.51.41l.75,0c7.81.22,15.43.36,23.06.5,4.14.08,8.28.08,12.42.09,3.49,0,7,0,10.46,0,5.84,0,11.58,0,17.24-.19,2.17,0,4.33-.06,6.41-.06.75-.05,1.5,0,2.26-.07,3.11-.11,6.22-.22,9.33-.26,3.87-.08,7.73-.24,11.51-.41,4.14-.15,8.29-.3,12.35-.53,4.72-.2,9.35-.49,13.88-.78l6.7-.44a.65.65,0,0,0,.38-.06c2.07-.08,4.15-.23,6.23-.38,2.46-.22,4.72-.36,7.08-.5v-.08l1.71-.17,7.27-.65,7.09-.65c2.46-.22,4.82-.44,7.19-.73,1.32-.11,2.64-.21,3.87-.4,2.94-.35,5.77-.7,8.61-1.06a8.49,8.49,0,0,0,1.42-.18c1.42-.1,2.74-.28,4.16-.45l4.17-.54,1.32-.18c3.79-.55,7.48-1.11,11.18-1.66,1.61-.25,3.22-.58,4.83-.82l6.83-1.14a.58.58,0,0,0,.38-.06c1.51-.25,3.12-.5,4.64-.83,2.18-.38,4.27-.84,6.36-1.22,1.52-.25,2.94-.59,4.46-.92,2.56-.52,5.13-1,7.6-1.64.09.08.09.08.19,0a9.15,9.15,0,0,0,1.42-.34c.86-.19,1.81-.39,2.57-.59,3.9-.94,7.7-1.88,11.32-2.9s7-2,10.38-3c1.33-.42,2.67-.91,4-1.32,1.53-.49,3-1,4.49-1.53.86-.28,1.62-.64,2.48-1,2-.7,4-1.47,5.93-2.25,1.53-.64,3.06-1.28,4.5-1.92a27.54,27.54,0,0,0,3.17-1.58l2.59-1.3c1.54-.79,3-1.66,4.43-2.46a14.29,14.29,0,0,0,2-1.24c1-.66,1.93-1.24,2.8-1.83a29.19,29.19,0,0,0,2.62-1.91,32.21,32.21,0,0,0,2.63-2.22c1.17-1.12,2.25-2.16,3.23-3.29s1.69-2.18,2.48-3.23V2368a18.05,18.05,0,0,0,1.73-3.26,16.17,16.17,0,0,0,1.07-3.37,11,11,0,0,0,.38-2.39v-.23c.5-10.36-9-20.95-26.87-30.93-11.8-6.57-27.19-13-45.79-19-7.16-2.29-14.71-4.44-22.82-6.61-14.07-3.79-29.48-7.33-46.11-10.6q-11.09-2.17-23-4.14c-14.6-2.5-30.05-4.8-46.26-6.82-7.5-1-15.18-1.9-23-2.66-2.44-.33-4.88-.58-7.41-.83-12.94-1.35-26-2.47-39-3.44-7.7-.6-15.4-1.05-23-1.5-9.21-.59-18.42-1-27.54-1.37-6.3-.24-12.7-.41-18.91-.57-7.81-.23-15.43-.37-23-.51-15.82-.14-31.37,0-46.54.38-7.82.16-15.46.41-23.1.74-16.13.69-31.71,1.72-46.64,3.08-7.94.63-15.69,1.41-23.26,2.28-16.74,1.84-32.36,4.1-46.69,6.8q-12.37,2.19-23.35,4.91c-19.2,4.53-35.13,10-47.14,16.08a73.59,73.59,0,0,0-12.83,7.94C1045.53,2318.17,1041.79,2324.61,1042,2331.05Z"/><path fill="#f4a07a" d="M1111.75,2334a6.62,6.62,0,0,0,.1,1.29c.13.49.18,1,.31,1.53a3.23,3.23,0,0,0,.25,1.11,7.6,7.6,0,0,0,.48,1.11c-.08.12,0,.24.13.37a2.4,2.4,0,0,0,.41,1,1.91,1.91,0,0,1,.27.56,18.87,18.87,0,0,0,2,2.88,13.62,13.62,0,0,0,1.91,2.27,3.77,3.77,0,0,0,.71.76,6.47,6.47,0,0,0,1.14,1.14,32.84,32.84,0,0,0,3.16,2.68,19.5,19.5,0,0,0,2.88,2.12,3.14,3.14,0,0,0,.94.64,21,21,0,0,0,2.82,1.88,5.9,5.9,0,0,0,1.16.65c.87.53,1.74,1,2.61,1.51q3.15,1.86,6.75,3.55c1.31.66,2.77,1.32,4.23,1.93,1.16.53,2.4,1.06,3.64,1.6a12.19,12.19,0,0,0,1.6.67q7.33,3,16,5.92c1.54.48,3.07,1,4.69,1.52,2.34.76,4.68,1.46,7.1,2.16l2.93.85c1.1.34,2.2.63,3.3.91,1.39.42,2.78.78,4.18,1.14,6.3,1.71,13,3.3,20,4.85,2.35.58,4.7,1,7.13,1.56,1.62.36,3.23.67,4.92,1,2.21.45,4.49.9,6.85,1.3l2.2.45c2.5.46,5,.92,7.58,1.33a5.25,5.25,0,0,0,1.4.23l.07.07c9.5,1.64,19.44,3.24,29.83,4.62,2.14.33,4.35.59,6.56.86v.06a17,17,0,0,0,1.84.2c5.31.69,10.69,1.38,16.23,2,3.17.37,6.34.73,9.52,1,5.83.59,11.66,1.12,17.49,1.65,3.17.3,6.28.54,9.46.72,6,.54,12.11,1,18.1,1.31s11.83.7,17.67.93c2.81.17,5.62.27,8.43.38,3.33.13,6.59.25,9.84.32l.6,0c6.14.18,12.14.29,18.13.4,3.26.06,6.52.06,9.78.07,2.74,0,5.48,0,8.22,0,2.3,0,4.6,0,6.82,0,3.93,0,7.86-.13,11.79-.16.74,0,1.48-.06,2.22,0,2.3-.1,4.6-.19,6.9-.23,3-.06,6.08-.19,9-.32,3.27-.11,6.53-.23,9.72-.42,3.71-.16,7.35-.38,10.92-.61l10.47-.69c1.93-.17,3.72-.29,5.57-.4v-.06c4.31-.32,8.55-.71,12.64-1.16,1.93-.17,3.79-.34,5.65-.57,1-.08,2.08-.17,3-.31,3.79-.4,7.52-.87,11.16-1.34,4.47-.62,8.87-1.18,13.12-1.87,3.13-.49,6.18-1,9.17-1.54a.47.47,0,0,0,.3-.05c1.19-.19,2.46-.39,3.65-.65,5.07-.9,9.85-1.87,14.49-3,.07.06.07.06.15,0a5,5,0,0,0,1.27-.31c2.17-.47,4.33-1,6.43-1.52,4.41-1.11,8.61-2.29,12.51-3.54,1-.33,2.17-.65,3.15-1,1.2-.38,2.4-.76,3.53-1.2,2.33-.83,4.51-1.66,6.62-2.55,1.2-.51,2.41-1,3.54-1.51a20.65,20.65,0,0,0,2.49-1.25l2-1c1.21-.63,2.35-1.32,3.48-1.94.53-.29,1.06-.63,1.6-1,.76-.52,1.52-1,2.2-1.44a23.91,23.91,0,0,0,2.06-1.5,25,25,0,0,0,2.07-1.75c.92-.88,1.77-1.7,2.54-2.58a16.42,16.42,0,0,0,3.31-5.18,11.55,11.55,0,0,0,.84-2.64,8.15,8.15,0,0,0,.3-1.88c.46-8.21-7-16.6-21.14-24.52-9.28-5.17-21.39-10.21-36-14.91-5.64-1.8-11.58-3.5-18-5.2-11.07-3-23.19-5.77-36.28-8.35q-8.72-1.71-18.1-3.25-17.22-3-36.39-5.37c-5.9-.77-12-1.49-18.07-2.09-1.92-.26-3.84-.46-5.83-.65-10.18-1.07-20.45-1.95-30.64-2.71-6.06-.48-12.12-.83-18.11-1.18-12.27-.78-24.48-1.25-36.54-1.53-6.15-.18-12.14-.29-18.14-.4-12.44-.11-24.67,0-36.61.3-6.16.13-12.17.32-18.18.58q-19,.82-36.69,2.43c-6.24.49-12.34,1.1-18.3,1.79-13.16,1.44-25.46,3.22-36.73,5.35q-9.74,1.73-18.37,3.86c-15.11,3.56-27.64,7.83-37.09,12.65a57.46,57.46,0,0,0-10.09,6.25C1114.51,2323.76,1111.58,2328.89,1111.75,2334Z"/><path fill="#f19a6d" d="M1037.21,2434.11l0,.85a19.31,19.31,0,0,0,.51,3.89c.09.16,0,.39.08.55s.08.23.08.31a24.47,24.47,0,0,0,1.63,4,.27.27,0,0,1,.09.24,2.46,2.46,0,0,1,.45.56,32.82,32.82,0,0,0,2.13,3.25,2.11,2.11,0,0,1,.36.56c.18.16.27.32.45.41a35.08,35.08,0,0,0,3.53,3.85v.08c.19.16.37.24.46.32a39.83,39.83,0,0,0,4,3.49l.55.48.83.5a50.62,50.62,0,0,0,4.77,3.36,1.41,1.41,0,0,0,.54.41c0,.08.1.08.19.08.73.5,1.56,1,2.39,1.49,1.29.82,2.58,1.57,4,2.32a3.48,3.48,0,0,0,.74.42,7.46,7.46,0,0,0,1,.58c2.22,1.17,4.43,2.34,6.84,3.51.28.09.46.25.74.34a.38.38,0,0,0,.28.09c2.86,1.35,5.83,2.7,9,4.06a5.28,5.28,0,0,1,1,.43,10.48,10.48,0,0,1,1,.43c3.43,1.37,7,2.74,10.77,4.13a1.17,1.17,0,0,0,.46.17,8.92,8.92,0,0,0,1,.35q4.32,1.56,8.93,3.13l5,1.59a1.29,1.29,0,0,1,.37.17c.84.26,1.77.53,2.61.8q2.92.91,6.14,1.86c1.21.36,2.52.72,3.73,1.07l5,1.36.93.27a14.92,14.92,0,0,0,1.68.45c.56.17,1.21.35,1.86.53,3.27.83,6.62,1.73,10,2.56.93.19,1.77.45,2.61.64,4.2,1,8.4,2,12.79,3l1,.27a9.47,9.47,0,0,1,1.21.2c4.58,1,9.15,2,13.92,2.94,2.62.49,5.23,1.06,7.85,1.54.84.19,1.69.3,2.53.49,4.11.78,8.32,1.56,12.62,2.27,3.56.6,7.11,1.2,10.76,1.8l1.4.29c.29,0,.66.1,1,.12,6.73,1.11,13.66,2.15,20.69,3.12,1,.11,2.15.31,3.18.43,3,.43,6.09.85,9.19,1.21,4,.54,8.24,1.09,12.37,1.56a13.8,13.8,0,0,0,1.68.22c.75.1,1.5.21,2.25.24,2.26.24,4.41.48,6.66.8,3.66.37,7.41.82,11.25,1.2,5.91.62,11.92,1.16,17.83,1.7.38,0,.85.11,1.22.12.94.11,2,.16,2.91.27,4.41.32,8.73.72,13.14,1,1.41.13,2.92.19,4.32.32,1,0,2.07.16,3.1.27s1.88.07,2.82.19c4.32.24,8.55.56,12.78.8h.37c1.41.06,2.73.19,4.14.24a6.23,6.23,0,0,0,1.22.12c5.26.29,10.52.57,15.69.77.57,0,1.13.12,1.6.13h.19l17.86.69c1.41,0,2.83,0,4.24.08l1.13.05c3.67.06,7.33.2,11,.27l1.59.06c1.51,0,3.11,0,4.71,0,1.88,0,3.86.07,5.74.06,1.7.07,3.3.05,5,.12.75,0,1.6,0,2.45,0,1.41,0,2.82,0,4.14,0,3.49,0,7,0,10.45,0,1.14,0,2.26,0,3.4,0s2.16,0,3.2,0c3.58,0,7.16,0,10.65-.14l4-.07c.75,0,1.41,0,2.16,0,.38,0,.67-.05,1,0l10.65-.29,4.06-.08a4,4,0,0,1,.94,0c2.55-.13,5-.19,7.45-.33l9-.35a.74.74,0,0,0,.38-.06,18.88,18.88,0,0,0,2.17-.08c4.72-.28,9.34-.49,13.87-.78.57-.05,1.23,0,1.8-.08,1.13-.12,2.17-.15,3.3-.26,4-.24,7.93-.55,11.9-.86,1-.12,2.08-.15,3-.2a7.07,7.07,0,0,1,1.23-.1,3.19,3.19,0,0,1,.85-.13q8.37-.72,16.44-1.45c.1,0,.1-.08.2-.07h.09c1.89-.16,3.78-.4,5.67-.56,4-.46,7.85-.93,11.64-1.41.75,0,1.42-.1,2.17-.22.57-.06,1.14-.19,1.71-.25,6.24-.76,12.4-1.61,18.37-2.54a3.79,3.79,0,0,1,.94-.12c1.33-.26,2.56-.45,3.89-.7l6.82-1.14,1.24-.18c1.23-.18,2.46-.45,3.79-.71,2.18-.38,4.27-.84,6.36-1.22.66-.13,1.23-.19,1.8-.32,1-.2,1.71-.4,2.66-.59,2.56-.53,5.12-1.05,7.59-1.65.38-.06.76-.12,1-.19,1-.27,2.18-.46,3.14-.73,2.47-.6,4.94-1.21,7.32-1.89,1.23-.26,2.38-.6,3.52-.87,3.14-.81,6.09-1.7,9-2.6a6.17,6.17,0,0,0,1.14-.34c3.24-1,6.29-2,9.25-3.05.86-.28,1.63-.64,2.49-1,2-.7,4-1.47,5.93-2.25,1-.43,1.91-.86,2.78-1.29s1.72-.71,2.58-1.14l2.3-1.07,2.6-1.3c1.53-.79,3-1.66,4.42-2.46.68-.44,1.35-.8,2-1.24,1.93-1.24,3.77-2.49,5.42-3.74,7.48-5.91,11.19-12,11.52-18.07l4.85-103.91a11,11,0,0,1-.38,2.39,16.17,16.17,0,0,1-1.07,3.37,18.05,18.05,0,0,1-1.73,3.26v.08c-.79,1-1.59,2.18-2.48,3.23s-2.06,2.17-3.23,3.29a32.21,32.21,0,0,1-2.63,2.22,29.19,29.19,0,0,1-2.62,1.91c-.87.59-1.83,1.17-2.8,1.83a14.29,14.29,0,0,1-2,1.24c-1.45.8-2.89,1.67-4.43,2.46l-2.59,1.3c-1.06.5-2.11,1-3.16,1.42a17.58,17.58,0,0,1-1.73.79c-.86.43-1.82.86-2.78,1.29-1.91.78-3.92,1.55-5.93,2.25-.86.35-1.62.71-2.48,1-1.44.56-3,1-4.49,1.53-1.33.41-2.67.9-4,1.32l-4.29,1.22c-1.91.63-3.91,1.25-6.09,1.78-3.62,1-7.42,2-11.32,2.9-.76.2-1.71.4-2.57.59-.47.06-1,.2-1.42.26v.08c-.1.07-.1.07-.19,0-2.47.6-5,1.12-7.6,1.64-1.52.33-2.94.67-4.46.92-2.09.38-4.18.84-6.36,1.22-1.52.33-3.13.58-4.64.83a.58.58,0,0,1-.38.06l-6.83,1.14c-1.61.24-3.22.57-4.83.82-3.7.55-7.39,1.11-11.18,1.66l-1.32.18c-2.27.3-4.64.52-6.91.82l-1.42.17a8.49,8.49,0,0,1-1.42.18c-2.84.36-5.67.71-8.61,1.06-1.23.19-2.55.29-3.87.4-2.37.29-4.73.51-7.19.73l-7.09.65-7.27.65-1.71.17c-1.13,0-2.26.15-3.3.26-3.31.26-6.71.52-10,.7a.65.65,0,0,1-.38.06l-6.7.44c-4.53.29-9.16.58-13.88.78-4.06.23-8.21.38-12.35.53-3.78.17-7.64.33-11.51.41-3.11,0-6.22.15-9.33.26-.76.05-1.51,0-2.26.07-2.08,0-4.24.07-6.41.06-5.66.17-11.4.19-17.24.19-3.49,0-7,0-10.46,0-4.14,0-8.28,0-12.42-.09-7.63-.14-15.25-.28-23.06-.5l-.75,0c-1.5-.06-3,0-4.51-.1l-17.12-.66c-.56,0-1-.12-1.59-.14h-.1c-5.08-.2-10.25-.47-15.42-.75-2.25-.16-4.6-.26-7-.42-7.61-.45-15.31-1-23-1.66-5.63-.38-11.36-.91-17.08-1.44s-11.45-1.06-17.17-1.59c-4-.38-8.07-.85-12.1-1.31l-5.81-.69c-5.07-.51-10-1.16-14.81-1.81l-2.34-.32c-2.82-.35-5.63-.69-8.34-1.1-3.1-.35-6.09-.78-9.09-1.28-4-.54-8-1.16-11.89-1.77l-2-.31-3.37-.6c-3.93-.61-7.76-1.3-11.6-1.91v-.08h-.28l-1.59-.3q-4.21-.63-8.41-1.48c-1.32-.21-2.72-.49-4-.78l-8.7-1.73c-2.15-.39-4.2-.86-6.26-1.24-.09-.09-.18-.09-.37-.1l-6.45-1.41a22.32,22.32,0,0,1-2.24-.47c-4.39-.94-8.59-2-12.79-3-.84-.19-1.67-.45-2.51-.64-3.46-.83-6.81-1.73-10.08-2.56-1.21-.35-2.33-.63-3.44-1-.66-.18-1.31-.36-1.87-.46v-.08l-4.2-1.09c-1.31-.36-2.52-.72-3.73-1.07-2.14-.63-4.19-1.25-6.23-1.95l-2.8-.8c-2-.62-4-1.32-6-1.93q-4.18-1.44-8.08-2.87l-1.49-.52c-3.71-1.38-7.33-2.76-10.76-4.13a14,14,0,0,1-2-.86c-1.58-.68-3.15-1.36-4.63-2s-3-1.36-4.35-2a5.55,5.55,0,0,1-1-.43q-4.58-2.14-8.59-4.51c-1.1-.66-2.21-1.25-3.31-1.91a13.61,13.61,0,0,1-1.47-.91c-.56-.33-1.11-.66-1.57-1a5.13,5.13,0,0,1-.73-.49,13.19,13.19,0,0,1-1.29-.82l-1.19-.83c-.83-.57-1.56-1.14-2.29-1.71l-1.37-1a40.37,40.37,0,0,1-4-3.41,2.2,2.2,0,0,1-.45-.48c-.36-.33-.63-.65-1-1a8.79,8.79,0,0,0-.9-1,15,15,0,0,1-1.62-1.92l-.81-1a31.82,31.82,0,0,1-2.14-3.25,1.45,1.45,0,0,0-.36-.4.58.58,0,0,0-.18-.32,10.15,10.15,0,0,1-.86-2.12,10,10,0,0,1-.6-1.42,7.16,7.16,0,0,1-.32-1.41c-.17-.63-.24-1.32-.4-1.95a4.61,4.61,0,0,1-.13-1.63Z"/><path fill="#ef7c59" d="M1619.5,2401.85l-4,104c1-.27,2.18-.46,3.14-.73,2.47-.6,4.94-1.21,7.32-1.89,1.23-.26,2.38-.6,3.52-.87,3.14-.81,6.09-1.7,9-2.6a6.17,6.17,0,0,0,1.14-.34c3.24-1,6.29-2,9.25-3.05.86-.28,1.63-.64,2.49-1,2-.7,4-1.47,5.93-2.25,1-.43,1.91-.86,2.78-1.29s1.72-.71,2.58-1.14l4-103.79a17.58,17.58,0,0,1-1.73.79c-.86.43-1.82.86-2.78,1.29-1.91.78-3.92,1.55-5.93,2.25-.86.35-1.62.71-2.48,1-1.44.56-3,1-4.49,1.53-1.33.41-2.67.9-4,1.32l-4.29,1.22c-1.91.63-3.91,1.25-6.09,1.78-3.62,1-7.42,2-11.32,2.9-.76.2-1.71.4-2.57.59C1620.45,2401.65,1620,2401.79,1619.5,2401.85Z"/><path fill="#ef7c59" d="M1549.5,2413l-4,104.09q6-.69,11.64-1.41c.75,0,1.41-.1,2.17-.22.57-.06,1.14-.19,1.71-.25,6.24-.76,12.4-1.61,18.36-2.54a3.93,3.93,0,0,1,.95-.12c1.33-.26,2.56-.45,3.89-.7l6.82-1.14,1.23-.18,4-104a.61.61,0,0,1-.37.06l-6.83,1.13c-1.61.25-3.22.58-4.83.83-3.7.55-7.39,1.11-11.18,1.66-2.65.36-5.49.64-8.23,1-.95.11-1.9.31-2.84.35-2.84.36-5.68.71-8.61,1.06C1552.15,2412.81,1550.83,2412.91,1549.5,2413Z"/><path fill="#ef7c59" d="M1479.62,2418l-4,104.1,9-.35a.66.66,0,0,0,.38-.07,16.92,16.92,0,0,0,2.17-.07c4.72-.28,9.34-.49,13.87-.78.57-.06,1.23,0,1.79-.09,1.14-.11,2.18-.14,3.31-.26,4-.23,7.93-.54,11.9-.85,1-.12,2.08-.16,3-.2a7,7,0,0,1,1.23-.1l4-104.1c-1.13,0-2.26.14-3.3.26-3.41.26-7,.5-10.39.76l-6.71.44c-4.53.29-9.15.58-13.87.78C1487.92,2417.69,1483.77,2417.84,1479.62,2418Z"/><path fill="#ef7c59" d="M1410,2418.88,1406,2523c1.69.07,3.3.05,5,.12.75,0,1.6,0,2.45,0,1.41,0,2.82,0,4.14,0,3.48,0,7,0,10.45,0,1.13,0,2.26,0,3.39,0s2.17,0,3.21,0c3.58,0,7.15,0,10.64-.14l4-.07c.76,0,1.42,0,2.17,0,.38,0,.66-.05,1,0l4-104.1c-2.07,0-4.24.07-6.4.06-5.66.17-11.4.18-17.25.19-3.48,0-7,0-10.45,0C1418.28,2419,1414.13,2419,1410,2418.88Z"/><path fill="#ef7c59" d="M1340.5,2416.28l-4,104.17h.38c1.41.06,2.72.19,4.13.24a7.33,7.33,0,0,0,1.22.13c5.27.28,10.53.56,15.7.75.57,0,1.13.13,1.6.14h.19l17.86.69c1.41,0,2.83,0,4.24.08l1.13.05,4-104.18h-.47c-1.6-.07-3.2-.05-4.8-.11l-17.11-.66c-.57,0-1.13-.12-1.69-.14C1355.44,2417.16,1348,2416.72,1340.5,2416.28Z"/><path fill="#ef7c59" d="M1271.14,2410.27l-4,104.25c3.66.38,7.41.83,11.25,1.21,5.91.62,11.92,1.16,17.83,1.7.38,0,.84.11,1.22.12.94.12,2,.15,2.91.27,4.41.32,8.73.72,13.14,1l4-104.25c-11.36-.83-22.81-1.89-34.26-3C1279.2,2411.2,1275.17,2410.74,1271.14,2410.27Z"/><path fill="#ef7c59" d="M1201.92,2400.48l-4,104.25c3.55.61,7.11,1.21,10.76,1.81l1.4.29c.28,0,.66.1,1,.12,6.74,1.11,13.67,2.15,20.7,3.12,1,.11,2.15.31,3.18.43,3,.42,6.09.85,9.18,1.2l4-104.25c-2.81-.34-5.62-.68-8.34-1.09-3.09-.35-6.09-.78-9.08-1.28-4-.54-8-1.16-11.9-1.78l-5.33-.9C1209.59,2401.79,1205.76,2401.1,1201.92,2400.48Z"/><path fill="#ef7c59" d="M1132.91,2385.28l-4,104.33.93.27a14.76,14.76,0,0,0,1.67.45c.56.17,1.22.35,1.87.53,3.26.83,6.62,1.73,10,2.56.93.19,1.77.45,2.61.64,4.2,1,8.4,2,12.79,3l1,.27a9.32,9.32,0,0,1,1.22.2c4.57,1,9.15,2,13.92,2.94l4-104.33c-4.49-.87-8.78-1.81-13.08-2.75a22.32,22.32,0,0,1-2.24-.47c-4.39-.94-8.59-2-12.79-3-.84-.19-1.68-.45-2.52-.64-3.45-.83-6.8-1.73-10.07-2.56-1.21-.35-2.33-.63-3.45-1C1134.12,2385.56,1133.47,2385.38,1132.91,2385.28Z"/><path fill="#ef7c59" d="M1064.26,2358.16l-4,104.64c1.29.82,2.58,1.57,4,2.32a3.48,3.48,0,0,0,.74.42,6.89,6.89,0,0,0,1,.58c2.21,1.17,4.43,2.34,6.83,3.51.28.09.47.25.75.34a.37.37,0,0,0,.27.09c2.87,1.35,5.83,2.7,9,4.06a5.28,5.28,0,0,1,1,.43c.28.09.65.26,1,.42,3.43,1.38,7,2.75,10.77,4.14a1.17,1.17,0,0,0,.46.17,8.3,8.3,0,0,0,1,.35q4.32,1.56,8.92,3.13l4-104.4q-4.18-1.44-8.08-2.87l-1.49-.52c-3.71-1.39-7.33-2.76-10.77-4.13a15.67,15.67,0,0,1-2-.86c-1.58-.68-3.15-1.36-4.63-2s-3-1.35-4.35-2a5.28,5.28,0,0,1-1-.43q-4.59-2.14-8.59-4.51c-1.1-.66-2.21-1.25-3.31-1.91A13.72,13.72,0,0,1,1064.26,2358.16Z"/><path fill="#ce674e" d="M1261.67,2383.81l33.13,12.74,52.62,20.15,39,14.9,22.73,8.78,45.85,17.56,22.73,8.7,45.85,17.57,22.83,8.77,45.85,17.57c1.23-.18,2.46-.45,3.79-.71,2.18-.38,4.27-.84,6.36-1.22.66-.13,1.23-.19,1.8-.32,1-.2,1.71-.4,2.66-.59,2.56-.53,5.12-1.05,7.59-1.65.38-.06.76-.12,1-.19,1-.27,2.18-.46,3.14-.73,2.47-.6,4.94-1.21,7.32-1.89,1.23-.26,2.38-.6,3.52-.87,3.14-.81,6.09-1.7,9-2.6a6.17,6.17,0,0,0,1.14-.34c3.24-1,6.29-2,9.25-3.05.86-.28,1.63-.64,2.49-1,2-.7,4-1.47,5.93-2.25,1-.43,1.91-.86,2.78-1.29s1.72-.71,2.58-1.14l2.3-1.07,2.6-1.3c1.53-.79,3-1.66,4.42-2.46.68-.44,1.35-.8,2-1.24,1.93-1.24,3.77-2.49,5.42-3.74,7.48-5.91,11.19-12,11.52-18.07l4.85-103.91v-.23c.5-10.36-9-20.95-26.87-30.93-11.8-6.57-27.19-13-45.79-19-7.16-2.29-14.71-4.44-22.82-6.61-14.07-3.79-29.48-7.33-46.11-10.6q-11.09-2.17-23-4.14c-14.6-2.5-30.05-4.8-46.26-6.82-7.5-1-15.18-1.9-23-2.66-2.44-.33-4.88-.58-7.41-.83-12.94-1.35-26-2.47-39-3.44-7.7-.6-15.4-1.05-23-1.5-9.21-.59-18.42-1-27.54-1.37l-14,15.26Z" opacity=".5"/><path fill="#f3ce90" d="M1130.79,2214.49v.08a4.61,4.61,0,0,0,.13,1.63c.16.62.23,1.32.4,2a7.33,7.33,0,0,0,.32,1.41,9.46,9.46,0,0,0,.6,1.41,1.07,1.07,0,0,0,.17.47,3,3,0,0,0,.52,1.26c0,.16.08.24.17.4a.59.59,0,0,1,.18.31,24.16,24.16,0,0,0,2.49,3.66,16.84,16.84,0,0,0,2.44,2.88c.27.32.63.65.9,1a7.65,7.65,0,0,0,1.45,1.45,40.24,40.24,0,0,0,4,3.41,24.13,24.13,0,0,0,3.67,2.69c.46.33.82.58,1.19.82a26.86,26.86,0,0,0,3.58,2.39,8.74,8.74,0,0,0,1.48.83c1.1.66,2.21,1.25,3.31,1.91q4,2.35,8.59,4.51c1.66.84,3.51,1.69,5.37,2.45,1.48.68,3,1.36,4.63,2a14,14,0,0,0,2,.85c3.43,1.37,7,2.75,10.76,4.14l1.49.52q3.9,1.43,8.08,2.87c2,.61,3.9,1.31,6,1.93l2.8.8c2,.7,4.09,1.32,6.23,1.95,1.21.35,2.42.71,3.73,1.07s2.79.81,4.19,1.17c.56.1,1.21.28,1.87.46,1.11.35,2.23.63,3.44,1,3.27.82,6.62,1.73,10.08,2.56.84.19,1.67.45,2.51.64,4.2,1,8.4,2,12.79,3a22.32,22.32,0,0,0,2.24.47l6.45,1.41c.18,0,.28,0,.37.09,2,.47,4.11.86,6.26,1.33,2.8.57,5.7,1.15,8.69,1.65,1.31.28,2.71.57,4,.78,2.81.49,5.52,1.06,8.42,1.48l1.59.3h.19l.09.08c4.86.89,9.82,1.7,15,2.52l2,.3c3.93.62,7.86,1.24,11.89,1.78,3,.5,6,.93,9.08,1.28,2.72.41,5.53.75,8.35,1.09v.08a23.21,23.21,0,0,0,2.35.25c4.78.64,9.74,1.3,14.81,1.81l5.81.68c4,.47,8.06.93,12.1,1.32,6.84.73,13.7,1.3,20.54,1.95,4.6.41,9.11.74,13.71,1.07,7.7.69,15.4,1.22,23,1.67s14.94.88,22.37,1.17h.09c3.57.22,7.15.35,10.72.49,4.23.16,8.37.32,12.51.4l.75,0c7.81.23,15.43.37,23.06.5,1.41.06,2.91,0,4.33,0,2.72.1,5.36.05,8.09.08,3.49,0,7,0,10.46,0,5.84,0,11.58,0,17.24-.19,2.16,0,4.33-.06,6.4-.06.76-.05,1.51,0,2.27-.07,3.11-.11,6.22-.22,9.33-.26,3.86-.08,7.73-.24,11.5-.41,4.15-.15,8.3-.3,12.36-.53,4.72-.2,9.34-.49,13.87-.78l6.71-.44,6.61-.44c2.45-.22,4.72-.36,7.08-.5v-.08l1.71-.17,7.27-.65,7.09-.65c2.46-.22,4.82-.44,7.19-.73,1.32-.11,2.64-.21,3.87-.4,2.94-.35,5.77-.7,8.61-1.06a8.62,8.62,0,0,0,1.42-.18c1.42-.1,2.74-.28,4.16-.46,1.9-.23,3.69-.47,5.49-.71L1673,2292c1.61-.25,3.22-.58,4.83-.83l6.83-1.13a.65.65,0,0,0,.38-.06c1.51-.25,3.12-.5,4.64-.83,2.18-.38,4.27-.84,6.36-1.22,1.52-.26,2.94-.59,4.46-.92,2.56-.52,5.13-1,7.6-1.64.09.08.09.08.19,0a9.15,9.15,0,0,0,1.42-.34c.86-.2,1.81-.39,2.57-.59,3.89-.94,7.7-1.88,11.32-2.9s7-2,10.37-3c1.34-.41,2.77-.82,4-1.31,1.53-.49,3-1,4.49-1.54.86-.27,1.62-.63,2.48-1,2-.7,4-1.48,5.93-2.25,1.53-.64,3.06-1.28,4.5-1.92a27.54,27.54,0,0,0,3.17-1.58l2.59-1.3c1.54-.79,3-1.67,4.43-2.46a14.29,14.29,0,0,0,2-1.24c1-.66,1.93-1.24,2.8-1.83a29.19,29.19,0,0,0,2.62-1.91,34,34,0,0,0,2.63-2.22c1.17-1.12,2.25-2.16,3.23-3.29a21,21,0,0,0,4.21-6.57,15.12,15.12,0,0,0,1.07-3.37,11,11,0,0,0,.38-2.39v-.23c.5-10.36-9-20.95-26.87-30.93-11.8-6.57-27.19-13-45.79-19-7.17-2.29-14.71-4.44-22.82-6.61-14.07-3.79-29.48-7.33-46.11-10.6q-11.09-2.17-23-4.14c-14.6-2.5-30.05-4.8-46.26-6.82-7.5-1-15.18-1.9-23-2.66-2.44-.33-4.88-.58-7.41-.83-12.94-1.35-26-2.47-39-3.44-4.41-.32-8.92-.65-13.34-.9l-9.67-.6c-15.6-1-31.12-1.59-46.45-2-7.81-.22-15.43-.36-23.06-.5-15.81-.14-31.36,0-46.53.38-7.82.16-15.46.41-23.1.74-16.13.69-31.71,1.72-46.64,3.08-7.94.62-15.69,1.41-23.26,2.28-16.74,1.83-32.36,4.1-46.69,6.8q-12.37,2.19-23.35,4.91c-19.2,4.53-35.13,10-47.14,16.07a73.6,73.6,0,0,0-12.83,7.95C1134.3,2201.61,1130.56,2208.05,1130.79,2214.49Z"/><path fill="#f4a07a" d="M1200.49,2217.39a6.46,6.46,0,0,0,.1,1.28c.13.5.18,1,.31,1.54a3,3,0,0,0,.26,1.11,6.59,6.59,0,0,0,.47,1.11c-.08.12,0,.24.14.37a2.38,2.38,0,0,0,.4,1,2.25,2.25,0,0,1,.28.56,18.1,18.1,0,0,0,2,2.88,13.62,13.62,0,0,0,1.91,2.27,3.58,3.58,0,0,0,.72.76,6.14,6.14,0,0,0,1.14,1.14,31.54,31.54,0,0,0,3.15,2.68,19.08,19.08,0,0,0,2.89,2.12,3,3,0,0,0,.93.64,21.6,21.6,0,0,0,2.82,1.88,6.46,6.46,0,0,0,1.16.65c.87.52,1.74,1,2.61,1.51,2.1,1.23,4.35,2.42,6.76,3.55,1.3.66,2.76,1.32,4.22,1.93,1.16.53,2.4,1.06,3.64,1.6a11.78,11.78,0,0,0,1.61.67q7.32,3,16,5.92c1.54.48,3.08,1,4.69,1.52,2.34.76,4.68,1.46,7.1,2.16,1,.28,1.9.56,2.93.84s2.2.64,3.3.92c1.39.42,2.79.78,4.18,1.14,6.31,1.71,13,3.3,20,4.85,2.34.58,4.7,1,7.12,1.56,1.62.36,3.24.67,4.93,1,2.2.45,4.48.9,6.84,1.3l2.2.45c2.5.46,5,.92,7.58,1.33a5.25,5.25,0,0,0,1.4.23l.07.07c9.5,1.64,19.44,3.24,29.83,4.62,2.14.32,4.35.59,6.56.86v.06a17.06,17.06,0,0,0,1.84.19c5.31.7,10.69,1.39,16.23,2,3.17.37,6.34.73,9.52,1,5.83.59,11.66,1.12,17.49,1.64,3.18.31,6.28.55,9.46.73,6,.54,12.11,1,18.1,1.31s11.83.7,17.67.92c2.81.17,5.62.28,8.43.39,3.33.13,6.59.25,9.85.32l.59,0c6.14.18,12.14.29,18.13.39,3.26.07,6.52.07,9.78.08,2.74,0,5.48,0,8.23,0,2.29,0,4.59,0,6.81,0,3.93,0,7.86-.13,11.79-.16.74,0,1.48-.06,2.22,0,2.31-.1,4.6-.19,6.9-.23,3-.06,6.09-.19,9-.32,3.27-.12,6.53-.23,9.72-.42,3.72-.16,7.36-.38,10.92-.61l10.47-.69c1.94-.17,3.72-.29,5.58-.4v-.06c4.31-.32,8.55-.71,12.64-1.16,1.93-.17,3.79-.34,5.65-.57,1-.09,2.08-.17,3-.31,3.8-.41,7.52-.87,11.17-1.34,4.47-.62,8.86-1.18,13.11-1.87,3.13-.49,6.19-1,9.17-1.54a.47.47,0,0,0,.3-.05c1.19-.19,2.46-.39,3.65-.65,5.08-.9,9.86-1.87,14.49-3,.07.06.07.06.15,0a4.91,4.91,0,0,0,1.27-.31c2.17-.47,4.34-1,6.43-1.52,4.42-1.11,8.61-2.29,12.51-3.54,1-.33,2.17-.65,3.15-1,1.2-.38,2.4-.76,3.53-1.21,2.33-.82,4.51-1.65,6.62-2.54,1.2-.51,2.41-1,3.54-1.51a20.65,20.65,0,0,0,2.49-1.25l2-1c1.21-.62,2.35-1.31,3.48-1.93.53-.29,1.07-.63,1.6-1,.76-.52,1.52-1,2.2-1.44a22.45,22.45,0,0,0,2.06-1.5,25,25,0,0,0,2.07-1.75c.92-.88,1.77-1.7,2.54-2.58a16.54,16.54,0,0,0,3.31-5.18,12,12,0,0,0,.85-2.65,8.51,8.51,0,0,0,.29-1.87c.46-8.21-7-16.6-21.14-24.52-9.28-5.17-21.39-10.21-36-14.91-5.64-1.81-11.57-3.5-18-5.2-11.08-3-23.2-5.77-36.28-8.35q-8.72-1.71-18.11-3.26c-11.48-2-23.63-3.77-36.39-5.36-5.9-.77-11.94-1.49-18.07-2.09-1.92-.26-3.84-.46-5.83-.66-10.18-1.06-20.45-1.94-30.64-2.7-6.06-.48-12.12-.83-18.11-1.18-12.27-.78-24.47-1.25-36.54-1.53-6.14-.18-12.14-.29-18.14-.4-12.44-.11-24.67,0-36.61.3-6.15.13-12.16.32-18.17.58-12.69.55-25,1.35-36.7,2.43-6.24.49-12.34,1.1-18.29,1.79-13.17,1.44-25.47,3.22-36.74,5.35q-9.73,1.72-18.37,3.86c-15.1,3.56-27.64,7.83-37.09,12.65a57.46,57.46,0,0,0-10.09,6.25C1203.25,2207.2,1200.32,2212.33,1200.49,2217.39Z"/><path fill="#f19a6d" d="M1126,2317.55l0,.85a19.31,19.31,0,0,0,.51,3.89c.09.16,0,.39.07.54s.09.24.09.32a24.47,24.47,0,0,0,1.63,4,.27.27,0,0,1,.09.24,2.46,2.46,0,0,1,.45.56,32.82,32.82,0,0,0,2.13,3.25,2,2,0,0,1,.36.56c.18.16.27.32.45.4a33.33,33.33,0,0,0,3.53,3.86v.07a5.21,5.21,0,0,0,.45.33,39.83,39.83,0,0,0,4,3.49l.55.48.83.5a53.77,53.77,0,0,0,4.76,3.36c.19.16.28.32.55.41,0,.07.1.08.19.08.73.49,1.56,1,2.39,1.49,1.29.82,2.58,1.57,4,2.32a3.42,3.42,0,0,0,.74.41,6.16,6.16,0,0,0,1,.59c2.22,1.17,4.43,2.34,6.83,3.51.28.09.47.25.75.34a.38.38,0,0,0,.28.09c2.86,1.35,5.82,2.7,9,4.06a5.28,5.28,0,0,1,1,.43c.28.09.65.26,1,.42,3.43,1.38,7,2.75,10.77,4.14a1.17,1.17,0,0,0,.46.17,8.3,8.3,0,0,0,1,.35q4.32,1.56,8.92,3.13l5,1.59a1.44,1.44,0,0,1,.37.17l2.61.79q2.92.93,6.14,1.87c1.21.35,2.52.71,3.72,1.07l5,1.36.93.26a13.12,13.12,0,0,0,1.68.46c.56.17,1.21.35,1.86.53,3.27.83,6.62,1.73,10,2.56.93.19,1.77.45,2.61.64,4.2,1,8.4,2,12.79,3l1,.27a9.32,9.32,0,0,1,1.22.2c4.57,1,9.15,2,13.92,2.94,2.62.49,5.23,1,7.85,1.54.84.19,1.68.3,2.52.49,4.12.77,8.33,1.56,12.63,2.26,3.56.61,7.11,1.21,10.76,1.81l1.4.29c.28,0,.66.1,1,.12,6.74,1.11,13.67,2.15,20.7,3.12,1,.11,2.15.31,3.18.43,3,.42,6.09.85,9.19,1.2,4,.55,8.24,1.1,12.37,1.57a16.1,16.1,0,0,0,1.68.22c.75.1,1.5.21,2.25.24,2.25.24,4.41.48,6.66.79,3.66.38,7.41.83,11.25,1.21,5.91.62,11.92,1.16,17.83,1.7.38,0,.84.11,1.22.12.94.11,2,.15,2.91.27,4.41.32,8.73.72,13.14,1,1.41.13,2.92.18,4.32.32,1,0,2.07.15,3.1.27s1.88.07,2.82.19c4.32.24,8.55.56,12.77.8h.38c1.41.06,2.72.18,4.14.24a6.21,6.21,0,0,0,1.21.12c5.27.28,10.53.57,15.7.76.57,0,1.13.12,1.6.14h.19l17.86.69c1.41,0,2.83,0,4.24.08l1.13,0c3.67.06,7.33.2,11,.27l1.6.06c1.51,0,3.11,0,4.71,0,1.88,0,3.86.08,5.74.07,1.69.07,3.3.05,5,.11.75,0,1.6,0,2.45,0,1.41,0,2.82,0,4.14,0,3.49,0,7,0,10.45,0,1.13,0,2.26,0,3.39,0s2.17,0,3.21,0c3.58,0,7.16,0,10.64-.14l4.06-.07c.75,0,1.41,0,2.16,0,.38,0,.66-.05,1,0l10.65-.29,4.06-.08a4,4,0,0,1,.94,0c2.55-.13,5-.19,7.45-.33l9-.35a.66.66,0,0,0,.38-.07,19,19,0,0,0,2.17-.07c4.72-.28,9.34-.49,13.87-.78.57-.06,1.23,0,1.8-.09,1.13-.11,2.17-.14,3.3-.26,4-.23,7.93-.54,11.9-.85,1-.12,2.08-.16,3-.2a8.22,8.22,0,0,1,1.23-.11,3.63,3.63,0,0,1,.85-.12q8.37-.72,16.44-1.46c.1,0,.1-.07.2-.07h.09c1.89-.16,3.78-.4,5.67-.56q6-.71,11.64-1.41a20,20,0,0,0,2.17-.23c.57,0,1.14-.18,1.71-.24,6.24-.77,12.4-1.61,18.36-2.54a3.93,3.93,0,0,1,1-.12c1.33-.26,2.56-.45,3.89-.71l6.82-1.13,1.24-.18c1.23-.19,2.46-.45,3.79-.71,2.18-.38,4.27-.84,6.36-1.22.66-.13,1.23-.19,1.8-.32,1-.2,1.71-.4,2.66-.6,2.56-.52,5.12-1,7.59-1.64l1-.19c1-.27,2.18-.46,3.13-.73,2.48-.61,4.95-1.21,7.33-1.89,1.23-.26,2.38-.61,3.52-.87,3.14-.81,6.09-1.7,9-2.6a6.17,6.17,0,0,0,1.14-.34c3.24-1,6.29-2,9.25-3.06.86-.27,1.63-.63,2.49-1,2-.7,4-1.48,5.93-2.25,1-.43,1.91-.86,2.78-1.29s1.72-.71,2.58-1.14l2.3-1.07,2.6-1.3c1.53-.79,3-1.67,4.42-2.46.68-.44,1.35-.8,2-1.24,1.93-1.24,3.77-2.49,5.42-3.74,7.47-5.91,11.19-12,11.52-18.07l4.85-103.91a11,11,0,0,1-.38,2.39,15.12,15.12,0,0,1-1.07,3.37,24.81,24.81,0,0,1-4.21,6.57c-1,1.13-2.06,2.17-3.23,3.29a34,34,0,0,1-2.63,2.22,29.19,29.19,0,0,1-2.62,1.91c-.87.59-1.83,1.17-2.8,1.83a14.29,14.29,0,0,1-2,1.24c-1.45.79-2.89,1.67-4.43,2.46l-2.59,1.3c-1.06.5-2.11,1-3.17,1.42a16.44,16.44,0,0,1-1.72.79c-.86.43-1.82.86-2.78,1.29-1.91.77-3.92,1.55-5.93,2.25-.86.35-1.62.71-2.48,1-1.44.57-3,1.05-4.49,1.54-1.24.49-2.67.9-4,1.31l-4.28,1.23c-1.91.63-3.91,1.25-6.09,1.78-3.62,1-7.43,2-11.32,2.9-.76.2-1.71.39-2.57.59-.47.06-1,.2-1.42.26v.08c-.1.07-.1.07-.19,0-2.47.6-5,1.12-7.6,1.64-1.52.33-2.94.66-4.46.92-2.09.38-4.18.84-6.36,1.22-1.52.33-3.13.58-4.64.83a.65.65,0,0,1-.38.06l-6.83,1.13c-1.61.25-3.22.58-4.83.83l-11.18,1.66c-1.8.24-3.59.48-5.49.71-.94,0-1.79.17-2.74.29l-1.42.17a8.62,8.62,0,0,1-1.42.18c-2.84.36-5.67.71-8.61,1.06-1.23.19-2.55.29-3.87.4-2.37.29-4.73.51-7.19.73l-7.09.65-7.27.65-1.71.17c-1.13,0-2.26.14-3.3.26l-3.78.32-6.61.44-6.71.44c-4.53.29-9.15.58-13.87.78-4.06.23-8.21.38-12.36.53-3.77.17-7.64.33-11.5.41-3.11,0-6.22.15-9.33.26-.76.05-1.51,0-2.27.07-2.07,0-4.24.07-6.4.06-5.66.17-11.4.18-17.24.19-3.49,0-7,0-10.46,0-2.73,0-5.37,0-8.09-.08-1.42,0-2.92,0-4.33,0-7.63-.13-15.25-.27-23.06-.5l-.75,0c-1.5-.05-3,0-4.52-.09l-17.11-.66c-.56,0-1-.12-1.6-.14h-.09c-7.43-.29-14.85-.73-22.37-1.17s-15.31-1-23-1.67c-4.6-.33-9.11-.66-13.71-1.07L1372,2295c-4-.39-8.07-.85-12.1-1.32l-5.81-.68c-5.07-.51-10-1.17-14.81-1.81l-2.34-.33c-2.82-.34-5.63-.68-8.35-1.09-3.09-.35-6.09-.78-9.08-1.28-4-.54-8-1.16-11.89-1.78l-2-.3-3.37-.6c-3.93-.61-7.76-1.3-11.6-1.92v-.07h-.28l-1.59-.3c-2.81-.42-5.61-.91-8.42-1.48-1.31-.21-2.71-.5-4-.78l-8.69-1.73c-2.15-.39-4.2-.86-6.26-1.25-.09-.08-.19-.08-.37-.09l-6.45-1.41a22.32,22.32,0,0,1-2.24-.47c-4.39-.95-8.59-2-12.79-3-.84-.19-1.67-.45-2.51-.64-3.46-.83-6.81-1.74-10.08-2.56-1.21-.35-2.33-.63-3.44-1-.66-.18-1.31-.36-1.87-.46v-.08l-4.19-1.09c-1.31-.36-2.52-.72-3.73-1.07-2.14-.63-4.19-1.25-6.23-1.95l-2.8-.8c-2-.62-4-1.32-6-1.93q-4.18-1.44-8.08-2.87l-1.49-.52c-3.71-1.39-7.33-2.77-10.76-4.14a14,14,0,0,1-2-.85c-1.58-.68-3.15-1.36-4.63-2s-3-1.35-4.35-2a5.28,5.28,0,0,1-1-.43q-4.58-2.14-8.59-4.51c-1.1-.66-2.21-1.25-3.31-1.91a13.61,13.61,0,0,1-1.47-.91c-.56-.33-1.11-.66-1.57-1a5.13,5.13,0,0,1-.73-.49,6.78,6.78,0,0,1-1.29-.83c-.37-.24-.73-.49-1.19-.82-.83-.57-1.56-1.14-2.29-1.71l-1.38-1a40.24,40.24,0,0,1-4-3.41,2.2,2.2,0,0,1-.45-.48,11.65,11.65,0,0,1-1-1c-.27-.32-.63-.65-.9-1a13.77,13.77,0,0,1-1.62-1.92l-.82-1a33.56,33.56,0,0,1-2.13-3.26,1.79,1.79,0,0,0-.36-.4.59.59,0,0,0-.18-.31c-.09-.16-.18-.24-.17-.4a4.56,4.56,0,0,1-.52-1.26,1.07,1.07,0,0,1-.17-.47,9.46,9.46,0,0,1-.6-1.41,7.33,7.33,0,0,1-.32-1.41c-.17-.63-.24-1.33-.4-2a4.61,4.61,0,0,1-.13-1.63Z"/><path fill="#b4b4b4" d="M1708.27,2285.29l-4,104c1-.27,2.18-.46,3.13-.73,2.48-.61,4.95-1.21,7.33-1.89,1.23-.26,2.38-.61,3.52-.87,3.14-.81,6.09-1.7,9-2.6a6.17,6.17,0,0,0,1.14-.34c3.24-1,6.29-2,9.25-3.06.86-.27,1.63-.63,2.49-1,2-.7,4-1.48,5.93-2.25,1-.43,1.91-.86,2.78-1.29s1.72-.71,2.58-1.14l4-103.79a16.44,16.44,0,0,1-1.72.79c-.86.43-1.82.86-2.78,1.29-1.91.77-3.92,1.55-5.93,2.25-.86.35-1.62.71-2.48,1-1.44.57-3,1.05-4.49,1.54-2.57.9-5.43,1.72-8.29,2.54-1.91.63-3.91,1.25-6.09,1.78-3.62,1-7.43,2-11.32,2.9C1711,2284.77,1709.6,2285,1708.27,2285.29Z"/><path fill="#ef7c59" d="M1638.25,2296.46l-4,104.09q6-.71,11.64-1.41a20,20,0,0,0,2.17-.23c.57,0,1.14-.18,1.71-.24,6.24-.77,12.4-1.61,18.36-2.54a3.93,3.93,0,0,1,1-.12c1.33-.26,2.56-.45,3.89-.71l6.82-1.13,1.24-.18,4-104a.65.65,0,0,1-.38.06l-6.83,1.13c-1.61.25-3.22.58-4.83.83l-11.18,1.66c-2.65.36-5.48.64-8.23,1-1,.11-1.89.31-2.84.35-2.84.36-5.67.71-8.61,1.06C1640.89,2296.25,1639.57,2296.35,1638.25,2296.46Z"/><path fill="#ef7c59" d="M1568.36,2301.43l-4,104.1,9-.35a.66.66,0,0,0,.38-.07,19,19,0,0,0,2.17-.07c4.72-.28,9.34-.49,13.87-.78.57-.06,1.23,0,1.8-.09,1.13-.11,2.17-.14,3.3-.26,4-.23,7.93-.54,11.9-.85,1-.12,2.08-.16,3-.2a8.22,8.22,0,0,1,1.23-.11l4-104.09c-1.13,0-2.26.14-3.3.26-3.4.26-7,.5-10.39.76l-6.71.44c-4.53.29-9.15.58-13.87.78C1576.66,2301.13,1572.51,2301.28,1568.36,2301.43Z"/><path fill="#ef7c59" d="M1498.74,2302.31l-4,104.1c1.69.07,3.3.05,5,.11.75,0,1.6,0,2.45,0,1.41,0,2.82,0,4.14,0,3.49,0,7,0,10.45,0,1.13,0,2.26,0,3.39,0s2.17,0,3.21,0c3.58,0,7.16,0,10.64-.14l4.06-.07c.75,0,1.41,0,2.16,0,.38,0,.66-.05,1,0l4-104.1c-2.07,0-4.24.07-6.4.06-5.66.17-11.4.18-17.24.19-3.49,0-7,0-10.46,0C1507,2302.4,1502.88,2302.4,1498.74,2302.31Z"/><path fill="#ef7c59" d="M1429.24,2299.72l-4,104.17h.38c1.41.06,2.72.18,4.14.24a6.21,6.21,0,0,0,1.21.12c5.27.28,10.53.57,15.7.76.57,0,1.13.12,1.6.14h.19l17.86.69c1.41,0,2.83,0,4.24.08l1.13,0,4-104.18h-.47c-1.6-.07-3.2-.05-4.8-.11l-17.11-.66c-.56,0-1.12-.12-1.69-.14C1444.18,2300.6,1436.76,2300.16,1429.24,2299.72Z"/><path fill="#ef7c59" d="M1359.88,2293.71l-4,104.25c3.66.38,7.41.83,11.25,1.21,5.91.62,11.92,1.16,17.83,1.7.38,0,.84.11,1.22.12.94.11,2,.15,2.91.27,4.41.32,8.73.72,13.14,1l4-104.26c-11.36-.82-22.81-1.88-34.25-3C1367.94,2294.64,1363.91,2294.18,1359.88,2293.71Z"/><path fill="#ef7c59" d="M1290.66,2283.92l-4,104.25c3.56.61,7.11,1.21,10.76,1.81l1.4.29c.28,0,.66.1,1,.12,6.74,1.11,13.67,2.15,20.7,3.12,1,.11,2.15.31,3.18.43,3,.42,6.09.85,9.19,1.2l4-104.25c-2.82-.34-5.63-.68-8.35-1.09-3.09-.35-6.09-.78-9.08-1.28-4-.54-8-1.16-11.89-1.78l-5.34-.9C1298.33,2285.23,1294.5,2284.54,1290.66,2283.92Z"/><path fill="#ef7c59" d="M1221.65,2268.72l-4,104.33.93.26a13.12,13.12,0,0,0,1.68.46c.56.17,1.21.35,1.86.53,3.27.83,6.62,1.73,10,2.56.93.19,1.77.45,2.61.64,4.2,1,8.4,2,12.79,3l1,.27a9.32,9.32,0,0,1,1.22.2c4.57,1,9.15,2,13.92,2.94l4-104.33c-2.15-.39-4.2-.86-6.26-1.25-.09-.08-.19-.08-.37-.09l-6.45-1.41a22.32,22.32,0,0,1-2.24-.47c-4.39-.95-8.59-2-12.79-3-.84-.19-1.67-.45-2.51-.64-3.46-.83-6.81-1.74-10.08-2.56-1.21-.35-2.33-.63-3.44-1C1222.86,2269,1222.21,2268.82,1221.65,2268.72Z"/><path fill="#ef7c59" d="M1153,2241.6l-4,104.64c1.29.82,2.58,1.57,4,2.32a3.42,3.42,0,0,0,.74.41,6.16,6.16,0,0,0,1,.59c2.22,1.17,4.43,2.34,6.83,3.51.28.09.47.25.75.34a.38.38,0,0,0,.28.09c2.86,1.35,5.82,2.7,9,4.06a5.28,5.28,0,0,1,1,.43c.28.09.65.26,1,.42,3.43,1.38,7,2.75,10.77,4.14a1.17,1.17,0,0,0,.46.17,8.3,8.3,0,0,0,1,.35q4.32,1.56,8.92,3.13l4-104.4q-4.18-1.44-8.08-2.87l-1.49-.52c-3.71-1.39-7.33-2.77-10.76-4.14a14,14,0,0,1-2-.85c-1.58-.68-3.15-1.36-4.63-2s-3-1.35-4.35-2a5.28,5.28,0,0,1-1-.43q-4.58-2.14-8.59-4.51c-1.1-.66-2.21-1.25-3.31-1.91A13.61,13.61,0,0,1,1153,2241.6Z"/><path fill="#f3ce90" d="M1662.83,2124.88l0,.06a4.38,4.38,0,0,0-.93,1.34c-.27.59-.66,1.18-.93,1.77a7.75,7.75,0,0,0-.64,1.29,10.66,10.66,0,0,0-.43,1.48,1,1,0,0,0-.16.47,3.13,3.13,0,0,0-.4,1.3c-.1.12-.08.24-.11.42a.57.57,0,0,1-.07.36,25.14,25.14,0,0,0-.38,4.41,16.62,16.62,0,0,0,.07,3.77c0,.42.08.9.09,1.32a7.67,7.67,0,0,0,.2,2,38,38,0,0,0,1,5.18,23.85,23.85,0,0,0,1.13,4.41c.15.54.28,1,.4,1.39a28.11,28.11,0,0,0,1.27,4.11,8.61,8.61,0,0,0,.62,1.58c.44,1.21.92,2.36,1.36,3.58q1.61,4.37,3.8,8.93c.76,1.7,1.65,3.52,2.6,5.29.72,1.46,1.51,3,2.3,4.51a15.39,15.39,0,0,0,1,2c1.79,3.24,3.73,6.59,5.73,10,.25.42.57.91.82,1.34q2.12,3.57,4.45,7.34c1.12,1.71,2.19,3.48,3.39,5.26l1.65,2.39c1.14,1.84,2.34,3.62,3.6,5.46.72,1,1.43,2.08,2.21,3.19s1.66,2.39,2.51,3.55c.37.44.76,1,1.15,1.54.65,1,1.34,1.9,2.05,2.94,2,2.71,4,5.53,6.19,8.36.53.68,1,1.41,1.54,2.09,2.61,3.44,5.23,6.88,8,10.39a20.87,20.87,0,0,0,1.44,1.79c1.36,1.72,2.73,3.44,4.09,5.17.15.12.22.18.24.3,1.29,1.66,2.64,3.27,4,5,1.81,2.22,3.69,4.5,5.69,6.78.83,1.05,1.74,2.16,2.62,3.15,1.86,2.16,3.6,4.31,5.58,6.48l1,1.23.14.12,0,.13c3.21,3.76,6.53,7.52,10,11.42l1.32,1.48c2.66,3,5.31,5.93,8.09,8.9,2,2.28,4.06,4.51,6.23,6.74,1.84,2,3.8,4.08,5.77,6.13l0,.06a21.7,21.7,0,0,0,1.66,1.67c3.29,3.53,6.72,7.18,10.32,10.77l4.07,4.22c2.83,2.91,5.66,5.82,8.54,8.67,4.84,4.9,9.78,9.68,14.68,14.52,3.3,3.23,6.59,6.34,9.94,9.51,5.53,5.4,11.16,10.68,16.77,15.84s11,10.14,16.59,15.07l.07.06c2.62,2.43,5.31,4.8,8,7.16,3.17,2.81,6.28,5.55,9.43,8.23l.57.5c5.9,5.12,11.72,10,17.53,15,1.06.93,2.24,1.87,3.35,2.75,2,1.81,4.13,3.44,6.22,5.19,2.71,2.19,5.38,4.43,8.09,6.62,4.53,3.69,9,7.32,13.47,10.77,1.67,1.37,3.4,2.69,5,4,.62.45,1.18.94,1.8,1.38,2.48,1.89,5,3.77,7.39,5.71,3.05,2.38,6.15,4.7,9.17,7,3.31,2.51,6.62,5,9.91,7.41,3.78,2.83,7.55,5.53,11.24,8.18l5.47,3.9,5.4,3.84c2,1.39,3.88,2.71,5.8,4.09l.05,0,1.42.94,6.05,4.11,5.91,4c2,1.39,4,2.72,6,4,1.09.75,2.18,1.51,3.25,2.14,2.5,1.59,4.92,3.11,7.34,4.63a8.92,8.92,0,0,0,1.22.76c1.16.82,2.3,1.52,3.51,2.28,1.61,1,3.16,2,4.71,2.92,3.28,2,6.49,3.88,9.7,5.79,1.4.82,2.86,1.59,4.27,2.42l6,3.44c.07.06.21.19.33.19,1.33.77,2.74,1.6,4.12,2.3,1.93,1.09,3.84,2.05,5.7,3.08,1.33.76,2.65,1.41,4,2.11,2.32,1.22,4.63,2.44,6.93,3.54,0,.12,0,.12.14.12a9.4,9.4,0,0,0,1.31.65c.79.38,1.65.83,2.37,1.16,3.61,1.74,7.14,3.42,10.59,4.92s6.71,2.93,9.94,4.24c1.3.52,2.66,1.11,3.94,1.51,1.49.59,3,1.18,4.44,1.66.84.32,1.66.53,2.55.81,2,.72,4,1.39,6,2,1.59.48,3.18.95,4.7,1.36a25.34,25.34,0,0,0,3.46.78l2.82.64c1.69.36,3.37.6,5,.9a15.32,15.32,0,0,0,2.35.32c1.17.1,2.28.26,3.33.36a31,31,0,0,0,3.23.17,32.17,32.17,0,0,0,3.44-.06c1.62-.12,3.11-.25,4.58-.49a21.11,21.11,0,0,0,7.42-2.43,15.72,15.72,0,0,0,3-1.93,11.87,11.87,0,0,0,1.8-1.62l.15-.17c6.93-7.71,6.28-21.91-1.26-41-5-12.56-12.86-27.25-23.49-43.66-4.1-6.31-8.58-12.75-13.49-19.56q-12.75-17.78-29-37.4-7.21-8.68-15.21-17.77c-9.72-11.17-20.24-22.73-31.52-34.56-5.18-5.5-10.56-11.08-16.11-16.6-1.68-1.79-3.41-3.53-5.21-5.33-9.17-9.23-18.57-18.36-28-27.31-3.21-3.05-6.49-6.15-9.76-9.14-2.34-2.18-4.76-4.42-7.11-6.59-11.45-10.64-23.09-20.92-34.75-30.9-5.9-5.12-11.72-10.05-17.53-15-12.16-10.12-24.32-19.82-36.29-29.16-6.16-4.83-12.23-9.47-18.35-14.05q-19.41-14.51-38.08-27.13-9.81-6.81-19.45-12.95c-14.13-9.18-27.66-17.31-40.46-24.29q-11-6.12-21.2-11c-17.73-8.64-33.5-14.52-46.67-17.38a73.44,73.44,0,0,0-15-2C1673.69,2117.13,1666.73,2119.76,1662.83,2124.88Z"/><path fill="#f4a07a" d="M1715,2171.25a7.48,7.48,0,0,0-.74,1.05c-.21.47-.52.92-.73,1.39a3,3,0,0,0-.5,1,6.8,6.8,0,0,0-.33,1.16c-.14,0-.17.18-.14.37a2.63,2.63,0,0,0-.31,1,1.82,1.82,0,0,1-.14.6,19.6,19.6,0,0,0-.3,3.48,13.49,13.49,0,0,0,0,3,3.51,3.51,0,0,0,.07,1,5.7,5.7,0,0,0,.17,1.61,29.33,29.33,0,0,0,.75,4.07,18.65,18.65,0,0,0,.89,3.47,2.93,2.93,0,0,0,.32,1.09,21.43,21.43,0,0,0,1,3.24,7.09,7.09,0,0,0,.49,1.24c.34.95.73,1.86,1.07,2.82.84,2.28,1.84,4.63,3,7,.59,1.34,1.3,2.78,2.05,4.17.56,1.15,1.18,2.34,1.81,3.54a11.42,11.42,0,0,0,.81,1.54q3.77,7,8.65,14.71c.89,1.35,1.73,2.74,2.67,4.14,1.33,2.07,2.71,4.1,4.14,6.17.56.82,1.12,1.64,1.73,2.51s1.3,1.88,2,2.8c.81,1.2,1.66,2.36,2.52,3.52,3.8,5.32,8,10.78,12.39,16.4,1.46,1.93,3,3.77,4.54,5.71,1,1.31,2.08,2.57,3.16,3.93,1.42,1.74,2.9,3.53,4.47,5.33.47.58,1,1.16,1.42,1.75,1.65,1.94,3.3,3.88,5,5.82a5.34,5.34,0,0,0,.93,1.07l0,.1c6.31,7.28,13,14.81,20.18,22.45,1.45,1.61,3,3.22,4.54,4.82l-.05.05c.41.44.81.87,1.31,1.32,3.67,3.89,7.4,7.84,11.32,11.79,2.23,2.29,4.46,4.58,6.72,6.82,4.14,4.15,8.33,8.25,12.51,12.35,2.27,2.25,4.52,4.4,6.86,6.55,4.35,4.25,8.78,8.41,13.2,12.47s8.72,8,13.1,11.9c2.07,1.91,4.18,3.77,6.29,5.64,2.5,2.2,4.94,4.36,7.42,6.47l.44.39c4.65,4,9.23,7.91,13.8,11.79,2.48,2.11,5,4.18,7.53,6.24,2.13,1.72,4.23,3.49,6.36,5.21,1.8,1.43,3.56,2.91,5.31,4.29,3.06,2.46,6.16,4.88,9.23,7.34.59.44,1.19.89,1.74,1.38,1.84,1.38,3.68,2.76,5.49,4.19,2.39,1.87,4.83,3.7,7.21,5.48,2.6,2,5.21,4,7.79,5.83,3,2.22,5.94,4.35,8.85,6.43s5.75,4.11,8.55,6.09c1.6,1.09,3.05,2.13,4.56,3.22l0,0c3.54,2.48,7.07,4.86,10.53,7.1,1.6,1.09,3.15,2.13,4.74,3.13.85.6,1.71,1.19,2.55,1.69,3.2,2.09,6.37,4.09,9.5,6,3.85,2.35,7.61,4.7,11.34,6.85,2.73,1.61,5.41,3.16,8.07,4.62.06,0,.17.15.26.15,1,.6,2.16,1.25,3.25,1.81,4.5,2.51,8.81,4.78,13.1,6.86,0,.1,0,.1.11.1a4.83,4.83,0,0,0,1.19.56c2,1,4,2,5.94,2.89,4.12,1.94,8.11,3.68,11.92,5.18,1,.41,2.1.87,3.1,1.19,1.17.46,2.34.93,3.49,1.3,2.33.83,4.54,1.57,6.74,2.21,1.25.38,2.5.75,3.7,1.08a21.23,21.23,0,0,0,2.71.61l2.23.5c1.33.28,2.64.47,3.92.71.59.11,1.22.18,1.85.25.92.08,1.79.2,2.62.28s1.74.15,2.54.14a24,24,0,0,0,2.71,0c1.27-.1,2.44-.2,3.6-.39a16.46,16.46,0,0,0,5.84-1.91,12.15,12.15,0,0,0,2.33-1.52,8.3,8.3,0,0,0,1.41-1.27c5.55-6.06,5.08-17.28-.87-32.36-3.92-9.88-10.12-21.45-18.48-34.36-3.22-5-6.75-10-10.61-15.39q-10-14-22.83-29.42-5.67-6.84-12-14Q2023.29,2375,2010,2361c-4.08-4.33-8.31-8.71-12.67-13.06-1.32-1.41-2.69-2.77-4.1-4.19-7.22-7.27-14.61-14.45-22-21.49-4.39-4.2-8.86-8.31-13.27-12.37-9-8.37-18.17-16.46-27.34-24.32-4.65-4-9.22-7.9-13.8-11.78-9.57-8-19.13-15.6-28.55-22.94-4.84-3.8-9.62-7.45-14.44-11.06q-15.26-11.4-30-21.34c-5.15-3.57-10.26-7-15.31-10.19-11.11-7.22-21.76-13.62-31.83-19.1q-8.62-4.83-16.67-8.64c-14-6.8-26.36-11.43-36.72-13.68a57.88,57.88,0,0,0-11.77-1.54C1723.57,2165.1,1718.05,2167.21,1715,2171.25Z"/><path fill="#f19a6d" d="M1594,2201.66l-.57.64a19.06,19.06,0,0,0-2.06,3.34c0,.17-.26.29-.29.46s-.08.24-.13.3a23.8,23.8,0,0,0-1.27,4.14.27.27,0,0,1-.09.24,2.47,2.47,0,0,1,0,.72,31,31,0,0,0-.41,3.87,1.85,1.85,0,0,1-.07.65,1.87,1.87,0,0,0,.09.61,34.24,34.24,0,0,0,.3,5.21l0,.06a5,5,0,0,0,.14.54,38.7,38.7,0,0,0,.91,5.24l.11.72.33.91a50.44,50.44,0,0,0,1.57,5.62,1.35,1.35,0,0,0,.17.66c-.05.06,0,.12.09.19.25.84.58,1.75.91,2.66.47,1.45,1,2.85,1.6,4.31a3.71,3.71,0,0,0,.31.79,7,7,0,0,0,.41,1.09c1,2.3,2,4.61,3.07,7,.17.25.2.49.37.74a.34.34,0,0,0,.15.24c1.37,2.86,2.81,5.78,4.39,8.83a5.69,5.69,0,0,1,.52,1,10.28,10.28,0,0,1,.52,1c1.79,3.24,3.65,6.53,5.73,10,.09.18.1.3.25.42a7.54,7.54,0,0,0,.57.92q2.35,3.95,4.93,8.07l2.88,4.41c.1.18.17.25.18.37.49.73,1,1.53,1.52,2.26,1.12,1.72,2.32,3.49,3.58,5.33.71,1.05,1.5,2.15,2.21,3.19,1,1.42,2,2.83,3,4.24.16.24.39.55.55.8a14.39,14.39,0,0,0,1,1.41c.33.49.72,1,1.11,1.59,2,2.71,4,5.53,6.11,8.3.61.73,1.09,1.47,1.62,2.15,2.61,3.44,5.22,6.88,8,10.39l.62.86a7.94,7.94,0,0,1,.81.93c2.9,3.69,5.84,7.32,8.93,11.08,1.72,2,3.38,4.13,5.1,6.16.54.68,1.12,1.3,1.65,2,2.7,3.2,5.46,6.47,8.35,9.74,2.37,2.72,4.75,5.44,7.19,8.21l.9,1.11c.22.19.45.5.73.75,4.52,5.12,9.22,10.31,14.05,15.51.73.74,1.47,1.61,2.2,2.35,2.05,2.23,4.17,4.52,6.35,6.75,2.77,3,5.69,6.06,8.59,9a11.49,11.49,0,0,0,1.17,1.24,22,22,0,0,0,1.59,1.61c1.59,1.62,3.11,3.16,4.65,4.83,2.6,2.61,5.22,5.33,8,8.06,4.19,4.22,8.5,8.44,12.74,12.6.29.25.59.62.87.87.65.68,1.43,1.36,2.08,2,3.22,3,6.31,6.09,9.52,9.13,1,1,2.14,2,3.14,3,.78.68,1.5,1.43,2.23,2.17s1.41,1.25,2.06,1.93c3.2,2.92,6.27,5.84,9.39,8.7l.28.25c1.07.94,2,1.87,3.06,2.8a6.43,6.43,0,0,0,.86.87c3.9,3.55,7.8,7.1,11.68,10.53.43.37.8.8,1.15,1.11l.14.13,13.41,11.84c1,.93,2.16,1.81,3.22,2.74l.85.75c2.8,2.37,5.55,4.8,8.35,7.18l1.2,1.06c1.18.94,2.38,2,3.63,3,1.46,1.18,3,2.49,4.41,3.68,1.27,1.12,2.52,2.13,3.79,3.25.56.5,1.25,1,1.88,1.56,1.11.88,2.17,1.81,3.21,2.63,2.71,2.18,5.37,4.43,8.09,6.62.89.69,1.74,1.44,2.64,2.13s1.67,1.37,2.5,2c2.78,2.25,5.57,4.51,8.33,6.64l3.19,2.5c.56.5,1.1.88,1.67,1.38.28.25.54.38.83.63,2.83,2.19,5.66,4.39,8.43,6.52l3.19,2.5a3.54,3.54,0,0,1,.75.57c2.06,1.51,4,3,6,4.46l7.17,5.39a.66.66,0,0,0,.33.2,17.52,17.52,0,0,0,1.73,1.31c3.83,2.77,7.54,5.53,11.24,8.18.47.31,1,.75,1.44,1.07,1,.63,1.77,1.26,2.72,1.89,3.22,2.32,6.49,4.59,9.76,6.86.88.57,1.71,1.2,2.46,1.76a7.79,7.79,0,0,1,1,.7,3.37,3.37,0,0,1,.74.44q6.93,4.74,13.66,9.28c.07.06.12,0,.19.07l.07.06c1.57,1.07,3.18,2.09,4.75,3.16q5.05,3.23,9.9,6.27a20.59,20.59,0,0,0,1.83,1.2c.47.32,1,.58,1.47.89,5.33,3.36,10.63,6.6,15.84,9.65a4.44,4.44,0,0,1,.81.51c1.19.64,2.26,1.28,3.45,1.92l6,3.44c.34.19.74.45,1.07.64,1.07.63,2.2,1.21,3.39,1.85,1.93,1.09,3.84,2.05,5.7,3.08.59.31,1.07.63,1.59.89.86.45,1.58.77,2.44,1.22,2.31,1.22,4.63,2.44,6.92,3.54.34.19.67.38.93.51,1,.45,2,1,2.89,1.42,2.3,1.1,4.59,2.19,6.87,3.17,1.12.58,2.22,1,3.27,1.55,3,1.36,5.8,2.54,8.58,3.66a6.34,6.34,0,0,0,1.1.45c3.12,1.31,6.14,2.43,9.1,3.5.84.32,1.66.53,2.55.8,2,.73,4,1.4,6,2,1,.27,2,.55,3,.76s1.78.55,2.72.76l2.46.62,2.83.64c1.69.36,3.36.6,5,.9.8.08,1.55.23,2.35.32,2.28.26,4.49.46,6.56.53,9.53.16,16.23-2.18,20.35-6.7l69.44-77.42a11.87,11.87,0,0,1-1.8,1.62,15.72,15.72,0,0,1-3,1.93,25.18,25.18,0,0,1-7.42,2.43c-1.47.24-3,.37-4.58.49a32.17,32.17,0,0,1-3.44.06,31,31,0,0,1-3.23-.17c-1.05-.1-2.16-.26-3.33-.36a15.32,15.32,0,0,1-2.35-.32c-1.62-.3-3.3-.54-5-.9l-2.82-.64c-1.14-.27-2.27-.56-3.36-.89a17.53,17.53,0,0,1-1.83-.49c-.94-.21-1.95-.48-3-.76-2-.61-4-1.28-6-2-.89-.28-1.71-.49-2.55-.81-1.47-.48-3-1.07-4.44-1.66-1.28-.4-2.64-1-3.94-1.51l-4.09-1.76c-1.87-.73-3.81-1.51-5.85-2.48-3.45-1.5-7-3.18-10.59-4.92-.72-.33-1.58-.78-2.37-1.16-.4-.26-.86-.45-1.26-.71l-.05.06c-.12,0-.12,0-.14-.12-2.3-1.1-4.61-2.32-6.93-3.54-1.38-.7-2.7-1.35-4-2.11-1.86-1-3.77-2-5.7-3.08-1.38-.7-2.79-1.53-4.12-2.3-.12,0-.26-.13-.33-.19l-6-3.44c-1.41-.83-2.87-1.6-4.27-2.42-3.21-1.91-6.42-3.82-9.7-5.79-1.55-.95-3.1-1.91-4.71-2.92-.76-.56-1.49-1-2.3-1.52l-1.21-.76a8.92,8.92,0,0,1-1.22-.76c-2.42-1.52-4.84-3-7.34-4.63-1.07-.63-2.16-1.39-3.25-2.14-2-1.27-4-2.6-6-4l-5.91-4-6.05-4.11-1.42-.94c-.9-.69-1.85-1.33-2.72-1.89-1-.7-2-1.39-3.13-2.15l-5.4-3.84-5.47-3.9c-3.69-2.65-7.46-5.35-11.24-8.18-3.29-2.39-6.6-4.9-9.91-7.41-3-2.26-6.12-4.58-9.17-7-2.43-1.94-4.91-3.82-7.39-5.71-.62-.44-1.18-.93-1.8-1.38-1.6-1.31-3.33-2.63-5-4-4.49-3.45-8.94-7.08-13.47-10.77-2.71-2.19-5.38-4.43-8.09-6.62-2.09-1.75-4.17-3.38-6.22-5.19-1.11-.88-2.29-1.82-3.35-2.75-5.81-4.93-11.63-9.86-17.53-15l-.57-.5c-1.13-1-2.31-1.93-3.44-2.93L1857.92,2396c-.42-.38-.72-.75-1.14-1.12l-.07-.06c-5.58-4.93-11-10-16.59-15.07s-11.24-10.44-16.77-15.84c-3.35-3.17-6.64-6.28-9.94-9.51l-14.68-14.52c-2.88-2.85-5.71-5.76-8.54-8.67l-4.07-4.22c-3.6-3.59-7-7.24-10.32-10.77-.59-.62-1.1-1.18-1.61-1.73-2-2.05-3.93-4.09-5.77-6.13-2.17-2.23-4.23-4.46-6.23-6.74-2.78-3-5.43-5.94-8.09-8.9l-1.32-1.48-2.24-2.6c-2.65-3-5.19-5.92-7.77-8.82l0-.06-.07-.07-.14-.12-1-1.23c-1.91-2.11-3.77-4.26-5.58-6.48-.88-1-1.79-2.1-2.62-3.15l-5.64-6.84c-1.42-1.66-2.72-3.32-4.06-4.93,0-.12-.09-.18-.24-.3-1.36-1.73-2.73-3.45-4.09-5.17a20.87,20.87,0,0,1-1.44-1.79c-2.8-3.51-5.42-6.95-8-10.39-.53-.68-1-1.41-1.54-2.09-2.15-2.83-4.18-5.65-6.19-8.36-.71-1-1.4-2-2.05-2.94-.39-.55-.78-1.1-1.15-1.54l0-.06-2.56-3.49c-.78-1.11-1.49-2.15-2.21-3.19-1.26-1.84-2.46-3.62-3.6-5.46l-1.65-2.39c-1.2-1.78-2.27-3.55-3.39-5.26q-2.34-3.76-4.45-7.34c-.25-.43-.57-.92-.82-1.34-2-3.43-3.94-6.78-5.73-10a15.39,15.39,0,0,1-1-2c-.79-1.52-1.58-3-2.3-4.51s-1.43-2.92-2.08-4.32a6,6,0,0,1-.52-1q-2.19-4.58-3.8-8.93c-.44-1.22-.92-2.37-1.36-3.58a15,15,0,0,1-.57-1.64c-.21-.6-.43-1.21-.58-1.75a5.65,5.65,0,0,1-.26-.85,7,7,0,0,1-.48-1.45c-.12-.42-.25-.85-.4-1.39-.28-1-.48-1.87-.69-2.78-.15-.54-.29-1.09-.44-1.63a38,38,0,0,1-1-5.18,2.59,2.59,0,0,1,0-.66,8.87,8.87,0,0,1-.16-1.38c0-.42-.09-.9-.09-1.32a14.21,14.21,0,0,1,0-2.51l0-1.26a35.32,35.32,0,0,1,.41-3.87,1.47,1.47,0,0,0,0-.54.57.57,0,0,0,.07-.36c0-.18,0-.3.11-.42a4.53,4.53,0,0,1,.4-1.3,1,1,0,0,1,.16-.47,10.66,10.66,0,0,1,.43-1.48,7.75,7.75,0,0,1,.64-1.29c.27-.59.66-1.18.93-1.77a4.38,4.38,0,0,1,.93-1.34Z"/><path fill="#ef7c59" d="M2065.36,2545.2l-68.86,78c1,.45,2,1,2.89,1.42,2.3,1.1,4.59,2.19,6.87,3.17,1.12.58,2.22,1,3.27,1.55,3,1.36,5.8,2.54,8.58,3.66a6.34,6.34,0,0,0,1.1.45c3.12,1.31,6.14,2.43,9.1,3.5.84.32,1.66.53,2.55.8,2,.73,4,1.4,6,2,1,.27,2,.55,3,.76s1.78.55,2.72.76l68.7-77.86a17.53,17.53,0,0,1-1.83-.49c-.94-.21-1.95-.48-3-.76-2-.61-4-1.28-6-2-.89-.28-1.71-.49-2.55-.81-1.47-.48-3-1.07-4.44-1.66-2.57-.92-5.3-2.1-8-3.27-1.87-.73-3.81-1.51-5.85-2.48-3.45-1.5-7-3.18-10.59-4.92C2067.81,2546.55,2066.55,2545.84,2065.36,2545.2Z"/><path fill="#ef7c59" d="M2004.06,2509.54l-68.9,78.09q5.05,3.23,9.9,6.27a20.59,20.59,0,0,0,1.83,1.2c.47.32,1,.58,1.47.89,5.33,3.36,10.63,6.6,15.84,9.65a4.44,4.44,0,0,1,.81.51c1.19.64,2.26,1.28,3.45,1.92l6,3.44c.34.19.74.45,1.07.64l68.86-78c-.12,0-.26-.13-.33-.19l-6-3.44c-1.41-.83-2.87-1.6-4.27-2.42-3.21-1.91-6.42-3.82-9.7-5.79-2.29-1.4-4.66-3-7-4.44-.81-.5-1.67-.95-2.43-1.52-2.42-1.52-4.84-3-7.34-4.63C2006.24,2511.05,2005.15,2510.29,2004.06,2509.54Z"/><path fill="#ef7c59" d="M1946.79,2469.16l-68.91,78.1,7.17,5.39a.66.66,0,0,0,.33.2,17.52,17.52,0,0,0,1.73,1.31c3.83,2.77,7.54,5.53,11.24,8.18.47.31,1,.75,1.44,1.07,1,.63,1.77,1.26,2.72,1.89,3.22,2.32,6.49,4.59,9.76,6.86.88.57,1.71,1.2,2.46,1.76a7.79,7.79,0,0,1,1,.7l68.91-78.09c-.9-.69-1.85-1.33-2.72-1.89l-8.53-6-5.47-3.9c-3.69-2.65-7.46-5.35-11.24-8.18C1953.41,2474.18,1950.1,2471.67,1946.79,2469.16Z"/><path fill="#ef7c59" d="M1892.3,2425.78l-68.9,78.09c1.27,1.12,2.52,2.13,3.79,3.25.56.5,1.25,1,1.88,1.56,1.11.88,2.17,1.81,3.21,2.63,2.71,2.18,5.37,4.43,8.09,6.62.89.69,1.74,1.44,2.64,2.13s1.67,1.37,2.5,2c2.78,2.25,5.57,4.51,8.33,6.64l3.19,2.5c.56.5,1.1.88,1.67,1.38.28.25.54.38.83.63l68.9-78.1c-1.6-1.31-3.33-2.63-5-4-4.49-3.45-8.94-7.08-13.47-10.77-2.71-2.19-5.38-4.43-8.09-6.62C1898.67,2431.09,1895.46,2428.46,1892.3,2425.78Z"/><path fill="#ef7c59" d="M1840.12,2379.78l-69,78.15.28.25c1.07.94,2,1.87,3.06,2.8a6.43,6.43,0,0,0,.86.87c3.9,3.55,7.8,7.1,11.68,10.53.43.37.8.8,1.15,1.11l.14.13,13.41,11.84c1,.93,2.16,1.81,3.22,2.74l.85.75,69-78.15-.36-.31c-1.2-1.06-2.45-2.06-3.65-3.12L1857.92,2396c-.42-.38-.79-.81-1.21-1.18C1851.13,2389.92,1845.66,2384.89,1840.12,2379.78Z"/><path fill="#ef7c59" d="M1790.19,2331.24l-69,78.2c2.6,2.61,5.22,5.33,8,8.06,4.19,4.22,8.5,8.44,12.74,12.6.29.25.59.62.87.87.65.68,1.43,1.36,2.08,2,3.22,3,6.31,6.09,9.52,9.13l69-78.2c-8.28-7.83-16.48-15.9-24.62-24C1795.85,2337.06,1793,2334.15,1790.19,2331.24Z"/><path fill="#ef7c59" d="M1742.77,2279.85l-69,78.2c2.37,2.72,4.75,5.44,7.19,8.21l.9,1.11c.22.19.45.5.73.75,4.52,5.12,9.22,10.31,14.05,15.51.73.74,1.47,1.61,2.2,2.35,2.05,2.23,4.17,4.52,6.35,6.75l69-78.21c-2-2.05-3.93-4.09-5.77-6.13-2.17-2.23-4.23-4.46-6.23-6.74-2.78-3-5.43-5.94-8.09-8.9l-3.56-4.08C1747.89,2285.71,1745.35,2282.75,1742.77,2279.85Z"/><path fill="#ef7c59" d="M1698.93,2224.39l-69.06,78.27c.16.24.39.55.55.8a14.39,14.39,0,0,0,1,1.41c.33.49.72,1,1.11,1.59,2,2.71,4,5.53,6.11,8.3.61.73,1.09,1.47,1.62,2.15,2.61,3.44,5.22,6.88,8,10.39l.62.86a7.94,7.94,0,0,1,.81.93c2.9,3.69,5.84,7.32,8.93,11.08l69.06-78.27c-1.42-1.66-2.72-3.32-4.06-4.93,0-.12-.09-.18-.24-.3-1.36-1.73-2.73-3.45-4.09-5.17a20.87,20.87,0,0,1-1.44-1.79c-2.8-3.51-5.42-6.95-8-10.39-.53-.68-1-1.41-1.54-2.09-2.15-2.83-4.18-5.65-6.19-8.36-.71-1-1.4-2-2.05-2.94C1699.69,2225.38,1699.3,2224.83,1698.93,2224.39Z"/><path fill="#ef7c59" d="M1662.9,2159.94l-69.26,78.5c.47,1.45,1,2.85,1.6,4.31a3.71,3.71,0,0,0,.31.79,7,7,0,0,0,.41,1.09c1,2.3,2,4.61,3.07,7,.17.25.2.49.37.74a.34.34,0,0,0,.15.24c1.37,2.86,2.81,5.78,4.39,8.83a5.69,5.69,0,0,1,.52,1,10.28,10.28,0,0,1,.52,1c1.79,3.24,3.65,6.53,5.73,10,.09.18.1.3.25.42a7.54,7.54,0,0,0,.57.92q2.35,3.95,4.93,8.07l69.11-78.32q-2.34-3.76-4.45-7.34c-.25-.43-.57-.92-.82-1.34-2-3.43-3.94-6.78-5.73-10a15.39,15.39,0,0,1-1-2c-.79-1.52-1.58-3-2.3-4.51s-1.43-2.92-2.08-4.32a6,6,0,0,1-.52-1q-2.19-4.58-3.8-8.93c-.44-1.22-.92-2.37-1.36-3.58A15,15,0,0,1,1662.9,2159.94Z"/><path fill="#6fc183" d="M3217.65,1007.39l-1.14,542.17H2777.28V1281.15L2672.4,1398.47l-50.87,56.91a57.32,57.32,0,0,1-46.37,23.62h-48.81c2.45-26.2,6-57.13,8.37-70.6,0,0,82.89-351.36,129.75-415.11,24.32-33.08,150.43-84.55,167.89-89.35,55.41-15.23,83.12-15.45,124.76-30,58.89-20.61,151.84,5.66,210.06,43.43C3197.25,936.84,3215.36,971.62,3217.65,1007.39Z"/><path fill="#fefefe" d="M3090.25,953.31s-113.07,387.77-115.31,586.89l-54.55-114.07c-23.6-59-31-122.91-40.48-173.81C2843.76,1058.58,2867,966,2867,966S2920.73,861,3090.25,953.31Z"/><path fill="#efefef" d="M3015.88,903.94s2.21,41.64-72.49,62.08H2867c-17.76,62.09,20.57,99.86,20.57,99.86l55-72.59,44.63,89.34s107.28-33.28,101.2-141.33Z"/><path fill="#efefef" d="M2927.06,1492.48l6.22,33.19c4.93,4.15,13.44,4.31,18.59.35l41.09-31.68a8.51,8.51,0,0,0,3.63-7.2l-27.31-444.42c-.31-5.09-5.78-9.15-12.5-9.28l-3.46-.06c-6.72-.13-12.39,3.72-13,8.8l-16.56,443A8.37,8.37,0,0,0,2927.06,1492.48Z"/><path fill="#40947e" d="M2912.86,1018.79l16.51,33.8c4.75,9.72,16.26,9.29,23.12-.87l23.83-35.3c6.41-9.5,5.52-22.81-1.86-27.91l-18.72-12.94c-3.91-2.69-7.84-12.56-12.35-9.55L2911,982.87C2902.45,988.57,2908.42,1009.69,2912.86,1018.79Z"/><path fill="#fefefe" d="M3013.45,858.55s4.64,87-70.06,107.47l49.48,90s97.38-45.8,97.38-136.2c0-8.43-1.11-15.56-7.86-24.24-7.34-9.45-17.36-15.2-28.52-19.52Z"/><path fill="#efefef" d="M3057.15,969.7a90.59,90.59,0,0,0-53.25-104.14l-.51-.21c.65-5.89.84-10.7.88-13.92,5.32.82,10.95,1.78,16.81,2.92l25.73,11.13c11.76,4.56,22.31,10.61,30.05,20.57,7.1,9.15,10.65,34.16,10.95,43,1.66,48.06-18.12,88.46-56.22,108.91C3036.14,1016.27,3053.46,985.64,3057.15,969.7Z"/><path fill="#fefefe" d="M2943.39,966l-60,72s-51-68.46,18.89-126.89Z"/><path fill="#40947e" d="M2919.67,1481.9c5.1,10.18,11.65,4.27,16.14.49l35.93-90a8.54,8.54,0,0,0,3.2-6.92l-20.67-334.34c-.24-4.92-5-8.88-10.81-9.05l-3-.09c-5.84-.18-10.79,3.49-11.32,8.39L2890.82,1315S2900.23,1444.24,2919.67,1481.9Z"/><path fill="#40947e" d="M3265.14,1562.29V1134.17l-94.09,1.45v173.69a45.43,45.43,0,0,1-36.59,44.56l-88.81,17.6L2923.76,1555.6Z" opacity=".5"/><path fill="#40947e" d="M2777.44,1139.33v141.82L2681,1455.38c-9.42,13-83.05,21.3-98.75,23.21l21.64-93.4,59.64-47.87Z" opacity=".5"/><path fill="#5681bf" d="M2905,1549.56H2254.11a29,29,0,0,1-28.48-23.69l-5-26.79L2169.54,1223a18.33,18.33,0,0,1,17.91-21.91h430.27a19.37,19.37,0,0,1,18.72,14.38l82.34,308.49s148.24,8.87,165.49,9.68S2905,1549.56,2905,1549.56Z"/><path fill="#99b1da" d="M2380.75,1436.59c-75.06,44.31-129.79,58.24-160.09,62.49L2169.54,1223a18.33,18.33,0,0,1,17.91-21.91h269.73C2465.21,1260.83,2469.51,1384.19,2380.75,1436.59Z" opacity=".3"/><path fill="#3d5891" d="M2718.78,1523.93H2697S2627.5,1261,2617.12,1228c-4.12-13.13-8.25-21.55-11.74-26.94h12.34a19.37,19.37,0,0,1,18.72,14.38Z"/><path fill="#fff" d="M2424.47,1446.2c-11.77,0-23.37-4.77-33.25-13.81-11.5-10.52-19.32-25.62-22-42.54s0-33.7,7.68-47.28c7.86-13.94,19.94-22.85,34-25.1s28.36,2.46,40.17,13.26c11.5,10.51,19.32,25.62,22,42.53,5.64,35.34-13.07,67.82-41.72,72.39A43.49,43.49,0,0,1,2424.47,1446.2Zm-6.7-119.44a33.71,33.71,0,0,0-5.3.42c-11.07,1.77-20.67,9-27,20.22-6.56,11.65-8.88,26.17-6.53,40.9s9.08,27.81,18.94,36.83c9.56,8.74,20.91,12.57,32,10.81,23.29-3.72,38.34-31.14,33.55-61.13-2.35-14.72-9.08-27.8-18.94-36.82C2436.41,1330.64,2427.1,1326.76,2417.77,1326.76Z"/><path fill="#f5b0a6" d="M3129.62,1484.42,3063,1502.17l-103.48-36.28c-6-3.39-12.49-.81-19.23.81-28.92,6.94-71.12,22-105.21,33.88-18.91,6.57-57.75,27.86-67.2,36.89-21.53,20.55,41.24,24.82,41.24,24.82-.83,7.61,26.33,9.85,33.94,10.6l68-34,52.72,43.17a123.84,123.84,0,0,0,84,5.72l99.6-28.51Z"/><path fill="#f18a8b" d="M2916.22,1523.23s66.18,37.1,103.16,39.06c28,1.47,84.18-30.16,117.69-56.71l6.38,27-8.66,32-84.4,24.16a123.87,123.87,0,0,1-84-5.72l-51.47-32.38-45.74,20.91c-132.78.15-57.35-33.45-48.35-37.9C2860,1532.38,2916.22,1523.23,2916.22,1523.23Z"/><path fill="#fefefe" d="M3023.39,1555.6l79.09-5.64-17.67-99.42-35.08,5.64-9.35.89c-24.84,24.83-30.49,95.41-1.31,97.91Z"/><path fill="#6fc183" d="M3108.25,1589.7l-32.85-11.35c-30.93-20.82-30.92-75-15.76-129.23h0a10.26,10.26,0,0,1,7.79-7.28L3242.94,1427a10.25,10.25,0,0,0,7.95-12.17L3166.42,1131a10.19,10.19,0,0,1,1.47-7.73c8.73-13.31,38.11-63.77,30.19-130-6.35-53.12-41.19-81-76.75-97.73l-18.31-10c47.49,14.07,177.44,35.85,251.14,118.79,33.73,38,84.21,310.7,117.49,425.09,20.91,71.88-32.73,100.17-64.1,114.54C3365.42,1563.28,3108.25,1589.7,3108.25,1589.7Z"/><path fill="#40947e" d="M3225.54,1409l.72.88c.5.53,1.18,1.4,2.13,2.33a86.89,86.89,0,0,0,8,7.41,122.54,122.54,0,0,0,12.19,8.77c2.3,1.47,4.71,2.91,7.21,4.28s5.06,2.7,7.64,4,5.22,2.48,7.86,3.55,5.24,2.11,7.81,3a123.22,123.22,0,0,0,14.42,4.18,87.74,87.74,0,0,0,10.8,1.73c1.33.17,2.43.17,3.16.23l1.14,0-.73-.88c-.49-.54-1.17-1.41-2.12-2.34a86.33,86.33,0,0,0-8-7.43,124.39,124.39,0,0,0-12.2-8.77c-2.31-1.45-4.7-2.92-7.21-4.27s-5.06-2.68-7.64-4-5.23-2.46-7.87-3.53-5.24-2.12-7.81-3a123.73,123.73,0,0,0-14.43-4.17,88,88,0,0,0-10.79-1.75c-1.32-.17-2.43-.17-3.15-.23Z" opacity=".5"/><path d="M3106.43,658.1c-7.56-39.55-45.95-41.88-45.95-41.88,4.65-30.24-25-52.93-71-48.28s-57.58-20.35-109.93-26.75-75.61,44.2-63.4,87.83,63.4,47.69,63.4,47.69l4.07,144.84L3011,825c33.11,0,59.95-25.13,59.95-56.13A52.79,52.79,0,0,0,3069,755C3094.54,729.36,3111.65,685.44,3106.43,658.1Z"/><path fill="#f5b0a6" d="M3048.26,713.94a36.64,36.64,0,0,0-33.89,22.73c-11.08-10.18-21.18-27.77-21.95-58.21,0,0-43.15,18.77-59.33,2.91-16.86-16.54-15.7-38.39-15.7-38.39s-15.21,32-52,21.85L2850.7,799.31s-12,60,58.69,73L2902.27,911s-4.81,37.26,54.73,41.91c57.28,4.47,77.24-42.74,77.24-42.74l-2.63-127a36.63,36.63,0,1,0,16.65-69.26Z"/><path fill="#f18a8b" d="M2992.42,678.46s-43.15,18.77-59.33,2.91c-16.86-16.54-15.7-38.39-15.7-38.39s-15.21,32-52,21.85c0,0,22.9,17.31,49.26,10.33,0,0,17.86,36.45,52.75,31.8,0,0,20.23,34.61,46.95,29.71C3003.29,726.49,2993.19,708.9,2992.42,678.46Z"/><path fill="#f18a8b" d="M2909.39,872.31s62.67,9.73,86.52-47.27c0,0-8.85,79.65-93.64,86Z"/><path fill="#d37a7f" d="M3055.32,774.52a4,4,0,0,1-1.76-.42l-27.43-13.53a4,4,0,0,1-.08-7.13l37.81-19.78a4,4,0,1,1,3.71,7.09l-30.83,16.13,20.36,10a4,4,0,0,1-1.78,7.6Z"/><path fill="#d37a7f" d="M2899.09,786.56a5,5,0,0,1-1.84-.35l-19.87-7.62a14.44,14.44,0,0,1-7.14-21l24.47-39.9a5.14,5.14,0,1,1,8.77,5.38L2879,762.92a4.17,4.17,0,0,0,2.06,6.07l19.86,7.62a5.15,5.15,0,0,1-1.84,9.95Z"/><path fill="#d37a7f" d="M2902.75,805.7h-.49a66.18,66.18,0,0,1-17.27-2.43,4,4,0,1,1,2.35-7.65h0c.26.08,26.14,7.75,39.92-7a4,4,0,1,1,5.85,5.46C2926,801.67,2915.51,805.7,2902.75,805.7Z"/><ellipse cx="2875.17" cy="713.81" fill="#171717" rx="6.4" ry="9.02"/><ellipse cx="2938.15" cy="723.48" fill="#171717" rx="6.4" ry="9.02"/><path d="M2960.4,718.15a10.87,10.87,0,0,1-9.09-4.89c-7.09-10.72-18.41-8.07-19.67-7.74l.13,0-6.15-20.9c9.51-2.8,30.92-2.92,43.86,16.65a10.9,10.9,0,0,1-9.08,16.91Z"/><path d="M2886.17,701a11.05,11.05,0,0,1-3.38-.54,29.61,29.61,0,0,0-18.4-.23l.13-.05L2856.26,680a50.83,50.83,0,0,1,33.29-.27,10.89,10.89,0,0,1-3.38,21.25Z"/><path fill="#2d2d2d" d="M2868.45,570.36s-20.19,2.82-21.13,21.6,16.43,33.33,46.48,24.88c0,0,31.45,34.74,71.36,1.88,0,0-33.8,21.59-63.85-18.78,0,0-25.35,15.49-38-2.82S2868.45,570.36,2868.45,570.36Z" opacity=".5"/><path fill="#f18a8b" d="M2991.53,761.07c-.73,8.38-15.94,13.9-34,12.33s-32-9.64-31.31-18,15.94-13.89,34-12.32S2992.26,752.69,2991.53,761.07Z" opacity=".6"/><path fill="#3d5891" d="M2932.35,750.36a22.35,22.35,0,0,1-2.7-.16c-13.89-1.63-23.72-15.39-21.93-30.67h0c1.8-15.28,14.55-26.39,28.43-24.76a24.07,24.07,0,0,1,16.93,10.32,29.22,29.22,0,0,1,5,20.36C2956.4,739.73,2945.15,750.36,2932.35,750.36Zm-19.66-30.24c-1.47,12.54,6.4,23.8,17.54,25.11s21.4-7.83,22.88-20.37A24.22,24.22,0,0,0,2949,708a19.15,19.15,0,0,0-13.43-8.24c-11.14-1.3-21.4,7.83-22.88,20.38Z"/><path fill="#3d5891" d="M2872.32,743.31a23.05,23.05,0,0,1-2.75-.16,24.09,24.09,0,0,1-16.93-10.32,29.2,29.2,0,0,1-5-20.35c1.79-15.28,14.55-26.39,28.43-24.76s23.72,15.39,21.92,30.67a29.23,29.23,0,0,1-9.57,18.65A24.32,24.32,0,0,1,2872.32,743.31Zm1-50.75c-10.29,0-19.37,8.76-20.75,20.5h0a24.21,24.21,0,0,0,4.11,16.88,18.75,18.75,0,0,0,28.39,3.34,24.2,24.2,0,0,0,7.91-15.47c1.48-12.54-6.39-23.81-17.53-25.12A19.32,19.32,0,0,0,2873.37,692.56Zm-23.24,20.21h0Z"/><path fill="#3d5891" d="M2911.36,719.49a2.46,2.46,0,0,1-1.39-.42h0c-2.26-1.5-9.41-5.1-12.5-2.05a2.5,2.5,0,1,1-3.52-3.56c6.64-6.56,18.31,1.12,18.8,1.45a2.5,2.5,0,0,1-1.39,4.58Z"/><path fill="#3d5891" d="M3014.37,739.17a2.42,2.42,0,0,1-.7-.1L2955,721.91a2.5,2.5,0,0,1,1.4-4.81l58.68,17.17a2.5,2.5,0,0,1-.7,4.9Z"/><polygon fill="#f5b0a6" points="2549.05 1178.84 2446.38 1202.91 2436.59 1137.5 2432.01 1106.87 2430.26 1095.21 2504.74 1046.52 2549.05 1178.84"/><path fill="#f18a8b" d="M2488.75,1081.81s-8.53,46.65-52.16,55.69l-4.59-30.63.36-.19S2462.82,1106.83,2488.75,1081.81Z"/><path fill="#f5b0a6" d="M2384.4,1084.11s7.55-4.79,5.06-13a88.17,88.17,0,0,0,14.61,23c7.87,8.61,18.69,15.58,31.92,12.13,0,0,23.61-13.27,34.91-22.64,17.2-14.27,34.2-36.15,34.2-36.15s-15.39-23.91-20.78-31.58c-12.73-18.17-35.94-50.15-47.93-59.69-17.06-13.57-99.76-37.15-105.45-34.2s-7.26,13.78-.53,17.5,62.8,31.5,62.8,31.5-24.69,5.19-26.94,14,7.93,13.93,7.93,13.93-16.13,14.75-6.8,32.74c0,0-7.88,14.9-6,25.53S2375.47,1092.35,2384.4,1084.11Z"/><path fill="#f18a8b" d="M2330.41,939.49c6.74,3.72,62.8,31.5,62.8,31.5,26.82,3.63,61.71,29.1,61.71,29.1s-8.68-18.86-41.85-34-81.8-24.18-82.13-44.13C2325.26,924.94,2323.68,935.77,2330.41,939.49Z"/><path fill="#f18a8b" d="M2367.4,1031.63c9.55,20.91,16.07,22.72,22.66,24s9.89-15.33,1.14-23.95-17-32.76-17-32.76,17.17,4.26,30.29,31.62,48.13,24.16,48.13,24.16-22.87,7.48-42-1.27c-8.83-4-7.64,20.86-18.94,15.13C2372,1058.57,2367.4,1031.63,2367.4,1031.63Z"/><polygon fill="#fefefe" points="2423.83 1160.64 2552.21 1137.06 2563 1204.75 2423.17 1214.54 2423.83 1160.64"/></g></svg>