<svg xmlns="http://www.w3.org/2000/svg" fill-rule="evenodd" clip-rule="evenodd" image-rendering="optimizeQuality" shape-rendering="geometricPrecision" text-rendering="geometricPrecision" version="1.0" viewBox="0 0 215.852 215.852"><rect width="215.852" height="215.852" fill="none"/><path fill="#e2311d" d="M107.926 0c14.214,9.763 23.539,26.129 23.539,44.677 0,3.995 -0.434,7.888 -1.255,11.637 -3.06,-9.404 -11.313,-15.935 -22.284,-15.935 -10.971,0 -19.224,6.531 -22.284,15.935 -0.821,-3.749 -1.255,-7.642 -1.255,-11.637 0,-18.548 9.325,-34.914 23.539,-44.677zm-63.183 26.171c11.888,-2.207 24.371,-0.418 35.291,5.369 -0.955,4.263 -1.452,8.664 -1.452,13.137 0,9.269 2.13,18.229 6.061,26.288l0.12 2.215c0.237,4.381 1.731,8.207 4.468,11.618 0.868,1.081 1.813,2.056 2.795,3.031 0.034,0.034 0.07,0.069 0.107,0.105 -0.748,0.663 -2.045,1.249 -3.073,1.596 -10.754,-1.787 -21.073,-6.827 -29.369,-15.124 -13.115,-13.114 -18.095,-31.281 -14.948,-48.235zm126.366 0c-11.888,-2.207 -24.371,-0.418 -35.291,5.369 0.955,4.263 1.452,8.664 1.452,13.137 0,9.269 -2.129,18.229 -6.061,26.288l-0.12 2.215c-0.237,4.381 -1.731,8.207 -4.468,11.618 -0.868,1.081 -1.813,2.056 -2.795,3.031 -0.034,0.034 -0.069,0.069 -0.107,0.105 0.748,0.663 2.045,1.249 3.073,1.596 10.755,-1.787 21.073,-6.827 29.37,-15.124 13.114,-13.114 18.094,-31.281 14.947,-48.235z"/><path fill="#161616" d="M107.926 205.263c-6.107,0.166 -12.437,2.889 -18.745,2.661 -12.443,8.755 -32.202,10.148 -33.651,4.728 -1.438,-5.376 10.727,-7.977 16.211,-10.412 -12.252,-1.914 -49.601,-10.812 -43.921,-26.385 5.197,-14.257 45.216,-1.416 54.131,-3.255 0.602,-8.084 2.494,-6.555 3.972,-13.029 2.256,-9.882 0.854,-24.363 -0.62,-34.042 -0.048,-0.323 -0.331,-0.595 -0.72,-0.63 -0.388,-0.035 -0.826,0.166 -0.86,0.486l-3.491 21.375c-0.567,5.494 -2.948,12.478 -9.803,13.789l-37.563 7.188c-9.405,2.046 -11.58,-8.647 -3.328,-11.844l35.737 -11.746 4.045 -30.424c2.267,-12.326 9.252,-16.28 19.723,-17.495 4.808,-0.822 10.173,-4.325 10.159,-9.113 -0.011,-3.374 -7.484,-5.507 -7.958,-14.286l-0.372 -6.882c-0.683,-12.68 8.171,-19.038 17.054,-19.077 8.883,0.039 17.737,6.397 17.054,19.077l-0.372 6.882c-0.474,8.779 -7.947,10.912 -7.958,14.286 -0.014,4.788 5.351,8.291 10.159,9.113 10.471,1.215 17.456,5.169 19.723,17.495l4.045 30.424 35.737 11.746c8.252,3.197 6.077,13.89 -3.328,11.844l-37.563 -7.188c-6.854,-1.311 -9.235,-8.295 -9.803,-13.789l-3.49 -21.375c-0.034,-0.32 -0.473,-0.521 -0.861,-0.486 -0.388,0.035 -0.671,0.307 -0.72,0.63 -1.473,9.679 -2.875,24.16 -0.62,34.042 1.478,6.474 3.37,4.945 3.973,13.029 8.915,1.839 48.933,-11.002 54.13,3.255 5.68,15.573 -31.669,24.471 -43.921,26.385 5.484,2.435 17.649,5.036 16.211,10.412 -1.449,5.42 -21.208,4.027 -33.651,-4.728 -6.308,0.228 -12.638,-2.495 -18.745,-2.661z"/></svg>