<svg xmlns="http://www.w3.org/2000/svg" enable-background="new 0 0 2500 2500" viewBox="0 0 2500 2500"><path fill="#030047" d="M2199.74,2154.56H306.37c-2.12,0-3.84-1.72-3.84-3.84s1.72-3.84,3.84-3.84h1893.37
			c2.12,0,3.84,1.72,3.84,3.84S2201.86,2154.56,2199.74,2154.56z"/><path fill="#fff" d="M1768.69,2150.72H727.24l-82.7-1480.31c-5.16-92.35,65.53-167.22,157.88-167.22h707.01
						c92.35,0,171.41,74.87,176.56,167.22L1768.69,2150.72z"/><path fill="#030047" d="M1768.69,2154.56H727.24c-2.04,0-3.72-1.59-3.83-3.62L640.7,670.62c-2.56-45.78,12.89-88.82,43.5-121.19
						c30.54-32.3,72.53-50.09,118.21-50.09h707.01c94.21,0,175.13,76.64,180.4,170.85l82.7,1480.31c0.06,1.05-0.32,2.08-1.04,2.85
						C1770.75,2154.12,1769.75,2154.56,1768.69,2154.56z M730.87,2146.88h1033.77l-82.47-1476.26
						c-5.04-90.21-82.53-163.6-172.73-163.6H802.42c-43.55,0-83.55,16.94-112.63,47.68c-29.15,30.82-43.86,71.84-41.42,115.49
						L730.87,2146.88z"/><ellipse cx="1043.32" cy="587.71" fill="#030047" rx="24.58" ry="25.99" transform="rotate(-45.797 1043.375 587.693)"/><path fill="#030047" d="M1285.5,608.15h-175.9c-10.43,0-19.35-8.45-19.94-18.88l-0.33-5.97c-0.58-10.43,7.4-18.88,17.83-18.88
						h175.9c10.43,0,19.35,8.45,19.94,18.88l0.33,5.97C1303.91,599.7,1295.93,608.15,1285.5,608.15z"/><path fill="#ffcc3d" d="M1440.33,922.09c-3.81,0-7.11-2.83-7.6-6.71c-0.95-7.38-24.92-180.41-181.66-162.69
							c-4.21,0.49-8.01-2.55-8.49-6.76c-0.48-4.21,2.55-8.02,6.76-8.49c171.82-19.44,198.37,174.05,198.62,176
							c0.53,4.2-2.44,8.04-6.65,8.58C1440.98,922.07,1440.66,922.09,1440.33,922.09z"/><path fill="#605efd" d="M1332.86,919.78c3.16,37.36,34.54,68.6,71.32,69.92c38.21,1.37,67.73-29.85,64.55-69.89
							c-3.19-40.17-37.86-71.67-76.06-70.3C1355.91,850.83,1329.69,882.32,1332.86,919.78z"/><path fill="#030047" d="M1402.31,849.51c38.2-1.37,72.87,30.13,76.04,70.3c3.16,40.04-26.37,71.26-64.58,69.89l-9.59,0
							c38.21,1.37,67.73-29.85,64.55-69.89c-3.19-40.17-37.86-71.67-76.06-70.3L1402.31,849.51z"/><path fill="#ffcc3d" d="M1368.89,919.79c1.4,16.84,15.66,30.69,32.08,30.96c16.71,0.27,29.33-13.58,27.92-30.94
							c-1.41-17.39-16.3-31.29-33.01-31.03C1379.46,889.03,1367.49,902.92,1368.89,919.79z"/><path fill="#030047" d="M1333.55,771.98c0,0,63.88,34.43,85.04,82.1s-1.62,155.68,70.51,213.2
						c72.12,57.52,198.54,178.59,75.16,271.1s-317.48-110.11-317.48-110.11l-1.94-192.09L1333.55,771.98z"/><polygon fill="#030047" points="1628.41 1864.25 1675.4 2150.72 1071.08 2150.72 1071.08 1864.25"/><path fill="#fff" d="M2068.79,1220.83c-3.6,6.44-8.78,12.97-16.02,19.45c-23.05,20.58-64.09,69.61-73.12,80.53
														l-152.18-106.84l2.09,1.42l186.11-223.35c7.66-8.91,19.49-11.84,29.95-8.66c4.39,1.34,8.45,3.76,11.92,7.24
														c8.95,9.12,10.75,23.09,4.35,34.14l-47.19,81.7c0,0,24.64,5.02,26.48,28.78c0,0,0.17,0,0.54,0.04
														c3.43,0.21,21.17,2.89,23.38,30.37C2070.63,1167.41,2084.73,1192.72,2068.79,1220.83z"/><path fill="#030047" d="M1979.64,1324.65c-0.76,0-1.53-0.22-2.2-0.69l-152.18-106.84c-1.73-1.21-2.15-3.59-0.95-5.33
														c1.01-1.45,2.85-1.98,4.45-1.43l183.96-220.77c8.38-9.75,21.72-13.6,34.02-9.87c5.09,1.55,9.63,4.31,13.52,8.2
														c10.16,10.35,12.19,26.29,4.96,38.77l-44.74,77.47c9.24,3.43,21.57,11.89,24.17,27.66
														c6.24,1.25,21.37,6.83,24.11,31.52c3.25,2.49,6.06,7.45,7.78,11.86c2.77,7.07,7.89,25.86-4.39,47.51
														c-3.99,7.14-9.64,14.01-16.81,20.43c-23.93,21.37-67.8,74.16-72.73,80.12
														C1981.84,1324.17,1980.75,1324.65,1979.64,1324.65z M1835.15,1214.68l143.81,100.96
														c10.53-12.64,49.11-58.45,71.26-78.22c6.53-5.85,11.65-12.06,15.23-18.47c0-0.01,0.01-0.01,0.01-0.02
														c9.36-16.5,7.11-30.91,4.94-38.02c-2.27-7.45-5.64-11.19-6.55-11.64c-1.48-0.47-2.43-1.76-2.56-3.31
														c-1.98-24.52-16.84-26.67-19.79-26.85c-2.09-0.11-3.98-1.51-4.14-3.58c-1.6-20.63-23.2-25.28-23.42-25.32
														c-1.21-0.25-2.23-1.06-2.73-2.19c-0.51-1.12-0.44-2.42,0.18-3.49l47.19-81.7c5.51-9.51,3.96-21.65-3.77-29.53
														c-2.96-2.96-6.44-5.07-10.3-6.25c-9.38-2.86-19.56,0.09-25.92,7.49L1835.15,1214.68z"/><path fill="#fff" d="M1995.69,1216.22c0,0-15.95,51.83,33.24,30.68c0,0,15.05-5.28,39.89-26.06
														c15.91-28.11,1.84-53.46-3.69-55.15L1995.69,1216.22z"/><path fill="#030047" d="M2009.13,1255.8c-5.4,0-9.79-1.49-13.12-4.48c-11.53-10.35-4.79-33.61-3.99-36.23
														c0.24-0.79,0.74-1.48,1.41-1.97l69.44-50.53c0.98-0.71,2.23-0.93,3.38-0.56c4.23,1.29,8.04,7.53,10.19,12.92
														c2.83,7.1,8.07,25.97-4.28,47.79c-0.23,0.4-0.52,0.76-0.88,1.05c-25.09,20.98-40.44,26.52-41.08,26.74
														C2022.04,1254.03,2014.99,1255.8,2009.13,1255.8z M1999.01,1218.55c-1.79,6.62-4.17,21.41,2.13,27.06
														c4.47,4,13.55,3.23,26.27-2.23c0.38-0.14,14.86-5.44,38.4-25.03c8.97-16.28,6.73-30.44,4.58-37.48
														c-1.64-5.35-3.84-8.77-5.27-10.42L1999.01,1218.55z"/><path fill="#fff" d="M1966.24,1186.01c0.23-0.02,0.46,0,0.65-0.03c22.43-1.27,74.27-50.74,74.27-50.74
														c-1.82-23.79-26.45-28.78-26.45-28.78l-60.2,45.21C1939.76,1162.72,1947.77,1186.62,1966.24,1186.01z"/><path fill="#030047" d="M1965.57,1189.86c-9.67,0-17.94-5.88-21.2-15.17c-3.42-9.72-0.34-19.97,7.84-26.1l60.19-45.21
														c0.88-0.66,1.99-0.89,3.07-0.69c9.5,1.93,27.9,11.14,29.51,32.25c0.09,1.14-0.34,2.27-1.18,3.07
														c-5.41,5.16-53.53,50.48-76.7,51.8c-0.06,0-0.47,0.03-0.53,0.03l-0.34-3.83l0.13,3.84
														C1966.1,1189.86,1965.84,1189.86,1965.57,1189.86z M1966.24,1186.01h0.05H1966.24z M2015.54,1110.63l-58.72,44.11
														c-6.62,4.96-6.94,12.48-5.21,17.42c1.76,5.02,6.52,10.46,14.5,10.02v0.01c0.15-0.01,0.33-0.01,0.39-0.01
														c16.87-0.96,55.42-34.1,70.64-48.41C2034.94,1117.65,2020.46,1112.07,2015.54,1110.63z"/><path fill="#fff" d="M1977.54,1212.94c24.12,18.77,87.58-47.25,87.58-47.25c-2.23-27.53-19.97-30.18-23.38-30.41
														C2041.74,1135.28,1953.63,1194.34,1977.54,1212.94z"/><path fill="#030047" d="M1988.06,1220.09c-4.81,0-9.18-1.24-12.88-4.12l0,0c-3.82-2.97-5.75-7.07-5.58-11.84
														c0.88-25,62.93-67.29,70-72.04c0.7-0.47,1.53-0.71,2.38-0.64c2.49,0.16,24.42,2.47,26.96,33.92
														c0.09,1.09-0.3,2.18-1.06,2.97C2062.1,1174.36,2017.18,1220.08,1988.06,1220.09z M2042.72,1139.25
														c-19.08,12.95-64.83,47.64-65.45,65.15c-0.08,2.33,0.73,4.03,2.63,5.51l0,0c15.32,11.89,57.39-21.17,81.24-45.63
														C2058.88,1143.75,2047.19,1139.95,2042.72,1139.25z"/><path fill="#fff" d="M1824.33,1222.16l41.01-114.3c4.88-19.46,24.26-31.58,43.89-27.45l64.77,13.63
														c6.63,1.4,10.49,8.35,8.17,14.71l0,0c-5.66,15.5-21.18,25.12-37.58,23.29l-32.58-3.64l4.32,18.48
														c11.13,16.66,8.53,27.94-2.96,50.05"/><path fill="#030047" d="M1824.33,1226c-0.43,0-0.87-0.07-1.3-0.22c-2-0.71-3.03-2.91-2.32-4.91l41.01-114.3
														c5.29-21.19,26.55-34.47,48.29-29.91l64.77,13.63c4.25,0.89,7.9,3.59,10.01,7.39c2.11,3.8,2.46,8.32,0.97,12.4
														c-6.29,17.22-23.39,27.86-41.62,25.79l-27.17-3.03l2.93,12.51c11.72,17.92,8.47,31.03-3.14,53.37
														c-0.98,1.88-3.3,2.61-5.18,1.63c-1.88-0.97-2.61-3.29-1.63-5.17c11.17-21.48,13.19-31.17,3.18-46.16
														c-0.26-0.38-0.44-0.81-0.55-1.26l-4.32-18.47c-0.28-1.21,0.04-2.49,0.87-3.42c0.83-0.93,2.05-1.41,3.3-1.26l32.58,3.64
														c14.69,1.66,28.48-6.91,33.55-20.79c0.73-1.99,0.55-4.19-0.47-6.04c-1.03-1.85-2.8-3.16-4.88-3.6l-64.77-13.63
														c-17.69-3.74-34.98,7.1-39.37,24.63l-41.12,114.66C1827.38,1225.02,1825.91,1226,1824.33,1226z"/><path fill="#ffcc3d" d="M2004.18,1336.5l-201.47,300.11c-18.19,34.78-51.05,59.54-89.49,67.41
														c-8.77,1.78-17.53,2.67-26.25,2.67c-38.3,0-75.2-16.83-100.32-46.88l-181.43-231.74l-17.84-200.85l142.3,0.34
														c37.97,2.63,79.37,21.92,95.5,56.38l68.25,94.4l128.06-176.68L2004.18,1336.5z"/><path fill="#fff" d="M1895.89,1501.69c-0.19,0-0.39-0.02-0.59-0.04c-27.97-4.29-49.06-28.9-49.06-57.24
														c0-31.93,25.98-57.91,57.91-57.91c20.16,0,39.16,10.74,49.59,28.02c1.1,1.82,0.51,4.18-1.3,5.27
														c-1.82,1.08-4.17,0.5-5.27-1.3c-9.05-15-25.53-24.31-43.02-24.31c-27.7,0-50.23,22.53-50.23,50.23
														c0,24.59,18.29,45.94,42.55,49.66c2.1,0.32,3.53,2.28,3.21,4.38C1899.39,1500.33,1897.75,1501.69,1895.89,1501.69z" opacity=".4"/><path fill="#030047" d="M1802.7,1640.46c-0.74,0-1.48-0.21-2.14-0.65c-1.76-1.18-2.23-3.57-1.05-5.33l199.43-297.07
														l-176.54-130.28l-154.35,225.56c-1.2,1.74-3.59,2.19-5.34,1c-1.75-1.2-2.2-3.59-1-5.34l156.59-228.84
														c0.59-0.86,1.5-1.44,2.53-1.61c1.03-0.18,2.08,0.08,2.92,0.69l182.69,134.83c1.65,1.22,2.05,3.52,0.91,5.23
														l-201.47,300.12C1805.15,1639.86,1803.94,1640.46,1802.7,1640.46z"/><path fill="#ffcc3d" d="M1653.03,1897.81l-432.07,39l-116.07,10.52l-51.61,4.65l-51.61-583.93
														c-5.99-37.43,9-86.58,45.2-97.8c65.44-20.28,159.38-31.58,215-37.57c91.31-9.82,236.32-3.37,236.32-3.37
														c43.53,1.63,79.57,34.35,85.55,77.47L1653.03,1897.81z"/><path fill="#fff" d="M1452.87,1574.44c-14.07,0-25.52-11.45-25.52-25.52c0-14.08,11.45-25.53,25.52-25.53
														s25.52,11.45,25.52,25.53C1478.39,1562.99,1466.94,1574.44,1452.87,1574.44z M1452.87,1531.07
														c-9.84,0-17.85,8.01-17.85,17.85c0,9.84,8.01,17.85,17.85,17.85c9.84,0,17.85-8.01,17.85-17.85
														C1470.71,1539.08,1462.71,1531.07,1452.87,1531.07z" opacity=".4"/><path fill="#fff" d="M1352.36,1703.24c-0.75,0-1.5-0.33-2-0.96l-30.46-38.19c-0.88-1.1-0.7-2.71,0.4-3.59
														s2.72-0.7,3.6,0.4l30.46,38.19c0.88,1.1,0.7,2.71-0.4,3.59C1353.48,1703.06,1352.92,1703.24,1352.36,1703.24z" opacity=".6"/><path fill="#fff" d="M1291.4,1641.87l39.17-26.54c2.47-2.03,4.31-4.55,5.58-7.41c2.07-5.03,1.89-11.1-0.87-16.27
																c-5.38-10.19-18.5-13.21-27.95-6.53l-128.32,56.97l40.13,158.05"/><path fill="#030047" d="M1219.15,1803.98c-1.71,0-3.28-1.15-3.72-2.89l-40.13-158.05c-0.46-1.81,0.45-3.69,2.16-4.45
																l127.99-56.81c5.39-3.68,12.07-4.93,18.4-3.41c6.37,1.52,11.77,5.71,14.83,11.5c3.2,6,3.58,13.3,1.02,19.52
																c-1.61,3.6-3.84,6.57-6.69,8.91l-39.46,26.76c-1.76,1.18-4.14,0.73-5.33-1.02c-1.19-1.75-0.73-4.14,1.02-5.33
																l39.17-26.54c1.64-1.37,3.16-3.39,4.23-5.79c1.66-4.03,1.39-8.89-0.75-12.9c-2.06-3.9-5.55-6.61-9.84-7.63
																c-4.31-1.05-8.86-0.14-12.51,2.43c-0.21,0.14-0.43,0.27-0.66,0.37l-125.37,55.65l39.33,154.92
																c0.52,2.05-0.72,4.14-2.78,4.66C1219.78,1803.94,1219.46,1803.98,1219.15,1803.98z"/><path fill="#030047" d="M1495.99,1812.53l-201.24,32.67c-26.38,4.28-48.94-19.05-43.78-45.27l52.6-267.16
															c3.1-15.73,15.66-27.88,31.49-30.45l201.24-32.67c26.38-4.28,48.94,19.05,43.78,45.27l-52.6,267.16
															C1524.38,1797.81,1511.82,1809.96,1495.99,1812.53z"/><path fill="#fff" d="M1219.15,1800.15l173.02-25.47c5.33-1.53,9.22-6.08,11.17-10.84c1.38-3.23,1.84-6.76,1-10.37
															c-1.88-9.11-10.7-15.59-19.89-14.01l-31.39,4.16l58.37-8.05c6.65-0.88,12.67-5.04,15.35-11.29
															c0.04-0.06,0.04-0.11,0.04-0.11c1.38-3.23,1.84-6.81,1-10.37c-1.88-9.11-10.7-15.58-19.84-14.01l-59.68,7.91
															l89.1-12.12c5.33-1.53,9.16-6.13,11.17-10.89c1.39-3.18,1.79-6.75,1.01-10.31c-1.88-9.11-10.62-15.03-19.83-13.5
															l-86.25,10.61l62.63-8.3c5.33-1.53,9.21-6.13,11.17-10.89c1.39-3.18,1.84-6.76,1.01-10.31
															c-1.88-9.11-10.63-15.08-19.78-13.5l-128.69,8.3"/><path fill="#030047" d="M1219.14,1803.98c-1.87,0-3.51-1.37-3.79-3.28c-0.31-2.1,1.14-4.05,3.24-4.36l172.75-25.43
															c3.56-1.12,6.72-4.29,8.46-8.54c1.16-2.72,1.43-5.41,0.82-8.04c-1.52-7.37-8.47-12.35-15.51-11.09l-31.53,4.18
															c-2.1,0.34-4.02-1.19-4.31-3.29c-0.28-2.1,1.18-4.03,3.28-4.32l58.37-8.05c5.52-0.73,10.21-4.14,12.31-8.9
															c0.02-0.06,0.05-0.13,0.08-0.2c1.13-2.63,1.4-5.4,0.8-7.99c-1.52-7.38-8.45-12.34-15.46-11.1l-59.83,7.93
															c-2.09,0.33-4.03-1.19-4.31-3.29c-0.28-2.1,1.19-4.03,3.29-4.31h0.01l88.78-12.08c3.49-1.1,6.63-4.31,8.45-8.62
															c1.12-2.56,1.39-5.32,0.8-8c-1.47-7.12-8.26-11.72-15.45-10.53l-86.41,10.63c-2.09,0.24-4.01-1.22-4.28-3.32
															c-0.27-2.09,1.21-4.01,3.3-4.29l62.32-8.27c3.54-1.12,6.67-4.3,8.43-8.58c1.16-2.65,1.43-5.39,0.82-7.98
															c-1.49-7.22-8.24-11.8-15.39-10.59l-129.09,8.34c-2.1,0.12-3.94-1.47-4.08-3.58c-0.14-2.11,1.47-3.94,3.58-4.07
															l128.69-8.3c10.85-1.94,21.47,5.36,23.78,16.56c0.97,4.11,0.54,8.51-1.25,12.62c-0.67,1.63-1.5,3.17-2.46,4.58
															l10.93-1.34c11.12-1.85,21.76,5.4,24.06,16.53c0.93,4.23,0.5,8.62-1.25,12.62c-2.77,6.58-7.74,11.35-13.62,13.04
															c-0.18,0.05-0.36,0.09-0.54,0.11l-13.16,1.79c3.36,3.02,5.85,7.11,6.83,11.85c0.95,4.05,0.55,8.42-1.19,12.54
															c-0.03,0.07-0.06,0.15-0.09,0.22h0c-3.13,7.29-10.17,12.49-18.37,13.58l-10.66,1.47c3.37,3.01,5.85,7.11,6.83,11.84
															c0.96,4.1,0.54,8.51-1.23,12.65c-2.64,6.44-7.75,11.32-13.64,13.02c-0.17,0.05-0.33,0.08-0.5,0.11l-173.02,25.47
															C1219.52,1803.97,1219.33,1803.98,1219.14,1803.98z"/><path fill="#ffcc3d" d="M1255.1,1802.65l-284.52,94.15c-15.87,5.4-32.2,8.08-48.41,8.08
														c-41.56,0-82.12-17.38-111.01-49.34c-39.41-43.59-49.58-106.24-26.1-160.12l97.26-304.54
														c15.4-61.9,67.42-107.81,130.77-115.43l149.21-22.95l-165.85,416.91l207.36-68.58L1255.1,1802.65z"/><path fill="#030047" d="M970.57,1903.73c-1.6,0-3.09-1-3.63-2.6c-0.69-2,0.38-4.19,2.39-4.87l281.17-96.11l-49.4-194.41
														l-203.47,67.29c-1.34,0.44-2.81,0.11-3.84-0.85c-1.03-0.97-1.44-2.42-1.07-3.79l58.74-219.45
														c0.55-2.04,2.65-3.27,4.7-2.71c2.05,0.55,3.26,2.65,2.71,4.7l-56.9,212.58l200.63-66.35c1.01-0.33,2.12-0.23,3.05,0.27
														c0.93,0.51,1.61,1.39,1.88,2.42l51.29,201.84c0.49,1.94-0.59,3.93-2.48,4.58l-284.53,97.25
														C971.4,1903.66,970.98,1903.73,970.57,1903.73z"/><path fill="#030047" d="M1653.03,1901.63c-1.92,0-3.58-1.44-3.81-3.39l-63.67-543.03c-0.25-2.1,1.26-4.01,3.37-4.26
														c2.1-0.16,4.01,1.26,4.26,3.37l63.67,543.03c0.25,2.1-1.26,4.01-3.36,4.26
														C1653.33,1901.62,1653.18,1901.63,1653.03,1901.63z"/><line x1="996.43" x2="950.91" y1="1669.39" y2="1685.91" fill="#fff"/><path fill="#030047" d="M950.91,1689.75c-1.57,0-3.04-0.97-3.61-2.53c-0.72-1.99,0.31-4.19,2.3-4.92l45.52-16.53
								c1.99-0.71,4.19,0.3,4.92,2.3c0.72,1.99-0.31,4.19-2.3,4.92l-45.52,16.53C951.79,1689.68,951.34,1689.75,950.91,1689.75z"/><path fill="#fff" d="M1187.62,1458.06c-22.54,0-40.88-18.31-40.88-40.82c0-22.54,18.34-40.88,40.88-40.88
							c22.51,0,40.82,18.34,40.82,40.88C1228.44,1439.75,1210.13,1458.06,1187.62,1458.06z M1187.62,1384.04
							c-18.31,0-33.2,14.89-33.2,33.2c0,18.28,14.9,33.14,33.2,33.14c18.27,0,33.14-14.87,33.14-33.14
							C1220.77,1398.93,1205.9,1384.04,1187.62,1384.04z" opacity=".4"/><path fill="#fff" d="M863.07,1519.46c-7.27,0-14.48-1.66-20.84-4.81c-1.9-0.94-2.68-3.24-1.74-5.14
							c0.94-1.9,3.24-2.69,5.14-1.74c5.31,2.62,11.34,4.01,17.44,4.01c22.39,0,40.6-18.21,40.6-40.6c0-19.88-14.15-36.67-33.65-39.9
							c-2.09-0.35-3.51-2.32-3.16-4.42c0.35-2.09,2.32-3.52,4.41-3.16c23.21,3.86,40.06,23.82,40.06,47.48
							C911.35,1497.81,889.69,1519.46,863.07,1519.46z" opacity=".4"/><path fill="#fff" d="M978.96,1453.78c-21.35,0-38.71-17.37-38.71-38.71c0-21.35,17.37-38.71,38.71-38.71
							c21.35,0,38.71,17.37,38.71,38.71C1017.67,1436.41,1000.31,1453.78,978.96,1453.78z M978.96,1384.03
							c-17.11,0-31.04,13.92-31.04,31.04c0,17.12,13.92,31.04,31.04,31.04c17.11,0,31.04-13.92,31.04-31.04
							C1010,1397.95,996.07,1384.03,978.96,1384.03z" opacity=".4"/><path fill="#fff" d="M902.81,1616.76c-9.38,0-17.02-7.64-17.02-17.02s7.64-17.02,17.02-17.02s17.02,7.64,17.02,17.02
							S912.2,1616.76,902.81,1616.76z M902.81,1590.39c-5.15,0-9.34,4.19-9.34,9.34s4.19,9.34,9.34,9.34s9.34-4.19,9.34-9.34
							S907.97,1590.39,902.81,1590.39z" opacity=".4"/><path fill="#fff" d="M896.34,1790.84c-13.36,0-24.23-10.87-24.23-24.23c0-13.36,10.87-24.23,24.23-24.23
							c13.36,0,24.23,10.87,24.23,24.23C920.57,1779.97,909.7,1790.84,896.34,1790.84z M896.34,1750.05
							c-9.13,0-16.56,7.43-16.56,16.56c0,9.13,7.43,16.56,16.56,16.56c9.13,0,16.56-7.43,16.56-16.56
							C912.89,1757.48,905.47,1750.05,896.34,1750.05z" opacity=".4"/><path fill="#fff" d="M1170.94,1791.31c-18.45,0-33.46-15.01-33.46-33.46c0-18.45,15.01-33.46,33.46-33.46
							c18.45,0,33.46,15.01,33.46,33.46C1204.4,1776.3,1189.39,1791.31,1170.94,1791.31z M1170.94,1732.07
							c-14.22,0-25.78,11.56-25.78,25.78s11.57,25.79,25.78,25.79s25.78-11.57,25.78-25.79S1185.16,1732.07,1170.94,1732.07z" opacity=".4"/><path fill="#fff" d="M1455.09,1419.78c-23.93,0-43.4-19.47-43.4-43.4s19.47-43.4,43.4-43.4s43.4,19.47,43.4,43.4
							S1479.02,1419.78,1455.09,1419.78z M1455.09,1340.65c-19.7,0-35.73,16.03-35.73,35.73c0,19.7,16.03,35.73,35.73,35.73
							c19.7,0,35.72-16.03,35.72-35.73C1490.81,1356.68,1474.79,1340.65,1455.09,1340.65z" opacity=".4"/><path fill="#fff" d="M1299.51,1388.62c-14.46,0-26.23-11.77-26.23-26.23c0-14.47,11.77-26.24,26.23-26.24
							c14.47,0,26.23,11.77,26.23,26.24C1325.74,1376.85,1313.97,1388.62,1299.51,1388.62z M1299.51,1343.83
							c-10.23,0-18.56,8.33-18.56,18.56c0,10.23,8.32,18.55,18.56,18.55c10.23,0,18.56-8.33,18.56-18.55
							C1318.06,1352.15,1309.74,1343.83,1299.51,1343.83z" opacity=".4"/><path fill="#fff" d="M1122.28,1569.16c-12.62,0-22.88-10.26-22.88-22.88c0-12.62,10.26-22.88,22.88-22.88
							c12.62,0,22.88,10.26,22.88,22.88C1145.16,1558.89,1134.9,1569.16,1122.28,1569.16z M1122.28,1531.07
							c-8.38,0-15.2,6.82-15.2,15.21c0,8.38,6.82,15.2,15.2,15.2c8.38,0,15.2-6.82,15.2-15.2
							C1137.48,1537.89,1130.66,1531.07,1122.28,1531.07z" opacity=".4"/><path fill="#fff" d="M1574.32,1834.99c-19.21,0-34.85-15.63-34.85-34.85c0-19.21,15.63-34.85,34.85-34.85
							c19.21,0,34.85,15.63,34.85,34.85C1609.17,1819.36,1593.54,1834.99,1574.32,1834.99z M1574.32,1772.97
							c-14.98,0-27.17,12.19-27.17,27.17c0,14.98,12.19,27.17,27.17,27.17c14.98,0,27.17-12.19,27.17-27.17
							C1601.49,1785.16,1589.3,1772.97,1574.32,1772.97z" opacity=".4"/><path fill="#fff" d="M1211.22,1906.13c-16.37,0-29.7-13.32-29.7-29.7c0-16.37,13.32-29.69,29.7-29.69s29.7,13.32,29.7,29.69
							C1240.92,1892.81,1227.6,1906.13,1211.22,1906.13z M1211.22,1854.42c-12.14,0-22.02,9.88-22.02,22.02
							c0,12.14,9.88,22.02,22.02,22.02c12.14,0,22.02-9.88,22.02-22.02C1233.24,1864.29,1223.36,1854.42,1211.22,1854.42z" opacity=".4"/><path fill="#fff" d="M1245.12,1549.99c-12.55,0-22.76-10.21-22.76-22.76s10.21-22.76,22.76-22.76
							c12.55,0,22.76,10.21,22.76,22.76S1257.66,1549.99,1245.12,1549.99z M1245.12,1512.15c-8.32,0-15.08,6.77-15.08,15.08
							c0,8.32,6.77,15.08,15.08,15.08c8.32,0,15.08-6.77,15.08-15.08C1260.2,1518.92,1253.43,1512.15,1245.12,1512.15z" opacity=".4"/><path fill="#fff" d="M1777.1,1543.24c-15.24,0-27.64-12.4-27.64-27.64s12.4-27.64,27.64-27.64c15.24,0,27.64,12.4,27.64,27.64
							S1792.35,1543.24,1777.1,1543.24z M1777.1,1495.64c-11.01,0-19.96,8.96-19.96,19.96s8.96,19.96,19.96,19.96
							s19.96-8.96,19.96-19.96S1788.11,1495.64,1777.1,1495.64z" opacity=".4"/><path fill="#fff" d="M1693.46,1639.69c-12.07,0-21.9-9.82-21.9-21.89c0-12.07,9.82-21.9,21.9-21.9s21.9,9.82,21.9,21.9
							C1715.35,1629.87,1705.53,1639.69,1693.46,1639.69z M1693.46,1603.58c-7.84,0-14.22,6.38-14.22,14.22
							c0,7.84,6.38,14.22,14.22,14.22c7.84,0,14.22-6.38,14.22-14.22C1707.68,1609.96,1701.3,1603.58,1693.46,1603.58z" opacity=".4"/><path fill="#fff" d="M1625.18,1422.98c-10.06,0-18.24-8.19-18.24-18.25s8.18-18.24,18.24-18.24
							c10.06,0,18.24,8.18,18.24,18.24S1635.23,1422.98,1625.18,1422.98z M1625.18,1394.18c-5.83,0-10.57,4.74-10.57,10.56
							c0,5.83,4.74,10.57,10.57,10.57c5.83,0,10.57-4.74,10.57-10.57C1635.74,1398.91,1631,1394.18,1625.18,1394.18z" opacity=".4"/><path fill="#fff" d="M1787.68,1417c-16.12,0-29.23-13.11-29.23-29.23c0-16.12,13.11-29.22,29.23-29.22
							c16.12,0,29.23,13.11,29.23,29.22C1816.91,1403.89,1803.8,1417,1787.68,1417z M1787.68,1366.23
							c-11.88,0-21.55,9.66-21.55,21.55s9.67,21.55,21.55,21.55c11.88,0,21.55-9.67,21.55-21.55S1799.57,1366.23,1787.68,1366.23z" opacity=".4"/><path fill="#fff" d="M1371.58,1236.46L1340,1055.29l-163.85-1.53l31.07,188.54c0,0,49.12,51.77,116.28,34.44
									C1377.48,1262.81,1371.58,1236.46,1371.58,1236.46z"/><path fill="#030047" d="M1296.08,1284.09c-53.79,0.01-91.22-38.68-91.66-39.14c-0.53-0.56-0.88-1.26-1-2.02l-31.06-188.54
									c-0.18-1.12,0.13-2.26,0.87-3.12c0.74-0.86,1.83-1.42,2.95-1.34l163.85,1.52c1.85,0.02,3.43,1.35,3.75,3.18l31.57,181.11
									c0.48,2.39,4.75,30.36-50.9,44.72C1314.6,1283,1305.11,1284.09,1296.08,1284.09z M1210.8,1240.46
									c6.54,6.37,52.17,47.98,111.73,32.56c49.19-12.69,45.34-35.55,45.3-35.78c-0.01-0.03-0.02-0.1-0.02-0.13l-31.03-178.02
									l-156.09-1.45L1210.8,1240.46z"/><path fill="#fff" d="M1178.2,1067.21c-64.31-82.23-38.01-205.73-38.01-205.73l219.19-70.88
									c3.67,3.55,78.13,75.2,80.93,207.11c1.85,87.2-67.5,137.94-150.31,128.86"/><path fill="#030047" d="M1308.56,1131.43c-6.25,0-12.59-0.34-18.98-1.05c-2.11-0.23-3.63-2.12-3.4-4.23
									c0.23-2.11,2.12-3.68,4.23-3.39c42.17,4.6,81.84-6.91,108.84-31.64c25.15-23.03,38.02-55.3,37.21-93.33
									c-2.54-120.01-65.23-189.72-78.13-202.81l-214.8,69.46c-3.04,16.7-20.16,126.45,37.69,200.42c1.31,1.67,1.01,4.08-0.66,5.39
									c-1.67,1.3-4.08,1.01-5.39-0.66c-64.67-82.69-39-207.64-38.74-208.9c0.29-1.34,1.27-2.43,2.57-2.85l219.19-70.88
									c1.35-0.43,2.83-0.09,3.85,0.9c8.15,7.9,79.35,80.52,82.09,209.78c0.85,40.3-12.87,74.59-39.7,99.16
									C1379.94,1119.22,1345.73,1131.43,1308.56,1131.43z"/><path fill="#030047" d="M1177.49,1061.97l21.13-80.79c0,0,37.76,13.58,85.44-40.45c47.68-54.02,82.34-118.26,79.38-154.06
								c-2.96-35.79-181.94-53.83-278.84,35.04c-96.9,88.93-60.03,188.51-39.06,254.3"/><path fill="#fff" d="M1207.55,989.15c0,0-45.3-44.01-70.19-34.81c-24.89,9.2-14.19,97.23,15.63,105.07
							c29.82,7.84,53.56-4.27,53.56-4.27"/><path fill="#030047" d="M1173.62,1065.91c-6.62,0-13.91-0.76-21.6-2.78c-19.27-5.07-30.8-37.32-32.21-66.57
							c-1.19-24.49,4.88-41.62,16.23-45.81c26.85-9.98,72.28,33.79,74.2,35.65c1.52,1.48,1.56,3.91,0.08,5.43
							c-1.48,1.52-3.91,1.56-5.43,0.08c-12.13-11.77-47.65-40.83-66.19-33.96c-7.8,2.89-12.21,17.9-11.22,38.24
							c1.27,26.17,11.53,55.58,26.5,59.52c27.95,7.36,50.62-3.87,50.85-3.98c1.89-0.95,4.2-0.2,5.16,1.69
							c0.96,1.88,0.21,4.19-1.68,5.15C1207.53,1058.96,1193.59,1065.91,1173.62,1065.91z"/><path fill="#fff" d="M1174.55,1001.06c-1.81-3.21-4.3-6.03-7.25-8.24c-1.85-1.38-3.93-2.54-6.21-2.94
							c-2.28-0.4-4.78,0.06-6.52,1.57c-2.46,2.15-2.88,5.8-2.76,9.07c0.22,5.96,1.67,11.88,4.23,17.26"/><path fill="#030047" d="M1156.04,1021.63c-1.43,0-2.81-0.8-3.47-2.19c-2.77-5.83-4.37-12.32-4.6-18.77
							c-0.2-5.57,1.13-9.53,4.08-12.1c2.49-2.17,6.12-3.11,9.7-2.46c2.6,0.45,5.17,1.64,7.84,3.64c3.35,2.5,6.22,5.76,8.29,9.41
							c1.04,1.85,0.4,4.19-1.45,5.23c-1.84,1.05-4.19,0.4-5.23-1.44c-1.55-2.74-3.7-5.18-6.21-7.06c-1.69-1.26-3.18-1.99-4.57-2.23
							c-1.31-0.22-2.59,0.03-3.34,0.68c-1.06,0.92-1.56,3.01-1.45,6.04c0.2,5.41,1.53,10.86,3.86,15.75c0.91,1.91,0.1,4.2-1.82,5.11
							C1157.16,1021.51,1156.59,1021.63,1156.04,1021.63z"/><ellipse cx="1395.78" cy="944.27" fill="#030047" rx="8.97" ry="13.37" transform="rotate(-25.471 1396.023 944.298)"/><path fill="#fff" d="M1393.82,916.62c-9.52-0.24-18.47,5.87-22.7,15.5"/><path fill="#030047" d="M1371.12,935.95c-0.52,0-1.04-0.1-1.54-0.32c-1.94-0.85-2.82-3.12-1.97-5.06
									c4.87-11.08,15.24-17.91,26.31-17.79c2.12,0.05,3.79,1.81,3.74,3.93c-0.05,2.11-1.86,3.63-3.93,3.74
									c-7.99-0.32-15.48,4.98-19.09,13.2C1374,935.1,1372.59,935.95,1371.12,935.95z"/><ellipse cx="1325.36" cy="977.74" fill="#030047" rx="8.97" ry="13.37" transform="rotate(-25.471 1325.604 977.779)"/><path fill="#fff" d="M1323.41,950.09c-9.52-0.24-18.47,5.87-22.7,15.5"/><path fill="#030047" d="M1300.7,969.43c-0.52,0-1.04-0.1-1.54-0.32c-1.94-0.85-2.82-3.12-1.97-5.06
									c4.87-11.08,15.24-17.99,26.31-17.79c2.12,0.05,3.79,1.81,3.74,3.93c-0.05,2.11-1.83,3.57-3.93,3.74
									c-7.98-0.29-15.48,4.98-19.09,13.2C1303.59,968.57,1302.18,969.43,1300.7,969.43z"/><path fill="#fff" d="M1361.36,958.76c4.53,9.66,17.48,35.67,22.01,45.33c2.73,5.83,5.51,11.89,4.98,18.12
								s-5.37,12.68-12.82,13.83"/><path fill="#030047" d="M1375.52,1039.89c-1.86,0-3.5-1.36-3.79-3.25c-0.32-2.1,1.12-4.06,3.21-4.38
								c5.72-0.88,9.21-6,9.58-10.36c0.45-5.33-2.25-11.09-4.63-16.17c-2.26-4.82-6.61-13.7-10.97-22.59
								c-4.39-8.95-8.77-17.9-11.04-22.75c-0.9-1.92-0.07-4.21,1.85-5.1c1.92-0.9,4.2-0.07,5.1,1.84
								c2.26,4.82,6.62,13.73,10.99,22.63c4.38,8.94,8.76,17.87,11.03,22.71c2.79,5.96,5.95,12.7,5.33,20.08
								c-0.63,7.47-6.35,15.81-16.06,17.3C1375.92,1039.87,1375.72,1039.89,1375.52,1039.89z"/><g><path fill="#030047" d="M1345.61,1062.84c-6.52,0-13.02-1.59-18.8-4.7c-9.12-4.9-16.08-13.4-19.1-23.31
								c-0.62-2.03,0.53-4.17,2.55-4.79c2.03-0.58,4.17,0.53,4.79,2.55c2.43,7.99,8.04,14.84,15.39,18.79
								c7.35,3.95,16.16,4.86,24.16,2.49c2.04-0.59,4.17,0.56,4.77,2.59c0.6,2.03-0.56,4.17-2.59,4.77
								C1353.15,1062.31,1349.38,1062.84,1345.61,1062.84z"/></g><g><path fill="#030047" d="M1045.54,1076.01c20.97,65.85-39.06,126.1-80.42,183.75c-43.8,61.05-35.31,126.32,111.75,120.44
						c147.11-5.83,170.63-26,156.36-149.4c-14.33-123.46-55.73-168.83-55.73-168.83"/></g><g><path fill="#030047" d="M1271.26,1093.36c-42.34,0-72.28-33.92-73.67-35.53c-1.39-1.6-1.21-4.02,0.39-5.41
						c1.6-1.39,4.02-1.22,5.41,0.38c0.35,0.4,35.84,40.55,81.68,31.53c2.09-0.37,4.1,0.95,4.5,3.03c0.41,2.08-0.95,4.09-3.03,4.5
						C1281.3,1092.9,1276.2,1093.36,1271.26,1093.36z"/><path fill="#605efd" d="M1100.94,1013.55c0,37.52,28.81,68.97,65.58,70.29c38.21,1.37,70.29-30.08,70.29-70.29
						c0-40.21-32.08-71.66-70.29-70.29C1129.76,944.58,1100.94,976.03,1100.94,1013.55z"/><path fill="#030047" d="M1176.14,943.26c38.21-1.37,70.29,30.08,70.29,70.29c0,40.21-32.08,71.66-70.29,70.29h-9.62
						c38.21,1.37,70.29-30.08,70.29-70.29c0-40.21-32.08-71.66-70.29-70.29H1176.14z"/><path fill="#ffcc3d" d="M1136.98,1013.55c0,16.9,13.12,30.81,29.54,31.07c16.71,0.27,30.46-13.64,30.46-31.07
						c0-17.43-13.76-31.34-30.46-31.07C1150.1,982.73,1136.98,996.64,1136.98,1013.55z"/></g><g><path fill="#ffcc3d" d="M1165.53,1025.47c-3.16,0-6.12-1.96-7.23-5.11c-2.13-6.01-51.61-148.1-0.7-229.56
					c19.18-30.68,50.05-48.64,91.74-53.36c4.22-0.5,8.01,2.55,8.49,6.76c0.48,4.21-2.55,8.02-6.76,8.49
					c-36.81,4.17-63.88,19.72-80.45,46.24c-47.03,75.24,1.65,214.89,2.15,216.29c1.42,3.99-0.67,8.38-4.67,9.8
					C1167.24,1025.33,1166.38,1025.47,1165.53,1025.47z"/></g><g><circle cx="1285.81" cy="1089.5" r="14.63" fill="#030047"/></g><g><path fill="#605efd" d="M902.36,1155.49H263.64c-7.53,0-13.64-6.11-13.64-13.64V852.96c0-7.53,6.11-13.64,13.64-13.64h638.72
					c7.53,0,13.64,6.11,13.64,13.64v288.88C915.99,1149.38,909.89,1155.49,902.36,1155.49z"/></g><g><path fill="#fff" d="M387.7,934.52c-2.78,0-4.83-1.47-6.16-4.4c-0.62-1.39-1.23-2.22-1.85-2.5c-0.46-0.21-1.68-0.32-3.66-0.32
					c-3.89,0-8.39,3.03-13.48,9.08c-7.13,8.47-10.7,16.39-10.7,23.77c0,3.36,1.13,6.25,3.38,8.66c2.25,2.41,4.95,3.61,8.11,3.61
					c3.06,0,6.16-0.8,9.31-2.41c1.11-0.58,3.46-2.1,7.04-4.54c2.41-1.6,4.23-2.41,5.46-2.41c1.85,0,3.43,0.68,4.72,2.04
					c1.2,1.26,1.81,2.72,1.81,4.35c0,1.82-0.8,3.41-2.41,4.77c-8.49,7.17-17.14,10.74-25.94,10.74c-6.95,0-12.82-2.53-17.6-7.6
					c-4.57-4.88-6.86-10.62-6.86-17.23c0-10.34,4.53-20.91,13.57-31.69c7.69-9.14,15.55-13.71,23.58-13.71
					c1.36,0,2.59,0.05,3.68,0.14c1.09,0.09,2.06,0.23,2.9,0.42c1.36-1.33,2.99-1.99,4.91-1.99c3.15,0,5.09,1.8,5.84,5.42
					c0.52,2.6,0.79,5.62,0.79,9.08c0,1.54-0.45,2.95-1.34,4.22C391.62,933.69,389.92,934.52,387.7,934.52z"/><path fill="#fff" d="M431.66,986.68c-9.14,0-16.92-2.62-23.35-7.87c-6.86-5.62-10.28-12.9-10.28-21.82
					c0-10.5,3.29-20.07,9.87-28.72c7.38-9.73,16.68-14.59,27.89-14.59c10.78,0,18.85,2.47,24.23,7.41
					c5.37,4.94,8.06,12.37,8.06,22.28c0,10.5-3.03,20.01-9.08,28.53C452.01,981.75,442.9,986.68,431.66,986.68z M435.78,926.22
					c-6.89,0-12.79,3.34-17.7,10.01c-4.6,6.24-6.9,13.15-6.9,20.75c0,5.13,1.99,9.3,5.97,12.51c3.83,3.09,8.66,4.63,14.5,4.63
					c6.79,0,12.46-3.33,17-10c4.17-6.08,6.25-13,6.25-20.75c0-6.49-1.45-10.99-4.35-13.53
					C447.78,927.43,442.85,926.22,435.78,926.22z"/><path fill="#fff" d="M544.23,972.46c0,1.54-0.26,3.98-0.79,7.32c-0.62,3.98-2.87,5.98-6.76,5.98c-2.16,0-4.6-1.22-7.32-3.66
					c-11.89-10.72-25.31-25.74-40.26-45.08c-0.18,8.03-0.28,12.96-0.28,14.78c0,2.44,0.05,6.12,0.16,11.02
					c0.11,4.91,0.16,8.59,0.16,11.03c0,9.11-2.22,13.66-6.67,13.66c-2.25,0-4.06-0.69-5.42-2.08c-1.2-1.23-1.81-2.73-1.81-4.49
					c0-1.23,0.1-3.1,0.3-5.61c0.2-2.5,0.3-4.37,0.3-5.6c0-1.82,0.06-4.56,0.18-8.2c0.12-3.64,0.18-6.38,0.18-8.2
					c0-1.94-0.05-4.88-0.14-8.8c-0.09-3.92-0.14-6.86-0.14-8.8c0-1.85-0.18-4.62-0.56-8.3c-0.37-3.67-0.55-6.44-0.55-8.29
					s0.79-3.5,2.39-4.96c1.59-1.45,3.4-2.18,5.44-2.18c2.29,0,4.82,1.98,7.6,5.93c14.02,20.01,27.85,36.34,41.5,48.96
					c0.03-0.99,0.05-3.33,0.05-7.04c0-15.22-0.15-25.49-0.46-30.8c-0.06-0.89-0.26-2.56-0.6-5c-0.31-2.16-0.46-3.86-0.46-5.1
					c0-4.26,2.25-6.39,6.76-6.39c5.03,0,7.55,7.77,7.55,23.3c0,0.34-0.03,2.78-0.09,7.32C544.32,958.87,544.23,968.63,544.23,972.46
					z"/><path fill="#fff" d="M608.15,928.31c-2.41,0-6.16-0.17-11.26-0.51c-4.91-0.34-8.66-0.49-11.26-0.46
					c0.12,3.52,0.54,9.79,1.25,18.8c0.65,7.97,0.97,14.27,0.97,18.9c0,1.05,0.11,2.61,0.32,4.68c0.21,2.07,0.32,3.63,0.32,4.68
					c0,2.31-0.49,4.4-1.48,6.25c-1.26,2.38-3.07,3.57-5.42,3.57c-1.7,0-3.2-0.54-4.49-1.62c-1.45-1.2-2.18-2.72-2.18-4.54
					c0-0.43,0.07-1.09,0.23-1.97s0.23-1.55,0.23-2.01c0-1.42-0.1-3.57-0.3-6.44c-0.2-2.87-0.3-5.04-0.3-6.49
					c0-4.14-0.32-9.74-0.97-16.82c-0.74-8.13-1.17-13.73-1.3-16.82h-2.41c-6.89,0-12.35-0.49-16.4-1.48
					c-3.43-0.83-5.14-2.85-5.14-6.07c0-1.57,0.56-3,1.67-4.26c1.3-1.51,3-2.19,5.09-2.04c1.08,0.07,3.54,0.32,7.37,0.79
					c3.06,0.34,5.53,0.51,7.41,0.51s4.7-0.03,8.46-0.09c3.75-0.06,6.57-0.09,8.45-0.09c2.35,0,5.87,0.16,10.56,0.48
					c4.69,0.32,8.21,0.48,10.56,0.48c1.85,0,3.4,0.6,4.65,1.81c1.25,1.2,1.88,2.68,1.88,4.45c0,1.76-0.63,3.25-1.88,4.47
					C611.56,927.7,610,928.31,608.15,928.31z"/><path fill="#fff" d="M672.04,985.24c-2.44-0.09-4.89-2.96-7.37-8.62c-1.64-3.64-3.04-7.85-4.22-12.6
					c-2.29,0.34-6.02,0.68-11.21,1.02c-4.88,0.34-8.62,0.74-11.21,1.2c-1.42,3.4-3.89,8.51-7.41,15.34
					c-1.36,2.22-3.24,3.33-5.65,3.33c-1.7,0-3.23-0.58-4.59-1.73c-1.36-1.16-2.04-2.63-2.04-4.43c0-1.57,2.25-6.92,6.76-16.03
					c-0.43-0.96-0.62-1.85-0.56-2.69c0.12-1.48,1.62-2.64,4.5-3.47c4.39-7.6,9.27-15.47,14.64-23.63
					c7.72-11.7,12.48-17.56,14.27-17.56c3.4,0,5.67,2.05,6.81,6.16c0.62,3.3,1.59,8.26,2.92,14.87c1.88,8.89,4.19,19.07,6.9,30.52
					c0.22,0.87,1,2.9,2.36,6.12c1.11,2.66,1.67,4.65,1.67,5.98c0,1.79-0.67,3.29-2.01,4.49
					C675.25,984.73,673.73,985.3,672.04,985.24z M654.76,937.71c-2.41,4.14-5.73,9.77-9.96,16.91c1.39-0.31,3.55-0.56,6.49-0.74
					c3.46-0.21,5.63-0.38,6.53-0.51C657.07,949.36,656.05,944.14,654.76,937.71z"/><path fill="#fff" d="M734.66,934.52c-2.78,0-4.83-1.47-6.16-4.4c-0.62-1.39-1.23-2.22-1.85-2.5c-0.46-0.21-1.68-0.32-3.66-0.32
					c-3.89,0-8.39,3.03-13.48,9.08c-7.13,8.47-10.7,16.39-10.7,23.77c0,3.36,1.13,6.25,3.38,8.66c2.25,2.41,4.95,3.61,8.11,3.61
					c3.06,0,6.16-0.8,9.31-2.41c1.11-0.58,3.46-2.1,7.04-4.54c2.41-1.6,4.23-2.41,5.46-2.41c1.85,0,3.43,0.68,4.72,2.04
					c1.2,1.26,1.81,2.72,1.81,4.35c0,1.82-0.8,3.41-2.41,4.77c-8.49,7.17-17.14,10.74-25.94,10.74c-6.95,0-12.82-2.53-17.6-7.6
					c-4.57-4.88-6.86-10.62-6.86-17.23c0-10.34,4.53-20.91,13.57-31.69c7.69-9.14,15.55-13.71,23.58-13.71
					c1.36,0,2.59,0.05,3.68,0.14c1.09,0.09,2.06,0.23,2.9,0.42c1.36-1.33,2.99-1.99,4.91-1.99c3.15,0,5.09,1.8,5.84,5.42
					c0.52,2.6,0.79,5.62,0.79,9.08c0,1.54-0.45,2.95-1.34,4.22C738.58,933.69,736.89,934.52,734.66,934.52z"/><path fill="#fff" d="M802.25,928.31c-2.41,0-6.16-0.17-11.26-0.51c-4.91-0.34-8.66-0.49-11.26-0.46
					c0.12,3.52,0.54,9.79,1.25,18.8c0.65,7.97,0.97,14.27,0.97,18.9c0,1.05,0.11,2.61,0.32,4.68c0.21,2.07,0.32,3.63,0.32,4.68
					c0,2.31-0.49,4.4-1.48,6.25c-1.26,2.38-3.07,3.57-5.42,3.57c-1.7,0-3.2-0.54-4.49-1.62c-1.45-1.2-2.18-2.72-2.18-4.54
					c0-0.43,0.07-1.09,0.23-1.97c0.15-0.88,0.23-1.55,0.23-2.01c0-1.42-0.1-3.57-0.3-6.44c-0.2-2.87-0.3-5.04-0.3-6.49
					c0-4.14-0.32-9.74-0.97-16.82c-0.74-8.13-1.17-13.73-1.3-16.82h-2.41c-6.89,0-12.35-0.49-16.4-1.48
					c-3.43-0.83-5.14-2.85-5.14-6.07c0-1.57,0.56-3,1.67-4.26c1.3-1.51,3-2.19,5.09-2.04c1.08,0.07,3.54,0.32,7.37,0.79
					c3.06,0.34,5.53,0.51,7.41,0.51s4.7-0.03,8.46-0.09c3.75-0.06,6.57-0.09,8.45-0.09c2.35,0,5.87,0.16,10.56,0.48
					c4.69,0.32,8.21,0.48,10.56,0.48c1.85,0,3.4,0.6,4.65,1.81c1.25,1.2,1.88,2.68,1.88,4.45c0,1.76-0.63,3.25-1.88,4.47
					C805.66,927.7,804.1,928.31,802.25,928.31z"/><path fill="#fff" d="M578.57,1089.69c-2.25,3.06-4.97,5.61-8.15,7.65c-3.89,2.47-7.89,3.7-12,3.7c-7.88,0-13.73-1.48-17.56-4.46
					c-8.09-6.28-12.14-17.19-12.14-32.72c0-1.49,0.08-3.7,0.23-6.65c0.15-2.94,0.23-5.16,0.23-6.65c0-1.18,0.03-2.95,0.09-5.3
					c0.06-2.35,0.09-4.12,0.09-5.3c0-2.43,0.45-4.72,1.34-6.87c1.2-2.85,2.89-4.28,5.05-4.28c1.7,0,3.2,0.54,4.5,1.63
					c1.42,1.15,2.13,2.63,2.13,4.44c0,1.72-0.02,4.33-0.07,7.82c-0.05,3.49-0.07,6.12-0.07,7.87c0,1.45-0.08,3.64-0.23,6.58
					c-0.15,2.93-0.23,5.12-0.23,6.58c0,4.68,0.56,9.04,1.67,13.05c1.3,4.81,3.2,8.17,5.7,10.07c1.3,0.99,4.39,1.52,9.26,1.58
					c8.15,0.12,13.65-6.83,16.49-20.84c1.48-7.26,2.22-17.45,2.22-30.58c0-1.73,0.51-3.39,1.53-5c1.39-2.13,3.37-3.19,5.93-3.19
					c2.1,0,3.68,0.77,4.72,2.31c0.8,1.14,1.2,2.41,1.2,3.8c0,12.2-0.57,21.71-1.71,28.54C587.08,1074,583.67,1082.74,578.57,1089.69
					z"/><path fill="#fff" d="M621.47,1100.52c-7.84,0-14.02-1.74-18.53-5.23c-3.8-2.9-5.7-6.25-5.7-10.05c0-1.94,0.59-3.56,1.76-4.84
					c1.17-1.28,2.8-1.92,4.86-1.92c2.78,0,4.82,1.42,6.11,4.26c1.76,3.8,5.74,5.7,11.95,5.7c5.31,0,10.45-1.16,15.42-3.47
					c5.16-2.38,7.74-4.99,7.74-7.83c0-3.89-1.61-6.45-4.82-7.69c-2.28-0.89-6.87-1.42-13.76-1.57c-5.34-0.12-10.13-1.12-14.36-3.01
					c-5.71-2.56-8.53-6.24-8.43-11.03c0.09-6.02,3.31-11.54,9.64-16.56c6.33-5.02,13.31-7.53,20.94-7.53
					c3.03,0,6.76,0.69,11.21,2.08c5.53,1.73,8.29,3.72,8.29,5.98c0,1.6-0.55,3.03-1.67,4.26c-1.24,1.39-2.83,2.08-4.77,2.08
					c-1.45,0-3.62-0.31-6.51-0.92c-2.89-0.62-5.07-0.93-6.55-0.93c-3.99,0.03-7.77,0.99-11.35,2.87c-3.71,1.91-5.56,4-5.56,6.25
					c0,1.17,0.56,2.14,1.69,2.9c1.13,0.75,2.82,1.29,5.07,1.6c3.95,0.21,7.89,0.43,11.81,0.64c6.86,0.52,12.28,2.46,16.26,5.79
					c4.39,3.71,6.58,8.84,6.58,15.38c0,7.97-4.54,14-13.62,18.11C638.27,1098.97,630.37,1100.52,621.47,1100.52z"/></g><g><path fill="#030047" d="M2146.68,1859.31l0.59-52.93l-27.59-0.31c-3.13-15.77-9.2-30.5-17.54-43.65l19.73-19.32l-37.01-37.85
							l-19.73,19.32c-12.96-8.66-27.55-15.03-43.25-18.51l0.31-27.58l-52.96-0.59l-0.31,27.58c-15.77,3.13-30.5,9.17-43.65,17.54
							l-19.29-19.75l-37.85,37.01l19.29,19.75c-8.64,12.96-15.03,27.55-18.51,43.25l-27.59-0.31l-0.59,52.93l27.59,0.31
							c3.13,15.8,9.19,30.53,17.54,43.65l-19.73,19.32l37.01,37.85l19.73-19.32c12.96,8.66,27.55,15.03,43.25,18.51l-0.31,27.61
							l52.96,0.59l0.31-27.61c15.77-3.13,30.5-9.17,43.65-17.54l19.29,19.75l37.85-37.01l-19.29-19.75
							c8.64-12.93,15.03-27.53,18.51-43.25L2146.68,1859.31z M1998.5,1895.07c-39.5,2.69-71.84-30.36-68.3-69.82
							c2.78-31.04,28.23-55.93,59.33-58.02c39.53-2.66,71.84,30.4,68.28,69.83C2055,1868.09,2029.57,1892.96,1998.5,1895.07z"/></g><g><circle cx="2031.13" cy="670.22" r="215.03" fill="#fff"/><path fill="#030047" d="M2031.13,889.09c-120.69,0-218.87-98.19-218.87-218.87c0-120.69,98.19-218.88,218.87-218.88
					c120.69,0,218.87,98.19,218.87,218.88C2250,790.9,2151.81,889.09,2031.13,889.09z M2031.13,459.02
					c-116.45,0-211.2,94.74-211.2,211.2c0,116.45,94.74,211.2,211.2,211.2s211.2-94.74,211.2-211.2
					C2242.32,553.76,2147.58,459.02,2031.13,459.02z"/></g><g><path fill="#605efd" d="M1862.85,764.85c20.65,26.7,44.63,50.68,71.33,71.33c16.28,12.61,37.56,9.97,46.14-4.11c0,0,0,0,0,0
						c9.1-13.81,28.02-17.43,43.29-9.68c15.59,7.96,31.9,14.76,48.8,20.27c16.51,5.43,27.85,21.49,24.52,37.69
						c-4.33,19.35-8.65,38.7-12.98,58.06c-3.29,16.15-25.52,25.19-48.55,17.66c-138.5-45.15-247.3-153.95-292.45-292.45
						c-7.53-23.03,1.51-45.26,17.66-48.55c19.35-4.33,38.7-8.65,58.06-12.98c16.2-3.32,32.26,8.01,37.69,24.52
						c5.51,16.9,12.3,33.21,20.27,48.8c7.76,15.27,4.14,34.19-9.68,43.29c0,0,0,0,0,0C1852.89,727.29,1850.25,748.57,1862.85,764.85
						z"/><path fill="#030047" d="M1964.13,728.53c-1,0-2.56-0.17-4.66-0.51c-2.11-0.34-3.62-0.51-4.55-0.51l-17.7-0.06
						c-1.52,0-3.83,0.19-6.92,0.57c-3.09,0.38-5.42,0.57-6.98,0.57c-0.44,0-1.08-0.08-1.93-0.24c-0.84-0.16-1.48-0.24-1.93-0.24
						c-3.61,0-6.06-1.46-7.34-4.39c-0.8-1.85-1.2-4.7-1.2-8.55c0-7.5,1.66-13.78,4.99-18.83c2.57-3.89,6.72-7.79,12.46-11.68
						c5.42-3.57,10.81-7.12,16.19-10.65c6.34-4.61,9.51-9.85,9.51-15.71c0-1.52-1.26-3.04-3.79-4.55c-2.53-1.5-4.99-2.25-7.4-2.25
						c-4.26,0-8.76,1.89-13.51,5.69c-4.75,3.79-8.02,5.69-9.78,5.69c-2.13,0-3.99-0.52-5.6-1.56c-2.01-1.28-3.01-3.07-3.01-5.36
						c0-2.45,1-4.55,3.01-6.32c4.85-4.29,9.09-7.42,12.7-9.38c5.21-2.85,10.61-4.28,16.19-4.28c6.94,0,13.2,1.83,18.78,5.48
						c6.38,4.18,9.57,9.63,9.57,16.37c0,6.82-1.56,12.62-4.7,17.4c-2.45,3.81-6.32,7.53-11.62,11.13
						c-5.01,3.17-10.03,6.32-15.05,9.45c-7.62,4.98-11.72,10.65-12.28,17.04c2.21-0.28,5.46-0.6,9.75-0.96
						c8.55-0.44,14.66-0.66,18.35-0.66c3.45,0,6.86,0.74,10.23,2.23c4.17,1.84,6.26,4.21,6.26,7.1c0,2.09-0.74,3.91-2.23,5.48
						C1968.4,727.68,1966.45,728.53,1964.13,728.53z"/><path fill="#030047" d="M2022.51,703.55h-24.01c-12.88,0-19.32-2.63-19.32-7.89c0-2.2,1.12-4.67,3.37-7.4
						c1.84-2.09,3.71-4.19,5.6-6.32c6.46-9.23,16.31-22.95,29.55-41.17c3.13-4.17,7.2-6.26,12.22-6.26c2.37,0,4.41,0.6,6.14,1.81
						c2.05,1.44,3.07,3.47,3.07,6.08l0.06,45.26c5.26,0.16,8.77,0.7,10.53,1.62c1.96,1.08,2.95,3.21,2.95,6.38
						c0.04,3.33-1.48,5.62-4.58,6.86c-2.17,0.84-5.13,1.18-8.91,1.02c0.12,5.78,0.1,12.04-0.06,18.78c-0.04,2.2-0.76,4.03-2.17,5.48
						c-1.4,1.44-3.31,2.16-5.72,2.16c-6.1,0-9.01-4.01-8.73-12.04V703.55z M2022.51,660.63c-3.89,6.14-9.89,15.15-18,27.03h18
						V660.63z"/><path fill="#030047" d="M2113.99,641.86c-1.56,3.37-3.83,8.59-6.8,15.65c-2.73,7.1-6.58,15.33-11.56,24.68
						c-4.38,7.95-8.75,15.91-13.12,23.9c-0.84,1.6-4.48,9.26-10.89,22.99c-1.48,3.17-3.83,4.76-7.04,4.76
						c-2.09,0-3.91-0.66-5.48-1.98c-1.69-1.45-2.53-3.21-2.53-5.3c0-0.92,0.18-1.85,0.54-2.77c3.17-8.23,9.09-20.09,17.76-35.6
						c8.67-15.51,14.58-27.42,17.76-35.73c2.41-6.3,4.19-10.57,5.35-12.82c3.13-6.14,6.08-9.17,8.85-9.09
						c2.05,0.08,3.85,0.78,5.42,2.11c1.69,1.44,2.53,3.19,2.53,5.24C2114.78,639.13,2114.51,640.45,2113.99,641.86z"/><path fill="#030047" d="M2165.57,654.14c-4.5-0.04-12.86-0.22-25.1-0.54c-3.05,0-7.6-0.14-13.66-0.42c-5.34-0.44-8-3.03-8-7.77
						c0-2.2,0.8-4.05,2.41-5.54c1.6-1.48,3.57-2.22,5.9-2.22c5.05,0,12.65,0.15,22.78,0.45c10.13,0.3,17.73,0.45,22.78,0.45h11.02
						c2.17,0,4.07,0.42,5.72,1.26c2.05,1.04,3.07,2.59,3.07,4.64c0,2.2-1.2,4.83-3.61,7.88c-2.01,2.25-4.03,4.5-6.08,6.74
						c-5.09,5.66-9.81,12.6-14.14,20.83c-1.37,2.56-4.96,10.09-10.77,22.57c-0.76,1.64-2.47,6.14-5.12,13.48
						c-2.01,5.54-4.05,9.87-6.14,13c-1.6,2.29-3.83,3.43-6.68,3.43c-2.21,0-4.18-0.74-5.9-2.23c-1.73-1.48-2.59-3.33-2.59-5.54
						c0-1.72,1.34-5.74,4.03-12.04c4.33-10.11,8.65-20.22,12.94-30.33C2153.96,670.45,2159.67,661.08,2165.57,654.14z"/></g><g><path fill="#ffcc3d" d="M645.48,1742.19l-248.85,105.5c-4.24,1.8-9.14-0.18-10.93-4.42l-77.14-181.97
						c-1.8-4.24,0.18-9.14,4.42-10.93l248.85-105.5c4.24-1.8,9.14,0.18,10.93,4.42l77.14,181.97
						C651.7,1735.5,649.72,1740.4,645.48,1742.19z"/><path fill="#fff" d="M478.14,1719.74c-2.66,0-5.36-0.41-8-1.28l-122.86-40.29c-2.01-0.66-3.11-2.83-2.45-4.84
						c0.66-2.02,2.83-3.11,4.84-2.45l122.86,40.29c8.62,2.83,18.1-1.2,22.06-9.35l56.43-116.3c0.93-1.91,3.22-2.7,5.13-1.78
						c1.91,0.92,2.7,3.22,1.78,5.13l-56.43,116.3C497.09,1714.26,487.84,1719.74,478.14,1719.74z"/><path fill="#fff" d="M609.96,1721.89c-0.3,0-0.61-0.03-0.92-0.11l-106.29-26.09c-2.06-0.5-3.32-2.58-2.81-4.64
						s2.58-3.32,4.64-2.81l106.29,26.09c2.06,0.5,3.32,2.58,2.81,4.64C613.25,1720.72,611.68,1721.89,609.96,1721.89z"/><path fill="#fff" d="M403.95,1809.22c-0.66,0-1.32-0.17-1.93-0.52c-1.83-1.07-2.45-3.42-1.38-5.25l55.2-94.55
						c1.07-1.83,3.42-2.44,5.25-1.38c1.83,1.07,2.45,3.42,1.38,5.25l-55.2,94.55C406.56,1808.55,405.27,1809.22,403.95,1809.22z"/></g><g><path fill="#ffcc3d" d="M476.92,694.33l-23.07,14.52c-10.83,6.75-25.06,3.52-31.83-7.24l-14.52-23.07
				c-6.77-10.76-3.53-24.99,7.22-31.76l23.09-14.6c10.76-6.77,24.99-3.53,31.83,7.24l14.51,23.15
				C490.92,673.32,487.68,687.55,476.92,694.33z"/></g><g><path fill="#ffcc3d" d="M916.05,392.65l-16.58,10.44c-7.78,4.85-18.01,2.53-22.88-5.2l-10.44-16.58
				c-4.86-7.73-2.54-17.96,5.19-22.82l16.59-10.49c7.73-4.86,17.96-2.54,22.88,5.2l10.43,16.64
				C926.1,377.55,923.78,387.78,916.05,392.65z"/></g><g><path fill="#ffcc3d" d="M2169.62,1203.14l-16.58,10.44c-7.78,4.85-18.01,2.53-22.88-5.2l-10.44-16.58
				c-4.86-7.73-2.54-17.96,5.19-22.82l16.59-10.49c7.73-4.86,17.96-2.54,22.88,5.2l10.43,16.64
				C2179.68,1188.05,2177.35,1198.27,2169.62,1203.14z"/></g><g><path fill="#ffcc3d" d="M1018.78,743.01l-16.58,10.44c-7.78,4.85-18.01,2.53-22.88-5.2l-10.44-16.58
				c-4.86-7.73-2.54-17.96,5.19-22.82l16.59-10.49c7.73-4.86,17.96-2.54,22.88,5.2l10.43,16.64
				C1028.84,727.92,1026.51,738.14,1018.78,743.01z"/></g></svg>